<?xml version="1.0" encoding="UTF-8" standalone="no"?>
<!DOCTYPE svg PUBLIC "-//W3C//DTD SVG 1.1//EN"
 "http://www.w3.org/Graphics/SVG/1.1/DTD/svg11.dtd">
<!-- Generated by graphviz version 2.43.0 (0)
 -->
<!-- Title: inheritance3923ebf04f Pages: 1 -->
<svg width="576pt" height="56pt"
 viewBox="0.00 0.00 576.00 56.11" xmlns="http://www.w3.org/2000/svg" xmlns:xlink="http://www.w3.org/1999/xlink">
<g id="graph0" class="graph" transform="scale(1.14 1.14) rotate(0) translate(4 60)">
<title>inheritance3923ebf04f</title>
<!-- BaseExpression -->
<g id="node1" class="node">
<title>BaseExpression</title>
<g id="a_node1"><a xlink:title="A ``BaseExpression`` is a base&#45;class for all expressions.">
<polygon fill="white" stroke="#1e90ff" points="205,-19 111,-19 111,0 205,0 205,-19"/>
<text text-anchor="middle" x="158" y="-7" font-family="Vera Sans, DejaVu Sans, Liberation Sans, Arial, Helvetica, sans" font-size="10.00">BaseExpression</text>
</a>
</g>
</g>
<!-- BinaryExpression -->
<g id="node3" class="node">
<title>BinaryExpression</title>
<g id="a_node3"><a xlink:title="A ``BinaryExpression`` is a base&#45;class for all binary expressions.">
<polygon fill="white" stroke="#1e90ff" points="342,-19 241,-19 241,0 342,0 342,-19"/>
<text text-anchor="middle" x="291.5" y="-7" font-family="Vera Sans, DejaVu Sans, Liberation Sans, Arial, Helvetica, sans" font-size="10.00">BinaryExpression</text>
</a>
</g>
</g>
<!-- BaseExpression&#45;&gt;BinaryExpression -->
<g id="edge2" class="edge">
<title>BaseExpression&#45;&gt;BinaryExpression</title>
<path fill="none" stroke="black" stroke-width="0.5" d="M205.36,-9.5C215.19,-9.5 225.64,-9.5 235.74,-9.5"/>
<polygon fill="black" stroke="black" stroke-width="0.5" points="235.99,-11.25 240.99,-9.5 235.99,-7.75 235.99,-11.25"/>
</g>
<!-- ModelEntity -->
<g id="node2" class="node">
<title>ModelEntity</title>
<g id="a_node2"><a xlink:title="``ModelEntity`` is the base&#45;class for all classes in the VHDL language model, except for mixin classes (see multiple">
<polygon fill="white" stroke="#1e90ff" points="75,-19 0,-19 0,0 75,0 75,-19"/>
<text text-anchor="middle" x="37.5" y="-7" font-family="Vera Sans, DejaVu Sans, Liberation Sans, Arial, Helvetica, sans" font-size="10.00">ModelEntity</text>
</a>
</g>
</g>
<!-- ModelEntity&#45;&gt;BaseExpression -->
<g id="edge1" class="edge">
<title>ModelEntity&#45;&gt;BaseExpression</title>
<path fill="none" stroke="black" stroke-width="0.5" d="M75.02,-9.5C84.72,-9.5 95.38,-9.5 105.71,-9.5"/>
<polygon fill="black" stroke="black" stroke-width="0.5" points="105.75,-11.25 110.75,-9.5 105.75,-7.75 105.75,-11.25"/>
</g>
<!-- MultiplyingExpression -->
<g id="node6" class="node">
<title>MultiplyingExpression</title>
<g id="a_node6"><a xlink:title="A ``MultiplyingExpression`` is a base&#45;class for all multiplying expressions.">
<polygon fill="white" stroke="#1e90ff" points="503,-19 378,-19 378,0 503,0 503,-19"/>
<text text-anchor="middle" x="440.5" y="-7" font-family="Vera Sans, DejaVu Sans, Liberation Sans, Arial, Helvetica, sans" font-size="10.00">MultiplyingExpression</text>
</a>
</g>
</g>
<!-- BinaryExpression&#45;&gt;MultiplyingExpression -->
<g id="edge6" class="edge">
<title>BinaryExpression&#45;&gt;MultiplyingExpression</title>
<path fill="none" stroke="black" stroke-width="0.5" d="M342.27,-9.5C352.07,-9.5 362.51,-9.5 372.77,-9.5"/>
<polygon fill="black" stroke="black" stroke-width="0.5" points="372.79,-11.25 377.79,-9.5 372.79,-7.75 372.79,-11.25"/>
</g>
<!-- DOMMixin -->
<g id="node4" class="node">
<title>DOMMixin</title>
<g id="a_node4"><a xlink:href="../pyGHDL.dom.html#pyGHDL.dom.DOMMixin" xlink:title="DOMMixin" target="_top">
<polygon fill="white" stroke="#1e90ff" points="474.5,-56 406.5,-56 406.5,-37 474.5,-37 474.5,-56"/>
<text text-anchor="middle" x="440.5" y="-44" font-family="Vera Sans, DejaVu Sans, Liberation Sans, Arial, Helvetica, sans" font-size="10.00">DOMMixin</text>
</a>
</g>
</g>
<!-- MultiplyExpression -->
<g id="node5" class="node">
<title>MultiplyExpression</title>
<g id="a_node5"><a xlink:href="../pyGHDL/pyGHDL.dom.Expression.html#pyGHDL.dom.Expression.MultiplyExpression" xlink:title="MultiplyExpression" target="_top">
<polygon fill="white" stroke="#1e90ff" points="649,-37 539,-37 539,-18 649,-18 649,-37"/>
<text text-anchor="middle" x="594" y="-25" font-family="Vera Sans, DejaVu Sans, Liberation Sans, Arial, Helvetica, sans" font-size="10.00">MultiplyExpression</text>
</a>
</g>
</g>
<!-- DOMMixin&#45;&gt;MultiplyExpression -->
<g id="edge4" class="edge">
<title>DOMMixin&#45;&gt;MultiplyExpression</title>
<path fill="none" stroke="black" stroke-width="0.5" d="M474.75,-42.33C492.09,-40.16 513.83,-37.43 533.92,-34.91"/>
<polygon fill="black" stroke="black" stroke-width="0.5" points="534.25,-36.63 538.99,-34.27 533.81,-33.16 534.25,-36.63"/>
</g>
<!-- MultiplyExpression&#45;&gt;MultiplyExpression -->
<g id="edge3" class="edge">
<title>MultiplyExpression&#45;&gt;MultiplyExpression</title>
<path fill="none" stroke="black" stroke-width="0.5" d="M570.57,-37.08C559.18,-45.73 566.98,-55 594,-55 617.22,-55 626.25,-48.16 621.1,-40.74"/>
<polygon fill="black" stroke="black" stroke-width="0.5" points="622.2,-39.37 617.43,-37.08 619.73,-41.85 622.2,-39.37"/>
</g>
<!-- MultiplyingExpression&#45;&gt;MultiplyExpression -->
<g id="edge5" class="edge">
<title>MultiplyingExpression&#45;&gt;MultiplyExpression</title>
<path fill="none" stroke="black" stroke-width="0.5" d="M503.12,-16.82C513.17,-18.01 523.56,-19.25 533.55,-20.44"/>
<polygon fill="black" stroke="black" stroke-width="0.5" points="533.56,-22.2 538.73,-21.05 533.97,-18.72 533.56,-22.2"/>
</g>
</g>
</svg>
