<?xml version="1.0" encoding="UTF-8" standalone="no"?>
<!DOCTYPE svg PUBLIC "-//W3C//DTD SVG 1.1//EN"
 "http://www.w3.org/Graphics/SVG/1.1/DTD/svg11.dtd">
<!-- Generated by graphviz version 2.43.0 (0)
 -->
<!-- Title: inheritancef51d41baf9 Pages: 1 -->
<svg width="532pt" height="138pt"
 viewBox="0.00 0.00 532.00 138.00" xmlns="http://www.w3.org/2000/svg" xmlns:xlink="http://www.w3.org/1999/xlink">
<g id="graph0" class="graph" transform="scale(1 1) rotate(0) translate(4 134)">
<title>inheritancef51d41baf9</title>
<!-- BaseConstant -->
<g id="node1" class="node">
<title>BaseConstant</title>
<polygon fill="white" stroke="#1e90ff" points="392.5,-56 308.5,-56 308.5,-37 392.5,-37 392.5,-56"/>
<text text-anchor="middle" x="350.5" y="-44" font-family="Vera Sans, DejaVu Sans, Liberation Sans, Arial, Helvetica, sans" font-size="10.00">BaseConstant</text>
</g>
<!-- Constant -->
<g id="node3" class="node">
<title>Constant</title>
<g id="a_node3"><a xlink:href="../pyGHDL/pyGHDL.dom.Object.html#pyGHDL.dom.Object.Constant" xlink:title="Constant" target="_top">
<polygon fill="white" stroke="#1e90ff" points="524,-93 464,-93 464,-74 524,-74 524,-93"/>
<text text-anchor="middle" x="494" y="-81" font-family="Vera Sans, DejaVu Sans, Liberation Sans, Arial, Helvetica, sans" font-size="10.00">Constant</text>
</a>
</g>
</g>
<!-- BaseConstant&#45;&gt;Constant -->
<g id="edge4" class="edge">
<title>BaseConstant&#45;&gt;Constant</title>
<path fill="none" stroke="black" stroke-width="0.5" d="M390.86,-56.06C402.81,-59.02 415.96,-62.34 428,-65.5 438.12,-68.16 449.1,-71.15 459.1,-73.93"/>
<polygon fill="black" stroke="black" stroke-width="0.5" points="458.64,-75.62 463.92,-75.27 459.58,-72.24 458.64,-75.62"/>
</g>
<!-- Obj -->
<g id="node2" class="node">
<title>Obj</title>
<polygon fill="white" stroke="#1e90ff" points="237,-56 183,-56 183,-37 237,-37 237,-56"/>
<text text-anchor="middle" x="210" y="-44" font-family="Vera Sans, DejaVu Sans, Liberation Sans, Arial, Helvetica, sans" font-size="10.00">Obj</text>
</g>
<!-- Obj&#45;&gt;BaseConstant -->
<g id="edge1" class="edge">
<title>Obj&#45;&gt;BaseConstant</title>
<path fill="none" stroke="black" stroke-width="0.5" d="M237.05,-46.5C255.62,-46.5 281.09,-46.5 303.1,-46.5"/>
<polygon fill="black" stroke="black" stroke-width="0.5" points="303.32,-48.25 308.32,-46.5 303.32,-44.75 303.32,-48.25"/>
</g>
<!-- Constant&#45;&gt;Constant -->
<g id="edge2" class="edge">
<title>Constant&#45;&gt;Constant</title>
<path fill="none" stroke="black" stroke-width="0.5" d="M472.11,-93.08C461.47,-101.73 468.76,-111 494,-111 515.69,-111 524.13,-104.16 519.31,-96.74"/>
<polygon fill="black" stroke="black" stroke-width="0.5" points="520.58,-95.54 515.89,-93.08 518.03,-97.93 520.58,-95.54"/>
</g>
<!-- DOMMixin -->
<g id="node4" class="node">
<title>DOMMixin</title>
<g id="a_node4"><a xlink:href="../pyGHDL.dom.html#pyGHDL.dom.DOMMixin" xlink:title="DOMMixin" target="_top">
<polygon fill="white" stroke="#1e90ff" points="384.5,-130 316.5,-130 316.5,-111 384.5,-111 384.5,-130"/>
<text text-anchor="middle" x="350.5" y="-118" font-family="Vera Sans, DejaVu Sans, Liberation Sans, Arial, Helvetica, sans" font-size="10.00">DOMMixin</text>
</a>
</g>
</g>
<!-- DOMMixin&#45;&gt;Constant -->
<g id="edge3" class="edge">
<title>DOMMixin&#45;&gt;Constant</title>
<path fill="none" stroke="black" stroke-width="0.5" d="M384.73,-113.09C398.2,-109.98 413.88,-106.22 428,-102.5 438.16,-99.82 449.15,-96.7 459.15,-93.77"/>
<polygon fill="black" stroke="black" stroke-width="0.5" points="459.67,-95.44 463.97,-92.34 458.68,-92.08 459.67,-95.44"/>
</g>
<!-- WithDefaultExpressionMixin -->
<g id="node5" class="node">
<title>WithDefaultExpressionMixin</title>
<g id="a_node5"><a xlink:title="A ``WithDefaultExpression`` is a mixin class for all objects declarations accepting default expressions.">
<polygon fill="white" stroke="#1e90ff" points="428,-93 273,-93 273,-74 428,-74 428,-93"/>
<text text-anchor="middle" x="350.5" y="-81" font-family="Vera Sans, DejaVu Sans, Liberation Sans, Arial, Helvetica, sans" font-size="10.00">WithDefaultExpressionMixin</text>
</a>
</g>
</g>
<!-- WithDefaultExpressionMixin&#45;&gt;Constant -->
<g id="edge5" class="edge">
<title>WithDefaultExpressionMixin&#45;&gt;Constant</title>
<path fill="none" stroke="black" stroke-width="0.5" d="M428.05,-83.5C438.82,-83.5 449.41,-83.5 458.81,-83.5"/>
<polygon fill="black" stroke="black" stroke-width="0.5" points="458.9,-85.25 463.9,-83.5 458.9,-81.75 458.9,-85.25"/>
</g>
<!-- DocumentedEntityMixin -->
<g id="node6" class="node">
<title>DocumentedEntityMixin</title>
<g id="a_node6"><a xlink:title="A ``DocumentedEntityMixin`` is a mixin class for all VHDL entities that can have an associated documentation.">
<polygon fill="white" stroke="#1e90ff" points="140.5,-93 6.5,-93 6.5,-74 140.5,-74 140.5,-93"/>
<text text-anchor="middle" x="73.5" y="-81" font-family="Vera Sans, DejaVu Sans, Liberation Sans, Arial, Helvetica, sans" font-size="10.00">DocumentedEntityMixin</text>
</a>
</g>
</g>
<!-- DocumentedEntityMixin&#45;&gt;Obj -->
<g id="edge8" class="edge">
<title>DocumentedEntityMixin&#45;&gt;Obj</title>
<path fill="none" stroke="black" stroke-width="0.5" d="M114.49,-73.98C125.09,-71.35 136.5,-68.41 147,-65.5 157.07,-62.71 167.99,-59.44 177.82,-56.42"/>
<polygon fill="black" stroke="black" stroke-width="0.5" points="178.59,-58.01 182.85,-54.86 177.55,-54.67 178.59,-58.01"/>
</g>
<!-- ModelEntity -->
<g id="node7" class="node">
<title>ModelEntity</title>
<g id="a_node7"><a xlink:title="``ModelEntity`` is the base&#45;class for all classes in the VHDL language model, except for mixin classes (see multiple">
<polygon fill="white" stroke="#1e90ff" points="111,-56 36,-56 36,-37 111,-37 111,-56"/>
<text text-anchor="middle" x="73.5" y="-44" font-family="Vera Sans, DejaVu Sans, Liberation Sans, Arial, Helvetica, sans" font-size="10.00">ModelEntity</text>
</a>
</g>
</g>
<!-- ModelEntity&#45;&gt;Obj -->
<g id="edge6" class="edge">
<title>ModelEntity&#45;&gt;Obj</title>
<path fill="none" stroke="black" stroke-width="0.5" d="M111.25,-46.5C132.1,-46.5 157.91,-46.5 177.77,-46.5"/>
<polygon fill="black" stroke="black" stroke-width="0.5" points="177.95,-48.25 182.95,-46.5 177.95,-44.75 177.95,-48.25"/>
</g>
<!-- MultipleNamedEntityMixin -->
<g id="node8" class="node">
<title>MultipleNamedEntityMixin</title>
<g id="a_node8"><a xlink:title="A ``MultipleNamedEntityMixin`` is a mixin class for all VHDL entities that declare multiple instances at once by">
<polygon fill="white" stroke="#1e90ff" points="147,-19 0,-19 0,0 147,0 147,-19"/>
<text text-anchor="middle" x="73.5" y="-7" font-family="Vera Sans, DejaVu Sans, Liberation Sans, Arial, Helvetica, sans" font-size="10.00">MultipleNamedEntityMixin</text>
</a>
</g>
</g>
<!-- MultipleNamedEntityMixin&#45;&gt;Obj -->
<g id="edge7" class="edge">
<title>MultipleNamedEntityMixin&#45;&gt;Obj</title>
<path fill="none" stroke="black" stroke-width="0.5" d="M111.81,-19.08C123.13,-22.04 135.59,-25.35 147,-28.5 157.03,-31.27 167.94,-34.4 177.77,-37.26"/>
<polygon fill="black" stroke="black" stroke-width="0.5" points="177.51,-39.01 182.8,-38.73 178.49,-35.65 177.51,-39.01"/>
</g>
</g>
</svg>
