<?xml version="1.0" encoding="UTF-8" standalone="no"?>
<!DOCTYPE svg PUBLIC "-//W3C//DTD SVG 1.1//EN"
 "http://www.w3.org/Graphics/SVG/1.1/DTD/svg11.dtd">
<!-- Generated by graphviz version 2.43.0 (0)
 -->
<!-- Title: inheritance1d19a82bec Pages: 1 -->
<svg width="438pt" height="101pt"
 viewBox="0.00 0.00 438.00 101.00" xmlns="http://www.w3.org/2000/svg" xmlns:xlink="http://www.w3.org/1999/xlink">
<g id="graph0" class="graph" transform="scale(1 1) rotate(0) translate(4 97)">
<title>inheritance1d19a82bec</title>
<!-- DOMMixin -->
<g id="node1" class="node">
<title>DOMMixin</title>
<g id="a_node1"><a xlink:href="../pyGHDL.dom.html#pyGHDL.dom.DOMMixin" xlink:title="DOMMixin" target="_top">
<polygon fill="white" stroke="#1e90ff" points="294.5,-93 226.5,-93 226.5,-74 294.5,-74 294.5,-93"/>
<text text-anchor="middle" x="260.5" y="-81" font-family="Vera Sans, DejaVu Sans, Liberation Sans, Arial, Helvetica, sans" font-size="10.00">DOMMixin</text>
</a>
</g>
</g>
<!-- Variable -->
<g id="node6" class="node">
<title>Variable</title>
<g id="a_node6"><a xlink:href="../pyGHDL/pyGHDL.dom.Object.html#pyGHDL.dom.Object.Variable" xlink:title="Variable" target="_top">
<polygon fill="white" stroke="#1e90ff" points="430,-56 374,-56 374,-37 430,-37 430,-56"/>
<text text-anchor="middle" x="402" y="-44" font-family="Vera Sans, DejaVu Sans, Liberation Sans, Arial, Helvetica, sans" font-size="10.00">Variable</text>
</a>
</g>
</g>
<!-- DOMMixin&#45;&gt;Variable -->
<g id="edge5" class="edge">
<title>DOMMixin&#45;&gt;Variable</title>
<path fill="none" stroke="black" stroke-width="0.5" d="M294.75,-76.15C308.22,-73.05 323.9,-69.28 338,-65.5 348.05,-62.8 358.93,-59.62 368.77,-56.64"/>
<polygon fill="black" stroke="black" stroke-width="0.5" points="369.54,-58.23 373.82,-55.1 368.52,-54.88 369.54,-58.23"/>
</g>
<!-- DocumentedEntityMixin -->
<g id="node2" class="node">
<title>DocumentedEntityMixin</title>
<g id="a_node2"><a xlink:title="A ``DocumentedEntityMixin`` is a mixin class for all VHDL entities that can have an associated documentation.">
<polygon fill="white" stroke="#1e90ff" points="140.5,-93 6.5,-93 6.5,-74 140.5,-74 140.5,-93"/>
<text text-anchor="middle" x="73.5" y="-81" font-family="Vera Sans, DejaVu Sans, Liberation Sans, Arial, Helvetica, sans" font-size="10.00">DocumentedEntityMixin</text>
</a>
</g>
</g>
<!-- Obj -->
<g id="node5" class="node">
<title>Obj</title>
<polygon fill="white" stroke="#1e90ff" points="287.5,-56 233.5,-56 233.5,-37 287.5,-37 287.5,-56"/>
<text text-anchor="middle" x="260.5" y="-44" font-family="Vera Sans, DejaVu Sans, Liberation Sans, Arial, Helvetica, sans" font-size="10.00">Obj</text>
</g>
<!-- DocumentedEntityMixin&#45;&gt;Obj -->
<g id="edge3" class="edge">
<title>DocumentedEntityMixin&#45;&gt;Obj</title>
<path fill="none" stroke="black" stroke-width="0.5" d="M122.14,-73.97C155.5,-67.3 199.13,-58.57 228.18,-52.76"/>
<polygon fill="black" stroke="black" stroke-width="0.5" points="228.86,-54.41 233.42,-51.72 228.18,-50.98 228.86,-54.41"/>
</g>
<!-- ModelEntity -->
<g id="node3" class="node">
<title>ModelEntity</title>
<g id="a_node3"><a xlink:title="``ModelEntity`` is the base&#45;class for all classes in the VHDL language model, except for mixin classes (see multiple">
<polygon fill="white" stroke="#1e90ff" points="111,-56 36,-56 36,-37 111,-37 111,-56"/>
<text text-anchor="middle" x="73.5" y="-44" font-family="Vera Sans, DejaVu Sans, Liberation Sans, Arial, Helvetica, sans" font-size="10.00">ModelEntity</text>
</a>
</g>
</g>
<!-- ModelEntity&#45;&gt;Obj -->
<g id="edge1" class="edge">
<title>ModelEntity&#45;&gt;Obj</title>
<path fill="none" stroke="black" stroke-width="0.5" d="M111.05,-46.5C145.33,-46.5 196.04,-46.5 228.43,-46.5"/>
<polygon fill="black" stroke="black" stroke-width="0.5" points="228.46,-48.25 233.46,-46.5 228.46,-44.75 228.46,-48.25"/>
</g>
<!-- MultipleNamedEntityMixin -->
<g id="node4" class="node">
<title>MultipleNamedEntityMixin</title>
<g id="a_node4"><a xlink:title="A ``MultipleNamedEntityMixin`` is a mixin class for all VHDL entities that declare multiple instances at once by">
<polygon fill="white" stroke="#1e90ff" points="147,-19 0,-19 0,0 147,0 147,-19"/>
<text text-anchor="middle" x="73.5" y="-7" font-family="Vera Sans, DejaVu Sans, Liberation Sans, Arial, Helvetica, sans" font-size="10.00">MultipleNamedEntityMixin</text>
</a>
</g>
</g>
<!-- MultipleNamedEntityMixin&#45;&gt;Obj -->
<g id="edge2" class="edge">
<title>MultipleNamedEntityMixin&#45;&gt;Obj</title>
<path fill="none" stroke="black" stroke-width="0.5" d="M122.14,-19.03C155.5,-25.7 199.13,-34.43 228.18,-40.24"/>
<polygon fill="black" stroke="black" stroke-width="0.5" points="228.18,-42.02 233.42,-41.28 228.86,-38.59 228.18,-42.02"/>
</g>
<!-- Obj&#45;&gt;Variable -->
<g id="edge6" class="edge">
<title>Obj&#45;&gt;Variable</title>
<path fill="none" stroke="black" stroke-width="0.5" d="M287.74,-46.5C310.73,-46.5 344.22,-46.5 368.82,-46.5"/>
<polygon fill="black" stroke="black" stroke-width="0.5" points="368.93,-48.25 373.93,-46.5 368.93,-44.75 368.93,-48.25"/>
</g>
<!-- Variable&#45;&gt;Variable -->
<g id="edge4" class="edge">
<title>Variable&#45;&gt;Variable</title>
<path fill="none" stroke="black" stroke-width="0.5" d="M380.42,-56.08C369.92,-64.73 377.12,-74 402,-74 422.99,-74 431.4,-67.4 427.2,-60.15"/>
<polygon fill="black" stroke="black" stroke-width="0.5" points="428.21,-58.65 423.58,-56.08 425.6,-60.98 428.21,-58.65"/>
</g>
<!-- WithDefaultExpressionMixin -->
<g id="node7" class="node">
<title>WithDefaultExpressionMixin</title>
<g id="a_node7"><a xlink:title="A ``WithDefaultExpression`` is a mixin class for all objects declarations accepting default expressions.">
<polygon fill="white" stroke="#1e90ff" points="338,-19 183,-19 183,0 338,0 338,-19"/>
<text text-anchor="middle" x="260.5" y="-7" font-family="Vera Sans, DejaVu Sans, Liberation Sans, Arial, Helvetica, sans" font-size="10.00">WithDefaultExpressionMixin</text>
</a>
</g>
</g>
<!-- WithDefaultExpressionMixin&#45;&gt;Variable -->
<g id="edge7" class="edge">
<title>WithDefaultExpressionMixin&#45;&gt;Variable</title>
<path fill="none" stroke="black" stroke-width="0.5" d="M300.88,-19C312.82,-21.96 325.97,-25.29 338,-28.5 348.01,-31.17 358.88,-34.22 368.72,-37.04"/>
<polygon fill="black" stroke="black" stroke-width="0.5" points="368.48,-38.8 373.77,-38.5 369.45,-35.43 368.48,-38.8"/>
</g>
</g>
</svg>
