<?xml version="1.0" encoding="UTF-8" standalone="no"?>
<!DOCTYPE svg PUBLIC "-//W3C//DTD SVG 1.1//EN"
 "http://www.w3.org/Graphics/SVG/1.1/DTD/svg11.dtd">
<!-- Generated by graphviz version 2.43.0 (0)
 -->
<!-- Title: inheritance3188172b24 Pages: 1 -->
<svg width="205pt" height="64pt"
 viewBox="0.00 0.00 205.00 64.00" xmlns="http://www.w3.org/2000/svg" xmlns:xlink="http://www.w3.org/1999/xlink">
<g id="graph0" class="graph" transform="scale(1 1) rotate(0) translate(4 60)">
<title>inheritance3188172b24</title>
<!-- Library -->
<g id="node1" class="node">
<title>Library</title>
<g id="a_node1"><a xlink:href="../pyGHDL/pyGHDL.dom.NonStandard.html#pyGHDL.dom.NonStandard.Library" xlink:title="A ``Library`` represents a VHDL library. It contains all *primary* and *secondary* design units." target="_top">
<polygon fill="white" stroke="#1e90ff" points="197,-37 143,-37 143,-18 197,-18 197,-37"/>
<text text-anchor="middle" x="170" y="-25" font-family="Vera Sans, DejaVu Sans, Liberation Sans, Arial, Helvetica, sans" font-size="10.00">Library</text>
</a>
</g>
</g>
<!-- Library&#45;&gt;Library -->
<g id="edge1" class="edge">
<title>Library&#45;&gt;Library</title>
<path fill="none" stroke="black" stroke-width="0.5" d="M152.12,-37.08C143.42,-45.73 149.38,-55 170,-55 187.4,-55 194.36,-48.4 190.88,-41.15"/>
<polygon fill="black" stroke="black" stroke-width="0.5" points="192.26,-40.06 187.88,-37.08 189.44,-42.14 192.26,-40.06"/>
</g>
<!-- ModelEntity -->
<g id="node2" class="node">
<title>ModelEntity</title>
<g id="a_node2"><a xlink:title="``ModelEntity`` is the base&#45;class for all classes in the VHDL language model, except for mixin classes (see multiple">
<polygon fill="white" stroke="#1e90ff" points="91,-56 16,-56 16,-37 91,-37 91,-56"/>
<text text-anchor="middle" x="53.5" y="-44" font-family="Vera Sans, DejaVu Sans, Liberation Sans, Arial, Helvetica, sans" font-size="10.00">ModelEntity</text>
</a>
</g>
</g>
<!-- ModelEntity&#45;&gt;Library -->
<g id="edge2" class="edge">
<title>ModelEntity&#45;&gt;Library</title>
<path fill="none" stroke="black" stroke-width="0.5" d="M91.04,-40.44C106.08,-37.94 123.32,-35.08 137.76,-32.68"/>
<polygon fill="black" stroke="black" stroke-width="0.5" points="138.3,-34.37 142.95,-31.82 137.73,-30.92 138.3,-34.37"/>
</g>
<!-- NamedEntityMixin -->
<g id="node3" class="node">
<title>NamedEntityMixin</title>
<g id="a_node3"><a xlink:title="A ``NamedEntityMixin`` is a mixin class for all VHDL entities that have identifiers.">
<polygon fill="white" stroke="#1e90ff" points="107,-19 0,-19 0,0 107,0 107,-19"/>
<text text-anchor="middle" x="53.5" y="-7" font-family="Vera Sans, DejaVu Sans, Liberation Sans, Arial, Helvetica, sans" font-size="10.00">NamedEntityMixin</text>
</a>
</g>
</g>
<!-- NamedEntityMixin&#45;&gt;Library -->
<g id="edge3" class="edge">
<title>NamedEntityMixin&#45;&gt;Library</title>
<path fill="none" stroke="black" stroke-width="0.5" d="M107.06,-17.76C117.57,-19.42 128.3,-21.1 137.81,-22.6"/>
<polygon fill="black" stroke="black" stroke-width="0.5" points="137.75,-24.36 142.96,-23.41 138.29,-20.9 137.75,-24.36"/>
</g>
</g>
</svg>
