<?xml version="1.0" encoding="UTF-8" standalone="no"?>
<!DOCTYPE svg PUBLIC "-//W3C//DTD SVG 1.1//EN"
 "http://www.w3.org/Graphics/SVG/1.1/DTD/svg11.dtd">
<!-- Generated by graphviz version 2.43.0 (0)
 -->
<!-- Title: inheritance878d705068 Pages: 1 -->
<svg width="311pt" height="64pt"
 viewBox="0.00 0.00 311.00 64.00" xmlns="http://www.w3.org/2000/svg" xmlns:xlink="http://www.w3.org/1999/xlink">
<g id="graph0" class="graph" transform="scale(1 1) rotate(0) translate(4 60)">
<title>inheritance878d705068</title>
<!-- DOMMixin -->
<g id="node1" class="node">
<title>DOMMixin</title>
<g id="a_node1"><a xlink:href="../pyGHDL.dom.html#pyGHDL.dom.DOMMixin" xlink:title="DOMMixin" target="_top">
<polygon fill="white" stroke="#1e90ff" points="179,-56 111,-56 111,-37 179,-37 179,-56"/>
<text text-anchor="middle" x="145" y="-44" font-family="Vera Sans, DejaVu Sans, Liberation Sans, Arial, Helvetica, sans" font-size="10.00">DOMMixin</text>
</a>
</g>
</g>
<!-- SelectedName -->
<g id="node4" class="node">
<title>SelectedName</title>
<g id="a_node4"><a xlink:href="../pyGHDL/pyGHDL.dom.Names.html#pyGHDL.dom.Names.SelectedName" xlink:title="A *selected name* is a name made from multiple words separated by a dot (``.``)." target="_top">
<polygon fill="white" stroke="#1e90ff" points="303,-37 215,-37 215,-18 303,-18 303,-37"/>
<text text-anchor="middle" x="259" y="-25" font-family="Vera Sans, DejaVu Sans, Liberation Sans, Arial, Helvetica, sans" font-size="10.00">SelectedName</text>
</a>
</g>
</g>
<!-- DOMMixin&#45;&gt;SelectedName -->
<g id="edge3" class="edge">
<title>DOMMixin&#45;&gt;SelectedName</title>
<path fill="none" stroke="black" stroke-width="0.5" d="M179.3,-40.85C188.83,-39.23 199.42,-37.44 209.66,-35.7"/>
<polygon fill="black" stroke="black" stroke-width="0.5" points="210.01,-37.42 214.65,-34.85 209.43,-33.96 210.01,-37.42"/>
</g>
<!-- ModelEntity -->
<g id="node2" class="node">
<title>ModelEntity</title>
<g id="a_node2"><a xlink:title="``ModelEntity`` is the base&#45;class for all classes in the VHDL language model, except for mixin classes (see multiple">
<polygon fill="white" stroke="#1e90ff" points="75,-19 0,-19 0,0 75,0 75,-19"/>
<text text-anchor="middle" x="37.5" y="-7" font-family="Vera Sans, DejaVu Sans, Liberation Sans, Arial, Helvetica, sans" font-size="10.00">ModelEntity</text>
</a>
</g>
</g>
<!-- Name -->
<g id="node3" class="node">
<title>Name</title>
<g id="a_node3"><a xlink:title="``Name`` is the base&#45;class for all *names* in the VHDL language model.">
<polygon fill="white" stroke="#1e90ff" points="172,-19 118,-19 118,0 172,0 172,-19"/>
<text text-anchor="middle" x="145" y="-7" font-family="Vera Sans, DejaVu Sans, Liberation Sans, Arial, Helvetica, sans" font-size="10.00">Name</text>
</a>
</g>
</g>
<!-- ModelEntity&#45;&gt;Name -->
<g id="edge1" class="edge">
<title>ModelEntity&#45;&gt;Name</title>
<path fill="none" stroke="black" stroke-width="0.5" d="M75.1,-9.5C87.28,-9.5 100.73,-9.5 112.49,-9.5"/>
<polygon fill="black" stroke="black" stroke-width="0.5" points="112.77,-11.25 117.77,-9.5 112.77,-7.75 112.77,-11.25"/>
</g>
<!-- Name&#45;&gt;SelectedName -->
<g id="edge4" class="edge">
<title>Name&#45;&gt;SelectedName</title>
<path fill="none" stroke="black" stroke-width="0.5" d="M172.26,-13.72C183.45,-15.52 196.86,-17.67 209.73,-19.74"/>
<polygon fill="black" stroke="black" stroke-width="0.5" points="209.6,-21.49 214.82,-20.56 210.16,-18.04 209.6,-21.49"/>
</g>
<!-- SelectedName&#45;&gt;SelectedName -->
<g id="edge2" class="edge">
<title>SelectedName&#45;&gt;SelectedName</title>
<path fill="none" stroke="black" stroke-width="0.5" d="M241.43,-37.08C232.88,-45.73 238.74,-55 259,-55 276.1,-55 282.94,-48.4 279.52,-41.15"/>
<polygon fill="black" stroke="black" stroke-width="0.5" points="280.93,-40.1 276.57,-37.08 278.09,-42.16 280.93,-40.1"/>
</g>
</g>
</svg>
