<?xml version="1.0" encoding="UTF-8" standalone="no"?>
<!DOCTYPE svg PUBLIC "-//W3C//DTD SVG 1.1//EN"
 "http://www.w3.org/Graphics/SVG/1.1/DTD/svg11.dtd">
<!-- Generated by graphviz version 2.43.0 (0)
 -->
<!-- Title: inheritance46c0dfd6ec Pages: 1 -->
<svg width="573pt" height="119pt"
 viewBox="0.00 0.00 573.00 119.00" xmlns="http://www.w3.org/2000/svg" xmlns:xlink="http://www.w3.org/1999/xlink">
<g id="graph0" class="graph" transform="scale(1 1) rotate(0) translate(4 115)">
<title>inheritance46c0dfd6ec</title>
<!-- DOMMixin -->
<g id="node1" class="node">
<title>DOMMixin</title>
<g id="a_node1"><a xlink:href="../pyGHDL.dom.html#pyGHDL.dom.DOMMixin" xlink:title="DOMMixin" target="_top">
<polygon fill="white" stroke="#1e90ff" points="347.5,-111 279.5,-111 279.5,-92 347.5,-92 347.5,-111"/>
<text text-anchor="middle" x="313.5" y="-99" font-family="Vera Sans, DejaVu Sans, Liberation Sans, Arial, Helvetica, sans" font-size="10.00">DOMMixin</text>
</a>
</g>
</g>
<!-- SequentialReportStatement -->
<g id="node5" class="node">
<title>SequentialReportStatement</title>
<g id="a_node5"><a xlink:href="../pyGHDL/pyGHDL.dom.Sequential.html#pyGHDL.dom.Sequential.SequentialReportStatement" xlink:title="SequentialReportStatement" target="_top">
<polygon fill="white" stroke="#1e90ff" points="565,-74 413,-74 413,-55 565,-55 565,-74"/>
<text text-anchor="middle" x="489" y="-62" font-family="Vera Sans, DejaVu Sans, Liberation Sans, Arial, Helvetica, sans" font-size="10.00">SequentialReportStatement</text>
</a>
</g>
</g>
<!-- DOMMixin&#45;&gt;SequentialReportStatement -->
<g id="edge2" class="edge">
<title>DOMMixin&#45;&gt;SequentialReportStatement</title>
<path fill="none" stroke="black" stroke-width="0.5" d="M347.54,-94.45C373.19,-88.98 409.18,-81.31 438.3,-75.1"/>
<polygon fill="black" stroke="black" stroke-width="0.5" points="438.76,-76.79 443.28,-74.04 438.03,-73.37 438.76,-76.79"/>
</g>
<!-- LabeledEntityMixin -->
<g id="node2" class="node">
<title>LabeledEntityMixin</title>
<g id="a_node2"><a xlink:title="A ``LabeledEntityMixin`` is a mixin class for all VHDL entities that can have labels.">
<polygon fill="white" stroke="#1e90ff" points="110,-56 0,-56 0,-37 110,-37 110,-56"/>
<text text-anchor="middle" x="55" y="-44" font-family="Vera Sans, DejaVu Sans, Liberation Sans, Arial, Helvetica, sans" font-size="10.00">LabeledEntityMixin</text>
</a>
</g>
</g>
<!-- Statement -->
<g id="node7" class="node">
<title>Statement</title>
<g id="a_node7"><a xlink:title="A ``Statement`` is a base&#45;class for all statements.">
<polygon fill="white" stroke="#1e90ff" points="214,-37 146,-37 146,-18 214,-18 214,-37"/>
<text text-anchor="middle" x="180" y="-25" font-family="Vera Sans, DejaVu Sans, Liberation Sans, Arial, Helvetica, sans" font-size="10.00">Statement</text>
</a>
</g>
</g>
<!-- LabeledEntityMixin&#45;&gt;Statement -->
<g id="edge7" class="edge">
<title>LabeledEntityMixin&#45;&gt;Statement</title>
<path fill="none" stroke="black" stroke-width="0.5" d="M110.31,-38.11C120.61,-36.52 131.19,-34.89 140.86,-33.39"/>
<polygon fill="black" stroke="black" stroke-width="0.5" points="141.15,-35.12 145.83,-32.62 140.62,-31.66 141.15,-35.12"/>
</g>
<!-- ModelEntity -->
<g id="node3" class="node">
<title>ModelEntity</title>
<g id="a_node3"><a xlink:title="``ModelEntity`` is the base&#45;class for all classes in the VHDL language model, except for mixin classes (see multiple">
<polygon fill="white" stroke="#1e90ff" points="92.5,-19 17.5,-19 17.5,0 92.5,0 92.5,-19"/>
<text text-anchor="middle" x="55" y="-7" font-family="Vera Sans, DejaVu Sans, Liberation Sans, Arial, Helvetica, sans" font-size="10.00">ModelEntity</text>
</a>
</g>
</g>
<!-- ModelEntity&#45;&gt;Statement -->
<g id="edge6" class="edge">
<title>ModelEntity&#45;&gt;Statement</title>
<path fill="none" stroke="black" stroke-width="0.5" d="M92.57,-14.85C107.71,-17.07 125.28,-19.64 140.61,-21.88"/>
<polygon fill="black" stroke="black" stroke-width="0.5" points="140.51,-23.64 145.72,-22.63 141.02,-20.17 140.51,-23.64"/>
</g>
<!-- ReportStatementMixin -->
<g id="node4" class="node">
<title>ReportStatementMixin</title>
<g id="a_node4"><a xlink:title="A ``MixinReportStatement`` is a mixin&#45;class for all report and assert statements.">
<polygon fill="white" stroke="#1e90ff" points="377,-74 250,-74 250,-55 377,-55 377,-74"/>
<text text-anchor="middle" x="313.5" y="-62" font-family="Vera Sans, DejaVu Sans, Liberation Sans, Arial, Helvetica, sans" font-size="10.00">ReportStatementMixin</text>
</a>
</g>
</g>
<!-- ReportStatementMixin&#45;&gt;SequentialReportStatement -->
<g id="edge4" class="edge">
<title>ReportStatementMixin&#45;&gt;SequentialReportStatement</title>
<path fill="none" stroke="black" stroke-width="0.5" d="M377.14,-64.5C387.06,-64.5 397.45,-64.5 407.71,-64.5"/>
<polygon fill="black" stroke="black" stroke-width="0.5" points="407.74,-66.25 412.74,-64.5 407.74,-62.75 407.74,-66.25"/>
</g>
<!-- SequentialReportStatement&#45;&gt;SequentialReportStatement -->
<g id="edge1" class="edge">
<title>SequentialReportStatement&#45;&gt;SequentialReportStatement</title>
<path fill="none" stroke="black" stroke-width="0.5" d="M462.18,-74.08C449.13,-82.73 458.07,-92 489,-92 516.06,-92 526.29,-84.91 519.68,-77.34"/>
<polygon fill="black" stroke="black" stroke-width="0.5" points="520.77,-75.97 515.82,-74.08 518.51,-78.64 520.77,-75.97"/>
</g>
<!-- SequentialStatement -->
<g id="node6" class="node">
<title>SequentialStatement</title>
<g id="a_node6"><a xlink:title="A ``SequentialStatement`` is a base&#45;class for all sequential statements.">
<polygon fill="white" stroke="#1e90ff" points="373,-37 254,-37 254,-18 373,-18 373,-37"/>
<text text-anchor="middle" x="313.5" y="-25" font-family="Vera Sans, DejaVu Sans, Liberation Sans, Arial, Helvetica, sans" font-size="10.00">SequentialStatement</text>
</a>
</g>
</g>
<!-- SequentialStatement&#45;&gt;SequentialReportStatement -->
<g id="edge3" class="edge">
<title>SequentialStatement&#45;&gt;SequentialReportStatement</title>
<path fill="none" stroke="black" stroke-width="0.5" d="M359.18,-37.03C383.37,-42.19 413.32,-48.57 438.25,-53.89"/>
<polygon fill="black" stroke="black" stroke-width="0.5" points="437.91,-55.61 443.17,-54.94 438.64,-52.19 437.91,-55.61"/>
</g>
<!-- Statement&#45;&gt;SequentialStatement -->
<g id="edge5" class="edge">
<title>Statement&#45;&gt;SequentialStatement</title>
<path fill="none" stroke="black" stroke-width="0.5" d="M214.18,-27.5C224.77,-27.5 236.86,-27.5 248.86,-27.5"/>
<polygon fill="black" stroke="black" stroke-width="0.5" points="248.99,-29.25 253.99,-27.5 248.99,-25.75 248.99,-29.25"/>
</g>
</g>
</svg>
