<?xml version="1.0" encoding="UTF-8" standalone="no"?>
<!DOCTYPE svg PUBLIC "-//W3C//DTD SVG 1.1//EN"
 "http://www.w3.org/Graphics/SVG/1.1/DTD/svg11.dtd">
<!-- Generated by graphviz version 2.43.0 (0)
 -->
<!-- Title: inheritancec218f92451 Pages: 1 -->
<svg width="533pt" height="193pt"
 viewBox="0.00 0.00 533.00 193.00" xmlns="http://www.w3.org/2000/svg" xmlns:xlink="http://www.w3.org/1999/xlink">
<g id="graph0" class="graph" transform="scale(1 1) rotate(0) translate(4 189)">
<title>inheritancec218f92451</title>
<!-- ConcurrentStatement -->
<g id="node1" class="node">
<title>ConcurrentStatement</title>
<g id="a_node1"><a xlink:title="A ``ConcurrentStatement`` is a base&#45;class for all concurrent statements.">
<polygon fill="white" stroke="#1e90ff" points="377.5,-37 256.5,-37 256.5,-18 377.5,-18 377.5,-37"/>
<text text-anchor="middle" x="317" y="-25" font-family="Vera Sans, DejaVu Sans, Liberation Sans, Arial, Helvetica, sans" font-size="10.00">ConcurrentStatement</text>
</a>
</g>
</g>
<!-- ProcessStatement -->
<g id="node7" class="node">
<title>ProcessStatement</title>
<g id="a_node7"><a xlink:href="../pyGHDL/pyGHDL.dom.Concurrent.html#pyGHDL.dom.Concurrent.ProcessStatement" xlink:title="ProcessStatement" target="_top">
<polygon fill="white" stroke="#1e90ff" points="525,-111 420,-111 420,-92 525,-92 525,-111"/>
<text text-anchor="middle" x="472.5" y="-99" font-family="Vera Sans, DejaVu Sans, Liberation Sans, Arial, Helvetica, sans" font-size="10.00">ProcessStatement</text>
</a>
</g>
</g>
<!-- ConcurrentStatement&#45;&gt;ProcessStatement -->
<g id="edge4" class="edge">
<title>ConcurrentStatement&#45;&gt;ProcessStatement</title>
<path fill="none" stroke="black" stroke-width="0.5" d="M358.08,-37.09C366.79,-39.7 375.84,-42.85 384,-46.5 410.12,-58.19 437.66,-76.66 454.7,-88.93"/>
<polygon fill="black" stroke="black" stroke-width="0.5" points="453.73,-90.38 458.81,-91.9 455.79,-87.55 453.73,-90.38"/>
</g>
<!-- Statement -->
<g id="node2" class="node">
<title>Statement</title>
<g id="a_node2"><a xlink:title="A ``Statement`` is a base&#45;class for all statements.">
<polygon fill="white" stroke="#1e90ff" points="214,-37 146,-37 146,-18 214,-18 214,-37"/>
<text text-anchor="middle" x="180" y="-25" font-family="Vera Sans, DejaVu Sans, Liberation Sans, Arial, Helvetica, sans" font-size="10.00">Statement</text>
</a>
</g>
</g>
<!-- Statement&#45;&gt;ConcurrentStatement -->
<g id="edge1" class="edge">
<title>Statement&#45;&gt;ConcurrentStatement</title>
<path fill="none" stroke="black" stroke-width="0.5" d="M214.02,-27.5C225.33,-27.5 238.39,-27.5 251.32,-27.5"/>
<polygon fill="black" stroke="black" stroke-width="0.5" points="251.45,-29.25 256.45,-27.5 251.45,-25.75 251.45,-29.25"/>
</g>
<!-- DOMMixin -->
<g id="node3" class="node">
<title>DOMMixin</title>
<g id="a_node3"><a xlink:href="../pyGHDL.dom.html#pyGHDL.dom.DOMMixin" xlink:title="DOMMixin" target="_top">
<polygon fill="white" stroke="#1e90ff" points="351,-185 283,-185 283,-166 351,-166 351,-185"/>
<text text-anchor="middle" x="317" y="-173" font-family="Vera Sans, DejaVu Sans, Liberation Sans, Arial, Helvetica, sans" font-size="10.00">DOMMixin</text>
</a>
</g>
</g>
<!-- DOMMixin&#45;&gt;ProcessStatement -->
<g id="edge3" class="edge">
<title>DOMMixin&#45;&gt;ProcessStatement</title>
<path fill="none" stroke="black" stroke-width="0.5" d="M351.24,-168.53C361.94,-165.74 373.69,-162.08 384,-157.5 410.44,-145.76 438.1,-126.75 455.07,-114.18"/>
<polygon fill="black" stroke="black" stroke-width="0.5" points="456.19,-115.53 459.15,-111.14 454.09,-112.73 456.19,-115.53"/>
</g>
<!-- DocumentedEntityMixin -->
<g id="node4" class="node">
<title>DocumentedEntityMixin</title>
<g id="a_node4"><a xlink:title="A ``DocumentedEntityMixin`` is a mixin class for all VHDL entities that can have an associated documentation.">
<polygon fill="white" stroke="#1e90ff" points="384,-148 250,-148 250,-129 384,-129 384,-148"/>
<text text-anchor="middle" x="317" y="-136" font-family="Vera Sans, DejaVu Sans, Liberation Sans, Arial, Helvetica, sans" font-size="10.00">DocumentedEntityMixin</text>
</a>
</g>
</g>
<!-- DocumentedEntityMixin&#45;&gt;ProcessStatement -->
<g id="edge7" class="edge">
<title>DocumentedEntityMixin&#45;&gt;ProcessStatement</title>
<path fill="none" stroke="black" stroke-width="0.5" d="M357.53,-128.97C378.75,-123.86 404.99,-117.53 426.94,-112.24"/>
<polygon fill="black" stroke="black" stroke-width="0.5" points="427.39,-113.93 431.84,-111.06 426.57,-110.53 427.39,-113.93"/>
</g>
<!-- LabeledEntityMixin -->
<g id="node5" class="node">
<title>LabeledEntityMixin</title>
<g id="a_node5"><a xlink:title="A ``LabeledEntityMixin`` is a mixin class for all VHDL entities that can have labels.">
<polygon fill="white" stroke="#1e90ff" points="110,-56 0,-56 0,-37 110,-37 110,-56"/>
<text text-anchor="middle" x="55" y="-44" font-family="Vera Sans, DejaVu Sans, Liberation Sans, Arial, Helvetica, sans" font-size="10.00">LabeledEntityMixin</text>
</a>
</g>
</g>
<!-- LabeledEntityMixin&#45;&gt;Statement -->
<g id="edge9" class="edge">
<title>LabeledEntityMixin&#45;&gt;Statement</title>
<path fill="none" stroke="black" stroke-width="0.5" d="M110.31,-38.11C120.61,-36.52 131.19,-34.89 140.86,-33.39"/>
<polygon fill="black" stroke="black" stroke-width="0.5" points="141.15,-35.12 145.83,-32.62 140.62,-31.66 141.15,-35.12"/>
</g>
<!-- ModelEntity -->
<g id="node6" class="node">
<title>ModelEntity</title>
<g id="a_node6"><a xlink:title="``ModelEntity`` is the base&#45;class for all classes in the VHDL language model, except for mixin classes (see multiple">
<polygon fill="white" stroke="#1e90ff" points="92.5,-19 17.5,-19 17.5,0 92.5,0 92.5,-19"/>
<text text-anchor="middle" x="55" y="-7" font-family="Vera Sans, DejaVu Sans, Liberation Sans, Arial, Helvetica, sans" font-size="10.00">ModelEntity</text>
</a>
</g>
</g>
<!-- ModelEntity&#45;&gt;Statement -->
<g id="edge8" class="edge">
<title>ModelEntity&#45;&gt;Statement</title>
<path fill="none" stroke="black" stroke-width="0.5" d="M92.57,-14.85C107.71,-17.07 125.28,-19.64 140.61,-21.88"/>
<polygon fill="black" stroke="black" stroke-width="0.5" points="140.51,-23.64 145.72,-22.63 141.02,-20.17 140.51,-23.64"/>
</g>
<!-- ProcessStatement&#45;&gt;ProcessStatement -->
<g id="edge2" class="edge">
<title>ProcessStatement&#45;&gt;ProcessStatement</title>
<path fill="none" stroke="black" stroke-width="0.5" d="M448.76,-111.08C437.22,-119.73 445.13,-129 472.5,-129 496.02,-129 505.17,-122.16 499.95,-114.74"/>
<polygon fill="black" stroke="black" stroke-width="0.5" points="501.03,-113.34 496.24,-111.08 498.57,-115.84 501.03,-113.34"/>
</g>
<!-- SequentialDeclarations -->
<g id="node8" class="node">
<title>SequentialDeclarations</title>
<polygon fill="white" stroke="#1e90ff" points="382,-111 252,-111 252,-92 382,-92 382,-111"/>
<text text-anchor="middle" x="317" y="-99" font-family="Vera Sans, DejaVu Sans, Liberation Sans, Arial, Helvetica, sans" font-size="10.00">SequentialDeclarations</text>
</g>
<!-- SequentialDeclarations&#45;&gt;ProcessStatement -->
<g id="edge5" class="edge">
<title>SequentialDeclarations&#45;&gt;ProcessStatement</title>
<path fill="none" stroke="black" stroke-width="0.5" d="M382.21,-101.5C392.94,-101.5 404.01,-101.5 414.54,-101.5"/>
<polygon fill="black" stroke="black" stroke-width="0.5" points="414.67,-103.25 419.67,-101.5 414.67,-99.75 414.67,-103.25"/>
</g>
<!-- SequentialStatements -->
<g id="node9" class="node">
<title>SequentialStatements</title>
<polygon fill="white" stroke="#1e90ff" points="379.5,-74 254.5,-74 254.5,-55 379.5,-55 379.5,-74"/>
<text text-anchor="middle" x="317" y="-62" font-family="Vera Sans, DejaVu Sans, Liberation Sans, Arial, Helvetica, sans" font-size="10.00">SequentialStatements</text>
</g>
<!-- SequentialStatements&#45;&gt;ProcessStatement -->
<g id="edge6" class="edge">
<title>SequentialStatements&#45;&gt;ProcessStatement</title>
<path fill="none" stroke="black" stroke-width="0.5" d="M357.53,-74.03C378.75,-79.14 404.99,-85.47 426.94,-90.76"/>
<polygon fill="black" stroke="black" stroke-width="0.5" points="426.57,-92.47 431.84,-91.94 427.39,-89.07 426.57,-92.47"/>
</g>
</g>
</svg>
