<?xml version="1.0" encoding="UTF-8" standalone="no"?>
<!DOCTYPE svg PUBLIC "-//W3C//DTD SVG 1.1//EN"
 "http://www.w3.org/Graphics/SVG/1.1/DTD/svg11.dtd">
<!-- Generated by graphviz version 2.43.0 (0)
 -->
<!-- Title: inheritancefeea002840 Pages: 1 -->
<svg width="490pt" height="64pt"
 viewBox="0.00 0.00 490.00 64.00" xmlns="http://www.w3.org/2000/svg" xmlns:xlink="http://www.w3.org/1999/xlink">
<g id="graph0" class="graph" transform="scale(1 1) rotate(0) translate(4 60)">
<title>inheritancefeea002840</title>
<!-- BaseExpression -->
<g id="node1" class="node">
<title>BaseExpression</title>
<g id="a_node1"><a xlink:title="A ``BaseExpression`` is a base&#45;class for all expressions.">
<polygon fill="white" stroke="#1e90ff" points="205,-19 111,-19 111,0 205,0 205,-19"/>
<text text-anchor="middle" x="158" y="-7" font-family="Vera Sans, DejaVu Sans, Liberation Sans, Arial, Helvetica, sans" font-size="10.00">BaseExpression</text>
</a>
</g>
</g>
<!-- UnaryExpression -->
<g id="node5" class="node">
<title>UnaryExpression</title>
<g id="a_node5"><a xlink:title="A ``UnaryExpression`` is a base&#45;class for all unary expressions.">
<polygon fill="white" stroke="#1e90ff" points="340,-19 241,-19 241,0 340,0 340,-19"/>
<text text-anchor="middle" x="290.5" y="-7" font-family="Vera Sans, DejaVu Sans, Liberation Sans, Arial, Helvetica, sans" font-size="10.00">UnaryExpression</text>
</a>
</g>
</g>
<!-- BaseExpression&#45;&gt;UnaryExpression -->
<g id="edge5" class="edge">
<title>BaseExpression&#45;&gt;UnaryExpression</title>
<path fill="none" stroke="black" stroke-width="0.5" d="M205.01,-9.5C214.88,-9.5 225.4,-9.5 235.54,-9.5"/>
<polygon fill="black" stroke="black" stroke-width="0.5" points="235.81,-11.25 240.81,-9.5 235.81,-7.75 235.81,-11.25"/>
</g>
<!-- ModelEntity -->
<g id="node2" class="node">
<title>ModelEntity</title>
<g id="a_node2"><a xlink:title="``ModelEntity`` is the base&#45;class for all classes in the VHDL language model, except for mixin classes (see multiple">
<polygon fill="white" stroke="#1e90ff" points="75,-19 0,-19 0,0 75,0 75,-19"/>
<text text-anchor="middle" x="37.5" y="-7" font-family="Vera Sans, DejaVu Sans, Liberation Sans, Arial, Helvetica, sans" font-size="10.00">ModelEntity</text>
</a>
</g>
</g>
<!-- ModelEntity&#45;&gt;BaseExpression -->
<g id="edge1" class="edge">
<title>ModelEntity&#45;&gt;BaseExpression</title>
<path fill="none" stroke="black" stroke-width="0.5" d="M75.02,-9.5C84.72,-9.5 95.38,-9.5 105.71,-9.5"/>
<polygon fill="black" stroke="black" stroke-width="0.5" points="105.75,-11.25 110.75,-9.5 105.75,-7.75 105.75,-11.25"/>
</g>
<!-- DOMMixin -->
<g id="node3" class="node">
<title>DOMMixin</title>
<g id="a_node3"><a xlink:href="../pyGHDL.dom.html#pyGHDL.dom.DOMMixin" xlink:title="DOMMixin" target="_top">
<polygon fill="white" stroke="#1e90ff" points="324.5,-56 256.5,-56 256.5,-37 324.5,-37 324.5,-56"/>
<text text-anchor="middle" x="290.5" y="-44" font-family="Vera Sans, DejaVu Sans, Liberation Sans, Arial, Helvetica, sans" font-size="10.00">DOMMixin</text>
</a>
</g>
</g>
<!-- InverseExpression -->
<g id="node4" class="node">
<title>InverseExpression</title>
<g id="a_node4"><a xlink:href="../pyGHDL/pyGHDL.dom.Expression.html#pyGHDL.dom.Expression.InverseExpression" xlink:title="InverseExpression" target="_top">
<polygon fill="white" stroke="#1e90ff" points="482,-37 376,-37 376,-18 482,-18 482,-37"/>
<text text-anchor="middle" x="429" y="-25" font-family="Vera Sans, DejaVu Sans, Liberation Sans, Arial, Helvetica, sans" font-size="10.00">InverseExpression</text>
</a>
</g>
</g>
<!-- DOMMixin&#45;&gt;InverseExpression -->
<g id="edge3" class="edge">
<title>DOMMixin&#45;&gt;InverseExpression</title>
<path fill="none" stroke="black" stroke-width="0.5" d="M324.54,-41.9C338.37,-39.98 354.84,-37.68 370.54,-35.5"/>
<polygon fill="black" stroke="black" stroke-width="0.5" points="371.12,-37.18 375.83,-34.76 370.63,-33.72 371.12,-37.18"/>
</g>
<!-- InverseExpression&#45;&gt;InverseExpression -->
<g id="edge2" class="edge">
<title>InverseExpression&#45;&gt;InverseExpression</title>
<path fill="none" stroke="black" stroke-width="0.5" d="M407.73,-37.08C397.38,-45.73 404.47,-55 429,-55 449.69,-55 457.98,-48.4 453.84,-41.15"/>
<polygon fill="black" stroke="black" stroke-width="0.5" points="454.89,-39.68 450.27,-37.08 452.26,-41.99 454.89,-39.68"/>
</g>
<!-- UnaryExpression&#45;&gt;InverseExpression -->
<g id="edge4" class="edge">
<title>UnaryExpression&#45;&gt;InverseExpression</title>
<path fill="none" stroke="black" stroke-width="0.5" d="M340.01,-15.9C350.02,-17.22 360.65,-18.62 370.93,-19.97"/>
<polygon fill="black" stroke="black" stroke-width="0.5" points="370.76,-21.72 375.94,-20.64 371.22,-18.25 370.76,-21.72"/>
</g>
</g>
</svg>
