<?xml version="1.0" encoding="UTF-8" standalone="no"?>
<!DOCTYPE svg PUBLIC "-//W3C//DTD SVG 1.1//EN"
 "http://www.w3.org/Graphics/SVG/1.1/DTD/svg11.dtd">
<!-- Generated by graphviz version 2.43.0 (0)
 -->
<!-- Title: inheritanceaa8d2f1715 Pages: 1 -->
<svg width="396pt" height="64pt"
 viewBox="0.00 0.00 396.00 64.00" xmlns="http://www.w3.org/2000/svg" xmlns:xlink="http://www.w3.org/1999/xlink">
<g id="graph0" class="graph" transform="scale(1 1) rotate(0) translate(4 60)">
<title>inheritanceaa8d2f1715</title>
<!-- AssociationItem -->
<g id="node1" class="node">
<title>AssociationItem</title>
<polygon fill="white" stroke="#1e90ff" points="206,-19 111,-19 111,0 206,0 206,-19"/>
<text text-anchor="middle" x="158.5" y="-7" font-family="Vera Sans, DejaVu Sans, Liberation Sans, Arial, Helvetica, sans" font-size="10.00">AssociationItem</text>
</g>
<!-- ParameterAssociationItem -->
<g id="node4" class="node">
<title>ParameterAssociationItem</title>
<g id="a_node4"><a xlink:href="../pyGHDL/pyGHDL.dom.Concurrent.html#pyGHDL.dom.Concurrent.ParameterAssociationItem" xlink:title="ParameterAssociationItem" target="_top">
<polygon fill="white" stroke="#1e90ff" points="388,-37 242,-37 242,-18 388,-18 388,-37"/>
<text text-anchor="middle" x="315" y="-25" font-family="Vera Sans, DejaVu Sans, Liberation Sans, Arial, Helvetica, sans" font-size="10.00">ParameterAssociationItem</text>
</a>
</g>
</g>
<!-- AssociationItem&#45;&gt;ParameterAssociationItem -->
<g id="edge4" class="edge">
<title>AssociationItem&#45;&gt;ParameterAssociationItem</title>
<path fill="none" stroke="black" stroke-width="0.5" d="M206.27,-14.95C215.89,-16.07 226.26,-17.28 236.63,-18.49"/>
<polygon fill="black" stroke="black" stroke-width="0.5" points="236.55,-20.24 241.72,-19.08 236.95,-16.76 236.55,-20.24"/>
</g>
<!-- ModelEntity -->
<g id="node2" class="node">
<title>ModelEntity</title>
<g id="a_node2"><a xlink:title="``ModelEntity`` is the base&#45;class for all classes in the VHDL language model, except for mixin classes (see multiple">
<polygon fill="white" stroke="#1e90ff" points="75,-19 0,-19 0,0 75,0 75,-19"/>
<text text-anchor="middle" x="37.5" y="-7" font-family="Vera Sans, DejaVu Sans, Liberation Sans, Arial, Helvetica, sans" font-size="10.00">ModelEntity</text>
</a>
</g>
</g>
<!-- ModelEntity&#45;&gt;AssociationItem -->
<g id="edge1" class="edge">
<title>ModelEntity&#45;&gt;AssociationItem</title>
<path fill="none" stroke="black" stroke-width="0.5" d="M75.17,-9.5C84.8,-9.5 95.36,-9.5 105.62,-9.5"/>
<polygon fill="black" stroke="black" stroke-width="0.5" points="105.63,-11.25 110.63,-9.5 105.63,-7.75 105.63,-11.25"/>
</g>
<!-- DOMMixin -->
<g id="node3" class="node">
<title>DOMMixin</title>
<g id="a_node3"><a xlink:href="../pyGHDL.dom.html#pyGHDL.dom.DOMMixin" xlink:title="DOMMixin" target="_top">
<polygon fill="white" stroke="#1e90ff" points="192.5,-56 124.5,-56 124.5,-37 192.5,-37 192.5,-56"/>
<text text-anchor="middle" x="158.5" y="-44" font-family="Vera Sans, DejaVu Sans, Liberation Sans, Arial, Helvetica, sans" font-size="10.00">DOMMixin</text>
</a>
</g>
</g>
<!-- DOMMixin&#45;&gt;ParameterAssociationItem -->
<g id="edge3" class="edge">
<title>DOMMixin&#45;&gt;ParameterAssociationItem</title>
<path fill="none" stroke="black" stroke-width="0.5" d="M192.64,-42.42C205.63,-40.83 221.11,-38.92 236.61,-37.02"/>
<polygon fill="black" stroke="black" stroke-width="0.5" points="237.11,-38.72 241.86,-36.37 236.68,-35.25 237.11,-38.72"/>
</g>
<!-- ParameterAssociationItem&#45;&gt;ParameterAssociationItem -->
<g id="edge2" class="edge">
<title>ParameterAssociationItem&#45;&gt;ParameterAssociationItem</title>
<path fill="none" stroke="black" stroke-width="0.5" d="M290.96,-37.08C279.26,-45.73 287.27,-55 315,-55 338.83,-55 348.1,-48.16 342.81,-40.74"/>
<polygon fill="black" stroke="black" stroke-width="0.5" points="343.85,-39.31 339.04,-37.08 341.41,-41.82 343.85,-39.31"/>
</g>
</g>
</svg>
