<?xml version="1.0" encoding="UTF-8" standalone="no"?>
<!DOCTYPE svg PUBLIC "-//W3C//DTD SVG 1.1//EN"
 "http://www.w3.org/Graphics/SVG/1.1/DTD/svg11.dtd">
<!-- Generated by graphviz version 2.43.0 (0)
 -->
<!-- Title: inheritance41b486d74d Pages: 1 -->
<svg width="425pt" height="138pt"
 viewBox="0.00 0.00 425.00 138.00" xmlns="http://www.w3.org/2000/svg" xmlns:xlink="http://www.w3.org/1999/xlink">
<g id="graph0" class="graph" transform="scale(1 1) rotate(0) translate(4 134)">
<title>inheritance41b486d74d</title>
<!-- BranchMixin -->
<g id="node1" class="node">
<title>BranchMixin</title>
<g id="a_node1"><a xlink:title="A ``BaseBranch`` is a mixin&#45;class for all statements with branches.">
<polygon fill="white" stroke="#1e90ff" points="104,-130 27,-130 27,-111 104,-111 104,-130"/>
<text text-anchor="middle" x="65.5" y="-118" font-family="Vera Sans, DejaVu Sans, Liberation Sans, Arial, Helvetica, sans" font-size="10.00">BranchMixin</text>
</a>
</g>
</g>
<!-- ElseBranchMixin -->
<g id="node4" class="node">
<title>ElseBranchMixin</title>
<g id="a_node4"><a xlink:title="A ``BaseElseBranch`` is a mixin&#45;class for all else&#45;branches.">
<polygon fill="white" stroke="#1e90ff" points="265,-120 167,-120 167,-101 265,-101 265,-120"/>
<text text-anchor="middle" x="216" y="-108" font-family="Vera Sans, DejaVu Sans, Liberation Sans, Arial, Helvetica, sans" font-size="10.00">ElseBranchMixin</text>
</a>
</g>
</g>
<!-- BranchMixin&#45;&gt;ElseBranchMixin -->
<g id="edge1" class="edge">
<title>BranchMixin&#45;&gt;ElseBranchMixin</title>
<path fill="none" stroke="black" stroke-width="0.5" d="M104.36,-117.95C121.72,-116.78 142.6,-115.38 161.53,-114.1"/>
<polygon fill="black" stroke="black" stroke-width="0.5" points="161.94,-115.83 166.81,-113.75 161.7,-112.34 161.94,-115.83"/>
</g>
<!-- ConcurrentDeclarations -->
<g id="node2" class="node">
<title>ConcurrentDeclarations</title>
<polygon fill="white" stroke="#1e90ff" points="131,-93 0,-93 0,-74 131,-74 131,-93"/>
<text text-anchor="middle" x="65.5" y="-81" font-family="Vera Sans, DejaVu Sans, Liberation Sans, Arial, Helvetica, sans" font-size="10.00">ConcurrentDeclarations</text>
</g>
<!-- GenerateBranch -->
<g id="node6" class="node">
<title>GenerateBranch</title>
<g id="a_node6"><a xlink:title="A ``GenerateBranch`` is a base&#45;class for all branches in a generate statements.">
<polygon fill="white" stroke="#1e90ff" points="263.5,-74 168.5,-74 168.5,-55 263.5,-55 263.5,-74"/>
<text text-anchor="middle" x="216" y="-62" font-family="Vera Sans, DejaVu Sans, Liberation Sans, Arial, Helvetica, sans" font-size="10.00">GenerateBranch</text>
</a>
</g>
</g>
<!-- ConcurrentDeclarations&#45;&gt;GenerateBranch -->
<g id="edge6" class="edge">
<title>ConcurrentDeclarations&#45;&gt;GenerateBranch</title>
<path fill="none" stroke="black" stroke-width="0.5" d="M131.2,-75.22C141.95,-73.85 152.97,-72.44 163.34,-71.11"/>
<polygon fill="black" stroke="black" stroke-width="0.5" points="163.63,-72.84 168.37,-70.47 163.19,-69.36 163.63,-72.84"/>
</g>
<!-- ConcurrentStatements -->
<g id="node3" class="node">
<title>ConcurrentStatements</title>
<polygon fill="white" stroke="#1e90ff" points="128.5,-56 2.5,-56 2.5,-37 128.5,-37 128.5,-56"/>
<text text-anchor="middle" x="65.5" y="-44" font-family="Vera Sans, DejaVu Sans, Liberation Sans, Arial, Helvetica, sans" font-size="10.00">ConcurrentStatements</text>
</g>
<!-- ConcurrentStatements&#45;&gt;GenerateBranch -->
<g id="edge7" class="edge">
<title>ConcurrentStatements&#45;&gt;GenerateBranch</title>
<path fill="none" stroke="black" stroke-width="0.5" d="M128.62,-54.03C140.2,-55.43 152.18,-56.89 163.4,-58.25"/>
<polygon fill="black" stroke="black" stroke-width="0.5" points="163.32,-60 168.5,-58.86 163.74,-56.52 163.32,-60"/>
</g>
<!-- ElseGenerateBranch -->
<g id="node5" class="node">
<title>ElseGenerateBranch</title>
<g id="a_node5"><a xlink:href="../pyGHDL/pyGHDL.dom.Concurrent.html#pyGHDL.dom.Concurrent.ElseGenerateBranch" xlink:title="ElseGenerateBranch" target="_top">
<polygon fill="white" stroke="#1e90ff" points="417,-92 301,-92 301,-73 417,-73 417,-92"/>
<text text-anchor="middle" x="359" y="-80" font-family="Vera Sans, DejaVu Sans, Liberation Sans, Arial, Helvetica, sans" font-size="10.00">ElseGenerateBranch</text>
</a>
</g>
</g>
<!-- ElseBranchMixin&#45;&gt;ElseGenerateBranch -->
<g id="edge4" class="edge">
<title>ElseBranchMixin&#45;&gt;ElseGenerateBranch</title>
<path fill="none" stroke="black" stroke-width="0.5" d="M265.13,-100.94C277.95,-98.4 291.87,-95.63 304.93,-93.04"/>
<polygon fill="black" stroke="black" stroke-width="0.5" points="305.52,-94.71 310.09,-92.01 304.84,-91.27 305.52,-94.71"/>
</g>
<!-- ElseGenerateBranch&#45;&gt;ElseGenerateBranch -->
<g id="edge2" class="edge">
<title>ElseGenerateBranch&#45;&gt;ElseGenerateBranch</title>
<path fill="none" stroke="black" stroke-width="0.5" d="M337.11,-92.08C326.47,-100.73 333.76,-110 359,-110 380.69,-110 389.13,-103.16 384.31,-95.74"/>
<polygon fill="black" stroke="black" stroke-width="0.5" points="385.58,-94.54 380.89,-92.08 383.03,-96.93 385.58,-94.54"/>
</g>
<!-- GenerateBranch&#45;&gt;ElseGenerateBranch -->
<g id="edge3" class="edge">
<title>GenerateBranch&#45;&gt;ElseGenerateBranch</title>
<path fill="none" stroke="black" stroke-width="0.5" d="M263.56,-70.44C273.92,-71.77 285.07,-73.19 295.95,-74.58"/>
<polygon fill="black" stroke="black" stroke-width="0.5" points="295.74,-76.32 300.92,-75.21 296.18,-72.84 295.74,-76.32"/>
</g>
<!-- ModelEntity -->
<g id="node7" class="node">
<title>ModelEntity</title>
<g id="a_node7"><a xlink:title="``ModelEntity`` is the base&#45;class for all classes in the VHDL language model, except for mixin classes (see multiple">
<polygon fill="white" stroke="#1e90ff" points="103,-19 28,-19 28,0 103,0 103,-19"/>
<text text-anchor="middle" x="65.5" y="-7" font-family="Vera Sans, DejaVu Sans, Liberation Sans, Arial, Helvetica, sans" font-size="10.00">ModelEntity</text>
</a>
</g>
</g>
<!-- ModelEntity&#45;&gt;GenerateBranch -->
<g id="edge5" class="edge">
<title>ModelEntity&#45;&gt;GenerateBranch</title>
<path fill="none" stroke="black" stroke-width="0.5" d="M101.56,-19.01C111.18,-21.84 121.55,-25.1 131,-28.5 151.02,-35.71 173.12,-45.25 189.63,-52.69"/>
<polygon fill="black" stroke="black" stroke-width="0.5" points="189.28,-54.46 194.56,-54.93 190.73,-51.27 189.28,-54.46"/>
</g>
</g>
</svg>
