<?xml version="1.0" encoding="UTF-8" standalone="no"?>
<!DOCTYPE svg PUBLIC "-//W3C//DTD SVG 1.1//EN"
 "http://www.w3.org/Graphics/SVG/1.1/DTD/svg11.dtd">
<!-- Generated by graphviz version 2.43.0 (0)
 -->
<!-- Title: inheritance22eb519fbf Pages: 1 -->
<svg width="205pt" height="64pt"
 viewBox="0.00 0.00 205.00 64.00" xmlns="http://www.w3.org/2000/svg" xmlns:xlink="http://www.w3.org/1999/xlink">
<g id="graph0" class="graph" transform="scale(1 1) rotate(0) translate(4 60)">
<title>inheritance22eb519fbf</title>
<!-- DOMMixin -->
<g id="node1" class="node">
<title>DOMMixin</title>
<g id="a_node1"><a xlink:href="../pyGHDL.dom.html#pyGHDL.dom.DOMMixin" xlink:title="DOMMixin" target="_top">
<polygon fill="white" stroke="#1e90ff" points="68,-56 0,-56 0,-37 68,-37 68,-56"/>
<text text-anchor="middle" x="34" y="-44" font-family="Vera Sans, DejaVu Sans, Liberation Sans, Arial, Helvetica, sans" font-size="10.00">DOMMixin</text>
</a>
</g>
</g>
<!-- PackageSymbol -->
<g id="node2" class="node">
<title>PackageSymbol</title>
<g id="a_node2"><a xlink:href="../pyGHDL/pyGHDL.dom.Symbol.html#pyGHDL.dom.Symbol.PackageSymbol" xlink:title="A package reference in a package body declaration." target="_top">
<polygon fill="white" stroke="#1e90ff" points="197,-37 104,-37 104,-18 197,-18 197,-37"/>
<text text-anchor="middle" x="150.5" y="-25" font-family="Vera Sans, DejaVu Sans, Liberation Sans, Arial, Helvetica, sans" font-size="10.00">PackageSymbol</text>
</a>
</g>
</g>
<!-- DOMMixin&#45;&gt;PackageSymbol -->
<g id="edge2" class="edge">
<title>DOMMixin&#45;&gt;PackageSymbol</title>
<path fill="none" stroke="black" stroke-width="0.5" d="M68.12,-41C77.65,-39.42 88.28,-37.66 98.63,-35.94"/>
<polygon fill="black" stroke="black" stroke-width="0.5" points="99.03,-37.65 103.68,-35.1 98.46,-34.2 99.03,-37.65"/>
</g>
<!-- PackageSymbol&#45;&gt;PackageSymbol -->
<g id="edge1" class="edge">
<title>PackageSymbol&#45;&gt;PackageSymbol</title>
<path fill="none" stroke="black" stroke-width="0.5" d="M132.62,-37.08C123.92,-45.73 129.88,-55 150.5,-55 167.9,-55 174.86,-48.4 171.38,-41.15"/>
<polygon fill="black" stroke="black" stroke-width="0.5" points="172.76,-40.06 168.38,-37.08 169.94,-42.14 172.76,-40.06"/>
</g>
<!-- Symbol -->
<g id="node3" class="node">
<title>Symbol</title>
<polygon fill="white" stroke="#1e90ff" points="61,-19 7,-19 7,0 61,0 61,-19"/>
<text text-anchor="middle" x="34" y="-7" font-family="Vera Sans, DejaVu Sans, Liberation Sans, Arial, Helvetica, sans" font-size="10.00">Symbol</text>
</g>
<!-- Symbol&#45;&gt;PackageSymbol -->
<g id="edge3" class="edge">
<title>Symbol&#45;&gt;PackageSymbol</title>
<path fill="none" stroke="black" stroke-width="0.5" d="M61.27,-13.63C72.34,-15.37 85.63,-17.46 98.49,-19.48"/>
<polygon fill="black" stroke="black" stroke-width="0.5" points="98.38,-21.23 103.59,-20.28 98.92,-17.78 98.38,-21.23"/>
</g>
</g>
</svg>
