<?xml version="1.0" encoding="UTF-8" standalone="no"?>
<!DOCTYPE svg PUBLIC "-//W3C//DTD SVG 1.1//EN"
 "http://www.w3.org/Graphics/SVG/1.1/DTD/svg11.dtd">
<!-- Generated by graphviz version 2.43.0 (0)
 -->
<!-- Title: inheritance681660cbd4 Pages: 1 -->
<svg width="292pt" height="64pt"
 viewBox="0.00 0.00 292.00 64.00" xmlns="http://www.w3.org/2000/svg" xmlns:xlink="http://www.w3.org/1999/xlink">
<g id="graph0" class="graph" transform="scale(1 1) rotate(0) translate(4 60)">
<title>inheritance681660cbd4</title>
<!-- ConfigurationInstantiationSymbol -->
<g id="node1" class="node">
<title>ConfigurationInstantiationSymbol</title>
<g id="a_node1"><a xlink:href="../pyGHDL/pyGHDL.dom.Symbol.html#pyGHDL.dom.Symbol.ConfigurationInstantiationSymbol" xlink:title="A configuration reference in a configuration instantiation." target="_top">
<polygon fill="white" stroke="#1e90ff" points="284,-37 104,-37 104,-18 284,-18 284,-37"/>
<text text-anchor="middle" x="194" y="-25" font-family="Vera Sans, DejaVu Sans, Liberation Sans, Arial, Helvetica, sans" font-size="10.00">ConfigurationInstantiationSymbol</text>
</a>
</g>
</g>
<!-- ConfigurationInstantiationSymbol&#45;&gt;ConfigurationInstantiationSymbol -->
<g id="edge1" class="edge">
<title>ConfigurationInstantiationSymbol&#45;&gt;ConfigurationInstantiationSymbol</title>
<path fill="none" stroke="black" stroke-width="0.5" d="M169.34,-37.08C157.34,-45.73 165.56,-55 194,-55 218.44,-55 227.95,-48.16 222.52,-40.74"/>
<polygon fill="black" stroke="black" stroke-width="0.5" points="223.49,-39.25 218.66,-37.08 221.09,-41.79 223.49,-39.25"/>
</g>
<!-- DOMMixin -->
<g id="node2" class="node">
<title>DOMMixin</title>
<g id="a_node2"><a xlink:href="../pyGHDL.dom.html#pyGHDL.dom.DOMMixin" xlink:title="DOMMixin" target="_top">
<polygon fill="white" stroke="#1e90ff" points="68,-56 0,-56 0,-37 68,-37 68,-56"/>
<text text-anchor="middle" x="34" y="-44" font-family="Vera Sans, DejaVu Sans, Liberation Sans, Arial, Helvetica, sans" font-size="10.00">DOMMixin</text>
</a>
</g>
</g>
<!-- DOMMixin&#45;&gt;ConfigurationInstantiationSymbol -->
<g id="edge2" class="edge">
<title>DOMMixin&#45;&gt;ConfigurationInstantiationSymbol</title>
<path fill="none" stroke="black" stroke-width="0.5" d="M68.12,-42.52C80.05,-41.08 94.11,-39.39 108.42,-37.67"/>
<polygon fill="black" stroke="black" stroke-width="0.5" points="108.94,-39.37 113.7,-37.04 108.53,-35.9 108.94,-39.37"/>
</g>
<!-- Symbol -->
<g id="node3" class="node">
<title>Symbol</title>
<polygon fill="white" stroke="#1e90ff" points="61,-19 7,-19 7,0 61,0 61,-19"/>
<text text-anchor="middle" x="34" y="-7" font-family="Vera Sans, DejaVu Sans, Liberation Sans, Arial, Helvetica, sans" font-size="10.00">Symbol</text>
</g>
<!-- Symbol&#45;&gt;ConfigurationInstantiationSymbol -->
<g id="edge3" class="edge">
<title>Symbol&#45;&gt;ConfigurationInstantiationSymbol</title>
<path fill="none" stroke="black" stroke-width="0.5" d="M61.09,-12.47C73.22,-13.85 88.42,-15.59 104.16,-17.38"/>
<polygon fill="black" stroke="black" stroke-width="0.5" points="104.34,-19.16 109.51,-17.99 104.74,-15.68 104.34,-19.16"/>
</g>
</g>
</svg>
