<?xml version="1.0" encoding="UTF-8" standalone="no"?>
<!DOCTYPE svg PUBLIC "-//W3C//DTD SVG 1.1//EN"
 "http://www.w3.org/Graphics/SVG/1.1/DTD/svg11.dtd">
<!-- Generated by graphviz version 2.43.0 (0)
 -->
<!-- Title: inheritance3649c7a88a Pages: 1 -->
<svg width="576pt" height="71pt"
 viewBox="0.00 0.00 576.00 71.46" xmlns="http://www.w3.org/2000/svg" xmlns:xlink="http://www.w3.org/1999/xlink">
<g id="graph0" class="graph" transform="scale(1.15 1.15) rotate(0) translate(4 78)">
<title>inheritance3649c7a88a</title>
<!-- ConditionalMixin -->
<g id="node1" class="node">
<title>ConditionalMixin</title>
<g id="a_node1"><a xlink:title="A ``BaseConditional`` is a mixin&#45;class for all statements with a condition.">
<polygon fill="white" stroke="#1e90ff" points="359,-74 260,-74 260,-55 359,-55 359,-74"/>
<text text-anchor="middle" x="309.5" y="-62" font-family="Vera Sans, DejaVu Sans, Liberation Sans, Arial, Helvetica, sans" font-size="10.00">ConditionalMixin</text>
</a>
</g>
</g>
<!-- LoopControlStatement -->
<g id="node4" class="node">
<title>LoopControlStatement</title>
<g id="a_node4"><a xlink:title="A ``LoopControlStatement`` is a base&#45;class for all loop controlling statements.">
<polygon fill="white" stroke="#1e90ff" points="531,-56 405,-56 405,-37 531,-37 531,-56"/>
<text text-anchor="middle" x="468" y="-44" font-family="Vera Sans, DejaVu Sans, Liberation Sans, Arial, Helvetica, sans" font-size="10.00">LoopControlStatement</text>
</a>
</g>
</g>
<!-- ConditionalMixin&#45;&gt;LoopControlStatement -->
<g id="edge5" class="edge">
<title>ConditionalMixin&#45;&gt;LoopControlStatement</title>
<path fill="none" stroke="black" stroke-width="0.5" d="M359.16,-58.9C372.03,-57.42 386.14,-55.8 399.8,-54.23"/>
<polygon fill="black" stroke="black" stroke-width="0.5" points="400.04,-55.96 404.81,-53.65 399.64,-52.49 400.04,-55.96"/>
</g>
<!-- DOMMixin -->
<g id="node2" class="node">
<title>DOMMixin</title>
<g id="a_node2"><a xlink:href="../pyGHDL.dom.html#pyGHDL.dom.DOMMixin" xlink:title="DOMMixin" target="_top">
<polygon fill="white" stroke="#1e90ff" points="502,-19 434,-19 434,0 502,0 502,-19"/>
<text text-anchor="middle" x="468" y="-7" font-family="Vera Sans, DejaVu Sans, Liberation Sans, Arial, Helvetica, sans" font-size="10.00">DOMMixin</text>
</a>
</g>
</g>
<!-- ExitStatement -->
<g id="node3" class="node">
<title>ExitStatement</title>
<g id="a_node3"><a xlink:href="../pyGHDL/pyGHDL.dom.Sequential.html#pyGHDL.dom.Sequential.ExitStatement" xlink:title="ExitStatement" target="_top">
<polygon fill="white" stroke="#1e90ff" points="653,-37 567,-37 567,-18 653,-18 653,-37"/>
<text text-anchor="middle" x="610" y="-25" font-family="Vera Sans, DejaVu Sans, Liberation Sans, Arial, Helvetica, sans" font-size="10.00">ExitStatement</text>
</a>
</g>
</g>
<!-- DOMMixin&#45;&gt;ExitStatement -->
<g id="edge2" class="edge">
<title>DOMMixin&#45;&gt;ExitStatement</title>
<path fill="none" stroke="black" stroke-width="0.5" d="M502.18,-13.77C519.84,-16.04 541.88,-18.87 561.34,-21.37"/>
<polygon fill="black" stroke="black" stroke-width="0.5" points="561.58,-23.17 566.76,-22.07 562.02,-19.7 561.58,-23.17"/>
</g>
<!-- ExitStatement&#45;&gt;ExitStatement -->
<g id="edge1" class="edge">
<title>ExitStatement&#45;&gt;ExitStatement</title>
<path fill="none" stroke="black" stroke-width="0.5" d="M588.11,-37.08C577.47,-45.73 584.76,-55 610,-55 631.69,-55 640.13,-48.16 635.31,-40.74"/>
<polygon fill="black" stroke="black" stroke-width="0.5" points="636.58,-39.54 631.89,-37.08 634.03,-41.93 636.58,-39.54"/>
</g>
<!-- LoopControlStatement&#45;&gt;ExitStatement -->
<g id="edge3" class="edge">
<title>LoopControlStatement&#45;&gt;ExitStatement</title>
<path fill="none" stroke="black" stroke-width="0.5" d="M531.22,-38.06C541.42,-36.67 551.84,-35.26 561.61,-33.93"/>
<polygon fill="black" stroke="black" stroke-width="0.5" points="561.93,-35.65 566.65,-33.25 561.46,-32.19 561.93,-35.65"/>
</g>
<!-- LabeledEntityMixin -->
<g id="node5" class="node">
<title>LabeledEntityMixin</title>
<g id="a_node5"><a xlink:title="A ``LabeledEntityMixin`` is a mixin class for all VHDL entities that can have labels.">
<polygon fill="white" stroke="#1e90ff" points="110,-56 0,-56 0,-37 110,-37 110,-56"/>
<text text-anchor="middle" x="55" y="-44" font-family="Vera Sans, DejaVu Sans, Liberation Sans, Arial, Helvetica, sans" font-size="10.00">LabeledEntityMixin</text>
</a>
</g>
</g>
<!-- Statement -->
<g id="node8" class="node">
<title>Statement</title>
<g id="a_node8"><a xlink:title="A ``Statement`` is a base&#45;class for all statements.">
<polygon fill="white" stroke="#1e90ff" points="214,-37 146,-37 146,-18 214,-18 214,-37"/>
<text text-anchor="middle" x="180" y="-25" font-family="Vera Sans, DejaVu Sans, Liberation Sans, Arial, Helvetica, sans" font-size="10.00">Statement</text>
</a>
</g>
</g>
<!-- LabeledEntityMixin&#45;&gt;Statement -->
<g id="edge8" class="edge">
<title>LabeledEntityMixin&#45;&gt;Statement</title>
<path fill="none" stroke="black" stroke-width="0.5" d="M110.31,-38.11C120.61,-36.52 131.19,-34.89 140.86,-33.39"/>
<polygon fill="black" stroke="black" stroke-width="0.5" points="141.15,-35.12 145.83,-32.62 140.62,-31.66 141.15,-35.12"/>
</g>
<!-- SequentialStatement -->
<g id="node6" class="node">
<title>SequentialStatement</title>
<g id="a_node6"><a xlink:title="A ``SequentialStatement`` is a base&#45;class for all sequential statements.">
<polygon fill="white" stroke="#1e90ff" points="369,-37 250,-37 250,-18 369,-18 369,-37"/>
<text text-anchor="middle" x="309.5" y="-25" font-family="Vera Sans, DejaVu Sans, Liberation Sans, Arial, Helvetica, sans" font-size="10.00">SequentialStatement</text>
</a>
</g>
</g>
<!-- SequentialStatement&#45;&gt;LoopControlStatement -->
<g id="edge4" class="edge">
<title>SequentialStatement&#45;&gt;LoopControlStatement</title>
<path fill="none" stroke="black" stroke-width="0.5" d="M369.22,-34.63C379.21,-35.84 389.65,-37.11 399.84,-38.35"/>
<polygon fill="black" stroke="black" stroke-width="0.5" points="399.64,-40.08 404.81,-38.95 400.06,-36.61 399.64,-40.08"/>
</g>
<!-- ModelEntity -->
<g id="node7" class="node">
<title>ModelEntity</title>
<g id="a_node7"><a xlink:title="``ModelEntity`` is the base&#45;class for all classes in the VHDL language model, except for mixin classes (see multiple">
<polygon fill="white" stroke="#1e90ff" points="92.5,-19 17.5,-19 17.5,0 92.5,0 92.5,-19"/>
<text text-anchor="middle" x="55" y="-7" font-family="Vera Sans, DejaVu Sans, Liberation Sans, Arial, Helvetica, sans" font-size="10.00">ModelEntity</text>
</a>
</g>
</g>
<!-- ModelEntity&#45;&gt;Statement -->
<g id="edge7" class="edge">
<title>ModelEntity&#45;&gt;Statement</title>
<path fill="none" stroke="black" stroke-width="0.5" d="M92.57,-14.85C107.71,-17.07 125.28,-19.64 140.61,-21.88"/>
<polygon fill="black" stroke="black" stroke-width="0.5" points="140.51,-23.64 145.72,-22.63 141.02,-20.17 140.51,-23.64"/>
</g>
<!-- Statement&#45;&gt;SequentialStatement -->
<g id="edge6" class="edge">
<title>Statement&#45;&gt;SequentialStatement</title>
<path fill="none" stroke="black" stroke-width="0.5" d="M214.17,-27.5C223.55,-27.5 234.09,-27.5 244.64,-27.5"/>
<polygon fill="black" stroke="black" stroke-width="0.5" points="244.81,-29.25 249.81,-27.5 244.81,-25.75 244.81,-29.25"/>
</g>
</g>
</svg>
