<?xml version="1.0" encoding="UTF-8" standalone="no"?>
<!DOCTYPE svg PUBLIC "-//W3C//DTD SVG 1.1//EN"
 "http://www.w3.org/Graphics/SVG/1.1/DTD/svg11.dtd">
<!-- Generated by graphviz version 2.43.0 (0)
 -->
<!-- Title: inheritance64b1b46af5 Pages: 1 -->
<svg width="576pt" height="43pt"
 viewBox="0.00 0.00 576.00 42.82" xmlns="http://www.w3.org/2000/svg" xmlns:xlink="http://www.w3.org/1999/xlink">
<g id="graph0" class="graph" transform="scale(1.49 1.49) rotate(0) translate(4 60)">
<title>inheritance64b1b46af5</title>
<!-- BaseExpression -->
<g id="node1" class="node">
<title>BaseExpression</title>
<g id="a_node1"><a xlink:title="A ``BaseExpression`` is a base&#45;class for all expressions.">
<polygon fill="white" stroke="#1e90ff" points="205,-19 111,-19 111,0 205,0 205,-19"/>
<text text-anchor="middle" x="158" y="-7" font-family="Vera Sans, DejaVu Sans, Liberation Sans, Arial, Helvetica, sans" font-size="10.00">BaseExpression</text>
</a>
</g>
</g>
<!-- BinaryExpression -->
<g id="node3" class="node">
<title>BinaryExpression</title>
<g id="a_node3"><a xlink:title="A ``BinaryExpression`` is a base&#45;class for all binary expressions.">
<polygon fill="white" stroke="#1e90ff" points="342,-19 241,-19 241,0 342,0 342,-19"/>
<text text-anchor="middle" x="291.5" y="-7" font-family="Vera Sans, DejaVu Sans, Liberation Sans, Arial, Helvetica, sans" font-size="10.00">BinaryExpression</text>
</a>
</g>
</g>
<!-- BaseExpression&#45;&gt;BinaryExpression -->
<g id="edge2" class="edge">
<title>BaseExpression&#45;&gt;BinaryExpression</title>
<path fill="none" stroke="black" stroke-width="0.5" d="M205.36,-9.5C215.19,-9.5 225.64,-9.5 235.74,-9.5"/>
<polygon fill="black" stroke="black" stroke-width="0.5" points="235.99,-11.25 240.99,-9.5 235.99,-7.75 235.99,-11.25"/>
</g>
<!-- ModelEntity -->
<g id="node2" class="node">
<title>ModelEntity</title>
<g id="a_node2"><a xlink:title="``ModelEntity`` is the base&#45;class for all classes in the VHDL language model, except for mixin classes (see multiple">
<polygon fill="white" stroke="#1e90ff" points="75,-19 0,-19 0,0 75,0 75,-19"/>
<text text-anchor="middle" x="37.5" y="-7" font-family="Vera Sans, DejaVu Sans, Liberation Sans, Arial, Helvetica, sans" font-size="10.00">ModelEntity</text>
</a>
</g>
</g>
<!-- ModelEntity&#45;&gt;BaseExpression -->
<g id="edge1" class="edge">
<title>ModelEntity&#45;&gt;BaseExpression</title>
<path fill="none" stroke="black" stroke-width="0.5" d="M75.02,-9.5C84.72,-9.5 95.38,-9.5 105.71,-9.5"/>
<polygon fill="black" stroke="black" stroke-width="0.5" points="105.75,-11.25 110.75,-9.5 105.75,-7.75 105.75,-11.25"/>
</g>
<!-- ShiftExpression -->
<g id="node6" class="node">
<title>ShiftExpression</title>
<g id="a_node6"><a xlink:title="A ``ShiftExpression`` is a base&#45;class for all shifting expressions.">
<polygon fill="white" stroke="#1e90ff" points="470,-19 378,-19 378,0 470,0 470,-19"/>
<text text-anchor="middle" x="424" y="-7" font-family="Vera Sans, DejaVu Sans, Liberation Sans, Arial, Helvetica, sans" font-size="10.00">ShiftExpression</text>
</a>
</g>
</g>
<!-- BinaryExpression&#45;&gt;ShiftExpression -->
<g id="edge4" class="edge">
<title>BinaryExpression&#45;&gt;ShiftExpression</title>
<path fill="none" stroke="black" stroke-width="0.5" d="M342.21,-9.5C352.15,-9.5 362.59,-9.5 372.55,-9.5"/>
<polygon fill="black" stroke="black" stroke-width="0.5" points="372.71,-11.25 377.71,-9.5 372.71,-7.75 372.71,-11.25"/>
</g>
<!-- DOMMixin -->
<g id="node4" class="node">
<title>DOMMixin</title>
<g id="a_node4"><a xlink:href="../pyGHDL.dom.html#pyGHDL.dom.DOMMixin" xlink:title="DOMMixin" target="_top">
<polygon fill="white" stroke="#1e90ff" points="611.5,-56 543.5,-56 543.5,-37 611.5,-37 611.5,-56"/>
<text text-anchor="middle" x="577.5" y="-44" font-family="Vera Sans, DejaVu Sans, Liberation Sans, Arial, Helvetica, sans" font-size="10.00">DOMMixin</text>
</a>
</g>
</g>
<!-- ShiftRightArithmeticExpression -->
<g id="node7" class="node">
<title>ShiftRightArithmeticExpression</title>
<g id="a_node7"><a xlink:href="../pyGHDL/pyGHDL.dom.Expression.html#pyGHDL.dom.Expression.ShiftRightArithmeticExpression" xlink:title="ShiftRightArithmeticExpression" target="_top">
<polygon fill="white" stroke="#1e90ff" points="853,-37 685,-37 685,-18 853,-18 853,-37"/>
<text text-anchor="middle" x="769" y="-25" font-family="Vera Sans, DejaVu Sans, Liberation Sans, Arial, Helvetica, sans" font-size="10.00">ShiftRightArithmeticExpression</text>
</a>
</g>
</g>
<!-- DOMMixin&#45;&gt;ShiftRightArithmeticExpression -->
<g id="edge6" class="edge">
<title>DOMMixin&#45;&gt;ShiftRightArithmeticExpression</title>
<path fill="none" stroke="black" stroke-width="0.5" d="M611.51,-43.19C630.52,-41.28 655.4,-38.79 679.71,-36.35"/>
<polygon fill="black" stroke="black" stroke-width="0.5" points="680.08,-38.07 684.88,-35.83 679.73,-34.59 680.08,-38.07"/>
</g>
<!-- ShiftArithmeticExpression -->
<g id="node5" class="node">
<title>ShiftArithmeticExpression</title>
<polygon fill="white" stroke="#1e90ff" points="649,-19 506,-19 506,0 649,0 649,-19"/>
<text text-anchor="middle" x="577.5" y="-7" font-family="Vera Sans, DejaVu Sans, Liberation Sans, Arial, Helvetica, sans" font-size="10.00">ShiftArithmeticExpression</text>
</g>
<!-- ShiftArithmeticExpression&#45;&gt;ShiftRightArithmeticExpression -->
<g id="edge7" class="edge">
<title>ShiftArithmeticExpression&#45;&gt;ShiftRightArithmeticExpression</title>
<path fill="none" stroke="black" stroke-width="0.5" d="M649.06,-16.2C659.1,-17.16 669.53,-18.15 679.85,-19.13"/>
<polygon fill="black" stroke="black" stroke-width="0.5" points="679.76,-20.88 684.9,-19.61 680.09,-17.39 679.76,-20.88"/>
</g>
<!-- ShiftExpression&#45;&gt;ShiftArithmeticExpression -->
<g id="edge3" class="edge">
<title>ShiftExpression&#45;&gt;ShiftArithmeticExpression</title>
<path fill="none" stroke="black" stroke-width="0.5" d="M470.04,-9.5C479.71,-9.5 490.19,-9.5 500.66,-9.5"/>
<polygon fill="black" stroke="black" stroke-width="0.5" points="500.8,-11.25 505.8,-9.5 500.8,-7.75 500.8,-11.25"/>
</g>
<!-- ShiftRightArithmeticExpression&#45;&gt;ShiftRightArithmeticExpression -->
<g id="edge5" class="edge">
<title>ShiftRightArithmeticExpression&#45;&gt;ShiftRightArithmeticExpression</title>
<path fill="none" stroke="black" stroke-width="0.5" d="M739.72,-37.08C725.47,-45.73 735.23,-55 769,-55 798.55,-55 809.72,-47.91 802.5,-40.34"/>
<polygon fill="black" stroke="black" stroke-width="0.5" points="803.31,-38.75 798.28,-37.08 801.17,-41.52 803.31,-38.75"/>
</g>
</g>
</svg>
