<?xml version="1.0" encoding="UTF-8" standalone="no"?>
<!DOCTYPE svg PUBLIC "-//W3C//DTD SVG 1.1//EN"
 "http://www.w3.org/Graphics/SVG/1.1/DTD/svg11.dtd">
<!-- Generated by graphviz version 2.43.0 (0)
 -->
<!-- Title: inheritance4391dd6bc3 Pages: 1 -->
<svg width="552pt" height="101pt"
 viewBox="0.00 0.00 552.00 101.00" xmlns="http://www.w3.org/2000/svg" xmlns:xlink="http://www.w3.org/1999/xlink">
<g id="graph0" class="graph" transform="scale(1 1) rotate(0) translate(4 97)">
<title>inheritance4391dd6bc3</title>
<!-- ConcurrentProcedureCall -->
<g id="node1" class="node">
<title>ConcurrentProcedureCall</title>
<g id="a_node1"><a xlink:href="../pyGHDL/pyGHDL.dom.Concurrent.html#pyGHDL.dom.Concurrent.ConcurrentProcedureCall" xlink:title="ConcurrentProcedureCall" target="_top">
<polygon fill="white" stroke="#1e90ff" points="544,-56 407,-56 407,-37 544,-37 544,-56"/>
<text text-anchor="middle" x="475.5" y="-44" font-family="Vera Sans, DejaVu Sans, Liberation Sans, Arial, Helvetica, sans" font-size="10.00">ConcurrentProcedureCall</text>
</a>
</g>
</g>
<!-- ConcurrentProcedureCall&#45;&gt;ConcurrentProcedureCall -->
<g id="edge1" class="edge">
<title>ConcurrentProcedureCall&#45;&gt;ConcurrentProcedureCall</title>
<path fill="none" stroke="black" stroke-width="0.5" d="M450.22,-56.08C437.93,-64.73 446.35,-74 475.5,-74 500.55,-74 510.29,-67.16 504.74,-59.74"/>
<polygon fill="black" stroke="black" stroke-width="0.5" points="505.64,-58.19 500.78,-56.08 503.26,-60.76 505.64,-58.19"/>
</g>
<!-- DOMMixin -->
<g id="node2" class="node">
<title>DOMMixin</title>
<g id="a_node2"><a xlink:href="../pyGHDL.dom.html#pyGHDL.dom.DOMMixin" xlink:title="DOMMixin" target="_top">
<polygon fill="white" stroke="#1e90ff" points="344.5,-93 276.5,-93 276.5,-74 344.5,-74 344.5,-93"/>
<text text-anchor="middle" x="310.5" y="-81" font-family="Vera Sans, DejaVu Sans, Liberation Sans, Arial, Helvetica, sans" font-size="10.00">DOMMixin</text>
</a>
</g>
</g>
<!-- DOMMixin&#45;&gt;ConcurrentProcedureCall -->
<g id="edge2" class="edge">
<title>DOMMixin&#45;&gt;ConcurrentProcedureCall</title>
<path fill="none" stroke="black" stroke-width="0.5" d="M344.88,-75.92C368.63,-70.53 400.87,-63.21 427.26,-57.22"/>
<polygon fill="black" stroke="black" stroke-width="0.5" points="427.97,-58.86 432.46,-56.04 427.19,-55.44 427.97,-58.86"/>
</g>
<!-- ConcurrentStatement -->
<g id="node3" class="node">
<title>ConcurrentStatement</title>
<g id="a_node3"><a xlink:title="A ``ConcurrentStatement`` is a base&#45;class for all concurrent statements.">
<polygon fill="white" stroke="#1e90ff" points="371,-56 250,-56 250,-37 371,-37 371,-56"/>
<text text-anchor="middle" x="310.5" y="-44" font-family="Vera Sans, DejaVu Sans, Liberation Sans, Arial, Helvetica, sans" font-size="10.00">ConcurrentStatement</text>
</a>
</g>
</g>
<!-- ConcurrentStatement&#45;&gt;ConcurrentProcedureCall -->
<g id="edge3" class="edge">
<title>ConcurrentStatement&#45;&gt;ConcurrentProcedureCall</title>
<path fill="none" stroke="black" stroke-width="0.5" d="M371.27,-46.5C381.1,-46.5 391.38,-46.5 401.48,-46.5"/>
<polygon fill="black" stroke="black" stroke-width="0.5" points="401.75,-48.25 406.75,-46.5 401.75,-44.75 401.75,-48.25"/>
</g>
<!-- ProcedureCall -->
<g id="node4" class="node">
<title>ProcedureCall</title>
<polygon fill="white" stroke="#1e90ff" points="352.5,-19 268.5,-19 268.5,0 352.5,0 352.5,-19"/>
<text text-anchor="middle" x="310.5" y="-7" font-family="Vera Sans, DejaVu Sans, Liberation Sans, Arial, Helvetica, sans" font-size="10.00">ProcedureCall</text>
</g>
<!-- ProcedureCall&#45;&gt;ConcurrentProcedureCall -->
<g id="edge4" class="edge">
<title>ProcedureCall&#45;&gt;ConcurrentProcedureCall</title>
<path fill="none" stroke="black" stroke-width="0.5" d="M352.63,-18.84C375.44,-24.01 403.88,-30.47 427.55,-35.84"/>
<polygon fill="black" stroke="black" stroke-width="0.5" points="427.27,-37.57 432.53,-36.97 428.04,-34.16 427.27,-37.57"/>
</g>
<!-- Statement -->
<g id="node5" class="node">
<title>Statement</title>
<g id="a_node5"><a xlink:title="A ``Statement`` is a base&#45;class for all statements.">
<polygon fill="white" stroke="#1e90ff" points="214,-56 146,-56 146,-37 214,-37 214,-56"/>
<text text-anchor="middle" x="180" y="-44" font-family="Vera Sans, DejaVu Sans, Liberation Sans, Arial, Helvetica, sans" font-size="10.00">Statement</text>
</a>
</g>
</g>
<!-- Statement&#45;&gt;ConcurrentStatement -->
<g id="edge5" class="edge">
<title>Statement&#45;&gt;ConcurrentStatement</title>
<path fill="none" stroke="black" stroke-width="0.5" d="M214.09,-46.5C223.49,-46.5 234.05,-46.5 244.64,-46.5"/>
<polygon fill="black" stroke="black" stroke-width="0.5" points="244.84,-48.25 249.84,-46.5 244.84,-44.75 244.84,-48.25"/>
</g>
<!-- LabeledEntityMixin -->
<g id="node6" class="node">
<title>LabeledEntityMixin</title>
<g id="a_node6"><a xlink:title="A ``LabeledEntityMixin`` is a mixin class for all VHDL entities that can have labels.">
<polygon fill="white" stroke="#1e90ff" points="110,-75 0,-75 0,-56 110,-56 110,-75"/>
<text text-anchor="middle" x="55" y="-63" font-family="Vera Sans, DejaVu Sans, Liberation Sans, Arial, Helvetica, sans" font-size="10.00">LabeledEntityMixin</text>
</a>
</g>
</g>
<!-- LabeledEntityMixin&#45;&gt;Statement -->
<g id="edge7" class="edge">
<title>LabeledEntityMixin&#45;&gt;Statement</title>
<path fill="none" stroke="black" stroke-width="0.5" d="M110.31,-57.11C120.61,-55.52 131.19,-53.89 140.86,-52.39"/>
<polygon fill="black" stroke="black" stroke-width="0.5" points="141.15,-54.12 145.83,-51.62 140.62,-50.66 141.15,-54.12"/>
</g>
<!-- ModelEntity -->
<g id="node7" class="node">
<title>ModelEntity</title>
<g id="a_node7"><a xlink:title="``ModelEntity`` is the base&#45;class for all classes in the VHDL language model, except for mixin classes (see multiple">
<polygon fill="white" stroke="#1e90ff" points="92.5,-38 17.5,-38 17.5,-19 92.5,-19 92.5,-38"/>
<text text-anchor="middle" x="55" y="-26" font-family="Vera Sans, DejaVu Sans, Liberation Sans, Arial, Helvetica, sans" font-size="10.00">ModelEntity</text>
</a>
</g>
</g>
<!-- ModelEntity&#45;&gt;Statement -->
<g id="edge6" class="edge">
<title>ModelEntity&#45;&gt;Statement</title>
<path fill="none" stroke="black" stroke-width="0.5" d="M92.57,-33.85C107.71,-36.07 125.28,-38.64 140.61,-40.88"/>
<polygon fill="black" stroke="black" stroke-width="0.5" points="140.51,-42.64 145.72,-41.63 141.02,-39.17 140.51,-42.64"/>
</g>
</g>
</svg>
