<?xml version="1.0" encoding="UTF-8" standalone="no"?>
<!DOCTYPE svg PUBLIC "-//W3C//DTD SVG 1.1//EN"
 "http://www.w3.org/Graphics/SVG/1.1/DTD/svg11.dtd">
<!-- Generated by graphviz version 2.43.0 (0)
 -->
<!-- Title: inheritance4a6bd0e3df Pages: 1 -->
<svg width="576pt" height="136pt"
 viewBox="0.00 0.00 576.00 136.34" xmlns="http://www.w3.org/2000/svg" xmlns:xlink="http://www.w3.org/1999/xlink">
<g id="graph0" class="graph" transform="scale(1.01 1.01) rotate(0) translate(4 134)">
<title>inheritance4a6bd0e3df</title>
<!-- DOMMixin -->
<g id="node1" class="node">
<title>DOMMixin</title>
<g id="a_node1"><a xlink:href="../pyGHDL.dom.html#pyGHDL.dom.DOMMixin" xlink:title="DOMMixin" target="_top">
<polygon fill="white" stroke="#1e90ff" points="383,-130 315,-130 315,-111 383,-111 383,-130"/>
<text text-anchor="middle" x="349" y="-118" font-family="Vera Sans, DejaVu Sans, Liberation Sans, Arial, Helvetica, sans" font-size="10.00">DOMMixin</text>
</a>
</g>
</g>
<!-- PackageInstantiation -->
<g id="node7" class="node">
<title>PackageInstantiation</title>
<g id="a_node7"><a xlink:href="../pyGHDL/pyGHDL.dom.DesignUnit.html#pyGHDL.dom.DesignUnit.PackageInstantiation" xlink:title="PackageInstantiation" target="_top">
<polygon fill="white" stroke="#1e90ff" points="575,-93 457,-93 457,-74 575,-74 575,-93"/>
<text text-anchor="middle" x="516" y="-81" font-family="Vera Sans, DejaVu Sans, Liberation Sans, Arial, Helvetica, sans" font-size="10.00">PackageInstantiation</text>
</a>
</g>
</g>
<!-- DOMMixin&#45;&gt;PackageInstantiation -->
<g id="edge5" class="edge">
<title>DOMMixin&#45;&gt;PackageInstantiation</title>
<path fill="none" stroke="black" stroke-width="0.5" d="M383.39,-113.01C407.59,-107.59 440.66,-100.17 467.59,-94.13"/>
<polygon fill="black" stroke="black" stroke-width="0.5" points="468.05,-95.82 472.55,-93.02 467.28,-92.41 468.05,-95.82"/>
</g>
<!-- DesignUnit -->
<g id="node2" class="node">
<title>DesignUnit</title>
<g id="a_node2"><a xlink:title="A ``DesignUnit`` is a base&#45;class for all design units.">
<polygon fill="white" stroke="#1e90ff" points="241,-56 170,-56 170,-37 241,-37 241,-56"/>
<text text-anchor="middle" x="205.5" y="-44" font-family="Vera Sans, DejaVu Sans, Liberation Sans, Arial, Helvetica, sans" font-size="10.00">DesignUnit</text>
</a>
</g>
</g>
<!-- PrimaryUnit -->
<g id="node8" class="node">
<title>PrimaryUnit</title>
<g id="a_node8"><a xlink:title="A ``PrimaryUnit`` is a base&#45;class for all primary units.">
<polygon fill="white" stroke="#1e90ff" points="386.5,-56 311.5,-56 311.5,-37 386.5,-37 386.5,-56"/>
<text text-anchor="middle" x="349" y="-44" font-family="Vera Sans, DejaVu Sans, Liberation Sans, Arial, Helvetica, sans" font-size="10.00">PrimaryUnit</text>
</a>
</g>
</g>
<!-- DesignUnit&#45;&gt;PrimaryUnit -->
<g id="edge8" class="edge">
<title>DesignUnit&#45;&gt;PrimaryUnit</title>
<path fill="none" stroke="black" stroke-width="0.5" d="M241.11,-46.5C260.73,-46.5 285.4,-46.5 306.1,-46.5"/>
<polygon fill="black" stroke="black" stroke-width="0.5" points="306.27,-48.25 311.27,-46.5 306.27,-44.75 306.27,-48.25"/>
</g>
<!-- ModelEntity -->
<g id="node3" class="node">
<title>ModelEntity</title>
<g id="a_node3"><a xlink:title="``ModelEntity`` is the base&#45;class for all classes in the VHDL language model, except for mixin classes (see multiple">
<polygon fill="white" stroke="#1e90ff" points="104.5,-93 29.5,-93 29.5,-74 104.5,-74 104.5,-93"/>
<text text-anchor="middle" x="67" y="-81" font-family="Vera Sans, DejaVu Sans, Liberation Sans, Arial, Helvetica, sans" font-size="10.00">ModelEntity</text>
</a>
</g>
</g>
<!-- ModelEntity&#45;&gt;DesignUnit -->
<g id="edge1" class="edge">
<title>ModelEntity&#45;&gt;DesignUnit</title>
<path fill="none" stroke="black" stroke-width="0.5" d="M103.15,-73.97C122.09,-68.84 145.5,-62.49 165.06,-57.19"/>
<polygon fill="black" stroke="black" stroke-width="0.5" points="165.57,-58.87 169.94,-55.87 164.66,-55.49 165.57,-58.87"/>
</g>
<!-- NamedEntityMixin -->
<g id="node4" class="node">
<title>NamedEntityMixin</title>
<g id="a_node4"><a xlink:title="A ``NamedEntityMixin`` is a mixin class for all VHDL entities that have identifiers.">
<polygon fill="white" stroke="#1e90ff" points="120.5,-56 13.5,-56 13.5,-37 120.5,-37 120.5,-56"/>
<text text-anchor="middle" x="67" y="-44" font-family="Vera Sans, DejaVu Sans, Liberation Sans, Arial, Helvetica, sans" font-size="10.00">NamedEntityMixin</text>
</a>
</g>
</g>
<!-- NamedEntityMixin&#45;&gt;DesignUnit -->
<g id="edge2" class="edge">
<title>NamedEntityMixin&#45;&gt;DesignUnit</title>
<path fill="none" stroke="black" stroke-width="0.5" d="M120.77,-46.5C135.35,-46.5 150.91,-46.5 164.62,-46.5"/>
<polygon fill="black" stroke="black" stroke-width="0.5" points="164.97,-48.25 169.97,-46.5 164.97,-44.75 164.97,-48.25"/>
</g>
<!-- DocumentedEntityMixin -->
<g id="node5" class="node">
<title>DocumentedEntityMixin</title>
<g id="a_node5"><a xlink:title="A ``DocumentedEntityMixin`` is a mixin class for all VHDL entities that can have an associated documentation.">
<polygon fill="white" stroke="#1e90ff" points="134,-19 0,-19 0,0 134,0 134,-19"/>
<text text-anchor="middle" x="67" y="-7" font-family="Vera Sans, DejaVu Sans, Liberation Sans, Arial, Helvetica, sans" font-size="10.00">DocumentedEntityMixin</text>
</a>
</g>
</g>
<!-- DocumentedEntityMixin&#45;&gt;DesignUnit -->
<g id="edge3" class="edge">
<title>DocumentedEntityMixin&#45;&gt;DesignUnit</title>
<path fill="none" stroke="black" stroke-width="0.5" d="M103.15,-19.03C122.09,-24.16 145.5,-30.51 165.06,-35.81"/>
<polygon fill="black" stroke="black" stroke-width="0.5" points="164.66,-37.51 169.94,-37.13 165.57,-34.13 164.66,-37.51"/>
</g>
<!-- GenericEntityInstantiation -->
<g id="node6" class="node">
<title>GenericEntityInstantiation</title>
<polygon fill="white" stroke="#1e90ff" points="421,-93 277,-93 277,-74 421,-74 421,-93"/>
<text text-anchor="middle" x="349" y="-81" font-family="Vera Sans, DejaVu Sans, Liberation Sans, Arial, Helvetica, sans" font-size="10.00">GenericEntityInstantiation</text>
</g>
<!-- GenericEntityInstantiation&#45;&gt;PackageInstantiation -->
<g id="edge7" class="edge">
<title>GenericEntityInstantiation&#45;&gt;PackageInstantiation</title>
<path fill="none" stroke="black" stroke-width="0.5" d="M421.41,-83.5C431.5,-83.5 441.81,-83.5 451.73,-83.5"/>
<polygon fill="black" stroke="black" stroke-width="0.5" points="451.88,-85.25 456.88,-83.5 451.88,-81.75 451.88,-85.25"/>
</g>
<!-- PackageInstantiation&#45;&gt;PackageInstantiation -->
<g id="edge4" class="edge">
<title>PackageInstantiation&#45;&gt;PackageInstantiation</title>
<path fill="none" stroke="black" stroke-width="0.5" d="M490.41,-93.08C477.97,-101.73 486.5,-111 516,-111 541.35,-111 551.22,-104.16 545.59,-96.74"/>
<polygon fill="black" stroke="black" stroke-width="0.5" points="546.46,-95.16 541.59,-93.08 544.1,-97.75 546.46,-95.16"/>
</g>
<!-- PrimaryUnit&#45;&gt;PackageInstantiation -->
<g id="edge6" class="edge">
<title>PrimaryUnit&#45;&gt;PackageInstantiation</title>
<path fill="none" stroke="black" stroke-width="0.5" d="M386.62,-54.71C410.38,-60.04 441.6,-67.04 467.3,-72.8"/>
<polygon fill="black" stroke="black" stroke-width="0.5" points="467.1,-74.55 472.36,-73.94 467.86,-71.14 467.1,-74.55"/>
</g>
</g>
</svg>
