<?xml version="1.0" encoding="UTF-8" standalone="no"?>
<!DOCTYPE svg PUBLIC "-//W3C//DTD SVG 1.1//EN"
 "http://www.w3.org/Graphics/SVG/1.1/DTD/svg11.dtd">
<!-- Generated by graphviz version 2.43.0 (0)
 -->
<!-- Title: inheritancea570bd9fda Pages: 1 -->
<svg width="576pt" height="55pt"
 viewBox="0.00 0.00 576.00 54.86" xmlns="http://www.w3.org/2000/svg" xmlns:xlink="http://www.w3.org/1999/xlink">
<g id="graph0" class="graph" transform="scale(1.17 1.17) rotate(0) translate(4 60)">
<title>inheritancea570bd9fda</title>
<!-- BaseExpression -->
<g id="node1" class="node">
<title>BaseExpression</title>
<g id="a_node1"><a xlink:title="A ``BaseExpression`` is a base&#45;class for all expressions.">
<polygon fill="white" stroke="#1e90ff" points="205,-19 111,-19 111,0 205,0 205,-19"/>
<text text-anchor="middle" x="158" y="-7" font-family="Vera Sans, DejaVu Sans, Liberation Sans, Arial, Helvetica, sans" font-size="10.00">BaseExpression</text>
</a>
</g>
</g>
<!-- BinaryExpression -->
<g id="node3" class="node">
<title>BinaryExpression</title>
<g id="a_node3"><a xlink:title="A ``BinaryExpression`` is a base&#45;class for all binary expressions.">
<polygon fill="white" stroke="#1e90ff" points="342,-19 241,-19 241,0 342,0 342,-19"/>
<text text-anchor="middle" x="291.5" y="-7" font-family="Vera Sans, DejaVu Sans, Liberation Sans, Arial, Helvetica, sans" font-size="10.00">BinaryExpression</text>
</a>
</g>
</g>
<!-- BaseExpression&#45;&gt;BinaryExpression -->
<g id="edge2" class="edge">
<title>BaseExpression&#45;&gt;BinaryExpression</title>
<path fill="none" stroke="black" stroke-width="0.5" d="M205.36,-9.5C215.19,-9.5 225.64,-9.5 235.74,-9.5"/>
<polygon fill="black" stroke="black" stroke-width="0.5" points="235.99,-11.25 240.99,-9.5 235.99,-7.75 235.99,-11.25"/>
</g>
<!-- ModelEntity -->
<g id="node2" class="node">
<title>ModelEntity</title>
<g id="a_node2"><a xlink:title="``ModelEntity`` is the base&#45;class for all classes in the VHDL language model, except for mixin classes (see multiple">
<polygon fill="white" stroke="#1e90ff" points="75,-19 0,-19 0,0 75,0 75,-19"/>
<text text-anchor="middle" x="37.5" y="-7" font-family="Vera Sans, DejaVu Sans, Liberation Sans, Arial, Helvetica, sans" font-size="10.00">ModelEntity</text>
</a>
</g>
</g>
<!-- ModelEntity&#45;&gt;BaseExpression -->
<g id="edge1" class="edge">
<title>ModelEntity&#45;&gt;BaseExpression</title>
<path fill="none" stroke="black" stroke-width="0.5" d="M75.02,-9.5C84.72,-9.5 95.38,-9.5 105.71,-9.5"/>
<polygon fill="black" stroke="black" stroke-width="0.5" points="105.75,-11.25 110.75,-9.5 105.75,-7.75 105.75,-11.25"/>
</g>
<!-- RelationalExpression -->
<g id="node6" class="node">
<title>RelationalExpression</title>
<g id="a_node6"><a xlink:title="A ``RelationalExpression`` is a base&#45;class for all shifting expressions.">
<polygon fill="white" stroke="#1e90ff" points="497,-19 378,-19 378,0 497,0 497,-19"/>
<text text-anchor="middle" x="437.5" y="-7" font-family="Vera Sans, DejaVu Sans, Liberation Sans, Arial, Helvetica, sans" font-size="10.00">RelationalExpression</text>
</a>
</g>
</g>
<!-- BinaryExpression&#45;&gt;RelationalExpression -->
<g id="edge6" class="edge">
<title>BinaryExpression&#45;&gt;RelationalExpression</title>
<path fill="none" stroke="black" stroke-width="0.5" d="M342.06,-9.5C351.98,-9.5 362.55,-9.5 372.87,-9.5"/>
<polygon fill="black" stroke="black" stroke-width="0.5" points="372.92,-11.25 377.92,-9.5 372.92,-7.75 372.92,-11.25"/>
</g>
<!-- DOMMixin -->
<g id="node4" class="node">
<title>DOMMixin</title>
<g id="a_node4"><a xlink:href="../pyGHDL.dom.html#pyGHDL.dom.DOMMixin" xlink:title="DOMMixin" target="_top">
<polygon fill="white" stroke="#1e90ff" points="471.5,-56 403.5,-56 403.5,-37 471.5,-37 471.5,-56"/>
<text text-anchor="middle" x="437.5" y="-44" font-family="Vera Sans, DejaVu Sans, Liberation Sans, Arial, Helvetica, sans" font-size="10.00">DOMMixin</text>
</a>
</g>
</g>
<!-- GreaterThanExpression -->
<g id="node5" class="node">
<title>GreaterThanExpression</title>
<g id="a_node5"><a xlink:href="../pyGHDL/pyGHDL.dom.Expression.html#pyGHDL.dom.Expression.GreaterThanExpression" xlink:title="GreaterThanExpression" target="_top">
<polygon fill="white" stroke="#1e90ff" points="664,-37 533,-37 533,-18 664,-18 664,-37"/>
<text text-anchor="middle" x="598.5" y="-25" font-family="Vera Sans, DejaVu Sans, Liberation Sans, Arial, Helvetica, sans" font-size="10.00">GreaterThanExpression</text>
</a>
</g>
</g>
<!-- DOMMixin&#45;&gt;GreaterThanExpression -->
<g id="edge4" class="edge">
<title>DOMMixin&#45;&gt;GreaterThanExpression</title>
<path fill="none" stroke="black" stroke-width="0.5" d="M471.83,-42.52C487.98,-40.59 508.02,-38.19 527.31,-35.89"/>
<polygon fill="black" stroke="black" stroke-width="0.5" points="527.97,-37.57 532.73,-35.24 527.56,-34.1 527.97,-37.57"/>
</g>
<!-- GreaterThanExpression&#45;&gt;GreaterThanExpression -->
<g id="edge3" class="edge">
<title>GreaterThanExpression&#45;&gt;GreaterThanExpression</title>
<path fill="none" stroke="black" stroke-width="0.5" d="M573.84,-37.08C561.84,-45.73 570.06,-55 598.5,-55 622.94,-55 632.45,-48.16 627.02,-40.74"/>
<polygon fill="black" stroke="black" stroke-width="0.5" points="627.99,-39.25 623.16,-37.08 625.59,-41.79 627.99,-39.25"/>
</g>
<!-- RelationalExpression&#45;&gt;GreaterThanExpression -->
<g id="edge5" class="edge">
<title>RelationalExpression&#45;&gt;GreaterThanExpression</title>
<path fill="none" stroke="black" stroke-width="0.5" d="M497.25,-16.15C507.21,-17.28 517.64,-18.46 527.85,-19.61"/>
<polygon fill="black" stroke="black" stroke-width="0.5" points="527.67,-21.36 532.83,-20.18 528.06,-17.88 527.67,-21.36"/>
</g>
</g>
</svg>
