<?xml version="1.0" encoding="UTF-8" standalone="no"?>
<!DOCTYPE svg PUBLIC "-//W3C//DTD SVG 1.1//EN"
 "http://www.w3.org/Graphics/SVG/1.1/DTD/svg11.dtd">
<!-- Generated by graphviz version 2.43.0 (0)
 -->
<!-- Title: inheritance245c447150 Pages: 1 -->
<svg width="576pt" height="122pt"
 viewBox="0.00 0.00 576.00 121.91" xmlns="http://www.w3.org/2000/svg" xmlns:xlink="http://www.w3.org/1999/xlink">
<g id="graph0" class="graph" transform="scale(1.13 1.13) rotate(0) translate(4 134)">
<title>inheritance245c447150</title>
<!-- DOMMixin -->
<g id="node1" class="node">
<title>DOMMixin</title>
<g id="a_node1"><a xlink:href="../pyGHDL.dom.html#pyGHDL.dom.DOMMixin" xlink:title="DOMMixin" target="_top">
<polygon fill="white" stroke="#1e90ff" points="459,-130 391,-130 391,-111 459,-111 459,-130"/>
<text text-anchor="middle" x="425" y="-118" font-family="Vera Sans, DejaVu Sans, Liberation Sans, Arial, Helvetica, sans" font-size="10.00">DOMMixin</text>
</a>
</g>
</g>
<!-- PortSignalInterfaceItem -->
<g id="node9" class="node">
<title>PortSignalInterfaceItem</title>
<g id="a_node9"><a xlink:href="../pyGHDL/pyGHDL.dom.InterfaceItem.html#pyGHDL.dom.InterfaceItem.PortSignalInterfaceItem" xlink:title="PortSignalInterfaceItem" target="_top">
<polygon fill="white" stroke="#1e90ff" points="644,-93 512,-93 512,-74 644,-74 644,-93"/>
<text text-anchor="middle" x="578" y="-81" font-family="Vera Sans, DejaVu Sans, Liberation Sans, Arial, Helvetica, sans" font-size="10.00">PortSignalInterfaceItem</text>
</a>
</g>
</g>
<!-- DOMMixin&#45;&gt;PortSignalInterfaceItem -->
<g id="edge8" class="edge">
<title>DOMMixin&#45;&gt;PortSignalInterfaceItem</title>
<path fill="none" stroke="black" stroke-width="0.5" d="M459.14,-112.38C480.86,-107.06 509.5,-100.04 533.1,-94.26"/>
<polygon fill="black" stroke="black" stroke-width="0.5" points="533.62,-95.93 538.06,-93.04 532.79,-92.53 533.62,-95.93"/>
</g>
<!-- DocumentedEntityMixin -->
<g id="node2" class="node">
<title>DocumentedEntityMixin</title>
<g id="a_node2"><a xlink:title="A ``DocumentedEntityMixin`` is a mixin class for all VHDL entities that can have an associated documentation.">
<polygon fill="white" stroke="#1e90ff" points="140.5,-120 6.5,-120 6.5,-101 140.5,-101 140.5,-120"/>
<text text-anchor="middle" x="73.5" y="-108" font-family="Vera Sans, DejaVu Sans, Liberation Sans, Arial, Helvetica, sans" font-size="10.00">DocumentedEntityMixin</text>
</a>
</g>
</g>
<!-- InterfaceItem -->
<g id="node3" class="node">
<title>InterfaceItem</title>
<g id="a_node3"><a xlink:title="An ``InterfaceItem`` is a base&#45;class for all mixin&#45;classes for all interface items.">
<polygon fill="white" stroke="#1e90ff" points="302,-130 219,-130 219,-111 302,-111 302,-130"/>
<text text-anchor="middle" x="260.5" y="-118" font-family="Vera Sans, DejaVu Sans, Liberation Sans, Arial, Helvetica, sans" font-size="10.00">InterfaceItem</text>
</a>
</g>
</g>
<!-- DocumentedEntityMixin&#45;&gt;InterfaceItem -->
<g id="edge1" class="edge">
<title>DocumentedEntityMixin&#45;&gt;InterfaceItem</title>
<path fill="none" stroke="black" stroke-width="0.5" d="M140.51,-114.07C164.71,-115.38 191.57,-116.83 213.63,-118.02"/>
<polygon fill="black" stroke="black" stroke-width="0.5" points="213.75,-119.78 218.84,-118.3 213.94,-116.28 213.75,-119.78"/>
</g>
<!-- Obj -->
<g id="node7" class="node">
<title>Obj</title>
<polygon fill="white" stroke="#1e90ff" points="287.5,-56 233.5,-56 233.5,-37 287.5,-37 287.5,-56"/>
<text text-anchor="middle" x="260.5" y="-44" font-family="Vera Sans, DejaVu Sans, Liberation Sans, Arial, Helvetica, sans" font-size="10.00">Obj</text>
</g>
<!-- DocumentedEntityMixin&#45;&gt;Obj -->
<g id="edge4" class="edge">
<title>DocumentedEntityMixin&#45;&gt;Obj</title>
<path fill="none" stroke="black" stroke-width="0.5" d="M102.32,-100.93C115.93,-96.05 132.47,-89.82 147,-83.5 163.41,-76.37 166.22,-71.69 183,-65.5 197.52,-60.14 214.14,-55.81 228.18,-52.64"/>
<polygon fill="black" stroke="black" stroke-width="0.5" points="228.72,-54.31 233.22,-51.53 227.96,-50.9 228.72,-54.31"/>
</g>
<!-- PortInterfaceItem -->
<g id="node8" class="node">
<title>PortInterfaceItem</title>
<g id="a_node8"><a xlink:title="A ``PortInterfaceItem`` is a mixin class for all port interface items.">
<polygon fill="white" stroke="#1e90ff" points="476,-93 374,-93 374,-74 476,-74 476,-93"/>
<text text-anchor="middle" x="425" y="-81" font-family="Vera Sans, DejaVu Sans, Liberation Sans, Arial, Helvetica, sans" font-size="10.00">PortInterfaceItem</text>
</a>
</g>
</g>
<!-- InterfaceItem&#45;&gt;PortInterfaceItem -->
<g id="edge5" class="edge">
<title>InterfaceItem&#45;&gt;PortInterfaceItem</title>
<path fill="none" stroke="black" stroke-width="0.5" d="M302.09,-111.26C324.91,-106.06 353.49,-99.55 377.24,-94.15"/>
<polygon fill="black" stroke="black" stroke-width="0.5" points="377.75,-95.83 382.23,-93.01 376.97,-92.41 377.75,-95.83"/>
</g>
<!-- InterfaceItemWithMode -->
<g id="node4" class="node">
<title>InterfaceItemWithMode</title>
<g id="a_node4"><a xlink:title="An ``InterfaceItemWithMode`` is a mixin&#45;class to provide a ``Mode`` to interface items.">
<polygon fill="white" stroke="#1e90ff" points="326.5,-93 194.5,-93 194.5,-74 326.5,-74 326.5,-93"/>
<text text-anchor="middle" x="260.5" y="-81" font-family="Vera Sans, DejaVu Sans, Liberation Sans, Arial, Helvetica, sans" font-size="10.00">InterfaceItemWithMode</text>
</a>
</g>
</g>
<!-- InterfaceItemWithMode&#45;&gt;PortInterfaceItem -->
<g id="edge6" class="edge">
<title>InterfaceItemWithMode&#45;&gt;PortInterfaceItem</title>
<path fill="none" stroke="black" stroke-width="0.5" d="M326.66,-83.5C340.53,-83.5 355.06,-83.5 368.53,-83.5"/>
<polygon fill="black" stroke="black" stroke-width="0.5" points="368.84,-85.25 373.84,-83.5 368.84,-81.75 368.84,-85.25"/>
</g>
<!-- ModelEntity -->
<g id="node5" class="node">
<title>ModelEntity</title>
<g id="a_node5"><a xlink:title="``ModelEntity`` is the base&#45;class for all classes in the VHDL language model, except for mixin classes (see multiple">
<polygon fill="white" stroke="#1e90ff" points="111,-74 36,-74 36,-55 111,-55 111,-74"/>
<text text-anchor="middle" x="73.5" y="-62" font-family="Vera Sans, DejaVu Sans, Liberation Sans, Arial, Helvetica, sans" font-size="10.00">ModelEntity</text>
</a>
</g>
</g>
<!-- ModelEntity&#45;&gt;Obj -->
<g id="edge2" class="edge">
<title>ModelEntity&#45;&gt;Obj</title>
<path fill="none" stroke="black" stroke-width="0.5" d="M111.05,-60.94C145.33,-57.61 196.04,-52.67 228.43,-49.52"/>
<polygon fill="black" stroke="black" stroke-width="0.5" points="228.65,-51.26 233.46,-49.03 228.32,-47.78 228.65,-51.26"/>
</g>
<!-- MultipleNamedEntityMixin -->
<g id="node6" class="node">
<title>MultipleNamedEntityMixin</title>
<g id="a_node6"><a xlink:title="A ``MultipleNamedEntityMixin`` is a mixin class for all VHDL entities that declare multiple instances at once by">
<polygon fill="white" stroke="#1e90ff" points="147,-37 0,-37 0,-18 147,-18 147,-37"/>
<text text-anchor="middle" x="73.5" y="-25" font-family="Vera Sans, DejaVu Sans, Liberation Sans, Arial, Helvetica, sans" font-size="10.00">MultipleNamedEntityMixin</text>
</a>
</g>
</g>
<!-- MultipleNamedEntityMixin&#45;&gt;Obj -->
<g id="edge3" class="edge">
<title>MultipleNamedEntityMixin&#45;&gt;Obj</title>
<path fill="none" stroke="black" stroke-width="0.5" d="M147.09,-34.95C175.2,-37.84 205.89,-40.99 228.09,-43.27"/>
<polygon fill="black" stroke="black" stroke-width="0.5" points="228.11,-45.04 233.26,-43.81 228.47,-41.55 228.11,-45.04"/>
</g>
<!-- Signal -->
<g id="node10" class="node">
<title>Signal</title>
<polygon fill="white" stroke="#1e90ff" points="452,-56 398,-56 398,-37 452,-37 452,-56"/>
<text text-anchor="middle" x="425" y="-44" font-family="Vera Sans, DejaVu Sans, Liberation Sans, Arial, Helvetica, sans" font-size="10.00">Signal</text>
</g>
<!-- Obj&#45;&gt;Signal -->
<g id="edge11" class="edge">
<title>Obj&#45;&gt;Signal</title>
<path fill="none" stroke="black" stroke-width="0.5" d="M287.61,-46.5C316.27,-46.5 362.28,-46.5 392.82,-46.5"/>
<polygon fill="black" stroke="black" stroke-width="0.5" points="392.96,-48.25 397.96,-46.5 392.96,-44.75 392.96,-48.25"/>
</g>
<!-- PortInterfaceItem&#45;&gt;PortSignalInterfaceItem -->
<g id="edge10" class="edge">
<title>PortInterfaceItem&#45;&gt;PortSignalInterfaceItem</title>
<path fill="none" stroke="black" stroke-width="0.5" d="M476.28,-83.5C486.09,-83.5 496.53,-83.5 506.85,-83.5"/>
<polygon fill="black" stroke="black" stroke-width="0.5" points="506.9,-85.25 511.9,-83.5 506.9,-81.75 506.9,-85.25"/>
</g>
<!-- PortSignalInterfaceItem&#45;&gt;PortSignalInterfaceItem -->
<g id="edge7" class="edge">
<title>PortSignalInterfaceItem&#45;&gt;PortSignalInterfaceItem</title>
<path fill="none" stroke="black" stroke-width="0.5" d="M554.57,-93.08C543.18,-101.73 550.98,-111 578,-111 601.22,-111 610.25,-104.16 605.1,-96.74"/>
<polygon fill="black" stroke="black" stroke-width="0.5" points="606.2,-95.37 601.43,-93.08 603.73,-97.85 606.2,-95.37"/>
</g>
<!-- Signal&#45;&gt;PortSignalInterfaceItem -->
<g id="edge9" class="edge">
<title>Signal&#45;&gt;PortSignalInterfaceItem</title>
<path fill="none" stroke="black" stroke-width="0.5" d="M452.3,-52.94C474.48,-58.38 506.7,-66.27 532.83,-72.68"/>
<polygon fill="black" stroke="black" stroke-width="0.5" points="532.69,-74.45 537.97,-73.94 533.53,-71.05 532.69,-74.45"/>
</g>
<!-- WithDefaultExpressionMixin -->
<g id="node11" class="node">
<title>WithDefaultExpressionMixin</title>
<g id="a_node11"><a xlink:title="A ``WithDefaultExpression`` is a mixin class for all objects declarations accepting default expressions.">
<polygon fill="white" stroke="#1e90ff" points="338,-19 183,-19 183,0 338,0 338,-19"/>
<text text-anchor="middle" x="260.5" y="-7" font-family="Vera Sans, DejaVu Sans, Liberation Sans, Arial, Helvetica, sans" font-size="10.00">WithDefaultExpressionMixin</text>
</a>
</g>
</g>
<!-- WithDefaultExpressionMixin&#45;&gt;Signal -->
<g id="edge12" class="edge">
<title>WithDefaultExpressionMixin&#45;&gt;Signal</title>
<path fill="none" stroke="black" stroke-width="0.5" d="M303.35,-19.03C331.21,-25.37 367.22,-33.57 392.62,-39.36"/>
<polygon fill="black" stroke="black" stroke-width="0.5" points="392.29,-41.08 397.56,-40.48 393.07,-37.66 392.29,-41.08"/>
</g>
</g>
</svg>
