<?xml version="1.0" encoding="UTF-8" standalone="no"?>
<!DOCTYPE svg PUBLIC "-//W3C//DTD SVG 1.1//EN"
 "http://www.w3.org/Graphics/SVG/1.1/DTD/svg11.dtd">
<!-- Generated by graphviz version 2.43.0 (0)
 -->
<!-- Title: inheritance1891a7dbc5 Pages: 1 -->
<svg width="546pt" height="64pt"
 viewBox="0.00 0.00 546.00 64.00" xmlns="http://www.w3.org/2000/svg" xmlns:xlink="http://www.w3.org/1999/xlink">
<g id="graph0" class="graph" transform="scale(1 1) rotate(0) translate(4 60)">
<title>inheritance1891a7dbc5</title>
<!-- BaseExpression -->
<g id="node1" class="node">
<title>BaseExpression</title>
<g id="a_node1"><a xlink:title="A ``BaseExpression`` is a base&#45;class for all expressions.">
<polygon fill="white" stroke="#1e90ff" points="205,-19 111,-19 111,0 205,0 205,-19"/>
<text text-anchor="middle" x="158" y="-7" font-family="Vera Sans, DejaVu Sans, Liberation Sans, Arial, Helvetica, sans" font-size="10.00">BaseExpression</text>
</a>
</g>
</g>
<!-- Literal -->
<g id="node6" class="node">
<title>Literal</title>
<g id="a_node6"><a xlink:title="A ``Literal`` is a base&#45;class for all literals.">
<polygon fill="white" stroke="#1e90ff" points="295,-19 241,-19 241,0 295,0 295,-19"/>
<text text-anchor="middle" x="268" y="-7" font-family="Vera Sans, DejaVu Sans, Liberation Sans, Arial, Helvetica, sans" font-size="10.00">Literal</text>
</a>
</g>
</g>
<!-- BaseExpression&#45;&gt;Literal -->
<g id="edge5" class="edge">
<title>BaseExpression&#45;&gt;Literal</title>
<path fill="none" stroke="black" stroke-width="0.5" d="M205.11,-9.5C215.47,-9.5 226.21,-9.5 235.79,-9.5"/>
<polygon fill="black" stroke="black" stroke-width="0.5" points="235.98,-11.25 240.98,-9.5 235.98,-7.75 235.98,-11.25"/>
</g>
<!-- ModelEntity -->
<g id="node2" class="node">
<title>ModelEntity</title>
<g id="a_node2"><a xlink:title="``ModelEntity`` is the base&#45;class for all classes in the VHDL language model, except for mixin classes (see multiple">
<polygon fill="white" stroke="#1e90ff" points="75,-19 0,-19 0,0 75,0 75,-19"/>
<text text-anchor="middle" x="37.5" y="-7" font-family="Vera Sans, DejaVu Sans, Liberation Sans, Arial, Helvetica, sans" font-size="10.00">ModelEntity</text>
</a>
</g>
</g>
<!-- ModelEntity&#45;&gt;BaseExpression -->
<g id="edge1" class="edge">
<title>ModelEntity&#45;&gt;BaseExpression</title>
<path fill="none" stroke="black" stroke-width="0.5" d="M75.02,-9.5C84.72,-9.5 95.38,-9.5 105.71,-9.5"/>
<polygon fill="black" stroke="black" stroke-width="0.5" points="105.75,-11.25 110.75,-9.5 105.75,-7.75 105.75,-11.25"/>
</g>
<!-- DOMMixin -->
<g id="node3" class="node">
<title>DOMMixin</title>
<g id="a_node3"><a xlink:href="../pyGHDL.dom.html#pyGHDL.dom.DOMMixin" xlink:title="DOMMixin" target="_top">
<polygon fill="white" stroke="#1e90ff" points="409.5,-56 341.5,-56 341.5,-37 409.5,-37 409.5,-56"/>
<text text-anchor="middle" x="375.5" y="-44" font-family="Vera Sans, DejaVu Sans, Liberation Sans, Arial, Helvetica, sans" font-size="10.00">DOMMixin</text>
</a>
</g>
</g>
<!-- IntegerLiteral -->
<g id="node4" class="node">
<title>IntegerLiteral</title>
<g id="a_node4"><a xlink:href="../pyGHDL/pyGHDL.dom.Literal.html#pyGHDL.dom.Literal.IntegerLiteral" xlink:title="IntegerLiteral" target="_top">
<polygon fill="white" stroke="#1e90ff" points="538,-37 456,-37 456,-18 538,-18 538,-37"/>
<text text-anchor="middle" x="497" y="-25" font-family="Vera Sans, DejaVu Sans, Liberation Sans, Arial, Helvetica, sans" font-size="10.00">IntegerLiteral</text>
</a>
</g>
</g>
<!-- DOMMixin&#45;&gt;IntegerLiteral -->
<g id="edge3" class="edge">
<title>DOMMixin&#45;&gt;IntegerLiteral</title>
<path fill="none" stroke="black" stroke-width="0.5" d="M409.79,-41.21C422.46,-39.19 437.12,-36.86 450.71,-34.7"/>
<polygon fill="black" stroke="black" stroke-width="0.5" points="451.01,-36.43 455.67,-33.91 450.46,-32.97 451.01,-36.43"/>
</g>
<!-- IntegerLiteral&#45;&gt;IntegerLiteral -->
<g id="edge2" class="edge">
<title>IntegerLiteral&#45;&gt;IntegerLiteral</title>
<path fill="none" stroke="black" stroke-width="0.5" d="M478.5,-37.08C469.51,-45.73 475.67,-55 497,-55 515,-55 522.2,-48.4 518.6,-41.15"/>
<polygon fill="black" stroke="black" stroke-width="0.5" points="519.92,-39.99 515.5,-37.08 517.14,-42.12 519.92,-39.99"/>
</g>
<!-- NumericLiteral -->
<g id="node5" class="node">
<title>NumericLiteral</title>
<g id="a_node5"><a xlink:title="A ``NumericLiteral`` is a base&#45;class for all numeric literals.">
<polygon fill="white" stroke="#1e90ff" points="420,-19 331,-19 331,0 420,0 420,-19"/>
<text text-anchor="middle" x="375.5" y="-7" font-family="Vera Sans, DejaVu Sans, Liberation Sans, Arial, Helvetica, sans" font-size="10.00">NumericLiteral</text>
</a>
</g>
</g>
<!-- NumericLiteral&#45;&gt;IntegerLiteral -->
<g id="edge4" class="edge">
<title>NumericLiteral&#45;&gt;IntegerLiteral</title>
<path fill="none" stroke="black" stroke-width="0.5" d="M420.32,-16.1C430.19,-17.59 440.68,-19.17 450.62,-20.66"/>
<polygon fill="black" stroke="black" stroke-width="0.5" points="450.55,-22.42 455.75,-21.44 451.07,-18.96 450.55,-22.42"/>
</g>
<!-- Literal&#45;&gt;NumericLiteral -->
<g id="edge6" class="edge">
<title>Literal&#45;&gt;NumericLiteral</title>
<path fill="none" stroke="black" stroke-width="0.5" d="M295.08,-9.5C304.31,-9.5 315.01,-9.5 325.52,-9.5"/>
<polygon fill="black" stroke="black" stroke-width="0.5" points="325.66,-11.25 330.66,-9.5 325.66,-7.75 325.66,-11.25"/>
</g>
</g>
</svg>
