<?xml version="1.0" encoding="UTF-8" standalone="no"?>
<!DOCTYPE svg PUBLIC "-//W3C//DTD SVG 1.1//EN"
 "http://www.w3.org/Graphics/SVG/1.1/DTD/svg11.dtd">
<!-- Generated by graphviz version 2.43.0 (0)
 -->
<!-- Title: inheritance16fd4d227e Pages: 1 -->
<svg width="517pt" height="119pt"
 viewBox="0.00 0.00 517.00 119.00" xmlns="http://www.w3.org/2000/svg" xmlns:xlink="http://www.w3.org/1999/xlink">
<g id="graph0" class="graph" transform="scale(1 1) rotate(0) translate(4 115)">
<title>inheritance16fd4d227e</title>
<!-- Branch -->
<g id="node1" class="node">
<title>Branch</title>
<g id="a_node1"><a xlink:title="A ``Branch`` is a base&#45;class for all branches in a if statement.">
<polygon fill="white" stroke="#1e90ff" points="380,-56 326,-56 326,-37 380,-37 380,-56"/>
<text text-anchor="middle" x="353" y="-44" font-family="Vera Sans, DejaVu Sans, Liberation Sans, Arial, Helvetica, sans" font-size="10.00">Branch</text>
</a>
</g>
</g>
<!-- ElsifBranch -->
<g id="node7" class="node">
<title>ElsifBranch</title>
<g id="a_node7"><a xlink:href="../pyGHDL/pyGHDL.dom.Sequential.html#pyGHDL.dom.Sequential.ElsifBranch" xlink:title="ElsifBranch" target="_top">
<polygon fill="white" stroke="#1e90ff" points="509,-74 438,-74 438,-55 509,-55 509,-74"/>
<text text-anchor="middle" x="473.5" y="-62" font-family="Vera Sans, DejaVu Sans, Liberation Sans, Arial, Helvetica, sans" font-size="10.00">ElsifBranch</text>
</a>
</g>
</g>
<!-- Branch&#45;&gt;ElsifBranch -->
<g id="edge6" class="edge">
<title>Branch&#45;&gt;ElsifBranch</title>
<path fill="none" stroke="black" stroke-width="0.5" d="M380.01,-50.45C395.32,-52.78 415.01,-55.77 432.29,-58.39"/>
<polygon fill="black" stroke="black" stroke-width="0.5" points="432.36,-60.17 437.56,-59.19 432.88,-56.71 432.36,-60.17"/>
</g>
<!-- ModelEntity -->
<g id="node2" class="node">
<title>ModelEntity</title>
<g id="a_node2"><a xlink:title="``ModelEntity`` is the base&#45;class for all classes in the VHDL language model, except for mixin classes (see multiple">
<polygon fill="white" stroke="#1e90ff" points="239,-56 164,-56 164,-37 239,-37 239,-56"/>
<text text-anchor="middle" x="201.5" y="-44" font-family="Vera Sans, DejaVu Sans, Liberation Sans, Arial, Helvetica, sans" font-size="10.00">ModelEntity</text>
</a>
</g>
</g>
<!-- ModelEntity&#45;&gt;Branch -->
<g id="edge1" class="edge">
<title>ModelEntity&#45;&gt;Branch</title>
<path fill="none" stroke="black" stroke-width="0.5" d="M239.07,-46.5C263.99,-46.5 296.63,-46.5 320.41,-46.5"/>
<polygon fill="black" stroke="black" stroke-width="0.5" points="320.65,-48.25 325.65,-46.5 320.65,-44.75 320.65,-48.25"/>
</g>
<!-- SequentialStatements -->
<g id="node3" class="node">
<title>SequentialStatements</title>
<polygon fill="white" stroke="#1e90ff" points="264,-19 139,-19 139,0 264,0 264,-19"/>
<text text-anchor="middle" x="201.5" y="-7" font-family="Vera Sans, DejaVu Sans, Liberation Sans, Arial, Helvetica, sans" font-size="10.00">SequentialStatements</text>
</g>
<!-- SequentialStatements&#45;&gt;Branch -->
<g id="edge2" class="edge">
<title>SequentialStatements&#45;&gt;Branch</title>
<path fill="none" stroke="black" stroke-width="0.5" d="M241,-19.03C265.77,-25.16 297.56,-33.03 320.76,-38.77"/>
<polygon fill="black" stroke="black" stroke-width="0.5" points="320.59,-40.53 325.87,-40.03 321.44,-37.13 320.59,-40.53"/>
</g>
<!-- BranchMixin -->
<g id="node4" class="node">
<title>BranchMixin</title>
<g id="a_node4"><a xlink:title="A ``BaseBranch`` is a mixin&#45;class for all statements with branches.">
<polygon fill="white" stroke="#1e90ff" points="88,-111 11,-111 11,-92 88,-92 88,-111"/>
<text text-anchor="middle" x="49.5" y="-99" font-family="Vera Sans, DejaVu Sans, Liberation Sans, Arial, Helvetica, sans" font-size="10.00">BranchMixin</text>
</a>
</g>
</g>
<!-- ConditionalBranchMixin -->
<g id="node5" class="node">
<title>ConditionalBranchMixin</title>
<g id="a_node5"><a xlink:title="A ``BaseBranch`` is a mixin&#45;class for all branch statements with a condition.">
<polygon fill="white" stroke="#1e90ff" points="268,-93 135,-93 135,-74 268,-74 268,-93"/>
<text text-anchor="middle" x="201.5" y="-81" font-family="Vera Sans, DejaVu Sans, Liberation Sans, Arial, Helvetica, sans" font-size="10.00">ConditionalBranchMixin</text>
</a>
</g>
</g>
<!-- BranchMixin&#45;&gt;ConditionalBranchMixin -->
<g id="edge3" class="edge">
<title>BranchMixin&#45;&gt;ConditionalBranchMixin</title>
<path fill="none" stroke="black" stroke-width="0.5" d="M88.35,-96.96C100.95,-95.45 115.42,-93.71 129.69,-92"/>
<polygon fill="black" stroke="black" stroke-width="0.5" points="130.18,-93.7 134.93,-91.37 129.76,-90.23 130.18,-93.7"/>
</g>
<!-- ElsifBranchMixin -->
<g id="node8" class="node">
<title>ElsifBranchMixin</title>
<g id="a_node8"><a xlink:title="A ``BaseElsifBranch`` is a mixin&#45;class for all elsif&#45;branches.">
<polygon fill="white" stroke="#1e90ff" points="402,-93 304,-93 304,-74 402,-74 402,-93"/>
<text text-anchor="middle" x="353" y="-81" font-family="Vera Sans, DejaVu Sans, Liberation Sans, Arial, Helvetica, sans" font-size="10.00">ElsifBranchMixin</text>
</a>
</g>
</g>
<!-- ConditionalBranchMixin&#45;&gt;ElsifBranchMixin -->
<g id="edge8" class="edge">
<title>ConditionalBranchMixin&#45;&gt;ElsifBranchMixin</title>
<path fill="none" stroke="black" stroke-width="0.5" d="M268.07,-83.5C278.23,-83.5 288.61,-83.5 298.46,-83.5"/>
<polygon fill="black" stroke="black" stroke-width="0.5" points="298.56,-85.25 303.56,-83.5 298.56,-81.75 298.56,-85.25"/>
</g>
<!-- ConditionalMixin -->
<g id="node6" class="node">
<title>ConditionalMixin</title>
<g id="a_node6"><a xlink:title="A ``BaseConditional`` is a mixin&#45;class for all statements with a condition.">
<polygon fill="white" stroke="#1e90ff" points="99,-74 0,-74 0,-55 99,-55 99,-74"/>
<text text-anchor="middle" x="49.5" y="-62" font-family="Vera Sans, DejaVu Sans, Liberation Sans, Arial, Helvetica, sans" font-size="10.00">ConditionalMixin</text>
</a>
</g>
</g>
<!-- ConditionalMixin&#45;&gt;ConditionalBranchMixin -->
<g id="edge4" class="edge">
<title>ConditionalMixin&#45;&gt;ConditionalBranchMixin</title>
<path fill="none" stroke="black" stroke-width="0.5" d="M99.2,-70.67C108.98,-71.91 119.44,-73.23 129.79,-74.54"/>
<polygon fill="black" stroke="black" stroke-width="0.5" points="129.68,-76.29 134.86,-75.19 130.12,-72.82 129.68,-76.29"/>
</g>
<!-- ElsifBranch&#45;&gt;ElsifBranch -->
<g id="edge5" class="edge">
<title>ElsifBranch&#45;&gt;ElsifBranch</title>
<path fill="none" stroke="black" stroke-width="0.5" d="M455,-74.08C446.01,-82.73 452.17,-92 473.5,-92 491.5,-92 498.7,-85.4 495.1,-78.15"/>
<polygon fill="black" stroke="black" stroke-width="0.5" points="496.42,-76.99 492,-74.08 493.64,-79.12 496.42,-76.99"/>
</g>
<!-- ElsifBranchMixin&#45;&gt;ElsifBranch -->
<g id="edge7" class="edge">
<title>ElsifBranchMixin&#45;&gt;ElsifBranch</title>
<path fill="none" stroke="black" stroke-width="0.5" d="M402.2,-75.77C412.35,-74.14 422.95,-72.45 432.74,-70.87"/>
<polygon fill="black" stroke="black" stroke-width="0.5" points="433.13,-72.59 437.79,-70.07 432.57,-69.13 433.13,-72.59"/>
</g>
</g>
</svg>
