<?xml version="1.0" encoding="UTF-8" standalone="no"?>
<!DOCTYPE svg PUBLIC "-//W3C//DTD SVG 1.1//EN"
 "http://www.w3.org/Graphics/SVG/1.1/DTD/svg11.dtd">
<!-- Generated by graphviz version 2.43.0 (0)
 -->
<!-- Title: inheritance8733250380 Pages: 1 -->
<svg width="499pt" height="64pt"
 viewBox="0.00 0.00 499.00 64.00" xmlns="http://www.w3.org/2000/svg" xmlns:xlink="http://www.w3.org/1999/xlink">
<g id="graph0" class="graph" transform="scale(1 1) rotate(0) translate(4 60)">
<title>inheritance8733250380</title>
<!-- BaseChoice -->
<g id="node1" class="node">
<title>BaseChoice</title>
<g id="a_node1"><a xlink:title="A ``Choice`` is a base&#45;class for all choices.">
<polygon fill="white" stroke="#1e90ff" points="185,-19 111,-19 111,0 185,0 185,-19"/>
<text text-anchor="middle" x="148" y="-7" font-family="Vera Sans, DejaVu Sans, Liberation Sans, Arial, Helvetica, sans" font-size="10.00">BaseChoice</text>
</a>
</g>
</g>
<!-- ConcurrentChoice -->
<g id="node3" class="node">
<title>ConcurrentChoice</title>
<g id="a_node3"><a xlink:title="A ``ConcurrentChoice`` is a base&#45;class for all concurrent choices (in case...generate statements).">
<polygon fill="white" stroke="#1e90ff" points="324,-19 221,-19 221,0 324,0 324,-19"/>
<text text-anchor="middle" x="272.5" y="-7" font-family="Vera Sans, DejaVu Sans, Liberation Sans, Arial, Helvetica, sans" font-size="10.00">ConcurrentChoice</text>
</a>
</g>
</g>
<!-- BaseChoice&#45;&gt;ConcurrentChoice -->
<g id="edge2" class="edge">
<title>BaseChoice&#45;&gt;ConcurrentChoice</title>
<path fill="none" stroke="black" stroke-width="0.5" d="M185.09,-9.5C194.67,-9.5 205.25,-9.5 215.62,-9.5"/>
<polygon fill="black" stroke="black" stroke-width="0.5" points="215.69,-11.25 220.69,-9.5 215.69,-7.75 215.69,-11.25"/>
</g>
<!-- ModelEntity -->
<g id="node2" class="node">
<title>ModelEntity</title>
<g id="a_node2"><a xlink:title="``ModelEntity`` is the base&#45;class for all classes in the VHDL language model, except for mixin classes (see multiple">
<polygon fill="white" stroke="#1e90ff" points="75,-19 0,-19 0,0 75,0 75,-19"/>
<text text-anchor="middle" x="37.5" y="-7" font-family="Vera Sans, DejaVu Sans, Liberation Sans, Arial, Helvetica, sans" font-size="10.00">ModelEntity</text>
</a>
</g>
</g>
<!-- ModelEntity&#45;&gt;BaseChoice -->
<g id="edge1" class="edge">
<title>ModelEntity&#45;&gt;BaseChoice</title>
<path fill="none" stroke="black" stroke-width="0.5" d="M75.23,-9.5C84.97,-9.5 95.55,-9.5 105.52,-9.5"/>
<polygon fill="black" stroke="black" stroke-width="0.5" points="105.67,-11.25 110.67,-9.5 105.67,-7.75 105.67,-11.25"/>
</g>
<!-- RangedGenerateChoice -->
<g id="node5" class="node">
<title>RangedGenerateChoice</title>
<g id="a_node5"><a xlink:href="../pyGHDL/pyGHDL.dom.Concurrent.html#pyGHDL.dom.Concurrent.RangedGenerateChoice" xlink:title="RangedGenerateChoice" target="_top">
<polygon fill="white" stroke="#1e90ff" points="491,-37 360,-37 360,-18 491,-18 491,-37"/>
<text text-anchor="middle" x="425.5" y="-25" font-family="Vera Sans, DejaVu Sans, Liberation Sans, Arial, Helvetica, sans" font-size="10.00">RangedGenerateChoice</text>
</a>
</g>
</g>
<!-- ConcurrentChoice&#45;&gt;RangedGenerateChoice -->
<g id="edge5" class="edge">
<title>ConcurrentChoice&#45;&gt;RangedGenerateChoice</title>
<path fill="none" stroke="black" stroke-width="0.5" d="M324.2,-15.54C334.07,-16.72 344.57,-17.97 354.92,-19.21"/>
<polygon fill="black" stroke="black" stroke-width="0.5" points="354.82,-20.96 359.99,-19.81 355.23,-17.48 354.82,-20.96"/>
</g>
<!-- DOMMixin -->
<g id="node4" class="node">
<title>DOMMixin</title>
<g id="a_node4"><a xlink:href="../pyGHDL.dom.html#pyGHDL.dom.DOMMixin" xlink:title="DOMMixin" target="_top">
<polygon fill="white" stroke="#1e90ff" points="306.5,-56 238.5,-56 238.5,-37 306.5,-37 306.5,-56"/>
<text text-anchor="middle" x="272.5" y="-44" font-family="Vera Sans, DejaVu Sans, Liberation Sans, Arial, Helvetica, sans" font-size="10.00">DOMMixin</text>
</a>
</g>
</g>
<!-- DOMMixin&#45;&gt;RangedGenerateChoice -->
<g id="edge4" class="edge">
<title>DOMMixin&#45;&gt;RangedGenerateChoice</title>
<path fill="none" stroke="black" stroke-width="0.5" d="M306.64,-42.33C320.8,-40.55 337.9,-38.4 354.63,-36.29"/>
<polygon fill="black" stroke="black" stroke-width="0.5" points="355.07,-38 359.81,-35.64 354.63,-34.53 355.07,-38"/>
</g>
<!-- RangedGenerateChoice&#45;&gt;RangedGenerateChoice -->
<g id="edge3" class="edge">
<title>RangedGenerateChoice&#45;&gt;RangedGenerateChoice</title>
<path fill="none" stroke="black" stroke-width="0.5" d="M402.07,-37.08C390.68,-45.73 398.48,-55 425.5,-55 448.72,-55 457.75,-48.16 452.6,-40.74"/>
<polygon fill="black" stroke="black" stroke-width="0.5" points="453.7,-39.37 448.93,-37.08 451.23,-41.85 453.7,-39.37"/>
</g>
</g>
</svg>
