<?xml version="1.0" encoding="UTF-8" standalone="no"?>
<!DOCTYPE svg PUBLIC "-//W3C//DTD SVG 1.1//EN"
 "http://www.w3.org/Graphics/SVG/1.1/DTD/svg11.dtd">
<!-- Generated by graphviz version 2.43.0 (0)
 -->
<!-- Title: inheritancea3bc8179f1 Pages: 1 -->
<svg width="312pt" height="64pt"
 viewBox="0.00 0.00 312.00 64.00" xmlns="http://www.w3.org/2000/svg" xmlns:xlink="http://www.w3.org/1999/xlink">
<g id="graph0" class="graph" transform="scale(1 1) rotate(0) translate(4 60)">
<title>inheritancea3bc8179f1</title>
<!-- AttributeName -->
<g id="node1" class="node">
<title>AttributeName</title>
<g id="a_node1"><a xlink:href="../pyGHDL/pyGHDL.dom.Names.html#pyGHDL.dom.Names.AttributeName" xlink:title="AttributeName" target="_top">
<polygon fill="white" stroke="#1e90ff" points="304,-37 215,-37 215,-18 304,-18 304,-37"/>
<text text-anchor="middle" x="259.5" y="-25" font-family="Vera Sans, DejaVu Sans, Liberation Sans, Arial, Helvetica, sans" font-size="10.00">AttributeName</text>
</a>
</g>
</g>
<!-- AttributeName&#45;&gt;AttributeName -->
<g id="edge1" class="edge">
<title>AttributeName&#45;&gt;AttributeName</title>
<path fill="none" stroke="black" stroke-width="0.5" d="M241.93,-37.08C233.38,-45.73 239.24,-55 259.5,-55 276.6,-55 283.44,-48.4 280.02,-41.15"/>
<polygon fill="black" stroke="black" stroke-width="0.5" points="281.43,-40.1 277.07,-37.08 278.59,-42.16 281.43,-40.1"/>
</g>
<!-- DOMMixin -->
<g id="node2" class="node">
<title>DOMMixin</title>
<g id="a_node2"><a xlink:href="../pyGHDL.dom.html#pyGHDL.dom.DOMMixin" xlink:title="DOMMixin" target="_top">
<polygon fill="white" stroke="#1e90ff" points="179,-56 111,-56 111,-37 179,-37 179,-56"/>
<text text-anchor="middle" x="145" y="-44" font-family="Vera Sans, DejaVu Sans, Liberation Sans, Arial, Helvetica, sans" font-size="10.00">DOMMixin</text>
</a>
</g>
</g>
<!-- DOMMixin&#45;&gt;AttributeName -->
<g id="edge2" class="edge">
<title>DOMMixin&#45;&gt;AttributeName</title>
<path fill="none" stroke="black" stroke-width="0.5" d="M179.15,-40.9C188.73,-39.28 199.39,-37.48 209.71,-35.74"/>
<polygon fill="black" stroke="black" stroke-width="0.5" points="210.1,-37.45 214.74,-34.89 209.52,-34 210.1,-37.45"/>
</g>
<!-- Name -->
<g id="node3" class="node">
<title>Name</title>
<g id="a_node3"><a xlink:title="``Name`` is the base&#45;class for all *names* in the VHDL language model.">
<polygon fill="white" stroke="#1e90ff" points="172,-19 118,-19 118,0 172,0 172,-19"/>
<text text-anchor="middle" x="145" y="-7" font-family="Vera Sans, DejaVu Sans, Liberation Sans, Arial, Helvetica, sans" font-size="10.00">Name</text>
</a>
</g>
</g>
<!-- Name&#45;&gt;AttributeName -->
<g id="edge3" class="edge">
<title>Name&#45;&gt;AttributeName</title>
<path fill="none" stroke="black" stroke-width="0.5" d="M172.09,-13.67C183.32,-15.47 196.83,-17.63 209.8,-19.71"/>
<polygon fill="black" stroke="black" stroke-width="0.5" points="209.71,-21.47 214.92,-20.53 210.26,-18.01 209.71,-21.47"/>
</g>
<!-- ModelEntity -->
<g id="node4" class="node">
<title>ModelEntity</title>
<g id="a_node4"><a xlink:title="``ModelEntity`` is the base&#45;class for all classes in the VHDL language model, except for mixin classes (see multiple">
<polygon fill="white" stroke="#1e90ff" points="75,-19 0,-19 0,0 75,0 75,-19"/>
<text text-anchor="middle" x="37.5" y="-7" font-family="Vera Sans, DejaVu Sans, Liberation Sans, Arial, Helvetica, sans" font-size="10.00">ModelEntity</text>
</a>
</g>
</g>
<!-- ModelEntity&#45;&gt;Name -->
<g id="edge4" class="edge">
<title>ModelEntity&#45;&gt;Name</title>
<path fill="none" stroke="black" stroke-width="0.5" d="M75.1,-9.5C87.28,-9.5 100.73,-9.5 112.49,-9.5"/>
<polygon fill="black" stroke="black" stroke-width="0.5" points="112.77,-11.25 117.77,-9.5 112.77,-7.75 112.77,-11.25"/>
</g>
</g>
</svg>
