<?xml version="1.0" encoding="UTF-8" standalone="no"?>
<!DOCTYPE svg PUBLIC "-//W3C//DTD SVG 1.1//EN"
 "http://www.w3.org/Graphics/SVG/1.1/DTD/svg11.dtd">
<!-- Generated by graphviz version 2.43.0 (0)
 -->
<!-- Title: inheritanceec5907b79d Pages: 1 -->
<svg width="500pt" height="82pt"
 viewBox="0.00 0.00 500.00 82.00" xmlns="http://www.w3.org/2000/svg" xmlns:xlink="http://www.w3.org/1999/xlink">
<g id="graph0" class="graph" transform="scale(1 1) rotate(0) translate(4 78)">
<title>inheritanceec5907b79d</title>
<!-- DOMMixin -->
<g id="node1" class="node">
<title>DOMMixin</title>
<g id="a_node1"><a xlink:href="../pyGHDL.dom.html#pyGHDL.dom.DOMMixin" xlink:title="DOMMixin" target="_top">
<polygon fill="white" stroke="#1e90ff" points="343.5,-74 275.5,-74 275.5,-55 343.5,-55 343.5,-74"/>
<text text-anchor="middle" x="309.5" y="-62" font-family="Vera Sans, DejaVu Sans, Liberation Sans, Arial, Helvetica, sans" font-size="10.00">DOMMixin</text>
</a>
</g>
</g>
<!-- NullStatement -->
<g id="node4" class="node">
<title>NullStatement</title>
<g id="a_node4"><a xlink:href="../pyGHDL/pyGHDL.dom.Sequential.html#pyGHDL.dom.Sequential.NullStatement" xlink:title="NullStatement" target="_top">
<polygon fill="white" stroke="#1e90ff" points="492,-55 405,-55 405,-36 492,-36 492,-55"/>
<text text-anchor="middle" x="448.5" y="-43" font-family="Vera Sans, DejaVu Sans, Liberation Sans, Arial, Helvetica, sans" font-size="10.00">NullStatement</text>
</a>
</g>
</g>
<!-- DOMMixin&#45;&gt;NullStatement -->
<g id="edge2" class="edge">
<title>DOMMixin&#45;&gt;NullStatement</title>
<path fill="none" stroke="black" stroke-width="0.5" d="M343.66,-59.9C360.46,-57.57 381.15,-54.7 399.64,-52.14"/>
<polygon fill="black" stroke="black" stroke-width="0.5" points="400.07,-53.84 404.79,-51.42 399.59,-50.38 400.07,-53.84"/>
</g>
<!-- LabeledEntityMixin -->
<g id="node2" class="node">
<title>LabeledEntityMixin</title>
<g id="a_node2"><a xlink:title="A ``LabeledEntityMixin`` is a mixin class for all VHDL entities that can have labels.">
<polygon fill="white" stroke="#1e90ff" points="110,-56 0,-56 0,-37 110,-37 110,-56"/>
<text text-anchor="middle" x="55" y="-44" font-family="Vera Sans, DejaVu Sans, Liberation Sans, Arial, Helvetica, sans" font-size="10.00">LabeledEntityMixin</text>
</a>
</g>
</g>
<!-- Statement -->
<g id="node6" class="node">
<title>Statement</title>
<g id="a_node6"><a xlink:title="A ``Statement`` is a base&#45;class for all statements.">
<polygon fill="white" stroke="#1e90ff" points="214,-37 146,-37 146,-18 214,-18 214,-37"/>
<text text-anchor="middle" x="180" y="-25" font-family="Vera Sans, DejaVu Sans, Liberation Sans, Arial, Helvetica, sans" font-size="10.00">Statement</text>
</a>
</g>
</g>
<!-- LabeledEntityMixin&#45;&gt;Statement -->
<g id="edge6" class="edge">
<title>LabeledEntityMixin&#45;&gt;Statement</title>
<path fill="none" stroke="black" stroke-width="0.5" d="M110.31,-38.11C120.61,-36.52 131.19,-34.89 140.86,-33.39"/>
<polygon fill="black" stroke="black" stroke-width="0.5" points="141.15,-35.12 145.83,-32.62 140.62,-31.66 141.15,-35.12"/>
</g>
<!-- ModelEntity -->
<g id="node3" class="node">
<title>ModelEntity</title>
<g id="a_node3"><a xlink:title="``ModelEntity`` is the base&#45;class for all classes in the VHDL language model, except for mixin classes (see multiple">
<polygon fill="white" stroke="#1e90ff" points="92.5,-19 17.5,-19 17.5,0 92.5,0 92.5,-19"/>
<text text-anchor="middle" x="55" y="-7" font-family="Vera Sans, DejaVu Sans, Liberation Sans, Arial, Helvetica, sans" font-size="10.00">ModelEntity</text>
</a>
</g>
</g>
<!-- ModelEntity&#45;&gt;Statement -->
<g id="edge5" class="edge">
<title>ModelEntity&#45;&gt;Statement</title>
<path fill="none" stroke="black" stroke-width="0.5" d="M92.57,-14.85C107.71,-17.07 125.28,-19.64 140.61,-21.88"/>
<polygon fill="black" stroke="black" stroke-width="0.5" points="140.51,-23.64 145.72,-22.63 141.02,-20.17 140.51,-23.64"/>
</g>
<!-- NullStatement&#45;&gt;NullStatement -->
<g id="edge1" class="edge">
<title>NullStatement&#45;&gt;NullStatement</title>
<path fill="none" stroke="black" stroke-width="0.5" d="M427.23,-55.08C416.88,-63.73 423.97,-73 448.5,-73 469.19,-73 477.48,-66.4 473.34,-59.15"/>
<polygon fill="black" stroke="black" stroke-width="0.5" points="474.39,-57.68 469.77,-55.08 471.76,-59.99 474.39,-57.68"/>
</g>
<!-- SequentialStatement -->
<g id="node5" class="node">
<title>SequentialStatement</title>
<g id="a_node5"><a xlink:title="A ``SequentialStatement`` is a base&#45;class for all sequential statements.">
<polygon fill="white" stroke="#1e90ff" points="369,-37 250,-37 250,-18 369,-18 369,-37"/>
<text text-anchor="middle" x="309.5" y="-25" font-family="Vera Sans, DejaVu Sans, Liberation Sans, Arial, Helvetica, sans" font-size="10.00">SequentialStatement</text>
</a>
</g>
</g>
<!-- SequentialStatement&#45;&gt;NullStatement -->
<g id="edge3" class="edge">
<title>SequentialStatement&#45;&gt;NullStatement</title>
<path fill="none" stroke="black" stroke-width="0.5" d="M369.4,-35.24C379.52,-36.57 389.94,-37.94 399.73,-39.22"/>
<polygon fill="black" stroke="black" stroke-width="0.5" points="399.6,-40.97 404.79,-39.89 400.06,-37.5 399.6,-40.97"/>
</g>
<!-- Statement&#45;&gt;SequentialStatement -->
<g id="edge4" class="edge">
<title>Statement&#45;&gt;SequentialStatement</title>
<path fill="none" stroke="black" stroke-width="0.5" d="M214.17,-27.5C223.55,-27.5 234.09,-27.5 244.64,-27.5"/>
<polygon fill="black" stroke="black" stroke-width="0.5" points="244.81,-29.25 249.81,-27.5 244.81,-25.75 244.81,-29.25"/>
</g>
</g>
</svg>
