<?xml version="1.0" encoding="UTF-8" standalone="no"?>
<!DOCTYPE svg PUBLIC "-//W3C//DTD SVG 1.1//EN"
 "http://www.w3.org/Graphics/SVG/1.1/DTD/svg11.dtd">
<!-- Generated by graphviz version 2.43.0 (0)
 -->
<!-- Title: inheritancefa65c068da Pages: 1 -->
<svg width="226pt" height="64pt"
 viewBox="0.00 0.00 226.00 64.00" xmlns="http://www.w3.org/2000/svg" xmlns:xlink="http://www.w3.org/1999/xlink">
<g id="graph0" class="graph" transform="scale(1 1) rotate(0) translate(4 60)">
<title>inheritancefa65c068da</title>
<!-- DOMMixin -->
<g id="node1" class="node">
<title>DOMMixin</title>
<g id="a_node1"><a xlink:href="../pyGHDL.dom.html#pyGHDL.dom.DOMMixin" xlink:title="DOMMixin" target="_top">
<polygon fill="white" stroke="#1e90ff" points="71.5,-56 3.5,-56 3.5,-37 71.5,-37 71.5,-56"/>
<text text-anchor="middle" x="37.5" y="-44" font-family="Vera Sans, DejaVu Sans, Liberation Sans, Arial, Helvetica, sans" font-size="10.00">DOMMixin</text>
</a>
</g>
</g>
<!-- WaveformElement -->
<g id="node3" class="node">
<title>WaveformElement</title>
<g id="a_node3"><a xlink:href="../pyGHDL/pyGHDL.dom.Concurrent.html#pyGHDL.dom.Concurrent.WaveformElement" xlink:title="WaveformElement" target="_top">
<polygon fill="white" stroke="#1e90ff" points="218,-37 111,-37 111,-18 218,-18 218,-37"/>
<text text-anchor="middle" x="164.5" y="-25" font-family="Vera Sans, DejaVu Sans, Liberation Sans, Arial, Helvetica, sans" font-size="10.00">WaveformElement</text>
</a>
</g>
</g>
<!-- DOMMixin&#45;&gt;WaveformElement -->
<g id="edge2" class="edge">
<title>DOMMixin&#45;&gt;WaveformElement</title>
<path fill="none" stroke="black" stroke-width="0.5" d="M71.67,-41.46C82.18,-39.86 94.11,-38.05 105.82,-36.27"/>
<polygon fill="black" stroke="black" stroke-width="0.5" points="106.14,-37.99 110.82,-35.51 105.61,-34.53 106.14,-37.99"/>
</g>
<!-- ModelEntity -->
<g id="node2" class="node">
<title>ModelEntity</title>
<g id="a_node2"><a xlink:title="``ModelEntity`` is the base&#45;class for all classes in the VHDL language model, except for mixin classes (see multiple">
<polygon fill="white" stroke="#1e90ff" points="75,-19 0,-19 0,0 75,0 75,-19"/>
<text text-anchor="middle" x="37.5" y="-7" font-family="Vera Sans, DejaVu Sans, Liberation Sans, Arial, Helvetica, sans" font-size="10.00">ModelEntity</text>
</a>
</g>
</g>
<!-- ModelEntity&#45;&gt;WaveformElement -->
<g id="edge3" class="edge">
<title>ModelEntity&#45;&gt;WaveformElement</title>
<path fill="none" stroke="black" stroke-width="0.5" d="M75.33,-14.8C84.86,-16.18 95.35,-17.69 105.68,-19.17"/>
<polygon fill="black" stroke="black" stroke-width="0.5" points="105.53,-20.92 110.73,-19.9 106.03,-17.46 105.53,-20.92"/>
</g>
<!-- WaveformElement&#45;&gt;WaveformElement -->
<g id="edge1" class="edge">
<title>WaveformElement&#45;&gt;WaveformElement</title>
<path fill="none" stroke="black" stroke-width="0.5" d="M145.08,-37.08C135.63,-45.73 142.11,-55 164.5,-55 183.4,-55 190.96,-48.4 187.18,-41.15"/>
<polygon fill="black" stroke="black" stroke-width="0.5" points="188.42,-39.89 183.92,-37.08 185.69,-42.08 188.42,-39.89"/>
</g>
</g>
</svg>
