<?xml version="1.0" encoding="UTF-8" standalone="no"?>
<!DOCTYPE svg PUBLIC "-//W3C//DTD SVG 1.1//EN"
 "http://www.w3.org/Graphics/SVG/1.1/DTD/svg11.dtd">
<!-- Generated by graphviz version 2.43.0 (0)
 -->
<!-- Title: inheritancee1b2c861b3 Pages: 1 -->
<svg width="454pt" height="101pt"
 viewBox="0.00 0.00 454.00 101.00" xmlns="http://www.w3.org/2000/svg" xmlns:xlink="http://www.w3.org/1999/xlink">
<g id="graph0" class="graph" transform="scale(1 1) rotate(0) translate(4 97)">
<title>inheritancee1b2c861b3</title>
<!-- AccessType -->
<g id="node1" class="node">
<title>AccessType</title>
<g id="a_node1"><a xlink:href="../pyGHDL/pyGHDL.dom.Type.html#pyGHDL.dom.Type.AccessType" xlink:title="AccessType" target="_top">
<polygon fill="white" stroke="#1e90ff" points="446,-74 373,-74 373,-55 446,-55 446,-74"/>
<text text-anchor="middle" x="409.5" y="-62" font-family="Vera Sans, DejaVu Sans, Liberation Sans, Arial, Helvetica, sans" font-size="10.00">AccessType</text>
</a>
</g>
</g>
<!-- AccessType&#45;&gt;AccessType -->
<g id="edge1" class="edge">
<title>AccessType&#45;&gt;AccessType</title>
<path fill="none" stroke="black" stroke-width="0.5" d="M393.16,-74.08C385.21,-82.73 390.66,-92 409.5,-92 425.1,-92 431.52,-85.65 428.75,-78.55"/>
<polygon fill="black" stroke="black" stroke-width="0.5" points="430.03,-77.32 425.84,-74.08 427.1,-79.23 430.03,-77.32"/>
</g>
<!-- DOMMixin -->
<g id="node2" class="node">
<title>DOMMixin</title>
<g id="a_node2"><a xlink:href="../pyGHDL.dom.html#pyGHDL.dom.DOMMixin" xlink:title="DOMMixin" target="_top">
<polygon fill="white" stroke="#1e90ff" points="337,-93 269,-93 269,-74 337,-74 337,-93"/>
<text text-anchor="middle" x="303" y="-81" font-family="Vera Sans, DejaVu Sans, Liberation Sans, Arial, Helvetica, sans" font-size="10.00">DOMMixin</text>
</a>
</g>
</g>
<!-- DOMMixin&#45;&gt;AccessType -->
<g id="edge2" class="edge">
<title>DOMMixin&#45;&gt;AccessType</title>
<path fill="none" stroke="black" stroke-width="0.5" d="M337.06,-77.49C346.83,-75.71 357.63,-73.75 367.81,-71.9"/>
<polygon fill="black" stroke="black" stroke-width="0.5" points="368.15,-73.62 372.76,-71 367.52,-70.17 368.15,-73.62"/>
</g>
<!-- FullType -->
<g id="node3" class="node">
<title>FullType</title>
<polygon fill="white" stroke="#1e90ff" points="331,-56 275,-56 275,-37 331,-37 331,-56"/>
<text text-anchor="middle" x="303" y="-44" font-family="Vera Sans, DejaVu Sans, Liberation Sans, Arial, Helvetica, sans" font-size="10.00">FullType</text>
</g>
<!-- FullType&#45;&gt;AccessType -->
<g id="edge3" class="edge">
<title>FullType&#45;&gt;AccessType</title>
<path fill="none" stroke="black" stroke-width="0.5" d="M331.18,-51.18C342.3,-53.1 355.39,-55.35 367.61,-57.46"/>
<polygon fill="black" stroke="black" stroke-width="0.5" points="367.56,-59.22 372.79,-58.35 368.16,-55.78 367.56,-59.22"/>
</g>
<!-- BaseType -->
<g id="node4" class="node">
<title>BaseType</title>
<g id="a_node4"><a xlink:title="``BaseType`` is the base&#45;class of all type entities in this model.">
<polygon fill="white" stroke="#1e90ff" points="233,-56 170,-56 170,-37 233,-37 233,-56"/>
<text text-anchor="middle" x="201.5" y="-44" font-family="Vera Sans, DejaVu Sans, Liberation Sans, Arial, Helvetica, sans" font-size="10.00">BaseType</text>
</a>
</g>
</g>
<!-- BaseType&#45;&gt;FullType -->
<g id="edge7" class="edge">
<title>BaseType&#45;&gt;FullType</title>
<path fill="none" stroke="black" stroke-width="0.5" d="M233.17,-46.5C244.75,-46.5 257.97,-46.5 269.7,-46.5"/>
<polygon fill="black" stroke="black" stroke-width="0.5" points="269.97,-48.25 274.97,-46.5 269.97,-44.75 269.97,-48.25"/>
</g>
<!-- ModelEntity -->
<g id="node5" class="node">
<title>ModelEntity</title>
<g id="a_node5"><a xlink:title="``ModelEntity`` is the base&#45;class for all classes in the VHDL language model, except for mixin classes (see multiple">
<polygon fill="white" stroke="#1e90ff" points="104.5,-93 29.5,-93 29.5,-74 104.5,-74 104.5,-93"/>
<text text-anchor="middle" x="67" y="-81" font-family="Vera Sans, DejaVu Sans, Liberation Sans, Arial, Helvetica, sans" font-size="10.00">ModelEntity</text>
</a>
</g>
</g>
<!-- ModelEntity&#45;&gt;BaseType -->
<g id="edge4" class="edge">
<title>ModelEntity&#45;&gt;BaseType</title>
<path fill="none" stroke="black" stroke-width="0.5" d="M103.3,-73.96C113.24,-71.25 124.05,-68.28 134,-65.5 144.04,-62.7 154.91,-59.61 164.91,-56.76"/>
<polygon fill="black" stroke="black" stroke-width="0.5" points="165.41,-58.43 169.73,-55.37 164.44,-55.07 165.41,-58.43"/>
</g>
<!-- NamedEntityMixin -->
<g id="node6" class="node">
<title>NamedEntityMixin</title>
<g id="a_node6"><a xlink:title="A ``NamedEntityMixin`` is a mixin class for all VHDL entities that have identifiers.">
<polygon fill="white" stroke="#1e90ff" points="120.5,-56 13.5,-56 13.5,-37 120.5,-37 120.5,-56"/>
<text text-anchor="middle" x="67" y="-44" font-family="Vera Sans, DejaVu Sans, Liberation Sans, Arial, Helvetica, sans" font-size="10.00">NamedEntityMixin</text>
</a>
</g>
</g>
<!-- NamedEntityMixin&#45;&gt;BaseType -->
<g id="edge5" class="edge">
<title>NamedEntityMixin&#45;&gt;BaseType</title>
<path fill="none" stroke="black" stroke-width="0.5" d="M120.75,-46.5C135.4,-46.5 150.98,-46.5 164.44,-46.5"/>
<polygon fill="black" stroke="black" stroke-width="0.5" points="164.68,-48.25 169.68,-46.5 164.68,-44.75 164.68,-48.25"/>
</g>
<!-- DocumentedEntityMixin -->
<g id="node7" class="node">
<title>DocumentedEntityMixin</title>
<g id="a_node7"><a xlink:title="A ``DocumentedEntityMixin`` is a mixin class for all VHDL entities that can have an associated documentation.">
<polygon fill="white" stroke="#1e90ff" points="134,-19 0,-19 0,0 134,0 134,-19"/>
<text text-anchor="middle" x="67" y="-7" font-family="Vera Sans, DejaVu Sans, Liberation Sans, Arial, Helvetica, sans" font-size="10.00">DocumentedEntityMixin</text>
</a>
</g>
</g>
<!-- DocumentedEntityMixin&#45;&gt;BaseType -->
<g id="edge6" class="edge">
<title>DocumentedEntityMixin&#45;&gt;BaseType</title>
<path fill="none" stroke="black" stroke-width="0.5" d="M102.12,-19.03C121.35,-24.4 145.34,-31.1 164.82,-36.54"/>
<polygon fill="black" stroke="black" stroke-width="0.5" points="164.38,-38.23 169.66,-37.89 165.32,-34.86 164.38,-38.23"/>
</g>
</g>
</svg>
