<?xml version="1.0" encoding="UTF-8" standalone="no"?>
<!DOCTYPE svg PUBLIC "-//W3C//DTD SVG 1.1//EN"
 "http://www.w3.org/Graphics/SVG/1.1/DTD/svg11.dtd">
<!-- Generated by graphviz version 2.43.0 (0)
 -->
<!-- Title: inheritancea93cf76d15 Pages: 1 -->
<svg width="576pt" height="60pt"
 viewBox="0.00 0.00 576.00 60.14" xmlns="http://www.w3.org/2000/svg" xmlns:xlink="http://www.w3.org/1999/xlink">
<g id="graph0" class="graph" transform="scale(1.06 1.06) rotate(0) translate(4 60)">
<title>inheritancea93cf76d15</title>
<!-- DOMMixin -->
<g id="node1" class="node">
<title>DOMMixin</title>
<g id="a_node1"><a xlink:href="../pyGHDL.dom.html#pyGHDL.dom.DOMMixin" xlink:title="DOMMixin" target="_top">
<polygon fill="white" stroke="#1e90ff" points="383,-56 315,-56 315,-37 383,-37 383,-56"/>
<text text-anchor="middle" x="349" y="-44" font-family="Vera Sans, DejaVu Sans, Liberation Sans, Arial, Helvetica, sans" font-size="10.00">DOMMixin</text>
</a>
</g>
</g>
<!-- GenericPackageInterfaceItem -->
<g id="node5" class="node">
<title>GenericPackageInterfaceItem</title>
<g id="a_node5"><a xlink:href="../pyGHDL/pyGHDL.dom.InterfaceItem.html#pyGHDL.dom.InterfaceItem.GenericPackageInterfaceItem" xlink:title="GenericPackageInterfaceItem" target="_top">
<polygon fill="white" stroke="#1e90ff" points="605,-37 445,-37 445,-18 605,-18 605,-37"/>
<text text-anchor="middle" x="525" y="-25" font-family="Vera Sans, DejaVu Sans, Liberation Sans, Arial, Helvetica, sans" font-size="10.00">GenericPackageInterfaceItem</text>
</a>
</g>
</g>
<!-- DOMMixin&#45;&gt;GenericPackageInterfaceItem -->
<g id="edge3" class="edge">
<title>DOMMixin&#45;&gt;GenericPackageInterfaceItem</title>
<path fill="none" stroke="black" stroke-width="0.5" d="M383.14,-42.88C399.32,-41.11 419.6,-38.9 439.68,-36.71"/>
<polygon fill="black" stroke="black" stroke-width="0.5" points="440,-38.43 444.78,-36.15 439.62,-34.95 440,-38.43"/>
</g>
<!-- DocumentedEntityMixin -->
<g id="node2" class="node">
<title>DocumentedEntityMixin</title>
<g id="a_node2"><a xlink:title="A ``DocumentedEntityMixin`` is a mixin class for all VHDL entities that can have an associated documentation.">
<polygon fill="white" stroke="#1e90ff" points="134,-19 0,-19 0,0 134,0 134,-19"/>
<text text-anchor="middle" x="67" y="-7" font-family="Vera Sans, DejaVu Sans, Liberation Sans, Arial, Helvetica, sans" font-size="10.00">DocumentedEntityMixin</text>
</a>
</g>
</g>
<!-- InterfaceItem -->
<g id="node4" class="node">
<title>InterfaceItem</title>
<g id="a_node4"><a xlink:title="An ``InterfaceItem`` is a base&#45;class for all mixin&#45;classes for all interface items.">
<polygon fill="white" stroke="#1e90ff" points="253,-19 170,-19 170,0 253,0 253,-19"/>
<text text-anchor="middle" x="211.5" y="-7" font-family="Vera Sans, DejaVu Sans, Liberation Sans, Arial, Helvetica, sans" font-size="10.00">InterfaceItem</text>
</a>
</g>
</g>
<!-- DocumentedEntityMixin&#45;&gt;InterfaceItem -->
<g id="edge5" class="edge">
<title>DocumentedEntityMixin&#45;&gt;InterfaceItem</title>
<path fill="none" stroke="black" stroke-width="0.5" d="M134.24,-9.5C144.42,-9.5 154.74,-9.5 164.36,-9.5"/>
<polygon fill="black" stroke="black" stroke-width="0.5" points="164.62,-11.25 169.62,-9.5 164.62,-7.75 164.62,-11.25"/>
</g>
<!-- GenericInterfaceItem -->
<g id="node3" class="node">
<title>GenericInterfaceItem</title>
<g id="a_node3"><a xlink:title="A ``GenericInterfaceItem`` is a mixin class for all generic interface items.">
<polygon fill="white" stroke="#1e90ff" points="409,-19 289,-19 289,0 409,0 409,-19"/>
<text text-anchor="middle" x="349" y="-7" font-family="Vera Sans, DejaVu Sans, Liberation Sans, Arial, Helvetica, sans" font-size="10.00">GenericInterfaceItem</text>
</a>
</g>
</g>
<!-- GenericInterfaceItem&#45;&gt;GenericPackageInterfaceItem -->
<g id="edge4" class="edge">
<title>GenericInterfaceItem&#45;&gt;GenericPackageInterfaceItem</title>
<path fill="none" stroke="black" stroke-width="0.5" d="M409.39,-15.64C419.21,-16.66 429.55,-17.73 439.83,-18.79"/>
<polygon fill="black" stroke="black" stroke-width="0.5" points="439.72,-20.54 444.87,-19.31 440.08,-17.06 439.72,-20.54"/>
</g>
<!-- InterfaceItem&#45;&gt;GenericInterfaceItem -->
<g id="edge1" class="edge">
<title>InterfaceItem&#45;&gt;GenericInterfaceItem</title>
<path fill="none" stroke="black" stroke-width="0.5" d="M253.15,-9.5C262.8,-9.5 273.33,-9.5 283.74,-9.5"/>
<polygon fill="black" stroke="black" stroke-width="0.5" points="283.84,-11.25 288.84,-9.5 283.84,-7.75 283.84,-11.25"/>
</g>
<!-- GenericPackageInterfaceItem&#45;&gt;GenericPackageInterfaceItem -->
<g id="edge2" class="edge">
<title>GenericPackageInterfaceItem&#45;&gt;GenericPackageInterfaceItem</title>
<path fill="none" stroke="black" stroke-width="0.5" d="M497.87,-37.08C484.68,-45.73 493.72,-55 525,-55 552.37,-55 562.72,-47.91 556.03,-40.34"/>
<polygon fill="black" stroke="black" stroke-width="0.5" points="557.09,-38.94 552.13,-37.08 554.85,-41.63 557.09,-38.94"/>
</g>
</g>
</svg>
