<?xml version="1.0" encoding="UTF-8" standalone="no"?>
<!DOCTYPE svg PUBLIC "-//W3C//DTD SVG 1.1//EN"
 "http://www.w3.org/Graphics/SVG/1.1/DTD/svg11.dtd">
<!-- Generated by graphviz version 2.43.0 (0)
 -->
<!-- Title: inheritance85726c16db Pages: 1 -->
<svg width="576pt" height="53pt"
 viewBox="0.00 0.00 576.00 53.43" xmlns="http://www.w3.org/2000/svg" xmlns:xlink="http://www.w3.org/1999/xlink">
<g id="graph0" class="graph" transform="scale(1.2 1.2) rotate(0) translate(4 60)">
<title>inheritance85726c16db</title>
<!-- BaseExpression -->
<g id="node1" class="node">
<title>BaseExpression</title>
<g id="a_node1"><a xlink:title="A ``BaseExpression`` is a base&#45;class for all expressions.">
<polygon fill="white" stroke="#1e90ff" points="205,-19 111,-19 111,0 205,0 205,-19"/>
<text text-anchor="middle" x="158" y="-7" font-family="Vera Sans, DejaVu Sans, Liberation Sans, Arial, Helvetica, sans" font-size="10.00">BaseExpression</text>
</a>
</g>
</g>
<!-- BinaryExpression -->
<g id="node3" class="node">
<title>BinaryExpression</title>
<g id="a_node3"><a xlink:title="A ``BinaryExpression`` is a base&#45;class for all binary expressions.">
<polygon fill="white" stroke="#1e90ff" points="342,-19 241,-19 241,0 342,0 342,-19"/>
<text text-anchor="middle" x="291.5" y="-7" font-family="Vera Sans, DejaVu Sans, Liberation Sans, Arial, Helvetica, sans" font-size="10.00">BinaryExpression</text>
</a>
</g>
</g>
<!-- BaseExpression&#45;&gt;BinaryExpression -->
<g id="edge2" class="edge">
<title>BaseExpression&#45;&gt;BinaryExpression</title>
<path fill="none" stroke="black" stroke-width="0.5" d="M205.36,-9.5C215.19,-9.5 225.64,-9.5 235.74,-9.5"/>
<polygon fill="black" stroke="black" stroke-width="0.5" points="235.99,-11.25 240.99,-9.5 235.99,-7.75 235.99,-11.25"/>
</g>
<!-- ModelEntity -->
<g id="node2" class="node">
<title>ModelEntity</title>
<g id="a_node2"><a xlink:title="``ModelEntity`` is the base&#45;class for all classes in the VHDL language model, except for mixin classes (see multiple">
<polygon fill="white" stroke="#1e90ff" points="75,-19 0,-19 0,0 75,0 75,-19"/>
<text text-anchor="middle" x="37.5" y="-7" font-family="Vera Sans, DejaVu Sans, Liberation Sans, Arial, Helvetica, sans" font-size="10.00">ModelEntity</text>
</a>
</g>
</g>
<!-- ModelEntity&#45;&gt;BaseExpression -->
<g id="edge1" class="edge">
<title>ModelEntity&#45;&gt;BaseExpression</title>
<path fill="none" stroke="black" stroke-width="0.5" d="M75.02,-9.5C84.72,-9.5 95.38,-9.5 105.71,-9.5"/>
<polygon fill="black" stroke="black" stroke-width="0.5" points="105.75,-11.25 110.75,-9.5 105.75,-7.75 105.75,-11.25"/>
</g>
<!-- MultiplyingExpression -->
<g id="node6" class="node">
<title>MultiplyingExpression</title>
<g id="a_node6"><a xlink:title="A ``MultiplyingExpression`` is a base&#45;class for all multiplying expressions.">
<polygon fill="white" stroke="#1e90ff" points="503,-19 378,-19 378,0 503,0 503,-19"/>
<text text-anchor="middle" x="440.5" y="-7" font-family="Vera Sans, DejaVu Sans, Liberation Sans, Arial, Helvetica, sans" font-size="10.00">MultiplyingExpression</text>
</a>
</g>
</g>
<!-- BinaryExpression&#45;&gt;MultiplyingExpression -->
<g id="edge6" class="edge">
<title>BinaryExpression&#45;&gt;MultiplyingExpression</title>
<path fill="none" stroke="black" stroke-width="0.5" d="M342.27,-9.5C352.07,-9.5 362.51,-9.5 372.77,-9.5"/>
<polygon fill="black" stroke="black" stroke-width="0.5" points="372.79,-11.25 377.79,-9.5 372.79,-7.75 372.79,-11.25"/>
</g>
<!-- DOMMixin -->
<g id="node4" class="node">
<title>DOMMixin</title>
<g id="a_node4"><a xlink:href="../pyGHDL.dom.html#pyGHDL.dom.DOMMixin" xlink:title="DOMMixin" target="_top">
<polygon fill="white" stroke="#1e90ff" points="474.5,-56 406.5,-56 406.5,-37 474.5,-37 474.5,-56"/>
<text text-anchor="middle" x="440.5" y="-44" font-family="Vera Sans, DejaVu Sans, Liberation Sans, Arial, Helvetica, sans" font-size="10.00">DOMMixin</text>
</a>
</g>
</g>
<!-- ExponentiationExpression -->
<g id="node5" class="node">
<title>ExponentiationExpression</title>
<g id="a_node5"><a xlink:href="../pyGHDL/pyGHDL.dom.Expression.html#pyGHDL.dom.Expression.ExponentiationExpression" xlink:title="ExponentiationExpression" target="_top">
<polygon fill="white" stroke="#1e90ff" points="682,-37 539,-37 539,-18 682,-18 682,-37"/>
<text text-anchor="middle" x="610.5" y="-25" font-family="Vera Sans, DejaVu Sans, Liberation Sans, Arial, Helvetica, sans" font-size="10.00">ExponentiationExpression</text>
</a>
</g>
</g>
<!-- DOMMixin&#45;&gt;ExponentiationExpression -->
<g id="edge4" class="edge">
<title>DOMMixin&#45;&gt;ExponentiationExpression</title>
<path fill="none" stroke="black" stroke-width="0.5" d="M474.69,-42.75C491.69,-40.82 513.13,-38.4 533.89,-36.05"/>
<polygon fill="black" stroke="black" stroke-width="0.5" points="534.09,-37.79 538.86,-35.49 533.7,-34.31 534.09,-37.79"/>
</g>
<!-- ExponentiationExpression&#45;&gt;ExponentiationExpression -->
<g id="edge3" class="edge">
<title>ExponentiationExpression&#45;&gt;ExponentiationExpression</title>
<path fill="none" stroke="black" stroke-width="0.5" d="M584.3,-37.08C571.55,-45.73 580.29,-55 610.5,-55 636.47,-55 646.57,-48.16 640.81,-40.74"/>
<polygon fill="black" stroke="black" stroke-width="0.5" points="641.6,-39.1 636.7,-37.08 639.27,-41.72 641.6,-39.1"/>
</g>
<!-- MultiplyingExpression&#45;&gt;ExponentiationExpression -->
<g id="edge5" class="edge">
<title>MultiplyingExpression&#45;&gt;ExponentiationExpression</title>
<path fill="none" stroke="black" stroke-width="0.5" d="M503.1,-16.1C513.08,-17.17 523.52,-18.29 533.78,-19.39"/>
<polygon fill="black" stroke="black" stroke-width="0.5" points="533.65,-21.13 538.81,-19.93 534.02,-17.65 533.65,-21.13"/>
</g>
</g>
</svg>
