<?xml version="1.0" encoding="UTF-8" standalone="no"?>
<!DOCTYPE svg PUBLIC "-//W3C//DTD SVG 1.1//EN"
 "http://www.w3.org/Graphics/SVG/1.1/DTD/svg11.dtd">
<!-- Generated by graphviz version 2.43.0 (0)
 -->
<!-- Title: inheritanceae258c7d90 Pages: 1 -->
<svg width="300pt" height="101pt"
 viewBox="0.00 0.00 300.00 101.00" xmlns="http://www.w3.org/2000/svg" xmlns:xlink="http://www.w3.org/1999/xlink">
<g id="graph0" class="graph" transform="scale(1 1) rotate(0) translate(4 97)">
<title>inheritanceae258c7d90</title>
<!-- AttributeSpecification -->
<g id="node1" class="node">
<title>AttributeSpecification</title>
<g id="a_node1"><a xlink:href="../pyGHDL/pyGHDL.dom.Attribute.html#pyGHDL.dom.Attribute.AttributeSpecification" xlink:title="AttributeSpecification" target="_top">
<polygon fill="white" stroke="#1e90ff" points="292,-56 170,-56 170,-37 292,-37 292,-56"/>
<text text-anchor="middle" x="231" y="-44" font-family="Vera Sans, DejaVu Sans, Liberation Sans, Arial, Helvetica, sans" font-size="10.00">AttributeSpecification</text>
</a>
</g>
</g>
<!-- AttributeSpecification&#45;&gt;AttributeSpecification -->
<g id="edge1" class="edge">
<title>AttributeSpecification&#45;&gt;AttributeSpecification</title>
<path fill="none" stroke="black" stroke-width="0.5" d="M205.72,-56.08C193.43,-64.73 201.85,-74 231,-74 256.05,-74 265.79,-67.16 260.24,-59.74"/>
<polygon fill="black" stroke="black" stroke-width="0.5" points="261.14,-58.19 256.28,-56.08 258.76,-60.76 261.14,-58.19"/>
</g>
<!-- DOMMixin -->
<g id="node2" class="node">
<title>DOMMixin</title>
<g id="a_node2"><a xlink:href="../pyGHDL.dom.html#pyGHDL.dom.DOMMixin" xlink:title="DOMMixin" target="_top">
<polygon fill="white" stroke="#1e90ff" points="101,-93 33,-93 33,-74 101,-74 101,-93"/>
<text text-anchor="middle" x="67" y="-81" font-family="Vera Sans, DejaVu Sans, Liberation Sans, Arial, Helvetica, sans" font-size="10.00">DOMMixin</text>
</a>
</g>
</g>
<!-- DOMMixin&#45;&gt;AttributeSpecification -->
<g id="edge2" class="edge">
<title>DOMMixin&#45;&gt;AttributeSpecification</title>
<path fill="none" stroke="black" stroke-width="0.5" d="M101.17,-75.92C124.78,-70.53 156.83,-63.21 183.05,-57.22"/>
<polygon fill="black" stroke="black" stroke-width="0.5" points="183.73,-58.86 188.22,-56.04 182.95,-55.45 183.73,-58.86"/>
</g>
<!-- ModelEntity -->
<g id="node3" class="node">
<title>ModelEntity</title>
<g id="a_node3"><a xlink:title="``ModelEntity`` is the base&#45;class for all classes in the VHDL language model, except for mixin classes (see multiple">
<polygon fill="white" stroke="#1e90ff" points="104.5,-56 29.5,-56 29.5,-37 104.5,-37 104.5,-56"/>
<text text-anchor="middle" x="67" y="-44" font-family="Vera Sans, DejaVu Sans, Liberation Sans, Arial, Helvetica, sans" font-size="10.00">ModelEntity</text>
</a>
</g>
</g>
<!-- ModelEntity&#45;&gt;AttributeSpecification -->
<g id="edge3" class="edge">
<title>ModelEntity&#45;&gt;AttributeSpecification</title>
<path fill="none" stroke="black" stroke-width="0.5" d="M104.76,-46.5C122.49,-46.5 144.3,-46.5 164.72,-46.5"/>
<polygon fill="black" stroke="black" stroke-width="0.5" points="164.88,-48.25 169.88,-46.5 164.87,-44.75 164.88,-48.25"/>
</g>
<!-- DocumentedEntityMixin -->
<g id="node4" class="node">
<title>DocumentedEntityMixin</title>
<g id="a_node4"><a xlink:title="A ``DocumentedEntityMixin`` is a mixin class for all VHDL entities that can have an associated documentation.">
<polygon fill="white" stroke="#1e90ff" points="134,-19 0,-19 0,0 134,0 134,-19"/>
<text text-anchor="middle" x="67" y="-7" font-family="Vera Sans, DejaVu Sans, Liberation Sans, Arial, Helvetica, sans" font-size="10.00">DocumentedEntityMixin</text>
</a>
</g>
</g>
<!-- DocumentedEntityMixin&#45;&gt;AttributeSpecification -->
<g id="edge4" class="edge">
<title>DocumentedEntityMixin&#45;&gt;AttributeSpecification</title>
<path fill="none" stroke="black" stroke-width="0.5" d="M109.72,-19.03C132.21,-24.17 160.04,-30.52 183.26,-35.82"/>
<polygon fill="black" stroke="black" stroke-width="0.5" points="182.88,-37.53 188.14,-36.94 183.66,-34.12 182.88,-37.53"/>
</g>
</g>
</svg>
