<?xml version="1.0" encoding="UTF-8" standalone="no"?>
<!DOCTYPE svg PUBLIC "-//W3C//DTD SVG 1.1//EN"
 "http://www.w3.org/Graphics/SVG/1.1/DTD/svg11.dtd">
<!-- Generated by graphviz version 2.43.0 (0)
 -->
<!-- Title: inheritancee320da2d7f Pages: 1 -->
<svg width="576pt" height="95pt"
 viewBox="0.00 0.00 576.00 94.75" xmlns="http://www.w3.org/2000/svg" xmlns:xlink="http://www.w3.org/1999/xlink">
<g id="graph0" class="graph" transform="scale(1.07 1.07) rotate(0) translate(4 97)">
<title>inheritancee320da2d7f</title>
<!-- DOMMixin -->
<g id="node1" class="node">
<title>DOMMixin</title>
<g id="a_node1"><a xlink:href="../pyGHDL.dom.html#pyGHDL.dom.DOMMixin" xlink:title="DOMMixin" target="_top">
<polygon fill="white" stroke="#1e90ff" points="383,-93 315,-93 315,-74 383,-74 383,-93"/>
<text text-anchor="middle" x="349" y="-81" font-family="Vera Sans, DejaVu Sans, Liberation Sans, Arial, Helvetica, sans" font-size="10.00">DOMMixin</text>
</a>
</g>
</g>
<!-- GenericFunctionInterfaceItem -->
<g id="node5" class="node">
<title>GenericFunctionInterfaceItem</title>
<g id="a_node5"><a xlink:href="../pyGHDL/pyGHDL.dom.InterfaceItem.html#pyGHDL.dom.InterfaceItem.GenericFunctionInterfaceItem" xlink:title="GenericFunctionInterfaceItem" target="_top">
<polygon fill="white" stroke="#1e90ff" points="606,-56 445,-56 445,-37 606,-37 606,-56"/>
<text text-anchor="middle" x="525.5" y="-44" font-family="Vera Sans, DejaVu Sans, Liberation Sans, Arial, Helvetica, sans" font-size="10.00">GenericFunctionInterfaceItem</text>
</a>
</g>
</g>
<!-- DOMMixin&#45;&gt;GenericFunctionInterfaceItem -->
<g id="edge3" class="edge">
<title>DOMMixin&#45;&gt;GenericFunctionInterfaceItem</title>
<path fill="none" stroke="black" stroke-width="0.5" d="M383.23,-76.45C409.03,-70.98 445.22,-63.31 474.51,-57.1"/>
<polygon fill="black" stroke="black" stroke-width="0.5" points="474.99,-58.79 479.52,-56.04 474.27,-55.36 474.99,-58.79"/>
</g>
<!-- DocumentedEntityMixin -->
<g id="node2" class="node">
<title>DocumentedEntityMixin</title>
<g id="a_node2"><a xlink:title="A ``DocumentedEntityMixin`` is a mixin class for all VHDL entities that can have an associated documentation.">
<polygon fill="white" stroke="#1e90ff" points="134,-19 0,-19 0,0 134,0 134,-19"/>
<text text-anchor="middle" x="67" y="-7" font-family="Vera Sans, DejaVu Sans, Liberation Sans, Arial, Helvetica, sans" font-size="10.00">DocumentedEntityMixin</text>
</a>
</g>
</g>
<!-- Subprogram -->
<g id="node4" class="node">
<title>Subprogram</title>
<polygon fill="white" stroke="#1e90ff" points="249.5,-56 173.5,-56 173.5,-37 249.5,-37 249.5,-56"/>
<text text-anchor="middle" x="211.5" y="-44" font-family="Vera Sans, DejaVu Sans, Liberation Sans, Arial, Helvetica, sans" font-size="10.00">Subprogram</text>
</g>
<!-- DocumentedEntityMixin&#45;&gt;Subprogram -->
<g id="edge10" class="edge">
<title>DocumentedEntityMixin&#45;&gt;Subprogram</title>
<path fill="none" stroke="black" stroke-width="0.5" d="M104.7,-19.03C124.16,-24.08 148.16,-30.31 168.38,-35.56"/>
<polygon fill="black" stroke="black" stroke-width="0.5" points="168.15,-37.31 173.43,-36.88 169.03,-33.92 168.15,-37.31"/>
</g>
<!-- InterfaceItem -->
<g id="node7" class="node">
<title>InterfaceItem</title>
<g id="a_node7"><a xlink:title="An ``InterfaceItem`` is a base&#45;class for all mixin&#45;classes for all interface items.">
<polygon fill="white" stroke="#1e90ff" points="253,-19 170,-19 170,0 253,0 253,-19"/>
<text text-anchor="middle" x="211.5" y="-7" font-family="Vera Sans, DejaVu Sans, Liberation Sans, Arial, Helvetica, sans" font-size="10.00">InterfaceItem</text>
</a>
</g>
</g>
<!-- DocumentedEntityMixin&#45;&gt;InterfaceItem -->
<g id="edge7" class="edge">
<title>DocumentedEntityMixin&#45;&gt;InterfaceItem</title>
<path fill="none" stroke="black" stroke-width="0.5" d="M134.24,-9.5C144.42,-9.5 154.74,-9.5 164.36,-9.5"/>
<polygon fill="black" stroke="black" stroke-width="0.5" points="164.62,-11.25 169.62,-9.5 164.62,-7.75 164.62,-11.25"/>
</g>
<!-- Function -->
<g id="node3" class="node">
<title>Function</title>
<polygon fill="white" stroke="#1e90ff" points="378,-56 320,-56 320,-37 378,-37 378,-56"/>
<text text-anchor="middle" x="349" y="-44" font-family="Vera Sans, DejaVu Sans, Liberation Sans, Arial, Helvetica, sans" font-size="10.00">Function</text>
</g>
<!-- Function&#45;&gt;GenericFunctionInterfaceItem -->
<g id="edge4" class="edge">
<title>Function&#45;&gt;GenericFunctionInterfaceItem</title>
<path fill="none" stroke="black" stroke-width="0.5" d="M378.04,-46.5C394.96,-46.5 417.52,-46.5 439.86,-46.5"/>
<polygon fill="black" stroke="black" stroke-width="0.5" points="439.92,-48.25 444.92,-46.5 439.92,-44.75 439.92,-48.25"/>
</g>
<!-- Subprogram&#45;&gt;Function -->
<g id="edge1" class="edge">
<title>Subprogram&#45;&gt;Function</title>
<path fill="none" stroke="black" stroke-width="0.5" d="M249.53,-46.5C269.81,-46.5 294.76,-46.5 314.46,-46.5"/>
<polygon fill="black" stroke="black" stroke-width="0.5" points="314.62,-48.25 319.62,-46.5 314.62,-44.75 314.62,-48.25"/>
</g>
<!-- GenericFunctionInterfaceItem&#45;&gt;GenericFunctionInterfaceItem -->
<g id="edge2" class="edge">
<title>GenericFunctionInterfaceItem&#45;&gt;GenericFunctionInterfaceItem</title>
<path fill="none" stroke="black" stroke-width="0.5" d="M498.37,-56.08C485.18,-64.73 494.22,-74 525.5,-74 552.87,-74 563.22,-66.91 556.53,-59.34"/>
<polygon fill="black" stroke="black" stroke-width="0.5" points="557.59,-57.94 552.63,-56.08 555.35,-60.63 557.59,-57.94"/>
</g>
<!-- GenericInterfaceItem -->
<g id="node6" class="node">
<title>GenericInterfaceItem</title>
<g id="a_node6"><a xlink:title="A ``GenericInterfaceItem`` is a mixin class for all generic interface items.">
<polygon fill="white" stroke="#1e90ff" points="409,-19 289,-19 289,0 409,0 409,-19"/>
<text text-anchor="middle" x="349" y="-7" font-family="Vera Sans, DejaVu Sans, Liberation Sans, Arial, Helvetica, sans" font-size="10.00">GenericInterfaceItem</text>
</a>
</g>
</g>
<!-- GenericInterfaceItem&#45;&gt;GenericFunctionInterfaceItem -->
<g id="edge5" class="edge">
<title>GenericInterfaceItem&#45;&gt;GenericFunctionInterfaceItem</title>
<path fill="none" stroke="black" stroke-width="0.5" d="M394.94,-19.03C419.27,-24.19 449.39,-30.57 474.47,-35.89"/>
<polygon fill="black" stroke="black" stroke-width="0.5" points="474.16,-37.61 479.41,-36.94 474.88,-34.19 474.16,-37.61"/>
</g>
<!-- InterfaceItem&#45;&gt;GenericInterfaceItem -->
<g id="edge6" class="edge">
<title>InterfaceItem&#45;&gt;GenericInterfaceItem</title>
<path fill="none" stroke="black" stroke-width="0.5" d="M253.15,-9.5C262.8,-9.5 273.33,-9.5 283.74,-9.5"/>
<polygon fill="black" stroke="black" stroke-width="0.5" points="283.84,-11.25 288.84,-9.5 283.84,-7.75 283.84,-11.25"/>
</g>
<!-- ModelEntity -->
<g id="node8" class="node">
<title>ModelEntity</title>
<g id="a_node8"><a xlink:title="``ModelEntity`` is the base&#45;class for all classes in the VHDL language model, except for mixin classes (see multiple">
<polygon fill="white" stroke="#1e90ff" points="104.5,-93 29.5,-93 29.5,-74 104.5,-74 104.5,-93"/>
<text text-anchor="middle" x="67" y="-81" font-family="Vera Sans, DejaVu Sans, Liberation Sans, Arial, Helvetica, sans" font-size="10.00">ModelEntity</text>
</a>
</g>
</g>
<!-- ModelEntity&#45;&gt;Subprogram -->
<g id="edge8" class="edge">
<title>ModelEntity&#45;&gt;Subprogram</title>
<path fill="none" stroke="black" stroke-width="0.5" d="M104.7,-73.97C124.16,-68.92 148.16,-62.69 168.38,-57.44"/>
<polygon fill="black" stroke="black" stroke-width="0.5" points="169.03,-59.08 173.43,-56.12 168.15,-55.69 169.03,-59.08"/>
</g>
<!-- NamedEntityMixin -->
<g id="node9" class="node">
<title>NamedEntityMixin</title>
<g id="a_node9"><a xlink:title="A ``NamedEntityMixin`` is a mixin class for all VHDL entities that have identifiers.">
<polygon fill="white" stroke="#1e90ff" points="120.5,-56 13.5,-56 13.5,-37 120.5,-37 120.5,-56"/>
<text text-anchor="middle" x="67" y="-44" font-family="Vera Sans, DejaVu Sans, Liberation Sans, Arial, Helvetica, sans" font-size="10.00">NamedEntityMixin</text>
</a>
</g>
</g>
<!-- NamedEntityMixin&#45;&gt;Subprogram -->
<g id="edge9" class="edge">
<title>NamedEntityMixin&#45;&gt;Subprogram</title>
<path fill="none" stroke="black" stroke-width="0.5" d="M120.66,-46.5C136.19,-46.5 152.99,-46.5 167.82,-46.5"/>
<polygon fill="black" stroke="black" stroke-width="0.5" points="168.18,-48.25 173.18,-46.5 168.18,-44.75 168.18,-48.25"/>
</g>
</g>
</svg>
