<?xml version="1.0" encoding="UTF-8" standalone="no"?>
<!DOCTYPE svg PUBLIC "-//W3C//DTD SVG 1.1//EN"
 "http://www.w3.org/Graphics/SVG/1.1/DTD/svg11.dtd">
<!-- Generated by graphviz version 2.43.0 (0)
 -->
<!-- Title: inheritancecf5b896648 Pages: 1 -->
<svg width="576pt" height="71pt"
 viewBox="0.00 0.00 576.00 71.24" xmlns="http://www.w3.org/2000/svg" xmlns:xlink="http://www.w3.org/1999/xlink">
<g id="graph0" class="graph" transform="scale(1.15 1.15) rotate(0) translate(4 78)">
<title>inheritancecf5b896648</title>
<!-- ComponentInstantiation -->
<g id="node1" class="node">
<title>ComponentInstantiation</title>
<g id="a_node1"><a xlink:href="../pyGHDL/pyGHDL.dom.Concurrent.html#pyGHDL.dom.Concurrent.ComponentInstantiation" xlink:title="ComponentInstantiation" target="_top">
<polygon fill="white" stroke="#1e90ff" points="655,-55 521,-55 521,-36 655,-36 655,-55"/>
<text text-anchor="middle" x="588" y="-43" font-family="Vera Sans, DejaVu Sans, Liberation Sans, Arial, Helvetica, sans" font-size="10.00">ComponentInstantiation</text>
</a>
</g>
</g>
<!-- ComponentInstantiation&#45;&gt;ComponentInstantiation -->
<g id="edge1" class="edge">
<title>ComponentInstantiation&#45;&gt;ComponentInstantiation</title>
<path fill="none" stroke="black" stroke-width="0.5" d="M566.11,-55.08C555.47,-63.73 562.76,-73 588,-73 609.69,-73 618.13,-66.16 613.31,-58.74"/>
<polygon fill="black" stroke="black" stroke-width="0.5" points="614.58,-57.54 609.89,-55.08 612.03,-59.93 614.58,-57.54"/>
</g>
<!-- DOMMixin -->
<g id="node2" class="node">
<title>DOMMixin</title>
<g id="a_node2"><a xlink:href="../pyGHDL.dom.html#pyGHDL.dom.DOMMixin" xlink:title="DOMMixin" target="_top">
<polygon fill="white" stroke="#1e90ff" points="480,-74 412,-74 412,-55 480,-55 480,-74"/>
<text text-anchor="middle" x="446" y="-62" font-family="Vera Sans, DejaVu Sans, Liberation Sans, Arial, Helvetica, sans" font-size="10.00">DOMMixin</text>
</a>
</g>
</g>
<!-- DOMMixin&#45;&gt;ComponentInstantiation -->
<g id="edge2" class="edge">
<title>DOMMixin&#45;&gt;ComponentInstantiation</title>
<path fill="none" stroke="black" stroke-width="0.5" d="M480.18,-60C490.96,-58.53 503.36,-56.85 515.82,-55.16"/>
<polygon fill="black" stroke="black" stroke-width="0.5" points="516.06,-56.89 520.78,-54.49 515.59,-53.43 516.06,-56.89"/>
</g>
<!-- Instantiation -->
<g id="node3" class="node">
<title>Instantiation</title>
<polygon fill="white" stroke="#1e90ff" points="485,-37 407,-37 407,-18 485,-18 485,-37"/>
<text text-anchor="middle" x="446" y="-25" font-family="Vera Sans, DejaVu Sans, Liberation Sans, Arial, Helvetica, sans" font-size="10.00">Instantiation</text>
</g>
<!-- Instantiation&#45;&gt;ComponentInstantiation -->
<g id="edge3" class="edge">
<title>Instantiation&#45;&gt;ComponentInstantiation</title>
<path fill="none" stroke="black" stroke-width="0.5" d="M485.26,-32.42C494.72,-33.64 505.16,-34.98 515.65,-36.33"/>
<polygon fill="black" stroke="black" stroke-width="0.5" points="515.61,-38.09 520.79,-36.99 516.06,-34.61 515.61,-38.09"/>
</g>
<!-- ConcurrentStatement -->
<g id="node4" class="node">
<title>ConcurrentStatement</title>
<g id="a_node4"><a xlink:title="A ``ConcurrentStatement`` is a base&#45;class for all concurrent statements.">
<polygon fill="white" stroke="#1e90ff" points="371,-37 250,-37 250,-18 371,-18 371,-37"/>
<text text-anchor="middle" x="310.5" y="-25" font-family="Vera Sans, DejaVu Sans, Liberation Sans, Arial, Helvetica, sans" font-size="10.00">ConcurrentStatement</text>
</a>
</g>
</g>
<!-- ConcurrentStatement&#45;&gt;Instantiation -->
<g id="edge5" class="edge">
<title>ConcurrentStatement&#45;&gt;Instantiation</title>
<path fill="none" stroke="black" stroke-width="0.5" d="M371.22,-27.5C381.51,-27.5 392.02,-27.5 401.77,-27.5"/>
<polygon fill="black" stroke="black" stroke-width="0.5" points="401.79,-29.25 406.79,-27.5 401.79,-25.75 401.79,-29.25"/>
</g>
<!-- Statement -->
<g id="node5" class="node">
<title>Statement</title>
<g id="a_node5"><a xlink:title="A ``Statement`` is a base&#45;class for all statements.">
<polygon fill="white" stroke="#1e90ff" points="214,-37 146,-37 146,-18 214,-18 214,-37"/>
<text text-anchor="middle" x="180" y="-25" font-family="Vera Sans, DejaVu Sans, Liberation Sans, Arial, Helvetica, sans" font-size="10.00">Statement</text>
</a>
</g>
</g>
<!-- Statement&#45;&gt;ConcurrentStatement -->
<g id="edge4" class="edge">
<title>Statement&#45;&gt;ConcurrentStatement</title>
<path fill="none" stroke="black" stroke-width="0.5" d="M214.09,-27.5C223.49,-27.5 234.05,-27.5 244.64,-27.5"/>
<polygon fill="black" stroke="black" stroke-width="0.5" points="244.84,-29.25 249.84,-27.5 244.84,-25.75 244.84,-29.25"/>
</g>
<!-- LabeledEntityMixin -->
<g id="node6" class="node">
<title>LabeledEntityMixin</title>
<g id="a_node6"><a xlink:title="A ``LabeledEntityMixin`` is a mixin class for all VHDL entities that can have labels.">
<polygon fill="white" stroke="#1e90ff" points="110,-56 0,-56 0,-37 110,-37 110,-56"/>
<text text-anchor="middle" x="55" y="-44" font-family="Vera Sans, DejaVu Sans, Liberation Sans, Arial, Helvetica, sans" font-size="10.00">LabeledEntityMixin</text>
</a>
</g>
</g>
<!-- LabeledEntityMixin&#45;&gt;Statement -->
<g id="edge7" class="edge">
<title>LabeledEntityMixin&#45;&gt;Statement</title>
<path fill="none" stroke="black" stroke-width="0.5" d="M110.31,-38.11C120.61,-36.52 131.19,-34.89 140.86,-33.39"/>
<polygon fill="black" stroke="black" stroke-width="0.5" points="141.15,-35.12 145.83,-32.62 140.62,-31.66 141.15,-35.12"/>
</g>
<!-- ModelEntity -->
<g id="node7" class="node">
<title>ModelEntity</title>
<g id="a_node7"><a xlink:title="``ModelEntity`` is the base&#45;class for all classes in the VHDL language model, except for mixin classes (see multiple">
<polygon fill="white" stroke="#1e90ff" points="92.5,-19 17.5,-19 17.5,0 92.5,0 92.5,-19"/>
<text text-anchor="middle" x="55" y="-7" font-family="Vera Sans, DejaVu Sans, Liberation Sans, Arial, Helvetica, sans" font-size="10.00">ModelEntity</text>
</a>
</g>
</g>
<!-- ModelEntity&#45;&gt;Statement -->
<g id="edge6" class="edge">
<title>ModelEntity&#45;&gt;Statement</title>
<path fill="none" stroke="black" stroke-width="0.5" d="M92.57,-14.85C107.71,-17.07 125.28,-19.64 140.61,-21.88"/>
<polygon fill="black" stroke="black" stroke-width="0.5" points="140.51,-23.64 145.72,-22.63 141.02,-20.17 140.51,-23.64"/>
</g>
</g>
</svg>
