<?xml version="1.0" encoding="UTF-8" standalone="no"?>
<!DOCTYPE svg PUBLIC "-//W3C//DTD SVG 1.1//EN"
 "http://www.w3.org/Graphics/SVG/1.1/DTD/svg11.dtd">
<!-- Generated by graphviz version 2.43.0 (0)
 -->
<!-- Title: inheritance75ceb8d9b1 Pages: 1 -->
<svg width="576pt" height="56pt"
 viewBox="0.00 0.00 576.00 56.45" xmlns="http://www.w3.org/2000/svg" xmlns:xlink="http://www.w3.org/1999/xlink">
<g id="graph0" class="graph" transform="scale(1.13 1.13) rotate(0) translate(4 60)">
<title>inheritance75ceb8d9b1</title>
<!-- BaseExpression -->
<g id="node1" class="node">
<title>BaseExpression</title>
<g id="a_node1"><a xlink:title="A ``BaseExpression`` is a base&#45;class for all expressions.">
<polygon fill="white" stroke="#1e90ff" points="205,-19 111,-19 111,0 205,0 205,-19"/>
<text text-anchor="middle" x="158" y="-7" font-family="Vera Sans, DejaVu Sans, Liberation Sans, Arial, Helvetica, sans" font-size="10.00">BaseExpression</text>
</a>
</g>
</g>
<!-- BinaryExpression -->
<g id="node3" class="node">
<title>BinaryExpression</title>
<g id="a_node3"><a xlink:title="A ``BinaryExpression`` is a base&#45;class for all binary expressions.">
<polygon fill="white" stroke="#1e90ff" points="342,-19 241,-19 241,0 342,0 342,-19"/>
<text text-anchor="middle" x="291.5" y="-7" font-family="Vera Sans, DejaVu Sans, Liberation Sans, Arial, Helvetica, sans" font-size="10.00">BinaryExpression</text>
</a>
</g>
</g>
<!-- BaseExpression&#45;&gt;BinaryExpression -->
<g id="edge2" class="edge">
<title>BaseExpression&#45;&gt;BinaryExpression</title>
<path fill="none" stroke="black" stroke-width="0.5" d="M205.36,-9.5C215.19,-9.5 225.64,-9.5 235.74,-9.5"/>
<polygon fill="black" stroke="black" stroke-width="0.5" points="235.99,-11.25 240.99,-9.5 235.99,-7.75 235.99,-11.25"/>
</g>
<!-- ModelEntity -->
<g id="node2" class="node">
<title>ModelEntity</title>
<g id="a_node2"><a xlink:title="``ModelEntity`` is the base&#45;class for all classes in the VHDL language model, except for mixin classes (see multiple">
<polygon fill="white" stroke="#1e90ff" points="75,-19 0,-19 0,0 75,0 75,-19"/>
<text text-anchor="middle" x="37.5" y="-7" font-family="Vera Sans, DejaVu Sans, Liberation Sans, Arial, Helvetica, sans" font-size="10.00">ModelEntity</text>
</a>
</g>
</g>
<!-- ModelEntity&#45;&gt;BaseExpression -->
<g id="edge1" class="edge">
<title>ModelEntity&#45;&gt;BaseExpression</title>
<path fill="none" stroke="black" stroke-width="0.5" d="M75.02,-9.5C84.72,-9.5 95.38,-9.5 105.71,-9.5"/>
<polygon fill="black" stroke="black" stroke-width="0.5" points="105.75,-11.25 110.75,-9.5 105.75,-7.75 105.75,-11.25"/>
</g>
<!-- MultiplyingExpression -->
<g id="node6" class="node">
<title>MultiplyingExpression</title>
<g id="a_node6"><a xlink:title="A ``MultiplyingExpression`` is a base&#45;class for all multiplying expressions.">
<polygon fill="white" stroke="#1e90ff" points="503,-19 378,-19 378,0 503,0 503,-19"/>
<text text-anchor="middle" x="440.5" y="-7" font-family="Vera Sans, DejaVu Sans, Liberation Sans, Arial, Helvetica, sans" font-size="10.00">MultiplyingExpression</text>
</a>
</g>
</g>
<!-- BinaryExpression&#45;&gt;MultiplyingExpression -->
<g id="edge6" class="edge">
<title>BinaryExpression&#45;&gt;MultiplyingExpression</title>
<path fill="none" stroke="black" stroke-width="0.5" d="M342.27,-9.5C352.07,-9.5 362.51,-9.5 372.77,-9.5"/>
<polygon fill="black" stroke="black" stroke-width="0.5" points="372.79,-11.25 377.79,-9.5 372.79,-7.75 372.79,-11.25"/>
</g>
<!-- DOMMixin -->
<g id="node4" class="node">
<title>DOMMixin</title>
<g id="a_node4"><a xlink:href="../pyGHDL.dom.html#pyGHDL.dom.DOMMixin" xlink:title="DOMMixin" target="_top">
<polygon fill="white" stroke="#1e90ff" points="474.5,-56 406.5,-56 406.5,-37 474.5,-37 474.5,-56"/>
<text text-anchor="middle" x="440.5" y="-44" font-family="Vera Sans, DejaVu Sans, Liberation Sans, Arial, Helvetica, sans" font-size="10.00">DOMMixin</text>
</a>
</g>
</g>
<!-- ModuloExpression -->
<g id="node5" class="node">
<title>ModuloExpression</title>
<g id="a_node5"><a xlink:href="../pyGHDL/pyGHDL.dom.Expression.html#pyGHDL.dom.Expression.ModuloExpression" xlink:title="ModuloExpression" target="_top">
<polygon fill="white" stroke="#1e90ff" points="645,-37 539,-37 539,-18 645,-18 645,-37"/>
<text text-anchor="middle" x="592" y="-25" font-family="Vera Sans, DejaVu Sans, Liberation Sans, Arial, Helvetica, sans" font-size="10.00">ModuloExpression</text>
</a>
</g>
</g>
<!-- DOMMixin&#45;&gt;ModuloExpression -->
<g id="edge4" class="edge">
<title>DOMMixin&#45;&gt;ModuloExpression</title>
<path fill="none" stroke="black" stroke-width="0.5" d="M474.68,-42.28C492.05,-40.08 513.8,-37.31 533.79,-34.77"/>
<polygon fill="black" stroke="black" stroke-width="0.5" points="534.09,-36.5 538.83,-34.13 533.65,-33.03 534.09,-36.5"/>
</g>
<!-- ModuloExpression&#45;&gt;ModuloExpression -->
<g id="edge3" class="edge">
<title>ModuloExpression&#45;&gt;ModuloExpression</title>
<path fill="none" stroke="black" stroke-width="0.5" d="M568.88,-37.08C557.63,-45.73 565.34,-55 592,-55 614.91,-55 623.82,-48.16 618.74,-40.74"/>
<polygon fill="black" stroke="black" stroke-width="0.5" points="619.88,-39.41 615.12,-37.08 617.39,-41.87 619.88,-39.41"/>
</g>
<!-- MultiplyingExpression&#45;&gt;ModuloExpression -->
<g id="edge5" class="edge">
<title>MultiplyingExpression&#45;&gt;ModuloExpression</title>
<path fill="none" stroke="black" stroke-width="0.5" d="M503.17,-16.93C513.31,-18.15 523.78,-19.41 533.8,-20.61"/>
<polygon fill="black" stroke="black" stroke-width="0.5" points="533.82,-22.38 538.99,-21.24 534.24,-18.9 533.82,-22.38"/>
</g>
</g>
</svg>
