<?xml version="1.0" encoding="UTF-8" standalone="no"?>
<!DOCTYPE svg PUBLIC "-//W3C//DTD SVG 1.1//EN"
 "http://www.w3.org/Graphics/SVG/1.1/DTD/svg11.dtd">
<!-- Generated by graphviz version 2.43.0 (0)
 -->
<!-- Title: inheritance3c3ffed631 Pages: 1 -->
<svg width="576pt" height="127pt"
 viewBox="0.00 0.00 576.00 126.57" xmlns="http://www.w3.org/2000/svg" xmlns:xlink="http://www.w3.org/1999/xlink">
<g id="graph0" class="graph" transform="scale(1.09 1.09) rotate(0) translate(4 134)">
<title>inheritance3c3ffed631</title>
<!-- AssertStatementMixin -->
<g id="node1" class="node">
<title>AssertStatementMixin</title>
<g id="a_node1"><a xlink:title="A ``MixinAssertStatement`` is a mixin&#45;class for all assert statements.">
<polygon fill="white" stroke="#1e90ff" points="434,-56 309,-56 309,-37 434,-37 434,-56"/>
<text text-anchor="middle" x="371.5" y="-44" font-family="Vera Sans, DejaVu Sans, Liberation Sans, Arial, Helvetica, sans" font-size="10.00">AssertStatementMixin</text>
</a>
</g>
</g>
<!-- SequentialAssertStatement -->
<g id="node7" class="node">
<title>SequentialAssertStatement</title>
<g id="a_node7"><a xlink:href="../pyGHDL/pyGHDL.dom.Sequential.html#pyGHDL.dom.Sequential.SequentialAssertStatement" xlink:title="SequentialAssertStatement" target="_top">
<polygon fill="white" stroke="#1e90ff" points="620,-93 470,-93 470,-74 620,-74 620,-93"/>
<text text-anchor="middle" x="545" y="-81" font-family="Vera Sans, DejaVu Sans, Liberation Sans, Arial, Helvetica, sans" font-size="10.00">SequentialAssertStatement</text>
</a>
</g>
</g>
<!-- AssertStatementMixin&#45;&gt;SequentialAssertStatement -->
<g id="edge6" class="edge">
<title>AssertStatementMixin&#45;&gt;SequentialAssertStatement</title>
<path fill="none" stroke="black" stroke-width="0.5" d="M416.67,-56.03C440.48,-61.17 469.94,-67.52 494.52,-72.82"/>
<polygon fill="black" stroke="black" stroke-width="0.5" points="494.43,-74.6 499.69,-73.94 495.17,-71.17 494.43,-74.6"/>
</g>
<!-- ReportStatementMixin -->
<g id="node2" class="node">
<title>ReportStatementMixin</title>
<g id="a_node2"><a xlink:title="A ``MixinReportStatement`` is a mixin&#45;class for all report and assert statements.">
<polygon fill="white" stroke="#1e90ff" points="273,-56 146,-56 146,-37 273,-37 273,-56"/>
<text text-anchor="middle" x="209.5" y="-44" font-family="Vera Sans, DejaVu Sans, Liberation Sans, Arial, Helvetica, sans" font-size="10.00">ReportStatementMixin</text>
</a>
</g>
</g>
<!-- ReportStatementMixin&#45;&gt;AssertStatementMixin -->
<g id="edge1" class="edge">
<title>ReportStatementMixin&#45;&gt;AssertStatementMixin</title>
<path fill="none" stroke="black" stroke-width="0.5" d="M273.28,-46.5C283.27,-46.5 293.63,-46.5 303.71,-46.5"/>
<polygon fill="black" stroke="black" stroke-width="0.5" points="303.95,-48.25 308.95,-46.5 303.95,-44.75 303.95,-48.25"/>
</g>
<!-- ConditionalMixin -->
<g id="node3" class="node">
<title>ConditionalMixin</title>
<g id="a_node3"><a xlink:title="A ``BaseConditional`` is a mixin&#45;class for all statements with a condition.">
<polygon fill="white" stroke="#1e90ff" points="259,-19 160,-19 160,0 259,0 259,-19"/>
<text text-anchor="middle" x="209.5" y="-7" font-family="Vera Sans, DejaVu Sans, Liberation Sans, Arial, Helvetica, sans" font-size="10.00">ConditionalMixin</text>
</a>
</g>
</g>
<!-- ConditionalMixin&#45;&gt;AssertStatementMixin -->
<g id="edge2" class="edge">
<title>ConditionalMixin&#45;&gt;AssertStatementMixin</title>
<path fill="none" stroke="black" stroke-width="0.5" d="M251.7,-19.03C273.83,-24.14 301.17,-30.47 324.05,-35.76"/>
<polygon fill="black" stroke="black" stroke-width="0.5" points="323.89,-37.52 329.16,-36.94 324.68,-34.11 323.89,-37.52"/>
</g>
<!-- DOMMixin -->
<g id="node4" class="node">
<title>DOMMixin</title>
<g id="a_node4"><a xlink:href="../pyGHDL.dom.html#pyGHDL.dom.DOMMixin" xlink:title="DOMMixin" target="_top">
<polygon fill="white" stroke="#1e90ff" points="405.5,-130 337.5,-130 337.5,-111 405.5,-111 405.5,-130"/>
<text text-anchor="middle" x="371.5" y="-118" font-family="Vera Sans, DejaVu Sans, Liberation Sans, Arial, Helvetica, sans" font-size="10.00">DOMMixin</text>
</a>
</g>
</g>
<!-- DOMMixin&#45;&gt;SequentialAssertStatement -->
<g id="edge4" class="edge">
<title>DOMMixin&#45;&gt;SequentialAssertStatement</title>
<path fill="none" stroke="black" stroke-width="0.5" d="M405.57,-113.37C430.87,-107.91 466.17,-100.29 494.78,-94.12"/>
<polygon fill="black" stroke="black" stroke-width="0.5" points="495.16,-95.83 499.68,-93.06 494.42,-92.41 495.16,-95.83"/>
</g>
<!-- LabeledEntityMixin -->
<g id="node5" class="node">
<title>LabeledEntityMixin</title>
<g id="a_node5"><a xlink:title="A ``LabeledEntityMixin`` is a mixin class for all VHDL entities that can have labels.">
<polygon fill="white" stroke="#1e90ff" points="110,-111 0,-111 0,-92 110,-92 110,-111"/>
<text text-anchor="middle" x="55" y="-99" font-family="Vera Sans, DejaVu Sans, Liberation Sans, Arial, Helvetica, sans" font-size="10.00">LabeledEntityMixin</text>
</a>
</g>
</g>
<!-- Statement -->
<g id="node9" class="node">
<title>Statement</title>
<g id="a_node9"><a xlink:title="A ``Statement`` is a base&#45;class for all statements.">
<polygon fill="white" stroke="#1e90ff" points="243.5,-93 175.5,-93 175.5,-74 243.5,-74 243.5,-93"/>
<text text-anchor="middle" x="209.5" y="-81" font-family="Vera Sans, DejaVu Sans, Liberation Sans, Arial, Helvetica, sans" font-size="10.00">Statement</text>
</a>
</g>
</g>
<!-- LabeledEntityMixin&#45;&gt;Statement -->
<g id="edge9" class="edge">
<title>LabeledEntityMixin&#45;&gt;Statement</title>
<path fill="none" stroke="black" stroke-width="0.5" d="M110.2,-95.1C130.07,-92.76 152.14,-90.15 170.32,-88.01"/>
<polygon fill="black" stroke="black" stroke-width="0.5" points="170.58,-89.74 175.34,-87.41 170.17,-86.26 170.58,-89.74"/>
</g>
<!-- ModelEntity -->
<g id="node6" class="node">
<title>ModelEntity</title>
<g id="a_node6"><a xlink:title="``ModelEntity`` is the base&#45;class for all classes in the VHDL language model, except for mixin classes (see multiple">
<polygon fill="white" stroke="#1e90ff" points="92.5,-74 17.5,-74 17.5,-55 92.5,-55 92.5,-74"/>
<text text-anchor="middle" x="55" y="-62" font-family="Vera Sans, DejaVu Sans, Liberation Sans, Arial, Helvetica, sans" font-size="10.00">ModelEntity</text>
</a>
</g>
</g>
<!-- ModelEntity&#45;&gt;Statement -->
<g id="edge8" class="edge">
<title>ModelEntity&#45;&gt;Statement</title>
<path fill="none" stroke="black" stroke-width="0.5" d="M92.53,-69.05C116.06,-71.98 146.58,-75.79 170.41,-78.75"/>
<polygon fill="black" stroke="black" stroke-width="0.5" points="170.21,-80.49 175.39,-79.37 170.65,-77.02 170.21,-80.49"/>
</g>
<!-- SequentialAssertStatement&#45;&gt;SequentialAssertStatement -->
<g id="edge3" class="edge">
<title>SequentialAssertStatement&#45;&gt;SequentialAssertStatement</title>
<path fill="none" stroke="black" stroke-width="0.5" d="M518.49,-93.08C505.59,-101.73 514.43,-111 545,-111 571.75,-111 581.86,-103.91 575.33,-96.34"/>
<polygon fill="black" stroke="black" stroke-width="0.5" points="576.45,-94.99 571.51,-93.08 574.18,-97.66 576.45,-94.99"/>
</g>
<!-- SequentialStatement -->
<g id="node8" class="node">
<title>SequentialStatement</title>
<g id="a_node8"><a xlink:title="A ``SequentialStatement`` is a base&#45;class for all sequential statements.">
<polygon fill="white" stroke="#1e90ff" points="431,-93 312,-93 312,-74 431,-74 431,-93"/>
<text text-anchor="middle" x="371.5" y="-81" font-family="Vera Sans, DejaVu Sans, Liberation Sans, Arial, Helvetica, sans" font-size="10.00">SequentialStatement</text>
</a>
</g>
</g>
<!-- SequentialStatement&#45;&gt;SequentialAssertStatement -->
<g id="edge5" class="edge">
<title>SequentialStatement&#45;&gt;SequentialAssertStatement</title>
<path fill="none" stroke="black" stroke-width="0.5" d="M431.04,-83.5C441.9,-83.5 453.4,-83.5 464.75,-83.5"/>
<polygon fill="black" stroke="black" stroke-width="0.5" points="464.95,-85.25 469.95,-83.5 464.95,-81.75 464.95,-85.25"/>
</g>
<!-- Statement&#45;&gt;SequentialStatement -->
<g id="edge7" class="edge">
<title>Statement&#45;&gt;SequentialStatement</title>
<path fill="none" stroke="black" stroke-width="0.5" d="M243.65,-83.5C261.87,-83.5 285.1,-83.5 306.68,-83.5"/>
<polygon fill="black" stroke="black" stroke-width="0.5" points="306.84,-85.25 311.84,-83.5 306.84,-81.75 306.84,-85.25"/>
</g>
</g>
</svg>
