<?xml version="1.0" encoding="UTF-8" standalone="no"?>
<!DOCTYPE svg PUBLIC "-//W3C//DTD SVG 1.1//EN"
 "http://www.w3.org/Graphics/SVG/1.1/DTD/svg11.dtd">
<!-- Generated by graphviz version 2.43.0 (0)
 -->
<!-- Title: inheritancef5e767ba7b Pages: 1 -->
<svg width="356pt" height="101pt"
 viewBox="0.00 0.00 356.00 101.00" xmlns="http://www.w3.org/2000/svg" xmlns:xlink="http://www.w3.org/1999/xlink">
<g id="graph0" class="graph" transform="scale(1 1) rotate(0) translate(4 97)">
<title>inheritancef5e767ba7b</title>
<!-- Application -->
<g id="node1" class="node">
<title>Application</title>
<g id="a_node1"><a xlink:href="../pyGHDL/pyGHDL.cli.dom.html#pyGHDL.cli.dom.Application" xlink:title="Application" target="_top">
<polygon fill="white" stroke="#1e90ff" points="348,-37 277,-37 277,-18 348,-18 348,-37"/>
<text text-anchor="middle" x="312.5" y="-25" font-family="Vera Sans, DejaVu Sans, Liberation Sans, Arial, Helvetica, sans" font-size="10.00">Application</text>
</a>
</g>
</g>
<!-- LineTerminal -->
<g id="node2" class="node">
<title>LineTerminal</title>
<polygon fill="white" stroke="#1e90ff" points="237.5,-56 158.5,-56 158.5,-37 237.5,-37 237.5,-56"/>
<text text-anchor="middle" x="198" y="-44" font-family="Vera Sans, DejaVu Sans, Liberation Sans, Arial, Helvetica, sans" font-size="10.00">LineTerminal</text>
</g>
<!-- LineTerminal&#45;&gt;Application -->
<g id="edge1" class="edge">
<title>LineTerminal&#45;&gt;Application</title>
<path fill="none" stroke="black" stroke-width="0.5" d="M237.72,-39.96C248.74,-38.1 260.76,-36.07 271.84,-34.2"/>
<polygon fill="black" stroke="black" stroke-width="0.5" points="272.22,-35.91 276.86,-33.35 271.64,-32.46 272.22,-35.91"/>
</g>
<!-- ArgParseMixin -->
<g id="node3" class="node">
<title>ArgParseMixin</title>
<g id="a_node3"><a xlink:title="Mixin&#45;class to implement an :mod:`argparse`&#45;base command line argument">
<polygon fill="white" stroke="#1e90ff" points="241,-19 155,-19 155,0 241,0 241,-19"/>
<text text-anchor="middle" x="198" y="-7" font-family="Vera Sans, DejaVu Sans, Liberation Sans, Arial, Helvetica, sans" font-size="10.00">ArgParseMixin</text>
</a>
</g>
</g>
<!-- ArgParseMixin&#45;&gt;Application -->
<g id="edge2" class="edge">
<title>ArgParseMixin&#45;&gt;Application</title>
<path fill="none" stroke="black" stroke-width="0.5" d="M241.21,-16.25C251.19,-17.85 261.8,-19.55 271.68,-21.13"/>
<polygon fill="black" stroke="black" stroke-width="0.5" points="271.55,-22.88 276.76,-21.94 272.1,-19.42 271.55,-22.88"/>
</g>
<!-- AttributeHelperMixin -->
<g id="node4" class="node">
<title>AttributeHelperMixin</title>
<g id="a_node4"><a xlink:title="A mixin class to ease finding methods with attached pyAttributes.">
<polygon fill="white" stroke="#1e90ff" points="119,-19 0,-19 0,0 119,0 119,-19"/>
<text text-anchor="middle" x="59.5" y="-7" font-family="Vera Sans, DejaVu Sans, Liberation Sans, Arial, Helvetica, sans" font-size="10.00">AttributeHelperMixin</text>
</a>
</g>
</g>
<!-- AttributeHelperMixin&#45;&gt;ArgParseMixin -->
<g id="edge3" class="edge">
<title>AttributeHelperMixin&#45;&gt;ArgParseMixin</title>
<path fill="none" stroke="black" stroke-width="0.5" d="M119.18,-9.5C129.39,-9.5 139.9,-9.5 149.76,-9.5"/>
<polygon fill="black" stroke="black" stroke-width="0.5" points="149.85,-11.25 154.85,-9.5 149.85,-7.75 149.85,-11.25"/>
</g>
<!-- ILineTerminal -->
<g id="node5" class="node">
<title>ILineTerminal</title>
<g id="a_node5"><a xlink:title="A mixin class (interface) to provide class&#45;local terminal writing methods.">
<polygon fill="white" stroke="#1e90ff" points="100.5,-93 18.5,-93 18.5,-74 100.5,-74 100.5,-93"/>
<text text-anchor="middle" x="59.5" y="-81" font-family="Vera Sans, DejaVu Sans, Liberation Sans, Arial, Helvetica, sans" font-size="10.00">ILineTerminal</text>
</a>
</g>
</g>
<!-- ILineTerminal&#45;&gt;LineTerminal -->
<g id="edge5" class="edge">
<title>ILineTerminal&#45;&gt;LineTerminal</title>
<path fill="none" stroke="black" stroke-width="0.5" d="M95.65,-73.97C114.29,-68.92 137.28,-62.69 156.65,-57.44"/>
<polygon fill="black" stroke="black" stroke-width="0.5" points="157.12,-59.12 161.49,-56.12 156.21,-55.74 157.12,-59.12"/>
</g>
<!-- Terminal -->
<g id="node6" class="node">
<title>Terminal</title>
<polygon fill="white" stroke="#1e90ff" points="89,-56 30,-56 30,-37 89,-37 89,-56"/>
<text text-anchor="middle" x="59.5" y="-44" font-family="Vera Sans, DejaVu Sans, Liberation Sans, Arial, Helvetica, sans" font-size="10.00">Terminal</text>
</g>
<!-- Terminal&#45;&gt;LineTerminal -->
<g id="edge4" class="edge">
<title>Terminal&#45;&gt;LineTerminal</title>
<path fill="none" stroke="black" stroke-width="0.5" d="M89.11,-46.5C107.64,-46.5 132.12,-46.5 153.08,-46.5"/>
<polygon fill="black" stroke="black" stroke-width="0.5" points="153.32,-48.25 158.32,-46.5 153.32,-44.75 153.32,-48.25"/>
</g>
</g>
</svg>
