<?xml version="1.0" encoding="UTF-8" standalone="no"?>
<!DOCTYPE svg PUBLIC "-//W3C//DTD SVG 1.1//EN"
 "http://www.w3.org/Graphics/SVG/1.1/DTD/svg11.dtd">
<!-- Generated by graphviz version 2.43.0 (0)
 -->
<!-- Title: inheritance1de42c24c8 Pages: 1 -->
<svg width="313pt" height="64pt"
 viewBox="0.00 0.00 313.00 64.00" xmlns="http://www.w3.org/2000/svg" xmlns:xlink="http://www.w3.org/1999/xlink">
<g id="graph0" class="graph" transform="scale(1 1) rotate(0) translate(4 60)">
<title>inheritance1de42c24c8</title>
<!-- AllPackageMembersReferenceSymbol -->
<g id="node1" class="node">
<title>AllPackageMembersReferenceSymbol</title>
<g id="a_node1"><a xlink:href="../pyGHDL/pyGHDL.dom.Symbol.html#pyGHDL.dom.Symbol.AllPackageMembersReferenceSymbol" xlink:title="A package reference in a use clause." target="_top">
<polygon fill="white" stroke="#1e90ff" points="305,-37 104,-37 104,-18 305,-18 305,-37"/>
<text text-anchor="middle" x="204.5" y="-25" font-family="Vera Sans, DejaVu Sans, Liberation Sans, Arial, Helvetica, sans" font-size="10.00">AllPackageMembersReferenceSymbol</text>
</a>
</g>
</g>
<!-- AllPackageMembersReferenceSymbol&#45;&gt;AllPackageMembersReferenceSymbol -->
<g id="edge1" class="edge">
<title>AllPackageMembersReferenceSymbol&#45;&gt;AllPackageMembersReferenceSymbol</title>
<path fill="none" stroke="black" stroke-width="0.5" d="M178.3,-37.08C165.55,-45.73 174.29,-55 204.5,-55 230.47,-55 240.57,-48.16 234.81,-40.74"/>
<polygon fill="black" stroke="black" stroke-width="0.5" points="235.6,-39.1 230.7,-37.08 233.27,-41.72 235.6,-39.1"/>
</g>
<!-- DOMMixin -->
<g id="node2" class="node">
<title>DOMMixin</title>
<g id="a_node2"><a xlink:href="../pyGHDL.dom.html#pyGHDL.dom.DOMMixin" xlink:title="DOMMixin" target="_top">
<polygon fill="white" stroke="#1e90ff" points="68,-56 0,-56 0,-37 68,-37 68,-56"/>
<text text-anchor="middle" x="34" y="-44" font-family="Vera Sans, DejaVu Sans, Liberation Sans, Arial, Helvetica, sans" font-size="10.00">DOMMixin</text>
</a>
</g>
</g>
<!-- DOMMixin&#45;&gt;AllPackageMembersReferenceSymbol -->
<g id="edge2" class="edge">
<title>DOMMixin&#45;&gt;AllPackageMembersReferenceSymbol</title>
<path fill="none" stroke="black" stroke-width="0.5" d="M68.29,-42.75C81.59,-41.25 97.6,-39.44 113.88,-37.61"/>
<polygon fill="black" stroke="black" stroke-width="0.5" points="114.17,-39.33 118.94,-37.04 113.77,-35.86 114.17,-39.33"/>
</g>
<!-- Symbol -->
<g id="node3" class="node">
<title>Symbol</title>
<polygon fill="white" stroke="#1e90ff" points="61,-19 7,-19 7,0 61,0 61,-19"/>
<text text-anchor="middle" x="34" y="-7" font-family="Vera Sans, DejaVu Sans, Liberation Sans, Arial, Helvetica, sans" font-size="10.00">Symbol</text>
</g>
<!-- Symbol&#45;&gt;AllPackageMembersReferenceSymbol -->
<g id="edge3" class="edge">
<title>Symbol&#45;&gt;AllPackageMembersReferenceSymbol</title>
<path fill="none" stroke="black" stroke-width="0.5" d="M61.33,-12.31C74.7,-13.74 91.83,-15.57 109.55,-17.46"/>
<polygon fill="black" stroke="black" stroke-width="0.5" points="109.4,-19.21 114.56,-18 109.78,-15.73 109.4,-19.21"/>
</g>
</g>
</svg>
