<?xml version="1.0" encoding="UTF-8" standalone="no"?>
<!DOCTYPE svg PUBLIC "-//W3C//DTD SVG 1.1//EN"
 "http://www.w3.org/Graphics/SVG/1.1/DTD/svg11.dtd">
<!-- Generated by graphviz version 2.43.0 (0)
 -->
<!-- Title: inheritancebdcfc4fe7d Pages: 1 -->
<svg width="249pt" height="64pt"
 viewBox="0.00 0.00 249.00 64.00" xmlns="http://www.w3.org/2000/svg" xmlns:xlink="http://www.w3.org/1999/xlink">
<g id="graph0" class="graph" transform="scale(1 1) rotate(0) translate(4 60)">
<title>inheritancebdcfc4fe7d</title>
<!-- DOMMixin -->
<g id="node1" class="node">
<title>DOMMixin</title>
<g id="a_node1"><a xlink:href="../pyGHDL.dom.html#pyGHDL.dom.DOMMixin" xlink:title="DOMMixin" target="_top">
<polygon fill="white" stroke="#1e90ff" points="68,-56 0,-56 0,-37 68,-37 68,-56"/>
<text text-anchor="middle" x="34" y="-44" font-family="Vera Sans, DejaVu Sans, Liberation Sans, Arial, Helvetica, sans" font-size="10.00">DOMMixin</text>
</a>
</g>
</g>
<!-- LibraryReferenceSymbol -->
<g id="node2" class="node">
<title>LibraryReferenceSymbol</title>
<g id="a_node2"><a xlink:href="../pyGHDL/pyGHDL.dom.Symbol.html#pyGHDL.dom.Symbol.LibraryReferenceSymbol" xlink:title="A library reference in a library clause." target="_top">
<polygon fill="white" stroke="#1e90ff" points="241,-37 104,-37 104,-18 241,-18 241,-37"/>
<text text-anchor="middle" x="172.5" y="-25" font-family="Vera Sans, DejaVu Sans, Liberation Sans, Arial, Helvetica, sans" font-size="10.00">LibraryReferenceSymbol</text>
</a>
</g>
</g>
<!-- DOMMixin&#45;&gt;LibraryReferenceSymbol -->
<g id="edge2" class="edge">
<title>DOMMixin&#45;&gt;LibraryReferenceSymbol</title>
<path fill="none" stroke="black" stroke-width="0.5" d="M68.04,-41.9C77.49,-40.59 88.17,-39.1 98.99,-37.59"/>
<polygon fill="black" stroke="black" stroke-width="0.5" points="99.26,-39.32 103.97,-36.9 98.78,-35.86 99.26,-39.32"/>
</g>
<!-- LibraryReferenceSymbol&#45;&gt;LibraryReferenceSymbol -->
<g id="edge1" class="edge">
<title>LibraryReferenceSymbol&#45;&gt;LibraryReferenceSymbol</title>
<path fill="none" stroke="black" stroke-width="0.5" d="M151.23,-37.08C140.88,-45.73 147.97,-55 172.5,-55 193.19,-55 201.48,-48.4 197.34,-41.15"/>
<polygon fill="black" stroke="black" stroke-width="0.5" points="198.39,-39.68 193.77,-37.08 195.76,-41.99 198.39,-39.68"/>
</g>
<!-- Symbol -->
<g id="node3" class="node">
<title>Symbol</title>
<polygon fill="white" stroke="#1e90ff" points="61,-19 7,-19 7,0 61,0 61,-19"/>
<text text-anchor="middle" x="34" y="-7" font-family="Vera Sans, DejaVu Sans, Liberation Sans, Arial, Helvetica, sans" font-size="10.00">Symbol</text>
</g>
<!-- Symbol&#45;&gt;LibraryReferenceSymbol -->
<g id="edge3" class="edge">
<title>Symbol&#45;&gt;LibraryReferenceSymbol</title>
<path fill="none" stroke="black" stroke-width="0.5" d="M61.32,-12.97C72.22,-14.41 85.45,-16.15 98.91,-17.93"/>
<polygon fill="black" stroke="black" stroke-width="0.5" points="98.69,-19.66 103.87,-18.58 99.15,-16.19 98.69,-19.66"/>
</g>
</g>
</svg>
