<?xml version="1.0" encoding="UTF-8" standalone="no"?>
<!DOCTYPE svg PUBLIC "-//W3C//DTD SVG 1.1//EN"
 "http://www.w3.org/Graphics/SVG/1.1/DTD/svg11.dtd">
<!-- Generated by graphviz version 2.43.0 (0)
 -->
<!-- Title: inheritance34ff4199ac Pages: 1 -->
<svg width="429pt" height="64pt"
 viewBox="0.00 0.00 429.00 64.00" xmlns="http://www.w3.org/2000/svg" xmlns:xlink="http://www.w3.org/1999/xlink">
<g id="graph0" class="graph" transform="scale(1 1) rotate(0) translate(4 60)">
<title>inheritance34ff4199ac</title>
<!-- BaseExpression -->
<g id="node1" class="node">
<title>BaseExpression</title>
<g id="a_node1"><a xlink:title="A ``BaseExpression`` is a base&#45;class for all expressions.">
<polygon fill="white" stroke="#1e90ff" points="205,-19 111,-19 111,0 205,0 205,-19"/>
<text text-anchor="middle" x="158" y="-7" font-family="Vera Sans, DejaVu Sans, Liberation Sans, Arial, Helvetica, sans" font-size="10.00">BaseExpression</text>
</a>
</g>
</g>
<!-- Literal -->
<g id="node4" class="node">
<title>Literal</title>
<g id="a_node4"><a xlink:title="A ``Literal`` is a base&#45;class for all literals.">
<polygon fill="white" stroke="#1e90ff" points="302,-19 248,-19 248,0 302,0 302,-19"/>
<text text-anchor="middle" x="275" y="-7" font-family="Vera Sans, DejaVu Sans, Liberation Sans, Arial, Helvetica, sans" font-size="10.00">Literal</text>
</a>
</g>
</g>
<!-- BaseExpression&#45;&gt;Literal -->
<g id="edge2" class="edge">
<title>BaseExpression&#45;&gt;Literal</title>
<path fill="none" stroke="black" stroke-width="0.5" d="M205.11,-9.5C217.68,-9.5 231.01,-9.5 242.56,-9.5"/>
<polygon fill="black" stroke="black" stroke-width="0.5" points="242.73,-11.25 247.73,-9.5 242.73,-7.75 242.73,-11.25"/>
</g>
<!-- ModelEntity -->
<g id="node2" class="node">
<title>ModelEntity</title>
<g id="a_node2"><a xlink:title="``ModelEntity`` is the base&#45;class for all classes in the VHDL language model, except for mixin classes (see multiple">
<polygon fill="white" stroke="#1e90ff" points="75,-19 0,-19 0,0 75,0 75,-19"/>
<text text-anchor="middle" x="37.5" y="-7" font-family="Vera Sans, DejaVu Sans, Liberation Sans, Arial, Helvetica, sans" font-size="10.00">ModelEntity</text>
</a>
</g>
</g>
<!-- ModelEntity&#45;&gt;BaseExpression -->
<g id="edge1" class="edge">
<title>ModelEntity&#45;&gt;BaseExpression</title>
<path fill="none" stroke="black" stroke-width="0.5" d="M75.02,-9.5C84.72,-9.5 95.38,-9.5 105.71,-9.5"/>
<polygon fill="black" stroke="black" stroke-width="0.5" points="105.75,-11.25 110.75,-9.5 105.75,-7.75 105.75,-11.25"/>
</g>
<!-- DOMMixin -->
<g id="node3" class="node">
<title>DOMMixin</title>
<g id="a_node3"><a xlink:href="../pyGHDL.dom.html#pyGHDL.dom.DOMMixin" xlink:title="DOMMixin" target="_top">
<polygon fill="white" stroke="#1e90ff" points="309,-56 241,-56 241,-37 309,-37 309,-56"/>
<text text-anchor="middle" x="275" y="-44" font-family="Vera Sans, DejaVu Sans, Liberation Sans, Arial, Helvetica, sans" font-size="10.00">DOMMixin</text>
</a>
</g>
</g>
<!-- StringLiteral -->
<g id="node5" class="node">
<title>StringLiteral</title>
<g id="a_node5"><a xlink:href="../pyGHDL/pyGHDL.dom.Literal.html#pyGHDL.dom.Literal.StringLiteral" xlink:title="StringLiteral" target="_top">
<polygon fill="white" stroke="#1e90ff" points="421,-37 345,-37 345,-18 421,-18 421,-37"/>
<text text-anchor="middle" x="383" y="-25" font-family="Vera Sans, DejaVu Sans, Liberation Sans, Arial, Helvetica, sans" font-size="10.00">StringLiteral</text>
</a>
</g>
</g>
<!-- DOMMixin&#45;&gt;StringLiteral -->
<g id="edge4" class="edge">
<title>DOMMixin&#45;&gt;StringLiteral</title>
<path fill="none" stroke="black" stroke-width="0.5" d="M309.25,-40.54C318.95,-38.8 329.69,-36.88 339.87,-35.05"/>
<polygon fill="black" stroke="black" stroke-width="0.5" points="340.2,-36.77 344.81,-34.17 339.58,-33.33 340.2,-36.77"/>
</g>
<!-- Literal&#45;&gt;StringLiteral -->
<g id="edge5" class="edge">
<title>Literal&#45;&gt;StringLiteral</title>
<path fill="none" stroke="black" stroke-width="0.5" d="M302.2,-13.95C313.57,-15.88 327.17,-18.19 339.89,-20.35"/>
<polygon fill="black" stroke="black" stroke-width="0.5" points="339.68,-22.09 344.9,-21.2 340.26,-18.64 339.68,-22.09"/>
</g>
<!-- StringLiteral&#45;&gt;StringLiteral -->
<g id="edge3" class="edge">
<title>StringLiteral&#45;&gt;StringLiteral</title>
<path fill="none" stroke="black" stroke-width="0.5" d="M366.35,-37.08C358.26,-45.73 363.8,-55 383,-55 398.9,-55 405.43,-48.65 402.61,-41.55"/>
<polygon fill="black" stroke="black" stroke-width="0.5" points="403.87,-40.28 399.65,-37.08 400.95,-42.22 403.87,-40.28"/>
</g>
</g>
</svg>
