<?xml version="1.0" encoding="UTF-8" standalone="no"?>
<!DOCTYPE svg PUBLIC "-//W3C//DTD SVG 1.1//EN"
 "http://www.w3.org/Graphics/SVG/1.1/DTD/svg11.dtd">
<!-- Generated by graphviz version 2.43.0 (0)
 -->
<!-- Title: inheritance8a20b739ef Pages: 1 -->
<svg width="225pt" height="64pt"
 viewBox="0.00 0.00 225.00 64.00" xmlns="http://www.w3.org/2000/svg" xmlns:xlink="http://www.w3.org/1999/xlink">
<g id="graph0" class="graph" transform="scale(1 1) rotate(0) translate(4 60)">
<title>inheritance8a20b739ef</title>
<!-- ArchitectureSymbol -->
<g id="node1" class="node">
<title>ArchitectureSymbol</title>
<g id="a_node1"><a xlink:href="../pyGHDL/pyGHDL.dom.Symbol.html#pyGHDL.dom.Symbol.ArchitectureSymbol" xlink:title="An entity reference in an entity instantiation with architecture name." target="_top">
<polygon fill="white" stroke="#1e90ff" points="217,-37 104,-37 104,-18 217,-18 217,-37"/>
<text text-anchor="middle" x="160.5" y="-25" font-family="Vera Sans, DejaVu Sans, Liberation Sans, Arial, Helvetica, sans" font-size="10.00">ArchitectureSymbol</text>
</a>
</g>
</g>
<!-- ArchitectureSymbol&#45;&gt;ArchitectureSymbol -->
<g id="edge1" class="edge">
<title>ArchitectureSymbol&#45;&gt;ArchitectureSymbol</title>
<path fill="none" stroke="black" stroke-width="0.5" d="M141.08,-37.08C131.63,-45.73 138.11,-55 160.5,-55 179.4,-55 186.96,-48.4 183.18,-41.15"/>
<polygon fill="black" stroke="black" stroke-width="0.5" points="184.42,-39.89 179.92,-37.08 181.69,-42.08 184.42,-39.89"/>
</g>
<!-- DOMMixin -->
<g id="node2" class="node">
<title>DOMMixin</title>
<g id="a_node2"><a xlink:href="../pyGHDL.dom.html#pyGHDL.dom.DOMMixin" xlink:title="DOMMixin" target="_top">
<polygon fill="white" stroke="#1e90ff" points="68,-56 0,-56 0,-37 68,-37 68,-56"/>
<text text-anchor="middle" x="34" y="-44" font-family="Vera Sans, DejaVu Sans, Liberation Sans, Arial, Helvetica, sans" font-size="10.00">DOMMixin</text>
</a>
</g>
</g>
<!-- DOMMixin&#45;&gt;ArchitectureSymbol -->
<g id="edge2" class="edge">
<title>DOMMixin&#45;&gt;ArchitectureSymbol</title>
<path fill="none" stroke="black" stroke-width="0.5" d="M68.04,-41.46C77.45,-40.02 88.01,-38.41 98.52,-36.81"/>
<polygon fill="black" stroke="black" stroke-width="0.5" points="99,-38.5 103.67,-36.02 98.47,-35.04 99,-38.5"/>
</g>
<!-- Symbol -->
<g id="node3" class="node">
<title>Symbol</title>
<polygon fill="white" stroke="#1e90ff" points="61,-19 7,-19 7,0 61,0 61,-19"/>
<text text-anchor="middle" x="34" y="-7" font-family="Vera Sans, DejaVu Sans, Liberation Sans, Arial, Helvetica, sans" font-size="10.00">Symbol</text>
</g>
<!-- Symbol&#45;&gt;ArchitectureSymbol -->
<g id="edge3" class="edge">
<title>Symbol&#45;&gt;ArchitectureSymbol</title>
<path fill="none" stroke="black" stroke-width="0.5" d="M61.1,-13.27C72.12,-14.87 85.44,-16.79 98.68,-18.71"/>
<polygon fill="black" stroke="black" stroke-width="0.5" points="98.75,-20.48 103.95,-19.47 99.25,-17.02 98.75,-20.48"/>
</g>
</g>
</svg>
