<?xml version="1.0" encoding="UTF-8" standalone="no"?>
<!DOCTYPE svg PUBLIC "-//W3C//DTD SVG 1.1//EN"
 "http://www.w3.org/Graphics/SVG/1.1/DTD/svg11.dtd">
<!-- Generated by graphviz version 2.43.0 (0)
 -->
<!-- Title: inheritancedebe7010fb Pages: 1 -->
<svg width="576pt" height="139pt"
 viewBox="0.00 0.00 576.00 139.23" xmlns="http://www.w3.org/2000/svg" xmlns:xlink="http://www.w3.org/1999/xlink">
<g id="graph0" class="graph" transform="scale(1.26 1.26) rotate(0) translate(4 171)">
<title>inheritancedebe7010fb</title>
<!-- DOMMixin -->
<g id="node1" class="node">
<title>DOMMixin</title>
<g id="a_node1"><a xlink:href="../pyGHDL.dom.html#pyGHDL.dom.DOMMixin" xlink:title="DOMMixin" target="_top">
<polygon fill="white" stroke="#1e90ff" points="474.5,-167 406.5,-167 406.5,-148 474.5,-148 474.5,-167"/>
<text text-anchor="middle" x="440.5" y="-155" font-family="Vera Sans, DejaVu Sans, Liberation Sans, Arial, Helvetica, sans" font-size="10.00">DOMMixin</text>
</a>
</g>
</g>
<!-- ParameterVariableInterfaceItem -->
<g id="node9" class="node">
<title>ParameterVariableInterfaceItem</title>
<g id="a_node9"><a xlink:href="../pyGHDL/pyGHDL.dom.InterfaceItem.html#pyGHDL.dom.InterfaceItem.ParameterVariableInterfaceItem" xlink:title="ParameterVariableInterfaceItem" target="_top">
<polygon fill="white" stroke="#1e90ff" points="716,-111 543,-111 543,-92 716,-92 716,-111"/>
<text text-anchor="middle" x="629.5" y="-99" font-family="Vera Sans, DejaVu Sans, Liberation Sans, Arial, Helvetica, sans" font-size="10.00">ParameterVariableInterfaceItem</text>
</a>
</g>
</g>
<!-- DOMMixin&#45;&gt;ParameterVariableInterfaceItem -->
<g id="edge7" class="edge">
<title>DOMMixin&#45;&gt;ParameterVariableInterfaceItem</title>
<path fill="none" stroke="black" stroke-width="0.5" d="M474.55,-148.66C484.96,-145.81 496.48,-142.59 507,-139.5 536.5,-130.84 569.81,-120.37 594.09,-112.61"/>
<polygon fill="black" stroke="black" stroke-width="0.5" points="594.9,-114.19 599.13,-111 593.83,-110.86 594.9,-114.19"/>
</g>
<!-- DocumentedEntityMixin -->
<g id="node2" class="node">
<title>DocumentedEntityMixin</title>
<g id="a_node2"><a xlink:title="A ``DocumentedEntityMixin`` is a mixin class for all VHDL entities that can have an associated documentation.">
<polygon fill="white" stroke="#1e90ff" points="140.5,-93 6.5,-93 6.5,-74 140.5,-74 140.5,-93"/>
<text text-anchor="middle" x="73.5" y="-81" font-family="Vera Sans, DejaVu Sans, Liberation Sans, Arial, Helvetica, sans" font-size="10.00">DocumentedEntityMixin</text>
</a>
</g>
</g>
<!-- InterfaceItem -->
<g id="node3" class="node">
<title>InterfaceItem</title>
<g id="a_node3"><a xlink:title="An ``InterfaceItem`` is a base&#45;class for all mixin&#45;classes for all interface items.">
<polygon fill="white" stroke="#1e90ff" points="302,-93 219,-93 219,-74 302,-74 302,-93"/>
<text text-anchor="middle" x="260.5" y="-81" font-family="Vera Sans, DejaVu Sans, Liberation Sans, Arial, Helvetica, sans" font-size="10.00">InterfaceItem</text>
</a>
</g>
</g>
<!-- DocumentedEntityMixin&#45;&gt;InterfaceItem -->
<g id="edge1" class="edge">
<title>DocumentedEntityMixin&#45;&gt;InterfaceItem</title>
<path fill="none" stroke="black" stroke-width="0.5" d="M140.51,-83.5C164.71,-83.5 191.57,-83.5 213.63,-83.5"/>
<polygon fill="black" stroke="black" stroke-width="0.5" points="213.84,-85.25 218.84,-83.5 213.84,-81.75 213.84,-85.25"/>
</g>
<!-- Obj -->
<g id="node7" class="node">
<title>Obj</title>
<polygon fill="white" stroke="#1e90ff" points="287.5,-56 233.5,-56 233.5,-37 287.5,-37 287.5,-56"/>
<text text-anchor="middle" x="260.5" y="-44" font-family="Vera Sans, DejaVu Sans, Liberation Sans, Arial, Helvetica, sans" font-size="10.00">Obj</text>
</g>
<!-- DocumentedEntityMixin&#45;&gt;Obj -->
<g id="edge4" class="edge">
<title>DocumentedEntityMixin&#45;&gt;Obj</title>
<path fill="none" stroke="black" stroke-width="0.5" d="M122.14,-73.97C155.5,-67.3 199.13,-58.57 228.18,-52.76"/>
<polygon fill="black" stroke="black" stroke-width="0.5" points="228.86,-54.41 233.42,-51.72 228.18,-50.98 228.86,-54.41"/>
</g>
<!-- ParameterInterfaceItem -->
<g id="node8" class="node">
<title>ParameterInterfaceItem</title>
<g id="a_node8"><a xlink:title="A ``ParameterInterfaceItem`` is a mixin class for all parameter interface items.">
<polygon fill="white" stroke="#1e90ff" points="507,-93 374,-93 374,-74 507,-74 507,-93"/>
<text text-anchor="middle" x="440.5" y="-81" font-family="Vera Sans, DejaVu Sans, Liberation Sans, Arial, Helvetica, sans" font-size="10.00">ParameterInterfaceItem</text>
</a>
</g>
</g>
<!-- InterfaceItem&#45;&gt;ParameterInterfaceItem -->
<g id="edge5" class="edge">
<title>InterfaceItem&#45;&gt;ParameterInterfaceItem</title>
<path fill="none" stroke="black" stroke-width="0.5" d="M302.34,-83.5C321.99,-83.5 346.14,-83.5 368.66,-83.5"/>
<polygon fill="black" stroke="black" stroke-width="0.5" points="368.74,-85.25 373.74,-83.5 368.74,-81.75 368.74,-85.25"/>
</g>
<!-- InterfaceItemWithMode -->
<g id="node4" class="node">
<title>InterfaceItemWithMode</title>
<g id="a_node4"><a xlink:title="An ``InterfaceItemWithMode`` is a mixin&#45;class to provide a ``Mode`` to interface items.">
<polygon fill="white" stroke="#1e90ff" points="506.5,-130 374.5,-130 374.5,-111 506.5,-111 506.5,-130"/>
<text text-anchor="middle" x="440.5" y="-118" font-family="Vera Sans, DejaVu Sans, Liberation Sans, Arial, Helvetica, sans" font-size="10.00">InterfaceItemWithMode</text>
</a>
</g>
</g>
<!-- InterfaceItemWithMode&#45;&gt;ParameterVariableInterfaceItem -->
<g id="edge10" class="edge">
<title>InterfaceItemWithMode&#45;&gt;ParameterVariableInterfaceItem</title>
<path fill="none" stroke="black" stroke-width="0.5" d="M506.64,-113.88C516.7,-112.86 527.23,-111.79 537.73,-110.72"/>
<polygon fill="black" stroke="black" stroke-width="0.5" points="538.07,-112.45 542.87,-110.2 537.72,-108.96 538.07,-112.45"/>
</g>
<!-- ModelEntity -->
<g id="node5" class="node">
<title>ModelEntity</title>
<g id="a_node5"><a xlink:title="``ModelEntity`` is the base&#45;class for all classes in the VHDL language model, except for mixin classes (see multiple">
<polygon fill="white" stroke="#1e90ff" points="111,-56 36,-56 36,-37 111,-37 111,-56"/>
<text text-anchor="middle" x="73.5" y="-44" font-family="Vera Sans, DejaVu Sans, Liberation Sans, Arial, Helvetica, sans" font-size="10.00">ModelEntity</text>
</a>
</g>
</g>
<!-- ModelEntity&#45;&gt;Obj -->
<g id="edge2" class="edge">
<title>ModelEntity&#45;&gt;Obj</title>
<path fill="none" stroke="black" stroke-width="0.5" d="M111.05,-46.5C145.33,-46.5 196.04,-46.5 228.43,-46.5"/>
<polygon fill="black" stroke="black" stroke-width="0.5" points="228.46,-48.25 233.46,-46.5 228.46,-44.75 228.46,-48.25"/>
</g>
<!-- MultipleNamedEntityMixin -->
<g id="node6" class="node">
<title>MultipleNamedEntityMixin</title>
<g id="a_node6"><a xlink:title="A ``MultipleNamedEntityMixin`` is a mixin class for all VHDL entities that declare multiple instances at once by">
<polygon fill="white" stroke="#1e90ff" points="147,-19 0,-19 0,0 147,0 147,-19"/>
<text text-anchor="middle" x="73.5" y="-7" font-family="Vera Sans, DejaVu Sans, Liberation Sans, Arial, Helvetica, sans" font-size="10.00">MultipleNamedEntityMixin</text>
</a>
</g>
</g>
<!-- MultipleNamedEntityMixin&#45;&gt;Obj -->
<g id="edge3" class="edge">
<title>MultipleNamedEntityMixin&#45;&gt;Obj</title>
<path fill="none" stroke="black" stroke-width="0.5" d="M122.14,-19.03C155.5,-25.7 199.13,-34.43 228.18,-40.24"/>
<polygon fill="black" stroke="black" stroke-width="0.5" points="228.18,-42.02 233.42,-41.28 228.86,-38.59 228.18,-42.02"/>
</g>
<!-- Variable -->
<g id="node10" class="node">
<title>Variable</title>
<polygon fill="white" stroke="#1e90ff" points="468.5,-56 412.5,-56 412.5,-37 468.5,-37 468.5,-56"/>
<text text-anchor="middle" x="440.5" y="-44" font-family="Vera Sans, DejaVu Sans, Liberation Sans, Arial, Helvetica, sans" font-size="10.00">Variable</text>
</g>
<!-- Obj&#45;&gt;Variable -->
<g id="edge11" class="edge">
<title>Obj&#45;&gt;Variable</title>
<path fill="none" stroke="black" stroke-width="0.5" d="M287.76,-46.5C319.43,-46.5 372.67,-46.5 406.92,-46.5"/>
<polygon fill="black" stroke="black" stroke-width="0.5" points="407.25,-48.25 412.25,-46.5 407.25,-44.75 407.25,-48.25"/>
</g>
<!-- ParameterInterfaceItem&#45;&gt;ParameterVariableInterfaceItem -->
<g id="edge9" class="edge">
<title>ParameterInterfaceItem&#45;&gt;ParameterVariableInterfaceItem</title>
<path fill="none" stroke="black" stroke-width="0.5" d="M507.17,-89.82C517.11,-90.78 527.53,-91.78 537.89,-92.78"/>
<polygon fill="black" stroke="black" stroke-width="0.5" points="537.83,-94.53 542.97,-93.27 538.16,-91.05 537.83,-94.53"/>
</g>
<!-- ParameterVariableInterfaceItem&#45;&gt;ParameterVariableInterfaceItem -->
<g id="edge6" class="edge">
<title>ParameterVariableInterfaceItem&#45;&gt;ParameterVariableInterfaceItem</title>
<path fill="none" stroke="black" stroke-width="0.5" d="M600.52,-111.08C586.43,-119.73 596.09,-129 629.5,-129 658.74,-129 669.79,-121.91 662.65,-114.34"/>
<polygon fill="black" stroke="black" stroke-width="0.5" points="663.5,-112.78 658.48,-111.08 661.34,-115.54 663.5,-112.78"/>
</g>
<!-- Variable&#45;&gt;ParameterVariableInterfaceItem -->
<g id="edge8" class="edge">
<title>Variable&#45;&gt;ParameterVariableInterfaceItem</title>
<path fill="none" stroke="black" stroke-width="0.5" d="M468.6,-54.32C480.4,-57.74 494.39,-61.8 507,-65.5 535.38,-73.82 567.46,-83.33 591.53,-90.49"/>
<polygon fill="black" stroke="black" stroke-width="0.5" points="591.25,-92.23 596.54,-91.98 592.24,-88.87 591.25,-92.23"/>
</g>
<!-- WithDefaultExpressionMixin -->
<g id="node11" class="node">
<title>WithDefaultExpressionMixin</title>
<g id="a_node11"><a xlink:title="A ``WithDefaultExpression`` is a mixin class for all objects declarations accepting default expressions.">
<polygon fill="white" stroke="#1e90ff" points="338,-19 183,-19 183,0 338,0 338,-19"/>
<text text-anchor="middle" x="260.5" y="-7" font-family="Vera Sans, DejaVu Sans, Liberation Sans, Arial, Helvetica, sans" font-size="10.00">WithDefaultExpressionMixin</text>
</a>
</g>
</g>
<!-- WithDefaultExpressionMixin&#45;&gt;Variable -->
<g id="edge12" class="edge">
<title>WithDefaultExpressionMixin&#45;&gt;Variable</title>
<path fill="none" stroke="black" stroke-width="0.5" d="M307.34,-19.03C338.66,-25.54 379.39,-34.01 407.31,-39.81"/>
<polygon fill="black" stroke="black" stroke-width="0.5" points="407.12,-41.56 412.37,-40.86 407.83,-38.13 407.12,-41.56"/>
</g>
</g>
</svg>
