<?xml version="1.0" encoding="UTF-8" standalone="no"?>
<!DOCTYPE svg PUBLIC "-//W3C//DTD SVG 1.1//EN"
 "http://www.w3.org/Graphics/SVG/1.1/DTD/svg11.dtd">
<!-- Generated by graphviz version 2.43.0 (0)
 -->
<!-- Title: inheritancef36fc54008 Pages: 1 -->
<svg width="576pt" height="57pt"
 viewBox="0.00 0.00 576.00 56.63" xmlns="http://www.w3.org/2000/svg" xmlns:xlink="http://www.w3.org/1999/xlink">
<g id="graph0" class="graph" transform="scale(1.13 1.13) rotate(0) translate(4 60)">
<title>inheritancef36fc54008</title>
<!-- AddingExpression -->
<g id="node1" class="node">
<title>AddingExpression</title>
<g id="a_node1"><a xlink:title="A ``AddingExpression`` is a base&#45;class for all adding expressions.">
<polygon fill="white" stroke="#1e90ff" points="482,-19 378,-19 378,0 482,0 482,-19"/>
<text text-anchor="middle" x="430" y="-7" font-family="Vera Sans, DejaVu Sans, Liberation Sans, Arial, Helvetica, sans" font-size="10.00">AddingExpression</text>
</a>
</g>
</g>
<!-- SubtractionExpression -->
<g id="node6" class="node">
<title>SubtractionExpression</title>
<g id="a_node6"><a xlink:href="../pyGHDL/pyGHDL.dom.Expression.html#pyGHDL.dom.Expression.SubtractionExpression" xlink:title="SubtractionExpression" target="_top">
<polygon fill="white" stroke="#1e90ff" points="643,-37 518,-37 518,-18 643,-18 643,-37"/>
<text text-anchor="middle" x="580.5" y="-25" font-family="Vera Sans, DejaVu Sans, Liberation Sans, Arial, Helvetica, sans" font-size="10.00">SubtractionExpression</text>
</a>
</g>
</g>
<!-- AddingExpression&#45;&gt;SubtractionExpression -->
<g id="edge6" class="edge">
<title>AddingExpression&#45;&gt;SubtractionExpression</title>
<path fill="none" stroke="black" stroke-width="0.5" d="M482.11,-15.69C491.98,-16.89 502.47,-18.16 512.76,-19.41"/>
<polygon fill="black" stroke="black" stroke-width="0.5" points="512.62,-21.16 517.79,-20.02 513.04,-17.68 512.62,-21.16"/>
</g>
<!-- BinaryExpression -->
<g id="node2" class="node">
<title>BinaryExpression</title>
<g id="a_node2"><a xlink:title="A ``BinaryExpression`` is a base&#45;class for all binary expressions.">
<polygon fill="white" stroke="#1e90ff" points="342,-19 241,-19 241,0 342,0 342,-19"/>
<text text-anchor="middle" x="291.5" y="-7" font-family="Vera Sans, DejaVu Sans, Liberation Sans, Arial, Helvetica, sans" font-size="10.00">BinaryExpression</text>
</a>
</g>
</g>
<!-- BinaryExpression&#45;&gt;AddingExpression -->
<g id="edge1" class="edge">
<title>BinaryExpression&#45;&gt;AddingExpression</title>
<path fill="none" stroke="black" stroke-width="0.5" d="M342.17,-9.5C352.03,-9.5 362.46,-9.5 372.53,-9.5"/>
<polygon fill="black" stroke="black" stroke-width="0.5" points="372.77,-11.25 377.77,-9.5 372.77,-7.75 372.77,-11.25"/>
</g>
<!-- BaseExpression -->
<g id="node3" class="node">
<title>BaseExpression</title>
<g id="a_node3"><a xlink:title="A ``BaseExpression`` is a base&#45;class for all expressions.">
<polygon fill="white" stroke="#1e90ff" points="205,-19 111,-19 111,0 205,0 205,-19"/>
<text text-anchor="middle" x="158" y="-7" font-family="Vera Sans, DejaVu Sans, Liberation Sans, Arial, Helvetica, sans" font-size="10.00">BaseExpression</text>
</a>
</g>
</g>
<!-- BaseExpression&#45;&gt;BinaryExpression -->
<g id="edge3" class="edge">
<title>BaseExpression&#45;&gt;BinaryExpression</title>
<path fill="none" stroke="black" stroke-width="0.5" d="M205.36,-9.5C215.19,-9.5 225.64,-9.5 235.74,-9.5"/>
<polygon fill="black" stroke="black" stroke-width="0.5" points="235.99,-11.25 240.99,-9.5 235.99,-7.75 235.99,-11.25"/>
</g>
<!-- ModelEntity -->
<g id="node4" class="node">
<title>ModelEntity</title>
<g id="a_node4"><a xlink:title="``ModelEntity`` is the base&#45;class for all classes in the VHDL language model, except for mixin classes (see multiple">
<polygon fill="white" stroke="#1e90ff" points="75,-19 0,-19 0,0 75,0 75,-19"/>
<text text-anchor="middle" x="37.5" y="-7" font-family="Vera Sans, DejaVu Sans, Liberation Sans, Arial, Helvetica, sans" font-size="10.00">ModelEntity</text>
</a>
</g>
</g>
<!-- ModelEntity&#45;&gt;BaseExpression -->
<g id="edge2" class="edge">
<title>ModelEntity&#45;&gt;BaseExpression</title>
<path fill="none" stroke="black" stroke-width="0.5" d="M75.02,-9.5C84.72,-9.5 95.38,-9.5 105.71,-9.5"/>
<polygon fill="black" stroke="black" stroke-width="0.5" points="105.75,-11.25 110.75,-9.5 105.75,-7.75 105.75,-11.25"/>
</g>
<!-- DOMMixin -->
<g id="node5" class="node">
<title>DOMMixin</title>
<g id="a_node5"><a xlink:href="../pyGHDL.dom.html#pyGHDL.dom.DOMMixin" xlink:title="DOMMixin" target="_top">
<polygon fill="white" stroke="#1e90ff" points="464,-56 396,-56 396,-37 464,-37 464,-56"/>
<text text-anchor="middle" x="430" y="-44" font-family="Vera Sans, DejaVu Sans, Liberation Sans, Arial, Helvetica, sans" font-size="10.00">DOMMixin</text>
</a>
</g>
</g>
<!-- DOMMixin&#45;&gt;SubtractionExpression -->
<g id="edge5" class="edge">
<title>DOMMixin&#45;&gt;SubtractionExpression</title>
<path fill="none" stroke="black" stroke-width="0.5" d="M464.33,-42.24C478.66,-40.4 495.96,-38.19 512.74,-36.04"/>
<polygon fill="black" stroke="black" stroke-width="0.5" points="513.19,-37.75 517.93,-35.38 512.75,-34.28 513.19,-37.75"/>
</g>
<!-- SubtractionExpression&#45;&gt;SubtractionExpression -->
<g id="edge4" class="edge">
<title>SubtractionExpression&#45;&gt;SubtractionExpression</title>
<path fill="none" stroke="black" stroke-width="0.5" d="M557.38,-37.08C546.13,-45.73 553.84,-55 580.5,-55 603.41,-55 612.32,-48.16 607.24,-40.74"/>
<polygon fill="black" stroke="black" stroke-width="0.5" points="608.38,-39.41 603.62,-37.08 605.89,-41.87 608.38,-39.41"/>
</g>
</g>
</svg>
