<?xml version="1.0" encoding="UTF-8" standalone="no"?>
<!DOCTYPE svg PUBLIC "-//W3C//DTD SVG 1.1//EN"
 "http://www.w3.org/Graphics/SVG/1.1/DTD/svg11.dtd">
<!-- Generated by graphviz version 2.43.0 (0)
 -->
<!-- Title: inheritance0376ade860 Pages: 1 -->
<svg width="245pt" height="64pt"
 viewBox="0.00 0.00 245.00 64.00" xmlns="http://www.w3.org/2000/svg" xmlns:xlink="http://www.w3.org/1999/xlink">
<g id="graph0" class="graph" transform="scale(1 1) rotate(0) translate(4 60)">
<title>inheritance0376ade860</title>
<!-- Document -->
<g id="node1" class="node">
<title>Document</title>
<g id="a_node1"><a xlink:href="../pyGHDL/pyGHDL.dom.NonStandard.html#pyGHDL.dom.NonStandard.Document" xlink:title="A ``Document`` represents a sourcefile. It contains *primary* and *secondary* design units." target="_top">
<polygon fill="white" stroke="#1e90ff" points="237,-37 170,-37 170,-18 237,-18 237,-37"/>
<text text-anchor="middle" x="203.5" y="-25" font-family="Vera Sans, DejaVu Sans, Liberation Sans, Arial, Helvetica, sans" font-size="10.00">Document</text>
</a>
</g>
</g>
<!-- Document&#45;&gt;Document -->
<g id="edge1" class="edge">
<title>Document&#45;&gt;Document</title>
<path fill="none" stroke="black" stroke-width="0.5" d="M182.54,-37.08C172.34,-45.73 179.33,-55 203.5,-55 223.9,-55 232.06,-48.4 227.98,-41.15"/>
<polygon fill="black" stroke="black" stroke-width="0.5" points="229.06,-39.71 224.46,-37.08 226.41,-42.01 229.06,-39.71"/>
</g>
<!-- ModelEntity -->
<g id="node2" class="node">
<title>ModelEntity</title>
<g id="a_node2"><a xlink:title="``ModelEntity`` is the base&#45;class for all classes in the VHDL language model, except for mixin classes (see multiple">
<polygon fill="white" stroke="#1e90ff" points="104.5,-56 29.5,-56 29.5,-37 104.5,-37 104.5,-56"/>
<text text-anchor="middle" x="67" y="-44" font-family="Vera Sans, DejaVu Sans, Liberation Sans, Arial, Helvetica, sans" font-size="10.00">ModelEntity</text>
</a>
</g>
</g>
<!-- ModelEntity&#45;&gt;Document -->
<g id="edge2" class="edge">
<title>ModelEntity&#45;&gt;Document</title>
<path fill="none" stroke="black" stroke-width="0.5" d="M104.75,-41.31C123.38,-38.68 145.97,-35.49 164.73,-32.83"/>
<polygon fill="black" stroke="black" stroke-width="0.5" points="165.21,-34.53 169.92,-32.1 164.72,-31.07 165.21,-34.53"/>
</g>
<!-- DocumentedEntityMixin -->
<g id="node3" class="node">
<title>DocumentedEntityMixin</title>
<g id="a_node3"><a xlink:title="A ``DocumentedEntityMixin`` is a mixin class for all VHDL entities that can have an associated documentation.">
<polygon fill="white" stroke="#1e90ff" points="134,-19 0,-19 0,0 134,0 134,-19"/>
<text text-anchor="middle" x="67" y="-7" font-family="Vera Sans, DejaVu Sans, Liberation Sans, Arial, Helvetica, sans" font-size="10.00">DocumentedEntityMixin</text>
</a>
</g>
</g>
<!-- DocumentedEntityMixin&#45;&gt;Document -->
<g id="edge3" class="edge">
<title>DocumentedEntityMixin&#45;&gt;Document</title>
<path fill="none" stroke="black" stroke-width="0.5" d="M134.07,-18.34C144.61,-19.75 155.18,-21.17 164.76,-22.45"/>
<polygon fill="black" stroke="black" stroke-width="0.5" points="164.79,-24.22 169.98,-23.15 165.25,-20.75 164.79,-24.22"/>
</g>
</g>
</svg>
