<?xml version="1.0" encoding="UTF-8" standalone="no"?>
<!DOCTYPE svg PUBLIC "-//W3C//DTD SVG 1.1//EN"
 "http://www.w3.org/Graphics/SVG/1.1/DTD/svg11.dtd">
<!-- Generated by graphviz version 2.43.0 (0)
 -->
<!-- Title: inheritancec36240a18f Pages: 1 -->
<svg width="498pt" height="64pt"
 viewBox="0.00 0.00 498.00 64.00" xmlns="http://www.w3.org/2000/svg" xmlns:xlink="http://www.w3.org/1999/xlink">
<g id="graph0" class="graph" transform="scale(1 1) rotate(0) translate(4 60)">
<title>inheritancec36240a18f</title>
<!-- BaseExpression -->
<g id="node1" class="node">
<title>BaseExpression</title>
<g id="a_node1"><a xlink:title="A ``BaseExpression`` is a base&#45;class for all expressions.">
<polygon fill="white" stroke="#1e90ff" points="205,-19 111,-19 111,0 205,0 205,-19"/>
<text text-anchor="middle" x="158" y="-7" font-family="Vera Sans, DejaVu Sans, Liberation Sans, Arial, Helvetica, sans" font-size="10.00">BaseExpression</text>
</a>
</g>
</g>
<!-- UnaryExpression -->
<g id="node5" class="node">
<title>UnaryExpression</title>
<g id="a_node5"><a xlink:title="A ``UnaryExpression`` is a base&#45;class for all unary expressions.">
<polygon fill="white" stroke="#1e90ff" points="340,-19 241,-19 241,0 340,0 340,-19"/>
<text text-anchor="middle" x="290.5" y="-7" font-family="Vera Sans, DejaVu Sans, Liberation Sans, Arial, Helvetica, sans" font-size="10.00">UnaryExpression</text>
</a>
</g>
</g>
<!-- BaseExpression&#45;&gt;UnaryExpression -->
<g id="edge5" class="edge">
<title>BaseExpression&#45;&gt;UnaryExpression</title>
<path fill="none" stroke="black" stroke-width="0.5" d="M205.01,-9.5C214.88,-9.5 225.4,-9.5 235.54,-9.5"/>
<polygon fill="black" stroke="black" stroke-width="0.5" points="235.81,-11.25 240.81,-9.5 235.81,-7.75 235.81,-11.25"/>
</g>
<!-- ModelEntity -->
<g id="node2" class="node">
<title>ModelEntity</title>
<g id="a_node2"><a xlink:title="``ModelEntity`` is the base&#45;class for all classes in the VHDL language model, except for mixin classes (see multiple">
<polygon fill="white" stroke="#1e90ff" points="75,-19 0,-19 0,0 75,0 75,-19"/>
<text text-anchor="middle" x="37.5" y="-7" font-family="Vera Sans, DejaVu Sans, Liberation Sans, Arial, Helvetica, sans" font-size="10.00">ModelEntity</text>
</a>
</g>
</g>
<!-- ModelEntity&#45;&gt;BaseExpression -->
<g id="edge1" class="edge">
<title>ModelEntity&#45;&gt;BaseExpression</title>
<path fill="none" stroke="black" stroke-width="0.5" d="M75.02,-9.5C84.72,-9.5 95.38,-9.5 105.71,-9.5"/>
<polygon fill="black" stroke="black" stroke-width="0.5" points="105.75,-11.25 110.75,-9.5 105.75,-7.75 105.75,-11.25"/>
</g>
<!-- DOMMixin -->
<g id="node3" class="node">
<title>DOMMixin</title>
<g id="a_node3"><a xlink:href="../pyGHDL.dom.html#pyGHDL.dom.DOMMixin" xlink:title="DOMMixin" target="_top">
<polygon fill="white" stroke="#1e90ff" points="324.5,-56 256.5,-56 256.5,-37 324.5,-37 324.5,-56"/>
<text text-anchor="middle" x="290.5" y="-44" font-family="Vera Sans, DejaVu Sans, Liberation Sans, Arial, Helvetica, sans" font-size="10.00">DOMMixin</text>
</a>
</g>
</g>
<!-- NegationExpression -->
<g id="node4" class="node">
<title>NegationExpression</title>
<g id="a_node4"><a xlink:href="../pyGHDL/pyGHDL.dom.Expression.html#pyGHDL.dom.Expression.NegationExpression" xlink:title="NegationExpression" target="_top">
<polygon fill="white" stroke="#1e90ff" points="490,-37 376,-37 376,-18 490,-18 490,-37"/>
<text text-anchor="middle" x="433" y="-25" font-family="Vera Sans, DejaVu Sans, Liberation Sans, Arial, Helvetica, sans" font-size="10.00">NegationExpression</text>
</a>
</g>
</g>
<!-- DOMMixin&#45;&gt;NegationExpression -->
<g id="edge3" class="edge">
<title>DOMMixin&#45;&gt;NegationExpression</title>
<path fill="none" stroke="black" stroke-width="0.5" d="M324.8,-42C338.5,-40.14 354.83,-37.94 370.56,-35.81"/>
<polygon fill="black" stroke="black" stroke-width="0.5" points="371.15,-37.49 375.87,-35.09 370.68,-34.03 371.15,-37.49"/>
</g>
<!-- NegationExpression&#45;&gt;NegationExpression -->
<g id="edge2" class="edge">
<title>NegationExpression&#45;&gt;NegationExpression</title>
<path fill="none" stroke="black" stroke-width="0.5" d="M411.11,-37.08C400.47,-45.73 407.76,-55 433,-55 454.69,-55 463.13,-48.16 458.31,-40.74"/>
<polygon fill="black" stroke="black" stroke-width="0.5" points="459.58,-39.54 454.89,-37.08 457.03,-41.93 459.58,-39.54"/>
</g>
<!-- UnaryExpression&#45;&gt;NegationExpression -->
<g id="edge4" class="edge">
<title>UnaryExpression&#45;&gt;NegationExpression</title>
<path fill="none" stroke="black" stroke-width="0.5" d="M340.25,-15.75C350.05,-17 360.48,-18.34 370.65,-19.64"/>
<polygon fill="black" stroke="black" stroke-width="0.5" points="370.44,-21.38 375.62,-20.28 370.89,-17.91 370.44,-21.38"/>
</g>
</g>
</svg>
