<?xml version="1.0" encoding="UTF-8" standalone="no"?>
<!DOCTYPE svg PUBLIC "-//W3C//DTD SVG 1.1//EN"
 "http://www.w3.org/Graphics/SVG/1.1/DTD/svg11.dtd">
<!-- Generated by graphviz version 2.43.0 (0)
 -->
<!-- Title: inheritancefbe9a0300f Pages: 1 -->
<svg width="374pt" height="101pt"
 viewBox="0.00 0.00 374.00 101.00" xmlns="http://www.w3.org/2000/svg" xmlns:xlink="http://www.w3.org/1999/xlink">
<g id="graph0" class="graph" transform="scale(1 1) rotate(0) translate(4 97)">
<title>inheritancefbe9a0300f</title>
<!-- Branch -->
<g id="node1" class="node">
<title>Branch</title>
<g id="a_node1"><a xlink:title="A ``Branch`` is a base&#45;class for all branches in a if statement.">
<polygon fill="white" stroke="#1e90ff" points="237,-56 183,-56 183,-37 237,-37 237,-56"/>
<text text-anchor="middle" x="210" y="-44" font-family="Vera Sans, DejaVu Sans, Liberation Sans, Arial, Helvetica, sans" font-size="10.00">Branch</text>
</a>
</g>
</g>
<!-- ElseBranch -->
<g id="node5" class="node">
<title>ElseBranch</title>
<g id="a_node5"><a xlink:href="../pyGHDL/pyGHDL.dom.Sequential.html#pyGHDL.dom.Sequential.ElseBranch" xlink:title="ElseBranch" target="_top">
<polygon fill="white" stroke="#1e90ff" points="366,-74 295,-74 295,-55 366,-55 366,-74"/>
<text text-anchor="middle" x="330.5" y="-62" font-family="Vera Sans, DejaVu Sans, Liberation Sans, Arial, Helvetica, sans" font-size="10.00">ElseBranch</text>
</a>
</g>
</g>
<!-- Branch&#45;&gt;ElseBranch -->
<g id="edge4" class="edge">
<title>Branch&#45;&gt;ElseBranch</title>
<path fill="none" stroke="black" stroke-width="0.5" d="M237.01,-50.45C252.32,-52.78 272.01,-55.77 289.29,-58.39"/>
<polygon fill="black" stroke="black" stroke-width="0.5" points="289.36,-60.17 294.56,-59.19 289.88,-56.71 289.36,-60.17"/>
</g>
<!-- ModelEntity -->
<g id="node2" class="node">
<title>ModelEntity</title>
<g id="a_node2"><a xlink:title="``ModelEntity`` is the base&#45;class for all classes in the VHDL language model, except for mixin classes (see multiple">
<polygon fill="white" stroke="#1e90ff" points="100,-56 25,-56 25,-37 100,-37 100,-56"/>
<text text-anchor="middle" x="62.5" y="-44" font-family="Vera Sans, DejaVu Sans, Liberation Sans, Arial, Helvetica, sans" font-size="10.00">ModelEntity</text>
</a>
</g>
</g>
<!-- ModelEntity&#45;&gt;Branch -->
<g id="edge1" class="edge">
<title>ModelEntity&#45;&gt;Branch</title>
<path fill="none" stroke="black" stroke-width="0.5" d="M100.22,-46.5C124.17,-46.5 155.09,-46.5 177.84,-46.5"/>
<polygon fill="black" stroke="black" stroke-width="0.5" points="177.85,-48.25 182.85,-46.5 177.85,-44.75 177.85,-48.25"/>
</g>
<!-- SequentialStatements -->
<g id="node3" class="node">
<title>SequentialStatements</title>
<polygon fill="white" stroke="#1e90ff" points="125,-19 0,-19 0,0 125,0 125,-19"/>
<text text-anchor="middle" x="62.5" y="-7" font-family="Vera Sans, DejaVu Sans, Liberation Sans, Arial, Helvetica, sans" font-size="10.00">SequentialStatements</text>
</g>
<!-- SequentialStatements&#45;&gt;Branch -->
<g id="edge2" class="edge">
<title>SequentialStatements&#45;&gt;Branch</title>
<path fill="none" stroke="black" stroke-width="0.5" d="M100.97,-19.03C124.77,-25.08 155.21,-32.82 177.71,-38.54"/>
<polygon fill="black" stroke="black" stroke-width="0.5" points="177.4,-40.27 182.67,-39.8 178.26,-36.88 177.4,-40.27"/>
</g>
<!-- BranchMixin -->
<g id="node4" class="node">
<title>BranchMixin</title>
<g id="a_node4"><a xlink:title="A ``BaseBranch`` is a mixin&#45;class for all statements with branches.">
<polygon fill="white" stroke="#1e90ff" points="101,-93 24,-93 24,-74 101,-74 101,-93"/>
<text text-anchor="middle" x="62.5" y="-81" font-family="Vera Sans, DejaVu Sans, Liberation Sans, Arial, Helvetica, sans" font-size="10.00">BranchMixin</text>
</a>
</g>
</g>
<!-- ElseBranchMixin -->
<g id="node6" class="node">
<title>ElseBranchMixin</title>
<g id="a_node6"><a xlink:title="A ``BaseElseBranch`` is a mixin&#45;class for all else&#45;branches.">
<polygon fill="white" stroke="#1e90ff" points="259,-93 161,-93 161,-74 259,-74 259,-93"/>
<text text-anchor="middle" x="210" y="-81" font-family="Vera Sans, DejaVu Sans, Liberation Sans, Arial, Helvetica, sans" font-size="10.00">ElseBranchMixin</text>
</a>
</g>
</g>
<!-- BranchMixin&#45;&gt;ElseBranchMixin -->
<g id="edge6" class="edge">
<title>BranchMixin&#45;&gt;ElseBranchMixin</title>
<path fill="none" stroke="black" stroke-width="0.5" d="M101.35,-83.5C117.97,-83.5 137.78,-83.5 155.85,-83.5"/>
<polygon fill="black" stroke="black" stroke-width="0.5" points="155.9,-85.25 160.9,-83.5 155.9,-81.75 155.9,-85.25"/>
</g>
<!-- ElseBranch&#45;&gt;ElseBranch -->
<g id="edge3" class="edge">
<title>ElseBranch&#45;&gt;ElseBranch</title>
<path fill="none" stroke="black" stroke-width="0.5" d="M312,-74.08C303.01,-82.73 309.17,-92 330.5,-92 348.5,-92 355.7,-85.4 352.1,-78.15"/>
<polygon fill="black" stroke="black" stroke-width="0.5" points="353.42,-76.99 349,-74.08 350.64,-79.12 353.42,-76.99"/>
</g>
<!-- ElseBranchMixin&#45;&gt;ElseBranch -->
<g id="edge5" class="edge">
<title>ElseBranchMixin&#45;&gt;ElseBranch</title>
<path fill="none" stroke="black" stroke-width="0.5" d="M259.2,-75.77C269.35,-74.14 279.95,-72.45 289.74,-70.87"/>
<polygon fill="black" stroke="black" stroke-width="0.5" points="290.13,-72.59 294.79,-70.07 289.57,-69.13 290.13,-72.59"/>
</g>
</g>
</svg>
