<?xml version="1.0" encoding="UTF-8" standalone="no"?>
<!DOCTYPE svg PUBLIC "-//W3C//DTD SVG 1.1//EN"
 "http://www.w3.org/Graphics/SVG/1.1/DTD/svg11.dtd">
<!-- Generated by graphviz version 2.43.0 (0)
 -->
<!-- Title: inheritance0422672534 Pages: 1 -->
<svg width="302pt" height="64pt"
 viewBox="0.00 0.00 302.00 64.00" xmlns="http://www.w3.org/2000/svg" xmlns:xlink="http://www.w3.org/1999/xlink">
<g id="graph0" class="graph" transform="scale(1 1) rotate(0) translate(4 60)">
<title>inheritance0422672534</title>
<!-- DOMMixin -->
<g id="node1" class="node">
<title>DOMMixin</title>
<g id="a_node1"><a xlink:href="../pyGHDL.dom.html#pyGHDL.dom.DOMMixin" xlink:title="DOMMixin" target="_top">
<polygon fill="white" stroke="#1e90ff" points="68,-56 0,-56 0,-37 68,-37 68,-56"/>
<text text-anchor="middle" x="34" y="-44" font-family="Vera Sans, DejaVu Sans, Liberation Sans, Arial, Helvetica, sans" font-size="10.00">DOMMixin</text>
</a>
</g>
</g>
<!-- SimpleObjectOrFunctionCallSymbol -->
<g id="node2" class="node">
<title>SimpleObjectOrFunctionCallSymbol</title>
<g id="a_node2"><a xlink:href="../pyGHDL/pyGHDL.dom.Symbol.html#pyGHDL.dom.Symbol.SimpleObjectOrFunctionCallSymbol" xlink:title="SimpleObjectOrFunctionCallSymbol" target="_top">
<polygon fill="white" stroke="#1e90ff" points="294,-37 104,-37 104,-18 294,-18 294,-37"/>
<text text-anchor="middle" x="199" y="-25" font-family="Vera Sans, DejaVu Sans, Liberation Sans, Arial, Helvetica, sans" font-size="10.00">SimpleObjectOrFunctionCallSymbol</text>
</a>
</g>
</g>
<!-- DOMMixin&#45;&gt;SimpleObjectOrFunctionCallSymbol -->
<g id="edge2" class="edge">
<title>DOMMixin&#45;&gt;SimpleObjectOrFunctionCallSymbol</title>
<path fill="none" stroke="black" stroke-width="0.5" d="M68.38,-42.61C80.93,-41.15 95.86,-39.41 111.03,-37.64"/>
<polygon fill="black" stroke="black" stroke-width="0.5" points="111.42,-39.35 116.19,-37.04 111.02,-35.88 111.42,-39.35"/>
</g>
<!-- SimpleObjectOrFunctionCallSymbol&#45;&gt;SimpleObjectOrFunctionCallSymbol -->
<g id="edge1" class="edge">
<title>SimpleObjectOrFunctionCallSymbol&#45;&gt;SimpleObjectOrFunctionCallSymbol</title>
<path fill="none" stroke="black" stroke-width="0.5" d="M173.72,-37.08C161.43,-45.73 169.85,-55 199,-55 224.05,-55 233.79,-48.16 228.24,-40.74"/>
<polygon fill="black" stroke="black" stroke-width="0.5" points="229.14,-39.19 224.28,-37.08 226.76,-41.76 229.14,-39.19"/>
</g>
<!-- Symbol -->
<g id="node3" class="node">
<title>Symbol</title>
<polygon fill="white" stroke="#1e90ff" points="61,-19 7,-19 7,0 61,0 61,-19"/>
<text text-anchor="middle" x="34" y="-7" font-family="Vera Sans, DejaVu Sans, Liberation Sans, Arial, Helvetica, sans" font-size="10.00">Symbol</text>
</g>
<!-- Symbol&#45;&gt;SimpleObjectOrFunctionCallSymbol -->
<g id="edge3" class="edge">
<title>Symbol&#45;&gt;SimpleObjectOrFunctionCallSymbol</title>
<path fill="none" stroke="black" stroke-width="0.5" d="M61.19,-12.39C73.91,-13.8 90.04,-15.58 106.72,-17.42"/>
<polygon fill="black" stroke="black" stroke-width="0.5" points="106.75,-19.18 111.91,-17.99 107.14,-15.71 106.75,-19.18"/>
</g>
</g>
</svg>
