<?xml version="1.0" encoding="UTF-8" standalone="no"?>
<!DOCTYPE svg PUBLIC "-//W3C//DTD SVG 1.1//EN"
 "http://www.w3.org/Graphics/SVG/1.1/DTD/svg11.dtd">
<!-- Generated by graphviz version 2.43.0 (0)
 -->
<!-- Title: inheritanced5aa910387 Pages: 1 -->
<svg width="273pt" height="27pt"
 viewBox="0.00 0.00 273.00 27.00" xmlns="http://www.w3.org/2000/svg" xmlns:xlink="http://www.w3.org/1999/xlink">
<g id="graph0" class="graph" transform="scale(1 1) rotate(0) translate(4 23)">
<title>inheritanced5aa910387</title>
<!-- Enum -->
<g id="node1" class="node">
<title>Enum</title>
<g id="a_node1"><a xlink:title="Generic enumeration.">
<polygon fill="white" stroke="#1e90ff" points="54,-19 0,-19 0,0 54,0 54,-19"/>
<text text-anchor="middle" x="27" y="-7" font-family="Vera Sans, DejaVu Sans, Liberation Sans, Arial, Helvetica, sans" font-size="10.00">Enum</text>
</a>
</g>
</g>
<!-- IntEnum -->
<g id="node2" class="node">
<title>IntEnum</title>
<g id="a_node2"><a xlink:title="Enum where members are also (and must be) ints">
<polygon fill="white" stroke="#1e90ff" points="147,-19 90,-19 90,0 147,0 147,-19"/>
<text text-anchor="middle" x="118.5" y="-7" font-family="Vera Sans, DejaVu Sans, Liberation Sans, Arial, Helvetica, sans" font-size="10.00">IntEnum</text>
</a>
</g>
</g>
<!-- Enum&#45;&gt;IntEnum -->
<g id="edge1" class="edge">
<title>Enum&#45;&gt;IntEnum</title>
<path fill="none" stroke="black" stroke-width="0.5" d="M54.37,-9.5C63.85,-9.5 74.67,-9.5 84.64,-9.5"/>
<polygon fill="black" stroke="black" stroke-width="0.5" points="84.76,-11.25 89.76,-9.5 84.76,-7.75 84.76,-11.25"/>
</g>
<!-- VhdlStandard -->
<g id="node3" class="node">
<title>VhdlStandard</title>
<g id="a_node3"><a xlink:href="../pyGHDL/pyGHDL.libghdl.flags.html#pyGHDL.libghdl.flags.VhdlStandard" xlink:title="An enumeration representing libghdl&#39;s internal ``Vhdl_Std_Type`` enumeration type." target="_top">
<polygon fill="white" stroke="#1e90ff" points="265,-19 183,-19 183,0 265,0 265,-19"/>
<text text-anchor="middle" x="224" y="-7" font-family="Vera Sans, DejaVu Sans, Liberation Sans, Arial, Helvetica, sans" font-size="10.00">VhdlStandard</text>
</a>
</g>
</g>
<!-- IntEnum&#45;&gt;VhdlStandard -->
<g id="edge2" class="edge">
<title>IntEnum&#45;&gt;VhdlStandard</title>
<path fill="none" stroke="black" stroke-width="0.5" d="M147.24,-9.5C156.6,-9.5 167.32,-9.5 177.68,-9.5"/>
<polygon fill="black" stroke="black" stroke-width="0.5" points="177.73,-11.25 182.73,-9.5 177.73,-7.75 177.73,-11.25"/>
</g>
</g>
</svg>
