<?xml version="1.0" encoding="UTF-8" standalone="no"?>
<!DOCTYPE svg PUBLIC "-//W3C//DTD SVG 1.1//EN"
 "http://www.w3.org/Graphics/SVG/1.1/DTD/svg11.dtd">
<!-- Generated by graphviz version 2.43.0 (0)
 -->
<!-- Title: inheritancef8ac694c51 Pages: 1 -->
<svg width="576pt" height="71pt"
 viewBox="0.00 0.00 576.00 71.46" xmlns="http://www.w3.org/2000/svg" xmlns:xlink="http://www.w3.org/1999/xlink">
<g id="graph0" class="graph" transform="scale(1.15 1.15) rotate(0) translate(4 78)">
<title>inheritancef8ac694c51</title>
<!-- CaseStatement -->
<g id="node1" class="node">
<title>CaseStatement</title>
<g id="a_node1"><a xlink:href="../pyGHDL/pyGHDL.dom.Sequential.html#pyGHDL.dom.Sequential.CaseStatement" xlink:title="CaseStatement" target="_top">
<polygon fill="white" stroke="#1e90ff" points="653,-55 561,-55 561,-36 653,-36 653,-55"/>
<text text-anchor="middle" x="607" y="-43" font-family="Vera Sans, DejaVu Sans, Liberation Sans, Arial, Helvetica, sans" font-size="10.00">CaseStatement</text>
</a>
</g>
</g>
<!-- CaseStatement&#45;&gt;CaseStatement -->
<g id="edge1" class="edge">
<title>CaseStatement&#45;&gt;CaseStatement</title>
<path fill="none" stroke="black" stroke-width="0.5" d="M585.11,-55.08C574.47,-63.73 581.76,-73 607,-73 628.69,-73 637.13,-66.16 632.31,-58.74"/>
<polygon fill="black" stroke="black" stroke-width="0.5" points="633.58,-57.54 628.89,-55.08 631.03,-59.93 633.58,-57.54"/>
</g>
<!-- DOMMixin -->
<g id="node2" class="node">
<title>DOMMixin</title>
<g id="a_node2"><a xlink:href="../pyGHDL.dom.html#pyGHDL.dom.DOMMixin" xlink:title="DOMMixin" target="_top">
<polygon fill="white" stroke="#1e90ff" points="499,-74 431,-74 431,-55 499,-55 499,-74"/>
<text text-anchor="middle" x="465" y="-62" font-family="Vera Sans, DejaVu Sans, Liberation Sans, Arial, Helvetica, sans" font-size="10.00">DOMMixin</text>
</a>
</g>
</g>
<!-- DOMMixin&#45;&gt;CaseStatement -->
<g id="edge2" class="edge">
<title>DOMMixin&#45;&gt;CaseStatement</title>
<path fill="none" stroke="black" stroke-width="0.5" d="M499.18,-60C516.03,-57.71 536.86,-54.88 555.64,-52.33"/>
<polygon fill="black" stroke="black" stroke-width="0.5" points="556.16,-54.03 560.88,-51.62 555.69,-50.56 556.16,-54.03"/>
</g>
<!-- CompoundStatement -->
<g id="node3" class="node">
<title>CompoundStatement</title>
<g id="a_node3"><a xlink:title="A ``CompoundStatement`` is a base&#45;class for all compound statements.">
<polygon fill="white" stroke="#1e90ff" points="525,-37 405,-37 405,-18 525,-18 525,-37"/>
<text text-anchor="middle" x="465" y="-25" font-family="Vera Sans, DejaVu Sans, Liberation Sans, Arial, Helvetica, sans" font-size="10.00">CompoundStatement</text>
</a>
</g>
</g>
<!-- CompoundStatement&#45;&gt;CaseStatement -->
<g id="edge3" class="edge">
<title>CompoundStatement&#45;&gt;CaseStatement</title>
<path fill="none" stroke="black" stroke-width="0.5" d="M525.37,-35.13C535.53,-36.44 545.99,-37.78 555.87,-39.05"/>
<polygon fill="black" stroke="black" stroke-width="0.5" points="555.8,-40.81 560.98,-39.71 556.24,-37.34 555.8,-40.81"/>
</g>
<!-- SequentialStatement -->
<g id="node4" class="node">
<title>SequentialStatement</title>
<g id="a_node4"><a xlink:title="A ``SequentialStatement`` is a base&#45;class for all sequential statements.">
<polygon fill="white" stroke="#1e90ff" points="369,-37 250,-37 250,-18 369,-18 369,-37"/>
<text text-anchor="middle" x="309.5" y="-25" font-family="Vera Sans, DejaVu Sans, Liberation Sans, Arial, Helvetica, sans" font-size="10.00">SequentialStatement</text>
</a>
</g>
</g>
<!-- SequentialStatement&#45;&gt;CompoundStatement -->
<g id="edge4" class="edge">
<title>SequentialStatement&#45;&gt;CompoundStatement</title>
<path fill="none" stroke="black" stroke-width="0.5" d="M369.41,-27.5C379.34,-27.5 389.7,-27.5 399.76,-27.5"/>
<polygon fill="black" stroke="black" stroke-width="0.5" points="400,-29.25 405,-27.5 400,-25.75 400,-29.25"/>
</g>
<!-- LabeledEntityMixin -->
<g id="node5" class="node">
<title>LabeledEntityMixin</title>
<g id="a_node5"><a xlink:title="A ``LabeledEntityMixin`` is a mixin class for all VHDL entities that can have labels.">
<polygon fill="white" stroke="#1e90ff" points="110,-56 0,-56 0,-37 110,-37 110,-56"/>
<text text-anchor="middle" x="55" y="-44" font-family="Vera Sans, DejaVu Sans, Liberation Sans, Arial, Helvetica, sans" font-size="10.00">LabeledEntityMixin</text>
</a>
</g>
</g>
<!-- Statement -->
<g id="node7" class="node">
<title>Statement</title>
<g id="a_node7"><a xlink:title="A ``Statement`` is a base&#45;class for all statements.">
<polygon fill="white" stroke="#1e90ff" points="214,-37 146,-37 146,-18 214,-18 214,-37"/>
<text text-anchor="middle" x="180" y="-25" font-family="Vera Sans, DejaVu Sans, Liberation Sans, Arial, Helvetica, sans" font-size="10.00">Statement</text>
</a>
</g>
</g>
<!-- LabeledEntityMixin&#45;&gt;Statement -->
<g id="edge7" class="edge">
<title>LabeledEntityMixin&#45;&gt;Statement</title>
<path fill="none" stroke="black" stroke-width="0.5" d="M110.31,-38.11C120.61,-36.52 131.19,-34.89 140.86,-33.39"/>
<polygon fill="black" stroke="black" stroke-width="0.5" points="141.15,-35.12 145.83,-32.62 140.62,-31.66 141.15,-35.12"/>
</g>
<!-- ModelEntity -->
<g id="node6" class="node">
<title>ModelEntity</title>
<g id="a_node6"><a xlink:title="``ModelEntity`` is the base&#45;class for all classes in the VHDL language model, except for mixin classes (see multiple">
<polygon fill="white" stroke="#1e90ff" points="92.5,-19 17.5,-19 17.5,0 92.5,0 92.5,-19"/>
<text text-anchor="middle" x="55" y="-7" font-family="Vera Sans, DejaVu Sans, Liberation Sans, Arial, Helvetica, sans" font-size="10.00">ModelEntity</text>
</a>
</g>
</g>
<!-- ModelEntity&#45;&gt;Statement -->
<g id="edge6" class="edge">
<title>ModelEntity&#45;&gt;Statement</title>
<path fill="none" stroke="black" stroke-width="0.5" d="M92.57,-14.85C107.71,-17.07 125.28,-19.64 140.61,-21.88"/>
<polygon fill="black" stroke="black" stroke-width="0.5" points="140.51,-23.64 145.72,-22.63 141.02,-20.17 140.51,-23.64"/>
</g>
<!-- Statement&#45;&gt;SequentialStatement -->
<g id="edge5" class="edge">
<title>Statement&#45;&gt;SequentialStatement</title>
<path fill="none" stroke="black" stroke-width="0.5" d="M214.17,-27.5C223.55,-27.5 234.09,-27.5 244.64,-27.5"/>
<polygon fill="black" stroke="black" stroke-width="0.5" points="244.81,-29.25 249.81,-27.5 244.81,-25.75 244.81,-29.25"/>
</g>
</g>
</svg>
