<?xml version="1.0" encoding="UTF-8" standalone="no"?>
<!DOCTYPE svg PUBLIC "-//W3C//DTD SVG 1.1//EN"
 "http://www.w3.org/Graphics/SVG/1.1/DTD/svg11.dtd">
<!-- Generated by graphviz version 2.43.0 (0)
 -->
<!-- Title: inheritance83b5855a00 Pages: 1 -->
<svg width="502pt" height="138pt"
 viewBox="0.00 0.00 502.00 138.00" xmlns="http://www.w3.org/2000/svg" xmlns:xlink="http://www.w3.org/1999/xlink">
<g id="graph0" class="graph" transform="scale(1 1) rotate(0) translate(4 134)">
<title>inheritance83b5855a00</title>
<!-- BaseCase -->
<g id="node1" class="node">
<title>BaseCase</title>
<g id="a_node1"><a xlink:title="A ``Case`` is a base&#45;class for all cases.">
<polygon fill="white" stroke="#1e90ff" points="209,-19 144,-19 144,0 209,0 209,-19"/>
<text text-anchor="middle" x="176.5" y="-7" font-family="Vera Sans, DejaVu Sans, Liberation Sans, Arial, Helvetica, sans" font-size="10.00">BaseCase</text>
</a>
</g>
</g>
<!-- ConcurrentCase -->
<g id="node3" class="node">
<title>ConcurrentCase</title>
<polygon fill="white" stroke="#1e90ff" points="372,-74 278,-74 278,-55 372,-55 372,-74"/>
<text text-anchor="middle" x="325" y="-62" font-family="Vera Sans, DejaVu Sans, Liberation Sans, Arial, Helvetica, sans" font-size="10.00">ConcurrentCase</text>
</g>
<!-- BaseCase&#45;&gt;ConcurrentCase -->
<g id="edge2" class="edge">
<title>BaseCase&#45;&gt;ConcurrentCase</title>
<path fill="none" stroke="black" stroke-width="0.5" d="M209.26,-17.98C219.77,-21.02 231.47,-24.66 242,-28.5 261.59,-35.65 283.16,-45.19 299.26,-52.65"/>
<polygon fill="black" stroke="black" stroke-width="0.5" points="298.8,-54.37 304.07,-54.9 300.28,-51.2 298.8,-54.37"/>
</g>
<!-- ModelEntity -->
<g id="node2" class="node">
<title>ModelEntity</title>
<g id="a_node2"><a xlink:title="``ModelEntity`` is the base&#45;class for all classes in the VHDL language model, except for mixin classes (see multiple">
<polygon fill="white" stroke="#1e90ff" points="75,-19 0,-19 0,0 75,0 75,-19"/>
<text text-anchor="middle" x="37.5" y="-7" font-family="Vera Sans, DejaVu Sans, Liberation Sans, Arial, Helvetica, sans" font-size="10.00">ModelEntity</text>
</a>
</g>
</g>
<!-- ModelEntity&#45;&gt;BaseCase -->
<g id="edge1" class="edge">
<title>ModelEntity&#45;&gt;BaseCase</title>
<path fill="none" stroke="black" stroke-width="0.5" d="M75.21,-9.5C94.86,-9.5 118.98,-9.5 138.65,-9.5"/>
<polygon fill="black" stroke="black" stroke-width="0.5" points="138.81,-11.25 143.81,-9.5 138.81,-7.75 138.81,-11.25"/>
</g>
<!-- GenerateCase -->
<g id="node8" class="node">
<title>GenerateCase</title>
<g id="a_node8"><a xlink:href="../pyGHDL/pyGHDL.dom.Concurrent.html#pyGHDL.dom.Concurrent.GenerateCase" xlink:title="GenerateCase" target="_top">
<polygon fill="white" stroke="#1e90ff" points="494,-92 408,-92 408,-73 494,-73 494,-92"/>
<text text-anchor="middle" x="451" y="-80" font-family="Vera Sans, DejaVu Sans, Liberation Sans, Arial, Helvetica, sans" font-size="10.00">GenerateCase</text>
</a>
</g>
</g>
<!-- ConcurrentCase&#45;&gt;GenerateCase -->
<g id="edge8" class="edge">
<title>ConcurrentCase&#45;&gt;GenerateCase</title>
<path fill="none" stroke="black" stroke-width="0.5" d="M372.17,-71.2C382.14,-72.65 392.69,-74.18 402.7,-75.63"/>
<polygon fill="black" stroke="black" stroke-width="0.5" points="402.68,-77.4 407.88,-76.39 403.19,-73.94 402.68,-77.4"/>
</g>
<!-- LabeledEntityMixin -->
<g id="node4" class="node">
<title>LabeledEntityMixin</title>
<g id="a_node4"><a xlink:title="A ``LabeledEntityMixin`` is a mixin class for all VHDL entities that can have labels.">
<polygon fill="white" stroke="#1e90ff" points="231.5,-130 121.5,-130 121.5,-111 231.5,-111 231.5,-130"/>
<text text-anchor="middle" x="176.5" y="-118" font-family="Vera Sans, DejaVu Sans, Liberation Sans, Arial, Helvetica, sans" font-size="10.00">LabeledEntityMixin</text>
</a>
</g>
</g>
<!-- LabeledEntityMixin&#45;&gt;ConcurrentCase -->
<g id="edge3" class="edge">
<title>LabeledEntityMixin&#45;&gt;ConcurrentCase</title>
<path fill="none" stroke="black" stroke-width="0.5" d="M216.83,-110.97C225.25,-108.53 234.01,-105.68 242,-102.5 258.81,-95.81 261.62,-91.18 278,-83.5 283.38,-80.98 289.18,-78.44 294.8,-76.08"/>
<polygon fill="black" stroke="black" stroke-width="0.5" points="295.52,-77.67 299.46,-74.14 294.17,-74.44 295.52,-77.67"/>
</g>
<!-- ConcurrentDeclarations -->
<g id="node5" class="node">
<title>ConcurrentDeclarations</title>
<polygon fill="white" stroke="#1e90ff" points="242,-93 111,-93 111,-74 242,-74 242,-93"/>
<text text-anchor="middle" x="176.5" y="-81" font-family="Vera Sans, DejaVu Sans, Liberation Sans, Arial, Helvetica, sans" font-size="10.00">ConcurrentDeclarations</text>
</g>
<!-- ConcurrentDeclarations&#45;&gt;ConcurrentCase -->
<g id="edge4" class="edge">
<title>ConcurrentDeclarations&#45;&gt;ConcurrentCase</title>
<path fill="none" stroke="black" stroke-width="0.5" d="M242.18,-75.11C252.37,-73.79 262.77,-72.44 272.6,-71.17"/>
<polygon fill="black" stroke="black" stroke-width="0.5" points="272.95,-72.89 277.68,-70.51 272.5,-69.41 272.95,-72.89"/>
</g>
<!-- ConcurrentStatements -->
<g id="node6" class="node">
<title>ConcurrentStatements</title>
<polygon fill="white" stroke="#1e90ff" points="239.5,-56 113.5,-56 113.5,-37 239.5,-37 239.5,-56"/>
<text text-anchor="middle" x="176.5" y="-44" font-family="Vera Sans, DejaVu Sans, Liberation Sans, Arial, Helvetica, sans" font-size="10.00">ConcurrentStatements</text>
</g>
<!-- ConcurrentStatements&#45;&gt;ConcurrentCase -->
<g id="edge5" class="edge">
<title>ConcurrentStatements&#45;&gt;ConcurrentCase</title>
<path fill="none" stroke="black" stroke-width="0.5" d="M239.63,-54.13C250.62,-55.48 261.95,-56.88 272.61,-58.19"/>
<polygon fill="black" stroke="black" stroke-width="0.5" points="272.6,-59.95 277.78,-58.82 273.03,-56.47 272.6,-59.95"/>
</g>
<!-- DOMMixin -->
<g id="node7" class="node">
<title>DOMMixin</title>
<g id="a_node7"><a xlink:href="../pyGHDL.dom.html#pyGHDL.dom.DOMMixin" xlink:title="DOMMixin" target="_top">
<polygon fill="white" stroke="#1e90ff" points="359,-111 291,-111 291,-92 359,-92 359,-111"/>
<text text-anchor="middle" x="325" y="-99" font-family="Vera Sans, DejaVu Sans, Liberation Sans, Arial, Helvetica, sans" font-size="10.00">DOMMixin</text>
</a>
</g>
</g>
<!-- DOMMixin&#45;&gt;GenerateCase -->
<g id="edge7" class="edge">
<title>DOMMixin&#45;&gt;GenerateCase</title>
<path fill="none" stroke="black" stroke-width="0.5" d="M359.23,-96.41C372.52,-94.37 388.08,-91.99 402.52,-89.78"/>
<polygon fill="black" stroke="black" stroke-width="0.5" points="403.1,-91.46 407.78,-88.97 402.57,-88 403.1,-91.46"/>
</g>
<!-- GenerateCase&#45;&gt;GenerateCase -->
<g id="edge6" class="edge">
<title>GenerateCase&#45;&gt;GenerateCase</title>
<path fill="none" stroke="black" stroke-width="0.5" d="M431.58,-92.08C422.13,-100.73 428.61,-110 451,-110 469.9,-110 477.46,-103.4 473.68,-96.15"/>
<polygon fill="black" stroke="black" stroke-width="0.5" points="474.92,-94.89 470.42,-92.08 472.19,-97.08 474.92,-94.89"/>
</g>
</g>
</svg>
