<?xml version="1.0" encoding="UTF-8" standalone="no"?>
<!DOCTYPE svg PUBLIC "-//W3C//DTD SVG 1.1//EN"
 "http://www.w3.org/Graphics/SVG/1.1/DTD/svg11.dtd">
<!-- Generated by graphviz version 2.43.0 (0)
 -->
<!-- Title: inheritanced40cf71c63 Pages: 1 -->
<svg width="497pt" height="64pt"
 viewBox="0.00 0.00 497.00 64.00" xmlns="http://www.w3.org/2000/svg" xmlns:xlink="http://www.w3.org/1999/xlink">
<g id="graph0" class="graph" transform="scale(1 1) rotate(0) translate(4 60)">
<title>inheritanced40cf71c63</title>
<!-- AbsoluteExpression -->
<g id="node1" class="node">
<title>AbsoluteExpression</title>
<g id="a_node1"><a xlink:href="../pyGHDL/pyGHDL.dom.Expression.html#pyGHDL.dom.Expression.AbsoluteExpression" xlink:title="AbsoluteExpression" target="_top">
<polygon fill="white" stroke="#1e90ff" points="489,-37 376,-37 376,-18 489,-18 489,-37"/>
<text text-anchor="middle" x="432.5" y="-25" font-family="Vera Sans, DejaVu Sans, Liberation Sans, Arial, Helvetica, sans" font-size="10.00">AbsoluteExpression</text>
</a>
</g>
</g>
<!-- AbsoluteExpression&#45;&gt;AbsoluteExpression -->
<g id="edge1" class="edge">
<title>AbsoluteExpression&#45;&gt;AbsoluteExpression</title>
<path fill="none" stroke="black" stroke-width="0.5" d="M410.61,-37.08C399.97,-45.73 407.26,-55 432.5,-55 454.19,-55 462.63,-48.16 457.81,-40.74"/>
<polygon fill="black" stroke="black" stroke-width="0.5" points="459.08,-39.54 454.39,-37.08 456.53,-41.93 459.08,-39.54"/>
</g>
<!-- DOMMixin -->
<g id="node2" class="node">
<title>DOMMixin</title>
<g id="a_node2"><a xlink:href="../pyGHDL.dom.html#pyGHDL.dom.DOMMixin" xlink:title="DOMMixin" target="_top">
<polygon fill="white" stroke="#1e90ff" points="324.5,-56 256.5,-56 256.5,-37 324.5,-37 324.5,-56"/>
<text text-anchor="middle" x="290.5" y="-44" font-family="Vera Sans, DejaVu Sans, Liberation Sans, Arial, Helvetica, sans" font-size="10.00">DOMMixin</text>
</a>
</g>
</g>
<!-- DOMMixin&#45;&gt;AbsoluteExpression -->
<g id="edge2" class="edge">
<title>DOMMixin&#45;&gt;AbsoluteExpression</title>
<path fill="none" stroke="black" stroke-width="0.5" d="M324.68,-42C338.41,-40.13 354.78,-37.91 370.53,-35.77"/>
<polygon fill="black" stroke="black" stroke-width="0.5" points="371.13,-37.46 375.85,-35.05 370.66,-33.99 371.13,-37.46"/>
</g>
<!-- UnaryExpression -->
<g id="node3" class="node">
<title>UnaryExpression</title>
<g id="a_node3"><a xlink:title="A ``UnaryExpression`` is a base&#45;class for all unary expressions.">
<polygon fill="white" stroke="#1e90ff" points="340,-19 241,-19 241,0 340,0 340,-19"/>
<text text-anchor="middle" x="290.5" y="-7" font-family="Vera Sans, DejaVu Sans, Liberation Sans, Arial, Helvetica, sans" font-size="10.00">UnaryExpression</text>
</a>
</g>
</g>
<!-- UnaryExpression&#45;&gt;AbsoluteExpression -->
<g id="edge3" class="edge">
<title>UnaryExpression&#45;&gt;AbsoluteExpression</title>
<path fill="none" stroke="black" stroke-width="0.5" d="M340.07,-15.75C349.98,-17.02 360.52,-18.37 370.8,-19.7"/>
<polygon fill="black" stroke="black" stroke-width="0.5" points="370.63,-21.44 375.81,-20.34 371.08,-17.97 370.63,-21.44"/>
</g>
<!-- BaseExpression -->
<g id="node4" class="node">
<title>BaseExpression</title>
<g id="a_node4"><a xlink:title="A ``BaseExpression`` is a base&#45;class for all expressions.">
<polygon fill="white" stroke="#1e90ff" points="205,-19 111,-19 111,0 205,0 205,-19"/>
<text text-anchor="middle" x="158" y="-7" font-family="Vera Sans, DejaVu Sans, Liberation Sans, Arial, Helvetica, sans" font-size="10.00">BaseExpression</text>
</a>
</g>
</g>
<!-- BaseExpression&#45;&gt;UnaryExpression -->
<g id="edge5" class="edge">
<title>BaseExpression&#45;&gt;UnaryExpression</title>
<path fill="none" stroke="black" stroke-width="0.5" d="M205.01,-9.5C214.88,-9.5 225.4,-9.5 235.54,-9.5"/>
<polygon fill="black" stroke="black" stroke-width="0.5" points="235.81,-11.25 240.81,-9.5 235.81,-7.75 235.81,-11.25"/>
</g>
<!-- ModelEntity -->
<g id="node5" class="node">
<title>ModelEntity</title>
<g id="a_node5"><a xlink:title="``ModelEntity`` is the base&#45;class for all classes in the VHDL language model, except for mixin classes (see multiple">
<polygon fill="white" stroke="#1e90ff" points="75,-19 0,-19 0,0 75,0 75,-19"/>
<text text-anchor="middle" x="37.5" y="-7" font-family="Vera Sans, DejaVu Sans, Liberation Sans, Arial, Helvetica, sans" font-size="10.00">ModelEntity</text>
</a>
</g>
</g>
<!-- ModelEntity&#45;&gt;BaseExpression -->
<g id="edge4" class="edge">
<title>ModelEntity&#45;&gt;BaseExpression</title>
<path fill="none" stroke="black" stroke-width="0.5" d="M75.02,-9.5C84.72,-9.5 95.38,-9.5 105.71,-9.5"/>
<polygon fill="black" stroke="black" stroke-width="0.5" points="105.75,-11.25 110.75,-9.5 105.75,-7.75 105.75,-11.25"/>
</g>
</g>
</svg>
