<?xml version="1.0" encoding="UTF-8" standalone="no"?>
<!DOCTYPE svg PUBLIC "-//W3C//DTD SVG 1.1//EN"
 "http://www.w3.org/Graphics/SVG/1.1/DTD/svg11.dtd">
<!-- Generated by graphviz version 2.43.0 (0)
 -->
<!-- Title: inheritance04dca26561 Pages: 1 -->
<svg width="562pt" height="101pt"
 viewBox="0.00 0.00 562.00 101.00" xmlns="http://www.w3.org/2000/svg" xmlns:xlink="http://www.w3.org/1999/xlink">
<g id="graph0" class="graph" transform="scale(1 1) rotate(0) translate(4 97)">
<title>inheritance04dca26561</title>
<!-- ArrayType -->
<g id="node1" class="node">
<title>ArrayType</title>
<g id="a_node1"><a xlink:href="../pyGHDL/pyGHDL.dom.Type.html#pyGHDL.dom.Type.ArrayType" xlink:title="ArrayType" target="_top">
<polygon fill="white" stroke="#1e90ff" points="554,-74 489,-74 489,-55 554,-55 554,-74"/>
<text text-anchor="middle" x="521.5" y="-62" font-family="Vera Sans, DejaVu Sans, Liberation Sans, Arial, Helvetica, sans" font-size="10.00">ArrayType</text>
</a>
</g>
</g>
<!-- ArrayType&#45;&gt;ArrayType -->
<g id="edge1" class="edge">
<title>ArrayType&#45;&gt;ArrayType</title>
<path fill="none" stroke="black" stroke-width="0.5" d="M503.93,-74.08C495.38,-82.73 501.24,-92 521.5,-92 538.6,-92 545.44,-85.4 542.02,-78.15"/>
<polygon fill="black" stroke="black" stroke-width="0.5" points="543.43,-77.1 539.07,-74.08 540.59,-79.16 543.43,-77.1"/>
</g>
<!-- DOMMixin -->
<g id="node2" class="node">
<title>DOMMixin</title>
<g id="a_node2"><a xlink:href="../pyGHDL.dom.html#pyGHDL.dom.DOMMixin" xlink:title="DOMMixin" target="_top">
<polygon fill="white" stroke="#1e90ff" points="441,-93 373,-93 373,-74 441,-74 441,-93"/>
<text text-anchor="middle" x="407" y="-81" font-family="Vera Sans, DejaVu Sans, Liberation Sans, Arial, Helvetica, sans" font-size="10.00">DOMMixin</text>
</a>
</g>
</g>
<!-- DOMMixin&#45;&gt;ArrayType -->
<g id="edge2" class="edge">
<title>DOMMixin&#45;&gt;ArrayType</title>
<path fill="none" stroke="black" stroke-width="0.5" d="M441.15,-77.9C454.54,-75.64 470.04,-73.02 483.78,-70.7"/>
<polygon fill="black" stroke="black" stroke-width="0.5" points="484.11,-72.42 488.75,-69.86 483.53,-68.97 484.11,-72.42"/>
</g>
<!-- CompositeType -->
<g id="node3" class="node">
<title>CompositeType</title>
<g id="a_node3"><a xlink:title="A ``CompositeType`` is a base&#45;class for all composite types.">
<polygon fill="white" stroke="#1e90ff" points="453,-56 361,-56 361,-37 453,-37 453,-56"/>
<text text-anchor="middle" x="407" y="-44" font-family="Vera Sans, DejaVu Sans, Liberation Sans, Arial, Helvetica, sans" font-size="10.00">CompositeType</text>
</a>
</g>
</g>
<!-- CompositeType&#45;&gt;ArrayType -->
<g id="edge3" class="edge">
<title>CompositeType&#45;&gt;ArrayType</title>
<path fill="none" stroke="black" stroke-width="0.5" d="M453.11,-53.72C463.31,-55.35 474.03,-57.06 483.83,-58.63"/>
<polygon fill="black" stroke="black" stroke-width="0.5" points="483.65,-60.38 488.87,-59.44 484.21,-56.92 483.65,-60.38"/>
</g>
<!-- BaseType -->
<g id="node4" class="node">
<title>BaseType</title>
<g id="a_node4"><a xlink:title="``BaseType`` is the base&#45;class of all type entities in this model.">
<polygon fill="white" stroke="#1e90ff" points="233,-56 170,-56 170,-37 233,-37 233,-56"/>
<text text-anchor="middle" x="201.5" y="-44" font-family="Vera Sans, DejaVu Sans, Liberation Sans, Arial, Helvetica, sans" font-size="10.00">BaseType</text>
</a>
</g>
</g>
<!-- FullType -->
<g id="node8" class="node">
<title>FullType</title>
<polygon fill="white" stroke="#1e90ff" points="325,-56 269,-56 269,-37 325,-37 325,-56"/>
<text text-anchor="middle" x="297" y="-44" font-family="Vera Sans, DejaVu Sans, Liberation Sans, Arial, Helvetica, sans" font-size="10.00">FullType</text>
</g>
<!-- BaseType&#45;&gt;FullType -->
<g id="edge8" class="edge">
<title>BaseType&#45;&gt;FullType</title>
<path fill="none" stroke="black" stroke-width="0.5" d="M233.12,-46.5C242.91,-46.5 253.79,-46.5 263.7,-46.5"/>
<polygon fill="black" stroke="black" stroke-width="0.5" points="263.78,-48.25 268.78,-46.5 263.78,-44.75 263.78,-48.25"/>
</g>
<!-- ModelEntity -->
<g id="node5" class="node">
<title>ModelEntity</title>
<g id="a_node5"><a xlink:title="``ModelEntity`` is the base&#45;class for all classes in the VHDL language model, except for mixin classes (see multiple">
<polygon fill="white" stroke="#1e90ff" points="104.5,-93 29.5,-93 29.5,-74 104.5,-74 104.5,-93"/>
<text text-anchor="middle" x="67" y="-81" font-family="Vera Sans, DejaVu Sans, Liberation Sans, Arial, Helvetica, sans" font-size="10.00">ModelEntity</text>
</a>
</g>
</g>
<!-- ModelEntity&#45;&gt;BaseType -->
<g id="edge4" class="edge">
<title>ModelEntity&#45;&gt;BaseType</title>
<path fill="none" stroke="black" stroke-width="0.5" d="M103.3,-73.96C113.24,-71.25 124.05,-68.28 134,-65.5 144.04,-62.7 154.91,-59.61 164.91,-56.76"/>
<polygon fill="black" stroke="black" stroke-width="0.5" points="165.41,-58.43 169.73,-55.37 164.44,-55.07 165.41,-58.43"/>
</g>
<!-- NamedEntityMixin -->
<g id="node6" class="node">
<title>NamedEntityMixin</title>
<g id="a_node6"><a xlink:title="A ``NamedEntityMixin`` is a mixin class for all VHDL entities that have identifiers.">
<polygon fill="white" stroke="#1e90ff" points="120.5,-56 13.5,-56 13.5,-37 120.5,-37 120.5,-56"/>
<text text-anchor="middle" x="67" y="-44" font-family="Vera Sans, DejaVu Sans, Liberation Sans, Arial, Helvetica, sans" font-size="10.00">NamedEntityMixin</text>
</a>
</g>
</g>
<!-- NamedEntityMixin&#45;&gt;BaseType -->
<g id="edge5" class="edge">
<title>NamedEntityMixin&#45;&gt;BaseType</title>
<path fill="none" stroke="black" stroke-width="0.5" d="M120.75,-46.5C135.4,-46.5 150.98,-46.5 164.44,-46.5"/>
<polygon fill="black" stroke="black" stroke-width="0.5" points="164.68,-48.25 169.68,-46.5 164.68,-44.75 164.68,-48.25"/>
</g>
<!-- DocumentedEntityMixin -->
<g id="node7" class="node">
<title>DocumentedEntityMixin</title>
<g id="a_node7"><a xlink:title="A ``DocumentedEntityMixin`` is a mixin class for all VHDL entities that can have an associated documentation.">
<polygon fill="white" stroke="#1e90ff" points="134,-19 0,-19 0,0 134,0 134,-19"/>
<text text-anchor="middle" x="67" y="-7" font-family="Vera Sans, DejaVu Sans, Liberation Sans, Arial, Helvetica, sans" font-size="10.00">DocumentedEntityMixin</text>
</a>
</g>
</g>
<!-- DocumentedEntityMixin&#45;&gt;BaseType -->
<g id="edge6" class="edge">
<title>DocumentedEntityMixin&#45;&gt;BaseType</title>
<path fill="none" stroke="black" stroke-width="0.5" d="M102.12,-19.03C121.35,-24.4 145.34,-31.1 164.82,-36.54"/>
<polygon fill="black" stroke="black" stroke-width="0.5" points="164.38,-38.23 169.66,-37.89 165.32,-34.86 164.38,-38.23"/>
</g>
<!-- FullType&#45;&gt;CompositeType -->
<g id="edge7" class="edge">
<title>FullType&#45;&gt;CompositeType</title>
<path fill="none" stroke="black" stroke-width="0.5" d="M325.25,-46.5C334.49,-46.5 345.12,-46.5 355.58,-46.5"/>
<polygon fill="black" stroke="black" stroke-width="0.5" points="355.69,-48.25 360.69,-46.5 355.69,-44.75 355.69,-48.25"/>
</g>
</g>
</svg>
