<?xml version="1.0" encoding="UTF-8" standalone="no"?>
<!DOCTYPE svg PUBLIC "-//W3C//DTD SVG 1.1//EN"
 "http://www.w3.org/Graphics/SVG/1.1/DTD/svg11.dtd">
<!-- Generated by graphviz version 2.43.0 (0)
 -->
<!-- Title: inheritance48fa5ae9e9 Pages: 1 -->
<svg width="458pt" height="64pt"
 viewBox="0.00 0.00 458.00 64.00" xmlns="http://www.w3.org/2000/svg" xmlns:xlink="http://www.w3.org/1999/xlink">
<g id="graph0" class="graph" transform="scale(1 1) rotate(0) translate(4 60)">
<title>inheritance48fa5ae9e9</title>
<!-- Allocation -->
<g id="node1" class="node">
<title>Allocation</title>
<polygon fill="white" stroke="#1e90ff" points="307.5,-19 242.5,-19 242.5,0 307.5,0 307.5,-19"/>
<text text-anchor="middle" x="275" y="-7" font-family="Vera Sans, DejaVu Sans, Liberation Sans, Arial, Helvetica, sans" font-size="10.00">Allocation</text>
</g>
<!-- SubtypeAllocation -->
<g id="node5" class="node">
<title>SubtypeAllocation</title>
<g id="a_node5"><a xlink:href="../pyGHDL/pyGHDL.dom.Expression.html#pyGHDL.dom.Expression.SubtypeAllocation" xlink:title="SubtypeAllocation" target="_top">
<polygon fill="white" stroke="#1e90ff" points="450,-37 345,-37 345,-18 450,-18 450,-37"/>
<text text-anchor="middle" x="397.5" y="-25" font-family="Vera Sans, DejaVu Sans, Liberation Sans, Arial, Helvetica, sans" font-size="10.00">SubtypeAllocation</text>
</a>
</g>
</g>
<!-- Allocation&#45;&gt;SubtypeAllocation -->
<g id="edge5" class="edge">
<title>Allocation&#45;&gt;SubtypeAllocation</title>
<path fill="none" stroke="black" stroke-width="0.5" d="M307.66,-14.23C317.46,-15.69 328.56,-17.35 339.53,-18.99"/>
<polygon fill="black" stroke="black" stroke-width="0.5" points="339.35,-20.73 344.55,-19.74 339.86,-17.27 339.35,-20.73"/>
</g>
<!-- BaseExpression -->
<g id="node2" class="node">
<title>BaseExpression</title>
<g id="a_node2"><a xlink:title="A ``BaseExpression`` is a base&#45;class for all expressions.">
<polygon fill="white" stroke="#1e90ff" points="205,-19 111,-19 111,0 205,0 205,-19"/>
<text text-anchor="middle" x="158" y="-7" font-family="Vera Sans, DejaVu Sans, Liberation Sans, Arial, Helvetica, sans" font-size="10.00">BaseExpression</text>
</a>
</g>
</g>
<!-- BaseExpression&#45;&gt;Allocation -->
<g id="edge1" class="edge">
<title>BaseExpression&#45;&gt;Allocation</title>
<path fill="none" stroke="black" stroke-width="0.5" d="M205.11,-9.5C215.75,-9.5 226.94,-9.5 237.13,-9.5"/>
<polygon fill="black" stroke="black" stroke-width="0.5" points="237.36,-11.25 242.36,-9.5 237.36,-7.75 237.36,-11.25"/>
</g>
<!-- ModelEntity -->
<g id="node3" class="node">
<title>ModelEntity</title>
<g id="a_node3"><a xlink:title="``ModelEntity`` is the base&#45;class for all classes in the VHDL language model, except for mixin classes (see multiple">
<polygon fill="white" stroke="#1e90ff" points="75,-19 0,-19 0,0 75,0 75,-19"/>
<text text-anchor="middle" x="37.5" y="-7" font-family="Vera Sans, DejaVu Sans, Liberation Sans, Arial, Helvetica, sans" font-size="10.00">ModelEntity</text>
</a>
</g>
</g>
<!-- ModelEntity&#45;&gt;BaseExpression -->
<g id="edge2" class="edge">
<title>ModelEntity&#45;&gt;BaseExpression</title>
<path fill="none" stroke="black" stroke-width="0.5" d="M75.02,-9.5C84.72,-9.5 95.38,-9.5 105.71,-9.5"/>
<polygon fill="black" stroke="black" stroke-width="0.5" points="105.75,-11.25 110.75,-9.5 105.75,-7.75 105.75,-11.25"/>
</g>
<!-- DOMMixin -->
<g id="node4" class="node">
<title>DOMMixin</title>
<g id="a_node4"><a xlink:href="../pyGHDL.dom.html#pyGHDL.dom.DOMMixin" xlink:title="DOMMixin" target="_top">
<polygon fill="white" stroke="#1e90ff" points="309,-56 241,-56 241,-37 309,-37 309,-56"/>
<text text-anchor="middle" x="275" y="-44" font-family="Vera Sans, DejaVu Sans, Liberation Sans, Arial, Helvetica, sans" font-size="10.00">DOMMixin</text>
</a>
</g>
</g>
<!-- DOMMixin&#45;&gt;SubtypeAllocation -->
<g id="edge4" class="edge">
<title>DOMMixin&#45;&gt;SubtypeAllocation</title>
<path fill="none" stroke="black" stroke-width="0.5" d="M309.25,-41.26C318.71,-39.77 329.28,-38.1 339.72,-36.45"/>
<polygon fill="black" stroke="black" stroke-width="0.5" points="340.16,-38.15 344.83,-35.65 339.62,-34.7 340.16,-38.15"/>
</g>
<!-- SubtypeAllocation&#45;&gt;SubtypeAllocation -->
<g id="edge3" class="edge">
<title>SubtypeAllocation&#45;&gt;SubtypeAllocation</title>
<path fill="none" stroke="black" stroke-width="0.5" d="M378.7,-37.08C369.55,-45.73 375.82,-55 397.5,-55 415.8,-55 423.12,-48.4 419.46,-41.15"/>
<polygon fill="black" stroke="black" stroke-width="0.5" points="420.75,-39.96 416.3,-37.08 417.99,-42.1 420.75,-39.96"/>
</g>
</g>
</svg>
