<?xml version="1.0" encoding="UTF-8" standalone="no"?>
<!DOCTYPE svg PUBLIC "-//W3C//DTD SVG 1.1//EN"
 "http://www.w3.org/Graphics/SVG/1.1/DTD/svg11.dtd">
<!-- Generated by graphviz version 2.43.0 (0)
 -->
<!-- Title: inheritance76ac8fae4b Pages: 1 -->
<svg width="576pt" height="251pt"
 viewBox="0.00 0.00 576.00 251.00" xmlns="http://www.w3.org/2000/svg" xmlns:xlink="http://www.w3.org/1999/xlink">
<g id="graph0" class="graph" transform="scale(1 1) rotate(0) translate(4 247)">
<title>inheritance76ac8fae4b</title>
<!-- BlockStatementMixin -->
<g id="node1" class="node">
<title>BlockStatementMixin</title>
<g id="a_node1"><a xlink:title="A ``BlockStatement`` is a mixin&#45;class for all block statements.">
<polygon fill="white" stroke="#1e90ff" points="378,-243 256,-243 256,-224 378,-224 378,-243"/>
<text text-anchor="middle" x="317" y="-231" font-family="Vera Sans, DejaVu Sans, Liberation Sans, Arial, Helvetica, sans" font-size="10.00">BlockStatementMixin</text>
</a>
</g>
</g>
<!-- ConcurrentBlockStatement -->
<g id="node2" class="node">
<title>ConcurrentBlockStatement</title>
<g id="a_node2"><a xlink:href="../pyGHDL/pyGHDL.dom.Concurrent.html#pyGHDL.dom.Concurrent.ConcurrentBlockStatement" xlink:title="ConcurrentBlockStatement" target="_top">
<polygon fill="white" stroke="#1e90ff" points="568,-130 420,-130 420,-111 568,-111 568,-130"/>
<text text-anchor="middle" x="494" y="-118" font-family="Vera Sans, DejaVu Sans, Liberation Sans, Arial, Helvetica, sans" font-size="10.00">ConcurrentBlockStatement</text>
</a>
</g>
</g>
<!-- BlockStatementMixin&#45;&gt;ConcurrentBlockStatement -->
<g id="edge4" class="edge">
<title>BlockStatementMixin&#45;&gt;ConcurrentBlockStatement</title>
<path fill="none" stroke="black" stroke-width="0.5" d="M363.78,-223.92C370.75,-221.64 377.72,-218.86 384,-215.5 424.46,-193.84 462.72,-154.67 481.29,-134.04"/>
<polygon fill="black" stroke="black" stroke-width="0.5" points="482.71,-135.07 484.73,-130.18 480.1,-132.74 482.71,-135.07"/>
</g>
<!-- ConcurrentBlockStatement&#45;&gt;ConcurrentBlockStatement -->
<g id="edge1" class="edge">
<title>ConcurrentBlockStatement&#45;&gt;ConcurrentBlockStatement</title>
<path fill="none" stroke="black" stroke-width="0.5" d="M466.87,-130.08C453.68,-138.73 462.72,-148 494,-148 521.37,-148 531.72,-140.91 525.03,-133.34"/>
<polygon fill="black" stroke="black" stroke-width="0.5" points="526.09,-131.94 521.13,-130.08 523.85,-134.63 526.09,-131.94"/>
</g>
<!-- DOMMixin -->
<g id="node3" class="node">
<title>DOMMixin</title>
<g id="a_node3"><a xlink:href="../pyGHDL.dom.html#pyGHDL.dom.DOMMixin" xlink:title="DOMMixin" target="_top">
<polygon fill="white" stroke="#1e90ff" points="351,-206 283,-206 283,-187 351,-187 351,-206"/>
<text text-anchor="middle" x="317" y="-194" font-family="Vera Sans, DejaVu Sans, Liberation Sans, Arial, Helvetica, sans" font-size="10.00">DOMMixin</text>
</a>
</g>
</g>
<!-- DOMMixin&#45;&gt;ConcurrentBlockStatement -->
<g id="edge2" class="edge">
<title>DOMMixin&#45;&gt;ConcurrentBlockStatement</title>
<path fill="none" stroke="black" stroke-width="0.5" d="M346.17,-186.93C357.96,-182.75 371.74,-177.64 384,-172.5 414.15,-159.86 448,-143.33 469.87,-132.34"/>
<polygon fill="black" stroke="black" stroke-width="0.5" points="470.67,-133.89 474.35,-130.08 469.09,-130.77 470.67,-133.89"/>
</g>
<!-- ConcurrentStatement -->
<g id="node4" class="node">
<title>ConcurrentStatement</title>
<g id="a_node4"><a xlink:title="A ``ConcurrentStatement`` is a base&#45;class for all concurrent statements.">
<polygon fill="white" stroke="#1e90ff" points="377.5,-130 256.5,-130 256.5,-111 377.5,-111 377.5,-130"/>
<text text-anchor="middle" x="317" y="-118" font-family="Vera Sans, DejaVu Sans, Liberation Sans, Arial, Helvetica, sans" font-size="10.00">ConcurrentStatement</text>
</a>
</g>
</g>
<!-- ConcurrentStatement&#45;&gt;ConcurrentBlockStatement -->
<g id="edge3" class="edge">
<title>ConcurrentStatement&#45;&gt;ConcurrentBlockStatement</title>
<path fill="none" stroke="black" stroke-width="0.5" d="M377.74,-120.5C389.61,-120.5 402.24,-120.5 414.62,-120.5"/>
<polygon fill="black" stroke="black" stroke-width="0.5" points="414.91,-122.25 419.91,-120.5 414.91,-118.75 414.91,-122.25"/>
</g>
<!-- LabeledEntityMixin -->
<g id="node5" class="node">
<title>LabeledEntityMixin</title>
<g id="a_node5"><a xlink:title="A ``LabeledEntityMixin`` is a mixin class for all VHDL entities that can have labels.">
<polygon fill="white" stroke="#1e90ff" points="110,-167 0,-167 0,-148 110,-148 110,-167"/>
<text text-anchor="middle" x="55" y="-155" font-family="Vera Sans, DejaVu Sans, Liberation Sans, Arial, Helvetica, sans" font-size="10.00">LabeledEntityMixin</text>
</a>
</g>
</g>
<!-- LabeledEntityMixin&#45;&gt;ConcurrentBlockStatement -->
<g id="edge5" class="edge">
<title>LabeledEntityMixin&#45;&gt;ConcurrentBlockStatement</title>
<path fill="none" stroke="black" stroke-width="0.5" d="M110.14,-156.48C175.31,-154.8 287.96,-150.47 384,-139.5 402.49,-137.39 422.6,-134.15 440.45,-130.95"/>
<polygon fill="black" stroke="black" stroke-width="0.5" points="440.82,-132.66 445.42,-130.05 440.19,-129.22 440.82,-132.66"/>
</g>
<!-- Statement -->
<g id="node9" class="node">
<title>Statement</title>
<g id="a_node9"><a xlink:title="A ``Statement`` is a base&#45;class for all statements.">
<polygon fill="white" stroke="#1e90ff" points="214,-130 146,-130 146,-111 214,-111 214,-130"/>
<text text-anchor="middle" x="180" y="-118" font-family="Vera Sans, DejaVu Sans, Liberation Sans, Arial, Helvetica, sans" font-size="10.00">Statement</text>
</a>
</g>
</g>
<!-- LabeledEntityMixin&#45;&gt;Statement -->
<g id="edge11" class="edge">
<title>LabeledEntityMixin&#45;&gt;Statement</title>
<path fill="none" stroke="black" stroke-width="0.5" d="M87.68,-147.97C104.33,-142.96 124.84,-136.79 142.2,-131.57"/>
<polygon fill="black" stroke="black" stroke-width="0.5" points="142.72,-133.24 147,-130.12 141.71,-129.89 142.72,-133.24"/>
</g>
<!-- ConcurrentDeclarations -->
<g id="node6" class="node">
<title>ConcurrentDeclarations</title>
<polygon fill="white" stroke="#1e90ff" points="382.5,-93 251.5,-93 251.5,-74 382.5,-74 382.5,-93"/>
<text text-anchor="middle" x="317" y="-81" font-family="Vera Sans, DejaVu Sans, Liberation Sans, Arial, Helvetica, sans" font-size="10.00">ConcurrentDeclarations</text>
</g>
<!-- ConcurrentDeclarations&#45;&gt;ConcurrentBlockStatement -->
<g id="edge6" class="edge">
<title>ConcurrentDeclarations&#45;&gt;ConcurrentBlockStatement</title>
<path fill="none" stroke="black" stroke-width="0.5" d="M363.07,-93.03C387.47,-98.19 417.68,-104.57 442.82,-109.89"/>
<polygon fill="black" stroke="black" stroke-width="0.5" points="442.53,-111.62 447.78,-110.94 443.25,-108.19 442.53,-111.62"/>
</g>
<!-- ConcurrentStatements -->
<g id="node7" class="node">
<title>ConcurrentStatements</title>
<polygon fill="white" stroke="#1e90ff" points="380,-56 254,-56 254,-37 380,-37 380,-56"/>
<text text-anchor="middle" x="317" y="-44" font-family="Vera Sans, DejaVu Sans, Liberation Sans, Arial, Helvetica, sans" font-size="10.00">ConcurrentStatements</text>
</g>
<!-- ConcurrentStatements&#45;&gt;ConcurrentBlockStatement -->
<g id="edge7" class="edge">
<title>ConcurrentStatements&#45;&gt;ConcurrentBlockStatement</title>
<path fill="none" stroke="black" stroke-width="0.5" d="M358.22,-56.03C366.84,-58.47 375.81,-61.32 384,-64.5 416.03,-76.94 451.03,-95.97 472.5,-108.33"/>
<polygon fill="black" stroke="black" stroke-width="0.5" points="471.67,-109.87 476.88,-110.86 473.43,-106.84 471.67,-109.87"/>
</g>
<!-- DocumentedEntityMixin -->
<g id="node8" class="node">
<title>DocumentedEntityMixin</title>
<g id="a_node8"><a xlink:title="A ``DocumentedEntityMixin`` is a mixin class for all VHDL entities that can have an associated documentation.">
<polygon fill="white" stroke="#1e90ff" points="384,-19 250,-19 250,0 384,0 384,-19"/>
<text text-anchor="middle" x="317" y="-7" font-family="Vera Sans, DejaVu Sans, Liberation Sans, Arial, Helvetica, sans" font-size="10.00">DocumentedEntityMixin</text>
</a>
</g>
</g>
<!-- DocumentedEntityMixin&#45;&gt;ConcurrentBlockStatement -->
<g id="edge8" class="edge">
<title>DocumentedEntityMixin&#45;&gt;ConcurrentBlockStatement</title>
<path fill="none" stroke="black" stroke-width="0.5" d="M363.4,-19.03C370.5,-21.32 377.6,-24.11 384,-27.5 424,-48.64 462.18,-86.69 480.94,-106.94"/>
<polygon fill="black" stroke="black" stroke-width="0.5" points="479.76,-108.24 484.42,-110.75 482.34,-105.88 479.76,-108.24"/>
</g>
<!-- Statement&#45;&gt;ConcurrentStatement -->
<g id="edge9" class="edge">
<title>Statement&#45;&gt;ConcurrentStatement</title>
<path fill="none" stroke="black" stroke-width="0.5" d="M214.02,-120.5C225.33,-120.5 238.39,-120.5 251.32,-120.5"/>
<polygon fill="black" stroke="black" stroke-width="0.5" points="251.45,-122.25 256.45,-120.5 251.45,-118.75 251.45,-122.25"/>
</g>
<!-- ModelEntity -->
<g id="node10" class="node">
<title>ModelEntity</title>
<g id="a_node10"><a xlink:title="``ModelEntity`` is the base&#45;class for all classes in the VHDL language model, except for mixin classes (see multiple">
<polygon fill="white" stroke="#1e90ff" points="92.5,-130 17.5,-130 17.5,-111 92.5,-111 92.5,-130"/>
<text text-anchor="middle" x="55" y="-118" font-family="Vera Sans, DejaVu Sans, Liberation Sans, Arial, Helvetica, sans" font-size="10.00">ModelEntity</text>
</a>
</g>
</g>
<!-- ModelEntity&#45;&gt;Statement -->
<g id="edge10" class="edge">
<title>ModelEntity&#45;&gt;Statement</title>
<path fill="none" stroke="black" stroke-width="0.5" d="M92.57,-120.5C107.71,-120.5 125.28,-120.5 140.61,-120.5"/>
<polygon fill="black" stroke="black" stroke-width="0.5" points="140.72,-122.25 145.72,-120.5 140.72,-118.75 140.72,-122.25"/>
</g>
</g>
</svg>
