<?xml version="1.0" encoding="UTF-8" standalone="no"?>
<!DOCTYPE svg PUBLIC "-//W3C//DTD SVG 1.1//EN"
 "http://www.w3.org/Graphics/SVG/1.1/DTD/svg11.dtd">
<!-- Generated by graphviz version 2.43.0 (0)
 -->
<!-- Title: inheritancee6449dc3a9 Pages: 1 -->
<svg width="491pt" height="64pt"
 viewBox="0.00 0.00 491.00 64.00" xmlns="http://www.w3.org/2000/svg" xmlns:xlink="http://www.w3.org/1999/xlink">
<g id="graph0" class="graph" transform="scale(1 1) rotate(0) translate(4 60)">
<title>inheritancee6449dc3a9</title>
<!-- BaseExpression -->
<g id="node1" class="node">
<title>BaseExpression</title>
<g id="a_node1"><a xlink:title="A ``BaseExpression`` is a base&#45;class for all expressions.">
<polygon fill="white" stroke="#1e90ff" points="205,-19 111,-19 111,0 205,0 205,-19"/>
<text text-anchor="middle" x="158" y="-7" font-family="Vera Sans, DejaVu Sans, Liberation Sans, Arial, Helvetica, sans" font-size="10.00">BaseExpression</text>
</a>
</g>
</g>
<!-- UnaryExpression -->
<g id="node5" class="node">
<title>UnaryExpression</title>
<g id="a_node5"><a xlink:title="A ``UnaryExpression`` is a base&#45;class for all unary expressions.">
<polygon fill="white" stroke="#1e90ff" points="340,-19 241,-19 241,0 340,0 340,-19"/>
<text text-anchor="middle" x="290.5" y="-7" font-family="Vera Sans, DejaVu Sans, Liberation Sans, Arial, Helvetica, sans" font-size="10.00">UnaryExpression</text>
</a>
</g>
</g>
<!-- BaseExpression&#45;&gt;UnaryExpression -->
<g id="edge5" class="edge">
<title>BaseExpression&#45;&gt;UnaryExpression</title>
<path fill="none" stroke="black" stroke-width="0.5" d="M205.01,-9.5C214.88,-9.5 225.4,-9.5 235.54,-9.5"/>
<polygon fill="black" stroke="black" stroke-width="0.5" points="235.81,-11.25 240.81,-9.5 235.81,-7.75 235.81,-11.25"/>
</g>
<!-- ModelEntity -->
<g id="node2" class="node">
<title>ModelEntity</title>
<g id="a_node2"><a xlink:title="``ModelEntity`` is the base&#45;class for all classes in the VHDL language model, except for mixin classes (see multiple">
<polygon fill="white" stroke="#1e90ff" points="75,-19 0,-19 0,0 75,0 75,-19"/>
<text text-anchor="middle" x="37.5" y="-7" font-family="Vera Sans, DejaVu Sans, Liberation Sans, Arial, Helvetica, sans" font-size="10.00">ModelEntity</text>
</a>
</g>
</g>
<!-- ModelEntity&#45;&gt;BaseExpression -->
<g id="edge1" class="edge">
<title>ModelEntity&#45;&gt;BaseExpression</title>
<path fill="none" stroke="black" stroke-width="0.5" d="M75.02,-9.5C84.72,-9.5 95.38,-9.5 105.71,-9.5"/>
<polygon fill="black" stroke="black" stroke-width="0.5" points="105.75,-11.25 110.75,-9.5 105.75,-7.75 105.75,-11.25"/>
</g>
<!-- DOMMixin -->
<g id="node3" class="node">
<title>DOMMixin</title>
<g id="a_node3"><a xlink:href="../pyGHDL.dom.html#pyGHDL.dom.DOMMixin" xlink:title="DOMMixin" target="_top">
<polygon fill="white" stroke="#1e90ff" points="324.5,-56 256.5,-56 256.5,-37 324.5,-37 324.5,-56"/>
<text text-anchor="middle" x="290.5" y="-44" font-family="Vera Sans, DejaVu Sans, Liberation Sans, Arial, Helvetica, sans" font-size="10.00">DOMMixin</text>
</a>
</g>
</g>
<!-- IdentityExpression -->
<g id="node4" class="node">
<title>IdentityExpression</title>
<g id="a_node4"><a xlink:href="../pyGHDL/pyGHDL.dom.Expression.html#pyGHDL.dom.Expression.IdentityExpression" xlink:title="IdentityExpression" target="_top">
<polygon fill="white" stroke="#1e90ff" points="483,-37 376,-37 376,-18 483,-18 483,-37"/>
<text text-anchor="middle" x="429.5" y="-25" font-family="Vera Sans, DejaVu Sans, Liberation Sans, Arial, Helvetica, sans" font-size="10.00">IdentityExpression</text>
</a>
</g>
</g>
<!-- DOMMixin&#45;&gt;IdentityExpression -->
<g id="edge3" class="edge">
<title>DOMMixin&#45;&gt;IdentityExpression</title>
<path fill="none" stroke="black" stroke-width="0.5" d="M324.66,-41.9C338.47,-39.99 354.91,-37.71 370.59,-35.53"/>
<polygon fill="black" stroke="black" stroke-width="0.5" points="371.16,-37.22 375.87,-34.8 370.68,-33.75 371.16,-37.22"/>
</g>
<!-- IdentityExpression&#45;&gt;IdentityExpression -->
<g id="edge2" class="edge">
<title>IdentityExpression&#45;&gt;IdentityExpression</title>
<path fill="none" stroke="black" stroke-width="0.5" d="M408.23,-37.08C397.88,-45.73 404.97,-55 429.5,-55 450.19,-55 458.48,-48.4 454.34,-41.15"/>
<polygon fill="black" stroke="black" stroke-width="0.5" points="455.39,-39.68 450.77,-37.08 452.76,-41.99 455.39,-39.68"/>
</g>
<!-- UnaryExpression&#45;&gt;IdentityExpression -->
<g id="edge4" class="edge">
<title>UnaryExpression&#45;&gt;IdentityExpression</title>
<path fill="none" stroke="black" stroke-width="0.5" d="M340.19,-15.9C350.1,-17.2 360.62,-18.58 370.81,-19.92"/>
<polygon fill="black" stroke="black" stroke-width="0.5" points="370.6,-21.66 375.79,-20.57 371.06,-18.19 370.6,-21.66"/>
</g>
</g>
</svg>
