<?xml version="1.0" encoding="UTF-8" standalone="no"?>
<!DOCTYPE svg PUBLIC "-//W3C//DTD SVG 1.1//EN"
 "http://www.w3.org/Graphics/SVG/1.1/DTD/svg11.dtd">
<!-- Generated by graphviz version 2.43.0 (0)
 -->
<!-- Title: inheritance3b6ce52305 Pages: 1 -->
<svg width="173pt" height="45pt"
 viewBox="0.00 0.00 173.00 45.00" xmlns="http://www.w3.org/2000/svg" xmlns:xlink="http://www.w3.org/1999/xlink">
<g id="graph0" class="graph" transform="scale(1 1) rotate(0) translate(4 41)">
<title>inheritance3b6ce52305</title>
<!-- ModelEntity -->
<g id="node1" class="node">
<title>ModelEntity</title>
<g id="a_node1"><a xlink:title="``ModelEntity`` is the base&#45;class for all classes in the VHDL language model, except for mixin classes (see multiple">
<polygon fill="white" stroke="#1e90ff" points="75,-19 0,-19 0,0 75,0 75,-19"/>
<text text-anchor="middle" x="37.5" y="-7" font-family="Vera Sans, DejaVu Sans, Liberation Sans, Arial, Helvetica, sans" font-size="10.00">ModelEntity</text>
</a>
</g>
</g>
<!-- Range -->
<g id="node2" class="node">
<title>Range</title>
<g id="a_node2"><a xlink:href="../pyGHDL/pyGHDL.dom.Range.html#pyGHDL.dom.Range.Range" xlink:title="Range" target="_top">
<polygon fill="white" stroke="#1e90ff" points="165,-19 111,-19 111,0 165,0 165,-19"/>
<text text-anchor="middle" x="138" y="-7" font-family="Vera Sans, DejaVu Sans, Liberation Sans, Arial, Helvetica, sans" font-size="10.00">Range</text>
</a>
</g>
</g>
<!-- ModelEntity&#45;&gt;Range -->
<g id="edge2" class="edge">
<title>ModelEntity&#45;&gt;Range</title>
<path fill="none" stroke="black" stroke-width="0.5" d="M75.18,-9.5C85.15,-9.5 95.85,-9.5 105.51,-9.5"/>
<polygon fill="black" stroke="black" stroke-width="0.5" points="105.75,-11.25 110.75,-9.5 105.75,-7.75 105.75,-11.25"/>
</g>
<!-- Range&#45;&gt;Range -->
<g id="edge1" class="edge">
<title>Range&#45;&gt;Range</title>
<path fill="none" stroke="black" stroke-width="0.5" d="M122.59,-19.08C115.09,-27.73 120.23,-37 138,-37 152.72,-37 158.77,-30.65 156.16,-23.55"/>
<polygon fill="black" stroke="black" stroke-width="0.5" points="157.52,-22.42 153.41,-19.08 154.54,-24.26 157.52,-22.42"/>
</g>
</g>
</svg>
