<?xml version="1.0" encoding="UTF-8" standalone="no"?>
<!DOCTYPE svg PUBLIC "-//W3C//DTD SVG 1.1//EN"
 "http://www.w3.org/Graphics/SVG/1.1/DTD/svg11.dtd">
<!-- Generated by graphviz version 2.43.0 (0)
 -->
<!-- Title: inheritance8bbfa73c9d Pages: 1 -->
<svg width="325pt" height="64pt"
 viewBox="0.00 0.00 325.00 64.00" xmlns="http://www.w3.org/2000/svg" xmlns:xlink="http://www.w3.org/1999/xlink">
<g id="graph0" class="graph" transform="scale(1 1) rotate(0) translate(4 60)">
<title>inheritance8bbfa73c9d</title>
<!-- DOMMixin -->
<g id="node1" class="node">
<title>DOMMixin</title>
<g id="a_node1"><a xlink:href="../pyGHDL.dom.html#pyGHDL.dom.DOMMixin" xlink:title="DOMMixin" target="_top">
<polygon fill="white" stroke="#1e90ff" points="179,-56 111,-56 111,-37 179,-37 179,-56"/>
<text text-anchor="middle" x="145" y="-44" font-family="Vera Sans, DejaVu Sans, Liberation Sans, Arial, Helvetica, sans" font-size="10.00">DOMMixin</text>
</a>
</g>
</g>
<!-- ParenthesisName -->
<g id="node4" class="node">
<title>ParenthesisName</title>
<g id="a_node4"><a xlink:href="../pyGHDL/pyGHDL.dom.Names.html#pyGHDL.dom.Names.ParenthesisName" xlink:title="ParenthesisName" target="_top">
<polygon fill="white" stroke="#1e90ff" points="317,-37 215,-37 215,-18 317,-18 317,-37"/>
<text text-anchor="middle" x="266" y="-25" font-family="Vera Sans, DejaVu Sans, Liberation Sans, Arial, Helvetica, sans" font-size="10.00">ParenthesisName</text>
</a>
</g>
</g>
<!-- DOMMixin&#45;&gt;ParenthesisName -->
<g id="edge3" class="edge">
<title>DOMMixin&#45;&gt;ParenthesisName</title>
<path fill="none" stroke="black" stroke-width="0.5" d="M179.15,-41.21C188.6,-39.7 199.17,-38.01 209.58,-36.35"/>
<polygon fill="black" stroke="black" stroke-width="0.5" points="210,-38.05 214.66,-35.54 209.45,-34.6 210,-38.05"/>
</g>
<!-- ModelEntity -->
<g id="node2" class="node">
<title>ModelEntity</title>
<g id="a_node2"><a xlink:title="``ModelEntity`` is the base&#45;class for all classes in the VHDL language model, except for mixin classes (see multiple">
<polygon fill="white" stroke="#1e90ff" points="75,-19 0,-19 0,0 75,0 75,-19"/>
<text text-anchor="middle" x="37.5" y="-7" font-family="Vera Sans, DejaVu Sans, Liberation Sans, Arial, Helvetica, sans" font-size="10.00">ModelEntity</text>
</a>
</g>
</g>
<!-- Name -->
<g id="node3" class="node">
<title>Name</title>
<g id="a_node3"><a xlink:title="``Name`` is the base&#45;class for all *names* in the VHDL language model.">
<polygon fill="white" stroke="#1e90ff" points="172,-19 118,-19 118,0 172,0 172,-19"/>
<text text-anchor="middle" x="145" y="-7" font-family="Vera Sans, DejaVu Sans, Liberation Sans, Arial, Helvetica, sans" font-size="10.00">Name</text>
</a>
</g>
</g>
<!-- ModelEntity&#45;&gt;Name -->
<g id="edge1" class="edge">
<title>ModelEntity&#45;&gt;Name</title>
<path fill="none" stroke="black" stroke-width="0.5" d="M75.1,-9.5C87.28,-9.5 100.73,-9.5 112.49,-9.5"/>
<polygon fill="black" stroke="black" stroke-width="0.5" points="112.77,-11.25 117.77,-9.5 112.77,-7.75 112.77,-11.25"/>
</g>
<!-- Name&#45;&gt;ParenthesisName -->
<g id="edge4" class="edge">
<title>Name&#45;&gt;ParenthesisName</title>
<path fill="none" stroke="black" stroke-width="0.5" d="M172.12,-13.45C183.23,-15.13 196.64,-17.16 209.77,-19.15"/>
<polygon fill="black" stroke="black" stroke-width="0.5" points="209.77,-20.92 214.98,-19.93 210.3,-17.46 209.77,-20.92"/>
</g>
<!-- ParenthesisName&#45;&gt;ParenthesisName -->
<g id="edge2" class="edge">
<title>ParenthesisName&#45;&gt;ParenthesisName</title>
<path fill="none" stroke="black" stroke-width="0.5" d="M247.5,-37.08C238.51,-45.73 244.67,-55 266,-55 284,-55 291.2,-48.4 287.6,-41.15"/>
<polygon fill="black" stroke="black" stroke-width="0.5" points="288.92,-39.99 284.5,-37.08 286.14,-42.12 288.92,-39.99"/>
</g>
</g>
</svg>
