<?xml version="1.0" encoding="UTF-8" standalone="no"?>
<!DOCTYPE svg PUBLIC "-//W3C//DTD SVG 1.1//EN"
 "http://www.w3.org/Graphics/SVG/1.1/DTD/svg11.dtd">
<!-- Generated by graphviz version 2.43.0 (0)
 -->
<!-- Title: inheritance59e80f9892 Pages: 1 -->
<svg width="502pt" height="119pt"
 viewBox="0.00 0.00 502.00 119.00" xmlns="http://www.w3.org/2000/svg" xmlns:xlink="http://www.w3.org/1999/xlink">
<g id="graph0" class="graph" transform="scale(1 1) rotate(0) translate(4 115)">
<title>inheritance59e80f9892</title>
<!-- ConditionalMixin -->
<g id="node1" class="node">
<title>ConditionalMixin</title>
<g id="a_node1"><a xlink:title="A ``BaseConditional`` is a mixin&#45;class for all statements with a condition.">
<polygon fill="white" stroke="#1e90ff" points="359,-111 260,-111 260,-92 359,-92 359,-111"/>
<text text-anchor="middle" x="309.5" y="-99" font-family="Vera Sans, DejaVu Sans, Liberation Sans, Arial, Helvetica, sans" font-size="10.00">ConditionalMixin</text>
</a>
</g>
</g>
<!-- WaitStatement -->
<g id="node7" class="node">
<title>WaitStatement</title>
<g id="a_node7"><a xlink:href="../pyGHDL/pyGHDL.dom.Sequential.html#pyGHDL.dom.Sequential.WaitStatement" xlink:title="WaitStatement" target="_top">
<polygon fill="white" stroke="#1e90ff" points="494,-74 405,-74 405,-55 494,-55 494,-74"/>
<text text-anchor="middle" x="449.5" y="-62" font-family="Vera Sans, DejaVu Sans, Liberation Sans, Arial, Helvetica, sans" font-size="10.00">WaitStatement</text>
</a>
</g>
</g>
<!-- ConditionalMixin&#45;&gt;WaitStatement -->
<g id="edge7" class="edge">
<title>ConditionalMixin&#45;&gt;WaitStatement</title>
<path fill="none" stroke="black" stroke-width="0.5" d="M346.04,-91.97C364.89,-86.92 388.13,-80.69 407.71,-75.44"/>
<polygon fill="black" stroke="black" stroke-width="0.5" points="408.23,-77.11 412.6,-74.12 407.32,-73.73 408.23,-77.11"/>
</g>
<!-- DOMMixin -->
<g id="node2" class="node">
<title>DOMMixin</title>
<g id="a_node2"><a xlink:href="../pyGHDL.dom.html#pyGHDL.dom.DOMMixin" xlink:title="DOMMixin" target="_top">
<polygon fill="white" stroke="#1e90ff" points="343.5,-74 275.5,-74 275.5,-55 343.5,-55 343.5,-74"/>
<text text-anchor="middle" x="309.5" y="-62" font-family="Vera Sans, DejaVu Sans, Liberation Sans, Arial, Helvetica, sans" font-size="10.00">DOMMixin</text>
</a>
</g>
</g>
<!-- DOMMixin&#45;&gt;WaitStatement -->
<g id="edge5" class="edge">
<title>DOMMixin&#45;&gt;WaitStatement</title>
<path fill="none" stroke="black" stroke-width="0.5" d="M343.55,-64.5C360.32,-64.5 381.01,-64.5 399.58,-64.5"/>
<polygon fill="black" stroke="black" stroke-width="0.5" points="399.75,-66.25 404.75,-64.5 399.75,-62.75 399.75,-66.25"/>
</g>
<!-- LabeledEntityMixin -->
<g id="node3" class="node">
<title>LabeledEntityMixin</title>
<g id="a_node3"><a xlink:title="A ``LabeledEntityMixin`` is a mixin class for all VHDL entities that can have labels.">
<polygon fill="white" stroke="#1e90ff" points="110,-56 0,-56 0,-37 110,-37 110,-56"/>
<text text-anchor="middle" x="55" y="-44" font-family="Vera Sans, DejaVu Sans, Liberation Sans, Arial, Helvetica, sans" font-size="10.00">LabeledEntityMixin</text>
</a>
</g>
</g>
<!-- Statement -->
<g id="node6" class="node">
<title>Statement</title>
<g id="a_node6"><a xlink:title="A ``Statement`` is a base&#45;class for all statements.">
<polygon fill="white" stroke="#1e90ff" points="214,-37 146,-37 146,-18 214,-18 214,-37"/>
<text text-anchor="middle" x="180" y="-25" font-family="Vera Sans, DejaVu Sans, Liberation Sans, Arial, Helvetica, sans" font-size="10.00">Statement</text>
</a>
</g>
</g>
<!-- LabeledEntityMixin&#45;&gt;Statement -->
<g id="edge3" class="edge">
<title>LabeledEntityMixin&#45;&gt;Statement</title>
<path fill="none" stroke="black" stroke-width="0.5" d="M110.31,-38.11C120.61,-36.52 131.19,-34.89 140.86,-33.39"/>
<polygon fill="black" stroke="black" stroke-width="0.5" points="141.15,-35.12 145.83,-32.62 140.62,-31.66 141.15,-35.12"/>
</g>
<!-- ModelEntity -->
<g id="node4" class="node">
<title>ModelEntity</title>
<g id="a_node4"><a xlink:title="``ModelEntity`` is the base&#45;class for all classes in the VHDL language model, except for mixin classes (see multiple">
<polygon fill="white" stroke="#1e90ff" points="92.5,-19 17.5,-19 17.5,0 92.5,0 92.5,-19"/>
<text text-anchor="middle" x="55" y="-7" font-family="Vera Sans, DejaVu Sans, Liberation Sans, Arial, Helvetica, sans" font-size="10.00">ModelEntity</text>
</a>
</g>
</g>
<!-- ModelEntity&#45;&gt;Statement -->
<g id="edge2" class="edge">
<title>ModelEntity&#45;&gt;Statement</title>
<path fill="none" stroke="black" stroke-width="0.5" d="M92.57,-14.85C107.71,-17.07 125.28,-19.64 140.61,-21.88"/>
<polygon fill="black" stroke="black" stroke-width="0.5" points="140.51,-23.64 145.72,-22.63 141.02,-20.17 140.51,-23.64"/>
</g>
<!-- SequentialStatement -->
<g id="node5" class="node">
<title>SequentialStatement</title>
<g id="a_node5"><a xlink:title="A ``SequentialStatement`` is a base&#45;class for all sequential statements.">
<polygon fill="white" stroke="#1e90ff" points="369,-37 250,-37 250,-18 369,-18 369,-37"/>
<text text-anchor="middle" x="309.5" y="-25" font-family="Vera Sans, DejaVu Sans, Liberation Sans, Arial, Helvetica, sans" font-size="10.00">SequentialStatement</text>
</a>
</g>
</g>
<!-- SequentialStatement&#45;&gt;WaitStatement -->
<g id="edge6" class="edge">
<title>SequentialStatement&#45;&gt;WaitStatement</title>
<path fill="none" stroke="black" stroke-width="0.5" d="M346.04,-37.03C364.89,-42.08 388.13,-48.31 407.71,-53.56"/>
<polygon fill="black" stroke="black" stroke-width="0.5" points="407.32,-55.27 412.6,-54.88 408.23,-51.89 407.32,-55.27"/>
</g>
<!-- Statement&#45;&gt;SequentialStatement -->
<g id="edge1" class="edge">
<title>Statement&#45;&gt;SequentialStatement</title>
<path fill="none" stroke="black" stroke-width="0.5" d="M214.17,-27.5C223.55,-27.5 234.09,-27.5 244.64,-27.5"/>
<polygon fill="black" stroke="black" stroke-width="0.5" points="244.81,-29.25 249.81,-27.5 244.81,-25.75 244.81,-29.25"/>
</g>
<!-- WaitStatement&#45;&gt;WaitStatement -->
<g id="edge4" class="edge">
<title>WaitStatement&#45;&gt;WaitStatement</title>
<path fill="none" stroke="black" stroke-width="0.5" d="M427.92,-74.08C417.42,-82.73 424.62,-92 449.5,-92 470.49,-92 478.9,-85.4 474.7,-78.15"/>
<polygon fill="black" stroke="black" stroke-width="0.5" points="475.71,-76.65 471.08,-74.08 473.1,-78.98 475.71,-76.65"/>
</g>
</g>
</svg>
