<?xml version="1.0" encoding="UTF-8" standalone="no"?>
<!DOCTYPE svg PUBLIC "-//W3C//DTD SVG 1.1//EN"
 "http://www.w3.org/Graphics/SVG/1.1/DTD/svg11.dtd">
<!-- Generated by graphviz version 2.43.0 (0)
 -->
<!-- Title: inheritance211bec14bb Pages: 1 -->
<svg width="348pt" height="101pt"
 viewBox="0.00 0.00 348.00 101.00" xmlns="http://www.w3.org/2000/svg" xmlns:xlink="http://www.w3.org/1999/xlink">
<g id="graph0" class="graph" transform="scale(1 1) rotate(0) translate(4 97)">
<title>inheritance211bec14bb</title>
<!-- DOMMixin -->
<g id="node1" class="node">
<title>DOMMixin</title>
<g id="a_node1"><a xlink:href="../pyGHDL.dom.html#pyGHDL.dom.DOMMixin" xlink:title="DOMMixin" target="_top">
<polygon fill="white" stroke="#1e90ff" points="242,-93 174,-93 174,-74 242,-74 242,-93"/>
<text text-anchor="middle" x="208" y="-81" font-family="Vera Sans, DejaVu Sans, Liberation Sans, Arial, Helvetica, sans" font-size="10.00">DOMMixin</text>
</a>
</g>
</g>
<!-- Function -->
<g id="node3" class="node">
<title>Function</title>
<g id="a_node3"><a xlink:href="../pyGHDL/pyGHDL.dom.Subprogram.html#pyGHDL.dom.Subprogram.Function" xlink:title="Function" target="_top">
<polygon fill="white" stroke="#1e90ff" points="340,-74 282,-74 282,-55 340,-55 340,-74"/>
<text text-anchor="middle" x="311" y="-62" font-family="Vera Sans, DejaVu Sans, Liberation Sans, Arial, Helvetica, sans" font-size="10.00">Function</text>
</a>
</g>
</g>
<!-- DOMMixin&#45;&gt;Function -->
<g id="edge2" class="edge">
<title>DOMMixin&#45;&gt;Function</title>
<path fill="none" stroke="black" stroke-width="0.5" d="M242.07,-77.28C253.25,-75.18 265.72,-72.83 276.9,-70.73"/>
<polygon fill="black" stroke="black" stroke-width="0.5" points="277.34,-72.42 281.93,-69.78 276.7,-68.98 277.34,-72.42"/>
</g>
<!-- DocumentedEntityMixin -->
<g id="node2" class="node">
<title>DocumentedEntityMixin</title>
<g id="a_node2"><a xlink:title="A ``DocumentedEntityMixin`` is a mixin class for all VHDL entities that can have an associated documentation.">
<polygon fill="white" stroke="#1e90ff" points="134,-93 0,-93 0,-74 134,-74 134,-93"/>
<text text-anchor="middle" x="67" y="-81" font-family="Vera Sans, DejaVu Sans, Liberation Sans, Arial, Helvetica, sans" font-size="10.00">DocumentedEntityMixin</text>
</a>
</g>
</g>
<!-- Subprogram -->
<g id="node4" class="node">
<title>Subprogram</title>
<polygon fill="white" stroke="#1e90ff" points="246,-56 170,-56 170,-37 246,-37 246,-56"/>
<text text-anchor="middle" x="208" y="-44" font-family="Vera Sans, DejaVu Sans, Liberation Sans, Arial, Helvetica, sans" font-size="10.00">Subprogram</text>
</g>
<!-- DocumentedEntityMixin&#45;&gt;Subprogram -->
<g id="edge6" class="edge">
<title>DocumentedEntityMixin&#45;&gt;Subprogram</title>
<path fill="none" stroke="black" stroke-width="0.5" d="M103.8,-73.97C122.78,-68.92 146.19,-62.69 165.91,-57.44"/>
<polygon fill="black" stroke="black" stroke-width="0.5" points="166.46,-59.1 170.84,-56.12 165.56,-55.72 166.46,-59.1"/>
</g>
<!-- Function&#45;&gt;Function -->
<g id="edge1" class="edge">
<title>Function&#45;&gt;Function</title>
<path fill="none" stroke="black" stroke-width="0.5" d="M295.28,-74.08C287.63,-82.73 292.87,-92 311,-92 326.01,-92 332.19,-85.65 329.52,-78.55"/>
<polygon fill="black" stroke="black" stroke-width="0.5" points="330.86,-77.39 326.72,-74.08 327.9,-79.25 330.86,-77.39"/>
</g>
<!-- Subprogram&#45;&gt;Function -->
<g id="edge3" class="edge">
<title>Subprogram&#45;&gt;Function</title>
<path fill="none" stroke="black" stroke-width="0.5" d="M246.04,-53.1C256.1,-54.89 266.94,-56.83 276.78,-58.58"/>
<polygon fill="black" stroke="black" stroke-width="0.5" points="276.6,-60.33 281.83,-59.48 277.21,-56.88 276.6,-60.33"/>
</g>
<!-- ModelEntity -->
<g id="node5" class="node">
<title>ModelEntity</title>
<g id="a_node5"><a xlink:title="``ModelEntity`` is the base&#45;class for all classes in the VHDL language model, except for mixin classes (see multiple">
<polygon fill="white" stroke="#1e90ff" points="104.5,-56 29.5,-56 29.5,-37 104.5,-37 104.5,-56"/>
<text text-anchor="middle" x="67" y="-44" font-family="Vera Sans, DejaVu Sans, Liberation Sans, Arial, Helvetica, sans" font-size="10.00">ModelEntity</text>
</a>
</g>
</g>
<!-- ModelEntity&#45;&gt;Subprogram -->
<g id="edge4" class="edge">
<title>ModelEntity&#45;&gt;Subprogram</title>
<path fill="none" stroke="black" stroke-width="0.5" d="M104.52,-46.5C122.9,-46.5 145.29,-46.5 164.44,-46.5"/>
<polygon fill="black" stroke="black" stroke-width="0.5" points="164.76,-48.25 169.76,-46.5 164.76,-44.75 164.76,-48.25"/>
</g>
<!-- NamedEntityMixin -->
<g id="node6" class="node">
<title>NamedEntityMixin</title>
<g id="a_node6"><a xlink:title="A ``NamedEntityMixin`` is a mixin class for all VHDL entities that have identifiers.">
<polygon fill="white" stroke="#1e90ff" points="120.5,-19 13.5,-19 13.5,0 120.5,0 120.5,-19"/>
<text text-anchor="middle" x="67" y="-7" font-family="Vera Sans, DejaVu Sans, Liberation Sans, Arial, Helvetica, sans" font-size="10.00">NamedEntityMixin</text>
</a>
</g>
</g>
<!-- NamedEntityMixin&#45;&gt;Subprogram -->
<g id="edge5" class="edge">
<title>NamedEntityMixin&#45;&gt;Subprogram</title>
<path fill="none" stroke="black" stroke-width="0.5" d="M103.8,-19.03C122.78,-24.08 146.19,-30.31 165.91,-35.56"/>
<polygon fill="black" stroke="black" stroke-width="0.5" points="165.56,-37.28 170.84,-36.88 166.46,-33.9 165.56,-37.28"/>
</g>
</g>
</svg>
