<?xml version="1.0" encoding="UTF-8" standalone="no"?>
<!DOCTYPE svg PUBLIC "-//W3C//DTD SVG 1.1//EN"
 "http://www.w3.org/Graphics/SVG/1.1/DTD/svg11.dtd">
<!-- Generated by graphviz version 2.43.0 (0)
 -->
<!-- Title: inheritancec5a3b8eb0e Pages: 1 -->
<svg width="326pt" height="64pt"
 viewBox="0.00 0.00 326.00 64.00" xmlns="http://www.w3.org/2000/svg" xmlns:xlink="http://www.w3.org/1999/xlink">
<g id="graph0" class="graph" transform="scale(1 1) rotate(0) translate(4 60)">
<title>inheritancec5a3b8eb0e</title>
<!-- BaseExpression -->
<g id="node1" class="node">
<title>BaseExpression</title>
<g id="a_node1"><a xlink:title="A ``BaseExpression`` is a base&#45;class for all expressions.">
<polygon fill="white" stroke="#1e90ff" points="205,-19 111,-19 111,0 205,0 205,-19"/>
<text text-anchor="middle" x="158" y="-7" font-family="Vera Sans, DejaVu Sans, Liberation Sans, Arial, Helvetica, sans" font-size="10.00">BaseExpression</text>
</a>
</g>
</g>
<!-- FunctionCall -->
<g id="node4" class="node">
<title>FunctionCall</title>
<g id="a_node4"><a xlink:href="../pyGHDL/pyGHDL.dom.Expression.html#pyGHDL.dom.Expression.FunctionCall" xlink:title="FunctionCall" target="_top">
<polygon fill="white" stroke="#1e90ff" points="318,-37 241,-37 241,-18 318,-18 318,-37"/>
<text text-anchor="middle" x="279.5" y="-25" font-family="Vera Sans, DejaVu Sans, Liberation Sans, Arial, Helvetica, sans" font-size="10.00">FunctionCall</text>
</a>
</g>
</g>
<!-- BaseExpression&#45;&gt;FunctionCall -->
<g id="edge4" class="edge">
<title>BaseExpression&#45;&gt;FunctionCall</title>
<path fill="none" stroke="black" stroke-width="0.5" d="M205.2,-16.46C215.27,-17.98 225.88,-19.57 235.8,-21.07"/>
<polygon fill="black" stroke="black" stroke-width="0.5" points="235.72,-22.83 240.92,-21.84 236.24,-19.36 235.72,-22.83"/>
</g>
<!-- ModelEntity -->
<g id="node2" class="node">
<title>ModelEntity</title>
<g id="a_node2"><a xlink:title="``ModelEntity`` is the base&#45;class for all classes in the VHDL language model, except for mixin classes (see multiple">
<polygon fill="white" stroke="#1e90ff" points="75,-19 0,-19 0,0 75,0 75,-19"/>
<text text-anchor="middle" x="37.5" y="-7" font-family="Vera Sans, DejaVu Sans, Liberation Sans, Arial, Helvetica, sans" font-size="10.00">ModelEntity</text>
</a>
</g>
</g>
<!-- ModelEntity&#45;&gt;BaseExpression -->
<g id="edge1" class="edge">
<title>ModelEntity&#45;&gt;BaseExpression</title>
<path fill="none" stroke="black" stroke-width="0.5" d="M75.02,-9.5C84.72,-9.5 95.38,-9.5 105.71,-9.5"/>
<polygon fill="black" stroke="black" stroke-width="0.5" points="105.75,-11.25 110.75,-9.5 105.75,-7.75 105.75,-11.25"/>
</g>
<!-- DOMMixin -->
<g id="node3" class="node">
<title>DOMMixin</title>
<g id="a_node3"><a xlink:href="../pyGHDL.dom.html#pyGHDL.dom.DOMMixin" xlink:title="DOMMixin" target="_top">
<polygon fill="white" stroke="#1e90ff" points="192,-56 124,-56 124,-37 192,-37 192,-56"/>
<text text-anchor="middle" x="158" y="-44" font-family="Vera Sans, DejaVu Sans, Liberation Sans, Arial, Helvetica, sans" font-size="10.00">DOMMixin</text>
</a>
</g>
</g>
<!-- DOMMixin&#45;&gt;FunctionCall -->
<g id="edge3" class="edge">
<title>DOMMixin&#45;&gt;FunctionCall</title>
<path fill="none" stroke="black" stroke-width="0.5" d="M192.29,-41.21C205.7,-39.08 221.33,-36.59 235.58,-34.32"/>
<polygon fill="black" stroke="black" stroke-width="0.5" points="236.1,-36.01 240.76,-33.5 235.55,-32.56 236.1,-36.01"/>
</g>
<!-- FunctionCall&#45;&gt;FunctionCall -->
<g id="edge2" class="edge">
<title>FunctionCall&#45;&gt;FunctionCall</title>
<path fill="none" stroke="black" stroke-width="0.5" d="M261,-37.08C252.01,-45.73 258.17,-55 279.5,-55 297.5,-55 304.7,-48.4 301.1,-41.15"/>
<polygon fill="black" stroke="black" stroke-width="0.5" points="302.42,-39.99 298,-37.08 299.64,-42.12 302.42,-39.99"/>
</g>
</g>
</svg>
