<?xml version="1.0" encoding="UTF-8" standalone="no"?>
<!DOCTYPE svg PUBLIC "-//W3C//DTD SVG 1.1//EN"
 "http://www.w3.org/Graphics/SVG/1.1/DTD/svg11.dtd">
<!-- Generated by graphviz version 2.43.0 (0)
 -->
<!-- Title: inheritanced72a330be9 Pages: 1 -->
<svg width="316pt" height="64pt"
 viewBox="0.00 0.00 316.00 64.00" xmlns="http://www.w3.org/2000/svg" xmlns:xlink="http://www.w3.org/1999/xlink">
<g id="graph0" class="graph" transform="scale(1 1) rotate(0) translate(4 60)">
<title>inheritanced72a330be9</title>
<!-- Aggregate -->
<g id="node1" class="node">
<title>Aggregate</title>
<g id="a_node1"><a xlink:href="../pyGHDL/pyGHDL.dom.Expression.html#pyGHDL.dom.Expression.Aggregate" xlink:title="Aggregate" target="_top">
<polygon fill="white" stroke="#1e90ff" points="308,-37 241,-37 241,-18 308,-18 308,-37"/>
<text text-anchor="middle" x="274.5" y="-25" font-family="Vera Sans, DejaVu Sans, Liberation Sans, Arial, Helvetica, sans" font-size="10.00">Aggregate</text>
</a>
</g>
</g>
<!-- Aggregate&#45;&gt;Aggregate -->
<g id="edge1" class="edge">
<title>Aggregate&#45;&gt;Aggregate</title>
<path fill="none" stroke="black" stroke-width="0.5" d="M256.62,-37.08C247.92,-45.73 253.88,-55 274.5,-55 291.9,-55 298.86,-48.4 295.38,-41.15"/>
<polygon fill="black" stroke="black" stroke-width="0.5" points="296.76,-40.06 292.38,-37.08 293.94,-42.14 296.76,-40.06"/>
</g>
<!-- DOMMixin -->
<g id="node2" class="node">
<title>DOMMixin</title>
<g id="a_node2"><a xlink:href="../pyGHDL.dom.html#pyGHDL.dom.DOMMixin" xlink:title="DOMMixin" target="_top">
<polygon fill="white" stroke="#1e90ff" points="192,-56 124,-56 124,-37 192,-37 192,-56"/>
<text text-anchor="middle" x="158" y="-44" font-family="Vera Sans, DejaVu Sans, Liberation Sans, Arial, Helvetica, sans" font-size="10.00">DOMMixin</text>
</a>
</g>
</g>
<!-- DOMMixin&#45;&gt;Aggregate -->
<g id="edge2" class="edge">
<title>DOMMixin&#45;&gt;Aggregate</title>
<path fill="none" stroke="black" stroke-width="0.5" d="M192.12,-41C205.77,-38.74 221.65,-36.1 235.75,-33.76"/>
<polygon fill="black" stroke="black" stroke-width="0.5" points="236.21,-35.46 240.85,-32.92 235.63,-32.01 236.21,-35.46"/>
</g>
<!-- BaseExpression -->
<g id="node3" class="node">
<title>BaseExpression</title>
<g id="a_node3"><a xlink:title="A ``BaseExpression`` is a base&#45;class for all expressions.">
<polygon fill="white" stroke="#1e90ff" points="205,-19 111,-19 111,0 205,0 205,-19"/>
<text text-anchor="middle" x="158" y="-7" font-family="Vera Sans, DejaVu Sans, Liberation Sans, Arial, Helvetica, sans" font-size="10.00">BaseExpression</text>
</a>
</g>
</g>
<!-- BaseExpression&#45;&gt;Aggregate -->
<g id="edge3" class="edge">
<title>BaseExpression&#45;&gt;Aggregate</title>
<path fill="none" stroke="black" stroke-width="0.5" d="M205.24,-16.77C215.39,-18.36 226.02,-20.04 235.78,-21.57"/>
<polygon fill="black" stroke="black" stroke-width="0.5" points="235.59,-23.31 240.8,-22.36 236.14,-19.85 235.59,-23.31"/>
</g>
<!-- ModelEntity -->
<g id="node4" class="node">
<title>ModelEntity</title>
<g id="a_node4"><a xlink:title="``ModelEntity`` is the base&#45;class for all classes in the VHDL language model, except for mixin classes (see multiple">
<polygon fill="white" stroke="#1e90ff" points="75,-19 0,-19 0,0 75,0 75,-19"/>
<text text-anchor="middle" x="37.5" y="-7" font-family="Vera Sans, DejaVu Sans, Liberation Sans, Arial, Helvetica, sans" font-size="10.00">ModelEntity</text>
</a>
</g>
</g>
<!-- ModelEntity&#45;&gt;BaseExpression -->
<g id="edge4" class="edge">
<title>ModelEntity&#45;&gt;BaseExpression</title>
<path fill="none" stroke="black" stroke-width="0.5" d="M75.02,-9.5C84.72,-9.5 95.38,-9.5 105.71,-9.5"/>
<polygon fill="black" stroke="black" stroke-width="0.5" points="105.75,-11.25 110.75,-9.5 105.75,-7.75 105.75,-11.25"/>
</g>
</g>
</svg>
