<?xml version="1.0" encoding="UTF-8" standalone="no"?>
<!DOCTYPE svg PUBLIC "-//W3C//DTD SVG 1.1//EN"
 "http://www.w3.org/Graphics/SVG/1.1/DTD/svg11.dtd">
<!-- Generated by graphviz version 2.43.0 (0)
 -->
<!-- Title: inheritanceeb5408e35c Pages: 1 -->
<svg width="307pt" height="64pt"
 viewBox="0.00 0.00 307.00 64.00" xmlns="http://www.w3.org/2000/svg" xmlns:xlink="http://www.w3.org/1999/xlink">
<g id="graph0" class="graph" transform="scale(1 1) rotate(0) translate(4 60)">
<title>inheritanceeb5408e35c</title>
<!-- DOMMixin -->
<g id="node1" class="node">
<title>DOMMixin</title>
<g id="a_node1"><a xlink:href="../pyGHDL.dom.html#pyGHDL.dom.DOMMixin" xlink:title="DOMMixin" target="_top">
<polygon fill="white" stroke="#1e90ff" points="179,-56 111,-56 111,-37 179,-37 179,-56"/>
<text text-anchor="middle" x="145" y="-44" font-family="Vera Sans, DejaVu Sans, Liberation Sans, Arial, Helvetica, sans" font-size="10.00">DOMMixin</text>
</a>
</g>
</g>
<!-- IndexedName -->
<g id="node2" class="node">
<title>IndexedName</title>
<g id="a_node2"><a xlink:href="../pyGHDL/pyGHDL.dom.Names.html#pyGHDL.dom.Names.IndexedName" xlink:title="IndexedName" target="_top">
<polygon fill="white" stroke="#1e90ff" points="299,-37 215,-37 215,-18 299,-18 299,-37"/>
<text text-anchor="middle" x="257" y="-25" font-family="Vera Sans, DejaVu Sans, Liberation Sans, Arial, Helvetica, sans" font-size="10.00">IndexedName</text>
</a>
</g>
</g>
<!-- DOMMixin&#45;&gt;IndexedName -->
<g id="edge2" class="edge">
<title>DOMMixin&#45;&gt;IndexedName</title>
<path fill="none" stroke="black" stroke-width="0.5" d="M179,-40.8C188.68,-39.13 199.45,-37.27 209.8,-35.48"/>
<polygon fill="black" stroke="black" stroke-width="0.5" points="210.2,-37.19 214.83,-34.61 209.61,-33.74 210.2,-37.19"/>
</g>
<!-- IndexedName&#45;&gt;IndexedName -->
<g id="edge1" class="edge">
<title>IndexedName&#45;&gt;IndexedName</title>
<path fill="none" stroke="black" stroke-width="0.5" d="M239.74,-37.08C231.34,-45.73 237.09,-55 257,-55 273.48,-55 280.26,-48.65 277.34,-41.55"/>
<polygon fill="black" stroke="black" stroke-width="0.5" points="278.54,-40.21 274.26,-37.08 275.66,-42.19 278.54,-40.21"/>
</g>
<!-- Name -->
<g id="node3" class="node">
<title>Name</title>
<g id="a_node3"><a xlink:title="``Name`` is the base&#45;class for all *names* in the VHDL language model.">
<polygon fill="white" stroke="#1e90ff" points="172,-19 118,-19 118,0 172,0 172,-19"/>
<text text-anchor="middle" x="145" y="-7" font-family="Vera Sans, DejaVu Sans, Liberation Sans, Arial, Helvetica, sans" font-size="10.00">Name</text>
</a>
</g>
</g>
<!-- Name&#45;&gt;IndexedName -->
<g id="edge3" class="edge">
<title>Name&#45;&gt;IndexedName</title>
<path fill="none" stroke="black" stroke-width="0.5" d="M172.07,-13.77C183.29,-15.6 196.75,-17.8 209.57,-19.9"/>
<polygon fill="black" stroke="black" stroke-width="0.5" points="209.42,-21.65 214.64,-20.73 209.99,-18.2 209.42,-21.65"/>
</g>
<!-- ModelEntity -->
<g id="node4" class="node">
<title>ModelEntity</title>
<g id="a_node4"><a xlink:title="``ModelEntity`` is the base&#45;class for all classes in the VHDL language model, except for mixin classes (see multiple">
<polygon fill="white" stroke="#1e90ff" points="75,-19 0,-19 0,0 75,0 75,-19"/>
<text text-anchor="middle" x="37.5" y="-7" font-family="Vera Sans, DejaVu Sans, Liberation Sans, Arial, Helvetica, sans" font-size="10.00">ModelEntity</text>
</a>
</g>
</g>
<!-- ModelEntity&#45;&gt;Name -->
<g id="edge4" class="edge">
<title>ModelEntity&#45;&gt;Name</title>
<path fill="none" stroke="black" stroke-width="0.5" d="M75.1,-9.5C87.28,-9.5 100.73,-9.5 112.49,-9.5"/>
<polygon fill="black" stroke="black" stroke-width="0.5" points="112.77,-11.25 117.77,-9.5 112.77,-7.75 112.77,-11.25"/>
</g>
</g>
</svg>
