<?xml version="1.0" encoding="UTF-8" standalone="no"?>
<!DOCTYPE svg PUBLIC "-//W3C//DTD SVG 1.1//EN"
 "http://www.w3.org/Graphics/SVG/1.1/DTD/svg11.dtd">
<!-- Generated by graphviz version 2.43.0 (0)
 -->
<!-- Title: inheritance70e11edd31 Pages: 1 -->
<svg width="383pt" height="64pt"
 viewBox="0.00 0.00 383.00 64.00" xmlns="http://www.w3.org/2000/svg" xmlns:xlink="http://www.w3.org/1999/xlink">
<g id="graph0" class="graph" transform="scale(1 1) rotate(0) translate(4 60)">
<title>inheritance70e11edd31</title>
<!-- AssociationItem -->
<g id="node1" class="node">
<title>AssociationItem</title>
<polygon fill="white" stroke="#1e90ff" points="206,-19 111,-19 111,0 206,0 206,-19"/>
<text text-anchor="middle" x="158.5" y="-7" font-family="Vera Sans, DejaVu Sans, Liberation Sans, Arial, Helvetica, sans" font-size="10.00">AssociationItem</text>
</g>
<!-- GenericAssociationItem -->
<g id="node4" class="node">
<title>GenericAssociationItem</title>
<g id="a_node4"><a xlink:href="../pyGHDL/pyGHDL.dom.Concurrent.html#pyGHDL.dom.Concurrent.GenericAssociationItem" xlink:title="GenericAssociationItem" target="_top">
<polygon fill="white" stroke="#1e90ff" points="375,-37 242,-37 242,-18 375,-18 375,-37"/>
<text text-anchor="middle" x="308.5" y="-25" font-family="Vera Sans, DejaVu Sans, Liberation Sans, Arial, Helvetica, sans" font-size="10.00">GenericAssociationItem</text>
</a>
</g>
</g>
<!-- AssociationItem&#45;&gt;GenericAssociationItem -->
<g id="edge4" class="edge">
<title>AssociationItem&#45;&gt;GenericAssociationItem</title>
<path fill="none" stroke="black" stroke-width="0.5" d="M206.33,-15.2C216.01,-16.37 226.41,-17.64 236.72,-18.89"/>
<polygon fill="black" stroke="black" stroke-width="0.5" points="236.6,-20.64 241.78,-19.51 237.02,-17.17 236.6,-20.64"/>
</g>
<!-- ModelEntity -->
<g id="node2" class="node">
<title>ModelEntity</title>
<g id="a_node2"><a xlink:title="``ModelEntity`` is the base&#45;class for all classes in the VHDL language model, except for mixin classes (see multiple">
<polygon fill="white" stroke="#1e90ff" points="75,-19 0,-19 0,0 75,0 75,-19"/>
<text text-anchor="middle" x="37.5" y="-7" font-family="Vera Sans, DejaVu Sans, Liberation Sans, Arial, Helvetica, sans" font-size="10.00">ModelEntity</text>
</a>
</g>
</g>
<!-- ModelEntity&#45;&gt;AssociationItem -->
<g id="edge1" class="edge">
<title>ModelEntity&#45;&gt;AssociationItem</title>
<path fill="none" stroke="black" stroke-width="0.5" d="M75.17,-9.5C84.8,-9.5 95.36,-9.5 105.62,-9.5"/>
<polygon fill="black" stroke="black" stroke-width="0.5" points="105.63,-11.25 110.63,-9.5 105.63,-7.75 105.63,-11.25"/>
</g>
<!-- DOMMixin -->
<g id="node3" class="node">
<title>DOMMixin</title>
<g id="a_node3"><a xlink:href="../pyGHDL.dom.html#pyGHDL.dom.DOMMixin" xlink:title="DOMMixin" target="_top">
<polygon fill="white" stroke="#1e90ff" points="192.5,-56 124.5,-56 124.5,-37 192.5,-37 192.5,-56"/>
<text text-anchor="middle" x="158.5" y="-44" font-family="Vera Sans, DejaVu Sans, Liberation Sans, Arial, Helvetica, sans" font-size="10.00">DOMMixin</text>
</a>
</g>
</g>
<!-- DOMMixin&#45;&gt;GenericAssociationItem -->
<g id="edge3" class="edge">
<title>DOMMixin&#45;&gt;GenericAssociationItem</title>
<path fill="none" stroke="black" stroke-width="0.5" d="M192.71,-42.24C205.81,-40.56 221.38,-38.56 236.76,-36.58"/>
<polygon fill="black" stroke="black" stroke-width="0.5" points="237.23,-38.29 241.97,-35.91 236.78,-34.81 237.23,-38.29"/>
</g>
<!-- GenericAssociationItem&#45;&gt;GenericAssociationItem -->
<g id="edge2" class="edge">
<title>GenericAssociationItem&#45;&gt;GenericAssociationItem</title>
<path fill="none" stroke="black" stroke-width="0.5" d="M285.38,-37.08C274.13,-45.73 281.84,-55 308.5,-55 331.41,-55 340.32,-48.16 335.24,-40.74"/>
<polygon fill="black" stroke="black" stroke-width="0.5" points="336.38,-39.41 331.62,-37.08 333.89,-41.87 336.38,-39.41"/>
</g>
</g>
</svg>
