<?xml version="1.0" encoding="UTF-8" standalone="no"?>
<!DOCTYPE svg PUBLIC "-//W3C//DTD SVG 1.1//EN"
 "http://www.w3.org/Graphics/SVG/1.1/DTD/svg11.dtd">
<!-- Generated by graphviz version 2.43.0 (0)
 -->
<!-- Title: inheritanceb7b299c29c Pages: 1 -->
<svg width="576pt" height="127pt"
 viewBox="0.00 0.00 576.00 126.56" xmlns="http://www.w3.org/2000/svg" xmlns:xlink="http://www.w3.org/1999/xlink">
<g id="graph0" class="graph" transform="scale(1.23 1.23) rotate(0) translate(4 152)">
<title>inheritanceb7b299c29c</title>
<!-- ConcurrentDeclarations -->
<g id="node1" class="node">
<title>ConcurrentDeclarations</title>
<polygon fill="white" stroke="#1e90ff" points="538,-148 407,-148 407,-129 538,-129 538,-148"/>
<text text-anchor="middle" x="472.5" y="-136" font-family="Vera Sans, DejaVu Sans, Liberation Sans, Arial, Helvetica, sans" font-size="10.00">ConcurrentDeclarations</text>
</g>
<!-- ForGenerateStatement -->
<g id="node6" class="node">
<title>ForGenerateStatement</title>
<g id="a_node6"><a xlink:href="../pyGHDL/pyGHDL.dom.Concurrent.html#pyGHDL.dom.Concurrent.ForGenerateStatement" xlink:title="ForGenerateStatement" target="_top">
<polygon fill="white" stroke="#1e90ff" points="702,-92 574,-92 574,-73 702,-73 702,-92"/>
<text text-anchor="middle" x="638" y="-80" font-family="Vera Sans, DejaVu Sans, Liberation Sans, Arial, Helvetica, sans" font-size="10.00">ForGenerateStatement</text>
</a>
</g>
</g>
<!-- ConcurrentDeclarations&#45;&gt;ForGenerateStatement -->
<g id="edge5" class="edge">
<title>ConcurrentDeclarations&#45;&gt;ForGenerateStatement</title>
<path fill="none" stroke="black" stroke-width="0.5" d="M510.18,-128.91C519.32,-126.34 529.06,-123.46 538,-120.5 562.33,-112.45 589.47,-101.92 609.18,-93.99"/>
<polygon fill="black" stroke="black" stroke-width="0.5" points="610.04,-95.53 614.02,-92.03 608.73,-92.28 610.04,-95.53"/>
</g>
<!-- ConcurrentStatement -->
<g id="node2" class="node">
<title>ConcurrentStatement</title>
<g id="a_node2"><a xlink:title="A ``ConcurrentStatement`` is a base&#45;class for all concurrent statements.">
<polygon fill="white" stroke="#1e90ff" points="371,-37 250,-37 250,-18 371,-18 371,-37"/>
<text text-anchor="middle" x="310.5" y="-25" font-family="Vera Sans, DejaVu Sans, Liberation Sans, Arial, Helvetica, sans" font-size="10.00">ConcurrentStatement</text>
</a>
</g>
</g>
<!-- GenerateStatement -->
<g id="node7" class="node">
<title>GenerateStatement</title>
<g id="a_node7"><a xlink:title="A ``GenerateStatement`` is a base&#45;class for all generate statements.">
<polygon fill="white" stroke="#1e90ff" points="529,-37 416,-37 416,-18 529,-18 529,-37"/>
<text text-anchor="middle" x="472.5" y="-25" font-family="Vera Sans, DejaVu Sans, Liberation Sans, Arial, Helvetica, sans" font-size="10.00">GenerateStatement</text>
</a>
</g>
</g>
<!-- ConcurrentStatement&#45;&gt;GenerateStatement -->
<g id="edge7" class="edge">
<title>ConcurrentStatement&#45;&gt;GenerateStatement</title>
<path fill="none" stroke="black" stroke-width="0.5" d="M371.08,-27.5C384.02,-27.5 397.73,-27.5 410.71,-27.5"/>
<polygon fill="black" stroke="black" stroke-width="0.5" points="410.85,-29.25 415.85,-27.5 410.85,-25.75 410.85,-29.25"/>
</g>
<!-- Statement -->
<g id="node3" class="node">
<title>Statement</title>
<g id="a_node3"><a xlink:title="A ``Statement`` is a base&#45;class for all statements.">
<polygon fill="white" stroke="#1e90ff" points="214,-37 146,-37 146,-18 214,-18 214,-37"/>
<text text-anchor="middle" x="180" y="-25" font-family="Vera Sans, DejaVu Sans, Liberation Sans, Arial, Helvetica, sans" font-size="10.00">Statement</text>
</a>
</g>
</g>
<!-- Statement&#45;&gt;ConcurrentStatement -->
<g id="edge1" class="edge">
<title>Statement&#45;&gt;ConcurrentStatement</title>
<path fill="none" stroke="black" stroke-width="0.5" d="M214.09,-27.5C223.49,-27.5 234.05,-27.5 244.64,-27.5"/>
<polygon fill="black" stroke="black" stroke-width="0.5" points="244.84,-29.25 249.84,-27.5 244.84,-25.75 244.84,-29.25"/>
</g>
<!-- ConcurrentStatements -->
<g id="node4" class="node">
<title>ConcurrentStatements</title>
<polygon fill="white" stroke="#1e90ff" points="535.5,-111 409.5,-111 409.5,-92 535.5,-92 535.5,-111"/>
<text text-anchor="middle" x="472.5" y="-99" font-family="Vera Sans, DejaVu Sans, Liberation Sans, Arial, Helvetica, sans" font-size="10.00">ConcurrentStatements</text>
</g>
<!-- ConcurrentStatements&#45;&gt;ForGenerateStatement -->
<g id="edge6" class="edge">
<title>ConcurrentStatements&#45;&gt;ForGenerateStatement</title>
<path fill="none" stroke="black" stroke-width="0.5" d="M535.78,-94.26C546.58,-93.01 557.86,-91.7 568.81,-90.42"/>
<polygon fill="black" stroke="black" stroke-width="0.5" points="569.05,-92.16 573.81,-89.84 568.64,-88.68 569.05,-92.16"/>
</g>
<!-- DOMMixin -->
<g id="node5" class="node">
<title>DOMMixin</title>
<g id="a_node5"><a xlink:href="../pyGHDL.dom.html#pyGHDL.dom.DOMMixin" xlink:title="DOMMixin" target="_top">
<polygon fill="white" stroke="#1e90ff" points="506.5,-74 438.5,-74 438.5,-55 506.5,-55 506.5,-74"/>
<text text-anchor="middle" x="472.5" y="-62" font-family="Vera Sans, DejaVu Sans, Liberation Sans, Arial, Helvetica, sans" font-size="10.00">DOMMixin</text>
</a>
</g>
</g>
<!-- DOMMixin&#45;&gt;ForGenerateStatement -->
<g id="edge3" class="edge">
<title>DOMMixin&#45;&gt;ForGenerateStatement</title>
<path fill="none" stroke="black" stroke-width="0.5" d="M506.59,-68.14C524.47,-70.11 547.23,-72.62 568.72,-74.98"/>
<polygon fill="black" stroke="black" stroke-width="0.5" points="568.7,-76.74 573.86,-75.55 569.08,-73.26 568.7,-76.74"/>
</g>
<!-- ForGenerateStatement&#45;&gt;ForGenerateStatement -->
<g id="edge2" class="edge">
<title>ForGenerateStatement&#45;&gt;ForGenerateStatement</title>
<path fill="none" stroke="black" stroke-width="0.5" d="M612.72,-92.08C600.43,-100.73 608.85,-110 638,-110 663.05,-110 672.79,-103.16 667.24,-95.74"/>
<polygon fill="black" stroke="black" stroke-width="0.5" points="668.14,-94.19 663.28,-92.08 665.76,-96.76 668.14,-94.19"/>
</g>
<!-- GenerateStatement&#45;&gt;ForGenerateStatement -->
<g id="edge4" class="edge">
<title>GenerateStatement&#45;&gt;ForGenerateStatement</title>
<path fill="none" stroke="black" stroke-width="0.5" d="M507.43,-37.07C517.33,-39.97 528.13,-43.26 538,-46.5 561.38,-54.19 587.55,-63.74 607.1,-71.08"/>
<polygon fill="black" stroke="black" stroke-width="0.5" points="606.63,-72.77 611.92,-72.89 607.86,-69.49 606.63,-72.77"/>
</g>
<!-- LabeledEntityMixin -->
<g id="node8" class="node">
<title>LabeledEntityMixin</title>
<g id="a_node8"><a xlink:title="A ``LabeledEntityMixin`` is a mixin class for all VHDL entities that can have labels.">
<polygon fill="white" stroke="#1e90ff" points="110,-56 0,-56 0,-37 110,-37 110,-56"/>
<text text-anchor="middle" x="55" y="-44" font-family="Vera Sans, DejaVu Sans, Liberation Sans, Arial, Helvetica, sans" font-size="10.00">LabeledEntityMixin</text>
</a>
</g>
</g>
<!-- LabeledEntityMixin&#45;&gt;Statement -->
<g id="edge9" class="edge">
<title>LabeledEntityMixin&#45;&gt;Statement</title>
<path fill="none" stroke="black" stroke-width="0.5" d="M110.31,-38.11C120.61,-36.52 131.19,-34.89 140.86,-33.39"/>
<polygon fill="black" stroke="black" stroke-width="0.5" points="141.15,-35.12 145.83,-32.62 140.62,-31.66 141.15,-35.12"/>
</g>
<!-- ModelEntity -->
<g id="node9" class="node">
<title>ModelEntity</title>
<g id="a_node9"><a xlink:title="``ModelEntity`` is the base&#45;class for all classes in the VHDL language model, except for mixin classes (see multiple">
<polygon fill="white" stroke="#1e90ff" points="92.5,-19 17.5,-19 17.5,0 92.5,0 92.5,-19"/>
<text text-anchor="middle" x="55" y="-7" font-family="Vera Sans, DejaVu Sans, Liberation Sans, Arial, Helvetica, sans" font-size="10.00">ModelEntity</text>
</a>
</g>
</g>
<!-- ModelEntity&#45;&gt;Statement -->
<g id="edge8" class="edge">
<title>ModelEntity&#45;&gt;Statement</title>
<path fill="none" stroke="black" stroke-width="0.5" d="M92.57,-14.85C107.71,-17.07 125.28,-19.64 140.61,-21.88"/>
<polygon fill="black" stroke="black" stroke-width="0.5" points="140.51,-23.64 145.72,-22.63 141.02,-20.17 140.51,-23.64"/>
</g>
</g>
</svg>
