<?xml version="1.0" encoding="UTF-8" standalone="no"?>
<!DOCTYPE svg PUBLIC "-//W3C//DTD SVG 1.1//EN"
 "http://www.w3.org/Graphics/SVG/1.1/DTD/svg11.dtd">
<!-- Generated by graphviz version 2.43.0 (0)
 -->
<!-- Title: inheritanced4b0a75683 Pages: 1 -->
<svg width="576pt" height="52pt"
 viewBox="0.00 0.00 576.00 51.92" xmlns="http://www.w3.org/2000/svg" xmlns:xlink="http://www.w3.org/1999/xlink">
<g id="graph0" class="graph" transform="scale(1.23 1.23) rotate(0) translate(4 60)">
<title>inheritanced4b0a75683</title>
<!-- BaseExpression -->
<g id="node1" class="node">
<title>BaseExpression</title>
<g id="a_node1"><a xlink:title="A ``BaseExpression`` is a base&#45;class for all expressions.">
<polygon fill="white" stroke="#1e90ff" points="205,-19 111,-19 111,0 205,0 205,-19"/>
<text text-anchor="middle" x="158" y="-7" font-family="Vera Sans, DejaVu Sans, Liberation Sans, Arial, Helvetica, sans" font-size="10.00">BaseExpression</text>
</a>
</g>
</g>
<!-- Literal -->
<g id="node4" class="node">
<title>Literal</title>
<g id="a_node4"><a xlink:title="A ``Literal`` is a base&#45;class for all literals.">
<polygon fill="white" stroke="#1e90ff" points="295,-19 241,-19 241,0 295,0 295,-19"/>
<text text-anchor="middle" x="268" y="-7" font-family="Vera Sans, DejaVu Sans, Liberation Sans, Arial, Helvetica, sans" font-size="10.00">Literal</text>
</a>
</g>
</g>
<!-- BaseExpression&#45;&gt;Literal -->
<g id="edge2" class="edge">
<title>BaseExpression&#45;&gt;Literal</title>
<path fill="none" stroke="black" stroke-width="0.5" d="M205.11,-9.5C215.47,-9.5 226.21,-9.5 235.79,-9.5"/>
<polygon fill="black" stroke="black" stroke-width="0.5" points="235.98,-11.25 240.98,-9.5 235.98,-7.75 235.98,-11.25"/>
</g>
<!-- ModelEntity -->
<g id="node2" class="node">
<title>ModelEntity</title>
<g id="a_node2"><a xlink:title="``ModelEntity`` is the base&#45;class for all classes in the VHDL language model, except for mixin classes (see multiple">
<polygon fill="white" stroke="#1e90ff" points="75,-19 0,-19 0,0 75,0 75,-19"/>
<text text-anchor="middle" x="37.5" y="-7" font-family="Vera Sans, DejaVu Sans, Liberation Sans, Arial, Helvetica, sans" font-size="10.00">ModelEntity</text>
</a>
</g>
</g>
<!-- ModelEntity&#45;&gt;BaseExpression -->
<g id="edge1" class="edge">
<title>ModelEntity&#45;&gt;BaseExpression</title>
<path fill="none" stroke="black" stroke-width="0.5" d="M75.02,-9.5C84.72,-9.5 95.38,-9.5 105.71,-9.5"/>
<polygon fill="black" stroke="black" stroke-width="0.5" points="105.75,-11.25 110.75,-9.5 105.75,-7.75 105.75,-11.25"/>
</g>
<!-- DOMMixin -->
<g id="node3" class="node">
<title>DOMMixin</title>
<g id="a_node3"><a xlink:href="../pyGHDL.dom.html#pyGHDL.dom.DOMMixin" xlink:title="DOMMixin" target="_top">
<polygon fill="white" stroke="#1e90ff" points="534,-56 466,-56 466,-37 534,-37 534,-56"/>
<text text-anchor="middle" x="500" y="-44" font-family="Vera Sans, DejaVu Sans, Liberation Sans, Arial, Helvetica, sans" font-size="10.00">DOMMixin</text>
</a>
</g>
</g>
<!-- PhysicalIntegerLiteral -->
<g id="node6" class="node">
<title>PhysicalIntegerLiteral</title>
<g id="a_node6"><a xlink:href="../pyGHDL/pyGHDL.dom.Literal.html#pyGHDL.dom.Literal.PhysicalIntegerLiteral" xlink:title="PhysicalIntegerLiteral" target="_top">
<polygon fill="white" stroke="#1e90ff" points="702,-37 580,-37 580,-18 702,-18 702,-37"/>
<text text-anchor="middle" x="641" y="-25" font-family="Vera Sans, DejaVu Sans, Liberation Sans, Arial, Helvetica, sans" font-size="10.00">PhysicalIntegerLiteral</text>
</a>
</g>
</g>
<!-- DOMMixin&#45;&gt;PhysicalIntegerLiteral -->
<g id="edge5" class="edge">
<title>DOMMixin&#45;&gt;PhysicalIntegerLiteral</title>
<path fill="none" stroke="black" stroke-width="0.5" d="M534.29,-41.95C546.45,-40.29 560.67,-38.34 574.65,-36.43"/>
<polygon fill="black" stroke="black" stroke-width="0.5" points="575.08,-38.14 579.79,-35.73 574.6,-34.67 575.08,-38.14"/>
</g>
<!-- NumericLiteral -->
<g id="node5" class="node">
<title>NumericLiteral</title>
<g id="a_node5"><a xlink:title="A ``NumericLiteral`` is a base&#45;class for all numeric literals.">
<polygon fill="white" stroke="#1e90ff" points="420,-19 331,-19 331,0 420,0 420,-19"/>
<text text-anchor="middle" x="375.5" y="-7" font-family="Vera Sans, DejaVu Sans, Liberation Sans, Arial, Helvetica, sans" font-size="10.00">NumericLiteral</text>
</a>
</g>
</g>
<!-- Literal&#45;&gt;NumericLiteral -->
<g id="edge3" class="edge">
<title>Literal&#45;&gt;NumericLiteral</title>
<path fill="none" stroke="black" stroke-width="0.5" d="M295.08,-9.5C304.31,-9.5 315.01,-9.5 325.52,-9.5"/>
<polygon fill="black" stroke="black" stroke-width="0.5" points="325.66,-11.25 330.66,-9.5 325.66,-7.75 325.66,-11.25"/>
</g>
<!-- PhysicalLiteral -->
<g id="node7" class="node">
<title>PhysicalLiteral</title>
<polygon fill="white" stroke="#1e90ff" points="544,-19 456,-19 456,0 544,0 544,-19"/>
<text text-anchor="middle" x="500" y="-7" font-family="Vera Sans, DejaVu Sans, Liberation Sans, Arial, Helvetica, sans" font-size="10.00">PhysicalLiteral</text>
</g>
<!-- NumericLiteral&#45;&gt;PhysicalLiteral -->
<g id="edge7" class="edge">
<title>NumericLiteral&#45;&gt;PhysicalLiteral</title>
<path fill="none" stroke="black" stroke-width="0.5" d="M420.03,-9.5C429.87,-9.5 440.38,-9.5 450.41,-9.5"/>
<polygon fill="black" stroke="black" stroke-width="0.5" points="450.61,-11.25 455.61,-9.5 450.61,-7.75 450.61,-11.25"/>
</g>
<!-- PhysicalIntegerLiteral&#45;&gt;PhysicalIntegerLiteral -->
<g id="edge4" class="edge">
<title>PhysicalIntegerLiteral&#45;&gt;PhysicalIntegerLiteral</title>
<path fill="none" stroke="black" stroke-width="0.5" d="M619.42,-37.08C608.92,-45.73 616.12,-55 641,-55 661.99,-55 670.4,-48.4 666.2,-41.15"/>
<polygon fill="black" stroke="black" stroke-width="0.5" points="667.21,-39.65 662.58,-37.08 664.6,-41.98 667.21,-39.65"/>
</g>
<!-- PhysicalLiteral&#45;&gt;PhysicalIntegerLiteral -->
<g id="edge6" class="edge">
<title>PhysicalLiteral&#45;&gt;PhysicalIntegerLiteral</title>
<path fill="none" stroke="black" stroke-width="0.5" d="M544.22,-15.1C553.94,-16.36 564.47,-17.72 574.87,-19.07"/>
<polygon fill="black" stroke="black" stroke-width="0.5" points="574.78,-20.82 579.96,-19.73 575.23,-17.35 574.78,-20.82"/>
</g>
</g>
</svg>
