<?xml version="1.0" encoding="UTF-8" standalone="no"?>
<!DOCTYPE svg PUBLIC "-//W3C//DTD SVG 1.1//EN"
 "http://www.w3.org/Graphics/SVG/1.1/DTD/svg11.dtd">
<!-- Generated by graphviz version 2.43.0 (0)
 -->
<!-- Title: inheritance5ed14ca82c Pages: 1 -->
<svg width="436pt" height="101pt"
 viewBox="0.00 0.00 436.00 101.00" xmlns="http://www.w3.org/2000/svg" xmlns:xlink="http://www.w3.org/1999/xlink">
<g id="graph0" class="graph" transform="scale(1 1) rotate(0) translate(4 97)">
<title>inheritance5ed14ca82c</title>
<!-- DOMMixin -->
<g id="node1" class="node">
<title>DOMMixin</title>
<g id="a_node1"><a xlink:href="../pyGHDL.dom.html#pyGHDL.dom.DOMMixin" xlink:title="DOMMixin" target="_top">
<polygon fill="white" stroke="#1e90ff" points="294.5,-93 226.5,-93 226.5,-74 294.5,-74 294.5,-93"/>
<text text-anchor="middle" x="260.5" y="-81" font-family="Vera Sans, DejaVu Sans, Liberation Sans, Arial, Helvetica, sans" font-size="10.00">DOMMixin</text>
</a>
</g>
</g>
<!-- Signal -->
<g id="node6" class="node">
<title>Signal</title>
<g id="a_node6"><a xlink:href="../pyGHDL/pyGHDL.dom.Object.html#pyGHDL.dom.Object.Signal" xlink:title="Signal" target="_top">
<polygon fill="white" stroke="#1e90ff" points="428,-56 374,-56 374,-37 428,-37 428,-56"/>
<text text-anchor="middle" x="401" y="-44" font-family="Vera Sans, DejaVu Sans, Liberation Sans, Arial, Helvetica, sans" font-size="10.00">Signal</text>
</a>
</g>
</g>
<!-- DOMMixin&#45;&gt;Signal -->
<g id="edge5" class="edge">
<title>DOMMixin&#45;&gt;Signal</title>
<path fill="none" stroke="black" stroke-width="0.5" d="M294.76,-76.18C308.23,-73.08 323.91,-69.31 338,-65.5 348.09,-62.77 359.01,-59.52 368.84,-56.49"/>
<polygon fill="black" stroke="black" stroke-width="0.5" points="369.61,-58.08 373.87,-54.93 368.57,-54.74 369.61,-58.08"/>
</g>
<!-- DocumentedEntityMixin -->
<g id="node2" class="node">
<title>DocumentedEntityMixin</title>
<g id="a_node2"><a xlink:title="A ``DocumentedEntityMixin`` is a mixin class for all VHDL entities that can have an associated documentation.">
<polygon fill="white" stroke="#1e90ff" points="140.5,-93 6.5,-93 6.5,-74 140.5,-74 140.5,-93"/>
<text text-anchor="middle" x="73.5" y="-81" font-family="Vera Sans, DejaVu Sans, Liberation Sans, Arial, Helvetica, sans" font-size="10.00">DocumentedEntityMixin</text>
</a>
</g>
</g>
<!-- Obj -->
<g id="node5" class="node">
<title>Obj</title>
<polygon fill="white" stroke="#1e90ff" points="287.5,-56 233.5,-56 233.5,-37 287.5,-37 287.5,-56"/>
<text text-anchor="middle" x="260.5" y="-44" font-family="Vera Sans, DejaVu Sans, Liberation Sans, Arial, Helvetica, sans" font-size="10.00">Obj</text>
</g>
<!-- DocumentedEntityMixin&#45;&gt;Obj -->
<g id="edge3" class="edge">
<title>DocumentedEntityMixin&#45;&gt;Obj</title>
<path fill="none" stroke="black" stroke-width="0.5" d="M122.14,-73.97C155.5,-67.3 199.13,-58.57 228.18,-52.76"/>
<polygon fill="black" stroke="black" stroke-width="0.5" points="228.86,-54.41 233.42,-51.72 228.18,-50.98 228.86,-54.41"/>
</g>
<!-- ModelEntity -->
<g id="node3" class="node">
<title>ModelEntity</title>
<g id="a_node3"><a xlink:title="``ModelEntity`` is the base&#45;class for all classes in the VHDL language model, except for mixin classes (see multiple">
<polygon fill="white" stroke="#1e90ff" points="111,-56 36,-56 36,-37 111,-37 111,-56"/>
<text text-anchor="middle" x="73.5" y="-44" font-family="Vera Sans, DejaVu Sans, Liberation Sans, Arial, Helvetica, sans" font-size="10.00">ModelEntity</text>
</a>
</g>
</g>
<!-- ModelEntity&#45;&gt;Obj -->
<g id="edge1" class="edge">
<title>ModelEntity&#45;&gt;Obj</title>
<path fill="none" stroke="black" stroke-width="0.5" d="M111.05,-46.5C145.33,-46.5 196.04,-46.5 228.43,-46.5"/>
<polygon fill="black" stroke="black" stroke-width="0.5" points="228.46,-48.25 233.46,-46.5 228.46,-44.75 228.46,-48.25"/>
</g>
<!-- MultipleNamedEntityMixin -->
<g id="node4" class="node">
<title>MultipleNamedEntityMixin</title>
<g id="a_node4"><a xlink:title="A ``MultipleNamedEntityMixin`` is a mixin class for all VHDL entities that declare multiple instances at once by">
<polygon fill="white" stroke="#1e90ff" points="147,-19 0,-19 0,0 147,0 147,-19"/>
<text text-anchor="middle" x="73.5" y="-7" font-family="Vera Sans, DejaVu Sans, Liberation Sans, Arial, Helvetica, sans" font-size="10.00">MultipleNamedEntityMixin</text>
</a>
</g>
</g>
<!-- MultipleNamedEntityMixin&#45;&gt;Obj -->
<g id="edge2" class="edge">
<title>MultipleNamedEntityMixin&#45;&gt;Obj</title>
<path fill="none" stroke="black" stroke-width="0.5" d="M122.14,-19.03C155.5,-25.7 199.13,-34.43 228.18,-40.24"/>
<polygon fill="black" stroke="black" stroke-width="0.5" points="228.18,-42.02 233.42,-41.28 228.86,-38.59 228.18,-42.02"/>
</g>
<!-- Obj&#45;&gt;Signal -->
<g id="edge6" class="edge">
<title>Obj&#45;&gt;Signal</title>
<path fill="none" stroke="black" stroke-width="0.5" d="M287.55,-46.5C310.52,-46.5 344.05,-46.5 368.52,-46.5"/>
<polygon fill="black" stroke="black" stroke-width="0.5" points="368.6,-48.25 373.6,-46.5 368.6,-44.75 368.6,-48.25"/>
</g>
<!-- Signal&#45;&gt;Signal -->
<g id="edge4" class="edge">
<title>Signal&#45;&gt;Signal</title>
<path fill="none" stroke="black" stroke-width="0.5" d="M379.42,-56.08C368.92,-64.73 376.12,-74 401,-74 421.99,-74 430.4,-67.4 426.2,-60.15"/>
<polygon fill="black" stroke="black" stroke-width="0.5" points="427.21,-58.65 422.58,-56.08 424.6,-60.98 427.21,-58.65"/>
</g>
<!-- WithDefaultExpressionMixin -->
<g id="node7" class="node">
<title>WithDefaultExpressionMixin</title>
<g id="a_node7"><a xlink:title="A ``WithDefaultExpression`` is a mixin class for all objects declarations accepting default expressions.">
<polygon fill="white" stroke="#1e90ff" points="338,-19 183,-19 183,0 338,0 338,-19"/>
<text text-anchor="middle" x="260.5" y="-7" font-family="Vera Sans, DejaVu Sans, Liberation Sans, Arial, Helvetica, sans" font-size="10.00">WithDefaultExpressionMixin</text>
</a>
</g>
</g>
<!-- WithDefaultExpressionMixin&#45;&gt;Signal -->
<g id="edge7" class="edge">
<title>WithDefaultExpressionMixin&#45;&gt;Signal</title>
<path fill="none" stroke="black" stroke-width="0.5" d="M301.28,-19.07C313.12,-22 326.11,-25.3 338,-28.5 348.05,-31.2 358.96,-34.31 368.79,-37.18"/>
<polygon fill="black" stroke="black" stroke-width="0.5" points="368.53,-38.93 373.82,-38.65 369.51,-35.57 368.53,-38.93"/>
</g>
</g>
</svg>
