<?xml version="1.0" encoding="UTF-8" standalone="no"?>
<!DOCTYPE svg PUBLIC "-//W3C//DTD SVG 1.1//EN"
 "http://www.w3.org/Graphics/SVG/1.1/DTD/svg11.dtd">
<!-- Generated by graphviz version 2.43.0 (0)
 -->
<!-- Title: inheritancefc4f5bd18c Pages: 1 -->
<svg width="385pt" height="101pt"
 viewBox="0.00 0.00 385.00 101.00" xmlns="http://www.w3.org/2000/svg" xmlns:xlink="http://www.w3.org/1999/xlink">
<g id="graph0" class="graph" transform="scale(1 1) rotate(0) translate(4 97)">
<title>inheritancefc4f5bd18c</title>
<!-- DOMMixin -->
<g id="node1" class="node">
<title>DOMMixin</title>
<g id="a_node1"><a xlink:href="../pyGHDL.dom.html#pyGHDL.dom.DOMMixin" xlink:title="DOMMixin" target="_top">
<polygon fill="white" stroke="#1e90ff" points="251,-93 183,-93 183,-74 251,-74 251,-93"/>
<text text-anchor="middle" x="217" y="-81" font-family="Vera Sans, DejaVu Sans, Liberation Sans, Arial, Helvetica, sans" font-size="10.00">DOMMixin</text>
</a>
</g>
</g>
<!-- SharedVariable -->
<g id="node6" class="node">
<title>SharedVariable</title>
<g id="a_node6"><a xlink:href="../pyGHDL/pyGHDL.dom.Object.html#pyGHDL.dom.Object.SharedVariable" xlink:title="SharedVariable" target="_top">
<polygon fill="white" stroke="#1e90ff" points="377,-74 287,-74 287,-55 377,-55 377,-74"/>
<text text-anchor="middle" x="332" y="-62" font-family="Vera Sans, DejaVu Sans, Liberation Sans, Arial, Helvetica, sans" font-size="10.00">SharedVariable</text>
</a>
</g>
</g>
<!-- DOMMixin&#45;&gt;SharedVariable -->
<g id="edge5" class="edge">
<title>DOMMixin&#45;&gt;SharedVariable</title>
<path fill="none" stroke="black" stroke-width="0.5" d="M251.29,-77.9C260.8,-76.3 271.38,-74.53 281.63,-72.8"/>
<polygon fill="black" stroke="black" stroke-width="0.5" points="281.99,-74.51 286.63,-71.96 281.41,-71.06 281.99,-74.51"/>
</g>
<!-- DocumentedEntityMixin -->
<g id="node2" class="node">
<title>DocumentedEntityMixin</title>
<g id="a_node2"><a xlink:title="A ``DocumentedEntityMixin`` is a mixin class for all VHDL entities that can have an associated documentation.">
<polygon fill="white" stroke="#1e90ff" points="140.5,-93 6.5,-93 6.5,-74 140.5,-74 140.5,-93"/>
<text text-anchor="middle" x="73.5" y="-81" font-family="Vera Sans, DejaVu Sans, Liberation Sans, Arial, Helvetica, sans" font-size="10.00">DocumentedEntityMixin</text>
</a>
</g>
</g>
<!-- Obj -->
<g id="node5" class="node">
<title>Obj</title>
<polygon fill="white" stroke="#1e90ff" points="244,-56 190,-56 190,-37 244,-37 244,-56"/>
<text text-anchor="middle" x="217" y="-44" font-family="Vera Sans, DejaVu Sans, Liberation Sans, Arial, Helvetica, sans" font-size="10.00">Obj</text>
</g>
<!-- DocumentedEntityMixin&#45;&gt;Obj -->
<g id="edge3" class="edge">
<title>DocumentedEntityMixin&#45;&gt;Obj</title>
<path fill="none" stroke="black" stroke-width="0.5" d="M113.68,-73.97C124.49,-71.28 136.21,-68.32 147,-65.5 159.41,-62.25 173.03,-58.53 184.87,-55.25"/>
<polygon fill="black" stroke="black" stroke-width="0.5" points="185.48,-56.9 189.83,-53.87 184.54,-53.53 185.48,-56.9"/>
</g>
<!-- ModelEntity -->
<g id="node3" class="node">
<title>ModelEntity</title>
<g id="a_node3"><a xlink:title="``ModelEntity`` is the base&#45;class for all classes in the VHDL language model, except for mixin classes (see multiple">
<polygon fill="white" stroke="#1e90ff" points="111,-56 36,-56 36,-37 111,-37 111,-56"/>
<text text-anchor="middle" x="73.5" y="-44" font-family="Vera Sans, DejaVu Sans, Liberation Sans, Arial, Helvetica, sans" font-size="10.00">ModelEntity</text>
</a>
</g>
</g>
<!-- ModelEntity&#45;&gt;Obj -->
<g id="edge1" class="edge">
<title>ModelEntity&#45;&gt;Obj</title>
<path fill="none" stroke="black" stroke-width="0.5" d="M111.31,-46.5C134.05,-46.5 162.93,-46.5 184.59,-46.5"/>
<polygon fill="black" stroke="black" stroke-width="0.5" points="184.65,-48.25 189.65,-46.5 184.65,-44.75 184.65,-48.25"/>
</g>
<!-- MultipleNamedEntityMixin -->
<g id="node4" class="node">
<title>MultipleNamedEntityMixin</title>
<g id="a_node4"><a xlink:title="A ``MultipleNamedEntityMixin`` is a mixin class for all VHDL entities that declare multiple instances at once by">
<polygon fill="white" stroke="#1e90ff" points="147,-19 0,-19 0,0 147,0 147,-19"/>
<text text-anchor="middle" x="73.5" y="-7" font-family="Vera Sans, DejaVu Sans, Liberation Sans, Arial, Helvetica, sans" font-size="10.00">MultipleNamedEntityMixin</text>
</a>
</g>
</g>
<!-- MultipleNamedEntityMixin&#45;&gt;Obj -->
<g id="edge2" class="edge">
<title>MultipleNamedEntityMixin&#45;&gt;Obj</title>
<path fill="none" stroke="black" stroke-width="0.5" d="M110.94,-19.03C133.83,-25.01 163.05,-32.66 184.86,-38.36"/>
<polygon fill="black" stroke="black" stroke-width="0.5" points="184.68,-40.12 189.96,-39.69 185.56,-36.73 184.68,-40.12"/>
</g>
<!-- Obj&#45;&gt;SharedVariable -->
<g id="edge6" class="edge">
<title>Obj&#45;&gt;SharedVariable</title>
<path fill="none" stroke="black" stroke-width="0.5" d="M244.21,-50.67C255.37,-52.45 268.78,-54.59 281.68,-56.64"/>
<polygon fill="black" stroke="black" stroke-width="0.5" points="281.57,-58.4 286.79,-57.46 282.12,-54.94 281.57,-58.4"/>
</g>
<!-- SharedVariable&#45;&gt;SharedVariable -->
<g id="edge4" class="edge">
<title>SharedVariable&#45;&gt;SharedVariable</title>
<path fill="none" stroke="black" stroke-width="0.5" d="M314.43,-74.08C305.88,-82.73 311.74,-92 332,-92 349.1,-92 355.94,-85.4 352.52,-78.15"/>
<polygon fill="black" stroke="black" stroke-width="0.5" points="353.93,-77.1 349.57,-74.08 351.09,-79.16 353.93,-77.1"/>
</g>
</g>
</svg>
