<?xml version="1.0" encoding="UTF-8" standalone="no"?>
<!DOCTYPE svg PUBLIC "-//W3C//DTD SVG 1.1//EN"
 "http://www.w3.org/Graphics/SVG/1.1/DTD/svg11.dtd">
<!-- Generated by graphviz version 2.43.0 (0)
 -->
<!-- Title: inheritance5080d1bbce Pages: 1 -->
<svg width="576pt" height="46pt"
 viewBox="0.00 0.00 576.00 45.51" xmlns="http://www.w3.org/2000/svg" xmlns:xlink="http://www.w3.org/1999/xlink">
<g id="graph0" class="graph" transform="scale(1.41 1.41) rotate(0) translate(4 60)">
<title>inheritance5080d1bbce</title>
<!-- BaseExpression -->
<g id="node1" class="node">
<title>BaseExpression</title>
<g id="a_node1"><a xlink:title="A ``BaseExpression`` is a base&#45;class for all expressions.">
<polygon fill="white" stroke="#1e90ff" points="205,-19 111,-19 111,0 205,0 205,-19"/>
<text text-anchor="middle" x="158" y="-7" font-family="Vera Sans, DejaVu Sans, Liberation Sans, Arial, Helvetica, sans" font-size="10.00">BaseExpression</text>
</a>
</g>
</g>
<!-- BinaryExpression -->
<g id="node3" class="node">
<title>BinaryExpression</title>
<g id="a_node3"><a xlink:title="A ``BinaryExpression`` is a base&#45;class for all binary expressions.">
<polygon fill="white" stroke="#1e90ff" points="342,-19 241,-19 241,0 342,0 342,-19"/>
<text text-anchor="middle" x="291.5" y="-7" font-family="Vera Sans, DejaVu Sans, Liberation Sans, Arial, Helvetica, sans" font-size="10.00">BinaryExpression</text>
</a>
</g>
</g>
<!-- BaseExpression&#45;&gt;BinaryExpression -->
<g id="edge2" class="edge">
<title>BaseExpression&#45;&gt;BinaryExpression</title>
<path fill="none" stroke="black" stroke-width="0.5" d="M205.36,-9.5C215.19,-9.5 225.64,-9.5 235.74,-9.5"/>
<polygon fill="black" stroke="black" stroke-width="0.5" points="235.99,-11.25 240.99,-9.5 235.99,-7.75 235.99,-11.25"/>
</g>
<!-- ModelEntity -->
<g id="node2" class="node">
<title>ModelEntity</title>
<g id="a_node2"><a xlink:title="``ModelEntity`` is the base&#45;class for all classes in the VHDL language model, except for mixin classes (see multiple">
<polygon fill="white" stroke="#1e90ff" points="75,-19 0,-19 0,0 75,0 75,-19"/>
<text text-anchor="middle" x="37.5" y="-7" font-family="Vera Sans, DejaVu Sans, Liberation Sans, Arial, Helvetica, sans" font-size="10.00">ModelEntity</text>
</a>
</g>
</g>
<!-- ModelEntity&#45;&gt;BaseExpression -->
<g id="edge1" class="edge">
<title>ModelEntity&#45;&gt;BaseExpression</title>
<path fill="none" stroke="black" stroke-width="0.5" d="M75.02,-9.5C84.72,-9.5 95.38,-9.5 105.71,-9.5"/>
<polygon fill="black" stroke="black" stroke-width="0.5" points="105.75,-11.25 110.75,-9.5 105.75,-7.75 105.75,-11.25"/>
</g>
<!-- ShiftExpression -->
<g id="node5" class="node">
<title>ShiftExpression</title>
<g id="a_node5"><a xlink:title="A ``ShiftExpression`` is a base&#45;class for all shifting expressions.">
<polygon fill="white" stroke="#1e90ff" points="470,-19 378,-19 378,0 470,0 470,-19"/>
<text text-anchor="middle" x="424" y="-7" font-family="Vera Sans, DejaVu Sans, Liberation Sans, Arial, Helvetica, sans" font-size="10.00">ShiftExpression</text>
</a>
</g>
</g>
<!-- BinaryExpression&#45;&gt;ShiftExpression -->
<g id="edge3" class="edge">
<title>BinaryExpression&#45;&gt;ShiftExpression</title>
<path fill="none" stroke="black" stroke-width="0.5" d="M342.21,-9.5C352.15,-9.5 362.59,-9.5 372.55,-9.5"/>
<polygon fill="black" stroke="black" stroke-width="0.5" points="372.71,-11.25 377.71,-9.5 372.71,-7.75 372.71,-11.25"/>
</g>
<!-- DOMMixin -->
<g id="node4" class="node">
<title>DOMMixin</title>
<g id="a_node4"><a xlink:href="../pyGHDL.dom.html#pyGHDL.dom.DOMMixin" xlink:title="DOMMixin" target="_top">
<polygon fill="white" stroke="#1e90ff" points="598.5,-56 530.5,-56 530.5,-37 598.5,-37 598.5,-56"/>
<text text-anchor="middle" x="564.5" y="-44" font-family="Vera Sans, DejaVu Sans, Liberation Sans, Arial, Helvetica, sans" font-size="10.00">DOMMixin</text>
</a>
</g>
</g>
<!-- ShiftRightLogicExpression -->
<g id="node7" class="node">
<title>ShiftRightLogicExpression</title>
<g id="a_node7"><a xlink:href="../pyGHDL/pyGHDL.dom.Expression.html#pyGHDL.dom.Expression.ShiftRightLogicExpression" xlink:title="ShiftRightLogicExpression" target="_top">
<polygon fill="white" stroke="#1e90ff" points="802,-37 659,-37 659,-18 802,-18 802,-37"/>
<text text-anchor="middle" x="730.5" y="-25" font-family="Vera Sans, DejaVu Sans, Liberation Sans, Arial, Helvetica, sans" font-size="10.00">ShiftRightLogicExpression</text>
</a>
</g>
</g>
<!-- DOMMixin&#45;&gt;ShiftRightLogicExpression -->
<g id="edge6" class="edge">
<title>DOMMixin&#45;&gt;ShiftRightLogicExpression</title>
<path fill="none" stroke="black" stroke-width="0.5" d="M598.69,-42.66C614.52,-40.82 634.16,-38.55 653.37,-36.32"/>
<polygon fill="black" stroke="black" stroke-width="0.5" points="654.01,-38.01 658.77,-35.69 653.6,-34.53 654.01,-38.01"/>
</g>
<!-- ShiftLogicExpression -->
<g id="node6" class="node">
<title>ShiftLogicExpression</title>
<polygon fill="white" stroke="#1e90ff" points="623,-19 506,-19 506,0 623,0 623,-19"/>
<text text-anchor="middle" x="564.5" y="-7" font-family="Vera Sans, DejaVu Sans, Liberation Sans, Arial, Helvetica, sans" font-size="10.00">ShiftLogicExpression</text>
</g>
<!-- ShiftExpression&#45;&gt;ShiftLogicExpression -->
<g id="edge4" class="edge">
<title>ShiftExpression&#45;&gt;ShiftLogicExpression</title>
<path fill="none" stroke="black" stroke-width="0.5" d="M470.35,-9.5C480.11,-9.5 490.6,-9.5 500.89,-9.5"/>
<polygon fill="black" stroke="black" stroke-width="0.5" points="500.92,-11.25 505.92,-9.5 500.92,-7.75 500.92,-11.25"/>
</g>
<!-- ShiftLogicExpression&#45;&gt;ShiftRightLogicExpression -->
<g id="edge7" class="edge">
<title>ShiftLogicExpression&#45;&gt;ShiftRightLogicExpression</title>
<path fill="none" stroke="black" stroke-width="0.5" d="M623.32,-15.85C633.23,-16.93 643.65,-18.08 653.94,-19.21"/>
<polygon fill="black" stroke="black" stroke-width="0.5" points="653.81,-20.95 658.97,-19.76 654.2,-17.47 653.81,-20.95"/>
</g>
<!-- ShiftRightLogicExpression&#45;&gt;ShiftRightLogicExpression -->
<g id="edge5" class="edge">
<title>ShiftRightLogicExpression&#45;&gt;ShiftRightLogicExpression</title>
<path fill="none" stroke="black" stroke-width="0.5" d="M704.91,-37.08C692.47,-45.73 701,-55 730.5,-55 755.85,-55 765.72,-48.16 760.09,-40.74"/>
<polygon fill="black" stroke="black" stroke-width="0.5" points="760.96,-39.16 756.09,-37.08 758.6,-41.75 760.96,-39.16"/>
</g>
</g>
</svg>
