<?xml version="1.0" encoding="UTF-8" standalone="no"?>
<!DOCTYPE svg PUBLIC "-//W3C//DTD SVG 1.1//EN"
 "http://www.w3.org/Graphics/SVG/1.1/DTD/svg11.dtd">
<!-- Generated by graphviz version 2.43.0 (0)
 -->
<!-- Title: inheritanceb66c0c19c1 Pages: 1 -->
<svg width="560pt" height="138pt"
 viewBox="0.00 0.00 560.00 138.00" xmlns="http://www.w3.org/2000/svg" xmlns:xlink="http://www.w3.org/1999/xlink">
<g id="graph0" class="graph" transform="scale(1 1) rotate(0) translate(4 134)">
<title>inheritanceb66c0c19c1</title>
<!-- DOMMixin -->
<g id="node1" class="node">
<title>DOMMixin</title>
<g id="a_node1"><a xlink:href="../pyGHDL.dom.html#pyGHDL.dom.DOMMixin" xlink:title="DOMMixin" target="_top">
<polygon fill="white" stroke="#1e90ff" points="390,-130 322,-130 322,-111 390,-111 390,-130"/>
<text text-anchor="middle" x="356" y="-118" font-family="Vera Sans, DejaVu Sans, Liberation Sans, Arial, Helvetica, sans" font-size="10.00">DOMMixin</text>
</a>
</g>
</g>
<!-- PackageBody -->
<g id="node7" class="node">
<title>PackageBody</title>
<g id="a_node7"><a xlink:href="../pyGHDL/pyGHDL.dom.DesignUnit.html#pyGHDL.dom.DesignUnit.PackageBody" xlink:title="PackageBody" target="_top">
<polygon fill="white" stroke="#1e90ff" points="552,-93 471,-93 471,-74 552,-74 552,-93"/>
<text text-anchor="middle" x="511.5" y="-81" font-family="Vera Sans, DejaVu Sans, Liberation Sans, Arial, Helvetica, sans" font-size="10.00">PackageBody</text>
</a>
</g>
</g>
<!-- DOMMixin&#45;&gt;PackageBody -->
<g id="edge5" class="edge">
<title>DOMMixin&#45;&gt;PackageBody</title>
<path fill="none" stroke="black" stroke-width="0.5" d="M390.05,-113.02C403.95,-109.84 420.27,-106.05 435,-102.5 445.82,-99.89 457.5,-96.99 468.36,-94.26"/>
<polygon fill="black" stroke="black" stroke-width="0.5" points="468.87,-95.94 473.29,-93.02 468.01,-92.54 468.87,-95.94"/>
</g>
<!-- DesignUnit -->
<g id="node2" class="node">
<title>DesignUnit</title>
<g id="a_node2"><a xlink:title="A ``DesignUnit`` is a base&#45;class for all design units.">
<polygon fill="white" stroke="#1e90ff" points="241,-56 170,-56 170,-37 241,-37 241,-56"/>
<text text-anchor="middle" x="205.5" y="-44" font-family="Vera Sans, DejaVu Sans, Liberation Sans, Arial, Helvetica, sans" font-size="10.00">DesignUnit</text>
</a>
</g>
</g>
<!-- SecondaryUnit -->
<g id="node8" class="node">
<title>SecondaryUnit</title>
<g id="a_node8"><a xlink:title="A ``SecondaryUnit`` is a base&#45;class for all secondary units.">
<polygon fill="white" stroke="#1e90ff" points="400,-56 312,-56 312,-37 400,-37 400,-56"/>
<text text-anchor="middle" x="356" y="-44" font-family="Vera Sans, DejaVu Sans, Liberation Sans, Arial, Helvetica, sans" font-size="10.00">SecondaryUnit</text>
</a>
</g>
</g>
<!-- DesignUnit&#45;&gt;SecondaryUnit -->
<g id="edge8" class="edge">
<title>DesignUnit&#45;&gt;SecondaryUnit</title>
<path fill="none" stroke="black" stroke-width="0.5" d="M241.32,-46.5C260.84,-46.5 285.49,-46.5 306.84,-46.5"/>
<polygon fill="black" stroke="black" stroke-width="0.5" points="306.91,-48.25 311.91,-46.5 306.91,-44.75 306.91,-48.25"/>
</g>
<!-- ModelEntity -->
<g id="node3" class="node">
<title>ModelEntity</title>
<g id="a_node3"><a xlink:title="``ModelEntity`` is the base&#45;class for all classes in the VHDL language model, except for mixin classes (see multiple">
<polygon fill="white" stroke="#1e90ff" points="104.5,-93 29.5,-93 29.5,-74 104.5,-74 104.5,-93"/>
<text text-anchor="middle" x="67" y="-81" font-family="Vera Sans, DejaVu Sans, Liberation Sans, Arial, Helvetica, sans" font-size="10.00">ModelEntity</text>
</a>
</g>
</g>
<!-- ModelEntity&#45;&gt;DesignUnit -->
<g id="edge1" class="edge">
<title>ModelEntity&#45;&gt;DesignUnit</title>
<path fill="none" stroke="black" stroke-width="0.5" d="M103.15,-73.97C122.09,-68.84 145.5,-62.49 165.06,-57.19"/>
<polygon fill="black" stroke="black" stroke-width="0.5" points="165.57,-58.87 169.94,-55.87 164.66,-55.49 165.57,-58.87"/>
</g>
<!-- NamedEntityMixin -->
<g id="node4" class="node">
<title>NamedEntityMixin</title>
<g id="a_node4"><a xlink:title="A ``NamedEntityMixin`` is a mixin class for all VHDL entities that have identifiers.">
<polygon fill="white" stroke="#1e90ff" points="120.5,-56 13.5,-56 13.5,-37 120.5,-37 120.5,-56"/>
<text text-anchor="middle" x="67" y="-44" font-family="Vera Sans, DejaVu Sans, Liberation Sans, Arial, Helvetica, sans" font-size="10.00">NamedEntityMixin</text>
</a>
</g>
</g>
<!-- NamedEntityMixin&#45;&gt;DesignUnit -->
<g id="edge2" class="edge">
<title>NamedEntityMixin&#45;&gt;DesignUnit</title>
<path fill="none" stroke="black" stroke-width="0.5" d="M120.77,-46.5C135.35,-46.5 150.91,-46.5 164.62,-46.5"/>
<polygon fill="black" stroke="black" stroke-width="0.5" points="164.97,-48.25 169.97,-46.5 164.97,-44.75 164.97,-48.25"/>
</g>
<!-- DocumentedEntityMixin -->
<g id="node5" class="node">
<title>DocumentedEntityMixin</title>
<g id="a_node5"><a xlink:title="A ``DocumentedEntityMixin`` is a mixin class for all VHDL entities that can have an associated documentation.">
<polygon fill="white" stroke="#1e90ff" points="134,-19 0,-19 0,0 134,0 134,-19"/>
<text text-anchor="middle" x="67" y="-7" font-family="Vera Sans, DejaVu Sans, Liberation Sans, Arial, Helvetica, sans" font-size="10.00">DocumentedEntityMixin</text>
</a>
</g>
</g>
<!-- DocumentedEntityMixin&#45;&gt;DesignUnit -->
<g id="edge3" class="edge">
<title>DocumentedEntityMixin&#45;&gt;DesignUnit</title>
<path fill="none" stroke="black" stroke-width="0.5" d="M103.15,-19.03C122.09,-24.16 145.5,-30.51 165.06,-35.81"/>
<polygon fill="black" stroke="black" stroke-width="0.5" points="164.66,-37.51 169.94,-37.13 165.57,-34.13 164.66,-37.51"/>
</g>
<!-- DesignUnitWithContextMixin -->
<g id="node6" class="node">
<title>DesignUnitWithContextMixin</title>
<polygon fill="white" stroke="#1e90ff" points="435,-93 277,-93 277,-74 435,-74 435,-93"/>
<text text-anchor="middle" x="356" y="-81" font-family="Vera Sans, DejaVu Sans, Liberation Sans, Arial, Helvetica, sans" font-size="10.00">DesignUnitWithContextMixin</text>
</g>
<!-- DesignUnitWithContextMixin&#45;&gt;PackageBody -->
<g id="edge7" class="edge">
<title>DesignUnitWithContextMixin&#45;&gt;PackageBody</title>
<path fill="none" stroke="black" stroke-width="0.5" d="M435.1,-83.5C445.69,-83.5 456.26,-83.5 465.97,-83.5"/>
<polygon fill="black" stroke="black" stroke-width="0.5" points="465.98,-85.25 470.98,-83.5 465.98,-81.75 465.98,-85.25"/>
</g>
<!-- PackageBody&#45;&gt;PackageBody -->
<g id="edge4" class="edge">
<title>PackageBody&#45;&gt;PackageBody</title>
<path fill="none" stroke="black" stroke-width="0.5" d="M487.76,-93.08C476.22,-101.73 484.13,-111 511.5,-111 535.02,-111 544.17,-104.16 538.95,-96.74"/>
<polygon fill="black" stroke="black" stroke-width="0.5" points="540.03,-95.34 535.24,-93.08 537.57,-97.84 540.03,-95.34"/>
</g>
<!-- SecondaryUnit&#45;&gt;PackageBody -->
<g id="edge6" class="edge">
<title>SecondaryUnit&#45;&gt;PackageBody</title>
<path fill="none" stroke="black" stroke-width="0.5" d="M396.53,-56.03C417.75,-61.14 443.99,-67.47 465.94,-72.76"/>
<polygon fill="black" stroke="black" stroke-width="0.5" points="465.57,-74.47 470.84,-73.94 466.39,-71.07 465.57,-74.47"/>
</g>
</g>
</svg>
