<?xml version="1.0" encoding="UTF-8" standalone="no"?>
<!DOCTYPE svg PUBLIC "-//W3C//DTD SVG 1.1//EN"
 "http://www.w3.org/Graphics/SVG/1.1/DTD/svg11.dtd">
<!-- Generated by graphviz version 2.43.0 (0)
 -->
<!-- Title: inheritance45d9bdd109 Pages: 1 -->
<svg width="355pt" height="101pt"
 viewBox="0.00 0.00 355.00 101.00" xmlns="http://www.w3.org/2000/svg" xmlns:xlink="http://www.w3.org/1999/xlink">
<g id="graph0" class="graph" transform="scale(1 1) rotate(0) translate(4 97)">
<title>inheritance45d9bdd109</title>
<!-- DOMMixin -->
<g id="node1" class="node">
<title>DOMMixin</title>
<g id="a_node1"><a xlink:href="../pyGHDL.dom.html#pyGHDL.dom.DOMMixin" xlink:title="DOMMixin" target="_top">
<polygon fill="white" stroke="#1e90ff" points="242,-93 174,-93 174,-74 242,-74 242,-93"/>
<text text-anchor="middle" x="208" y="-81" font-family="Vera Sans, DejaVu Sans, Liberation Sans, Arial, Helvetica, sans" font-size="10.00">DOMMixin</text>
</a>
</g>
</g>
<!-- Procedure -->
<g id="node5" class="node">
<title>Procedure</title>
<g id="a_node5"><a xlink:href="../pyGHDL/pyGHDL.dom.Subprogram.html#pyGHDL.dom.Subprogram.Procedure" xlink:title="Procedure" target="_top">
<polygon fill="white" stroke="#1e90ff" points="347,-74 282,-74 282,-55 347,-55 347,-74"/>
<text text-anchor="middle" x="314.5" y="-62" font-family="Vera Sans, DejaVu Sans, Liberation Sans, Arial, Helvetica, sans" font-size="10.00">Procedure</text>
</a>
</g>
</g>
<!-- DOMMixin&#45;&gt;Procedure -->
<g id="edge2" class="edge">
<title>DOMMixin&#45;&gt;Procedure</title>
<path fill="none" stroke="black" stroke-width="0.5" d="M242.06,-77.49C253.06,-75.49 265.37,-73.25 276.63,-71.2"/>
<polygon fill="black" stroke="black" stroke-width="0.5" points="277.11,-72.89 281.72,-70.28 276.49,-69.45 277.11,-72.89"/>
</g>
<!-- DocumentedEntityMixin -->
<g id="node2" class="node">
<title>DocumentedEntityMixin</title>
<g id="a_node2"><a xlink:title="A ``DocumentedEntityMixin`` is a mixin class for all VHDL entities that can have an associated documentation.">
<polygon fill="white" stroke="#1e90ff" points="134,-93 0,-93 0,-74 134,-74 134,-93"/>
<text text-anchor="middle" x="67" y="-81" font-family="Vera Sans, DejaVu Sans, Liberation Sans, Arial, Helvetica, sans" font-size="10.00">DocumentedEntityMixin</text>
</a>
</g>
</g>
<!-- Subprogram -->
<g id="node6" class="node">
<title>Subprogram</title>
<polygon fill="white" stroke="#1e90ff" points="246,-56 170,-56 170,-37 246,-37 246,-56"/>
<text text-anchor="middle" x="208" y="-44" font-family="Vera Sans, DejaVu Sans, Liberation Sans, Arial, Helvetica, sans" font-size="10.00">Subprogram</text>
</g>
<!-- DocumentedEntityMixin&#45;&gt;Subprogram -->
<g id="edge6" class="edge">
<title>DocumentedEntityMixin&#45;&gt;Subprogram</title>
<path fill="none" stroke="black" stroke-width="0.5" d="M103.8,-73.97C122.78,-68.92 146.19,-62.69 165.91,-57.44"/>
<polygon fill="black" stroke="black" stroke-width="0.5" points="166.46,-59.1 170.84,-56.12 165.56,-55.72 166.46,-59.1"/>
</g>
<!-- ModelEntity -->
<g id="node3" class="node">
<title>ModelEntity</title>
<g id="a_node3"><a xlink:title="``ModelEntity`` is the base&#45;class for all classes in the VHDL language model, except for mixin classes (see multiple">
<polygon fill="white" stroke="#1e90ff" points="104.5,-56 29.5,-56 29.5,-37 104.5,-37 104.5,-56"/>
<text text-anchor="middle" x="67" y="-44" font-family="Vera Sans, DejaVu Sans, Liberation Sans, Arial, Helvetica, sans" font-size="10.00">ModelEntity</text>
</a>
</g>
</g>
<!-- ModelEntity&#45;&gt;Subprogram -->
<g id="edge4" class="edge">
<title>ModelEntity&#45;&gt;Subprogram</title>
<path fill="none" stroke="black" stroke-width="0.5" d="M104.52,-46.5C122.9,-46.5 145.29,-46.5 164.44,-46.5"/>
<polygon fill="black" stroke="black" stroke-width="0.5" points="164.76,-48.25 169.76,-46.5 164.76,-44.75 164.76,-48.25"/>
</g>
<!-- NamedEntityMixin -->
<g id="node4" class="node">
<title>NamedEntityMixin</title>
<g id="a_node4"><a xlink:title="A ``NamedEntityMixin`` is a mixin class for all VHDL entities that have identifiers.">
<polygon fill="white" stroke="#1e90ff" points="120.5,-19 13.5,-19 13.5,0 120.5,0 120.5,-19"/>
<text text-anchor="middle" x="67" y="-7" font-family="Vera Sans, DejaVu Sans, Liberation Sans, Arial, Helvetica, sans" font-size="10.00">NamedEntityMixin</text>
</a>
</g>
</g>
<!-- NamedEntityMixin&#45;&gt;Subprogram -->
<g id="edge5" class="edge">
<title>NamedEntityMixin&#45;&gt;Subprogram</title>
<path fill="none" stroke="black" stroke-width="0.5" d="M103.8,-19.03C122.78,-24.08 146.19,-30.31 165.91,-35.56"/>
<polygon fill="black" stroke="black" stroke-width="0.5" points="165.56,-37.28 170.84,-36.88 166.46,-33.9 165.56,-37.28"/>
</g>
<!-- Procedure&#45;&gt;Procedure -->
<g id="edge1" class="edge">
<title>Procedure&#45;&gt;Procedure</title>
<path fill="none" stroke="black" stroke-width="0.5" d="M298.16,-74.08C290.21,-82.73 295.66,-92 314.5,-92 330.1,-92 336.52,-85.65 333.75,-78.55"/>
<polygon fill="black" stroke="black" stroke-width="0.5" points="335.03,-77.32 330.84,-74.08 332.1,-79.23 335.03,-77.32"/>
</g>
<!-- Subprogram&#45;&gt;Procedure -->
<g id="edge3" class="edge">
<title>Subprogram&#45;&gt;Procedure</title>
<path fill="none" stroke="black" stroke-width="0.5" d="M246.14,-52.9C256.03,-54.6 266.71,-56.44 276.59,-58.14"/>
<polygon fill="black" stroke="black" stroke-width="0.5" points="276.45,-59.89 281.67,-59.02 277.04,-56.44 276.45,-59.89"/>
</g>
</g>
</svg>
