<?xml version="1.0" encoding="UTF-8" standalone="no"?>
<!DOCTYPE svg PUBLIC "-//W3C//DTD SVG 1.1//EN"
 "http://www.w3.org/Graphics/SVG/1.1/DTD/svg11.dtd">
<!-- Generated by graphviz version 2.43.0 (0)
 -->
<!-- Title: inheritancec74d712283 Pages: 1 -->
<svg width="561pt" height="101pt"
 viewBox="0.00 0.00 561.00 101.00" xmlns="http://www.w3.org/2000/svg" xmlns:xlink="http://www.w3.org/1999/xlink">
<g id="graph0" class="graph" transform="scale(1 1) rotate(0) translate(4 97)">
<title>inheritancec74d712283</title>
<!-- Configuration -->
<g id="node1" class="node">
<title>Configuration</title>
<g id="a_node1"><a xlink:href="../pyGHDL/pyGHDL.dom.DesignUnit.html#pyGHDL.dom.DesignUnit.Configuration" xlink:title="Configuration" target="_top">
<polygon fill="white" stroke="#1e90ff" points="553,-56 471,-56 471,-37 553,-37 553,-56"/>
<text text-anchor="middle" x="512" y="-44" font-family="Vera Sans, DejaVu Sans, Liberation Sans, Arial, Helvetica, sans" font-size="10.00">Configuration</text>
</a>
</g>
</g>
<!-- Configuration&#45;&gt;Configuration -->
<g id="edge1" class="edge">
<title>Configuration&#45;&gt;Configuration</title>
<path fill="none" stroke="black" stroke-width="0.5" d="M487.96,-56.08C476.26,-64.73 484.27,-74 512,-74 535.83,-74 545.1,-67.16 539.81,-59.74"/>
<polygon fill="black" stroke="black" stroke-width="0.5" points="540.85,-58.31 536.04,-56.08 538.41,-60.82 540.85,-58.31"/>
</g>
<!-- DOMMixin -->
<g id="node2" class="node">
<title>DOMMixin</title>
<g id="a_node2"><a xlink:href="../pyGHDL.dom.html#pyGHDL.dom.DOMMixin" xlink:title="DOMMixin" target="_top">
<polygon fill="white" stroke="#1e90ff" points="390,-93 322,-93 322,-74 390,-74 390,-93"/>
<text text-anchor="middle" x="356" y="-81" font-family="Vera Sans, DejaVu Sans, Liberation Sans, Arial, Helvetica, sans" font-size="10.00">DOMMixin</text>
</a>
</g>
</g>
<!-- DOMMixin&#45;&gt;Configuration -->
<g id="edge2" class="edge">
<title>DOMMixin&#45;&gt;Configuration</title>
<path fill="none" stroke="black" stroke-width="0.5" d="M390.05,-76.01C403.94,-72.83 420.27,-69.04 435,-65.5 445.89,-62.88 457.65,-59.98 468.58,-57.25"/>
<polygon fill="black" stroke="black" stroke-width="0.5" points="469.11,-58.92 473.54,-56.01 468.26,-55.53 469.11,-58.92"/>
</g>
<!-- PrimaryUnit -->
<g id="node3" class="node">
<title>PrimaryUnit</title>
<g id="a_node3"><a xlink:title="A ``PrimaryUnit`` is a base&#45;class for all primary units.">
<polygon fill="white" stroke="#1e90ff" points="393.5,-56 318.5,-56 318.5,-37 393.5,-37 393.5,-56"/>
<text text-anchor="middle" x="356" y="-44" font-family="Vera Sans, DejaVu Sans, Liberation Sans, Arial, Helvetica, sans" font-size="10.00">PrimaryUnit</text>
</a>
</g>
</g>
<!-- PrimaryUnit&#45;&gt;Configuration -->
<g id="edge3" class="edge">
<title>PrimaryUnit&#45;&gt;Configuration</title>
<path fill="none" stroke="black" stroke-width="0.5" d="M393.89,-46.5C415.48,-46.5 442.91,-46.5 465.79,-46.5"/>
<polygon fill="black" stroke="black" stroke-width="0.5" points="465.9,-48.25 470.9,-46.5 465.9,-44.75 465.9,-48.25"/>
</g>
<!-- DesignUnitWithContextMixin -->
<g id="node4" class="node">
<title>DesignUnitWithContextMixin</title>
<polygon fill="white" stroke="#1e90ff" points="435,-19 277,-19 277,0 435,0 435,-19"/>
<text text-anchor="middle" x="356" y="-7" font-family="Vera Sans, DejaVu Sans, Liberation Sans, Arial, Helvetica, sans" font-size="10.00">DesignUnitWithContextMixin</text>
</g>
<!-- DesignUnitWithContextMixin&#45;&gt;Configuration -->
<g id="edge4" class="edge">
<title>DesignUnitWithContextMixin&#45;&gt;Configuration</title>
<path fill="none" stroke="black" stroke-width="0.5" d="M399.13,-19.08C410.76,-21.76 423.38,-24.71 435,-27.5 445.89,-30.12 457.65,-33.02 468.58,-35.75"/>
<polygon fill="black" stroke="black" stroke-width="0.5" points="468.26,-37.47 473.54,-36.99 469.11,-34.08 468.26,-37.47"/>
</g>
<!-- DesignUnit -->
<g id="node5" class="node">
<title>DesignUnit</title>
<g id="a_node5"><a xlink:title="A ``DesignUnit`` is a base&#45;class for all design units.">
<polygon fill="white" stroke="#1e90ff" points="241,-56 170,-56 170,-37 241,-37 241,-56"/>
<text text-anchor="middle" x="205.5" y="-44" font-family="Vera Sans, DejaVu Sans, Liberation Sans, Arial, Helvetica, sans" font-size="10.00">DesignUnit</text>
</a>
</g>
</g>
<!-- DesignUnit&#45;&gt;PrimaryUnit -->
<g id="edge8" class="edge">
<title>DesignUnit&#45;&gt;PrimaryUnit</title>
<path fill="none" stroke="black" stroke-width="0.5" d="M241.32,-46.5C262.84,-46.5 290.58,-46.5 313.27,-46.5"/>
<polygon fill="black" stroke="black" stroke-width="0.5" points="313.33,-48.25 318.33,-46.5 313.33,-44.75 313.33,-48.25"/>
</g>
<!-- ModelEntity -->
<g id="node6" class="node">
<title>ModelEntity</title>
<g id="a_node6"><a xlink:title="``ModelEntity`` is the base&#45;class for all classes in the VHDL language model, except for mixin classes (see multiple">
<polygon fill="white" stroke="#1e90ff" points="104.5,-93 29.5,-93 29.5,-74 104.5,-74 104.5,-93"/>
<text text-anchor="middle" x="67" y="-81" font-family="Vera Sans, DejaVu Sans, Liberation Sans, Arial, Helvetica, sans" font-size="10.00">ModelEntity</text>
</a>
</g>
</g>
<!-- ModelEntity&#45;&gt;DesignUnit -->
<g id="edge5" class="edge">
<title>ModelEntity&#45;&gt;DesignUnit</title>
<path fill="none" stroke="black" stroke-width="0.5" d="M103.15,-73.97C122.09,-68.84 145.5,-62.49 165.06,-57.19"/>
<polygon fill="black" stroke="black" stroke-width="0.5" points="165.57,-58.87 169.94,-55.87 164.66,-55.49 165.57,-58.87"/>
</g>
<!-- NamedEntityMixin -->
<g id="node7" class="node">
<title>NamedEntityMixin</title>
<g id="a_node7"><a xlink:title="A ``NamedEntityMixin`` is a mixin class for all VHDL entities that have identifiers.">
<polygon fill="white" stroke="#1e90ff" points="120.5,-56 13.5,-56 13.5,-37 120.5,-37 120.5,-56"/>
<text text-anchor="middle" x="67" y="-44" font-family="Vera Sans, DejaVu Sans, Liberation Sans, Arial, Helvetica, sans" font-size="10.00">NamedEntityMixin</text>
</a>
</g>
</g>
<!-- NamedEntityMixin&#45;&gt;DesignUnit -->
<g id="edge6" class="edge">
<title>NamedEntityMixin&#45;&gt;DesignUnit</title>
<path fill="none" stroke="black" stroke-width="0.5" d="M120.77,-46.5C135.35,-46.5 150.91,-46.5 164.62,-46.5"/>
<polygon fill="black" stroke="black" stroke-width="0.5" points="164.97,-48.25 169.97,-46.5 164.97,-44.75 164.97,-48.25"/>
</g>
<!-- DocumentedEntityMixin -->
<g id="node8" class="node">
<title>DocumentedEntityMixin</title>
<g id="a_node8"><a xlink:title="A ``DocumentedEntityMixin`` is a mixin class for all VHDL entities that can have an associated documentation.">
<polygon fill="white" stroke="#1e90ff" points="134,-19 0,-19 0,0 134,0 134,-19"/>
<text text-anchor="middle" x="67" y="-7" font-family="Vera Sans, DejaVu Sans, Liberation Sans, Arial, Helvetica, sans" font-size="10.00">DocumentedEntityMixin</text>
</a>
</g>
</g>
<!-- DocumentedEntityMixin&#45;&gt;DesignUnit -->
<g id="edge7" class="edge">
<title>DocumentedEntityMixin&#45;&gt;DesignUnit</title>
<path fill="none" stroke="black" stroke-width="0.5" d="M103.15,-19.03C122.09,-24.16 145.5,-30.51 165.06,-35.81"/>
<polygon fill="black" stroke="black" stroke-width="0.5" points="164.66,-37.51 169.94,-37.13 165.57,-34.13 164.66,-37.51"/>
</g>
</g>
</svg>
