<?xml version="1.0" encoding="UTF-8" standalone="no"?>
<!DOCTYPE svg PUBLIC "-//W3C//DTD SVG 1.1//EN"
 "http://www.w3.org/Graphics/SVG/1.1/DTD/svg11.dtd">
<!-- Generated by graphviz version 2.43.0 (0)
 -->
<!-- Title: inheritance87a2f76ab0 Pages: 1 -->
<svg width="408pt" height="64pt"
 viewBox="0.00 0.00 408.00 64.00" xmlns="http://www.w3.org/2000/svg" xmlns:xlink="http://www.w3.org/1999/xlink">
<g id="graph0" class="graph" transform="scale(1 1) rotate(0) translate(4 60)">
<title>inheritance87a2f76ab0</title>
<!-- AggregateElement -->
<g id="node1" class="node">
<title>AggregateElement</title>
<g id="a_node1"><a xlink:title="A ``AggregateElement`` is a base&#45;class for all aggregate elements.">
<polygon fill="white" stroke="#1e90ff" points="218,-19 111,-19 111,0 218,0 218,-19"/>
<text text-anchor="middle" x="164.5" y="-7" font-family="Vera Sans, DejaVu Sans, Liberation Sans, Arial, Helvetica, sans" font-size="10.00">AggregateElement</text>
</a>
</g>
</g>
<!-- IndexedAggregateElement -->
<g id="node4" class="node">
<title>IndexedAggregateElement</title>
<g id="a_node4"><a xlink:href="../pyGHDL/pyGHDL.dom.Aggregates.html#pyGHDL.dom.Aggregates.IndexedAggregateElement" xlink:title="IndexedAggregateElement" target="_top">
<polygon fill="white" stroke="#1e90ff" points="400,-37 254,-37 254,-18 400,-18 400,-37"/>
<text text-anchor="middle" x="327" y="-25" font-family="Vera Sans, DejaVu Sans, Liberation Sans, Arial, Helvetica, sans" font-size="10.00">IndexedAggregateElement</text>
</a>
</g>
</g>
<!-- AggregateElement&#45;&gt;IndexedAggregateElement -->
<g id="edge4" class="edge">
<title>AggregateElement&#45;&gt;IndexedAggregateElement</title>
<path fill="none" stroke="black" stroke-width="0.5" d="M218.05,-15.39C227.87,-16.5 238.33,-17.67 248.71,-18.83"/>
<polygon fill="black" stroke="black" stroke-width="0.5" points="248.64,-20.58 253.8,-19.4 249.03,-17.11 248.64,-20.58"/>
</g>
<!-- ModelEntity -->
<g id="node2" class="node">
<title>ModelEntity</title>
<g id="a_node2"><a xlink:title="``ModelEntity`` is the base&#45;class for all classes in the VHDL language model, except for mixin classes (see multiple">
<polygon fill="white" stroke="#1e90ff" points="75,-19 0,-19 0,0 75,0 75,-19"/>
<text text-anchor="middle" x="37.5" y="-7" font-family="Vera Sans, DejaVu Sans, Liberation Sans, Arial, Helvetica, sans" font-size="10.00">ModelEntity</text>
</a>
</g>
</g>
<!-- ModelEntity&#45;&gt;AggregateElement -->
<g id="edge1" class="edge">
<title>ModelEntity&#45;&gt;AggregateElement</title>
<path fill="none" stroke="black" stroke-width="0.5" d="M75.33,-9.5C84.86,-9.5 95.35,-9.5 105.68,-9.5"/>
<polygon fill="black" stroke="black" stroke-width="0.5" points="105.73,-11.25 110.73,-9.5 105.73,-7.75 105.73,-11.25"/>
</g>
<!-- DOMMixin -->
<g id="node3" class="node">
<title>DOMMixin</title>
<g id="a_node3"><a xlink:href="../pyGHDL.dom.html#pyGHDL.dom.DOMMixin" xlink:title="DOMMixin" target="_top">
<polygon fill="white" stroke="#1e90ff" points="198.5,-56 130.5,-56 130.5,-37 198.5,-37 198.5,-56"/>
<text text-anchor="middle" x="164.5" y="-44" font-family="Vera Sans, DejaVu Sans, Liberation Sans, Arial, Helvetica, sans" font-size="10.00">DOMMixin</text>
</a>
</g>
</g>
<!-- DOMMixin&#45;&gt;IndexedAggregateElement -->
<g id="edge3" class="edge">
<title>DOMMixin&#45;&gt;IndexedAggregateElement</title>
<path fill="none" stroke="black" stroke-width="0.5" d="M198.76,-42.56C213.23,-40.85 230.86,-38.76 248.33,-36.69"/>
<polygon fill="black" stroke="black" stroke-width="0.5" points="248.98,-38.38 253.74,-36.05 248.57,-34.9 248.98,-38.38"/>
</g>
<!-- IndexedAggregateElement&#45;&gt;IndexedAggregateElement -->
<g id="edge2" class="edge">
<title>IndexedAggregateElement&#45;&gt;IndexedAggregateElement</title>
<path fill="none" stroke="black" stroke-width="0.5" d="M302.03,-37.08C289.88,-45.73 298.21,-55 327,-55 351.74,-55 361.37,-48.16 355.88,-40.74"/>
<polygon fill="black" stroke="black" stroke-width="0.5" points="356.82,-39.22 351.97,-37.08 354.42,-41.78 356.82,-39.22"/>
</g>
</g>
</svg>
