<?xml version="1.0" encoding="UTF-8" standalone="no"?>
<!DOCTYPE svg PUBLIC "-//W3C//DTD SVG 1.1//EN"
 "http://www.w3.org/Graphics/SVG/1.1/DTD/svg11.dtd">
<!-- Generated by graphviz version 2.43.0 (0)
 -->
<!-- Title: inheritance31a1eff5d7 Pages: 1 -->
<svg width="327pt" height="64pt"
 viewBox="0.00 0.00 327.00 64.00" xmlns="http://www.w3.org/2000/svg" xmlns:xlink="http://www.w3.org/1999/xlink">
<g id="graph0" class="graph" transform="scale(1 1) rotate(0) translate(4 60)">
<title>inheritance31a1eff5d7</title>
<!-- ContextReference -->
<g id="node1" class="node">
<title>ContextReference</title>
<g id="a_node1"><a xlink:href="../pyGHDL/pyGHDL.dom.DesignUnit.html#pyGHDL.dom.DesignUnit.ContextReference" xlink:title="ContextReference" target="_top">
<polygon fill="white" stroke="#1e90ff" points="319,-37 215,-37 215,-18 319,-18 319,-37"/>
<text text-anchor="middle" x="267" y="-25" font-family="Vera Sans, DejaVu Sans, Liberation Sans, Arial, Helvetica, sans" font-size="10.00">ContextReference</text>
</a>
</g>
</g>
<!-- ContextReference&#45;&gt;ContextReference -->
<g id="edge1" class="edge">
<title>ContextReference&#45;&gt;ContextReference</title>
<path fill="none" stroke="black" stroke-width="0.5" d="M248.2,-37.08C239.05,-45.73 245.32,-55 267,-55 285.3,-55 292.62,-48.4 288.96,-41.15"/>
<polygon fill="black" stroke="black" stroke-width="0.5" points="290.25,-39.96 285.8,-37.08 287.49,-42.1 290.25,-39.96"/>
</g>
<!-- DOMMixin -->
<g id="node2" class="node">
<title>DOMMixin</title>
<g id="a_node2"><a xlink:href="../pyGHDL.dom.html#pyGHDL.dom.DOMMixin" xlink:title="DOMMixin" target="_top">
<polygon fill="white" stroke="#1e90ff" points="179,-56 111,-56 111,-37 179,-37 179,-56"/>
<text text-anchor="middle" x="145" y="-44" font-family="Vera Sans, DejaVu Sans, Liberation Sans, Arial, Helvetica, sans" font-size="10.00">DOMMixin</text>
</a>
</g>
</g>
<!-- DOMMixin&#45;&gt;ContextReference -->
<g id="edge2" class="edge">
<title>DOMMixin&#45;&gt;ContextReference</title>
<path fill="none" stroke="black" stroke-width="0.5" d="M179.11,-41.26C188.53,-39.77 199.06,-38.1 209.46,-36.45"/>
<polygon fill="black" stroke="black" stroke-width="0.5" points="209.88,-38.16 214.54,-35.65 209.33,-34.7 209.88,-38.16"/>
</g>
<!-- Reference -->
<g id="node3" class="node">
<title>Reference</title>
<polygon fill="white" stroke="#1e90ff" points="178,-19 112,-19 112,0 178,0 178,-19"/>
<text text-anchor="middle" x="145" y="-7" font-family="Vera Sans, DejaVu Sans, Liberation Sans, Arial, Helvetica, sans" font-size="10.00">Reference</text>
</g>
<!-- Reference&#45;&gt;ContextReference -->
<g id="edge3" class="edge">
<title>Reference&#45;&gt;ContextReference</title>
<path fill="none" stroke="black" stroke-width="0.5" d="M178.16,-14.32C187.91,-15.79 198.93,-17.44 209.77,-19.07"/>
<polygon fill="black" stroke="black" stroke-width="0.5" points="209.54,-20.8 214.74,-19.81 210.06,-17.34 209.54,-20.8"/>
</g>
<!-- ModelEntity -->
<g id="node4" class="node">
<title>ModelEntity</title>
<g id="a_node4"><a xlink:title="``ModelEntity`` is the base&#45;class for all classes in the VHDL language model, except for mixin classes (see multiple">
<polygon fill="white" stroke="#1e90ff" points="75,-19 0,-19 0,0 75,0 75,-19"/>
<text text-anchor="middle" x="37.5" y="-7" font-family="Vera Sans, DejaVu Sans, Liberation Sans, Arial, Helvetica, sans" font-size="10.00">ModelEntity</text>
</a>
</g>
</g>
<!-- ModelEntity&#45;&gt;Reference -->
<g id="edge4" class="edge">
<title>ModelEntity&#45;&gt;Reference</title>
<path fill="none" stroke="black" stroke-width="0.5" d="M75.1,-9.5C85.24,-9.5 96.25,-9.5 106.44,-9.5"/>
<polygon fill="black" stroke="black" stroke-width="0.5" points="106.69,-11.25 111.69,-9.5 106.69,-7.75 106.69,-11.25"/>
</g>
</g>
</svg>
