<?xml version="1.0" encoding="UTF-8" standalone="no"?>
<!DOCTYPE svg PUBLIC "-//W3C//DTD SVG 1.1//EN"
 "http://www.w3.org/Graphics/SVG/1.1/DTD/svg11.dtd">
<!-- Generated by graphviz version 2.43.0 (0)
 -->
<!-- Title: inheritance263175ec90 Pages: 1 -->
<svg width="576pt" height="69pt"
 viewBox="0.00 0.00 576.00 69.15" xmlns="http://www.w3.org/2000/svg" xmlns:xlink="http://www.w3.org/1999/xlink">
<g id="graph0" class="graph" transform="scale(1.19 1.19) rotate(0) translate(4 78)">
<title>inheritance263175ec90</title>
<!-- ConcurrentStatement -->
<g id="node1" class="node">
<title>ConcurrentStatement</title>
<g id="a_node1"><a xlink:title="A ``ConcurrentStatement`` is a base&#45;class for all concurrent statements.">
<polygon fill="white" stroke="#1e90ff" points="371,-37 250,-37 250,-18 371,-18 371,-37"/>
<text text-anchor="middle" x="310.5" y="-25" font-family="Vera Sans, DejaVu Sans, Liberation Sans, Arial, Helvetica, sans" font-size="10.00">ConcurrentStatement</text>
</a>
</g>
</g>
<!-- GenerateStatement -->
<g id="node4" class="node">
<title>GenerateStatement</title>
<g id="a_node4"><a xlink:title="A ``GenerateStatement`` is a base&#45;class for all generate statements.">
<polygon fill="white" stroke="#1e90ff" points="520,-37 407,-37 407,-18 520,-18 520,-37"/>
<text text-anchor="middle" x="463.5" y="-25" font-family="Vera Sans, DejaVu Sans, Liberation Sans, Arial, Helvetica, sans" font-size="10.00">GenerateStatement</text>
</a>
</g>
</g>
<!-- ConcurrentStatement&#45;&gt;GenerateStatement -->
<g id="edge2" class="edge">
<title>ConcurrentStatement&#45;&gt;GenerateStatement</title>
<path fill="none" stroke="black" stroke-width="0.5" d="M371.18,-27.5C381.15,-27.5 391.5,-27.5 401.5,-27.5"/>
<polygon fill="black" stroke="black" stroke-width="0.5" points="401.7,-29.25 406.7,-27.5 401.7,-25.75 401.7,-29.25"/>
</g>
<!-- Statement -->
<g id="node2" class="node">
<title>Statement</title>
<g id="a_node2"><a xlink:title="A ``Statement`` is a base&#45;class for all statements.">
<polygon fill="white" stroke="#1e90ff" points="214,-37 146,-37 146,-18 214,-18 214,-37"/>
<text text-anchor="middle" x="180" y="-25" font-family="Vera Sans, DejaVu Sans, Liberation Sans, Arial, Helvetica, sans" font-size="10.00">Statement</text>
</a>
</g>
</g>
<!-- Statement&#45;&gt;ConcurrentStatement -->
<g id="edge1" class="edge">
<title>Statement&#45;&gt;ConcurrentStatement</title>
<path fill="none" stroke="black" stroke-width="0.5" d="M214.09,-27.5C223.49,-27.5 234.05,-27.5 244.64,-27.5"/>
<polygon fill="black" stroke="black" stroke-width="0.5" points="244.84,-29.25 249.84,-27.5 244.84,-25.75 244.84,-29.25"/>
</g>
<!-- DOMMixin -->
<g id="node3" class="node">
<title>DOMMixin</title>
<g id="a_node3"><a xlink:href="../pyGHDL.dom.html#pyGHDL.dom.DOMMixin" xlink:title="DOMMixin" target="_top">
<polygon fill="white" stroke="#1e90ff" points="497.5,-74 429.5,-74 429.5,-55 497.5,-55 497.5,-74"/>
<text text-anchor="middle" x="463.5" y="-62" font-family="Vera Sans, DejaVu Sans, Liberation Sans, Arial, Helvetica, sans" font-size="10.00">DOMMixin</text>
</a>
</g>
</g>
<!-- IfGenerateStatement -->
<g id="node5" class="node">
<title>IfGenerateStatement</title>
<g id="a_node5"><a xlink:href="../pyGHDL/pyGHDL.dom.Concurrent.html#pyGHDL.dom.Concurrent.IfGenerateStatement" xlink:title="IfGenerateStatement" target="_top">
<polygon fill="white" stroke="#1e90ff" points="675,-55 556,-55 556,-36 675,-36 675,-55"/>
<text text-anchor="middle" x="615.5" y="-43" font-family="Vera Sans, DejaVu Sans, Liberation Sans, Arial, Helvetica, sans" font-size="10.00">IfGenerateStatement</text>
</a>
</g>
</g>
<!-- DOMMixin&#45;&gt;IfGenerateStatement -->
<g id="edge4" class="edge">
<title>DOMMixin&#45;&gt;IfGenerateStatement</title>
<path fill="none" stroke="black" stroke-width="0.5" d="M497.79,-60.28C513.41,-58.3 532.57,-55.88 550.82,-53.57"/>
<polygon fill="black" stroke="black" stroke-width="0.5" points="551.2,-55.28 555.94,-52.92 550.76,-51.81 551.2,-55.28"/>
</g>
<!-- GenerateStatement&#45;&gt;IfGenerateStatement -->
<g id="edge5" class="edge">
<title>GenerateStatement&#45;&gt;IfGenerateStatement</title>
<path fill="none" stroke="black" stroke-width="0.5" d="M520.35,-34.2C530.21,-35.39 540.55,-36.63 550.61,-37.83"/>
<polygon fill="black" stroke="black" stroke-width="0.5" points="550.67,-39.6 555.84,-38.46 551.08,-36.13 550.67,-39.6"/>
</g>
<!-- IfGenerateStatement&#45;&gt;IfGenerateStatement -->
<g id="edge3" class="edge">
<title>IfGenerateStatement&#45;&gt;IfGenerateStatement</title>
<path fill="none" stroke="black" stroke-width="0.5" d="M592.07,-55.08C580.68,-63.73 588.48,-73 615.5,-73 638.72,-73 647.75,-66.16 642.6,-58.74"/>
<polygon fill="black" stroke="black" stroke-width="0.5" points="643.7,-57.37 638.93,-55.08 641.23,-59.85 643.7,-57.37"/>
</g>
<!-- LabeledEntityMixin -->
<g id="node6" class="node">
<title>LabeledEntityMixin</title>
<g id="a_node6"><a xlink:title="A ``LabeledEntityMixin`` is a mixin class for all VHDL entities that can have labels.">
<polygon fill="white" stroke="#1e90ff" points="110,-56 0,-56 0,-37 110,-37 110,-56"/>
<text text-anchor="middle" x="55" y="-44" font-family="Vera Sans, DejaVu Sans, Liberation Sans, Arial, Helvetica, sans" font-size="10.00">LabeledEntityMixin</text>
</a>
</g>
</g>
<!-- LabeledEntityMixin&#45;&gt;Statement -->
<g id="edge7" class="edge">
<title>LabeledEntityMixin&#45;&gt;Statement</title>
<path fill="none" stroke="black" stroke-width="0.5" d="M110.31,-38.11C120.61,-36.52 131.19,-34.89 140.86,-33.39"/>
<polygon fill="black" stroke="black" stroke-width="0.5" points="141.15,-35.12 145.83,-32.62 140.62,-31.66 141.15,-35.12"/>
</g>
<!-- ModelEntity -->
<g id="node7" class="node">
<title>ModelEntity</title>
<g id="a_node7"><a xlink:title="``ModelEntity`` is the base&#45;class for all classes in the VHDL language model, except for mixin classes (see multiple">
<polygon fill="white" stroke="#1e90ff" points="92.5,-19 17.5,-19 17.5,0 92.5,0 92.5,-19"/>
<text text-anchor="middle" x="55" y="-7" font-family="Vera Sans, DejaVu Sans, Liberation Sans, Arial, Helvetica, sans" font-size="10.00">ModelEntity</text>
</a>
</g>
</g>
<!-- ModelEntity&#45;&gt;Statement -->
<g id="edge6" class="edge">
<title>ModelEntity&#45;&gt;Statement</title>
<path fill="none" stroke="black" stroke-width="0.5" d="M92.57,-14.85C107.71,-17.07 125.28,-19.64 140.61,-21.88"/>
<polygon fill="black" stroke="black" stroke-width="0.5" points="140.51,-23.64 145.72,-22.63 141.02,-20.17 140.51,-23.64"/>
</g>
</g>
</svg>
