<?xml version="1.0" encoding="UTF-8" standalone="no"?>
<!DOCTYPE svg PUBLIC "-//W3C//DTD SVG 1.1//EN"
 "http://www.w3.org/Graphics/SVG/1.1/DTD/svg11.dtd">
<!-- Generated by graphviz version 2.43.0 (0)
 -->
<!-- Title: inheritancee5a4c3d267 Pages: 1 -->
<svg width="306pt" height="64pt"
 viewBox="0.00 0.00 306.00 64.00" xmlns="http://www.w3.org/2000/svg" xmlns:xlink="http://www.w3.org/1999/xlink">
<g id="graph0" class="graph" transform="scale(1 1) rotate(0) translate(4 60)">
<title>inheritancee5a4c3d267</title>
<!-- DOMMixin -->
<g id="node1" class="node">
<title>DOMMixin</title>
<g id="a_node1"><a xlink:href="../pyGHDL.dom.html#pyGHDL.dom.DOMMixin" xlink:title="DOMMixin" target="_top">
<polygon fill="white" stroke="#1e90ff" points="68,-56 0,-56 0,-37 68,-37 68,-56"/>
<text text-anchor="middle" x="34" y="-44" font-family="Vera Sans, DejaVu Sans, Liberation Sans, Arial, Helvetica, sans" font-size="10.00">DOMMixin</text>
</a>
</g>
</g>
<!-- IndexedObjectOrFunctionCallSymbol -->
<g id="node2" class="node">
<title>IndexedObjectOrFunctionCallSymbol</title>
<g id="a_node2"><a xlink:href="../pyGHDL/pyGHDL.dom.Symbol.html#pyGHDL.dom.Symbol.IndexedObjectOrFunctionCallSymbol" xlink:title="IndexedObjectOrFunctionCallSymbol" target="_top">
<polygon fill="white" stroke="#1e90ff" points="298,-37 104,-37 104,-18 298,-18 298,-37"/>
<text text-anchor="middle" x="201" y="-25" font-family="Vera Sans, DejaVu Sans, Liberation Sans, Arial, Helvetica, sans" font-size="10.00">IndexedObjectOrFunctionCallSymbol</text>
</a>
</g>
</g>
<!-- DOMMixin&#45;&gt;IndexedObjectOrFunctionCallSymbol -->
<g id="edge2" class="edge">
<title>DOMMixin&#45;&gt;IndexedObjectOrFunctionCallSymbol</title>
<path fill="none" stroke="black" stroke-width="0.5" d="M68.39,-42.66C81.17,-41.18 96.41,-39.43 111.92,-37.64"/>
<polygon fill="black" stroke="black" stroke-width="0.5" points="112.42,-39.35 117.19,-37.04 112.02,-35.87 112.42,-39.35"/>
</g>
<!-- IndexedObjectOrFunctionCallSymbol&#45;&gt;IndexedObjectOrFunctionCallSymbol -->
<g id="edge1" class="edge">
<title>IndexedObjectOrFunctionCallSymbol&#45;&gt;IndexedObjectOrFunctionCallSymbol</title>
<path fill="none" stroke="black" stroke-width="0.5" d="M175.41,-37.08C162.97,-45.73 171.5,-55 201,-55 226.35,-55 236.22,-48.16 230.59,-40.74"/>
<polygon fill="black" stroke="black" stroke-width="0.5" points="231.46,-39.16 226.59,-37.08 229.1,-41.75 231.46,-39.16"/>
</g>
<!-- Symbol -->
<g id="node3" class="node">
<title>Symbol</title>
<polygon fill="white" stroke="#1e90ff" points="61,-19 7,-19 7,0 61,0 61,-19"/>
<text text-anchor="middle" x="34" y="-7" font-family="Vera Sans, DejaVu Sans, Liberation Sans, Arial, Helvetica, sans" font-size="10.00">Symbol</text>
</g>
<!-- Symbol&#45;&gt;IndexedObjectOrFunctionCallSymbol -->
<g id="edge3" class="edge">
<title>Symbol&#45;&gt;IndexedObjectOrFunctionCallSymbol</title>
<path fill="none" stroke="black" stroke-width="0.5" d="M61.14,-12.35C74.07,-13.76 90.54,-15.56 107.58,-17.42"/>
<polygon fill="black" stroke="black" stroke-width="0.5" points="107.72,-19.19 112.88,-18 108.1,-15.71 107.72,-19.19"/>
</g>
</g>
</svg>
