<?xml version="1.0" encoding="UTF-8" standalone="no"?>
<!DOCTYPE svg PUBLIC "-//W3C//DTD SVG 1.1//EN"
 "http://www.w3.org/Graphics/SVG/1.1/DTD/svg11.dtd">
<!-- Generated by graphviz version 2.43.0 (0)
 -->
<!-- Title: inheritance9583803eb5 Pages: 1 -->
<svg width="576pt" height="59pt"
 viewBox="0.00 0.00 576.00 58.97" xmlns="http://www.w3.org/2000/svg" xmlns:xlink="http://www.w3.org/1999/xlink">
<g id="graph0" class="graph" transform="scale(1.39 1.39) rotate(0) translate(4 78)">
<title>inheritance9583803eb5</title>
<!-- Assignment -->
<g id="node1" class="node">
<title>Assignment</title>
<g id="a_node1"><a xlink:title="An ``Assignment`` is a base&#45;class for all assignment statements.">
<polygon fill="white" stroke="#1e90ff" points="220,-74 146,-74 146,-55 220,-55 220,-74"/>
<text text-anchor="middle" x="183" y="-62" font-family="Vera Sans, DejaVu Sans, Liberation Sans, Arial, Helvetica, sans" font-size="10.00">Assignment</text>
</a>
</g>
</g>
<!-- SignalAssignment -->
<g id="node7" class="node">
<title>SignalAssignment</title>
<g id="a_node7"><a xlink:title="An ``SignalAssignment`` is a base&#45;class for all signal assignment statements.">
<polygon fill="white" stroke="#1e90ff" points="367.5,-74 263.5,-74 263.5,-55 367.5,-55 367.5,-74"/>
<text text-anchor="middle" x="315.5" y="-62" font-family="Vera Sans, DejaVu Sans, Liberation Sans, Arial, Helvetica, sans" font-size="10.00">SignalAssignment</text>
</a>
</g>
</g>
<!-- Assignment&#45;&gt;SignalAssignment -->
<g id="edge7" class="edge">
<title>Assignment&#45;&gt;SignalAssignment</title>
<path fill="none" stroke="black" stroke-width="0.5" d="M220.01,-64.5C231.86,-64.5 245.34,-64.5 258.33,-64.5"/>
<polygon fill="black" stroke="black" stroke-width="0.5" points="258.47,-66.25 263.47,-64.5 258.47,-62.75 258.47,-66.25"/>
</g>
<!-- DOMMixin -->
<g id="node2" class="node">
<title>DOMMixin</title>
<g id="a_node2"><a xlink:href="../pyGHDL.dom.html#pyGHDL.dom.DOMMixin" xlink:title="DOMMixin" target="_top">
<polygon fill="white" stroke="#1e90ff" points="523,-19 455,-19 455,0 523,0 523,-19"/>
<text text-anchor="middle" x="489" y="-7" font-family="Vera Sans, DejaVu Sans, Liberation Sans, Arial, Helvetica, sans" font-size="10.00">DOMMixin</text>
</a>
</g>
</g>
<!-- SequentialSimpleSignalAssignment -->
<g id="node8" class="node">
<title>SequentialSimpleSignalAssignment</title>
<g id="a_node8"><a xlink:href="../pyGHDL/pyGHDL.dom.Sequential.html#pyGHDL.dom.Sequential.SequentialSimpleSignalAssignment" xlink:title="SequentialSimpleSignalAssignment" target="_top">
<polygon fill="white" stroke="#1e90ff" points="793,-37 603,-37 603,-18 793,-18 793,-37"/>
<text text-anchor="middle" x="698" y="-25" font-family="Vera Sans, DejaVu Sans, Liberation Sans, Arial, Helvetica, sans" font-size="10.00">SequentialSimpleSignalAssignment</text>
</a>
</g>
</g>
<!-- DOMMixin&#45;&gt;SequentialSimpleSignalAssignment -->
<g id="edge4" class="edge">
<title>DOMMixin&#45;&gt;SequentialSimpleSignalAssignment</title>
<path fill="none" stroke="black" stroke-width="0.5" d="M523.26,-12.39C543.59,-14.16 570.78,-16.52 597.59,-18.86"/>
<polygon fill="black" stroke="black" stroke-width="0.5" points="597.46,-20.6 602.59,-19.29 597.76,-17.11 597.46,-20.6"/>
</g>
<!-- LabeledEntityMixin -->
<g id="node3" class="node">
<title>LabeledEntityMixin</title>
<g id="a_node3"><a xlink:title="A ``LabeledEntityMixin`` is a mixin class for all VHDL entities that can have labels.">
<polygon fill="white" stroke="#1e90ff" points="110,-56 0,-56 0,-37 110,-37 110,-56"/>
<text text-anchor="middle" x="55" y="-44" font-family="Vera Sans, DejaVu Sans, Liberation Sans, Arial, Helvetica, sans" font-size="10.00">LabeledEntityMixin</text>
</a>
</g>
</g>
<!-- Statement -->
<g id="node9" class="node">
<title>Statement</title>
<g id="a_node9"><a xlink:title="A ``Statement`` is a base&#45;class for all statements.">
<polygon fill="white" stroke="#1e90ff" points="217,-37 149,-37 149,-18 217,-18 217,-37"/>
<text text-anchor="middle" x="183" y="-25" font-family="Vera Sans, DejaVu Sans, Liberation Sans, Arial, Helvetica, sans" font-size="10.00">Statement</text>
</a>
</g>
</g>
<!-- LabeledEntityMixin&#45;&gt;Statement -->
<g id="edge9" class="edge">
<title>LabeledEntityMixin&#45;&gt;Statement</title>
<path fill="none" stroke="black" stroke-width="0.5" d="M110.17,-38.33C121.52,-36.62 133.26,-34.85 143.87,-33.25"/>
<polygon fill="black" stroke="black" stroke-width="0.5" points="144.3,-34.95 148.99,-32.48 143.78,-31.49 144.3,-34.95"/>
</g>
<!-- ModelEntity -->
<g id="node4" class="node">
<title>ModelEntity</title>
<g id="a_node4"><a xlink:title="``ModelEntity`` is the base&#45;class for all classes in the VHDL language model, except for mixin classes (see multiple">
<polygon fill="white" stroke="#1e90ff" points="92.5,-19 17.5,-19 17.5,0 92.5,0 92.5,-19"/>
<text text-anchor="middle" x="55" y="-7" font-family="Vera Sans, DejaVu Sans, Liberation Sans, Arial, Helvetica, sans" font-size="10.00">ModelEntity</text>
</a>
</g>
</g>
<!-- ModelEntity&#45;&gt;Statement -->
<g id="edge8" class="edge">
<title>ModelEntity&#45;&gt;Statement</title>
<path fill="none" stroke="black" stroke-width="0.5" d="M92.78,-14.75C108.71,-17.03 127.35,-19.69 143.46,-21.99"/>
<polygon fill="black" stroke="black" stroke-width="0.5" points="143.63,-23.79 148.83,-22.76 144.12,-20.32 143.63,-23.79"/>
</g>
<!-- SequentialSignalAssignment -->
<g id="node5" class="node">
<title>SequentialSignalAssignment</title>
<polygon fill="white" stroke="#1e90ff" points="567,-56 411,-56 411,-37 567,-37 567,-56"/>
<text text-anchor="middle" x="489" y="-44" font-family="Vera Sans, DejaVu Sans, Liberation Sans, Arial, Helvetica, sans" font-size="10.00">SequentialSignalAssignment</text>
</g>
<!-- SequentialSignalAssignment&#45;&gt;SequentialSimpleSignalAssignment -->
<g id="edge5" class="edge">
<title>SequentialSignalAssignment&#45;&gt;SequentialSimpleSignalAssignment</title>
<path fill="none" stroke="black" stroke-width="0.5" d="M567.08,-39.43C577.06,-38.51 587.38,-37.56 597.66,-36.62"/>
<polygon fill="black" stroke="black" stroke-width="0.5" points="597.88,-38.36 602.69,-36.16 597.56,-34.87 597.88,-38.36"/>
</g>
<!-- SequentialStatement -->
<g id="node6" class="node">
<title>SequentialStatement</title>
<g id="a_node6"><a xlink:title="A ``SequentialStatement`` is a base&#45;class for all sequential statements.">
<polygon fill="white" stroke="#1e90ff" points="375,-37 256,-37 256,-18 375,-18 375,-37"/>
<text text-anchor="middle" x="315.5" y="-25" font-family="Vera Sans, DejaVu Sans, Liberation Sans, Arial, Helvetica, sans" font-size="10.00">SequentialStatement</text>
</a>
</g>
</g>
<!-- SequentialStatement&#45;&gt;SequentialSignalAssignment -->
<g id="edge1" class="edge">
<title>SequentialStatement&#45;&gt;SequentialSignalAssignment</title>
<path fill="none" stroke="black" stroke-width="0.5" d="M375.04,-33.99C384.96,-35.08 395.43,-36.24 405.83,-37.4"/>
<polygon fill="black" stroke="black" stroke-width="0.5" points="405.76,-39.15 410.92,-37.96 406.14,-35.67 405.76,-39.15"/>
</g>
<!-- SignalAssignment&#45;&gt;SequentialSignalAssignment -->
<g id="edge2" class="edge">
<title>SignalAssignment&#45;&gt;SequentialSignalAssignment</title>
<path fill="none" stroke="black" stroke-width="0.5" d="M367.96,-59.1C379.89,-57.85 392.88,-56.48 405.77,-55.13"/>
<polygon fill="black" stroke="black" stroke-width="0.5" points="406.1,-56.86 410.89,-54.59 405.74,-53.37 406.1,-56.86"/>
</g>
<!-- SequentialSimpleSignalAssignment&#45;&gt;SequentialSimpleSignalAssignment -->
<g id="edge3" class="edge">
<title>SequentialSimpleSignalAssignment&#45;&gt;SequentialSimpleSignalAssignment</title>
<path fill="none" stroke="black" stroke-width="0.5" d="M665.94,-37.08C650.34,-45.73 661.03,-55 698,-55 730.93,-55 743,-47.65 734.23,-39.93"/>
<polygon fill="black" stroke="black" stroke-width="0.5" points="735.18,-38.46 730.06,-37.08 733.2,-41.35 735.18,-38.46"/>
</g>
<!-- Statement&#45;&gt;SequentialStatement -->
<g id="edge6" class="edge">
<title>Statement&#45;&gt;SequentialStatement</title>
<path fill="none" stroke="black" stroke-width="0.5" d="M217.27,-27.5C227.48,-27.5 239.09,-27.5 250.64,-27.5"/>
<polygon fill="black" stroke="black" stroke-width="0.5" points="250.93,-29.25 255.93,-27.5 250.93,-25.75 250.93,-29.25"/>
</g>
</g>
</svg>
