<?xml version="1.0" encoding="UTF-8" standalone="no"?>
<!DOCTYPE svg PUBLIC "-//W3C//DTD SVG 1.1//EN"
 "http://www.w3.org/Graphics/SVG/1.1/DTD/svg11.dtd">
<!-- Generated by graphviz version 2.43.0 (0)
 -->
<!-- Title: inheritance6e993f4efa Pages: 1 -->
<svg width="251pt" height="138pt"
 viewBox="0.00 0.00 251.00 138.00" xmlns="http://www.w3.org/2000/svg" xmlns:xlink="http://www.w3.org/1999/xlink">
<g id="graph0" class="graph" transform="scale(1 1) rotate(0) translate(4 134)">
<title>inheritance6e993f4efa</title>
<!-- Component -->
<g id="node1" class="node">
<title>Component</title>
<g id="a_node1"><a xlink:href="../pyGHDL/pyGHDL.dom.DesignUnit.html#pyGHDL.dom.DesignUnit.Component" xlink:title="Component" target="_top">
<polygon fill="white" stroke="#1e90ff" points="243,-74 170,-74 170,-55 243,-55 243,-74"/>
<text text-anchor="middle" x="206.5" y="-62" font-family="Vera Sans, DejaVu Sans, Liberation Sans, Arial, Helvetica, sans" font-size="10.00">Component</text>
</a>
</g>
</g>
<!-- Component&#45;&gt;Component -->
<g id="edge1" class="edge">
<title>Component&#45;&gt;Component</title>
<path fill="none" stroke="black" stroke-width="0.5" d="M185.23,-74.08C174.88,-82.73 181.97,-92 206.5,-92 227.19,-92 235.48,-85.4 231.34,-78.15"/>
<polygon fill="black" stroke="black" stroke-width="0.5" points="232.39,-76.68 227.77,-74.08 229.76,-78.99 232.39,-76.68"/>
</g>
<!-- DOMMixin -->
<g id="node2" class="node">
<title>DOMMixin</title>
<g id="a_node2"><a xlink:href="../pyGHDL.dom.html#pyGHDL.dom.DOMMixin" xlink:title="DOMMixin" target="_top">
<polygon fill="white" stroke="#1e90ff" points="101,-130 33,-130 33,-111 101,-111 101,-130"/>
<text text-anchor="middle" x="67" y="-118" font-family="Vera Sans, DejaVu Sans, Liberation Sans, Arial, Helvetica, sans" font-size="10.00">DOMMixin</text>
</a>
</g>
</g>
<!-- DOMMixin&#45;&gt;Component -->
<g id="edge2" class="edge">
<title>DOMMixin&#45;&gt;Component</title>
<path fill="none" stroke="black" stroke-width="0.5" d="M101.03,-113.03C111.72,-110.21 123.51,-106.66 134,-102.5 151.96,-95.38 171.25,-84.95 185.26,-76.82"/>
<polygon fill="black" stroke="black" stroke-width="0.5" points="186.37,-78.19 189.8,-74.16 184.6,-75.18 186.37,-78.19"/>
</g>
<!-- ModelEntity -->
<g id="node3" class="node">
<title>ModelEntity</title>
<g id="a_node3"><a xlink:title="``ModelEntity`` is the base&#45;class for all classes in the VHDL language model, except for mixin classes (see multiple">
<polygon fill="white" stroke="#1e90ff" points="104.5,-93 29.5,-93 29.5,-74 104.5,-74 104.5,-93"/>
<text text-anchor="middle" x="67" y="-81" font-family="Vera Sans, DejaVu Sans, Liberation Sans, Arial, Helvetica, sans" font-size="10.00">ModelEntity</text>
</a>
</g>
</g>
<!-- ModelEntity&#45;&gt;Component -->
<g id="edge3" class="edge">
<title>ModelEntity&#45;&gt;Component</title>
<path fill="none" stroke="black" stroke-width="0.5" d="M104.85,-78.41C123.32,-75.86 145.73,-72.76 164.72,-70.14"/>
<polygon fill="black" stroke="black" stroke-width="0.5" points="165.26,-71.83 169.98,-69.41 164.78,-68.36 165.26,-71.83"/>
</g>
<!-- NamedEntityMixin -->
<g id="node4" class="node">
<title>NamedEntityMixin</title>
<g id="a_node4"><a xlink:title="A ``NamedEntityMixin`` is a mixin class for all VHDL entities that have identifiers.">
<polygon fill="white" stroke="#1e90ff" points="120.5,-56 13.5,-56 13.5,-37 120.5,-37 120.5,-56"/>
<text text-anchor="middle" x="67" y="-44" font-family="Vera Sans, DejaVu Sans, Liberation Sans, Arial, Helvetica, sans" font-size="10.00">NamedEntityMixin</text>
</a>
</g>
</g>
<!-- NamedEntityMixin&#45;&gt;Component -->
<g id="edge4" class="edge">
<title>NamedEntityMixin&#45;&gt;Component</title>
<path fill="none" stroke="black" stroke-width="0.5" d="M120.77,-53.41C135.34,-55.32 150.92,-57.36 164.7,-59.16"/>
<polygon fill="black" stroke="black" stroke-width="0.5" points="164.5,-60.9 169.69,-59.81 164.96,-57.43 164.5,-60.9"/>
</g>
<!-- DocumentedEntityMixin -->
<g id="node5" class="node">
<title>DocumentedEntityMixin</title>
<g id="a_node5"><a xlink:title="A ``DocumentedEntityMixin`` is a mixin class for all VHDL entities that can have an associated documentation.">
<polygon fill="white" stroke="#1e90ff" points="134,-19 0,-19 0,0 134,0 134,-19"/>
<text text-anchor="middle" x="67" y="-7" font-family="Vera Sans, DejaVu Sans, Liberation Sans, Arial, Helvetica, sans" font-size="10.00">DocumentedEntityMixin</text>
</a>
</g>
</g>
<!-- DocumentedEntityMixin&#45;&gt;Component -->
<g id="edge5" class="edge">
<title>DocumentedEntityMixin&#45;&gt;Component</title>
<path fill="none" stroke="black" stroke-width="0.5" d="M105.75,-19.06C115.1,-21.78 125.01,-24.98 134,-28.5 151.32,-35.29 170.08,-44.82 184.03,-52.37"/>
<polygon fill="black" stroke="black" stroke-width="0.5" points="183.35,-53.99 188.57,-54.85 185.02,-50.92 183.35,-53.99"/>
</g>
</g>
</svg>
