<?xml version="1.0" encoding="UTF-8" standalone="no"?>
<!DOCTYPE svg PUBLIC "-//W3C//DTD SVG 1.1//EN"
 "http://www.w3.org/Graphics/SVG/1.1/DTD/svg11.dtd">
<!-- Generated by graphviz version 2.43.0 (0)
 -->
<!-- Title: inheritancecb0e56e4c5 Pages: 1 -->
<svg width="462pt" height="82pt"
 viewBox="0.00 0.00 462.00 82.00" xmlns="http://www.w3.org/2000/svg" xmlns:xlink="http://www.w3.org/1999/xlink">
<g id="graph0" class="graph" transform="scale(1 1) rotate(0) translate(4 78)">
<title>inheritancecb0e56e4c5</title>
<!-- BaseCase -->
<g id="node1" class="node">
<title>BaseCase</title>
<g id="a_node1"><a xlink:title="A ``Case`` is a base&#45;class for all cases.">
<polygon fill="white" stroke="#1e90ff" points="206,-19 141,-19 141,0 206,0 206,-19"/>
<text text-anchor="middle" x="173.5" y="-7" font-family="Vera Sans, DejaVu Sans, Liberation Sans, Arial, Helvetica, sans" font-size="10.00">BaseCase</text>
</a>
</g>
</g>
<!-- SequentialCase -->
<g id="node5" class="node">
<title>SequentialCase</title>
<polygon fill="white" stroke="#1e90ff" points="364,-37 272,-37 272,-18 364,-18 364,-37"/>
<text text-anchor="middle" x="318" y="-25" font-family="Vera Sans, DejaVu Sans, Liberation Sans, Arial, Helvetica, sans" font-size="10.00">SequentialCase</text>
</g>
<!-- BaseCase&#45;&gt;SequentialCase -->
<g id="edge5" class="edge">
<title>BaseCase&#45;&gt;SequentialCase</title>
<path fill="none" stroke="black" stroke-width="0.5" d="M206.13,-13.49C223.96,-15.75 246.66,-18.62 266.87,-21.17"/>
<polygon fill="black" stroke="black" stroke-width="0.5" points="266.77,-22.92 271.95,-21.81 267.21,-19.45 266.77,-22.92"/>
</g>
<!-- ModelEntity -->
<g id="node2" class="node">
<title>ModelEntity</title>
<g id="a_node2"><a xlink:title="``ModelEntity`` is the base&#45;class for all classes in the VHDL language model, except for mixin classes (see multiple">
<polygon fill="white" stroke="#1e90ff" points="75,-19 0,-19 0,0 75,0 75,-19"/>
<text text-anchor="middle" x="37.5" y="-7" font-family="Vera Sans, DejaVu Sans, Liberation Sans, Arial, Helvetica, sans" font-size="10.00">ModelEntity</text>
</a>
</g>
</g>
<!-- ModelEntity&#45;&gt;BaseCase -->
<g id="edge1" class="edge">
<title>ModelEntity&#45;&gt;BaseCase</title>
<path fill="none" stroke="black" stroke-width="0.5" d="M75.12,-9.5C93.96,-9.5 116.87,-9.5 135.73,-9.5"/>
<polygon fill="black" stroke="black" stroke-width="0.5" points="135.93,-11.25 140.93,-9.5 135.93,-7.75 135.93,-11.25"/>
</g>
<!-- Case -->
<g id="node3" class="node">
<title>Case</title>
<g id="a_node3"><a xlink:href="../pyGHDL/pyGHDL.dom.Sequential.html#pyGHDL.dom.Sequential.Case" xlink:title="Case" target="_top">
<polygon fill="white" stroke="#1e90ff" points="454,-55 400,-55 400,-36 454,-36 454,-55"/>
<text text-anchor="middle" x="427" y="-43" font-family="Vera Sans, DejaVu Sans, Liberation Sans, Arial, Helvetica, sans" font-size="10.00">Case</text>
</a>
</g>
</g>
<!-- Case&#45;&gt;Case -->
<g id="edge2" class="edge">
<title>Case&#45;&gt;Case</title>
<path fill="none" stroke="black" stroke-width="0.5" d="M410.35,-55.08C402.26,-63.73 407.8,-73 427,-73 442.9,-73 449.43,-66.65 446.61,-59.55"/>
<polygon fill="black" stroke="black" stroke-width="0.5" points="447.87,-58.28 443.65,-55.08 444.95,-60.22 447.87,-58.28"/>
</g>
<!-- DOMMixin -->
<g id="node4" class="node">
<title>DOMMixin</title>
<g id="a_node4"><a xlink:href="../pyGHDL.dom.html#pyGHDL.dom.DOMMixin" xlink:title="DOMMixin" target="_top">
<polygon fill="white" stroke="#1e90ff" points="352,-74 284,-74 284,-55 352,-55 352,-74"/>
<text text-anchor="middle" x="318" y="-62" font-family="Vera Sans, DejaVu Sans, Liberation Sans, Arial, Helvetica, sans" font-size="10.00">DOMMixin</text>
</a>
</g>
</g>
<!-- DOMMixin&#45;&gt;Case -->
<g id="edge3" class="edge">
<title>DOMMixin&#45;&gt;Case</title>
<path fill="none" stroke="black" stroke-width="0.5" d="M352.27,-58.59C365.81,-56.19 381.38,-53.42 394.71,-51.06"/>
<polygon fill="black" stroke="black" stroke-width="0.5" points="395.27,-52.73 399.89,-50.14 394.66,-49.29 395.27,-52.73"/>
</g>
<!-- SequentialCase&#45;&gt;Case -->
<g id="edge4" class="edge">
<title>SequentialCase&#45;&gt;Case</title>
<path fill="none" stroke="black" stroke-width="0.5" d="M364.07,-35.08C374.38,-36.82 385.12,-38.62 394.71,-40.24"/>
<polygon fill="black" stroke="black" stroke-width="0.5" points="394.68,-42.01 399.9,-41.11 395.26,-38.55 394.68,-42.01"/>
</g>
<!-- SequentialStatements -->
<g id="node6" class="node">
<title>SequentialStatements</title>
<polygon fill="white" stroke="#1e90ff" points="236,-56 111,-56 111,-37 236,-37 236,-56"/>
<text text-anchor="middle" x="173.5" y="-44" font-family="Vera Sans, DejaVu Sans, Liberation Sans, Arial, Helvetica, sans" font-size="10.00">SequentialStatements</text>
</g>
<!-- SequentialStatements&#45;&gt;SequentialCase -->
<g id="edge6" class="edge">
<title>SequentialStatements&#45;&gt;SequentialCase</title>
<path fill="none" stroke="black" stroke-width="0.5" d="M236.17,-38.28C246.42,-36.91 256.94,-35.51 266.86,-34.19"/>
<polygon fill="black" stroke="black" stroke-width="0.5" points="267.26,-35.9 271.99,-33.5 266.8,-32.43 267.26,-35.9"/>
</g>
</g>
</svg>
