<?xml version="1.0" encoding="UTF-8" standalone="no"?>
<!DOCTYPE svg PUBLIC "-//W3C//DTD SVG 1.1//EN"
 "http://www.w3.org/Graphics/SVG/1.1/DTD/svg11.dtd">
<!-- Generated by graphviz version 2.43.0 (0)
 -->
<!-- Title: inheritanced82a32f0fb Pages: 1 -->
<svg width="576pt" height="56pt"
 viewBox="0.00 0.00 576.00 56.11" xmlns="http://www.w3.org/2000/svg" xmlns:xlink="http://www.w3.org/1999/xlink">
<g id="graph0" class="graph" transform="scale(1.14 1.14) rotate(0) translate(4 60)">
<title>inheritanced82a32f0fb</title>
<!-- BaseExpression -->
<g id="node1" class="node">
<title>BaseExpression</title>
<g id="a_node1"><a xlink:title="A ``BaseExpression`` is a base&#45;class for all expressions.">
<polygon fill="white" stroke="#1e90ff" points="205,-19 111,-19 111,0 205,0 205,-19"/>
<text text-anchor="middle" x="158" y="-7" font-family="Vera Sans, DejaVu Sans, Liberation Sans, Arial, Helvetica, sans" font-size="10.00">BaseExpression</text>
</a>
</g>
</g>
<!-- BinaryExpression -->
<g id="node3" class="node">
<title>BinaryExpression</title>
<g id="a_node3"><a xlink:title="A ``BinaryExpression`` is a base&#45;class for all binary expressions.">
<polygon fill="white" stroke="#1e90ff" points="342,-19 241,-19 241,0 342,0 342,-19"/>
<text text-anchor="middle" x="291.5" y="-7" font-family="Vera Sans, DejaVu Sans, Liberation Sans, Arial, Helvetica, sans" font-size="10.00">BinaryExpression</text>
</a>
</g>
</g>
<!-- BaseExpression&#45;&gt;BinaryExpression -->
<g id="edge2" class="edge">
<title>BaseExpression&#45;&gt;BinaryExpression</title>
<path fill="none" stroke="black" stroke-width="0.5" d="M205.36,-9.5C215.19,-9.5 225.64,-9.5 235.74,-9.5"/>
<polygon fill="black" stroke="black" stroke-width="0.5" points="235.99,-11.25 240.99,-9.5 235.99,-7.75 235.99,-11.25"/>
</g>
<!-- ModelEntity -->
<g id="node2" class="node">
<title>ModelEntity</title>
<g id="a_node2"><a xlink:title="``ModelEntity`` is the base&#45;class for all classes in the VHDL language model, except for mixin classes (see multiple">
<polygon fill="white" stroke="#1e90ff" points="75,-19 0,-19 0,0 75,0 75,-19"/>
<text text-anchor="middle" x="37.5" y="-7" font-family="Vera Sans, DejaVu Sans, Liberation Sans, Arial, Helvetica, sans" font-size="10.00">ModelEntity</text>
</a>
</g>
</g>
<!-- ModelEntity&#45;&gt;BaseExpression -->
<g id="edge1" class="edge">
<title>ModelEntity&#45;&gt;BaseExpression</title>
<path fill="none" stroke="black" stroke-width="0.5" d="M75.02,-9.5C84.72,-9.5 95.38,-9.5 105.71,-9.5"/>
<polygon fill="black" stroke="black" stroke-width="0.5" points="105.75,-11.25 110.75,-9.5 105.75,-7.75 105.75,-11.25"/>
</g>
<!-- RelationalExpression -->
<g id="node6" class="node">
<title>RelationalExpression</title>
<g id="a_node6"><a xlink:title="A ``RelationalExpression`` is a base&#45;class for all shifting expressions.">
<polygon fill="white" stroke="#1e90ff" points="497,-19 378,-19 378,0 497,0 497,-19"/>
<text text-anchor="middle" x="437.5" y="-7" font-family="Vera Sans, DejaVu Sans, Liberation Sans, Arial, Helvetica, sans" font-size="10.00">RelationalExpression</text>
</a>
</g>
</g>
<!-- BinaryExpression&#45;&gt;RelationalExpression -->
<g id="edge6" class="edge">
<title>BinaryExpression&#45;&gt;RelationalExpression</title>
<path fill="none" stroke="black" stroke-width="0.5" d="M342.06,-9.5C351.98,-9.5 362.55,-9.5 372.87,-9.5"/>
<polygon fill="black" stroke="black" stroke-width="0.5" points="372.92,-11.25 377.92,-9.5 372.92,-7.75 372.92,-11.25"/>
</g>
<!-- DOMMixin -->
<g id="node4" class="node">
<title>DOMMixin</title>
<g id="a_node4"><a xlink:href="../pyGHDL.dom.html#pyGHDL.dom.DOMMixin" xlink:title="DOMMixin" target="_top">
<polygon fill="white" stroke="#1e90ff" points="471.5,-56 403.5,-56 403.5,-37 471.5,-37 471.5,-56"/>
<text text-anchor="middle" x="437.5" y="-44" font-family="Vera Sans, DejaVu Sans, Liberation Sans, Arial, Helvetica, sans" font-size="10.00">DOMMixin</text>
</a>
</g>
</g>
<!-- LessThanExpression -->
<g id="node5" class="node">
<title>LessThanExpression</title>
<g id="a_node5"><a xlink:href="../pyGHDL/pyGHDL.dom.Expression.html#pyGHDL.dom.Expression.LessThanExpression" xlink:title="LessThanExpression" target="_top">
<polygon fill="white" stroke="#1e90ff" points="649,-37 533,-37 533,-18 649,-18 649,-37"/>
<text text-anchor="middle" x="591" y="-25" font-family="Vera Sans, DejaVu Sans, Liberation Sans, Arial, Helvetica, sans" font-size="10.00">LessThanExpression</text>
</a>
</g>
</g>
<!-- DOMMixin&#45;&gt;LessThanExpression -->
<g id="edge4" class="edge">
<title>DOMMixin&#45;&gt;LessThanExpression</title>
<path fill="none" stroke="black" stroke-width="0.5" d="M471.75,-42.33C488.15,-40.27 508.48,-37.72 527.63,-35.32"/>
<polygon fill="black" stroke="black" stroke-width="0.5" points="528.26,-37.01 533,-34.65 527.82,-33.53 528.26,-37.01"/>
</g>
<!-- LessThanExpression&#45;&gt;LessThanExpression -->
<g id="edge3" class="edge">
<title>LessThanExpression&#45;&gt;LessThanExpression</title>
<path fill="none" stroke="black" stroke-width="0.5" d="M567.57,-37.08C556.18,-45.73 563.98,-55 591,-55 614.22,-55 623.25,-48.16 618.1,-40.74"/>
<polygon fill="black" stroke="black" stroke-width="0.5" points="619.2,-39.37 614.43,-37.08 616.73,-41.85 619.2,-39.37"/>
</g>
<!-- RelationalExpression&#45;&gt;LessThanExpression -->
<g id="edge5" class="edge">
<title>RelationalExpression&#45;&gt;LessThanExpression</title>
<path fill="none" stroke="black" stroke-width="0.5" d="M497.07,-16.46C507,-17.64 517.34,-18.87 527.37,-20.06"/>
<polygon fill="black" stroke="black" stroke-width="0.5" points="527.41,-21.83 532.58,-20.68 527.82,-18.35 527.41,-21.83"/>
</g>
</g>
</svg>
