<?xml version="1.0" encoding="UTF-8" standalone="no"?>
<!DOCTYPE svg PUBLIC "-//W3C//DTD SVG 1.1//EN"
 "http://www.w3.org/Graphics/SVG/1.1/DTD/svg11.dtd">
<!-- Generated by graphviz version 2.43.0 (0)
 -->
<!-- Title: inheritance0d7d04db9b Pages: 1 -->
<svg width="255pt" height="64pt"
 viewBox="0.00 0.00 255.00 64.00" xmlns="http://www.w3.org/2000/svg" xmlns:xlink="http://www.w3.org/1999/xlink">
<g id="graph0" class="graph" transform="scale(1 1) rotate(0) translate(4 60)">
<title>inheritance0d7d04db9b</title>
<!-- DOMMixin -->
<g id="node1" class="node">
<title>DOMMixin</title>
<g id="a_node1"><a xlink:href="../pyGHDL.dom.html#pyGHDL.dom.DOMMixin" xlink:title="DOMMixin" target="_top">
<polygon fill="white" stroke="#1e90ff" points="68,-56 0,-56 0,-37 68,-37 68,-56"/>
<text text-anchor="middle" x="34" y="-44" font-family="Vera Sans, DejaVu Sans, Liberation Sans, Arial, Helvetica, sans" font-size="10.00">DOMMixin</text>
</a>
</g>
</g>
<!-- EntityInstantiationSymbol -->
<g id="node2" class="node">
<title>EntityInstantiationSymbol</title>
<g id="a_node2"><a xlink:href="../pyGHDL/pyGHDL.dom.Symbol.html#pyGHDL.dom.Symbol.EntityInstantiationSymbol" xlink:title="An entity reference in a direct entity instantiation." target="_top">
<polygon fill="white" stroke="#1e90ff" points="247,-37 104,-37 104,-18 247,-18 247,-37"/>
<text text-anchor="middle" x="175.5" y="-25" font-family="Vera Sans, DejaVu Sans, Liberation Sans, Arial, Helvetica, sans" font-size="10.00">EntityInstantiationSymbol</text>
</a>
</g>
</g>
<!-- DOMMixin&#45;&gt;EntityInstantiationSymbol -->
<g id="edge2" class="edge">
<title>DOMMixin&#45;&gt;EntityInstantiationSymbol</title>
<path fill="none" stroke="black" stroke-width="0.5" d="M68.06,-42C77.63,-40.69 88.49,-39.21 99.53,-37.71"/>
<polygon fill="black" stroke="black" stroke-width="0.5" points="99.89,-39.43 104.61,-37.02 99.42,-35.96 99.89,-39.43"/>
</g>
<!-- EntityInstantiationSymbol&#45;&gt;EntityInstantiationSymbol -->
<g id="edge1" class="edge">
<title>EntityInstantiationSymbol&#45;&gt;EntityInstantiationSymbol</title>
<path fill="none" stroke="black" stroke-width="0.5" d="M153.92,-37.08C143.42,-45.73 150.62,-55 175.5,-55 196.49,-55 204.9,-48.4 200.7,-41.15"/>
<polygon fill="black" stroke="black" stroke-width="0.5" points="201.71,-39.65 197.08,-37.08 199.1,-41.98 201.71,-39.65"/>
</g>
<!-- Symbol -->
<g id="node3" class="node">
<title>Symbol</title>
<polygon fill="white" stroke="#1e90ff" points="61,-19 7,-19 7,0 61,0 61,-19"/>
<text text-anchor="middle" x="34" y="-7" font-family="Vera Sans, DejaVu Sans, Liberation Sans, Arial, Helvetica, sans" font-size="10.00">Symbol</text>
</g>
<!-- Symbol&#45;&gt;EntityInstantiationSymbol -->
<g id="edge3" class="edge">
<title>Symbol&#45;&gt;EntityInstantiationSymbol</title>
<path fill="none" stroke="black" stroke-width="0.5" d="M61.24,-12.89C72.13,-14.29 85.39,-16 98.94,-17.75"/>
<polygon fill="black" stroke="black" stroke-width="0.5" points="98.75,-19.49 103.94,-18.4 99.2,-16.02 98.75,-19.49"/>
</g>
</g>
</svg>
