<?xml version="1.0" encoding="UTF-8" standalone="no"?>
<!DOCTYPE svg PUBLIC "-//W3C//DTD SVG 1.1//EN"
 "http://www.w3.org/Graphics/SVG/1.1/DTD/svg11.dtd">
<!-- Generated by graphviz version 2.43.0 (0)
 -->
<!-- Title: inheritancee78472d626 Pages: 1 -->
<svg width="409pt" height="64pt"
 viewBox="0.00 0.00 409.00 64.00" xmlns="http://www.w3.org/2000/svg" xmlns:xlink="http://www.w3.org/1999/xlink">
<g id="graph0" class="graph" transform="scale(1 1) rotate(0) translate(4 60)">
<title>inheritancee78472d626</title>
<!-- ConstrainedScalarSubtypeSymbol -->
<g id="node1" class="node">
<title>ConstrainedScalarSubtypeSymbol</title>
<g id="a_node1"><a xlink:href="../pyGHDL/pyGHDL.dom.Symbol.html#pyGHDL.dom.Symbol.ConstrainedScalarSubtypeSymbol" xlink:title="A configuration reference in a configuration instantiation." target="_top">
<polygon fill="white" stroke="#1e90ff" points="401,-37 219,-37 219,-18 401,-18 401,-37"/>
<text text-anchor="middle" x="310" y="-25" font-family="Vera Sans, DejaVu Sans, Liberation Sans, Arial, Helvetica, sans" font-size="10.00">ConstrainedScalarSubtypeSymbol</text>
</a>
</g>
</g>
<!-- ConstrainedScalarSubtypeSymbol&#45;&gt;ConstrainedScalarSubtypeSymbol -->
<g id="edge1" class="edge">
<title>ConstrainedScalarSubtypeSymbol&#45;&gt;ConstrainedScalarSubtypeSymbol</title>
<path fill="none" stroke="black" stroke-width="0.5" d="M283.49,-37.08C270.59,-45.73 279.43,-55 310,-55 336.75,-55 346.86,-47.91 340.33,-40.34"/>
<polygon fill="black" stroke="black" stroke-width="0.5" points="341.45,-38.99 336.51,-37.08 339.18,-41.66 341.45,-38.99"/>
</g>
<!-- DOMMixin -->
<g id="node2" class="node">
<title>DOMMixin</title>
<g id="a_node2"><a xlink:href="../pyGHDL.dom.html#pyGHDL.dom.DOMMixin" xlink:title="DOMMixin" target="_top">
<polygon fill="white" stroke="#1e90ff" points="170.5,-56 102.5,-56 102.5,-37 170.5,-37 170.5,-56"/>
<text text-anchor="middle" x="136.5" y="-44" font-family="Vera Sans, DejaVu Sans, Liberation Sans, Arial, Helvetica, sans" font-size="10.00">DOMMixin</text>
</a>
</g>
</g>
<!-- DOMMixin&#45;&gt;ConstrainedScalarSubtypeSymbol -->
<g id="edge2" class="edge">
<title>DOMMixin&#45;&gt;ConstrainedScalarSubtypeSymbol</title>
<path fill="none" stroke="black" stroke-width="0.5" d="M170.57,-42.84C184.24,-41.32 200.83,-39.48 217.71,-37.61"/>
<polygon fill="black" stroke="black" stroke-width="0.5" points="218.17,-39.32 222.95,-37.03 217.79,-35.84 218.17,-39.32"/>
</g>
<!-- SubtypeSymbol -->
<g id="node3" class="node">
<title>SubtypeSymbol</title>
<polygon fill="white" stroke="#1e90ff" points="183,-19 90,-19 90,0 183,0 183,-19"/>
<text text-anchor="middle" x="136.5" y="-7" font-family="Vera Sans, DejaVu Sans, Liberation Sans, Arial, Helvetica, sans" font-size="10.00">SubtypeSymbol</text>
</g>
<!-- SubtypeSymbol&#45;&gt;ConstrainedScalarSubtypeSymbol -->
<g id="edge3" class="edge">
<title>SubtypeSymbol&#45;&gt;ConstrainedScalarSubtypeSymbol</title>
<path fill="none" stroke="black" stroke-width="0.5" d="M183.01,-14.28C192.56,-15.28 202.97,-16.37 213.59,-17.49"/>
<polygon fill="black" stroke="black" stroke-width="0.5" points="213.65,-19.25 218.81,-18.03 214.02,-15.77 213.65,-19.25"/>
</g>
<!-- Symbol -->
<g id="node4" class="node">
<title>Symbol</title>
<polygon fill="white" stroke="#1e90ff" points="54,-19 0,-19 0,0 54,0 54,-19"/>
<text text-anchor="middle" x="27" y="-7" font-family="Vera Sans, DejaVu Sans, Liberation Sans, Arial, Helvetica, sans" font-size="10.00">Symbol</text>
</g>
<!-- Symbol&#45;&gt;SubtypeSymbol -->
<g id="edge4" class="edge">
<title>Symbol&#45;&gt;SubtypeSymbol</title>
<path fill="none" stroke="black" stroke-width="0.5" d="M54.02,-9.5C63.31,-9.5 74.13,-9.5 84.78,-9.5"/>
<polygon fill="black" stroke="black" stroke-width="0.5" points="84.99,-11.25 89.99,-9.5 84.99,-7.75 84.99,-11.25"/>
</g>
</g>
</svg>
