<?xml version="1.0" encoding="UTF-8" standalone="no"?>
<!DOCTYPE svg PUBLIC "-//W3C//DTD SVG 1.1//EN"
 "http://www.w3.org/Graphics/SVG/1.1/DTD/svg11.dtd">
<!-- Generated by graphviz version 2.43.0 (0)
 -->
<!-- Title: inheritance92d0d33c64 Pages: 1 -->
<svg width="342pt" height="101pt"
 viewBox="0.00 0.00 342.00 101.00" xmlns="http://www.w3.org/2000/svg" xmlns:xlink="http://www.w3.org/1999/xlink">
<g id="graph0" class="graph" transform="scale(1 1) rotate(0) translate(4 97)">
<title>inheritance92d0d33c64</title>
<!-- DOMMixin -->
<g id="node1" class="node">
<title>DOMMixin</title>
<g id="a_node1"><a xlink:href="../pyGHDL.dom.html#pyGHDL.dom.DOMMixin" xlink:title="DOMMixin" target="_top">
<polygon fill="white" stroke="#1e90ff" points="198.5,-93 130.5,-93 130.5,-74 198.5,-74 198.5,-93"/>
<text text-anchor="middle" x="164.5" y="-81" font-family="Vera Sans, DejaVu Sans, Liberation Sans, Arial, Helvetica, sans" font-size="10.00">DOMMixin</text>
</a>
</g>
</g>
<!-- DefaultClock -->
<g id="node2" class="node">
<title>DefaultClock</title>
<g id="a_node2"><a xlink:href="../pyGHDL/pyGHDL.dom.PSL.html#pyGHDL.dom.PSL.DefaultClock" xlink:title="DefaultClock" target="_top">
<polygon fill="white" stroke="#1e90ff" points="334,-56 254,-56 254,-37 334,-37 334,-56"/>
<text text-anchor="middle" x="294" y="-44" font-family="Vera Sans, DejaVu Sans, Liberation Sans, Arial, Helvetica, sans" font-size="10.00">DefaultClock</text>
</a>
</g>
</g>
<!-- DOMMixin&#45;&gt;DefaultClock -->
<g id="edge2" class="edge">
<title>DOMMixin&#45;&gt;DefaultClock</title>
<path fill="none" stroke="black" stroke-width="0.5" d="M198.33,-73.97C215.6,-68.96 236.86,-62.79 254.85,-57.57"/>
<polygon fill="black" stroke="black" stroke-width="0.5" points="255.52,-59.2 259.83,-56.12 254.54,-55.84 255.52,-59.2"/>
</g>
<!-- DefaultClock&#45;&gt;DefaultClock -->
<g id="edge1" class="edge">
<title>DefaultClock&#45;&gt;DefaultClock</title>
<path fill="none" stroke="black" stroke-width="0.5" d="M274.27,-56.08C264.67,-64.73 271.25,-74 294,-74 313.2,-74 320.88,-67.4 317.04,-60.15"/>
<polygon fill="black" stroke="black" stroke-width="0.5" points="318.25,-58.85 313.73,-56.08 315.53,-61.06 318.25,-58.85"/>
</g>
<!-- PSLEntity -->
<g id="node3" class="node">
<title>PSLEntity</title>
<polygon fill="white" stroke="#1e90ff" points="195.5,-56 133.5,-56 133.5,-37 195.5,-37 195.5,-56"/>
<text text-anchor="middle" x="164.5" y="-44" font-family="Vera Sans, DejaVu Sans, Liberation Sans, Arial, Helvetica, sans" font-size="10.00">PSLEntity</text>
</g>
<!-- PSLEntity&#45;&gt;DefaultClock -->
<g id="edge3" class="edge">
<title>PSLEntity&#45;&gt;DefaultClock</title>
<path fill="none" stroke="black" stroke-width="0.5" d="M195.72,-46.5C211.47,-46.5 231.03,-46.5 248.48,-46.5"/>
<polygon fill="black" stroke="black" stroke-width="0.5" points="248.82,-48.25 253.82,-46.5 248.82,-44.75 248.82,-48.25"/>
</g>
<!-- NamedEntityMixin -->
<g id="node4" class="node">
<title>NamedEntityMixin</title>
<g id="a_node4"><a xlink:title="A ``NamedEntityMixin`` is a mixin class for all VHDL entities that have identifiers.">
<polygon fill="white" stroke="#1e90ff" points="218,-19 111,-19 111,0 218,0 218,-19"/>
<text text-anchor="middle" x="164.5" y="-7" font-family="Vera Sans, DejaVu Sans, Liberation Sans, Arial, Helvetica, sans" font-size="10.00">NamedEntityMixin</text>
</a>
</g>
</g>
<!-- NamedEntityMixin&#45;&gt;DefaultClock -->
<g id="edge4" class="edge">
<title>NamedEntityMixin&#45;&gt;DefaultClock</title>
<path fill="none" stroke="black" stroke-width="0.5" d="M198.33,-19.03C215.6,-24.04 236.86,-30.21 254.85,-35.43"/>
<polygon fill="black" stroke="black" stroke-width="0.5" points="254.54,-37.16 259.83,-36.88 255.52,-33.8 254.54,-37.16"/>
</g>
<!-- ModelEntity -->
<g id="node5" class="node">
<title>ModelEntity</title>
<g id="a_node5"><a xlink:title="``ModelEntity`` is the base&#45;class for all classes in the VHDL language model, except for mixin classes (see multiple">
<polygon fill="white" stroke="#1e90ff" points="75,-56 0,-56 0,-37 75,-37 75,-56"/>
<text text-anchor="middle" x="37.5" y="-44" font-family="Vera Sans, DejaVu Sans, Liberation Sans, Arial, Helvetica, sans" font-size="10.00">ModelEntity</text>
</a>
</g>
</g>
<!-- ModelEntity&#45;&gt;PSLEntity -->
<g id="edge5" class="edge">
<title>ModelEntity&#45;&gt;PSLEntity</title>
<path fill="none" stroke="black" stroke-width="0.5" d="M75.33,-46.5C92.04,-46.5 111.71,-46.5 128.22,-46.5"/>
<polygon fill="black" stroke="black" stroke-width="0.5" points="128.24,-48.25 133.24,-46.5 128.24,-44.75 128.24,-48.25"/>
</g>
</g>
</svg>
