<?xml version="1.0" encoding="UTF-8" standalone="no"?>
<!DOCTYPE svg PUBLIC "-//W3C//DTD SVG 1.1//EN"
 "http://www.w3.org/Graphics/SVG/1.1/DTD/svg11.dtd">
<!-- Generated by graphviz version 2.43.0 (0)
 -->
<!-- Title: inheritancebf729d441b Pages: 1 -->
<svg width="274pt" height="27pt"
 viewBox="0.00 0.00 274.00 27.00" xmlns="http://www.w3.org/2000/svg" xmlns:xlink="http://www.w3.org/1999/xlink">
<g id="graph0" class="graph" transform="scale(1 1) rotate(0) translate(4 23)">
<title>inheritancebf729d441b</title>
<!-- Enum -->
<g id="node1" class="node">
<title>Enum</title>
<g id="a_node1"><a xlink:title="Generic enumeration.">
<polygon fill="white" stroke="#1e90ff" points="54,-19 0,-19 0,0 54,0 54,-19"/>
<text text-anchor="middle" x="27" y="-7" font-family="Vera Sans, DejaVu Sans, Liberation Sans, Arial, Helvetica, sans" font-size="10.00">Enum</text>
</a>
</g>
</g>
<!-- IntEnum -->
<g id="node3" class="node">
<title>IntEnum</title>
<g id="a_node3"><a xlink:title="Enum where members are also (and must be) ints">
<polygon fill="white" stroke="#1e90ff" points="147,-19 90,-19 90,0 147,0 147,-19"/>
<text text-anchor="middle" x="118.5" y="-7" font-family="Vera Sans, DejaVu Sans, Liberation Sans, Arial, Helvetica, sans" font-size="10.00">IntEnum</text>
</a>
</g>
</g>
<!-- Enum&#45;&gt;IntEnum -->
<g id="edge2" class="edge">
<title>Enum&#45;&gt;IntEnum</title>
<path fill="none" stroke="black" stroke-width="0.5" d="M54.37,-9.5C63.85,-9.5 74.67,-9.5 84.64,-9.5"/>
<polygon fill="black" stroke="black" stroke-width="0.5" points="84.76,-11.25 89.76,-9.5 84.76,-7.75 84.76,-11.25"/>
</g>
<!-- Iir_Predefined -->
<g id="node2" class="node">
<title>Iir_Predefined</title>
<g id="a_node2"><a xlink:href="../pyGHDL/pyGHDL.libghdl.vhdl.nodes.html#pyGHDL.libghdl.vhdl.nodes.Iir_Predefined" xlink:title="An enumeration." target="_top">
<polygon fill="white" stroke="#1e90ff" points="266,-19 183,-19 183,0 266,0 266,-19"/>
<text text-anchor="middle" x="224.5" y="-7" font-family="Vera Sans, DejaVu Sans, Liberation Sans, Arial, Helvetica, sans" font-size="10.00">Iir_Predefined</text>
</a>
</g>
</g>
<!-- IntEnum&#45;&gt;Iir_Predefined -->
<g id="edge1" class="edge">
<title>IntEnum&#45;&gt;Iir_Predefined</title>
<path fill="none" stroke="black" stroke-width="0.5" d="M147.1,-9.5C156.51,-9.5 167.3,-9.5 177.75,-9.5"/>
<polygon fill="black" stroke="black" stroke-width="0.5" points="177.85,-11.25 182.85,-9.5 177.85,-7.75 177.85,-11.25"/>
</g>
</g>
</svg>
