<?xml version="1.0" encoding="UTF-8" standalone="no"?>
<!DOCTYPE svg PUBLIC "-//W3C//DTD SVG 1.1//EN"
 "http://www.w3.org/Graphics/SVG/1.1/DTD/svg11.dtd">
<!-- Generated by graphviz version 2.43.0 (0)
 -->
<!-- Title: inheritancee06be56031 Pages: 1 -->
<svg width="463pt" height="64pt"
 viewBox="0.00 0.00 463.00 64.00" xmlns="http://www.w3.org/2000/svg" xmlns:xlink="http://www.w3.org/1999/xlink">
<g id="graph0" class="graph" transform="scale(1 1) rotate(0) translate(4 60)">
<title>inheritancee06be56031</title>
<!-- BaseExpression -->
<g id="node1" class="node">
<title>BaseExpression</title>
<g id="a_node1"><a xlink:title="A ``BaseExpression`` is a base&#45;class for all expressions.">
<polygon fill="white" stroke="#1e90ff" points="205,-19 111,-19 111,0 205,0 205,-19"/>
<text text-anchor="middle" x="158" y="-7" font-family="Vera Sans, DejaVu Sans, Liberation Sans, Arial, Helvetica, sans" font-size="10.00">BaseExpression</text>
</a>
</g>
</g>
<!-- Literal -->
<g id="node5" class="node">
<title>Literal</title>
<g id="a_node5"><a xlink:title="A ``Literal`` is a base&#45;class for all literals.">
<polygon fill="white" stroke="#1e90ff" points="302,-19 248,-19 248,0 302,0 302,-19"/>
<text text-anchor="middle" x="275" y="-7" font-family="Vera Sans, DejaVu Sans, Liberation Sans, Arial, Helvetica, sans" font-size="10.00">Literal</text>
</a>
</g>
</g>
<!-- BaseExpression&#45;&gt;Literal -->
<g id="edge5" class="edge">
<title>BaseExpression&#45;&gt;Literal</title>
<path fill="none" stroke="black" stroke-width="0.5" d="M205.11,-9.5C217.68,-9.5 231.01,-9.5 242.56,-9.5"/>
<polygon fill="black" stroke="black" stroke-width="0.5" points="242.73,-11.25 247.73,-9.5 242.73,-7.75 242.73,-11.25"/>
</g>
<!-- ModelEntity -->
<g id="node2" class="node">
<title>ModelEntity</title>
<g id="a_node2"><a xlink:title="``ModelEntity`` is the base&#45;class for all classes in the VHDL language model, except for mixin classes (see multiple">
<polygon fill="white" stroke="#1e90ff" points="75,-19 0,-19 0,0 75,0 75,-19"/>
<text text-anchor="middle" x="37.5" y="-7" font-family="Vera Sans, DejaVu Sans, Liberation Sans, Arial, Helvetica, sans" font-size="10.00">ModelEntity</text>
</a>
</g>
</g>
<!-- ModelEntity&#45;&gt;BaseExpression -->
<g id="edge1" class="edge">
<title>ModelEntity&#45;&gt;BaseExpression</title>
<path fill="none" stroke="black" stroke-width="0.5" d="M75.02,-9.5C84.72,-9.5 95.38,-9.5 105.71,-9.5"/>
<polygon fill="black" stroke="black" stroke-width="0.5" points="105.75,-11.25 110.75,-9.5 105.75,-7.75 105.75,-11.25"/>
</g>
<!-- DOMMixin -->
<g id="node3" class="node">
<title>DOMMixin</title>
<g id="a_node3"><a xlink:href="../pyGHDL.dom.html#pyGHDL.dom.DOMMixin" xlink:title="DOMMixin" target="_top">
<polygon fill="white" stroke="#1e90ff" points="309,-56 241,-56 241,-37 309,-37 309,-56"/>
<text text-anchor="middle" x="275" y="-44" font-family="Vera Sans, DejaVu Sans, Liberation Sans, Arial, Helvetica, sans" font-size="10.00">DOMMixin</text>
</a>
</g>
</g>
<!-- EnumerationLiteral -->
<g id="node4" class="node">
<title>EnumerationLiteral</title>
<g id="a_node4"><a xlink:href="../pyGHDL/pyGHDL.dom.Literal.html#pyGHDL.dom.Literal.EnumerationLiteral" xlink:title="EnumerationLiteral" target="_top">
<polygon fill="white" stroke="#1e90ff" points="455,-37 345,-37 345,-18 455,-18 455,-37"/>
<text text-anchor="middle" x="400" y="-25" font-family="Vera Sans, DejaVu Sans, Liberation Sans, Arial, Helvetica, sans" font-size="10.00">EnumerationLiteral</text>
</a>
</g>
</g>
<!-- DOMMixin&#45;&gt;EnumerationLiteral -->
<g id="edge3" class="edge">
<title>DOMMixin&#45;&gt;EnumerationLiteral</title>
<path fill="none" stroke="black" stroke-width="0.5" d="M309.29,-41.36C318.7,-39.9 329.24,-38.28 339.7,-36.66"/>
<polygon fill="black" stroke="black" stroke-width="0.5" points="340.15,-38.36 344.82,-35.87 339.61,-34.9 340.15,-38.36"/>
</g>
<!-- EnumerationLiteral&#45;&gt;EnumerationLiteral -->
<g id="edge2" class="edge">
<title>EnumerationLiteral&#45;&gt;EnumerationLiteral</title>
<path fill="none" stroke="black" stroke-width="0.5" d="M380.89,-37.08C371.59,-45.73 377.96,-55 400,-55 418.6,-55 426.04,-48.4 422.32,-41.15"/>
<polygon fill="black" stroke="black" stroke-width="0.5" points="423.59,-39.92 419.11,-37.08 420.84,-42.09 423.59,-39.92"/>
</g>
<!-- Literal&#45;&gt;EnumerationLiteral -->
<g id="edge4" class="edge">
<title>Literal&#45;&gt;EnumerationLiteral</title>
<path fill="none" stroke="black" stroke-width="0.5" d="M302.09,-13.32C313.1,-14.93 326.42,-16.88 339.61,-18.81"/>
<polygon fill="black" stroke="black" stroke-width="0.5" points="339.65,-20.58 344.85,-19.58 340.16,-17.12 339.65,-20.58"/>
</g>
</g>
</svg>
