<?xml version="1.0" encoding="UTF-8" standalone="no"?>
<!DOCTYPE svg PUBLIC "-//W3C//DTD SVG 1.1//EN"
 "http://www.w3.org/Graphics/SVG/1.1/DTD/svg11.dtd">
<!-- Generated by graphviz version 2.43.0 (0)
 -->
<!-- Title: inheritance7675ca5f5d Pages: 1 -->
<svg width="405pt" height="64pt"
 viewBox="0.00 0.00 405.00 64.00" xmlns="http://www.w3.org/2000/svg" xmlns:xlink="http://www.w3.org/1999/xlink">
<g id="graph0" class="graph" transform="scale(1 1) rotate(0) translate(4 60)">
<title>inheritance7675ca5f5d</title>
<!-- AggregateElement -->
<g id="node1" class="node">
<title>AggregateElement</title>
<g id="a_node1"><a xlink:title="A ``AggregateElement`` is a base&#45;class for all aggregate elements.">
<polygon fill="white" stroke="#1e90ff" points="218,-19 111,-19 111,0 218,0 218,-19"/>
<text text-anchor="middle" x="164.5" y="-7" font-family="Vera Sans, DejaVu Sans, Liberation Sans, Arial, Helvetica, sans" font-size="10.00">AggregateElement</text>
</a>
</g>
</g>
<!-- NamedAggregateElement -->
<g id="node4" class="node">
<title>NamedAggregateElement</title>
<g id="a_node4"><a xlink:href="../pyGHDL/pyGHDL.dom.Aggregates.html#pyGHDL.dom.Aggregates.NamedAggregateElement" xlink:title="NamedAggregateElement" target="_top">
<polygon fill="white" stroke="#1e90ff" points="397,-37 254,-37 254,-18 397,-18 397,-37"/>
<text text-anchor="middle" x="325.5" y="-25" font-family="Vera Sans, DejaVu Sans, Liberation Sans, Arial, Helvetica, sans" font-size="10.00">NamedAggregateElement</text>
</a>
</g>
</g>
<!-- AggregateElement&#45;&gt;NamedAggregateElement -->
<g id="edge4" class="edge">
<title>AggregateElement&#45;&gt;NamedAggregateElement</title>
<path fill="none" stroke="black" stroke-width="0.5" d="M218,-15.44C227.88,-16.56 238.38,-17.75 248.79,-18.93"/>
<polygon fill="black" stroke="black" stroke-width="0.5" points="248.73,-20.68 253.9,-19.51 249.13,-17.21 248.73,-20.68"/>
</g>
<!-- ModelEntity -->
<g id="node2" class="node">
<title>ModelEntity</title>
<g id="a_node2"><a xlink:title="``ModelEntity`` is the base&#45;class for all classes in the VHDL language model, except for mixin classes (see multiple">
<polygon fill="white" stroke="#1e90ff" points="75,-19 0,-19 0,0 75,0 75,-19"/>
<text text-anchor="middle" x="37.5" y="-7" font-family="Vera Sans, DejaVu Sans, Liberation Sans, Arial, Helvetica, sans" font-size="10.00">ModelEntity</text>
</a>
</g>
</g>
<!-- ModelEntity&#45;&gt;AggregateElement -->
<g id="edge1" class="edge">
<title>ModelEntity&#45;&gt;AggregateElement</title>
<path fill="none" stroke="black" stroke-width="0.5" d="M75.33,-9.5C84.86,-9.5 95.35,-9.5 105.68,-9.5"/>
<polygon fill="black" stroke="black" stroke-width="0.5" points="105.73,-11.25 110.73,-9.5 105.73,-7.75 105.73,-11.25"/>
</g>
<!-- DOMMixin -->
<g id="node3" class="node">
<title>DOMMixin</title>
<g id="a_node3"><a xlink:href="../pyGHDL.dom.html#pyGHDL.dom.DOMMixin" xlink:title="DOMMixin" target="_top">
<polygon fill="white" stroke="#1e90ff" points="198.5,-56 130.5,-56 130.5,-37 198.5,-37 198.5,-56"/>
<text text-anchor="middle" x="164.5" y="-44" font-family="Vera Sans, DejaVu Sans, Liberation Sans, Arial, Helvetica, sans" font-size="10.00">DOMMixin</text>
</a>
</g>
</g>
<!-- DOMMixin&#45;&gt;NamedAggregateElement -->
<g id="edge3" class="edge">
<title>DOMMixin&#45;&gt;NamedAggregateElement</title>
<path fill="none" stroke="black" stroke-width="0.5" d="M198.83,-42.52C213.36,-40.78 231.03,-38.67 248.47,-36.58"/>
<polygon fill="black" stroke="black" stroke-width="0.5" points="249.12,-38.27 253.88,-35.94 248.71,-34.79 249.12,-38.27"/>
</g>
<!-- NamedAggregateElement&#45;&gt;NamedAggregateElement -->
<g id="edge2" class="edge">
<title>NamedAggregateElement&#45;&gt;NamedAggregateElement</title>
<path fill="none" stroke="black" stroke-width="0.5" d="M300.84,-37.08C288.84,-45.73 297.06,-55 325.5,-55 349.94,-55 359.45,-48.16 354.02,-40.74"/>
<polygon fill="black" stroke="black" stroke-width="0.5" points="354.99,-39.25 350.16,-37.08 352.59,-41.79 354.99,-39.25"/>
</g>
</g>
</svg>
