<?xml version="1.0" encoding="UTF-8" standalone="no"?>
<!DOCTYPE svg PUBLIC "-//W3C//DTD SVG 1.1//EN"
 "http://www.w3.org/Graphics/SVG/1.1/DTD/svg11.dtd">
<!-- Generated by graphviz version 2.43.0 (0)
 -->
<!-- Title: inheritancecb7222d1ad Pages: 1 -->
<svg width="403pt" height="64pt"
 viewBox="0.00 0.00 403.00 64.00" xmlns="http://www.w3.org/2000/svg" xmlns:xlink="http://www.w3.org/1999/xlink">
<g id="graph0" class="graph" transform="scale(1 1) rotate(0) translate(4 60)">
<title>inheritancecb7222d1ad</title>
<!-- AggregateElement -->
<g id="node1" class="node">
<title>AggregateElement</title>
<g id="a_node1"><a xlink:title="A ``AggregateElement`` is a base&#45;class for all aggregate elements.">
<polygon fill="white" stroke="#1e90ff" points="218,-19 111,-19 111,0 218,0 218,-19"/>
<text text-anchor="middle" x="164.5" y="-7" font-family="Vera Sans, DejaVu Sans, Liberation Sans, Arial, Helvetica, sans" font-size="10.00">AggregateElement</text>
</a>
</g>
</g>
<!-- SimpleAggregateElement -->
<g id="node4" class="node">
<title>SimpleAggregateElement</title>
<g id="a_node4"><a xlink:href="../pyGHDL/pyGHDL.dom.Aggregates.html#pyGHDL.dom.Aggregates.SimpleAggregateElement" xlink:title="SimpleAggregateElement" target="_top">
<polygon fill="white" stroke="#1e90ff" points="395,-37 254,-37 254,-18 395,-18 395,-37"/>
<text text-anchor="middle" x="324.5" y="-25" font-family="Vera Sans, DejaVu Sans, Liberation Sans, Arial, Helvetica, sans" font-size="10.00">SimpleAggregateElement</text>
</a>
</g>
</g>
<!-- AggregateElement&#45;&gt;SimpleAggregateElement -->
<g id="edge4" class="edge">
<title>AggregateElement&#45;&gt;SimpleAggregateElement</title>
<path fill="none" stroke="black" stroke-width="0.5" d="M218.11,-15.49C227.99,-16.62 238.48,-17.81 248.88,-19"/>
<polygon fill="black" stroke="black" stroke-width="0.5" points="248.8,-20.75 253.97,-19.58 249.2,-17.27 248.8,-20.75"/>
</g>
<!-- ModelEntity -->
<g id="node2" class="node">
<title>ModelEntity</title>
<g id="a_node2"><a xlink:title="``ModelEntity`` is the base&#45;class for all classes in the VHDL language model, except for mixin classes (see multiple">
<polygon fill="white" stroke="#1e90ff" points="75,-19 0,-19 0,0 75,0 75,-19"/>
<text text-anchor="middle" x="37.5" y="-7" font-family="Vera Sans, DejaVu Sans, Liberation Sans, Arial, Helvetica, sans" font-size="10.00">ModelEntity</text>
</a>
</g>
</g>
<!-- ModelEntity&#45;&gt;AggregateElement -->
<g id="edge1" class="edge">
<title>ModelEntity&#45;&gt;AggregateElement</title>
<path fill="none" stroke="black" stroke-width="0.5" d="M75.33,-9.5C84.86,-9.5 95.35,-9.5 105.68,-9.5"/>
<polygon fill="black" stroke="black" stroke-width="0.5" points="105.73,-11.25 110.73,-9.5 105.73,-7.75 105.73,-11.25"/>
</g>
<!-- DOMMixin -->
<g id="node3" class="node">
<title>DOMMixin</title>
<g id="a_node3"><a xlink:href="../pyGHDL.dom.html#pyGHDL.dom.DOMMixin" xlink:title="DOMMixin" target="_top">
<polygon fill="white" stroke="#1e90ff" points="198.5,-56 130.5,-56 130.5,-37 198.5,-37 198.5,-56"/>
<text text-anchor="middle" x="164.5" y="-44" font-family="Vera Sans, DejaVu Sans, Liberation Sans, Arial, Helvetica, sans" font-size="10.00">DOMMixin</text>
</a>
</g>
</g>
<!-- DOMMixin&#45;&gt;SimpleAggregateElement -->
<g id="edge3" class="edge">
<title>DOMMixin&#45;&gt;SimpleAggregateElement</title>
<path fill="none" stroke="black" stroke-width="0.5" d="M198.62,-42.52C213.34,-40.75 231.32,-38.58 249,-36.46"/>
<polygon fill="black" stroke="black" stroke-width="0.5" points="249.22,-38.2 253.97,-35.86 248.8,-34.72 249.22,-38.2"/>
</g>
<!-- SimpleAggregateElement&#45;&gt;SimpleAggregateElement -->
<g id="edge2" class="edge">
<title>SimpleAggregateElement&#45;&gt;SimpleAggregateElement</title>
<path fill="none" stroke="black" stroke-width="0.5" d="M299.84,-37.08C287.84,-45.73 296.06,-55 324.5,-55 348.94,-55 358.45,-48.16 353.02,-40.74"/>
<polygon fill="black" stroke="black" stroke-width="0.5" points="353.99,-39.25 349.16,-37.08 351.59,-41.79 353.99,-39.25"/>
</g>
</g>
</svg>
