<?xml version="1.0" encoding="UTF-8" standalone="no"?>
<!DOCTYPE svg PUBLIC "-//W3C//DTD SVG 1.1//EN"
 "http://www.w3.org/Graphics/SVG/1.1/DTD/svg11.dtd">
<!-- Generated by graphviz version 2.43.0 (0)
 -->
<!-- Title: inheritance800fdd174a Pages: 1 -->
<svg width="570pt" height="101pt"
 viewBox="0.00 0.00 570.00 101.00" xmlns="http://www.w3.org/2000/svg" xmlns:xlink="http://www.w3.org/1999/xlink">
<g id="graph0" class="graph" transform="scale(1 1) rotate(0) translate(4 97)">
<title>inheritance800fdd174a</title>
<!-- BaseType -->
<g id="node1" class="node">
<title>BaseType</title>
<g id="a_node1"><a xlink:title="``BaseType`` is the base&#45;class of all type entities in this model.">
<polygon fill="white" stroke="#1e90ff" points="233,-56 170,-56 170,-37 233,-37 233,-56"/>
<text text-anchor="middle" x="201.5" y="-44" font-family="Vera Sans, DejaVu Sans, Liberation Sans, Arial, Helvetica, sans" font-size="10.00">BaseType</text>
</a>
</g>
</g>
<!-- FullType -->
<g id="node6" class="node">
<title>FullType</title>
<polygon fill="white" stroke="#1e90ff" points="325,-56 269,-56 269,-37 325,-37 325,-56"/>
<text text-anchor="middle" x="297" y="-44" font-family="Vera Sans, DejaVu Sans, Liberation Sans, Arial, Helvetica, sans" font-size="10.00">FullType</text>
</g>
<!-- BaseType&#45;&gt;FullType -->
<g id="edge5" class="edge">
<title>BaseType&#45;&gt;FullType</title>
<path fill="none" stroke="black" stroke-width="0.5" d="M233.12,-46.5C242.91,-46.5 253.79,-46.5 263.7,-46.5"/>
<polygon fill="black" stroke="black" stroke-width="0.5" points="263.78,-48.25 268.78,-46.5 263.78,-44.75 263.78,-48.25"/>
</g>
<!-- ModelEntity -->
<g id="node2" class="node">
<title>ModelEntity</title>
<g id="a_node2"><a xlink:title="``ModelEntity`` is the base&#45;class for all classes in the VHDL language model, except for mixin classes (see multiple">
<polygon fill="white" stroke="#1e90ff" points="104.5,-93 29.5,-93 29.5,-74 104.5,-74 104.5,-93"/>
<text text-anchor="middle" x="67" y="-81" font-family="Vera Sans, DejaVu Sans, Liberation Sans, Arial, Helvetica, sans" font-size="10.00">ModelEntity</text>
</a>
</g>
</g>
<!-- ModelEntity&#45;&gt;BaseType -->
<g id="edge1" class="edge">
<title>ModelEntity&#45;&gt;BaseType</title>
<path fill="none" stroke="black" stroke-width="0.5" d="M103.3,-73.96C113.24,-71.25 124.05,-68.28 134,-65.5 144.04,-62.7 154.91,-59.61 164.91,-56.76"/>
<polygon fill="black" stroke="black" stroke-width="0.5" points="165.41,-58.43 169.73,-55.37 164.44,-55.07 165.41,-58.43"/>
</g>
<!-- NamedEntityMixin -->
<g id="node3" class="node">
<title>NamedEntityMixin</title>
<g id="a_node3"><a xlink:title="A ``NamedEntityMixin`` is a mixin class for all VHDL entities that have identifiers.">
<polygon fill="white" stroke="#1e90ff" points="120.5,-56 13.5,-56 13.5,-37 120.5,-37 120.5,-56"/>
<text text-anchor="middle" x="67" y="-44" font-family="Vera Sans, DejaVu Sans, Liberation Sans, Arial, Helvetica, sans" font-size="10.00">NamedEntityMixin</text>
</a>
</g>
</g>
<!-- NamedEntityMixin&#45;&gt;BaseType -->
<g id="edge2" class="edge">
<title>NamedEntityMixin&#45;&gt;BaseType</title>
<path fill="none" stroke="black" stroke-width="0.5" d="M120.75,-46.5C135.4,-46.5 150.98,-46.5 164.44,-46.5"/>
<polygon fill="black" stroke="black" stroke-width="0.5" points="164.68,-48.25 169.68,-46.5 164.68,-44.75 164.68,-48.25"/>
</g>
<!-- DocumentedEntityMixin -->
<g id="node4" class="node">
<title>DocumentedEntityMixin</title>
<g id="a_node4"><a xlink:title="A ``DocumentedEntityMixin`` is a mixin class for all VHDL entities that can have an associated documentation.">
<polygon fill="white" stroke="#1e90ff" points="134,-19 0,-19 0,0 134,0 134,-19"/>
<text text-anchor="middle" x="67" y="-7" font-family="Vera Sans, DejaVu Sans, Liberation Sans, Arial, Helvetica, sans" font-size="10.00">DocumentedEntityMixin</text>
</a>
</g>
</g>
<!-- DocumentedEntityMixin&#45;&gt;BaseType -->
<g id="edge3" class="edge">
<title>DocumentedEntityMixin&#45;&gt;BaseType</title>
<path fill="none" stroke="black" stroke-width="0.5" d="M102.12,-19.03C121.35,-24.4 145.34,-31.1 164.82,-36.54"/>
<polygon fill="black" stroke="black" stroke-width="0.5" points="164.38,-38.23 169.66,-37.89 165.32,-34.86 164.38,-38.23"/>
</g>
<!-- CompositeType -->
<g id="node5" class="node">
<title>CompositeType</title>
<g id="a_node5"><a xlink:title="A ``CompositeType`` is a base&#45;class for all composite types.">
<polygon fill="white" stroke="#1e90ff" points="453,-56 361,-56 361,-37 453,-37 453,-56"/>
<text text-anchor="middle" x="407" y="-44" font-family="Vera Sans, DejaVu Sans, Liberation Sans, Arial, Helvetica, sans" font-size="10.00">CompositeType</text>
</a>
</g>
</g>
<!-- RecordType -->
<g id="node8" class="node">
<title>RecordType</title>
<g id="a_node8"><a xlink:href="../pyGHDL/pyGHDL.dom.Type.html#pyGHDL.dom.Type.RecordType" xlink:title="RecordType" target="_top">
<polygon fill="white" stroke="#1e90ff" points="562,-74 489,-74 489,-55 562,-55 562,-74"/>
<text text-anchor="middle" x="525.5" y="-62" font-family="Vera Sans, DejaVu Sans, Liberation Sans, Arial, Helvetica, sans" font-size="10.00">RecordType</text>
</a>
</g>
</g>
<!-- CompositeType&#45;&gt;RecordType -->
<g id="edge8" class="edge">
<title>CompositeType&#45;&gt;RecordType</title>
<path fill="none" stroke="black" stroke-width="0.5" d="M453.04,-53.46C463.18,-55.03 473.89,-56.68 483.84,-58.22"/>
<polygon fill="black" stroke="black" stroke-width="0.5" points="483.76,-59.98 488.97,-59.01 484.29,-56.52 483.76,-59.98"/>
</g>
<!-- FullType&#45;&gt;CompositeType -->
<g id="edge4" class="edge">
<title>FullType&#45;&gt;CompositeType</title>
<path fill="none" stroke="black" stroke-width="0.5" d="M325.25,-46.5C334.49,-46.5 345.12,-46.5 355.58,-46.5"/>
<polygon fill="black" stroke="black" stroke-width="0.5" points="355.69,-48.25 360.69,-46.5 355.69,-44.75 355.69,-48.25"/>
</g>
<!-- DOMMixin -->
<g id="node7" class="node">
<title>DOMMixin</title>
<g id="a_node7"><a xlink:href="../pyGHDL.dom.html#pyGHDL.dom.DOMMixin" xlink:title="DOMMixin" target="_top">
<polygon fill="white" stroke="#1e90ff" points="441,-93 373,-93 373,-74 441,-74 441,-93"/>
<text text-anchor="middle" x="407" y="-81" font-family="Vera Sans, DejaVu Sans, Liberation Sans, Arial, Helvetica, sans" font-size="10.00">DOMMixin</text>
</a>
</g>
</g>
<!-- DOMMixin&#45;&gt;RecordType -->
<g id="edge7" class="edge">
<title>DOMMixin&#45;&gt;RecordType</title>
<path fill="none" stroke="black" stroke-width="0.5" d="M441.07,-78.11C454.37,-75.94 469.84,-73.41 483.82,-71.13"/>
<polygon fill="black" stroke="black" stroke-width="0.5" points="484.25,-72.84 488.9,-70.31 483.68,-69.38 484.25,-72.84"/>
</g>
<!-- RecordType&#45;&gt;RecordType -->
<g id="edge6" class="edge">
<title>RecordType&#45;&gt;RecordType</title>
<path fill="none" stroke="black" stroke-width="0.5" d="M507.31,-74.08C498.46,-82.73 504.53,-92 525.5,-92 543.2,-92 550.28,-85.4 546.74,-78.15"/>
<polygon fill="black" stroke="black" stroke-width="0.5" points="548.09,-77.03 543.69,-74.08 545.29,-79.13 548.09,-77.03"/>
</g>
</g>
</svg>
