<?xml version="1.0" encoding="UTF-8" standalone="no"?>
<!DOCTYPE svg PUBLIC "-//W3C//DTD SVG 1.1//EN"
 "http://www.w3.org/Graphics/SVG/1.1/DTD/svg11.dtd">
<!-- Generated by graphviz version 2.43.0 (0)
 -->
<!-- Title: inheritancef26d073291 Pages: 1 -->
<svg width="534pt" height="138pt"
 viewBox="0.00 0.00 534.00 138.00" xmlns="http://www.w3.org/2000/svg" xmlns:xlink="http://www.w3.org/1999/xlink">
<g id="graph0" class="graph" transform="scale(1 1) rotate(0) translate(4 134)">
<title>inheritancef26d073291</title>
<!-- BaseCase -->
<g id="node1" class="node">
<title>BaseCase</title>
<g id="a_node1"><a xlink:title="A ``Case`` is a base&#45;class for all cases.">
<polygon fill="white" stroke="#1e90ff" points="209,-19 144,-19 144,0 209,0 209,-19"/>
<text text-anchor="middle" x="176.5" y="-7" font-family="Vera Sans, DejaVu Sans, Liberation Sans, Arial, Helvetica, sans" font-size="10.00">BaseCase</text>
</a>
</g>
</g>
<!-- ConcurrentCase -->
<g id="node3" class="node">
<title>ConcurrentCase</title>
<polygon fill="white" stroke="#1e90ff" points="372,-74 278,-74 278,-55 372,-55 372,-74"/>
<text text-anchor="middle" x="325" y="-62" font-family="Vera Sans, DejaVu Sans, Liberation Sans, Arial, Helvetica, sans" font-size="10.00">ConcurrentCase</text>
</g>
<!-- BaseCase&#45;&gt;ConcurrentCase -->
<g id="edge2" class="edge">
<title>BaseCase&#45;&gt;ConcurrentCase</title>
<path fill="none" stroke="black" stroke-width="0.5" d="M209.26,-17.98C219.77,-21.02 231.47,-24.66 242,-28.5 261.59,-35.65 283.16,-45.19 299.26,-52.65"/>
<polygon fill="black" stroke="black" stroke-width="0.5" points="298.8,-54.37 304.07,-54.9 300.28,-51.2 298.8,-54.37"/>
</g>
<!-- ModelEntity -->
<g id="node2" class="node">
<title>ModelEntity</title>
<g id="a_node2"><a xlink:title="``ModelEntity`` is the base&#45;class for all classes in the VHDL language model, except for mixin classes (see multiple">
<polygon fill="white" stroke="#1e90ff" points="75,-19 0,-19 0,0 75,0 75,-19"/>
<text text-anchor="middle" x="37.5" y="-7" font-family="Vera Sans, DejaVu Sans, Liberation Sans, Arial, Helvetica, sans" font-size="10.00">ModelEntity</text>
</a>
</g>
</g>
<!-- ModelEntity&#45;&gt;BaseCase -->
<g id="edge1" class="edge">
<title>ModelEntity&#45;&gt;BaseCase</title>
<path fill="none" stroke="black" stroke-width="0.5" d="M75.21,-9.5C94.86,-9.5 118.98,-9.5 138.65,-9.5"/>
<polygon fill="black" stroke="black" stroke-width="0.5" points="138.81,-11.25 143.81,-9.5 138.81,-7.75 138.81,-11.25"/>
</g>
<!-- OthersGenerateCase -->
<g id="node8" class="node">
<title>OthersGenerateCase</title>
<g id="a_node8"><a xlink:href="../pyGHDL/pyGHDL.dom.Concurrent.html#pyGHDL.dom.Concurrent.OthersGenerateCase" xlink:title="OthersGenerateCase" target="_top">
<polygon fill="white" stroke="#1e90ff" points="526,-92 408,-92 408,-73 526,-73 526,-92"/>
<text text-anchor="middle" x="467" y="-80" font-family="Vera Sans, DejaVu Sans, Liberation Sans, Arial, Helvetica, sans" font-size="10.00">OthersGenerateCase</text>
</a>
</g>
</g>
<!-- ConcurrentCase&#45;&gt;OthersGenerateCase -->
<g id="edge8" class="edge">
<title>ConcurrentCase&#45;&gt;OthersGenerateCase</title>
<path fill="none" stroke="black" stroke-width="0.5" d="M372.23,-70.44C381.95,-71.69 392.36,-73.03 402.59,-74.35"/>
<polygon fill="black" stroke="black" stroke-width="0.5" points="402.4,-76.09 407.59,-74.99 402.85,-72.62 402.4,-76.09"/>
</g>
<!-- LabeledEntityMixin -->
<g id="node4" class="node">
<title>LabeledEntityMixin</title>
<g id="a_node4"><a xlink:title="A ``LabeledEntityMixin`` is a mixin class for all VHDL entities that can have labels.">
<polygon fill="white" stroke="#1e90ff" points="231.5,-130 121.5,-130 121.5,-111 231.5,-111 231.5,-130"/>
<text text-anchor="middle" x="176.5" y="-118" font-family="Vera Sans, DejaVu Sans, Liberation Sans, Arial, Helvetica, sans" font-size="10.00">LabeledEntityMixin</text>
</a>
</g>
</g>
<!-- LabeledEntityMixin&#45;&gt;ConcurrentCase -->
<g id="edge3" class="edge">
<title>LabeledEntityMixin&#45;&gt;ConcurrentCase</title>
<path fill="none" stroke="black" stroke-width="0.5" d="M216.83,-110.97C225.25,-108.53 234.01,-105.68 242,-102.5 258.81,-95.81 261.62,-91.18 278,-83.5 283.38,-80.98 289.18,-78.44 294.8,-76.08"/>
<polygon fill="black" stroke="black" stroke-width="0.5" points="295.52,-77.67 299.46,-74.14 294.17,-74.44 295.52,-77.67"/>
</g>
<!-- ConcurrentDeclarations -->
<g id="node5" class="node">
<title>ConcurrentDeclarations</title>
<polygon fill="white" stroke="#1e90ff" points="242,-93 111,-93 111,-74 242,-74 242,-93"/>
<text text-anchor="middle" x="176.5" y="-81" font-family="Vera Sans, DejaVu Sans, Liberation Sans, Arial, Helvetica, sans" font-size="10.00">ConcurrentDeclarations</text>
</g>
<!-- ConcurrentDeclarations&#45;&gt;ConcurrentCase -->
<g id="edge4" class="edge">
<title>ConcurrentDeclarations&#45;&gt;ConcurrentCase</title>
<path fill="none" stroke="black" stroke-width="0.5" d="M242.18,-75.11C252.37,-73.79 262.77,-72.44 272.6,-71.17"/>
<polygon fill="black" stroke="black" stroke-width="0.5" points="272.95,-72.89 277.68,-70.51 272.5,-69.41 272.95,-72.89"/>
</g>
<!-- ConcurrentStatements -->
<g id="node6" class="node">
<title>ConcurrentStatements</title>
<polygon fill="white" stroke="#1e90ff" points="239.5,-56 113.5,-56 113.5,-37 239.5,-37 239.5,-56"/>
<text text-anchor="middle" x="176.5" y="-44" font-family="Vera Sans, DejaVu Sans, Liberation Sans, Arial, Helvetica, sans" font-size="10.00">ConcurrentStatements</text>
</g>
<!-- ConcurrentStatements&#45;&gt;ConcurrentCase -->
<g id="edge5" class="edge">
<title>ConcurrentStatements&#45;&gt;ConcurrentCase</title>
<path fill="none" stroke="black" stroke-width="0.5" d="M239.63,-54.13C250.62,-55.48 261.95,-56.88 272.61,-58.19"/>
<polygon fill="black" stroke="black" stroke-width="0.5" points="272.6,-59.95 277.78,-58.82 273.03,-56.47 272.6,-59.95"/>
</g>
<!-- DOMMixin -->
<g id="node7" class="node">
<title>DOMMixin</title>
<g id="a_node7"><a xlink:href="../pyGHDL.dom.html#pyGHDL.dom.DOMMixin" xlink:title="DOMMixin" target="_top">
<polygon fill="white" stroke="#1e90ff" points="359,-111 291,-111 291,-92 359,-92 359,-111"/>
<text text-anchor="middle" x="325" y="-99" font-family="Vera Sans, DejaVu Sans, Liberation Sans, Arial, Helvetica, sans" font-size="10.00">DOMMixin</text>
</a>
</g>
</g>
<!-- DOMMixin&#45;&gt;OthersGenerateCase -->
<g id="edge7" class="edge">
<title>DOMMixin&#45;&gt;OthersGenerateCase</title>
<path fill="none" stroke="black" stroke-width="0.5" d="M359.18,-97C372.25,-95.22 387.73,-93.12 402.78,-91.08"/>
<polygon fill="black" stroke="black" stroke-width="0.5" points="403.14,-92.8 407.86,-90.39 402.67,-89.33 403.14,-92.8"/>
</g>
<!-- OthersGenerateCase&#45;&gt;OthersGenerateCase -->
<g id="edge6" class="edge">
<title>OthersGenerateCase&#45;&gt;OthersGenerateCase</title>
<path fill="none" stroke="black" stroke-width="0.5" d="M445.11,-92.08C434.47,-100.73 441.76,-110 467,-110 488.69,-110 497.13,-103.16 492.31,-95.74"/>
<polygon fill="black" stroke="black" stroke-width="0.5" points="493.58,-94.54 488.89,-92.08 491.03,-96.93 493.58,-94.54"/>
</g>
</g>
</svg>
