<?xml version="1.0" encoding="UTF-8" standalone="no"?>
<!DOCTYPE svg PUBLIC "-//W3C//DTD SVG 1.1//EN"
 "http://www.w3.org/Graphics/SVG/1.1/DTD/svg11.dtd">
<!-- Generated by graphviz version 2.43.0 (0)
 -->
<!-- Title: inheritance61e3cec045 Pages: 1 -->
<svg width="576pt" height="98pt"
 viewBox="0.00 0.00 576.00 97.94" xmlns="http://www.w3.org/2000/svg" xmlns:xlink="http://www.w3.org/1999/xlink">
<g id="graph0" class="graph" transform="scale(1.03 1.03) rotate(0) translate(4 97)">
<title>inheritance61e3cec045</title>
<!-- AnonymousType -->
<g id="node1" class="node">
<title>AnonymousType</title>
<polygon fill="white" stroke="#1e90ff" points="456,-56 359,-56 359,-37 456,-37 456,-56"/>
<text text-anchor="middle" x="407.5" y="-44" font-family="Vera Sans, DejaVu Sans, Liberation Sans, Arial, Helvetica, sans" font-size="10.00">AnonymousType</text>
</g>
<!-- IncompleteType -->
<g id="node8" class="node">
<title>IncompleteType</title>
<g id="a_node8"><a xlink:href="../pyGHDL/pyGHDL.dom.Type.html#pyGHDL.dom.Type.IncompleteType" xlink:title="IncompleteType" target="_top">
<polygon fill="white" stroke="#1e90ff" points="586,-74 492,-74 492,-55 586,-55 586,-74"/>
<text text-anchor="middle" x="539" y="-62" font-family="Vera Sans, DejaVu Sans, Liberation Sans, Arial, Helvetica, sans" font-size="10.00">IncompleteType</text>
</a>
</g>
</g>
<!-- AnonymousType&#45;&gt;IncompleteType -->
<g id="edge5" class="edge">
<title>AnonymousType&#45;&gt;IncompleteType</title>
<path fill="none" stroke="black" stroke-width="0.5" d="M456.35,-53.15C466.17,-54.52 476.54,-55.96 486.48,-57.34"/>
<polygon fill="black" stroke="black" stroke-width="0.5" points="486.44,-59.1 491.64,-58.06 486.92,-55.63 486.44,-59.1"/>
</g>
<!-- Type -->
<g id="node2" class="node">
<title>Type</title>
<polygon fill="white" stroke="#1e90ff" points="323,-56 269,-56 269,-37 323,-37 323,-56"/>
<text text-anchor="middle" x="296" y="-44" font-family="Vera Sans, DejaVu Sans, Liberation Sans, Arial, Helvetica, sans" font-size="10.00">Type</text>
</g>
<!-- Type&#45;&gt;AnonymousType -->
<g id="edge1" class="edge">
<title>Type&#45;&gt;AnonymousType</title>
<path fill="none" stroke="black" stroke-width="0.5" d="M323.23,-46.5C332.36,-46.5 342.97,-46.5 353.49,-46.5"/>
<polygon fill="black" stroke="black" stroke-width="0.5" points="353.64,-48.25 358.64,-46.5 353.64,-44.75 353.64,-48.25"/>
</g>
<!-- BaseType -->
<g id="node3" class="node">
<title>BaseType</title>
<g id="a_node3"><a xlink:title="``BaseType`` is the base&#45;class of all type entities in this model.">
<polygon fill="white" stroke="#1e90ff" points="233,-56 170,-56 170,-37 233,-37 233,-56"/>
<text text-anchor="middle" x="201.5" y="-44" font-family="Vera Sans, DejaVu Sans, Liberation Sans, Arial, Helvetica, sans" font-size="10.00">BaseType</text>
</a>
</g>
</g>
<!-- BaseType&#45;&gt;Type -->
<g id="edge7" class="edge">
<title>BaseType&#45;&gt;Type</title>
<path fill="none" stroke="black" stroke-width="0.5" d="M233.04,-46.5C242.9,-46.5 253.84,-46.5 263.75,-46.5"/>
<polygon fill="black" stroke="black" stroke-width="0.5" points="263.83,-48.25 268.83,-46.5 263.83,-44.75 263.83,-48.25"/>
</g>
<!-- ModelEntity -->
<g id="node4" class="node">
<title>ModelEntity</title>
<g id="a_node4"><a xlink:title="``ModelEntity`` is the base&#45;class for all classes in the VHDL language model, except for mixin classes (see multiple">
<polygon fill="white" stroke="#1e90ff" points="104.5,-93 29.5,-93 29.5,-74 104.5,-74 104.5,-93"/>
<text text-anchor="middle" x="67" y="-81" font-family="Vera Sans, DejaVu Sans, Liberation Sans, Arial, Helvetica, sans" font-size="10.00">ModelEntity</text>
</a>
</g>
</g>
<!-- ModelEntity&#45;&gt;BaseType -->
<g id="edge2" class="edge">
<title>ModelEntity&#45;&gt;BaseType</title>
<path fill="none" stroke="black" stroke-width="0.5" d="M103.3,-73.96C113.24,-71.25 124.05,-68.28 134,-65.5 144.04,-62.7 154.91,-59.61 164.91,-56.76"/>
<polygon fill="black" stroke="black" stroke-width="0.5" points="165.41,-58.43 169.73,-55.37 164.44,-55.07 165.41,-58.43"/>
</g>
<!-- NamedEntityMixin -->
<g id="node5" class="node">
<title>NamedEntityMixin</title>
<g id="a_node5"><a xlink:title="A ``NamedEntityMixin`` is a mixin class for all VHDL entities that have identifiers.">
<polygon fill="white" stroke="#1e90ff" points="120.5,-56 13.5,-56 13.5,-37 120.5,-37 120.5,-56"/>
<text text-anchor="middle" x="67" y="-44" font-family="Vera Sans, DejaVu Sans, Liberation Sans, Arial, Helvetica, sans" font-size="10.00">NamedEntityMixin</text>
</a>
</g>
</g>
<!-- NamedEntityMixin&#45;&gt;BaseType -->
<g id="edge3" class="edge">
<title>NamedEntityMixin&#45;&gt;BaseType</title>
<path fill="none" stroke="black" stroke-width="0.5" d="M120.75,-46.5C135.4,-46.5 150.98,-46.5 164.44,-46.5"/>
<polygon fill="black" stroke="black" stroke-width="0.5" points="164.68,-48.25 169.68,-46.5 164.68,-44.75 164.68,-48.25"/>
</g>
<!-- DocumentedEntityMixin -->
<g id="node6" class="node">
<title>DocumentedEntityMixin</title>
<g id="a_node6"><a xlink:title="A ``DocumentedEntityMixin`` is a mixin class for all VHDL entities that can have an associated documentation.">
<polygon fill="white" stroke="#1e90ff" points="134,-19 0,-19 0,0 134,0 134,-19"/>
<text text-anchor="middle" x="67" y="-7" font-family="Vera Sans, DejaVu Sans, Liberation Sans, Arial, Helvetica, sans" font-size="10.00">DocumentedEntityMixin</text>
</a>
</g>
</g>
<!-- DocumentedEntityMixin&#45;&gt;BaseType -->
<g id="edge4" class="edge">
<title>DocumentedEntityMixin&#45;&gt;BaseType</title>
<path fill="none" stroke="black" stroke-width="0.5" d="M102.12,-19.03C121.35,-24.4 145.34,-31.1 164.82,-36.54"/>
<polygon fill="black" stroke="black" stroke-width="0.5" points="164.38,-38.23 169.66,-37.89 165.32,-34.86 164.38,-38.23"/>
</g>
<!-- DOMMixin -->
<g id="node7" class="node">
<title>DOMMixin</title>
<g id="a_node7"><a xlink:href="../pyGHDL.dom.html#pyGHDL.dom.DOMMixin" xlink:title="DOMMixin" target="_top">
<polygon fill="white" stroke="#1e90ff" points="441.5,-93 373.5,-93 373.5,-74 441.5,-74 441.5,-93"/>
<text text-anchor="middle" x="407.5" y="-81" font-family="Vera Sans, DejaVu Sans, Liberation Sans, Arial, Helvetica, sans" font-size="10.00">DOMMixin</text>
</a>
</g>
</g>
<!-- DOMMixin&#45;&gt;IncompleteType -->
<g id="edge6" class="edge">
<title>DOMMixin&#45;&gt;IncompleteType</title>
<path fill="none" stroke="black" stroke-width="0.5" d="M441.51,-78.66C455.25,-76.64 471.51,-74.25 486.74,-72.02"/>
<polygon fill="black" stroke="black" stroke-width="0.5" points="487.16,-73.73 491.86,-71.27 486.65,-70.26 487.16,-73.73"/>
</g>
</g>
</svg>
