<?xml version="1.0" encoding="UTF-8" standalone="no"?>
<!DOCTYPE svg PUBLIC "-//W3C//DTD SVG 1.1//EN"
 "http://www.w3.org/Graphics/SVG/1.1/DTD/svg11.dtd">
<!-- Generated by graphviz version 2.43.0 (0)
 -->
<!-- Title: inheritance39d81afff0 Pages: 1 -->
<svg width="576pt" height="59pt"
 viewBox="0.00 0.00 576.00 58.60" xmlns="http://www.w3.org/2000/svg" xmlns:xlink="http://www.w3.org/1999/xlink">
<g id="graph0" class="graph" transform="scale(1.4 1.4) rotate(0) translate(4 78)">
<title>inheritance39d81afff0</title>
<!-- Assignment -->
<g id="node1" class="node">
<title>Assignment</title>
<g id="a_node1"><a xlink:title="An ``Assignment`` is a base&#45;class for all assignment statements.">
<polygon fill="white" stroke="#1e90ff" points="220,-74 146,-74 146,-55 220,-55 220,-74"/>
<text text-anchor="middle" x="183" y="-62" font-family="Vera Sans, DejaVu Sans, Liberation Sans, Arial, Helvetica, sans" font-size="10.00">Assignment</text>
</a>
</g>
</g>
<!-- SignalAssignment -->
<g id="node4" class="node">
<title>SignalAssignment</title>
<g id="a_node4"><a xlink:title="An ``SignalAssignment`` is a base&#45;class for all signal assignment statements.">
<polygon fill="white" stroke="#1e90ff" points="368.5,-74 264.5,-74 264.5,-55 368.5,-55 368.5,-74"/>
<text text-anchor="middle" x="316.5" y="-62" font-family="Vera Sans, DejaVu Sans, Liberation Sans, Arial, Helvetica, sans" font-size="10.00">SignalAssignment</text>
</a>
</g>
</g>
<!-- Assignment&#45;&gt;SignalAssignment -->
<g id="edge7" class="edge">
<title>Assignment&#45;&gt;SignalAssignment</title>
<path fill="none" stroke="black" stroke-width="0.5" d="M220.28,-64.5C232.23,-64.5 245.81,-64.5 258.9,-64.5"/>
<polygon fill="black" stroke="black" stroke-width="0.5" points="259.08,-66.25 264.08,-64.5 259.08,-62.75 259.08,-66.25"/>
</g>
<!-- ConcurrentSignalAssignment -->
<g id="node2" class="node">
<title>ConcurrentSignalAssignment</title>
<polygon fill="white" stroke="#1e90ff" points="571,-56 413,-56 413,-37 571,-37 571,-56"/>
<text text-anchor="middle" x="492" y="-44" font-family="Vera Sans, DejaVu Sans, Liberation Sans, Arial, Helvetica, sans" font-size="10.00">ConcurrentSignalAssignment</text>
</g>
<!-- ConcurrentSimpleSignalAssignment -->
<g id="node5" class="node">
<title>ConcurrentSimpleSignalAssignment</title>
<g id="a_node5"><a xlink:href="../pyGHDL/pyGHDL.dom.Concurrent.html#pyGHDL.dom.Concurrent.ConcurrentSimpleSignalAssignment" xlink:title="ConcurrentSimpleSignalAssignment" target="_top">
<polygon fill="white" stroke="#1e90ff" points="798,-37 607,-37 607,-18 798,-18 798,-37"/>
<text text-anchor="middle" x="702.5" y="-25" font-family="Vera Sans, DejaVu Sans, Liberation Sans, Arial, Helvetica, sans" font-size="10.00">ConcurrentSimpleSignalAssignment</text>
</a>
</g>
</g>
<!-- ConcurrentSignalAssignment&#45;&gt;ConcurrentSimpleSignalAssignment -->
<g id="edge5" class="edge">
<title>ConcurrentSignalAssignment&#45;&gt;ConcurrentSimpleSignalAssignment</title>
<path fill="none" stroke="black" stroke-width="0.5" d="M571.23,-39.37C581.16,-38.47 591.43,-37.53 601.64,-36.6"/>
<polygon fill="black" stroke="black" stroke-width="0.5" points="601.82,-38.34 606.64,-36.14 601.51,-34.85 601.82,-38.34"/>
</g>
<!-- ConcurrentStatement -->
<g id="node3" class="node">
<title>ConcurrentStatement</title>
<g id="a_node3"><a xlink:title="A ``ConcurrentStatement`` is a base&#45;class for all concurrent statements.">
<polygon fill="white" stroke="#1e90ff" points="377,-37 256,-37 256,-18 377,-18 377,-37"/>
<text text-anchor="middle" x="316.5" y="-25" font-family="Vera Sans, DejaVu Sans, Liberation Sans, Arial, Helvetica, sans" font-size="10.00">ConcurrentStatement</text>
</a>
</g>
</g>
<!-- ConcurrentStatement&#45;&gt;ConcurrentSignalAssignment -->
<g id="edge1" class="edge">
<title>ConcurrentStatement&#45;&gt;ConcurrentSignalAssignment</title>
<path fill="none" stroke="black" stroke-width="0.5" d="M377.21,-34.04C387.06,-35.12 397.44,-36.25 407.75,-37.38"/>
<polygon fill="black" stroke="black" stroke-width="0.5" points="407.64,-39.13 412.8,-37.94 408.02,-35.65 407.64,-39.13"/>
</g>
<!-- SignalAssignment&#45;&gt;ConcurrentSignalAssignment -->
<g id="edge2" class="edge">
<title>SignalAssignment&#45;&gt;ConcurrentSignalAssignment</title>
<path fill="none" stroke="black" stroke-width="0.5" d="M368.62,-59.2C380.88,-57.92 394.3,-56.53 407.61,-55.15"/>
<polygon fill="black" stroke="black" stroke-width="0.5" points="408.11,-56.86 412.9,-54.6 407.75,-53.38 408.11,-56.86"/>
</g>
<!-- ConcurrentSimpleSignalAssignment&#45;&gt;ConcurrentSimpleSignalAssignment -->
<g id="edge3" class="edge">
<title>ConcurrentSimpleSignalAssignment&#45;&gt;ConcurrentSimpleSignalAssignment</title>
<path fill="none" stroke="black" stroke-width="0.5" d="M670.13,-37.08C654.39,-45.73 665.18,-55 702.5,-55 735.74,-55 747.94,-47.65 739.08,-39.93"/>
<polygon fill="black" stroke="black" stroke-width="0.5" points="739.99,-38.43 734.87,-37.08 738.03,-41.33 739.99,-38.43"/>
</g>
<!-- DOMMixin -->
<g id="node6" class="node">
<title>DOMMixin</title>
<g id="a_node6"><a xlink:href="../pyGHDL.dom.html#pyGHDL.dom.DOMMixin" xlink:title="DOMMixin" target="_top">
<polygon fill="white" stroke="#1e90ff" points="526,-19 458,-19 458,0 526,0 526,-19"/>
<text text-anchor="middle" x="492" y="-7" font-family="Vera Sans, DejaVu Sans, Liberation Sans, Arial, Helvetica, sans" font-size="10.00">DOMMixin</text>
</a>
</g>
</g>
<!-- DOMMixin&#45;&gt;ConcurrentSimpleSignalAssignment -->
<g id="edge4" class="edge">
<title>DOMMixin&#45;&gt;ConcurrentSimpleSignalAssignment</title>
<path fill="none" stroke="black" stroke-width="0.5" d="M526.04,-12.35C546.68,-14.13 574.47,-16.53 601.83,-18.9"/>
<polygon fill="black" stroke="black" stroke-width="0.5" points="601.8,-20.65 606.94,-19.34 602.1,-17.16 601.8,-20.65"/>
</g>
<!-- Statement -->
<g id="node7" class="node">
<title>Statement</title>
<g id="a_node7"><a xlink:title="A ``Statement`` is a base&#45;class for all statements.">
<polygon fill="white" stroke="#1e90ff" points="217,-37 149,-37 149,-18 217,-18 217,-37"/>
<text text-anchor="middle" x="183" y="-25" font-family="Vera Sans, DejaVu Sans, Liberation Sans, Arial, Helvetica, sans" font-size="10.00">Statement</text>
</a>
</g>
</g>
<!-- Statement&#45;&gt;ConcurrentStatement -->
<g id="edge6" class="edge">
<title>Statement&#45;&gt;ConcurrentStatement</title>
<path fill="none" stroke="black" stroke-width="0.5" d="M217.18,-27.5C227.5,-27.5 239.25,-27.5 250.95,-27.5"/>
<polygon fill="black" stroke="black" stroke-width="0.5" points="250.96,-29.25 255.96,-27.5 250.96,-25.75 250.96,-29.25"/>
</g>
<!-- LabeledEntityMixin -->
<g id="node8" class="node">
<title>LabeledEntityMixin</title>
<g id="a_node8"><a xlink:title="A ``LabeledEntityMixin`` is a mixin class for all VHDL entities that can have labels.">
<polygon fill="white" stroke="#1e90ff" points="110,-56 0,-56 0,-37 110,-37 110,-56"/>
<text text-anchor="middle" x="55" y="-44" font-family="Vera Sans, DejaVu Sans, Liberation Sans, Arial, Helvetica, sans" font-size="10.00">LabeledEntityMixin</text>
</a>
</g>
</g>
<!-- LabeledEntityMixin&#45;&gt;Statement -->
<g id="edge9" class="edge">
<title>LabeledEntityMixin&#45;&gt;Statement</title>
<path fill="none" stroke="black" stroke-width="0.5" d="M110.17,-38.33C121.52,-36.62 133.26,-34.85 143.87,-33.25"/>
<polygon fill="black" stroke="black" stroke-width="0.5" points="144.3,-34.95 148.99,-32.48 143.78,-31.49 144.3,-34.95"/>
</g>
<!-- ModelEntity -->
<g id="node9" class="node">
<title>ModelEntity</title>
<g id="a_node9"><a xlink:title="``ModelEntity`` is the base&#45;class for all classes in the VHDL language model, except for mixin classes (see multiple">
<polygon fill="white" stroke="#1e90ff" points="92.5,-19 17.5,-19 17.5,0 92.5,0 92.5,-19"/>
<text text-anchor="middle" x="55" y="-7" font-family="Vera Sans, DejaVu Sans, Liberation Sans, Arial, Helvetica, sans" font-size="10.00">ModelEntity</text>
</a>
</g>
</g>
<!-- ModelEntity&#45;&gt;Statement -->
<g id="edge8" class="edge">
<title>ModelEntity&#45;&gt;Statement</title>
<path fill="none" stroke="black" stroke-width="0.5" d="M92.78,-14.75C108.71,-17.03 127.35,-19.69 143.46,-21.99"/>
<polygon fill="black" stroke="black" stroke-width="0.5" points="143.63,-23.79 148.83,-22.76 144.12,-20.32 143.63,-23.79"/>
</g>
</g>
</svg>
