<?xml version="1.0" encoding="UTF-8" standalone="no"?>
<!DOCTYPE svg PUBLIC "-//W3C//DTD SVG 1.1//EN"
 "http://www.w3.org/Graphics/SVG/1.1/DTD/svg11.dtd">
<!-- Generated by graphviz version 2.43.0 (0)
 -->
<!-- Title: inheritanceaa5664dce5 Pages: 1 -->
<svg width="576pt" height="94pt"
 viewBox="0.00 0.00 576.00 93.53" xmlns="http://www.w3.org/2000/svg" xmlns:xlink="http://www.w3.org/1999/xlink">
<g id="graph0" class="graph" transform="scale(1.08 1.08) rotate(0) translate(4 97)">
<title>inheritanceaa5664dce5</title>
<!-- DOMMixin -->
<g id="node1" class="node">
<title>DOMMixin</title>
<g id="a_node1"><a xlink:href="../pyGHDL.dom.html#pyGHDL.dom.DOMMixin" xlink:title="DOMMixin" target="_top">
<polygon fill="white" stroke="#1e90ff" points="468,-93 400,-93 400,-74 468,-74 468,-93"/>
<text text-anchor="middle" x="434" y="-81" font-family="Vera Sans, DejaVu Sans, Liberation Sans, Arial, Helvetica, sans" font-size="10.00">DOMMixin</text>
</a>
</g>
</g>
<!-- VerificationMode -->
<g id="node8" class="node">
<title>VerificationMode</title>
<g id="a_node8"><a xlink:href="../pyGHDL/pyGHDL.dom.PSL.html#pyGHDL.dom.PSL.VerificationMode" xlink:title="VerificationMode" target="_top">
<polygon fill="white" stroke="#1e90ff" points="614,-74 516,-74 516,-55 614,-55 614,-74"/>
<text text-anchor="middle" x="565" y="-62" font-family="Vera Sans, DejaVu Sans, Liberation Sans, Arial, Helvetica, sans" font-size="10.00">VerificationMode</text>
</a>
</g>
</g>
<!-- DOMMixin&#45;&gt;VerificationMode -->
<g id="edge7" class="edge">
<title>DOMMixin&#45;&gt;VerificationMode</title>
<path fill="none" stroke="black" stroke-width="0.5" d="M468.22,-78.61C481.12,-76.71 496.22,-74.48 510.57,-72.37"/>
<polygon fill="black" stroke="black" stroke-width="0.5" points="511.12,-74.06 515.81,-71.6 510.61,-70.59 511.12,-74.06"/>
</g>
<!-- DesignUnit -->
<g id="node2" class="node">
<title>DesignUnit</title>
<g id="a_node2"><a xlink:title="A ``DesignUnit`` is a base&#45;class for all design units.">
<polygon fill="white" stroke="#1e90ff" points="241,-56 170,-56 170,-37 241,-37 241,-56"/>
<text text-anchor="middle" x="205.5" y="-44" font-family="Vera Sans, DejaVu Sans, Liberation Sans, Arial, Helvetica, sans" font-size="10.00">DesignUnit</text>
</a>
</g>
</g>
<!-- PrimaryUnit -->
<g id="node7" class="node">
<title>PrimaryUnit</title>
<g id="a_node7"><a xlink:title="A ``PrimaryUnit`` is a base&#45;class for all primary units.">
<polygon fill="white" stroke="#1e90ff" points="352,-56 277,-56 277,-37 352,-37 352,-56"/>
<text text-anchor="middle" x="314.5" y="-44" font-family="Vera Sans, DejaVu Sans, Liberation Sans, Arial, Helvetica, sans" font-size="10.00">PrimaryUnit</text>
</a>
</g>
</g>
<!-- DesignUnit&#45;&gt;PrimaryUnit -->
<g id="edge5" class="edge">
<title>DesignUnit&#45;&gt;PrimaryUnit</title>
<path fill="none" stroke="black" stroke-width="0.5" d="M241.24,-46.5C250.91,-46.5 261.51,-46.5 271.54,-46.5"/>
<polygon fill="black" stroke="black" stroke-width="0.5" points="271.72,-48.25 276.72,-46.5 271.72,-44.75 271.72,-48.25"/>
</g>
<!-- ModelEntity -->
<g id="node3" class="node">
<title>ModelEntity</title>
<g id="a_node3"><a xlink:title="``ModelEntity`` is the base&#45;class for all classes in the VHDL language model, except for mixin classes (see multiple">
<polygon fill="white" stroke="#1e90ff" points="104.5,-93 29.5,-93 29.5,-74 104.5,-74 104.5,-93"/>
<text text-anchor="middle" x="67" y="-81" font-family="Vera Sans, DejaVu Sans, Liberation Sans, Arial, Helvetica, sans" font-size="10.00">ModelEntity</text>
</a>
</g>
</g>
<!-- ModelEntity&#45;&gt;DesignUnit -->
<g id="edge1" class="edge">
<title>ModelEntity&#45;&gt;DesignUnit</title>
<path fill="none" stroke="black" stroke-width="0.5" d="M103.15,-73.97C122.09,-68.84 145.5,-62.49 165.06,-57.19"/>
<polygon fill="black" stroke="black" stroke-width="0.5" points="165.57,-58.87 169.94,-55.87 164.66,-55.49 165.57,-58.87"/>
</g>
<!-- NamedEntityMixin -->
<g id="node4" class="node">
<title>NamedEntityMixin</title>
<g id="a_node4"><a xlink:title="A ``NamedEntityMixin`` is a mixin class for all VHDL entities that have identifiers.">
<polygon fill="white" stroke="#1e90ff" points="120.5,-56 13.5,-56 13.5,-37 120.5,-37 120.5,-56"/>
<text text-anchor="middle" x="67" y="-44" font-family="Vera Sans, DejaVu Sans, Liberation Sans, Arial, Helvetica, sans" font-size="10.00">NamedEntityMixin</text>
</a>
</g>
</g>
<!-- NamedEntityMixin&#45;&gt;DesignUnit -->
<g id="edge2" class="edge">
<title>NamedEntityMixin&#45;&gt;DesignUnit</title>
<path fill="none" stroke="black" stroke-width="0.5" d="M120.77,-46.5C135.35,-46.5 150.91,-46.5 164.62,-46.5"/>
<polygon fill="black" stroke="black" stroke-width="0.5" points="164.97,-48.25 169.97,-46.5 164.97,-44.75 164.97,-48.25"/>
</g>
<!-- DocumentedEntityMixin -->
<g id="node5" class="node">
<title>DocumentedEntityMixin</title>
<g id="a_node5"><a xlink:title="A ``DocumentedEntityMixin`` is a mixin class for all VHDL entities that can have an associated documentation.">
<polygon fill="white" stroke="#1e90ff" points="134,-19 0,-19 0,0 134,0 134,-19"/>
<text text-anchor="middle" x="67" y="-7" font-family="Vera Sans, DejaVu Sans, Liberation Sans, Arial, Helvetica, sans" font-size="10.00">DocumentedEntityMixin</text>
</a>
</g>
</g>
<!-- DocumentedEntityMixin&#45;&gt;DesignUnit -->
<g id="edge3" class="edge">
<title>DocumentedEntityMixin&#45;&gt;DesignUnit</title>
<path fill="none" stroke="black" stroke-width="0.5" d="M103.15,-19.03C122.09,-24.16 145.5,-30.51 165.06,-35.81"/>
<polygon fill="black" stroke="black" stroke-width="0.5" points="164.66,-37.51 169.94,-37.13 165.57,-34.13 164.66,-37.51"/>
</g>
<!-- PSLPrimaryUnit -->
<g id="node6" class="node">
<title>PSLPrimaryUnit</title>
<polygon fill="white" stroke="#1e90ff" points="480,-56 388,-56 388,-37 480,-37 480,-56"/>
<text text-anchor="middle" x="434" y="-44" font-family="Vera Sans, DejaVu Sans, Liberation Sans, Arial, Helvetica, sans" font-size="10.00">PSLPrimaryUnit</text>
</g>
<!-- PSLPrimaryUnit&#45;&gt;VerificationMode -->
<g id="edge8" class="edge">
<title>PSLPrimaryUnit&#45;&gt;VerificationMode</title>
<path fill="none" stroke="black" stroke-width="0.5" d="M480.12,-52.8C489.89,-54.16 500.32,-55.61 510.39,-57.02"/>
<polygon fill="black" stroke="black" stroke-width="0.5" points="510.42,-58.79 515.62,-57.75 510.91,-55.32 510.42,-58.79"/>
</g>
<!-- PrimaryUnit&#45;&gt;PSLPrimaryUnit -->
<g id="edge4" class="edge">
<title>PrimaryUnit&#45;&gt;PSLPrimaryUnit</title>
<path fill="none" stroke="black" stroke-width="0.5" d="M352.03,-46.5C361.76,-46.5 372.44,-46.5 382.76,-46.5"/>
<polygon fill="black" stroke="black" stroke-width="0.5" points="382.79,-48.25 387.79,-46.5 382.79,-44.75 382.79,-48.25"/>
</g>
<!-- VerificationMode&#45;&gt;VerificationMode -->
<g id="edge6" class="edge">
<title>VerificationMode&#45;&gt;VerificationMode</title>
<path fill="none" stroke="black" stroke-width="0.5" d="M544.96,-74.08C535.22,-82.73 541.89,-92 565,-92 584.5,-92 592.3,-85.4 588.4,-78.15"/>
<polygon fill="black" stroke="black" stroke-width="0.5" points="589.57,-76.82 585.04,-74.08 586.88,-79.05 589.57,-76.82"/>
</g>
</g>
</svg>
