<?xml version="1.0" encoding="UTF-8" standalone="no"?>
<!DOCTYPE svg PUBLIC "-//W3C//DTD SVG 1.1//EN"
 "http://www.w3.org/Graphics/SVG/1.1/DTD/svg11.dtd">
<!-- Generated by graphviz version 2.43.0 (0)
 -->
<!-- Title: inheritance6db9cdd8fd Pages: 1 -->
<svg width="576pt" height="41pt"
 viewBox="0.00 0.00 576.00 40.87" xmlns="http://www.w3.org/2000/svg" xmlns:xlink="http://www.w3.org/1999/xlink">
<g id="graph0" class="graph" transform="scale(1.57 1.57) rotate(0) translate(4 60)">
<title>inheritance6db9cdd8fd</title>
<!-- BaseExpression -->
<g id="node1" class="node">
<title>BaseExpression</title>
<g id="a_node1"><a xlink:title="A ``BaseExpression`` is a base&#45;class for all expressions.">
<polygon fill="white" stroke="#1e90ff" points="205,-19 111,-19 111,0 205,0 205,-19"/>
<text text-anchor="middle" x="158" y="-7" font-family="Vera Sans, DejaVu Sans, Liberation Sans, Arial, Helvetica, sans" font-size="10.00">BaseExpression</text>
</a>
</g>
</g>
<!-- BinaryExpression -->
<g id="node3" class="node">
<title>BinaryExpression</title>
<g id="a_node3"><a xlink:title="A ``BinaryExpression`` is a base&#45;class for all binary expressions.">
<polygon fill="white" stroke="#1e90ff" points="342,-19 241,-19 241,0 342,0 342,-19"/>
<text text-anchor="middle" x="291.5" y="-7" font-family="Vera Sans, DejaVu Sans, Liberation Sans, Arial, Helvetica, sans" font-size="10.00">BinaryExpression</text>
</a>
</g>
</g>
<!-- BaseExpression&#45;&gt;BinaryExpression -->
<g id="edge2" class="edge">
<title>BaseExpression&#45;&gt;BinaryExpression</title>
<path fill="none" stroke="black" stroke-width="0.5" d="M205.36,-9.5C215.19,-9.5 225.64,-9.5 235.74,-9.5"/>
<polygon fill="black" stroke="black" stroke-width="0.5" points="235.99,-11.25 240.99,-9.5 235.99,-7.75 235.99,-11.25"/>
</g>
<!-- ModelEntity -->
<g id="node2" class="node">
<title>ModelEntity</title>
<g id="a_node2"><a xlink:title="``ModelEntity`` is the base&#45;class for all classes in the VHDL language model, except for mixin classes (see multiple">
<polygon fill="white" stroke="#1e90ff" points="75,-19 0,-19 0,0 75,0 75,-19"/>
<text text-anchor="middle" x="37.5" y="-7" font-family="Vera Sans, DejaVu Sans, Liberation Sans, Arial, Helvetica, sans" font-size="10.00">ModelEntity</text>
</a>
</g>
</g>
<!-- ModelEntity&#45;&gt;BaseExpression -->
<g id="edge1" class="edge">
<title>ModelEntity&#45;&gt;BaseExpression</title>
<path fill="none" stroke="black" stroke-width="0.5" d="M75.02,-9.5C84.72,-9.5 95.38,-9.5 105.71,-9.5"/>
<polygon fill="black" stroke="black" stroke-width="0.5" points="105.75,-11.25 110.75,-9.5 105.75,-7.75 105.75,-11.25"/>
</g>
<!-- RelationalExpression -->
<g id="node7" class="node">
<title>RelationalExpression</title>
<g id="a_node7"><a xlink:title="A ``RelationalExpression`` is a base&#45;class for all shifting expressions.">
<polygon fill="white" stroke="#1e90ff" points="497,-19 378,-19 378,0 497,0 497,-19"/>
<text text-anchor="middle" x="437.5" y="-7" font-family="Vera Sans, DejaVu Sans, Liberation Sans, Arial, Helvetica, sans" font-size="10.00">RelationalExpression</text>
</a>
</g>
</g>
<!-- BinaryExpression&#45;&gt;RelationalExpression -->
<g id="edge7" class="edge">
<title>BinaryExpression&#45;&gt;RelationalExpression</title>
<path fill="none" stroke="black" stroke-width="0.5" d="M342.06,-9.5C351.98,-9.5 362.55,-9.5 372.87,-9.5"/>
<polygon fill="black" stroke="black" stroke-width="0.5" points="372.92,-11.25 377.92,-9.5 372.92,-7.75 372.92,-11.25"/>
</g>
<!-- DOMMixin -->
<g id="node4" class="node">
<title>DOMMixin</title>
<g id="a_node4"><a xlink:href="../pyGHDL.dom.html#pyGHDL.dom.DOMMixin" xlink:title="DOMMixin" target="_top">
<polygon fill="white" stroke="#1e90ff" points="649,-56 581,-56 581,-37 649,-37 649,-56"/>
<text text-anchor="middle" x="615" y="-44" font-family="Vera Sans, DejaVu Sans, Liberation Sans, Arial, Helvetica, sans" font-size="10.00">DOMMixin</text>
</a>
</g>
</g>
<!-- MatchingLessThanExpression -->
<g id="node5" class="node">
<title>MatchingLessThanExpression</title>
<g id="a_node5"><a xlink:href="../pyGHDL/pyGHDL.dom.Expression.html#pyGHDL.dom.Expression.MatchingLessThanExpression" xlink:title="MatchingLessThanExpression" target="_top">
<polygon fill="white" stroke="#1e90ff" points="894,-37 733,-37 733,-18 894,-18 894,-37"/>
<text text-anchor="middle" x="813.5" y="-25" font-family="Vera Sans, DejaVu Sans, Liberation Sans, Arial, Helvetica, sans" font-size="10.00">MatchingLessThanExpression</text>
</a>
</g>
</g>
<!-- DOMMixin&#45;&gt;MatchingLessThanExpression -->
<g id="edge4" class="edge">
<title>DOMMixin&#45;&gt;MatchingLessThanExpression</title>
<path fill="none" stroke="black" stroke-width="0.5" d="M649.33,-43.28C670.88,-41.19 699.96,-38.38 727.6,-35.71"/>
<polygon fill="black" stroke="black" stroke-width="0.5" points="727.94,-37.43 732.75,-35.21 727.6,-33.95 727.94,-37.43"/>
</g>
<!-- MatchingLessThanExpression&#45;&gt;MatchingLessThanExpression -->
<g id="edge3" class="edge">
<title>MatchingLessThanExpression&#45;&gt;MatchingLessThanExpression</title>
<path fill="none" stroke="black" stroke-width="0.5" d="M782.98,-37.08C768.14,-45.73 778.31,-55 813.5,-55 844.29,-55 855.93,-47.91 848.41,-40.34"/>
<polygon fill="black" stroke="black" stroke-width="0.5" points="849.08,-38.65 844.02,-37.08 846.99,-41.46 849.08,-38.65"/>
</g>
<!-- MatchingRelationalExpression -->
<g id="node6" class="node">
<title>MatchingRelationalExpression</title>
<polygon fill="white" stroke="#1e90ff" points="697,-19 533,-19 533,0 697,0 697,-19"/>
<text text-anchor="middle" x="615" y="-7" font-family="Vera Sans, DejaVu Sans, Liberation Sans, Arial, Helvetica, sans" font-size="10.00">MatchingRelationalExpression</text>
</g>
<!-- MatchingRelationalExpression&#45;&gt;MatchingLessThanExpression -->
<g id="edge5" class="edge">
<title>MatchingRelationalExpression&#45;&gt;MatchingLessThanExpression</title>
<path fill="none" stroke="black" stroke-width="0.5" d="M697.06,-16.93C707.23,-17.86 717.66,-18.81 727.89,-19.75"/>
<polygon fill="black" stroke="black" stroke-width="0.5" points="727.76,-21.49 732.89,-20.21 728.08,-18.01 727.76,-21.49"/>
</g>
<!-- RelationalExpression&#45;&gt;MatchingRelationalExpression -->
<g id="edge6" class="edge">
<title>RelationalExpression&#45;&gt;MatchingRelationalExpression</title>
<path fill="none" stroke="black" stroke-width="0.5" d="M497.43,-9.5C507.18,-9.5 517.47,-9.5 527.74,-9.5"/>
<polygon fill="black" stroke="black" stroke-width="0.5" points="527.77,-11.25 532.77,-9.5 527.77,-7.75 527.77,-11.25"/>
</g>
</g>
</svg>
