<?xml version="1.0" encoding="UTF-8" standalone="no"?>
<!DOCTYPE svg PUBLIC "-//W3C//DTD SVG 1.1//EN"
 "http://www.w3.org/Graphics/SVG/1.1/DTD/svg11.dtd">
<!-- Generated by graphviz version 2.43.0 (0)
 -->
<!-- Title: inheritanceca535f21be Pages: 1 -->
<svg width="535pt" height="138pt"
 viewBox="0.00 0.00 535.00 138.00" xmlns="http://www.w3.org/2000/svg" xmlns:xlink="http://www.w3.org/1999/xlink">
<g id="graph0" class="graph" transform="scale(1 1) rotate(0) translate(4 134)">
<title>inheritanceca535f21be</title>
<!-- DOMMixin -->
<g id="node1" class="node">
<title>DOMMixin</title>
<g id="a_node1"><a xlink:href="../pyGHDL.dom.html#pyGHDL.dom.DOMMixin" xlink:title="DOMMixin" target="_top">
<polygon fill="white" stroke="#1e90ff" points="390,-130 322,-130 322,-111 390,-111 390,-130"/>
<text text-anchor="middle" x="356" y="-118" font-family="Vera Sans, DejaVu Sans, Liberation Sans, Arial, Helvetica, sans" font-size="10.00">DOMMixin</text>
</a>
</g>
</g>
<!-- Package -->
<g id="node7" class="node">
<title>Package</title>
<g id="a_node7"><a xlink:href="../pyGHDL/pyGHDL.dom.DesignUnit.html#pyGHDL.dom.DesignUnit.Package" xlink:title="Package" target="_top">
<polygon fill="white" stroke="#1e90ff" points="527,-93 471,-93 471,-74 527,-74 527,-93"/>
<text text-anchor="middle" x="499" y="-81" font-family="Vera Sans, DejaVu Sans, Liberation Sans, Arial, Helvetica, sans" font-size="10.00">Package</text>
</a>
</g>
</g>
<!-- DOMMixin&#45;&gt;Package -->
<g id="edge5" class="edge">
<title>DOMMixin&#45;&gt;Package</title>
<path fill="none" stroke="black" stroke-width="0.5" d="M390.14,-113.36C404.05,-110.23 420.36,-106.39 435,-102.5 445.06,-99.83 455.94,-96.65 465.78,-93.66"/>
<polygon fill="black" stroke="black" stroke-width="0.5" points="466.55,-95.26 470.82,-92.12 465.53,-91.91 466.55,-95.26"/>
</g>
<!-- DesignUnit -->
<g id="node2" class="node">
<title>DesignUnit</title>
<g id="a_node2"><a xlink:title="A ``DesignUnit`` is a base&#45;class for all design units.">
<polygon fill="white" stroke="#1e90ff" points="241,-56 170,-56 170,-37 241,-37 241,-56"/>
<text text-anchor="middle" x="205.5" y="-44" font-family="Vera Sans, DejaVu Sans, Liberation Sans, Arial, Helvetica, sans" font-size="10.00">DesignUnit</text>
</a>
</g>
</g>
<!-- PrimaryUnit -->
<g id="node8" class="node">
<title>PrimaryUnit</title>
<g id="a_node8"><a xlink:title="A ``PrimaryUnit`` is a base&#45;class for all primary units.">
<polygon fill="white" stroke="#1e90ff" points="393.5,-56 318.5,-56 318.5,-37 393.5,-37 393.5,-56"/>
<text text-anchor="middle" x="356" y="-44" font-family="Vera Sans, DejaVu Sans, Liberation Sans, Arial, Helvetica, sans" font-size="10.00">PrimaryUnit</text>
</a>
</g>
</g>
<!-- DesignUnit&#45;&gt;PrimaryUnit -->
<g id="edge8" class="edge">
<title>DesignUnit&#45;&gt;PrimaryUnit</title>
<path fill="none" stroke="black" stroke-width="0.5" d="M241.32,-46.5C262.84,-46.5 290.58,-46.5 313.27,-46.5"/>
<polygon fill="black" stroke="black" stroke-width="0.5" points="313.33,-48.25 318.33,-46.5 313.33,-44.75 313.33,-48.25"/>
</g>
<!-- ModelEntity -->
<g id="node3" class="node">
<title>ModelEntity</title>
<g id="a_node3"><a xlink:title="``ModelEntity`` is the base&#45;class for all classes in the VHDL language model, except for mixin classes (see multiple">
<polygon fill="white" stroke="#1e90ff" points="104.5,-93 29.5,-93 29.5,-74 104.5,-74 104.5,-93"/>
<text text-anchor="middle" x="67" y="-81" font-family="Vera Sans, DejaVu Sans, Liberation Sans, Arial, Helvetica, sans" font-size="10.00">ModelEntity</text>
</a>
</g>
</g>
<!-- ModelEntity&#45;&gt;DesignUnit -->
<g id="edge1" class="edge">
<title>ModelEntity&#45;&gt;DesignUnit</title>
<path fill="none" stroke="black" stroke-width="0.5" d="M103.15,-73.97C122.09,-68.84 145.5,-62.49 165.06,-57.19"/>
<polygon fill="black" stroke="black" stroke-width="0.5" points="165.57,-58.87 169.94,-55.87 164.66,-55.49 165.57,-58.87"/>
</g>
<!-- NamedEntityMixin -->
<g id="node4" class="node">
<title>NamedEntityMixin</title>
<g id="a_node4"><a xlink:title="A ``NamedEntityMixin`` is a mixin class for all VHDL entities that have identifiers.">
<polygon fill="white" stroke="#1e90ff" points="120.5,-56 13.5,-56 13.5,-37 120.5,-37 120.5,-56"/>
<text text-anchor="middle" x="67" y="-44" font-family="Vera Sans, DejaVu Sans, Liberation Sans, Arial, Helvetica, sans" font-size="10.00">NamedEntityMixin</text>
</a>
</g>
</g>
<!-- NamedEntityMixin&#45;&gt;DesignUnit -->
<g id="edge2" class="edge">
<title>NamedEntityMixin&#45;&gt;DesignUnit</title>
<path fill="none" stroke="black" stroke-width="0.5" d="M120.77,-46.5C135.35,-46.5 150.91,-46.5 164.62,-46.5"/>
<polygon fill="black" stroke="black" stroke-width="0.5" points="164.97,-48.25 169.97,-46.5 164.97,-44.75 164.97,-48.25"/>
</g>
<!-- DocumentedEntityMixin -->
<g id="node5" class="node">
<title>DocumentedEntityMixin</title>
<g id="a_node5"><a xlink:title="A ``DocumentedEntityMixin`` is a mixin class for all VHDL entities that can have an associated documentation.">
<polygon fill="white" stroke="#1e90ff" points="134,-19 0,-19 0,0 134,0 134,-19"/>
<text text-anchor="middle" x="67" y="-7" font-family="Vera Sans, DejaVu Sans, Liberation Sans, Arial, Helvetica, sans" font-size="10.00">DocumentedEntityMixin</text>
</a>
</g>
</g>
<!-- DocumentedEntityMixin&#45;&gt;DesignUnit -->
<g id="edge3" class="edge">
<title>DocumentedEntityMixin&#45;&gt;DesignUnit</title>
<path fill="none" stroke="black" stroke-width="0.5" d="M103.15,-19.03C122.09,-24.16 145.5,-30.51 165.06,-35.81"/>
<polygon fill="black" stroke="black" stroke-width="0.5" points="164.66,-37.51 169.94,-37.13 165.57,-34.13 164.66,-37.51"/>
</g>
<!-- DesignUnitWithContextMixin -->
<g id="node6" class="node">
<title>DesignUnitWithContextMixin</title>
<polygon fill="white" stroke="#1e90ff" points="435,-93 277,-93 277,-74 435,-74 435,-93"/>
<text text-anchor="middle" x="356" y="-81" font-family="Vera Sans, DejaVu Sans, Liberation Sans, Arial, Helvetica, sans" font-size="10.00">DesignUnitWithContextMixin</text>
</g>
<!-- DesignUnitWithContextMixin&#45;&gt;Package -->
<g id="edge7" class="edge">
<title>DesignUnitWithContextMixin&#45;&gt;Package</title>
<path fill="none" stroke="black" stroke-width="0.5" d="M435.33,-83.5C446.14,-83.5 456.69,-83.5 465.97,-83.5"/>
<polygon fill="black" stroke="black" stroke-width="0.5" points="465.98,-85.25 470.98,-83.5 465.98,-81.75 465.98,-85.25"/>
</g>
<!-- Package&#45;&gt;Package -->
<g id="edge4" class="edge">
<title>Package&#45;&gt;Package</title>
<path fill="none" stroke="black" stroke-width="0.5" d="M477.11,-93.08C466.47,-101.73 473.76,-111 499,-111 520.69,-111 529.13,-104.16 524.31,-96.74"/>
<polygon fill="black" stroke="black" stroke-width="0.5" points="525.58,-95.54 520.89,-93.08 523.03,-97.93 525.58,-95.54"/>
</g>
<!-- PrimaryUnit&#45;&gt;Package -->
<g id="edge6" class="edge">
<title>PrimaryUnit&#45;&gt;Package</title>
<path fill="none" stroke="black" stroke-width="0.5" d="M393.58,-55.1C406.68,-58.26 421.53,-61.94 435,-65.5 445.02,-68.15 455.89,-71.19 465.73,-74.02"/>
<polygon fill="black" stroke="black" stroke-width="0.5" points="465.49,-75.77 470.78,-75.47 466.46,-72.4 465.49,-75.77"/>
</g>
</g>
</svg>
