<?xml version="1.0" encoding="UTF-8" standalone="no"?>
<!DOCTYPE svg PUBLIC "-//W3C//DTD SVG 1.1//EN"
 "http://www.w3.org/Graphics/SVG/1.1/DTD/svg11.dtd">
<!-- Generated by graphviz version 2.43.0 (0)
 -->
<!-- Title: inheritancee4a784ea0d Pages: 1 -->
<svg width="576pt" height="67pt"
 viewBox="0.00 0.00 576.00 67.38" xmlns="http://www.w3.org/2000/svg" xmlns:xlink="http://www.w3.org/1999/xlink">
<g id="graph0" class="graph" transform="scale(1.22 1.22) rotate(0) translate(4 78)">
<title>inheritancee4a784ea0d</title>
<!-- CaseGenerateStatement -->
<g id="node1" class="node">
<title>CaseGenerateStatement</title>
<g id="a_node1"><a xlink:href="../pyGHDL/pyGHDL.dom.Concurrent.html#pyGHDL.dom.Concurrent.CaseGenerateStatement" xlink:title="CaseGenerateStatement" target="_top">
<polygon fill="white" stroke="#1e90ff" points="693,-55 556,-55 556,-36 693,-36 693,-55"/>
<text text-anchor="middle" x="624.5" y="-43" font-family="Vera Sans, DejaVu Sans, Liberation Sans, Arial, Helvetica, sans" font-size="10.00">CaseGenerateStatement</text>
</a>
</g>
</g>
<!-- CaseGenerateStatement&#45;&gt;CaseGenerateStatement -->
<g id="edge1" class="edge">
<title>CaseGenerateStatement&#45;&gt;CaseGenerateStatement</title>
<path fill="none" stroke="black" stroke-width="0.5" d="M599.84,-55.08C587.84,-63.73 596.06,-73 624.5,-73 648.94,-73 658.45,-66.16 653.02,-58.74"/>
<polygon fill="black" stroke="black" stroke-width="0.5" points="653.99,-57.25 649.16,-55.08 651.59,-59.79 653.99,-57.25"/>
</g>
<!-- DOMMixin -->
<g id="node2" class="node">
<title>DOMMixin</title>
<g id="a_node2"><a xlink:href="../pyGHDL.dom.html#pyGHDL.dom.DOMMixin" xlink:title="DOMMixin" target="_top">
<polygon fill="white" stroke="#1e90ff" points="497.5,-74 429.5,-74 429.5,-55 497.5,-55 497.5,-74"/>
<text text-anchor="middle" x="463.5" y="-62" font-family="Vera Sans, DejaVu Sans, Liberation Sans, Arial, Helvetica, sans" font-size="10.00">DOMMixin</text>
</a>
</g>
</g>
<!-- DOMMixin&#45;&gt;CaseGenerateStatement -->
<g id="edge2" class="edge">
<title>DOMMixin&#45;&gt;CaseGenerateStatement</title>
<path fill="none" stroke="black" stroke-width="0.5" d="M497.83,-60.52C513.23,-58.68 532.17,-56.41 550.62,-54.21"/>
<polygon fill="black" stroke="black" stroke-width="0.5" points="551.05,-55.92 555.81,-53.59 550.64,-52.44 551.05,-55.92"/>
</g>
<!-- GenerateStatement -->
<g id="node3" class="node">
<title>GenerateStatement</title>
<g id="a_node3"><a xlink:title="A ``GenerateStatement`` is a base&#45;class for all generate statements.">
<polygon fill="white" stroke="#1e90ff" points="520,-37 407,-37 407,-18 520,-18 520,-37"/>
<text text-anchor="middle" x="463.5" y="-25" font-family="Vera Sans, DejaVu Sans, Liberation Sans, Arial, Helvetica, sans" font-size="10.00">GenerateStatement</text>
</a>
</g>
</g>
<!-- GenerateStatement&#45;&gt;CaseGenerateStatement -->
<g id="edge3" class="edge">
<title>GenerateStatement&#45;&gt;CaseGenerateStatement</title>
<path fill="none" stroke="black" stroke-width="0.5" d="M520.11,-33.8C530.04,-34.92 540.51,-36.11 550.83,-37.27"/>
<polygon fill="black" stroke="black" stroke-width="0.5" points="550.72,-39.02 555.89,-37.85 551.11,-35.54 550.72,-39.02"/>
</g>
<!-- ConcurrentStatement -->
<g id="node4" class="node">
<title>ConcurrentStatement</title>
<g id="a_node4"><a xlink:title="A ``ConcurrentStatement`` is a base&#45;class for all concurrent statements.">
<polygon fill="white" stroke="#1e90ff" points="371,-37 250,-37 250,-18 371,-18 371,-37"/>
<text text-anchor="middle" x="310.5" y="-25" font-family="Vera Sans, DejaVu Sans, Liberation Sans, Arial, Helvetica, sans" font-size="10.00">ConcurrentStatement</text>
</a>
</g>
</g>
<!-- ConcurrentStatement&#45;&gt;GenerateStatement -->
<g id="edge5" class="edge">
<title>ConcurrentStatement&#45;&gt;GenerateStatement</title>
<path fill="none" stroke="black" stroke-width="0.5" d="M371.18,-27.5C381.15,-27.5 391.5,-27.5 401.5,-27.5"/>
<polygon fill="black" stroke="black" stroke-width="0.5" points="401.7,-29.25 406.7,-27.5 401.7,-25.75 401.7,-29.25"/>
</g>
<!-- Statement -->
<g id="node5" class="node">
<title>Statement</title>
<g id="a_node5"><a xlink:title="A ``Statement`` is a base&#45;class for all statements.">
<polygon fill="white" stroke="#1e90ff" points="214,-37 146,-37 146,-18 214,-18 214,-37"/>
<text text-anchor="middle" x="180" y="-25" font-family="Vera Sans, DejaVu Sans, Liberation Sans, Arial, Helvetica, sans" font-size="10.00">Statement</text>
</a>
</g>
</g>
<!-- Statement&#45;&gt;ConcurrentStatement -->
<g id="edge4" class="edge">
<title>Statement&#45;&gt;ConcurrentStatement</title>
<path fill="none" stroke="black" stroke-width="0.5" d="M214.09,-27.5C223.49,-27.5 234.05,-27.5 244.64,-27.5"/>
<polygon fill="black" stroke="black" stroke-width="0.5" points="244.84,-29.25 249.84,-27.5 244.84,-25.75 244.84,-29.25"/>
</g>
<!-- LabeledEntityMixin -->
<g id="node6" class="node">
<title>LabeledEntityMixin</title>
<g id="a_node6"><a xlink:title="A ``LabeledEntityMixin`` is a mixin class for all VHDL entities that can have labels.">
<polygon fill="white" stroke="#1e90ff" points="110,-56 0,-56 0,-37 110,-37 110,-56"/>
<text text-anchor="middle" x="55" y="-44" font-family="Vera Sans, DejaVu Sans, Liberation Sans, Arial, Helvetica, sans" font-size="10.00">LabeledEntityMixin</text>
</a>
</g>
</g>
<!-- LabeledEntityMixin&#45;&gt;Statement -->
<g id="edge7" class="edge">
<title>LabeledEntityMixin&#45;&gt;Statement</title>
<path fill="none" stroke="black" stroke-width="0.5" d="M110.31,-38.11C120.61,-36.52 131.19,-34.89 140.86,-33.39"/>
<polygon fill="black" stroke="black" stroke-width="0.5" points="141.15,-35.12 145.83,-32.62 140.62,-31.66 141.15,-35.12"/>
</g>
<!-- ModelEntity -->
<g id="node7" class="node">
<title>ModelEntity</title>
<g id="a_node7"><a xlink:title="``ModelEntity`` is the base&#45;class for all classes in the VHDL language model, except for mixin classes (see multiple">
<polygon fill="white" stroke="#1e90ff" points="92.5,-19 17.5,-19 17.5,0 92.5,0 92.5,-19"/>
<text text-anchor="middle" x="55" y="-7" font-family="Vera Sans, DejaVu Sans, Liberation Sans, Arial, Helvetica, sans" font-size="10.00">ModelEntity</text>
</a>
</g>
</g>
<!-- ModelEntity&#45;&gt;Statement -->
<g id="edge6" class="edge">
<title>ModelEntity&#45;&gt;Statement</title>
<path fill="none" stroke="black" stroke-width="0.5" d="M92.57,-14.85C107.71,-17.07 125.28,-19.64 140.61,-21.88"/>
<polygon fill="black" stroke="black" stroke-width="0.5" points="140.51,-23.64 145.72,-22.63 141.02,-20.17 140.51,-23.64"/>
</g>
</g>
</svg>
