<?xml version="1.0" encoding="UTF-8" standalone="no"?>
<!DOCTYPE svg PUBLIC "-//W3C//DTD SVG 1.1//EN"
 "http://www.w3.org/Graphics/SVG/1.1/DTD/svg11.dtd">
<!-- Generated by graphviz version 2.43.0 (0)
 -->
<!-- Title: inheritancefe3b3b54df Pages: 1 -->
<svg width="283pt" height="64pt"
 viewBox="0.00 0.00 283.00 64.00" xmlns="http://www.w3.org/2000/svg" xmlns:xlink="http://www.w3.org/1999/xlink">
<g id="graph0" class="graph" transform="scale(1 1) rotate(0) translate(4 60)">
<title>inheritancefe3b3b54df</title>
<!-- ComponentInstantiationSymbol -->
<g id="node1" class="node">
<title>ComponentInstantiationSymbol</title>
<g id="a_node1"><a xlink:href="../pyGHDL/pyGHDL.dom.Symbol.html#pyGHDL.dom.Symbol.ComponentInstantiationSymbol" xlink:title="A component reference in a component instantiation." target="_top">
<polygon fill="white" stroke="#1e90ff" points="275,-37 104,-37 104,-18 275,-18 275,-37"/>
<text text-anchor="middle" x="189.5" y="-25" font-family="Vera Sans, DejaVu Sans, Liberation Sans, Arial, Helvetica, sans" font-size="10.00">ComponentInstantiationSymbol</text>
</a>
</g>
</g>
<!-- ComponentInstantiationSymbol&#45;&gt;ComponentInstantiationSymbol -->
<g id="edge1" class="edge">
<title>ComponentInstantiationSymbol&#45;&gt;ComponentInstantiationSymbol</title>
<path fill="none" stroke="black" stroke-width="0.5" d="M165.76,-37.08C154.22,-45.73 162.13,-55 189.5,-55 213.02,-55 222.17,-48.16 216.95,-40.74"/>
<polygon fill="black" stroke="black" stroke-width="0.5" points="218.03,-39.34 213.24,-37.08 215.57,-41.84 218.03,-39.34"/>
</g>
<!-- DOMMixin -->
<g id="node2" class="node">
<title>DOMMixin</title>
<g id="a_node2"><a xlink:href="../pyGHDL.dom.html#pyGHDL.dom.DOMMixin" xlink:title="DOMMixin" target="_top">
<polygon fill="white" stroke="#1e90ff" points="68,-56 0,-56 0,-37 68,-37 68,-56"/>
<text text-anchor="middle" x="34" y="-44" font-family="Vera Sans, DejaVu Sans, Liberation Sans, Arial, Helvetica, sans" font-size="10.00">DOMMixin</text>
</a>
</g>
</g>
<!-- DOMMixin&#45;&gt;ComponentInstantiationSymbol -->
<g id="edge2" class="edge">
<title>DOMMixin&#45;&gt;ComponentInstantiationSymbol</title>
<path fill="none" stroke="black" stroke-width="0.5" d="M68.31,-42.38C79.69,-40.97 92.98,-39.32 106.49,-37.65"/>
<polygon fill="black" stroke="black" stroke-width="0.5" points="106.73,-39.39 111.47,-37.03 106.3,-35.91 106.73,-39.39"/>
</g>
<!-- Symbol -->
<g id="node3" class="node">
<title>Symbol</title>
<polygon fill="white" stroke="#1e90ff" points="61,-19 7,-19 7,0 61,0 61,-19"/>
<text text-anchor="middle" x="34" y="-7" font-family="Vera Sans, DejaVu Sans, Liberation Sans, Arial, Helvetica, sans" font-size="10.00">Symbol</text>
</g>
<!-- Symbol&#45;&gt;ComponentInstantiationSymbol -->
<g id="edge3" class="edge">
<title>Symbol&#45;&gt;ComponentInstantiationSymbol</title>
<path fill="none" stroke="black" stroke-width="0.5" d="M61.04,-12.55C72.72,-13.92 87.24,-15.63 102.25,-17.39"/>
<polygon fill="black" stroke="black" stroke-width="0.5" points="102.18,-19.14 107.35,-17.98 102.59,-15.66 102.18,-19.14"/>
</g>
</g>
</svg>
