<?xml version="1.0" encoding="UTF-8" standalone="no"?>
<!DOCTYPE svg PUBLIC "-//W3C//DTD SVG 1.1//EN"
 "http://www.w3.org/Graphics/SVG/1.1/DTD/svg11.dtd">
<!-- Generated by graphviz version 2.43.0 (0)
 -->
<!-- Title: inheritancef7b44a1117 Pages: 1 -->
<svg width="295pt" height="64pt"
 viewBox="0.00 0.00 295.00 64.00" xmlns="http://www.w3.org/2000/svg" xmlns:xlink="http://www.w3.org/1999/xlink">
<g id="graph0" class="graph" transform="scale(1 1) rotate(0) translate(4 60)">
<title>inheritancef7b44a1117</title>
<!-- DOMMixin -->
<g id="node1" class="node">
<title>DOMMixin</title>
<g id="a_node1"><a xlink:href="../pyGHDL.dom.html#pyGHDL.dom.DOMMixin" xlink:title="DOMMixin" target="_top">
<polygon fill="white" stroke="#1e90ff" points="68,-56 0,-56 0,-37 68,-37 68,-56"/>
<text text-anchor="middle" x="34" y="-44" font-family="Vera Sans, DejaVu Sans, Liberation Sans, Arial, Helvetica, sans" font-size="10.00">DOMMixin</text>
</a>
</g>
</g>
<!-- PackageMemberReferenceSymbol -->
<g id="node2" class="node">
<title>PackageMemberReferenceSymbol</title>
<g id="a_node2"><a xlink:href="../pyGHDL/pyGHDL.dom.Symbol.html#pyGHDL.dom.Symbol.PackageMemberReferenceSymbol" xlink:title="A package member reference in a use clause." target="_top">
<polygon fill="white" stroke="#1e90ff" points="287,-37 104,-37 104,-18 287,-18 287,-37"/>
<text text-anchor="middle" x="195.5" y="-25" font-family="Vera Sans, DejaVu Sans, Liberation Sans, Arial, Helvetica, sans" font-size="10.00">PackageMemberReferenceSymbol</text>
</a>
</g>
</g>
<!-- DOMMixin&#45;&gt;PackageMemberReferenceSymbol -->
<g id="edge2" class="edge">
<title>DOMMixin&#45;&gt;PackageMemberReferenceSymbol</title>
<path fill="none" stroke="black" stroke-width="0.5" d="M68.05,-42.56C80.26,-41.11 94.74,-39.38 109.45,-37.63"/>
<polygon fill="black" stroke="black" stroke-width="0.5" points="109.69,-39.37 114.45,-37.04 109.27,-35.89 109.69,-39.37"/>
</g>
<!-- PackageMemberReferenceSymbol&#45;&gt;PackageMemberReferenceSymbol -->
<g id="edge1" class="edge">
<title>PackageMemberReferenceSymbol&#45;&gt;PackageMemberReferenceSymbol</title>
<path fill="none" stroke="black" stroke-width="0.5" d="M170.84,-37.08C158.84,-45.73 167.06,-55 195.5,-55 219.94,-55 229.45,-48.16 224.02,-40.74"/>
<polygon fill="black" stroke="black" stroke-width="0.5" points="224.99,-39.25 220.16,-37.08 222.59,-41.79 224.99,-39.25"/>
</g>
<!-- Symbol -->
<g id="node3" class="node">
<title>Symbol</title>
<polygon fill="white" stroke="#1e90ff" points="61,-19 7,-19 7,0 61,0 61,-19"/>
<text text-anchor="middle" x="34" y="-7" font-family="Vera Sans, DejaVu Sans, Liberation Sans, Arial, Helvetica, sans" font-size="10.00">Symbol</text>
</g>
<!-- Symbol&#45;&gt;PackageMemberReferenceSymbol -->
<g id="edge3" class="edge">
<title>Symbol&#45;&gt;PackageMemberReferenceSymbol</title>
<path fill="none" stroke="black" stroke-width="0.5" d="M61.34,-12.47C73.69,-13.87 89.2,-15.62 105.23,-17.43"/>
<polygon fill="black" stroke="black" stroke-width="0.5" points="105.05,-19.17 110.22,-17.99 105.45,-15.69 105.05,-19.17"/>
</g>
</g>
</svg>
