<?xml version="1.0" encoding="UTF-8" standalone="no"?>
<!DOCTYPE svg PUBLIC "-//W3C//DTD SVG 1.1//EN"
 "http://www.w3.org/Graphics/SVG/1.1/DTD/svg11.dtd">
<!-- Generated by graphviz version 2.43.0 (0)
 -->
<!-- Title: inheritancec09ff09711 Pages: 1 -->
<svg width="194pt" height="64pt"
 viewBox="0.00 0.00 194.00 64.00" xmlns="http://www.w3.org/2000/svg" xmlns:xlink="http://www.w3.org/1999/xlink">
<g id="graph0" class="graph" transform="scale(1 1) rotate(0) translate(4 60)">
<title>inheritancec09ff09711</title>
<!-- DOMMixin -->
<g id="node1" class="node">
<title>DOMMixin</title>
<g id="a_node1"><a xlink:href="../pyGHDL.dom.html#pyGHDL.dom.DOMMixin" xlink:title="DOMMixin" target="_top">
<polygon fill="white" stroke="#1e90ff" points="68,-56 0,-56 0,-37 68,-37 68,-56"/>
<text text-anchor="middle" x="34" y="-44" font-family="Vera Sans, DejaVu Sans, Liberation Sans, Arial, Helvetica, sans" font-size="10.00">DOMMixin</text>
</a>
</g>
</g>
<!-- EntitySymbol -->
<g id="node2" class="node">
<title>EntitySymbol</title>
<g id="a_node2"><a xlink:href="../pyGHDL/pyGHDL.dom.Symbol.html#pyGHDL.dom.Symbol.EntitySymbol" xlink:title="An entity reference in an architecture declaration." target="_top">
<polygon fill="white" stroke="#1e90ff" points="186,-37 104,-37 104,-18 186,-18 186,-37"/>
<text text-anchor="middle" x="145" y="-25" font-family="Vera Sans, DejaVu Sans, Liberation Sans, Arial, Helvetica, sans" font-size="10.00">EntitySymbol</text>
</a>
</g>
</g>
<!-- DOMMixin&#45;&gt;EntitySymbol -->
<g id="edge2" class="edge">
<title>DOMMixin&#45;&gt;EntitySymbol</title>
<path fill="none" stroke="black" stroke-width="0.5" d="M68.3,-40.7C77.87,-39.03 88.48,-37.18 98.66,-35.4"/>
<polygon fill="black" stroke="black" stroke-width="0.5" points="98.99,-37.12 103.61,-34.54 98.38,-33.67 98.99,-37.12"/>
</g>
<!-- EntitySymbol&#45;&gt;EntitySymbol -->
<g id="edge1" class="edge">
<title>EntitySymbol&#45;&gt;EntitySymbol</title>
<path fill="none" stroke="black" stroke-width="0.5" d="M128.05,-37.08C119.8,-45.73 125.45,-55 145,-55 161.19,-55 167.85,-48.65 164.98,-41.55"/>
<polygon fill="black" stroke="black" stroke-width="0.5" points="166.21,-40.24 161.95,-37.08 163.31,-42.2 166.21,-40.24"/>
</g>
<!-- Symbol -->
<g id="node3" class="node">
<title>Symbol</title>
<polygon fill="white" stroke="#1e90ff" points="61,-19 7,-19 7,0 61,0 61,-19"/>
<text text-anchor="middle" x="34" y="-7" font-family="Vera Sans, DejaVu Sans, Liberation Sans, Arial, Helvetica, sans" font-size="10.00">Symbol</text>
</g>
<!-- Symbol&#45;&gt;EntitySymbol -->
<g id="edge3" class="edge">
<title>Symbol&#45;&gt;EntitySymbol</title>
<path fill="none" stroke="black" stroke-width="0.5" d="M61.11,-13.81C72.34,-15.67 85.8,-17.89 98.58,-20"/>
<polygon fill="black" stroke="black" stroke-width="0.5" points="98.41,-21.74 103.63,-20.83 98.98,-18.29 98.41,-21.74"/>
</g>
</g>
</svg>
