<?xml version="1.0" encoding="UTF-8" standalone="no"?>
<!DOCTYPE svg PUBLIC "-//W3C//DTD SVG 1.1//EN"
 "http://www.w3.org/Graphics/SVG/1.1/DTD/svg11.dtd">
<!-- Generated by graphviz version 2.43.0 (0)
 -->
<!-- Title: inheritanceb8bc770ac8 Pages: 1 -->
<svg width="545pt" height="156pt"
 viewBox="0.00 0.00 545.00 156.00" xmlns="http://www.w3.org/2000/svg" xmlns:xlink="http://www.w3.org/1999/xlink">
<g id="graph0" class="graph" transform="scale(1 1) rotate(0) translate(4 152)">
<title>inheritanceb8bc770ac8</title>
<!-- BranchMixin -->
<g id="node1" class="node">
<title>BranchMixin</title>
<g id="a_node1"><a xlink:title="A ``BaseBranch`` is a mixin&#45;class for all statements with branches.">
<polygon fill="white" stroke="#1e90ff" points="88,-148 11,-148 11,-129 88,-129 88,-148"/>
<text text-anchor="middle" x="49.5" y="-136" font-family="Vera Sans, DejaVu Sans, Liberation Sans, Arial, Helvetica, sans" font-size="10.00">BranchMixin</text>
</a>
</g>
</g>
<!-- ConditionalBranchMixin -->
<g id="node4" class="node">
<title>ConditionalBranchMixin</title>
<g id="a_node4"><a xlink:title="A ``BaseBranch`` is a mixin&#45;class for all branch statements with a condition.">
<polygon fill="white" stroke="#1e90ff" points="268,-130 135,-130 135,-111 268,-111 268,-130"/>
<text text-anchor="middle" x="201.5" y="-118" font-family="Vera Sans, DejaVu Sans, Liberation Sans, Arial, Helvetica, sans" font-size="10.00">ConditionalBranchMixin</text>
</a>
</g>
</g>
<!-- BranchMixin&#45;&gt;ConditionalBranchMixin -->
<g id="edge1" class="edge">
<title>BranchMixin&#45;&gt;ConditionalBranchMixin</title>
<path fill="none" stroke="black" stroke-width="0.5" d="M88.35,-133.96C100.95,-132.45 115.42,-130.71 129.69,-129"/>
<polygon fill="black" stroke="black" stroke-width="0.5" points="130.18,-130.7 134.93,-128.37 129.76,-127.23 130.18,-130.7"/>
</g>
<!-- ConcurrentDeclarations -->
<g id="node2" class="node">
<title>ConcurrentDeclarations</title>
<polygon fill="white" stroke="#1e90ff" points="267,-93 136,-93 136,-74 267,-74 267,-93"/>
<text text-anchor="middle" x="201.5" y="-81" font-family="Vera Sans, DejaVu Sans, Liberation Sans, Arial, Helvetica, sans" font-size="10.00">ConcurrentDeclarations</text>
</g>
<!-- GenerateBranch -->
<g id="node6" class="node">
<title>GenerateBranch</title>
<g id="a_node6"><a xlink:title="A ``GenerateBranch`` is a base&#45;class for all branches in a generate statements.">
<polygon fill="white" stroke="#1e90ff" points="399,-74 304,-74 304,-55 399,-55 399,-74"/>
<text text-anchor="middle" x="351.5" y="-62" font-family="Vera Sans, DejaVu Sans, Liberation Sans, Arial, Helvetica, sans" font-size="10.00">GenerateBranch</text>
</a>
</g>
</g>
<!-- ConcurrentDeclarations&#45;&gt;GenerateBranch -->
<g id="edge4" class="edge">
<title>ConcurrentDeclarations&#45;&gt;GenerateBranch</title>
<path fill="none" stroke="black" stroke-width="0.5" d="M267.41,-75.17C277.86,-73.82 288.56,-72.45 298.65,-71.16"/>
<polygon fill="black" stroke="black" stroke-width="0.5" points="299.13,-72.86 303.87,-70.49 298.68,-69.39 299.13,-72.86"/>
</g>
<!-- ConcurrentStatements -->
<g id="node3" class="node">
<title>ConcurrentStatements</title>
<polygon fill="white" stroke="#1e90ff" points="264.5,-56 138.5,-56 138.5,-37 264.5,-37 264.5,-56"/>
<text text-anchor="middle" x="201.5" y="-44" font-family="Vera Sans, DejaVu Sans, Liberation Sans, Arial, Helvetica, sans" font-size="10.00">ConcurrentStatements</text>
</g>
<!-- ConcurrentStatements&#45;&gt;GenerateBranch -->
<g id="edge5" class="edge">
<title>ConcurrentStatements&#45;&gt;GenerateBranch</title>
<path fill="none" stroke="black" stroke-width="0.5" d="M264.84,-54.08C276.21,-55.46 287.96,-56.89 298.97,-58.23"/>
<polygon fill="black" stroke="black" stroke-width="0.5" points="298.8,-59.98 303.98,-58.84 299.23,-56.5 298.8,-59.98"/>
</g>
<!-- IfBranchMixin -->
<g id="node8" class="node">
<title>IfBranchMixin</title>
<g id="a_node8"><a xlink:title="A ``BaseIfBranch`` is a mixin&#45;class for all if&#45;branches.">
<polygon fill="white" stroke="#1e90ff" points="393.5,-120 309.5,-120 309.5,-101 393.5,-101 393.5,-120"/>
<text text-anchor="middle" x="351.5" y="-108" font-family="Vera Sans, DejaVu Sans, Liberation Sans, Arial, Helvetica, sans" font-size="10.00">IfBranchMixin</text>
</a>
</g>
</g>
<!-- ConditionalBranchMixin&#45;&gt;IfBranchMixin -->
<g id="edge6" class="edge">
<title>ConditionalBranchMixin&#45;&gt;IfBranchMixin</title>
<path fill="none" stroke="black" stroke-width="0.5" d="M268.28,-116.06C280.33,-115.24 292.67,-114.41 304.01,-113.64"/>
<polygon fill="black" stroke="black" stroke-width="0.5" points="304.28,-115.38 309.15,-113.29 304.04,-111.89 304.28,-115.38"/>
</g>
<!-- ConditionalMixin -->
<g id="node5" class="node">
<title>ConditionalMixin</title>
<g id="a_node5"><a xlink:title="A ``BaseConditional`` is a mixin&#45;class for all statements with a condition.">
<polygon fill="white" stroke="#1e90ff" points="99,-111 0,-111 0,-92 99,-92 99,-111"/>
<text text-anchor="middle" x="49.5" y="-99" font-family="Vera Sans, DejaVu Sans, Liberation Sans, Arial, Helvetica, sans" font-size="10.00">ConditionalMixin</text>
</a>
</g>
</g>
<!-- ConditionalMixin&#45;&gt;ConditionalBranchMixin -->
<g id="edge2" class="edge">
<title>ConditionalMixin&#45;&gt;ConditionalBranchMixin</title>
<path fill="none" stroke="black" stroke-width="0.5" d="M99.2,-107.67C108.98,-108.91 119.44,-110.23 129.79,-111.54"/>
<polygon fill="black" stroke="black" stroke-width="0.5" points="129.68,-113.29 134.86,-112.19 130.12,-109.82 129.68,-113.29"/>
</g>
<!-- IfGenerateBranch -->
<g id="node9" class="node">
<title>IfGenerateBranch</title>
<g id="a_node9"><a xlink:href="../pyGHDL/pyGHDL.dom.Concurrent.html#pyGHDL.dom.Concurrent.IfGenerateBranch" xlink:title="IfGenerateBranch" target="_top">
<polygon fill="white" stroke="#1e90ff" points="537,-92 435,-92 435,-73 537,-73 537,-92"/>
<text text-anchor="middle" x="486" y="-80" font-family="Vera Sans, DejaVu Sans, Liberation Sans, Arial, Helvetica, sans" font-size="10.00">IfGenerateBranch</text>
</a>
</g>
</g>
<!-- GenerateBranch&#45;&gt;IfGenerateBranch -->
<g id="edge8" class="edge">
<title>GenerateBranch&#45;&gt;IfGenerateBranch</title>
<path fill="none" stroke="black" stroke-width="0.5" d="M399.21,-70.85C408.99,-72.17 419.38,-73.59 429.44,-74.95"/>
<polygon fill="black" stroke="black" stroke-width="0.5" points="429.47,-76.72 434.66,-75.66 429.94,-73.25 429.47,-76.72"/>
</g>
<!-- ModelEntity -->
<g id="node7" class="node">
<title>ModelEntity</title>
<g id="a_node7"><a xlink:title="``ModelEntity`` is the base&#45;class for all classes in the VHDL language model, except for mixin classes (see multiple">
<polygon fill="white" stroke="#1e90ff" points="239,-19 164,-19 164,0 239,0 239,-19"/>
<text text-anchor="middle" x="201.5" y="-7" font-family="Vera Sans, DejaVu Sans, Liberation Sans, Arial, Helvetica, sans" font-size="10.00">ModelEntity</text>
</a>
</g>
</g>
<!-- ModelEntity&#45;&gt;GenerateBranch -->
<g id="edge3" class="edge">
<title>ModelEntity&#45;&gt;GenerateBranch</title>
<path fill="none" stroke="black" stroke-width="0.5" d="M238.46,-19.03C248.13,-21.83 258.54,-25.08 268,-28.5 287.71,-35.63 309.41,-45.17 325.61,-52.64"/>
<polygon fill="black" stroke="black" stroke-width="0.5" points="325.18,-54.37 330.45,-54.88 326.65,-51.19 325.18,-54.37"/>
</g>
<!-- IfBranchMixin&#45;&gt;IfGenerateBranch -->
<g id="edge9" class="edge">
<title>IfBranchMixin&#45;&gt;IfGenerateBranch</title>
<path fill="none" stroke="black" stroke-width="0.5" d="M393.7,-101.79C406.69,-99.05 421.19,-95.99 434.73,-93.12"/>
<polygon fill="black" stroke="black" stroke-width="0.5" points="435.15,-94.82 439.68,-92.08 434.43,-91.4 435.15,-94.82"/>
</g>
<!-- IfGenerateBranch&#45;&gt;IfGenerateBranch -->
<g id="edge7" class="edge">
<title>IfGenerateBranch&#45;&gt;IfGenerateBranch</title>
<path fill="none" stroke="black" stroke-width="0.5" d="M465.35,-92.08C455.3,-100.73 462.18,-110 486,-110 506.1,-110 514.14,-103.4 510.12,-96.15"/>
<polygon fill="black" stroke="black" stroke-width="0.5" points="511.23,-94.75 506.65,-92.08 508.57,-97.02 511.23,-94.75"/>
</g>
</g>
</svg>
