<?xml version="1.0" encoding="UTF-8" standalone="no"?>
<!DOCTYPE svg PUBLIC "-//W3C//DTD SVG 1.1//EN"
 "http://www.w3.org/Graphics/SVG/1.1/DTD/svg11.dtd">
<!-- Generated by graphviz version 2.43.0 (0)
 -->
<!-- Title: inheritance3f7746e5d4 Pages: 1 -->
<svg width="576pt" height="58pt"
 viewBox="0.00 0.00 576.00 58.15" xmlns="http://www.w3.org/2000/svg" xmlns:xlink="http://www.w3.org/1999/xlink">
<g id="graph0" class="graph" transform="scale(1.1 1.1) rotate(0) translate(4 60)">
<title>inheritance3f7746e5d4</title>
<!-- BaseExpression -->
<g id="node1" class="node">
<title>BaseExpression</title>
<g id="a_node1"><a xlink:title="A ``BaseExpression`` is a base&#45;class for all expressions.">
<polygon fill="white" stroke="#1e90ff" points="205,-19 111,-19 111,0 205,0 205,-19"/>
<text text-anchor="middle" x="158" y="-7" font-family="Vera Sans, DejaVu Sans, Liberation Sans, Arial, Helvetica, sans" font-size="10.00">BaseExpression</text>
</a>
</g>
</g>
<!-- UnaryExpression -->
<g id="node6" class="node">
<title>UnaryExpression</title>
<g id="a_node6"><a xlink:title="A ``UnaryExpression`` is a base&#45;class for all unary expressions.">
<polygon fill="white" stroke="#1e90ff" points="340,-19 241,-19 241,0 340,0 340,-19"/>
<text text-anchor="middle" x="290.5" y="-7" font-family="Vera Sans, DejaVu Sans, Liberation Sans, Arial, Helvetica, sans" font-size="10.00">UnaryExpression</text>
</a>
</g>
</g>
<!-- BaseExpression&#45;&gt;UnaryExpression -->
<g id="edge6" class="edge">
<title>BaseExpression&#45;&gt;UnaryExpression</title>
<path fill="none" stroke="black" stroke-width="0.5" d="M205.01,-9.5C214.88,-9.5 225.4,-9.5 235.54,-9.5"/>
<polygon fill="black" stroke="black" stroke-width="0.5" points="235.81,-11.25 240.81,-9.5 235.81,-7.75 235.81,-11.25"/>
</g>
<!-- ModelEntity -->
<g id="node2" class="node">
<title>ModelEntity</title>
<g id="a_node2"><a xlink:title="``ModelEntity`` is the base&#45;class for all classes in the VHDL language model, except for mixin classes (see multiple">
<polygon fill="white" stroke="#1e90ff" points="75,-19 0,-19 0,0 75,0 75,-19"/>
<text text-anchor="middle" x="37.5" y="-7" font-family="Vera Sans, DejaVu Sans, Liberation Sans, Arial, Helvetica, sans" font-size="10.00">ModelEntity</text>
</a>
</g>
</g>
<!-- ModelEntity&#45;&gt;BaseExpression -->
<g id="edge1" class="edge">
<title>ModelEntity&#45;&gt;BaseExpression</title>
<path fill="none" stroke="black" stroke-width="0.5" d="M75.02,-9.5C84.72,-9.5 95.38,-9.5 105.71,-9.5"/>
<polygon fill="black" stroke="black" stroke-width="0.5" points="105.75,-11.25 110.75,-9.5 105.75,-7.75 105.75,-11.25"/>
</g>
<!-- DOMMixin -->
<g id="node3" class="node">
<title>DOMMixin</title>
<g id="a_node3"><a xlink:href="../pyGHDL.dom.html#pyGHDL.dom.DOMMixin" xlink:title="DOMMixin" target="_top">
<polygon fill="white" stroke="#1e90ff" points="454,-56 386,-56 386,-37 454,-37 454,-56"/>
<text text-anchor="middle" x="420" y="-44" font-family="Vera Sans, DejaVu Sans, Liberation Sans, Arial, Helvetica, sans" font-size="10.00">DOMMixin</text>
</a>
</g>
</g>
<!-- ParenthesisExpression -->
<g id="node4" class="node">
<title>ParenthesisExpression</title>
<g id="a_node4"><a xlink:href="../pyGHDL/pyGHDL.dom.Expression.html#pyGHDL.dom.Expression.ParenthesisExpression" xlink:title="ParenthesisExpression" target="_top">
<polygon fill="white" stroke="#1e90ff" points="626,-19 500,-19 500,0 626,0 626,-19"/>
<text text-anchor="middle" x="563" y="-7" font-family="Vera Sans, DejaVu Sans, Liberation Sans, Arial, Helvetica, sans" font-size="10.00">ParenthesisExpression</text>
</a>
</g>
</g>
<!-- DOMMixin&#45;&gt;ParenthesisExpression -->
<g id="edge3" class="edge">
<title>DOMMixin&#45;&gt;ParenthesisExpression</title>
<path fill="none" stroke="black" stroke-width="0.5" d="M454.06,-37.83C473.95,-32.6 499.45,-25.91 520.67,-20.35"/>
<polygon fill="black" stroke="black" stroke-width="0.5" points="521.29,-21.99 525.68,-19.03 520.4,-18.61 521.29,-21.99"/>
</g>
<!-- SubExpression -->
<g id="node5" class="node">
<title>SubExpression</title>
<polygon fill="white" stroke="#1e90ff" points="464,-19 376,-19 376,0 464,0 464,-19"/>
<text text-anchor="middle" x="420" y="-7" font-family="Vera Sans, DejaVu Sans, Liberation Sans, Arial, Helvetica, sans" font-size="10.00">SubExpression</text>
</g>
<!-- ParenthesisExpression&#45;&gt;SubExpression -->
<g id="edge5" class="edge">
<title>ParenthesisExpression&#45;&gt;SubExpression</title>
<path fill="none" stroke="black" stroke-width="0.5" d="M499.99,-16.21C489.67,-16.31 479.1,-16.22 469.19,-15.94"/>
<polygon fill="black" stroke="black" stroke-width="0.5" points="469.13,-14.19 464.07,-15.77 469.01,-17.69 469.13,-14.19"/>
</g>
<!-- SubExpression&#45;&gt;ParenthesisExpression -->
<g id="edge2" class="edge">
<title>SubExpression&#45;&gt;ParenthesisExpression</title>
<path fill="none" stroke="black" stroke-width="0.5" d="M464.07,-3.23C473.81,-2.87 484.39,-2.71 494.86,-2.76"/>
<polygon fill="black" stroke="black" stroke-width="0.5" points="494.98,-4.51 499.99,-2.79 495,-1.01 494.98,-4.51"/>
</g>
<!-- UnaryExpression&#45;&gt;SubExpression -->
<g id="edge4" class="edge">
<title>UnaryExpression&#45;&gt;SubExpression</title>
<path fill="none" stroke="black" stroke-width="0.5" d="M340.07,-9.5C350.13,-9.5 360.74,-9.5 370.79,-9.5"/>
<polygon fill="black" stroke="black" stroke-width="0.5" points="371,-11.25 376,-9.5 371,-7.75 371,-11.25"/>
</g>
</g>
</svg>
