<?xml version="1.0" encoding="UTF-8" standalone="no"?>
<!DOCTYPE svg PUBLIC "-//W3C//DTD SVG 1.1//EN"
 "http://www.w3.org/Graphics/SVG/1.1/DTD/svg11.dtd">
<!-- Generated by graphviz version 2.43.0 (0)
 -->
<!-- Title: inheritanced23f4eb606 Pages: 1 -->
<svg width="576pt" height="70pt"
 viewBox="0.00 0.00 576.00 70.29" xmlns="http://www.w3.org/2000/svg" xmlns:xlink="http://www.w3.org/1999/xlink">
<g id="graph0" class="graph" transform="scale(1.17 1.17) rotate(0) translate(4 78)">
<title>inheritanced23f4eb606</title>
<!-- ConcurrentStatement -->
<g id="node1" class="node">
<title>ConcurrentStatement</title>
<g id="a_node1"><a xlink:title="A ``ConcurrentStatement`` is a base&#45;class for all concurrent statements.">
<polygon fill="white" stroke="#1e90ff" points="371,-37 250,-37 250,-18 371,-18 371,-37"/>
<text text-anchor="middle" x="310.5" y="-25" font-family="Vera Sans, DejaVu Sans, Liberation Sans, Arial, Helvetica, sans" font-size="10.00">ConcurrentStatement</text>
</a>
</g>
</g>
<!-- Instantiation -->
<g id="node5" class="node">
<title>Instantiation</title>
<polygon fill="white" stroke="#1e90ff" points="485,-37 407,-37 407,-18 485,-18 485,-37"/>
<text text-anchor="middle" x="446" y="-25" font-family="Vera Sans, DejaVu Sans, Liberation Sans, Arial, Helvetica, sans" font-size="10.00">Instantiation</text>
</g>
<!-- ConcurrentStatement&#45;&gt;Instantiation -->
<g id="edge5" class="edge">
<title>ConcurrentStatement&#45;&gt;Instantiation</title>
<path fill="none" stroke="black" stroke-width="0.5" d="M371.22,-27.5C381.51,-27.5 392.02,-27.5 401.77,-27.5"/>
<polygon fill="black" stroke="black" stroke-width="0.5" points="401.79,-29.25 406.79,-27.5 401.79,-25.75 401.79,-29.25"/>
</g>
<!-- Statement -->
<g id="node2" class="node">
<title>Statement</title>
<g id="a_node2"><a xlink:title="A ``Statement`` is a base&#45;class for all statements.">
<polygon fill="white" stroke="#1e90ff" points="214,-37 146,-37 146,-18 214,-18 214,-37"/>
<text text-anchor="middle" x="180" y="-25" font-family="Vera Sans, DejaVu Sans, Liberation Sans, Arial, Helvetica, sans" font-size="10.00">Statement</text>
</a>
</g>
</g>
<!-- Statement&#45;&gt;ConcurrentStatement -->
<g id="edge1" class="edge">
<title>Statement&#45;&gt;ConcurrentStatement</title>
<path fill="none" stroke="black" stroke-width="0.5" d="M214.09,-27.5C223.49,-27.5 234.05,-27.5 244.64,-27.5"/>
<polygon fill="black" stroke="black" stroke-width="0.5" points="244.84,-29.25 249.84,-27.5 244.84,-25.75 244.84,-29.25"/>
</g>
<!-- ConfigurationInstantiation -->
<g id="node3" class="node">
<title>ConfigurationInstantiation</title>
<g id="a_node3"><a xlink:href="../pyGHDL/pyGHDL.dom.Concurrent.html#pyGHDL.dom.Concurrent.ConfigurationInstantiation" xlink:title="ConfigurationInstantiation" target="_top">
<polygon fill="white" stroke="#1e90ff" points="664,-55 521,-55 521,-36 664,-36 664,-55"/>
<text text-anchor="middle" x="592.5" y="-43" font-family="Vera Sans, DejaVu Sans, Liberation Sans, Arial, Helvetica, sans" font-size="10.00">ConfigurationInstantiation</text>
</a>
</g>
</g>
<!-- ConfigurationInstantiation&#45;&gt;ConfigurationInstantiation -->
<g id="edge2" class="edge">
<title>ConfigurationInstantiation&#45;&gt;ConfigurationInstantiation</title>
<path fill="none" stroke="black" stroke-width="0.5" d="M570,-55.08C559.05,-63.73 566.55,-73 592.5,-73 614.8,-73 623.48,-66.16 618.53,-58.74"/>
<polygon fill="black" stroke="black" stroke-width="0.5" points="619.73,-57.47 615,-55.08 617.21,-59.9 619.73,-57.47"/>
</g>
<!-- DOMMixin -->
<g id="node4" class="node">
<title>DOMMixin</title>
<g id="a_node4"><a xlink:href="../pyGHDL.dom.html#pyGHDL.dom.DOMMixin" xlink:title="DOMMixin" target="_top">
<polygon fill="white" stroke="#1e90ff" points="480,-74 412,-74 412,-55 480,-55 480,-74"/>
<text text-anchor="middle" x="446" y="-62" font-family="Vera Sans, DejaVu Sans, Liberation Sans, Arial, Helvetica, sans" font-size="10.00">DOMMixin</text>
</a>
</g>
</g>
<!-- DOMMixin&#45;&gt;ConfigurationInstantiation -->
<g id="edge3" class="edge">
<title>DOMMixin&#45;&gt;ConfigurationInstantiation</title>
<path fill="none" stroke="black" stroke-width="0.5" d="M480.15,-60.14C490.89,-58.73 503.28,-57.1 515.81,-55.45"/>
<polygon fill="black" stroke="black" stroke-width="0.5" points="516.07,-57.18 520.8,-54.8 515.61,-53.71 516.07,-57.18"/>
</g>
<!-- Instantiation&#45;&gt;ConfigurationInstantiation -->
<g id="edge4" class="edge">
<title>Instantiation&#45;&gt;ConfigurationInstantiation</title>
<path fill="none" stroke="black" stroke-width="0.5" d="M485.34,-32.28C494.76,-33.45 505.16,-34.75 515.67,-36.05"/>
<polygon fill="black" stroke="black" stroke-width="0.5" points="515.65,-37.82 520.83,-36.7 516.09,-34.34 515.65,-37.82"/>
</g>
<!-- LabeledEntityMixin -->
<g id="node6" class="node">
<title>LabeledEntityMixin</title>
<g id="a_node6"><a xlink:title="A ``LabeledEntityMixin`` is a mixin class for all VHDL entities that can have labels.">
<polygon fill="white" stroke="#1e90ff" points="110,-56 0,-56 0,-37 110,-37 110,-56"/>
<text text-anchor="middle" x="55" y="-44" font-family="Vera Sans, DejaVu Sans, Liberation Sans, Arial, Helvetica, sans" font-size="10.00">LabeledEntityMixin</text>
</a>
</g>
</g>
<!-- LabeledEntityMixin&#45;&gt;Statement -->
<g id="edge7" class="edge">
<title>LabeledEntityMixin&#45;&gt;Statement</title>
<path fill="none" stroke="black" stroke-width="0.5" d="M110.31,-38.11C120.61,-36.52 131.19,-34.89 140.86,-33.39"/>
<polygon fill="black" stroke="black" stroke-width="0.5" points="141.15,-35.12 145.83,-32.62 140.62,-31.66 141.15,-35.12"/>
</g>
<!-- ModelEntity -->
<g id="node7" class="node">
<title>ModelEntity</title>
<g id="a_node7"><a xlink:title="``ModelEntity`` is the base&#45;class for all classes in the VHDL language model, except for mixin classes (see multiple">
<polygon fill="white" stroke="#1e90ff" points="92.5,-19 17.5,-19 17.5,0 92.5,0 92.5,-19"/>
<text text-anchor="middle" x="55" y="-7" font-family="Vera Sans, DejaVu Sans, Liberation Sans, Arial, Helvetica, sans" font-size="10.00">ModelEntity</text>
</a>
</g>
</g>
<!-- ModelEntity&#45;&gt;Statement -->
<g id="edge6" class="edge">
<title>ModelEntity&#45;&gt;Statement</title>
<path fill="none" stroke="black" stroke-width="0.5" d="M92.57,-14.85C107.71,-17.07 125.28,-19.64 140.61,-21.88"/>
<polygon fill="black" stroke="black" stroke-width="0.5" points="140.51,-23.64 145.72,-22.63 141.02,-20.17 140.51,-23.64"/>
</g>
</g>
</svg>
