<?xml version="1.0" encoding="UTF-8" standalone="no"?>
<!DOCTYPE svg PUBLIC "-//W3C//DTD SVG 1.1//EN"
 "http://www.w3.org/Graphics/SVG/1.1/DTD/svg11.dtd">
<!-- Generated by graphviz version 2.43.0 (0)
 -->
<!-- Title: inheritance11ec8a2b36 Pages: 1 -->
<svg width="481pt" height="82pt"
 viewBox="0.00 0.00 481.00 82.00" xmlns="http://www.w3.org/2000/svg" xmlns:xlink="http://www.w3.org/1999/xlink">
<g id="graph0" class="graph" transform="scale(1 1) rotate(0) translate(4 78)">
<title>inheritance11ec8a2b36</title>
<!-- BaseCase -->
<g id="node1" class="node">
<title>BaseCase</title>
<g id="a_node1"><a xlink:title="A ``Case`` is a base&#45;class for all cases.">
<polygon fill="white" stroke="#1e90ff" points="206,-19 141,-19 141,0 206,0 206,-19"/>
<text text-anchor="middle" x="173.5" y="-7" font-family="Vera Sans, DejaVu Sans, Liberation Sans, Arial, Helvetica, sans" font-size="10.00">BaseCase</text>
</a>
</g>
</g>
<!-- SequentialCase -->
<g id="node5" class="node">
<title>SequentialCase</title>
<polygon fill="white" stroke="#1e90ff" points="364,-37 272,-37 272,-18 364,-18 364,-37"/>
<text text-anchor="middle" x="318" y="-25" font-family="Vera Sans, DejaVu Sans, Liberation Sans, Arial, Helvetica, sans" font-size="10.00">SequentialCase</text>
</g>
<!-- BaseCase&#45;&gt;SequentialCase -->
<g id="edge5" class="edge">
<title>BaseCase&#45;&gt;SequentialCase</title>
<path fill="none" stroke="black" stroke-width="0.5" d="M206.13,-13.49C223.96,-15.75 246.66,-18.62 266.87,-21.17"/>
<polygon fill="black" stroke="black" stroke-width="0.5" points="266.77,-22.92 271.95,-21.81 267.21,-19.45 266.77,-22.92"/>
</g>
<!-- ModelEntity -->
<g id="node2" class="node">
<title>ModelEntity</title>
<g id="a_node2"><a xlink:title="``ModelEntity`` is the base&#45;class for all classes in the VHDL language model, except for mixin classes (see multiple">
<polygon fill="white" stroke="#1e90ff" points="75,-19 0,-19 0,0 75,0 75,-19"/>
<text text-anchor="middle" x="37.5" y="-7" font-family="Vera Sans, DejaVu Sans, Liberation Sans, Arial, Helvetica, sans" font-size="10.00">ModelEntity</text>
</a>
</g>
</g>
<!-- ModelEntity&#45;&gt;BaseCase -->
<g id="edge1" class="edge">
<title>ModelEntity&#45;&gt;BaseCase</title>
<path fill="none" stroke="black" stroke-width="0.5" d="M75.12,-9.5C93.96,-9.5 116.87,-9.5 135.73,-9.5"/>
<polygon fill="black" stroke="black" stroke-width="0.5" points="135.93,-11.25 140.93,-9.5 135.93,-7.75 135.93,-11.25"/>
</g>
<!-- DOMMixin -->
<g id="node3" class="node">
<title>DOMMixin</title>
<g id="a_node3"><a xlink:href="../pyGHDL.dom.html#pyGHDL.dom.DOMMixin" xlink:title="DOMMixin" target="_top">
<polygon fill="white" stroke="#1e90ff" points="352,-74 284,-74 284,-55 352,-55 352,-74"/>
<text text-anchor="middle" x="318" y="-62" font-family="Vera Sans, DejaVu Sans, Liberation Sans, Arial, Helvetica, sans" font-size="10.00">DOMMixin</text>
</a>
</g>
</g>
<!-- OthersCase -->
<g id="node4" class="node">
<title>OthersCase</title>
<g id="a_node4"><a xlink:href="../pyGHDL/pyGHDL.dom.Sequential.html#pyGHDL.dom.Sequential.OthersCase" xlink:title="OthersCase" target="_top">
<polygon fill="white" stroke="#1e90ff" points="473,-55 400,-55 400,-36 473,-36 473,-55"/>
<text text-anchor="middle" x="436.5" y="-43" font-family="Vera Sans, DejaVu Sans, Liberation Sans, Arial, Helvetica, sans" font-size="10.00">OthersCase</text>
</a>
</g>
</g>
<!-- DOMMixin&#45;&gt;OthersCase -->
<g id="edge3" class="edge">
<title>DOMMixin&#45;&gt;OthersCase</title>
<path fill="none" stroke="black" stroke-width="0.5" d="M352.07,-59.11C365.37,-56.94 380.84,-54.41 394.82,-52.13"/>
<polygon fill="black" stroke="black" stroke-width="0.5" points="395.25,-53.84 399.9,-51.31 394.68,-50.38 395.25,-53.84"/>
</g>
<!-- OthersCase&#45;&gt;OthersCase -->
<g id="edge2" class="edge">
<title>OthersCase&#45;&gt;OthersCase</title>
<path fill="none" stroke="black" stroke-width="0.5" d="M418.31,-55.08C409.46,-63.73 415.53,-73 436.5,-73 454.2,-73 461.28,-66.4 457.74,-59.15"/>
<polygon fill="black" stroke="black" stroke-width="0.5" points="459.09,-58.03 454.69,-55.08 456.29,-60.13 459.09,-58.03"/>
</g>
<!-- SequentialCase&#45;&gt;OthersCase -->
<g id="edge4" class="edge">
<title>SequentialCase&#45;&gt;OthersCase</title>
<path fill="none" stroke="black" stroke-width="0.5" d="M364.04,-34.46C374.18,-36.03 384.89,-37.68 394.84,-39.22"/>
<polygon fill="black" stroke="black" stroke-width="0.5" points="394.76,-40.98 399.97,-40.01 395.29,-37.52 394.76,-40.98"/>
</g>
<!-- SequentialStatements -->
<g id="node6" class="node">
<title>SequentialStatements</title>
<polygon fill="white" stroke="#1e90ff" points="236,-56 111,-56 111,-37 236,-37 236,-56"/>
<text text-anchor="middle" x="173.5" y="-44" font-family="Vera Sans, DejaVu Sans, Liberation Sans, Arial, Helvetica, sans" font-size="10.00">SequentialStatements</text>
</g>
<!-- SequentialStatements&#45;&gt;SequentialCase -->
<g id="edge6" class="edge">
<title>SequentialStatements&#45;&gt;SequentialCase</title>
<path fill="none" stroke="black" stroke-width="0.5" d="M236.17,-38.28C246.42,-36.91 256.94,-35.51 266.86,-34.19"/>
<polygon fill="black" stroke="black" stroke-width="0.5" points="267.26,-35.9 271.99,-33.5 266.8,-32.43 267.26,-35.9"/>
</g>
</g>
</svg>
