<?xml version="1.0" encoding="UTF-8" standalone="no"?>
<!DOCTYPE svg PUBLIC "-//W3C//DTD SVG 1.1//EN"
 "http://www.w3.org/Graphics/SVG/1.1/DTD/svg11.dtd">
<!-- Generated by graphviz version 2.43.0 (0)
 -->
<!-- Title: inheritance2919bf919a Pages: 1 -->
<svg width="392pt" height="64pt"
 viewBox="0.00 0.00 392.00 64.00" xmlns="http://www.w3.org/2000/svg" xmlns:xlink="http://www.w3.org/1999/xlink">
<g id="graph0" class="graph" transform="scale(1 1) rotate(0) translate(4 60)">
<title>inheritance2919bf919a</title>
<!-- AllName -->
<g id="node1" class="node">
<title>AllName</title>
<g id="a_node1"><a xlink:href="../pyGHDL/pyGHDL.dom.Names.html#pyGHDL.dom.Names.AllName" xlink:title="The *all name* represents the reserved word ``all`` used in names." target="_top">
<polygon fill="white" stroke="#1e90ff" points="384,-37 325,-37 325,-18 384,-18 384,-37"/>
<text text-anchor="middle" x="354.5" y="-25" font-family="Vera Sans, DejaVu Sans, Liberation Sans, Arial, Helvetica, sans" font-size="10.00">AllName</text>
</a>
</g>
</g>
<!-- AllName&#45;&gt;AllName -->
<g id="edge1" class="edge">
<title>AllName&#45;&gt;AllName</title>
<path fill="none" stroke="black" stroke-width="0.5" d="M337.85,-37.08C329.76,-45.73 335.3,-55 354.5,-55 370.4,-55 376.93,-48.65 374.11,-41.55"/>
<polygon fill="black" stroke="black" stroke-width="0.5" points="375.37,-40.28 371.15,-37.08 372.45,-42.22 375.37,-40.28"/>
</g>
<!-- DOMMixin -->
<g id="node2" class="node">
<title>DOMMixin</title>
<g id="a_node2"><a xlink:href="../pyGHDL.dom.html#pyGHDL.dom.DOMMixin" xlink:title="DOMMixin" target="_top">
<polygon fill="white" stroke="#1e90ff" points="279,-56 211,-56 211,-37 279,-37 279,-56"/>
<text text-anchor="middle" x="245" y="-44" font-family="Vera Sans, DejaVu Sans, Liberation Sans, Arial, Helvetica, sans" font-size="10.00">DOMMixin</text>
</a>
</g>
</g>
<!-- DOMMixin&#45;&gt;AllName -->
<g id="edge2" class="edge">
<title>DOMMixin&#45;&gt;AllName</title>
<path fill="none" stroke="black" stroke-width="0.5" d="M279.13,-40.64C291.98,-38.37 306.69,-35.77 319.61,-33.49"/>
<polygon fill="black" stroke="black" stroke-width="0.5" points="320.04,-35.19 324.66,-32.6 319.43,-31.74 320.04,-35.19"/>
</g>
<!-- SelectedName -->
<g id="node3" class="node">
<title>SelectedName</title>
<g id="a_node3"><a xlink:title="A *selected name* is a name made from multiple words separated by a dot (``.``).">
<polygon fill="white" stroke="#1e90ff" points="289,-19 201,-19 201,0 289,0 289,-19"/>
<text text-anchor="middle" x="245" y="-7" font-family="Vera Sans, DejaVu Sans, Liberation Sans, Arial, Helvetica, sans" font-size="10.00">SelectedName</text>
</a>
</g>
</g>
<!-- SelectedName&#45;&gt;AllName -->
<g id="edge3" class="edge">
<title>SelectedName&#45;&gt;AllName</title>
<path fill="none" stroke="black" stroke-width="0.5" d="M289.1,-16.72C299.35,-18.43 310.14,-20.24 319.89,-21.87"/>
<polygon fill="black" stroke="black" stroke-width="0.5" points="319.66,-23.61 324.88,-22.71 320.24,-20.16 319.66,-23.61"/>
</g>
<!-- ModelEntity -->
<g id="node4" class="node">
<title>ModelEntity</title>
<g id="a_node4"><a xlink:title="``ModelEntity`` is the base&#45;class for all classes in the VHDL language model, except for mixin classes (see multiple">
<polygon fill="white" stroke="#1e90ff" points="75,-19 0,-19 0,0 75,0 75,-19"/>
<text text-anchor="middle" x="37.5" y="-7" font-family="Vera Sans, DejaVu Sans, Liberation Sans, Arial, Helvetica, sans" font-size="10.00">ModelEntity</text>
</a>
</g>
</g>
<!-- Name -->
<g id="node5" class="node">
<title>Name</title>
<g id="a_node5"><a xlink:title="``Name`` is the base&#45;class for all *names* in the VHDL language model.">
<polygon fill="white" stroke="#1e90ff" points="165,-19 111,-19 111,0 165,0 165,-19"/>
<text text-anchor="middle" x="138" y="-7" font-family="Vera Sans, DejaVu Sans, Liberation Sans, Arial, Helvetica, sans" font-size="10.00">Name</text>
</a>
</g>
</g>
<!-- ModelEntity&#45;&gt;Name -->
<g id="edge4" class="edge">
<title>ModelEntity&#45;&gt;Name</title>
<path fill="none" stroke="black" stroke-width="0.5" d="M75.18,-9.5C85.15,-9.5 95.85,-9.5 105.51,-9.5"/>
<polygon fill="black" stroke="black" stroke-width="0.5" points="105.75,-11.25 110.75,-9.5 105.75,-7.75 105.75,-11.25"/>
</g>
<!-- Name&#45;&gt;SelectedName -->
<g id="edge5" class="edge">
<title>Name&#45;&gt;SelectedName</title>
<path fill="none" stroke="black" stroke-width="0.5" d="M165.23,-9.5C174.52,-9.5 185.29,-9.5 195.83,-9.5"/>
<polygon fill="black" stroke="black" stroke-width="0.5" points="195.97,-11.25 200.97,-9.5 195.97,-7.75 195.97,-11.25"/>
</g>
</g>
</svg>
