<?xml version="1.0" encoding="UTF-8" standalone="no"?>
<!DOCTYPE svg PUBLIC "-//W3C//DTD SVG 1.1//EN"
 "http://www.w3.org/Graphics/SVG/1.1/DTD/svg11.dtd">
<!-- Generated by graphviz version 2.43.0 (0)
 -->
<!-- Title: inheritancee2073c03f5 Pages: 1 -->
<svg width="253pt" height="64pt"
 viewBox="0.00 0.00 253.00 64.00" xmlns="http://www.w3.org/2000/svg" xmlns:xlink="http://www.w3.org/1999/xlink">
<g id="graph0" class="graph" transform="scale(1 1) rotate(0) translate(4 60)">
<title>inheritancee2073c03f5</title>
<!-- ContextReferenceSymbol -->
<g id="node1" class="node">
<title>ContextReferenceSymbol</title>
<g id="a_node1"><a xlink:href="../pyGHDL/pyGHDL.dom.Symbol.html#pyGHDL.dom.Symbol.ContextReferenceSymbol" xlink:title="A context reference in a context clause." target="_top">
<polygon fill="white" stroke="#1e90ff" points="245,-37 104,-37 104,-18 245,-18 245,-37"/>
<text text-anchor="middle" x="174.5" y="-25" font-family="Vera Sans, DejaVu Sans, Liberation Sans, Arial, Helvetica, sans" font-size="10.00">ContextReferenceSymbol</text>
</a>
</g>
</g>
<!-- ContextReferenceSymbol&#45;&gt;ContextReferenceSymbol -->
<g id="edge1" class="edge">
<title>ContextReferenceSymbol&#45;&gt;ContextReferenceSymbol</title>
<path fill="none" stroke="black" stroke-width="0.5" d="M152.92,-37.08C142.42,-45.73 149.62,-55 174.5,-55 195.49,-55 203.9,-48.4 199.7,-41.15"/>
<polygon fill="black" stroke="black" stroke-width="0.5" points="200.71,-39.65 196.08,-37.08 198.1,-41.98 200.71,-39.65"/>
</g>
<!-- DOMMixin -->
<g id="node2" class="node">
<title>DOMMixin</title>
<g id="a_node2"><a xlink:href="../pyGHDL.dom.html#pyGHDL.dom.DOMMixin" xlink:title="DOMMixin" target="_top">
<polygon fill="white" stroke="#1e90ff" points="68,-56 0,-56 0,-37 68,-37 68,-56"/>
<text text-anchor="middle" x="34" y="-44" font-family="Vera Sans, DejaVu Sans, Liberation Sans, Arial, Helvetica, sans" font-size="10.00">DOMMixin</text>
</a>
</g>
</g>
<!-- DOMMixin&#45;&gt;ContextReferenceSymbol -->
<g id="edge2" class="edge">
<title>DOMMixin&#45;&gt;ContextReferenceSymbol</title>
<path fill="none" stroke="black" stroke-width="0.5" d="M68.17,-41.95C77.61,-40.65 88.29,-39.19 99.14,-37.7"/>
<polygon fill="black" stroke="black" stroke-width="0.5" points="99.41,-39.43 104.13,-37.02 98.94,-35.96 99.41,-39.43"/>
</g>
<!-- Symbol -->
<g id="node3" class="node">
<title>Symbol</title>
<polygon fill="white" stroke="#1e90ff" points="61,-19 7,-19 7,0 61,0 61,-19"/>
<text text-anchor="middle" x="34" y="-7" font-family="Vera Sans, DejaVu Sans, Liberation Sans, Arial, Helvetica, sans" font-size="10.00">Symbol</text>
</g>
<!-- Symbol&#45;&gt;ContextReferenceSymbol -->
<g id="edge3" class="edge">
<title>Symbol&#45;&gt;ContextReferenceSymbol</title>
<path fill="none" stroke="black" stroke-width="0.5" d="M61.05,-12.89C71.94,-14.3 85.2,-16.02 98.74,-17.78"/>
<polygon fill="black" stroke="black" stroke-width="0.5" points="98.55,-19.52 103.74,-18.43 99,-16.05 98.55,-19.52"/>
</g>
</g>
</svg>
