<?xml version="1.0" encoding="UTF-8" standalone="no"?>
<!DOCTYPE svg PUBLIC "-//W3C//DTD SVG 1.1//EN"
 "http://www.w3.org/Graphics/SVG/1.1/DTD/svg11.dtd">
<!-- Generated by graphviz version 2.43.0 (0)
 -->
<!-- Title: inheritanceb4a5d6e370 Pages: 1 -->
<svg width="533pt" height="212pt"
 viewBox="0.00 0.00 533.00 212.00" xmlns="http://www.w3.org/2000/svg" xmlns:xlink="http://www.w3.org/1999/xlink">
<g id="graph0" class="graph" transform="scale(1 1) rotate(0) translate(4 208)">
<title>inheritanceb4a5d6e370</title>
<!-- ConcurrentDeclarations -->
<g id="node1" class="node">
<title>ConcurrentDeclarations</title>
<polygon fill="white" stroke="#1e90ff" points="421.5,-204 290.5,-204 290.5,-185 421.5,-185 421.5,-204"/>
<text text-anchor="middle" x="356" y="-192" font-family="Vera Sans, DejaVu Sans, Liberation Sans, Arial, Helvetica, sans" font-size="10.00">ConcurrentDeclarations</text>
</g>
<!-- Entity -->
<g id="node9" class="node">
<title>Entity</title>
<g id="a_node9"><a xlink:href="../pyGHDL/pyGHDL.dom.DesignUnit.html#pyGHDL.dom.DesignUnit.Entity" xlink:title="Entity" target="_top">
<polygon fill="white" stroke="#1e90ff" points="525,-130 471,-130 471,-111 525,-111 525,-130"/>
<text text-anchor="middle" x="498" y="-118" font-family="Vera Sans, DejaVu Sans, Liberation Sans, Arial, Helvetica, sans" font-size="10.00">Entity</text>
</a>
</g>
</g>
<!-- ConcurrentDeclarations&#45;&gt;Entity -->
<g id="edge8" class="edge">
<title>ConcurrentDeclarations&#45;&gt;Entity</title>
<path fill="none" stroke="black" stroke-width="0.5" d="M414.03,-184.92C421.3,-182.67 428.47,-179.91 435,-176.5 455.51,-165.8 474.53,-146.7 485.96,-133.81"/>
<polygon fill="black" stroke="black" stroke-width="0.5" points="487.29,-134.95 489.25,-130.03 484.65,-132.65 487.29,-134.95"/>
</g>
<!-- ConcurrentStatements -->
<g id="node2" class="node">
<title>ConcurrentStatements</title>
<polygon fill="white" stroke="#1e90ff" points="419,-167 293,-167 293,-148 419,-148 419,-167"/>
<text text-anchor="middle" x="356" y="-155" font-family="Vera Sans, DejaVu Sans, Liberation Sans, Arial, Helvetica, sans" font-size="10.00">ConcurrentStatements</text>
</g>
<!-- ConcurrentStatements&#45;&gt;Entity -->
<g id="edge9" class="edge">
<title>ConcurrentStatements&#45;&gt;Entity</title>
<path fill="none" stroke="black" stroke-width="0.5" d="M400.86,-147.95C412.03,-145.36 423.99,-142.45 435,-139.5 445.09,-136.79 456.02,-133.55 465.84,-130.52"/>
<polygon fill="black" stroke="black" stroke-width="0.5" points="466.62,-132.11 470.87,-128.95 465.58,-128.77 466.62,-132.11"/>
</g>
<!-- DOMMixin -->
<g id="node3" class="node">
<title>DOMMixin</title>
<g id="a_node3"><a xlink:href="../pyGHDL.dom.html#pyGHDL.dom.DOMMixin" xlink:title="DOMMixin" target="_top">
<polygon fill="white" stroke="#1e90ff" points="390,-130 322,-130 322,-111 390,-111 390,-130"/>
<text text-anchor="middle" x="356" y="-118" font-family="Vera Sans, DejaVu Sans, Liberation Sans, Arial, Helvetica, sans" font-size="10.00">DOMMixin</text>
</a>
</g>
</g>
<!-- DOMMixin&#45;&gt;Entity -->
<g id="edge5" class="edge">
<title>DOMMixin&#45;&gt;Entity</title>
<path fill="none" stroke="black" stroke-width="0.5" d="M390.18,-120.5C412.93,-120.5 442.95,-120.5 465.37,-120.5"/>
<polygon fill="black" stroke="black" stroke-width="0.5" points="465.61,-122.25 470.61,-120.5 465.61,-118.75 465.61,-122.25"/>
</g>
<!-- DesignUnit -->
<g id="node4" class="node">
<title>DesignUnit</title>
<g id="a_node4"><a xlink:title="A ``DesignUnit`` is a base&#45;class for all design units.">
<polygon fill="white" stroke="#1e90ff" points="241,-56 170,-56 170,-37 241,-37 241,-56"/>
<text text-anchor="middle" x="205.5" y="-44" font-family="Vera Sans, DejaVu Sans, Liberation Sans, Arial, Helvetica, sans" font-size="10.00">DesignUnit</text>
</a>
</g>
</g>
<!-- PrimaryUnit -->
<g id="node10" class="node">
<title>PrimaryUnit</title>
<g id="a_node10"><a xlink:title="A ``PrimaryUnit`` is a base&#45;class for all primary units.">
<polygon fill="white" stroke="#1e90ff" points="393.5,-56 318.5,-56 318.5,-37 393.5,-37 393.5,-56"/>
<text text-anchor="middle" x="356" y="-44" font-family="Vera Sans, DejaVu Sans, Liberation Sans, Arial, Helvetica, sans" font-size="10.00">PrimaryUnit</text>
</a>
</g>
</g>
<!-- DesignUnit&#45;&gt;PrimaryUnit -->
<g id="edge10" class="edge">
<title>DesignUnit&#45;&gt;PrimaryUnit</title>
<path fill="none" stroke="black" stroke-width="0.5" d="M241.32,-46.5C262.84,-46.5 290.58,-46.5 313.27,-46.5"/>
<polygon fill="black" stroke="black" stroke-width="0.5" points="313.33,-48.25 318.33,-46.5 313.33,-44.75 313.33,-48.25"/>
</g>
<!-- ModelEntity -->
<g id="node5" class="node">
<title>ModelEntity</title>
<g id="a_node5"><a xlink:title="``ModelEntity`` is the base&#45;class for all classes in the VHDL language model, except for mixin classes (see multiple">
<polygon fill="white" stroke="#1e90ff" points="104.5,-93 29.5,-93 29.5,-74 104.5,-74 104.5,-93"/>
<text text-anchor="middle" x="67" y="-81" font-family="Vera Sans, DejaVu Sans, Liberation Sans, Arial, Helvetica, sans" font-size="10.00">ModelEntity</text>
</a>
</g>
</g>
<!-- ModelEntity&#45;&gt;DesignUnit -->
<g id="edge1" class="edge">
<title>ModelEntity&#45;&gt;DesignUnit</title>
<path fill="none" stroke="black" stroke-width="0.5" d="M103.15,-73.97C122.09,-68.84 145.5,-62.49 165.06,-57.19"/>
<polygon fill="black" stroke="black" stroke-width="0.5" points="165.57,-58.87 169.94,-55.87 164.66,-55.49 165.57,-58.87"/>
</g>
<!-- NamedEntityMixin -->
<g id="node6" class="node">
<title>NamedEntityMixin</title>
<g id="a_node6"><a xlink:title="A ``NamedEntityMixin`` is a mixin class for all VHDL entities that have identifiers.">
<polygon fill="white" stroke="#1e90ff" points="120.5,-56 13.5,-56 13.5,-37 120.5,-37 120.5,-56"/>
<text text-anchor="middle" x="67" y="-44" font-family="Vera Sans, DejaVu Sans, Liberation Sans, Arial, Helvetica, sans" font-size="10.00">NamedEntityMixin</text>
</a>
</g>
</g>
<!-- NamedEntityMixin&#45;&gt;DesignUnit -->
<g id="edge2" class="edge">
<title>NamedEntityMixin&#45;&gt;DesignUnit</title>
<path fill="none" stroke="black" stroke-width="0.5" d="M120.77,-46.5C135.35,-46.5 150.91,-46.5 164.62,-46.5"/>
<polygon fill="black" stroke="black" stroke-width="0.5" points="164.97,-48.25 169.97,-46.5 164.97,-44.75 164.97,-48.25"/>
</g>
<!-- DocumentedEntityMixin -->
<g id="node7" class="node">
<title>DocumentedEntityMixin</title>
<g id="a_node7"><a xlink:title="A ``DocumentedEntityMixin`` is a mixin class for all VHDL entities that can have an associated documentation.">
<polygon fill="white" stroke="#1e90ff" points="134,-19 0,-19 0,0 134,0 134,-19"/>
<text text-anchor="middle" x="67" y="-7" font-family="Vera Sans, DejaVu Sans, Liberation Sans, Arial, Helvetica, sans" font-size="10.00">DocumentedEntityMixin</text>
</a>
</g>
</g>
<!-- DocumentedEntityMixin&#45;&gt;DesignUnit -->
<g id="edge3" class="edge">
<title>DocumentedEntityMixin&#45;&gt;DesignUnit</title>
<path fill="none" stroke="black" stroke-width="0.5" d="M103.15,-19.03C122.09,-24.16 145.5,-30.51 165.06,-35.81"/>
<polygon fill="black" stroke="black" stroke-width="0.5" points="164.66,-37.51 169.94,-37.13 165.57,-34.13 164.66,-37.51"/>
</g>
<!-- DesignUnitWithContextMixin -->
<g id="node8" class="node">
<title>DesignUnitWithContextMixin</title>
<polygon fill="white" stroke="#1e90ff" points="435,-93 277,-93 277,-74 435,-74 435,-93"/>
<text text-anchor="middle" x="356" y="-81" font-family="Vera Sans, DejaVu Sans, Liberation Sans, Arial, Helvetica, sans" font-size="10.00">DesignUnitWithContextMixin</text>
</g>
<!-- DesignUnitWithContextMixin&#45;&gt;Entity -->
<g id="edge7" class="edge">
<title>DesignUnitWithContextMixin&#45;&gt;Entity</title>
<path fill="none" stroke="black" stroke-width="0.5" d="M397.57,-93.03C409.64,-95.96 422.88,-99.27 435,-102.5 445.05,-105.18 455.97,-108.29 465.79,-111.15"/>
<polygon fill="black" stroke="black" stroke-width="0.5" points="465.53,-112.9 470.82,-112.63 466.52,-109.54 465.53,-112.9"/>
</g>
<!-- Entity&#45;&gt;Entity -->
<g id="edge4" class="edge">
<title>Entity&#45;&gt;Entity</title>
<path fill="none" stroke="black" stroke-width="0.5" d="M476.11,-130.08C465.47,-138.73 472.76,-148 498,-148 519.69,-148 528.13,-141.16 523.31,-133.74"/>
<polygon fill="black" stroke="black" stroke-width="0.5" points="524.58,-132.54 519.89,-130.08 522.03,-134.93 524.58,-132.54"/>
</g>
<!-- PrimaryUnit&#45;&gt;Entity -->
<g id="edge6" class="edge">
<title>PrimaryUnit&#45;&gt;Entity</title>
<path fill="none" stroke="black" stroke-width="0.5" d="M393.65,-51.61C407.17,-54.47 422.28,-58.84 435,-65.5 454.93,-75.93 473.64,-94.13 485.19,-106.72"/>
<polygon fill="black" stroke="black" stroke-width="0.5" points="484.17,-108.22 488.82,-110.76 486.77,-105.87 484.17,-108.22"/>
</g>
</g>
</svg>
