<?xml version="1.0" encoding="UTF-8" standalone="no"?>
<!DOCTYPE svg PUBLIC "-//W3C//DTD SVG 1.1//EN"
 "http://www.w3.org/Graphics/SVG/1.1/DTD/svg11.dtd">
<!-- Generated by graphviz version 2.43.0 (0)
 -->
<!-- Title: inheritancedfc13750a8 Pages: 1 -->
<svg width="431pt" height="64pt"
 viewBox="0.00 0.00 431.00 64.00" xmlns="http://www.w3.org/2000/svg" xmlns:xlink="http://www.w3.org/1999/xlink">
<g id="graph0" class="graph" transform="scale(1 1) rotate(0) translate(4 60)">
<title>inheritancedfc13750a8</title>
<!-- ConstrainedCompositeSubtypeSymbol -->
<g id="node1" class="node">
<title>ConstrainedCompositeSubtypeSymbol</title>
<g id="a_node1"><a xlink:href="../pyGHDL/pyGHDL.dom.Symbol.html#pyGHDL.dom.Symbol.ConstrainedCompositeSubtypeSymbol" xlink:title="A configuration reference in a configuration instantiation." target="_top">
<polygon fill="white" stroke="#1e90ff" points="423,-37 219,-37 219,-18 423,-18 423,-37"/>
<text text-anchor="middle" x="321" y="-25" font-family="Vera Sans, DejaVu Sans, Liberation Sans, Arial, Helvetica, sans" font-size="10.00">ConstrainedCompositeSubtypeSymbol</text>
</a>
</g>
</g>
<!-- ConstrainedCompositeSubtypeSymbol&#45;&gt;ConstrainedCompositeSubtypeSymbol -->
<g id="edge1" class="edge">
<title>ConstrainedCompositeSubtypeSymbol&#45;&gt;ConstrainedCompositeSubtypeSymbol</title>
<path fill="none" stroke="black" stroke-width="0.5" d="M292.64,-37.08C278.84,-45.73 288.3,-55 321,-55 349.62,-55 360.43,-47.91 353.44,-40.34"/>
<polygon fill="black" stroke="black" stroke-width="0.5" points="354.36,-38.83 349.36,-37.08 352.18,-41.57 354.36,-38.83"/>
</g>
<!-- DOMMixin -->
<g id="node2" class="node">
<title>DOMMixin</title>
<g id="a_node2"><a xlink:href="../pyGHDL.dom.html#pyGHDL.dom.DOMMixin" xlink:title="DOMMixin" target="_top">
<polygon fill="white" stroke="#1e90ff" points="170.5,-56 102.5,-56 102.5,-37 170.5,-37 170.5,-56"/>
<text text-anchor="middle" x="136.5" y="-44" font-family="Vera Sans, DejaVu Sans, Liberation Sans, Arial, Helvetica, sans" font-size="10.00">DOMMixin</text>
</a>
</g>
</g>
<!-- DOMMixin&#45;&gt;ConstrainedCompositeSubtypeSymbol -->
<g id="edge2" class="edge">
<title>DOMMixin&#45;&gt;ConstrainedCompositeSubtypeSymbol</title>
<path fill="none" stroke="black" stroke-width="0.5" d="M170.55,-43.06C185.57,-41.5 204.21,-39.56 223.16,-37.58"/>
<polygon fill="black" stroke="black" stroke-width="0.5" points="223.72,-39.28 228.52,-37.02 223.36,-35.8 223.72,-39.28"/>
</g>
<!-- SubtypeSymbol -->
<g id="node3" class="node">
<title>SubtypeSymbol</title>
<polygon fill="white" stroke="#1e90ff" points="183,-19 90,-19 90,0 183,0 183,-19"/>
<text text-anchor="middle" x="136.5" y="-7" font-family="Vera Sans, DejaVu Sans, Liberation Sans, Arial, Helvetica, sans" font-size="10.00">SubtypeSymbol</text>
</g>
<!-- SubtypeSymbol&#45;&gt;ConstrainedCompositeSubtypeSymbol -->
<g id="edge3" class="edge">
<title>SubtypeSymbol&#45;&gt;ConstrainedCompositeSubtypeSymbol</title>
<path fill="none" stroke="black" stroke-width="0.5" d="M183.08,-14C193.98,-15.07 206.05,-16.26 218.38,-17.48"/>
<polygon fill="black" stroke="black" stroke-width="0.5" points="218.53,-19.25 223.68,-18 218.88,-15.77 218.53,-19.25"/>
</g>
<!-- Symbol -->
<g id="node4" class="node">
<title>Symbol</title>
<polygon fill="white" stroke="#1e90ff" points="54,-19 0,-19 0,0 54,0 54,-19"/>
<text text-anchor="middle" x="27" y="-7" font-family="Vera Sans, DejaVu Sans, Liberation Sans, Arial, Helvetica, sans" font-size="10.00">Symbol</text>
</g>
<!-- Symbol&#45;&gt;SubtypeSymbol -->
<g id="edge4" class="edge">
<title>Symbol&#45;&gt;SubtypeSymbol</title>
<path fill="none" stroke="black" stroke-width="0.5" d="M54.02,-9.5C63.31,-9.5 74.13,-9.5 84.78,-9.5"/>
<polygon fill="black" stroke="black" stroke-width="0.5" points="84.99,-11.25 89.99,-9.5 84.99,-7.75 84.99,-11.25"/>
</g>
</g>
</svg>
