<?xml version="1.0" encoding="UTF-8" standalone="no"?>
<!DOCTYPE svg PUBLIC "-//W3C//DTD SVG 1.1//EN"
 "http://www.w3.org/Graphics/SVG/1.1/DTD/svg11.dtd">
<!-- Generated by graphviz version 2.43.0 (0)
 -->
<!-- Title: inheritancee0c6999752 Pages: 1 -->
<svg width="576pt" height="42pt"
 viewBox="0.00 0.00 576.00 41.75" xmlns="http://www.w3.org/2000/svg" xmlns:xlink="http://www.w3.org/1999/xlink">
<g id="graph0" class="graph" transform="scale(1.53 1.53) rotate(0) translate(4 60)">
<title>inheritancee0c6999752</title>
<!-- BaseExpression -->
<g id="node1" class="node">
<title>BaseExpression</title>
<g id="a_node1"><a xlink:title="A ``BaseExpression`` is a base&#45;class for all expressions.">
<polygon fill="white" stroke="#1e90ff" points="205,-19 111,-19 111,0 205,0 205,-19"/>
<text text-anchor="middle" x="158" y="-7" font-family="Vera Sans, DejaVu Sans, Liberation Sans, Arial, Helvetica, sans" font-size="10.00">BaseExpression</text>
</a>
</g>
</g>
<!-- BinaryExpression -->
<g id="node3" class="node">
<title>BinaryExpression</title>
<g id="a_node3"><a xlink:title="A ``BinaryExpression`` is a base&#45;class for all binary expressions.">
<polygon fill="white" stroke="#1e90ff" points="342,-19 241,-19 241,0 342,0 342,-19"/>
<text text-anchor="middle" x="291.5" y="-7" font-family="Vera Sans, DejaVu Sans, Liberation Sans, Arial, Helvetica, sans" font-size="10.00">BinaryExpression</text>
</a>
</g>
</g>
<!-- BaseExpression&#45;&gt;BinaryExpression -->
<g id="edge2" class="edge">
<title>BaseExpression&#45;&gt;BinaryExpression</title>
<path fill="none" stroke="black" stroke-width="0.5" d="M205.36,-9.5C215.19,-9.5 225.64,-9.5 235.74,-9.5"/>
<polygon fill="black" stroke="black" stroke-width="0.5" points="235.99,-11.25 240.99,-9.5 235.99,-7.75 235.99,-11.25"/>
</g>
<!-- ModelEntity -->
<g id="node2" class="node">
<title>ModelEntity</title>
<g id="a_node2"><a xlink:title="``ModelEntity`` is the base&#45;class for all classes in the VHDL language model, except for mixin classes (see multiple">
<polygon fill="white" stroke="#1e90ff" points="75,-19 0,-19 0,0 75,0 75,-19"/>
<text text-anchor="middle" x="37.5" y="-7" font-family="Vera Sans, DejaVu Sans, Liberation Sans, Arial, Helvetica, sans" font-size="10.00">ModelEntity</text>
</a>
</g>
</g>
<!-- ModelEntity&#45;&gt;BaseExpression -->
<g id="edge1" class="edge">
<title>ModelEntity&#45;&gt;BaseExpression</title>
<path fill="none" stroke="black" stroke-width="0.5" d="M75.02,-9.5C84.72,-9.5 95.38,-9.5 105.71,-9.5"/>
<polygon fill="black" stroke="black" stroke-width="0.5" points="105.75,-11.25 110.75,-9.5 105.75,-7.75 105.75,-11.25"/>
</g>
<!-- RelationalExpression -->
<g id="node7" class="node">
<title>RelationalExpression</title>
<g id="a_node7"><a xlink:title="A ``RelationalExpression`` is a base&#45;class for all shifting expressions.">
<polygon fill="white" stroke="#1e90ff" points="497,-19 378,-19 378,0 497,0 497,-19"/>
<text text-anchor="middle" x="437.5" y="-7" font-family="Vera Sans, DejaVu Sans, Liberation Sans, Arial, Helvetica, sans" font-size="10.00">RelationalExpression</text>
</a>
</g>
</g>
<!-- BinaryExpression&#45;&gt;RelationalExpression -->
<g id="edge7" class="edge">
<title>BinaryExpression&#45;&gt;RelationalExpression</title>
<path fill="none" stroke="black" stroke-width="0.5" d="M342.06,-9.5C351.98,-9.5 362.55,-9.5 372.87,-9.5"/>
<polygon fill="black" stroke="black" stroke-width="0.5" points="372.92,-11.25 377.92,-9.5 372.92,-7.75 372.92,-11.25"/>
</g>
<!-- DOMMixin -->
<g id="node4" class="node">
<title>DOMMixin</title>
<g id="a_node4"><a xlink:href="../pyGHDL.dom.html#pyGHDL.dom.DOMMixin" xlink:title="DOMMixin" target="_top">
<polygon fill="white" stroke="#1e90ff" points="649,-56 581,-56 581,-37 649,-37 649,-56"/>
<text text-anchor="middle" x="615" y="-44" font-family="Vera Sans, DejaVu Sans, Liberation Sans, Arial, Helvetica, sans" font-size="10.00">DOMMixin</text>
</a>
</g>
</g>
<!-- MatchingEqualExpression -->
<g id="node5" class="node">
<title>MatchingEqualExpression</title>
<g id="a_node5"><a xlink:href="../pyGHDL/pyGHDL.dom.Expression.html#pyGHDL.dom.Expression.MatchingEqualExpression" xlink:title="MatchingEqualExpression" target="_top">
<polygon fill="white" stroke="#1e90ff" points="875,-37 733,-37 733,-18 875,-18 875,-37"/>
<text text-anchor="middle" x="804" y="-25" font-family="Vera Sans, DejaVu Sans, Liberation Sans, Arial, Helvetica, sans" font-size="10.00">MatchingEqualExpression</text>
</a>
</g>
</g>
<!-- DOMMixin&#45;&gt;MatchingEqualExpression -->
<g id="edge4" class="edge">
<title>DOMMixin&#45;&gt;MatchingEqualExpression</title>
<path fill="none" stroke="black" stroke-width="0.5" d="M649,-43.15C670.82,-40.93 700.33,-37.93 727.68,-35.15"/>
<polygon fill="black" stroke="black" stroke-width="0.5" points="727.97,-36.88 732.76,-34.64 727.61,-33.4 727.97,-36.88"/>
</g>
<!-- MatchingEqualExpression&#45;&gt;MatchingEqualExpression -->
<g id="edge3" class="edge">
<title>MatchingEqualExpression&#45;&gt;MatchingEqualExpression</title>
<path fill="none" stroke="black" stroke-width="0.5" d="M775.02,-37.08C760.93,-45.73 770.59,-55 804,-55 833.24,-55 844.29,-47.91 837.15,-40.34"/>
<polygon fill="black" stroke="black" stroke-width="0.5" points="838,-38.78 832.98,-37.08 835.84,-41.54 838,-38.78"/>
</g>
<!-- MatchingRelationalExpression -->
<g id="node6" class="node">
<title>MatchingRelationalExpression</title>
<polygon fill="white" stroke="#1e90ff" points="697,-19 533,-19 533,0 697,0 697,-19"/>
<text text-anchor="middle" x="615" y="-7" font-family="Vera Sans, DejaVu Sans, Liberation Sans, Arial, Helvetica, sans" font-size="10.00">MatchingRelationalExpression</text>
</g>
<!-- MatchingRelationalExpression&#45;&gt;MatchingEqualExpression -->
<g id="edge5" class="edge">
<title>MatchingRelationalExpression&#45;&gt;MatchingEqualExpression</title>
<path fill="none" stroke="black" stroke-width="0.5" d="M697.21,-17.32C707.28,-18.29 717.54,-19.27 727.52,-20.23"/>
<polygon fill="black" stroke="black" stroke-width="0.5" points="727.57,-22 732.72,-20.73 727.91,-18.51 727.57,-22"/>
</g>
<!-- RelationalExpression&#45;&gt;MatchingRelationalExpression -->
<g id="edge6" class="edge">
<title>RelationalExpression&#45;&gt;MatchingRelationalExpression</title>
<path fill="none" stroke="black" stroke-width="0.5" d="M497.43,-9.5C507.18,-9.5 517.47,-9.5 527.74,-9.5"/>
<polygon fill="black" stroke="black" stroke-width="0.5" points="527.77,-11.25 532.77,-9.5 527.77,-7.75 527.77,-11.25"/>
</g>
</g>
</svg>
