<?xml version="1.0" encoding="UTF-8" standalone="no"?>
<!DOCTYPE svg PUBLIC "-//W3C//DTD SVG 1.1//EN"
 "http://www.w3.org/Graphics/SVG/1.1/DTD/svg11.dtd">
<!-- Generated by graphviz version 2.43.0 (0)
 -->
<!-- Title: inheritance502f648504 Pages: 1 -->
<svg width="394pt" height="101pt"
 viewBox="0.00 0.00 394.00 101.00" xmlns="http://www.w3.org/2000/svg" xmlns:xlink="http://www.w3.org/1999/xlink">
<g id="graph0" class="graph" transform="scale(1 1) rotate(0) translate(4 97)">
<title>inheritance502f648504</title>
<!-- BaseExpression -->
<g id="node1" class="node">
<title>BaseExpression</title>
<g id="a_node1"><a xlink:title="A ``BaseExpression`` is a base&#45;class for all expressions.">
<polygon fill="white" stroke="#1e90ff" points="221,-19 127,-19 127,0 221,0 221,-19"/>
<text text-anchor="middle" x="174" y="-7" font-family="Vera Sans, DejaVu Sans, Liberation Sans, Arial, Helvetica, sans" font-size="10.00">BaseExpression</text>
</a>
</g>
</g>
<!-- QualifiedExpression -->
<g id="node5" class="node">
<title>QualifiedExpression</title>
<g id="a_node5"><a xlink:href="../pyGHDL/pyGHDL.dom.Expression.html#pyGHDL.dom.Expression.QualifiedExpression" xlink:title="QualifiedExpression" target="_top">
<polygon fill="white" stroke="#1e90ff" points="386,-56 273,-56 273,-37 386,-37 386,-56"/>
<text text-anchor="middle" x="329.5" y="-44" font-family="Vera Sans, DejaVu Sans, Liberation Sans, Arial, Helvetica, sans" font-size="10.00">QualifiedExpression</text>
</a>
</g>
</g>
<!-- BaseExpression&#45;&gt;QualifiedExpression -->
<g id="edge4" class="edge">
<title>BaseExpression&#45;&gt;QualifiedExpression</title>
<path fill="none" stroke="black" stroke-width="0.5" d="M214.53,-19.03C235.75,-24.14 261.99,-30.47 283.94,-35.76"/>
<polygon fill="black" stroke="black" stroke-width="0.5" points="283.57,-37.47 288.84,-36.94 284.39,-34.07 283.57,-37.47"/>
</g>
<!-- ModelEntity -->
<g id="node2" class="node">
<title>ModelEntity</title>
<g id="a_node2"><a xlink:title="``ModelEntity`` is the base&#45;class for all classes in the VHDL language model, except for mixin classes (see multiple">
<polygon fill="white" stroke="#1e90ff" points="75,-19 0,-19 0,0 75,0 75,-19"/>
<text text-anchor="middle" x="37.5" y="-7" font-family="Vera Sans, DejaVu Sans, Liberation Sans, Arial, Helvetica, sans" font-size="10.00">ModelEntity</text>
</a>
</g>
</g>
<!-- ModelEntity&#45;&gt;BaseExpression -->
<g id="edge1" class="edge">
<title>ModelEntity&#45;&gt;BaseExpression</title>
<path fill="none" stroke="black" stroke-width="0.5" d="M75.25,-9.5C89.51,-9.5 106.08,-9.5 121.49,-9.5"/>
<polygon fill="black" stroke="black" stroke-width="0.5" points="121.67,-11.25 126.67,-9.5 121.67,-7.75 121.67,-11.25"/>
</g>
<!-- DOMMixin -->
<g id="node3" class="node">
<title>DOMMixin</title>
<g id="a_node3"><a xlink:href="../pyGHDL.dom.html#pyGHDL.dom.DOMMixin" xlink:title="DOMMixin" target="_top">
<polygon fill="white" stroke="#1e90ff" points="208,-93 140,-93 140,-74 208,-74 208,-93"/>
<text text-anchor="middle" x="174" y="-81" font-family="Vera Sans, DejaVu Sans, Liberation Sans, Arial, Helvetica, sans" font-size="10.00">DOMMixin</text>
</a>
</g>
</g>
<!-- DOMMixin&#45;&gt;QualifiedExpression -->
<g id="edge3" class="edge">
<title>DOMMixin&#45;&gt;QualifiedExpression</title>
<path fill="none" stroke="black" stroke-width="0.5" d="M208.31,-75.47C230.45,-70.13 259.79,-63.06 283.94,-57.24"/>
<polygon fill="black" stroke="black" stroke-width="0.5" points="284.56,-58.89 289.01,-56.02 283.73,-55.49 284.56,-58.89"/>
</g>
<!-- ParenthesisExpression -->
<g id="node4" class="node">
<title>ParenthesisExpression</title>
<polygon fill="white" stroke="#1e90ff" points="237,-56 111,-56 111,-37 237,-37 237,-56"/>
<text text-anchor="middle" x="174" y="-44" font-family="Vera Sans, DejaVu Sans, Liberation Sans, Arial, Helvetica, sans" font-size="10.00">ParenthesisExpression</text>
</g>
<!-- ParenthesisExpression&#45;&gt;QualifiedExpression -->
<g id="edge5" class="edge">
<title>ParenthesisExpression&#45;&gt;QualifiedExpression</title>
<path fill="none" stroke="black" stroke-width="0.5" d="M237.43,-46.5C247.33,-46.5 257.55,-46.5 267.42,-46.5"/>
<polygon fill="black" stroke="black" stroke-width="0.5" points="267.54,-48.25 272.54,-46.5 267.54,-44.75 267.54,-48.25"/>
</g>
<!-- QualifiedExpression&#45;&gt;QualifiedExpression -->
<g id="edge2" class="edge">
<title>QualifiedExpression&#45;&gt;QualifiedExpression</title>
<path fill="none" stroke="black" stroke-width="0.5" d="M305.76,-56.08C294.22,-64.73 302.13,-74 329.5,-74 353.02,-74 362.17,-67.16 356.95,-59.74"/>
<polygon fill="black" stroke="black" stroke-width="0.5" points="358.03,-58.34 353.24,-56.08 355.57,-60.84 358.03,-58.34"/>
</g>
</g>
</svg>
