<?xml version="1.0" encoding="UTF-8" standalone="no"?>
<!DOCTYPE svg PUBLIC "-//W3C//DTD SVG 1.1//EN"
 "http://www.w3.org/Graphics/SVG/1.1/DTD/svg11.dtd">
<!-- Generated by graphviz version 2.43.0 (0)
 -->
<!-- Title: inheritance3976506a58 Pages: 1 -->
<svg width="354pt" height="64pt"
 viewBox="0.00 0.00 354.00 64.00" xmlns="http://www.w3.org/2000/svg" xmlns:xlink="http://www.w3.org/1999/xlink">
<g id="graph0" class="graph" transform="scale(1 1) rotate(0) translate(4 60)">
<title>inheritance3976506a58</title>
<!-- DOMMixin -->
<g id="node1" class="node">
<title>DOMMixin</title>
<g id="a_node1"><a xlink:href="../pyGHDL.dom.html#pyGHDL.dom.DOMMixin" xlink:title="DOMMixin" target="_top">
<polygon fill="white" stroke="#1e90ff" points="170.5,-56 102.5,-56 102.5,-37 170.5,-37 170.5,-56"/>
<text text-anchor="middle" x="136.5" y="-44" font-family="Vera Sans, DejaVu Sans, Liberation Sans, Arial, Helvetica, sans" font-size="10.00">DOMMixin</text>
</a>
</g>
</g>
<!-- SimpleSubtypeSymbol -->
<g id="node2" class="node">
<title>SimpleSubtypeSymbol</title>
<g id="a_node2"><a xlink:href="../pyGHDL/pyGHDL.dom.Symbol.html#pyGHDL.dom.Symbol.SimpleSubtypeSymbol" xlink:title="A configuration reference in a configuration instantiation." target="_top">
<polygon fill="white" stroke="#1e90ff" points="346,-37 219,-37 219,-18 346,-18 346,-37"/>
<text text-anchor="middle" x="282.5" y="-25" font-family="Vera Sans, DejaVu Sans, Liberation Sans, Arial, Helvetica, sans" font-size="10.00">SimpleSubtypeSymbol</text>
</a>
</g>
</g>
<!-- DOMMixin&#45;&gt;SimpleSubtypeSymbol -->
<g id="edge2" class="edge">
<title>DOMMixin&#45;&gt;SimpleSubtypeSymbol</title>
<path fill="none" stroke="black" stroke-width="0.5" d="M170.54,-42.14C183.44,-40.44 198.74,-38.42 213.78,-36.43"/>
<polygon fill="black" stroke="black" stroke-width="0.5" points="214.15,-38.15 218.87,-35.76 213.69,-34.68 214.15,-38.15"/>
</g>
<!-- SimpleSubtypeSymbol&#45;&gt;SimpleSubtypeSymbol -->
<g id="edge1" class="edge">
<title>SimpleSubtypeSymbol&#45;&gt;SimpleSubtypeSymbol</title>
<path fill="none" stroke="black" stroke-width="0.5" d="M260,-37.08C249.05,-45.73 256.55,-55 282.5,-55 304.8,-55 313.48,-48.16 308.53,-40.74"/>
<polygon fill="black" stroke="black" stroke-width="0.5" points="309.73,-39.47 305,-37.08 307.21,-41.9 309.73,-39.47"/>
</g>
<!-- SubtypeSymbol -->
<g id="node3" class="node">
<title>SubtypeSymbol</title>
<polygon fill="white" stroke="#1e90ff" points="183,-19 90,-19 90,0 183,0 183,-19"/>
<text text-anchor="middle" x="136.5" y="-7" font-family="Vera Sans, DejaVu Sans, Liberation Sans, Arial, Helvetica, sans" font-size="10.00">SubtypeSymbol</text>
</g>
<!-- SubtypeSymbol&#45;&gt;SimpleSubtypeSymbol -->
<g id="edge3" class="edge">
<title>SubtypeSymbol&#45;&gt;SimpleSubtypeSymbol</title>
<path fill="none" stroke="black" stroke-width="0.5" d="M183.06,-15.2C192.83,-16.42 203.36,-17.73 213.77,-19.03"/>
<polygon fill="black" stroke="black" stroke-width="0.5" points="213.68,-20.79 218.86,-19.67 214.12,-17.31 213.68,-20.79"/>
</g>
<!-- Symbol -->
<g id="node4" class="node">
<title>Symbol</title>
<polygon fill="white" stroke="#1e90ff" points="54,-19 0,-19 0,0 54,0 54,-19"/>
<text text-anchor="middle" x="27" y="-7" font-family="Vera Sans, DejaVu Sans, Liberation Sans, Arial, Helvetica, sans" font-size="10.00">Symbol</text>
</g>
<!-- Symbol&#45;&gt;SubtypeSymbol -->
<g id="edge4" class="edge">
<title>Symbol&#45;&gt;SubtypeSymbol</title>
<path fill="none" stroke="black" stroke-width="0.5" d="M54.02,-9.5C63.31,-9.5 74.13,-9.5 84.78,-9.5"/>
<polygon fill="black" stroke="black" stroke-width="0.5" points="84.99,-11.25 89.99,-9.5 84.99,-7.75 84.99,-11.25"/>
</g>
</g>
</svg>
