<?xml version="1.0" encoding="UTF-8" standalone="no"?>
<!DOCTYPE svg PUBLIC "-//W3C//DTD SVG 1.1//EN"
 "http://www.w3.org/Graphics/SVG/1.1/DTD/svg11.dtd">
<!-- Generated by graphviz version 2.43.0 (0)
 -->
<!-- Title: inheritanced80b3cd419 Pages: 1 -->
<svg width="294pt" height="64pt"
 viewBox="0.00 0.00 294.00 64.00" xmlns="http://www.w3.org/2000/svg" xmlns:xlink="http://www.w3.org/1999/xlink">
<g id="graph0" class="graph" transform="scale(1 1) rotate(0) translate(4 60)">
<title>inheritanced80b3cd419</title>
<!-- DOMMixin -->
<g id="node1" class="node">
<title>DOMMixin</title>
<g id="a_node1"><a xlink:href="../pyGHDL.dom.html#pyGHDL.dom.DOMMixin" xlink:title="DOMMixin" target="_top">
<polygon fill="white" stroke="#1e90ff" points="179,-56 111,-56 111,-37 179,-37 179,-56"/>
<text text-anchor="middle" x="145" y="-44" font-family="Vera Sans, DejaVu Sans, Liberation Sans, Arial, Helvetica, sans" font-size="10.00">DOMMixin</text>
</a>
</g>
</g>
<!-- OpenName -->
<g id="node4" class="node">
<title>OpenName</title>
<g id="a_node4"><a xlink:href="../pyGHDL/pyGHDL.dom.Names.html#pyGHDL.dom.Names.OpenName" xlink:title="The *open name* represents the reserved word ``open``." target="_top">
<polygon fill="white" stroke="#1e90ff" points="286,-37 215,-37 215,-18 286,-18 286,-37"/>
<text text-anchor="middle" x="250.5" y="-25" font-family="Vera Sans, DejaVu Sans, Liberation Sans, Arial, Helvetica, sans" font-size="10.00">OpenName</text>
</a>
</g>
</g>
<!-- DOMMixin&#45;&gt;OpenName -->
<g id="edge3" class="edge">
<title>DOMMixin&#45;&gt;OpenName</title>
<path fill="none" stroke="black" stroke-width="0.5" d="M179.03,-40.44C188.9,-38.63 199.81,-36.62 210.04,-34.74"/>
<polygon fill="black" stroke="black" stroke-width="0.5" points="210.4,-36.46 215,-33.83 209.77,-33.02 210.4,-36.46"/>
</g>
<!-- ModelEntity -->
<g id="node2" class="node">
<title>ModelEntity</title>
<g id="a_node2"><a xlink:title="``ModelEntity`` is the base&#45;class for all classes in the VHDL language model, except for mixin classes (see multiple">
<polygon fill="white" stroke="#1e90ff" points="75,-19 0,-19 0,0 75,0 75,-19"/>
<text text-anchor="middle" x="37.5" y="-7" font-family="Vera Sans, DejaVu Sans, Liberation Sans, Arial, Helvetica, sans" font-size="10.00">ModelEntity</text>
</a>
</g>
</g>
<!-- Name -->
<g id="node3" class="node">
<title>Name</title>
<g id="a_node3"><a xlink:title="``Name`` is the base&#45;class for all *names* in the VHDL language model.">
<polygon fill="white" stroke="#1e90ff" points="172,-19 118,-19 118,0 172,0 172,-19"/>
<text text-anchor="middle" x="145" y="-7" font-family="Vera Sans, DejaVu Sans, Liberation Sans, Arial, Helvetica, sans" font-size="10.00">Name</text>
</a>
</g>
</g>
<!-- ModelEntity&#45;&gt;Name -->
<g id="edge1" class="edge">
<title>ModelEntity&#45;&gt;Name</title>
<path fill="none" stroke="black" stroke-width="0.5" d="M75.1,-9.5C87.28,-9.5 100.73,-9.5 112.49,-9.5"/>
<polygon fill="black" stroke="black" stroke-width="0.5" points="112.77,-11.25 117.77,-9.5 112.77,-7.75 112.77,-11.25"/>
</g>
<!-- Name&#45;&gt;OpenName -->
<g id="edge4" class="edge">
<title>Name&#45;&gt;OpenName</title>
<path fill="none" stroke="black" stroke-width="0.5" d="M172.12,-14.04C183.54,-16.03 197.18,-18.4 209.82,-20.6"/>
<polygon fill="black" stroke="black" stroke-width="0.5" points="209.56,-22.33 214.78,-21.46 210.16,-18.88 209.56,-22.33"/>
</g>
<!-- OpenName&#45;&gt;OpenName -->
<g id="edge2" class="edge">
<title>OpenName&#45;&gt;OpenName</title>
<path fill="none" stroke="black" stroke-width="0.5" d="M234.47,-37.08C226.67,-45.73 232.02,-55 250.5,-55 265.81,-55 272.1,-48.65 269.39,-41.55"/>
<polygon fill="black" stroke="black" stroke-width="0.5" points="270.7,-40.35 266.53,-37.08 267.75,-42.24 270.7,-40.35"/>
</g>
</g>
</svg>
