<?xml version="1.0" encoding="UTF-8" standalone="no"?>
<!DOCTYPE svg PUBLIC "-//W3C//DTD SVG 1.1//EN"
 "http://www.w3.org/Graphics/SVG/1.1/DTD/svg11.dtd">
<!-- Generated by graphviz version 2.43.0 (0)
 -->
<!-- Title: inheritance126e0bfaa0 Pages: 1 -->
<svg width="338pt" height="101pt"
 viewBox="0.00 0.00 338.00 101.00" xmlns="http://www.w3.org/2000/svg" xmlns:xlink="http://www.w3.org/1999/xlink">
<g id="graph0" class="graph" transform="scale(1 1) rotate(0) translate(4 97)">
<title>inheritance126e0bfaa0</title>
<!-- BaseType -->
<g id="node1" class="node">
<title>BaseType</title>
<g id="a_node1"><a xlink:title="``BaseType`` is the base&#45;class of all type entities in this model.">
<polygon fill="white" stroke="#1e90ff" points="235.5,-56 172.5,-56 172.5,-37 235.5,-37 235.5,-56"/>
<text text-anchor="middle" x="204" y="-44" font-family="Vera Sans, DejaVu Sans, Liberation Sans, Arial, Helvetica, sans" font-size="10.00">BaseType</text>
</a>
</g>
</g>
<!-- Subtype -->
<g id="node6" class="node">
<title>Subtype</title>
<g id="a_node6"><a xlink:href="../pyGHDL/pyGHDL.dom.Type.html#pyGHDL.dom.Type.Subtype" xlink:title="Subtype" target="_top">
<polygon fill="white" stroke="#1e90ff" points="330,-74 274,-74 274,-55 330,-55 330,-74"/>
<text text-anchor="middle" x="302" y="-62" font-family="Vera Sans, DejaVu Sans, Liberation Sans, Arial, Helvetica, sans" font-size="10.00">Subtype</text>
</a>
</g>
</g>
<!-- BaseType&#45;&gt;Subtype -->
<g id="edge6" class="edge">
<title>BaseType&#45;&gt;Subtype</title>
<path fill="none" stroke="black" stroke-width="0.5" d="M235.64,-52.24C246.2,-54.23 258.06,-56.45 268.75,-58.45"/>
<polygon fill="black" stroke="black" stroke-width="0.5" points="268.65,-60.22 273.89,-59.42 269.3,-56.78 268.65,-60.22"/>
</g>
<!-- ModelEntity -->
<g id="node2" class="node">
<title>ModelEntity</title>
<g id="a_node2"><a xlink:title="``ModelEntity`` is the base&#45;class for all classes in the VHDL language model, except for mixin classes (see multiple">
<polygon fill="white" stroke="#1e90ff" points="104.5,-93 29.5,-93 29.5,-74 104.5,-74 104.5,-93"/>
<text text-anchor="middle" x="67" y="-81" font-family="Vera Sans, DejaVu Sans, Liberation Sans, Arial, Helvetica, sans" font-size="10.00">ModelEntity</text>
</a>
</g>
</g>
<!-- ModelEntity&#45;&gt;BaseType -->
<g id="edge1" class="edge">
<title>ModelEntity&#45;&gt;BaseType</title>
<path fill="none" stroke="black" stroke-width="0.5" d="M102.94,-73.99C112.97,-71.25 123.92,-68.26 134,-65.5 144.91,-62.51 156.79,-59.24 167.57,-56.27"/>
<polygon fill="black" stroke="black" stroke-width="0.5" points="168.08,-57.95 172.43,-54.93 167.15,-54.57 168.08,-57.95"/>
</g>
<!-- NamedEntityMixin -->
<g id="node3" class="node">
<title>NamedEntityMixin</title>
<g id="a_node3"><a xlink:title="A ``NamedEntityMixin`` is a mixin class for all VHDL entities that have identifiers.">
<polygon fill="white" stroke="#1e90ff" points="120.5,-56 13.5,-56 13.5,-37 120.5,-37 120.5,-56"/>
<text text-anchor="middle" x="67" y="-44" font-family="Vera Sans, DejaVu Sans, Liberation Sans, Arial, Helvetica, sans" font-size="10.00">NamedEntityMixin</text>
</a>
</g>
</g>
<!-- NamedEntityMixin&#45;&gt;BaseType -->
<g id="edge2" class="edge">
<title>NamedEntityMixin&#45;&gt;BaseType</title>
<path fill="none" stroke="black" stroke-width="0.5" d="M120.58,-46.5C136.14,-46.5 152.82,-46.5 167.07,-46.5"/>
<polygon fill="black" stroke="black" stroke-width="0.5" points="167.2,-48.25 172.2,-46.5 167.2,-44.75 167.2,-48.25"/>
</g>
<!-- DocumentedEntityMixin -->
<g id="node4" class="node">
<title>DocumentedEntityMixin</title>
<g id="a_node4"><a xlink:title="A ``DocumentedEntityMixin`` is a mixin class for all VHDL entities that can have an associated documentation.">
<polygon fill="white" stroke="#1e90ff" points="134,-19 0,-19 0,0 134,0 134,-19"/>
<text text-anchor="middle" x="67" y="-7" font-family="Vera Sans, DejaVu Sans, Liberation Sans, Arial, Helvetica, sans" font-size="10.00">DocumentedEntityMixin</text>
</a>
</g>
</g>
<!-- DocumentedEntityMixin&#45;&gt;BaseType -->
<g id="edge3" class="edge">
<title>DocumentedEntityMixin&#45;&gt;BaseType</title>
<path fill="none" stroke="black" stroke-width="0.5" d="M102.77,-19.03C122.64,-24.48 147.52,-31.29 167.51,-36.77"/>
<polygon fill="black" stroke="black" stroke-width="0.5" points="167.2,-38.5 172.49,-38.14 168.13,-35.13 167.2,-38.5"/>
</g>
<!-- DOMMixin -->
<g id="node5" class="node">
<title>DOMMixin</title>
<g id="a_node5"><a xlink:href="../pyGHDL.dom.html#pyGHDL.dom.DOMMixin" xlink:title="DOMMixin" target="_top">
<polygon fill="white" stroke="#1e90ff" points="238,-93 170,-93 170,-74 238,-74 238,-93"/>
<text text-anchor="middle" x="204" y="-81" font-family="Vera Sans, DejaVu Sans, Liberation Sans, Arial, Helvetica, sans" font-size="10.00">DOMMixin</text>
</a>
</g>
</g>
<!-- DOMMixin&#45;&gt;Subtype -->
<g id="edge5" class="edge">
<title>DOMMixin&#45;&gt;Subtype</title>
<path fill="none" stroke="black" stroke-width="0.5" d="M238.04,-76.96C248.01,-74.99 258.95,-72.82 268.86,-70.86"/>
<polygon fill="black" stroke="black" stroke-width="0.5" points="269.38,-72.54 273.95,-69.85 268.7,-69.11 269.38,-72.54"/>
</g>
<!-- Subtype&#45;&gt;Subtype -->
<g id="edge4" class="edge">
<title>Subtype&#45;&gt;Subtype</title>
<path fill="none" stroke="black" stroke-width="0.5" d="M286.9,-74.08C279.55,-82.73 284.58,-92 302,-92 316.42,-92 322.36,-85.65 319.8,-78.55"/>
<polygon fill="black" stroke="black" stroke-width="0.5" points="321.18,-77.46 317.1,-74.08 318.19,-79.27 321.18,-77.46"/>
</g>
</g>
</svg>
