<?xml version="1.0" encoding="UTF-8" standalone="no"?>
<!DOCTYPE svg PUBLIC "-//W3C//DTD SVG 1.1//EN"
 "http://www.w3.org/Graphics/SVG/1.1/DTD/svg11.dtd">
<!-- Generated by graphviz version 2.43.0 (0)
 -->
<!-- Title: inheritance60a498c76a Pages: 1 -->
<svg width="555pt" height="175pt"
 viewBox="0.00 0.00 555.00 175.00" xmlns="http://www.w3.org/2000/svg" xmlns:xlink="http://www.w3.org/1999/xlink">
<g id="graph0" class="graph" transform="scale(1 1) rotate(0) translate(4 171)">
<title>inheritance60a498c76a</title>
<!-- Architecture -->
<g id="node1" class="node">
<title>Architecture</title>
<g id="a_node1"><a xlink:href="../pyGHDL/pyGHDL.dom.DesignUnit.html#pyGHDL.dom.DesignUnit.Architecture" xlink:title="Architecture" target="_top">
<polygon fill="white" stroke="#1e90ff" points="547,-93 471,-93 471,-74 547,-74 547,-93"/>
<text text-anchor="middle" x="509" y="-81" font-family="Vera Sans, DejaVu Sans, Liberation Sans, Arial, Helvetica, sans" font-size="10.00">Architecture</text>
</a>
</g>
</g>
<!-- Architecture&#45;&gt;Architecture -->
<g id="edge1" class="edge">
<title>Architecture&#45;&gt;Architecture</title>
<path fill="none" stroke="black" stroke-width="0.5" d="M485.57,-93.08C474.18,-101.73 481.98,-111 509,-111 532.22,-111 541.25,-104.16 536.1,-96.74"/>
<polygon fill="black" stroke="black" stroke-width="0.5" points="537.2,-95.37 532.43,-93.08 534.73,-97.85 537.2,-95.37"/>
</g>
<!-- DOMMixin -->
<g id="node2" class="node">
<title>DOMMixin</title>
<g id="a_node2"><a xlink:href="../pyGHDL.dom.html#pyGHDL.dom.DOMMixin" xlink:title="DOMMixin" target="_top">
<polygon fill="white" stroke="#1e90ff" points="390,-167 322,-167 322,-148 390,-148 390,-167"/>
<text text-anchor="middle" x="356" y="-155" font-family="Vera Sans, DejaVu Sans, Liberation Sans, Arial, Helvetica, sans" font-size="10.00">DOMMixin</text>
</a>
</g>
</g>
<!-- DOMMixin&#45;&gt;Architecture -->
<g id="edge2" class="edge">
<title>DOMMixin&#45;&gt;Architecture</title>
<path fill="none" stroke="black" stroke-width="0.5" d="M390.29,-153.05C404.53,-150.34 421.05,-146.08 435,-139.5 457.98,-128.67 480.58,-109.68 494.41,-96.85"/>
<polygon fill="black" stroke="black" stroke-width="0.5" points="495.62,-98.11 498.07,-93.41 493.23,-95.56 495.62,-98.11"/>
</g>
<!-- SecondaryUnit -->
<g id="node3" class="node">
<title>SecondaryUnit</title>
<g id="a_node3"><a xlink:title="A ``SecondaryUnit`` is a base&#45;class for all secondary units.">
<polygon fill="white" stroke="#1e90ff" points="400,-130 312,-130 312,-111 400,-111 400,-130"/>
<text text-anchor="middle" x="356" y="-118" font-family="Vera Sans, DejaVu Sans, Liberation Sans, Arial, Helvetica, sans" font-size="10.00">SecondaryUnit</text>
</a>
</g>
</g>
<!-- SecondaryUnit&#45;&gt;Architecture -->
<g id="edge3" class="edge">
<title>SecondaryUnit&#45;&gt;Architecture</title>
<path fill="none" stroke="black" stroke-width="0.5" d="M396.29,-110.95C408.67,-107.94 422.41,-104.59 435,-101.5 445.02,-99.04 455.82,-96.39 465.95,-93.89"/>
<polygon fill="black" stroke="black" stroke-width="0.5" points="466.43,-95.57 470.87,-92.68 465.59,-92.18 466.43,-95.57"/>
</g>
<!-- DesignUnitWithContextMixin -->
<g id="node4" class="node">
<title>DesignUnitWithContextMixin</title>
<polygon fill="white" stroke="#1e90ff" points="435,-93 277,-93 277,-74 435,-74 435,-93"/>
<text text-anchor="middle" x="356" y="-81" font-family="Vera Sans, DejaVu Sans, Liberation Sans, Arial, Helvetica, sans" font-size="10.00">DesignUnitWithContextMixin</text>
</g>
<!-- DesignUnitWithContextMixin&#45;&gt;Architecture -->
<g id="edge4" class="edge">
<title>DesignUnitWithContextMixin&#45;&gt;Architecture</title>
<path fill="none" stroke="black" stroke-width="0.5" d="M435.15,-83.5C445.6,-83.5 455.97,-83.5 465.48,-83.5"/>
<polygon fill="black" stroke="black" stroke-width="0.5" points="465.67,-85.25 470.67,-83.5 465.67,-81.75 465.67,-85.25"/>
</g>
<!-- ConcurrentDeclarations -->
<g id="node5" class="node">
<title>ConcurrentDeclarations</title>
<polygon fill="white" stroke="#1e90ff" points="421.5,-56 290.5,-56 290.5,-37 421.5,-37 421.5,-56"/>
<text text-anchor="middle" x="356" y="-44" font-family="Vera Sans, DejaVu Sans, Liberation Sans, Arial, Helvetica, sans" font-size="10.00">ConcurrentDeclarations</text>
</g>
<!-- ConcurrentDeclarations&#45;&gt;Architecture -->
<g id="edge5" class="edge">
<title>ConcurrentDeclarations&#45;&gt;Architecture</title>
<path fill="none" stroke="black" stroke-width="0.5" d="M399.15,-56C410.78,-58.68 423.39,-61.65 435,-64.5 445.38,-67.05 456.57,-69.9 466.99,-72.61"/>
<polygon fill="black" stroke="black" stroke-width="0.5" points="466.75,-74.36 472.03,-73.93 467.64,-70.97 466.75,-74.36"/>
</g>
<!-- ConcurrentStatements -->
<g id="node6" class="node">
<title>ConcurrentStatements</title>
<polygon fill="white" stroke="#1e90ff" points="419,-19 293,-19 293,0 419,0 419,-19"/>
<text text-anchor="middle" x="356" y="-7" font-family="Vera Sans, DejaVu Sans, Liberation Sans, Arial, Helvetica, sans" font-size="10.00">ConcurrentStatements</text>
</g>
<!-- ConcurrentStatements&#45;&gt;Architecture -->
<g id="edge6" class="edge">
<title>ConcurrentStatements&#45;&gt;Architecture</title>
<path fill="none" stroke="black" stroke-width="0.5" d="M412.13,-19.1C419.99,-21.36 427.83,-24.12 435,-27.5 457.98,-38.33 480.58,-57.32 494.41,-70.15"/>
<polygon fill="black" stroke="black" stroke-width="0.5" points="493.23,-71.44 498.07,-73.59 495.62,-68.89 493.23,-71.44"/>
</g>
<!-- DesignUnit -->
<g id="node7" class="node">
<title>DesignUnit</title>
<g id="a_node7"><a xlink:title="A ``DesignUnit`` is a base&#45;class for all design units.">
<polygon fill="white" stroke="#1e90ff" points="241,-130 170,-130 170,-111 241,-111 241,-130"/>
<text text-anchor="middle" x="205.5" y="-118" font-family="Vera Sans, DejaVu Sans, Liberation Sans, Arial, Helvetica, sans" font-size="10.00">DesignUnit</text>
</a>
</g>
</g>
<!-- DesignUnit&#45;&gt;SecondaryUnit -->
<g id="edge10" class="edge">
<title>DesignUnit&#45;&gt;SecondaryUnit</title>
<path fill="none" stroke="black" stroke-width="0.5" d="M241.32,-120.5C260.84,-120.5 285.49,-120.5 306.84,-120.5"/>
<polygon fill="black" stroke="black" stroke-width="0.5" points="306.91,-122.25 311.91,-120.5 306.91,-118.75 306.91,-122.25"/>
</g>
<!-- ModelEntity -->
<g id="node8" class="node">
<title>ModelEntity</title>
<g id="a_node8"><a xlink:title="``ModelEntity`` is the base&#45;class for all classes in the VHDL language model, except for mixin classes (see multiple">
<polygon fill="white" stroke="#1e90ff" points="104.5,-167 29.5,-167 29.5,-148 104.5,-148 104.5,-167"/>
<text text-anchor="middle" x="67" y="-155" font-family="Vera Sans, DejaVu Sans, Liberation Sans, Arial, Helvetica, sans" font-size="10.00">ModelEntity</text>
</a>
</g>
</g>
<!-- ModelEntity&#45;&gt;DesignUnit -->
<g id="edge7" class="edge">
<title>ModelEntity&#45;&gt;DesignUnit</title>
<path fill="none" stroke="black" stroke-width="0.5" d="M103.15,-147.97C122.09,-142.84 145.5,-136.49 165.06,-131.19"/>
<polygon fill="black" stroke="black" stroke-width="0.5" points="165.57,-132.87 169.94,-129.87 164.66,-129.49 165.57,-132.87"/>
</g>
<!-- NamedEntityMixin -->
<g id="node9" class="node">
<title>NamedEntityMixin</title>
<g id="a_node9"><a xlink:title="A ``NamedEntityMixin`` is a mixin class for all VHDL entities that have identifiers.">
<polygon fill="white" stroke="#1e90ff" points="120.5,-130 13.5,-130 13.5,-111 120.5,-111 120.5,-130"/>
<text text-anchor="middle" x="67" y="-118" font-family="Vera Sans, DejaVu Sans, Liberation Sans, Arial, Helvetica, sans" font-size="10.00">NamedEntityMixin</text>
</a>
</g>
</g>
<!-- NamedEntityMixin&#45;&gt;DesignUnit -->
<g id="edge8" class="edge">
<title>NamedEntityMixin&#45;&gt;DesignUnit</title>
<path fill="none" stroke="black" stroke-width="0.5" d="M120.77,-120.5C135.35,-120.5 150.91,-120.5 164.62,-120.5"/>
<polygon fill="black" stroke="black" stroke-width="0.5" points="164.97,-122.25 169.97,-120.5 164.97,-118.75 164.97,-122.25"/>
</g>
<!-- DocumentedEntityMixin -->
<g id="node10" class="node">
<title>DocumentedEntityMixin</title>
<g id="a_node10"><a xlink:title="A ``DocumentedEntityMixin`` is a mixin class for all VHDL entities that can have an associated documentation.">
<polygon fill="white" stroke="#1e90ff" points="134,-93 0,-93 0,-74 134,-74 134,-93"/>
<text text-anchor="middle" x="67" y="-81" font-family="Vera Sans, DejaVu Sans, Liberation Sans, Arial, Helvetica, sans" font-size="10.00">DocumentedEntityMixin</text>
</a>
</g>
</g>
<!-- DocumentedEntityMixin&#45;&gt;DesignUnit -->
<g id="edge9" class="edge">
<title>DocumentedEntityMixin&#45;&gt;DesignUnit</title>
<path fill="none" stroke="black" stroke-width="0.5" d="M103.15,-93.03C122.09,-98.16 145.5,-104.51 165.06,-109.81"/>
<polygon fill="black" stroke="black" stroke-width="0.5" points="164.66,-111.51 169.94,-111.13 165.57,-108.13 164.66,-111.51"/>
</g>
</g>
</svg>
