<?xml version="1.0" encoding="UTF-8" standalone="no"?>
<!DOCTYPE svg PUBLIC "-//W3C//DTD SVG 1.1//EN"
 "http://www.w3.org/Graphics/SVG/1.1/DTD/svg11.dtd">
<!-- Generated by graphviz version 2.43.0 (0)
 -->
<!-- Title: inheritance28708a8651 Pages: 1 -->
<svg width="576pt" height="55pt"
 viewBox="0.00 0.00 576.00 54.69" xmlns="http://www.w3.org/2000/svg" xmlns:xlink="http://www.w3.org/1999/xlink">
<g id="graph0" class="graph" transform="scale(1.17 1.17) rotate(0) translate(4 60)">
<title>inheritance28708a8651</title>
<!-- AscendingRangeExpression -->
<g id="node1" class="node">
<title>AscendingRangeExpression</title>
<g id="a_node1"><a xlink:href="../pyGHDL/pyGHDL.dom.Expression.html#pyGHDL.dom.Expression.AscendingRangeExpression" xlink:title="AscendingRangeExpression" target="_top">
<polygon fill="white" stroke="#1e90ff" points="666,-37 515,-37 515,-18 666,-18 666,-37"/>
<text text-anchor="middle" x="590.5" y="-25" font-family="Vera Sans, DejaVu Sans, Liberation Sans, Arial, Helvetica, sans" font-size="10.00">AscendingRangeExpression</text>
</a>
</g>
</g>
<!-- AscendingRangeExpression&#45;&gt;AscendingRangeExpression -->
<g id="edge1" class="edge">
<title>AscendingRangeExpression&#45;&gt;AscendingRangeExpression</title>
<path fill="none" stroke="black" stroke-width="0.5" d="M565.53,-37.08C553.38,-45.73 561.71,-55 590.5,-55 615.24,-55 624.87,-48.16 619.38,-40.74"/>
<polygon fill="black" stroke="black" stroke-width="0.5" points="620.32,-39.22 615.47,-37.08 617.92,-41.78 620.32,-39.22"/>
</g>
<!-- DOMMixin -->
<g id="node2" class="node">
<title>DOMMixin</title>
<g id="a_node2"><a xlink:href="../pyGHDL.dom.html#pyGHDL.dom.DOMMixin" xlink:title="DOMMixin" target="_top">
<polygon fill="white" stroke="#1e90ff" points="462.5,-56 394.5,-56 394.5,-37 462.5,-37 462.5,-56"/>
<text text-anchor="middle" x="428.5" y="-44" font-family="Vera Sans, DejaVu Sans, Liberation Sans, Arial, Helvetica, sans" font-size="10.00">DOMMixin</text>
</a>
</g>
</g>
<!-- DOMMixin&#45;&gt;AscendingRangeExpression -->
<g id="edge2" class="edge">
<title>DOMMixin&#45;&gt;AscendingRangeExpression</title>
<path fill="none" stroke="black" stroke-width="0.5" d="M462.65,-42.56C476.42,-40.93 493.05,-38.95 509.67,-36.98"/>
<polygon fill="black" stroke="black" stroke-width="0.5" points="510.07,-38.7 514.82,-36.37 509.65,-35.22 510.07,-38.7"/>
</g>
<!-- RangeExpression -->
<g id="node3" class="node">
<title>RangeExpression</title>
<polygon fill="white" stroke="#1e90ff" points="479,-19 378,-19 378,0 479,0 479,-19"/>
<text text-anchor="middle" x="428.5" y="-7" font-family="Vera Sans, DejaVu Sans, Liberation Sans, Arial, Helvetica, sans" font-size="10.00">RangeExpression</text>
</g>
<!-- RangeExpression&#45;&gt;AscendingRangeExpression -->
<g id="edge3" class="edge">
<title>RangeExpression&#45;&gt;AscendingRangeExpression</title>
<path fill="none" stroke="black" stroke-width="0.5" d="M479.25,-15.1C488.94,-16.19 499.34,-17.36 509.72,-18.53"/>
<polygon fill="black" stroke="black" stroke-width="0.5" points="509.66,-20.28 514.82,-19.1 510.05,-16.8 509.66,-20.28"/>
</g>
<!-- BaseExpression -->
<g id="node4" class="node">
<title>BaseExpression</title>
<g id="a_node4"><a xlink:title="A ``BaseExpression`` is a base&#45;class for all expressions.">
<polygon fill="white" stroke="#1e90ff" points="205,-19 111,-19 111,0 205,0 205,-19"/>
<text text-anchor="middle" x="158" y="-7" font-family="Vera Sans, DejaVu Sans, Liberation Sans, Arial, Helvetica, sans" font-size="10.00">BaseExpression</text>
</a>
</g>
</g>
<!-- BinaryExpression -->
<g id="node6" class="node">
<title>BinaryExpression</title>
<g id="a_node6"><a xlink:title="A ``BinaryExpression`` is a base&#45;class for all binary expressions.">
<polygon fill="white" stroke="#1e90ff" points="342,-19 241,-19 241,0 342,0 342,-19"/>
<text text-anchor="middle" x="291.5" y="-7" font-family="Vera Sans, DejaVu Sans, Liberation Sans, Arial, Helvetica, sans" font-size="10.00">BinaryExpression</text>
</a>
</g>
</g>
<!-- BaseExpression&#45;&gt;BinaryExpression -->
<g id="edge5" class="edge">
<title>BaseExpression&#45;&gt;BinaryExpression</title>
<path fill="none" stroke="black" stroke-width="0.5" d="M205.36,-9.5C215.19,-9.5 225.64,-9.5 235.74,-9.5"/>
<polygon fill="black" stroke="black" stroke-width="0.5" points="235.99,-11.25 240.99,-9.5 235.99,-7.75 235.99,-11.25"/>
</g>
<!-- ModelEntity -->
<g id="node5" class="node">
<title>ModelEntity</title>
<g id="a_node5"><a xlink:title="``ModelEntity`` is the base&#45;class for all classes in the VHDL language model, except for mixin classes (see multiple">
<polygon fill="white" stroke="#1e90ff" points="75,-19 0,-19 0,0 75,0 75,-19"/>
<text text-anchor="middle" x="37.5" y="-7" font-family="Vera Sans, DejaVu Sans, Liberation Sans, Arial, Helvetica, sans" font-size="10.00">ModelEntity</text>
</a>
</g>
</g>
<!-- ModelEntity&#45;&gt;BaseExpression -->
<g id="edge4" class="edge">
<title>ModelEntity&#45;&gt;BaseExpression</title>
<path fill="none" stroke="black" stroke-width="0.5" d="M75.02,-9.5C84.72,-9.5 95.38,-9.5 105.71,-9.5"/>
<polygon fill="black" stroke="black" stroke-width="0.5" points="105.75,-11.25 110.75,-9.5 105.75,-7.75 105.75,-11.25"/>
</g>
<!-- BinaryExpression&#45;&gt;RangeExpression -->
<g id="edge6" class="edge">
<title>BinaryExpression&#45;&gt;RangeExpression</title>
<path fill="none" stroke="black" stroke-width="0.5" d="M342,-9.5C351.87,-9.5 362.29,-9.5 372.34,-9.5"/>
<polygon fill="black" stroke="black" stroke-width="0.5" points="372.55,-11.25 377.55,-9.5 372.55,-7.75 372.55,-11.25"/>
</g>
</g>
</svg>
