<?xml version="1.0" encoding="UTF-8" standalone="no"?>
<!DOCTYPE svg PUBLIC "-//W3C//DTD SVG 1.1//EN"
 "http://www.w3.org/Graphics/SVG/1.1/DTD/svg11.dtd">
<!-- Generated by graphviz version 2.43.0 (0)
 -->
<!-- Title: inheritance0630be94b2 Pages: 1 -->
<svg width="576pt" height="128pt"
 viewBox="0.00 0.00 576.00 127.79" xmlns="http://www.w3.org/2000/svg" xmlns:xlink="http://www.w3.org/1999/xlink">
<g id="graph0" class="graph" transform="scale(1.08 1.08) rotate(0) translate(4 134)">
<title>inheritance0630be94b2</title>
<!-- DOMMixin -->
<g id="node1" class="node">
<title>DOMMixin</title>
<g id="a_node1"><a xlink:href="../pyGHDL.dom.html#pyGHDL.dom.DOMMixin" xlink:title="DOMMixin" target="_top">
<polygon fill="white" stroke="#1e90ff" points="383,-130 315,-130 315,-111 383,-111 383,-130"/>
<text text-anchor="middle" x="349" y="-118" font-family="Vera Sans, DejaVu Sans, Liberation Sans, Arial, Helvetica, sans" font-size="10.00">DOMMixin</text>
</a>
</g>
</g>
<!-- GenericProcedureInterfaceItem -->
<g id="node5" class="node">
<title>GenericProcedureInterfaceItem</title>
<g id="a_node5"><a xlink:href="../pyGHDL/pyGHDL.dom.InterfaceItem.html#pyGHDL.dom.InterfaceItem.GenericProcedureInterfaceItem" xlink:title="GenericProcedureInterfaceItem" target="_top">
<polygon fill="white" stroke="#1e90ff" points="614,-93 445,-93 445,-74 614,-74 614,-93"/>
<text text-anchor="middle" x="529.5" y="-81" font-family="Vera Sans, DejaVu Sans, Liberation Sans, Arial, Helvetica, sans" font-size="10.00">GenericProcedureInterfaceItem</text>
</a>
</g>
</g>
<!-- DOMMixin&#45;&gt;GenericProcedureInterfaceItem -->
<g id="edge3" class="edge">
<title>DOMMixin&#45;&gt;GenericProcedureInterfaceItem</title>
<path fill="none" stroke="black" stroke-width="0.5" d="M383.16,-113.63C409.56,-108.15 446.97,-100.4 477.22,-94.13"/>
<polygon fill="black" stroke="black" stroke-width="0.5" points="477.86,-95.78 482.4,-93.06 477.15,-92.36 477.86,-95.78"/>
</g>
<!-- DocumentedEntityMixin -->
<g id="node2" class="node">
<title>DocumentedEntityMixin</title>
<g id="a_node2"><a xlink:title="A ``DocumentedEntityMixin`` is a mixin class for all VHDL entities that can have an associated documentation.">
<polygon fill="white" stroke="#1e90ff" points="134,-93 0,-93 0,-74 134,-74 134,-93"/>
<text text-anchor="middle" x="67" y="-81" font-family="Vera Sans, DejaVu Sans, Liberation Sans, Arial, Helvetica, sans" font-size="10.00">DocumentedEntityMixin</text>
</a>
</g>
</g>
<!-- InterfaceItem -->
<g id="node4" class="node">
<title>InterfaceItem</title>
<g id="a_node4"><a xlink:title="An ``InterfaceItem`` is a base&#45;class for all mixin&#45;classes for all interface items.">
<polygon fill="white" stroke="#1e90ff" points="253,-93 170,-93 170,-74 253,-74 253,-93"/>
<text text-anchor="middle" x="211.5" y="-81" font-family="Vera Sans, DejaVu Sans, Liberation Sans, Arial, Helvetica, sans" font-size="10.00">InterfaceItem</text>
</a>
</g>
</g>
<!-- DocumentedEntityMixin&#45;&gt;InterfaceItem -->
<g id="edge6" class="edge">
<title>DocumentedEntityMixin&#45;&gt;InterfaceItem</title>
<path fill="none" stroke="black" stroke-width="0.5" d="M134.24,-83.5C144.42,-83.5 154.74,-83.5 164.36,-83.5"/>
<polygon fill="black" stroke="black" stroke-width="0.5" points="164.62,-85.25 169.62,-83.5 164.62,-81.75 164.62,-85.25"/>
</g>
<!-- Subprogram -->
<g id="node9" class="node">
<title>Subprogram</title>
<polygon fill="white" stroke="#1e90ff" points="249.5,-56 173.5,-56 173.5,-37 249.5,-37 249.5,-56"/>
<text text-anchor="middle" x="211.5" y="-44" font-family="Vera Sans, DejaVu Sans, Liberation Sans, Arial, Helvetica, sans" font-size="10.00">Subprogram</text>
</g>
<!-- DocumentedEntityMixin&#45;&gt;Subprogram -->
<g id="edge10" class="edge">
<title>DocumentedEntityMixin&#45;&gt;Subprogram</title>
<path fill="none" stroke="black" stroke-width="0.5" d="M104.7,-73.97C124.16,-68.92 148.16,-62.69 168.38,-57.44"/>
<polygon fill="black" stroke="black" stroke-width="0.5" points="169.03,-59.08 173.43,-56.12 168.15,-55.69 169.03,-59.08"/>
</g>
<!-- GenericInterfaceItem -->
<g id="node3" class="node">
<title>GenericInterfaceItem</title>
<g id="a_node3"><a xlink:title="A ``GenericInterfaceItem`` is a mixin class for all generic interface items.">
<polygon fill="white" stroke="#1e90ff" points="409,-93 289,-93 289,-74 409,-74 409,-93"/>
<text text-anchor="middle" x="349" y="-81" font-family="Vera Sans, DejaVu Sans, Liberation Sans, Arial, Helvetica, sans" font-size="10.00">GenericInterfaceItem</text>
</a>
</g>
</g>
<!-- GenericInterfaceItem&#45;&gt;GenericProcedureInterfaceItem -->
<g id="edge5" class="edge">
<title>GenericInterfaceItem&#45;&gt;GenericProcedureInterfaceItem</title>
<path fill="none" stroke="black" stroke-width="0.5" d="M409.44,-83.5C419.2,-83.5 429.5,-83.5 439.79,-83.5"/>
<polygon fill="black" stroke="black" stroke-width="0.5" points="439.84,-85.25 444.84,-83.5 439.84,-81.75 439.84,-85.25"/>
</g>
<!-- InterfaceItem&#45;&gt;GenericInterfaceItem -->
<g id="edge1" class="edge">
<title>InterfaceItem&#45;&gt;GenericInterfaceItem</title>
<path fill="none" stroke="black" stroke-width="0.5" d="M253.15,-83.5C262.8,-83.5 273.33,-83.5 283.74,-83.5"/>
<polygon fill="black" stroke="black" stroke-width="0.5" points="283.84,-85.25 288.84,-83.5 283.84,-81.75 283.84,-85.25"/>
</g>
<!-- GenericProcedureInterfaceItem&#45;&gt;GenericProcedureInterfaceItem -->
<g id="edge2" class="edge">
<title>GenericProcedureInterfaceItem&#45;&gt;GenericProcedureInterfaceItem</title>
<path fill="none" stroke="black" stroke-width="0.5" d="M501.76,-93.08C488.26,-101.73 497.51,-111 529.5,-111 557.49,-111 568.07,-103.91 561.24,-96.34"/>
<polygon fill="black" stroke="black" stroke-width="0.5" points="562.23,-94.88 557.24,-93.08 560.02,-97.6 562.23,-94.88"/>
</g>
<!-- Procedure -->
<g id="node6" class="node">
<title>Procedure</title>
<polygon fill="white" stroke="#1e90ff" points="381.5,-56 316.5,-56 316.5,-37 381.5,-37 381.5,-56"/>
<text text-anchor="middle" x="349" y="-44" font-family="Vera Sans, DejaVu Sans, Liberation Sans, Arial, Helvetica, sans" font-size="10.00">Procedure</text>
</g>
<!-- Procedure&#45;&gt;GenericProcedureInterfaceItem -->
<g id="edge4" class="edge">
<title>Procedure&#45;&gt;GenericProcedureInterfaceItem</title>
<path fill="none" stroke="black" stroke-width="0.5" d="M381.5,-53.03C408.1,-58.54 446.7,-66.54 477.67,-72.96"/>
<polygon fill="black" stroke="black" stroke-width="0.5" points="477.32,-74.68 482.57,-73.98 478.03,-71.25 477.32,-74.68"/>
</g>
<!-- ModelEntity -->
<g id="node7" class="node">
<title>ModelEntity</title>
<g id="a_node7"><a xlink:title="``ModelEntity`` is the base&#45;class for all classes in the VHDL language model, except for mixin classes (see multiple">
<polygon fill="white" stroke="#1e90ff" points="104.5,-56 29.5,-56 29.5,-37 104.5,-37 104.5,-56"/>
<text text-anchor="middle" x="67" y="-44" font-family="Vera Sans, DejaVu Sans, Liberation Sans, Arial, Helvetica, sans" font-size="10.00">ModelEntity</text>
</a>
</g>
</g>
<!-- ModelEntity&#45;&gt;Subprogram -->
<g id="edge8" class="edge">
<title>ModelEntity&#45;&gt;Subprogram</title>
<path fill="none" stroke="black" stroke-width="0.5" d="M104.7,-46.5C124.16,-46.5 148.16,-46.5 168.38,-46.5"/>
<polygon fill="black" stroke="black" stroke-width="0.5" points="168.43,-48.25 173.43,-46.5 168.43,-44.75 168.43,-48.25"/>
</g>
<!-- NamedEntityMixin -->
<g id="node8" class="node">
<title>NamedEntityMixin</title>
<g id="a_node8"><a xlink:title="A ``NamedEntityMixin`` is a mixin class for all VHDL entities that have identifiers.">
<polygon fill="white" stroke="#1e90ff" points="120.5,-19 13.5,-19 13.5,0 120.5,0 120.5,-19"/>
<text text-anchor="middle" x="67" y="-7" font-family="Vera Sans, DejaVu Sans, Liberation Sans, Arial, Helvetica, sans" font-size="10.00">NamedEntityMixin</text>
</a>
</g>
</g>
<!-- NamedEntityMixin&#45;&gt;Subprogram -->
<g id="edge9" class="edge">
<title>NamedEntityMixin&#45;&gt;Subprogram</title>
<path fill="none" stroke="black" stroke-width="0.5" d="M104.7,-19.03C124.16,-24.08 148.16,-30.31 168.38,-35.56"/>
<polygon fill="black" stroke="black" stroke-width="0.5" points="168.15,-37.31 173.43,-36.88 169.03,-33.92 168.15,-37.31"/>
</g>
<!-- Subprogram&#45;&gt;Procedure -->
<g id="edge7" class="edge">
<title>Subprogram&#45;&gt;Procedure</title>
<path fill="none" stroke="black" stroke-width="0.5" d="M249.53,-46.5C268.58,-46.5 291.74,-46.5 310.82,-46.5"/>
<polygon fill="black" stroke="black" stroke-width="0.5" points="311.08,-48.25 316.08,-46.5 311.08,-44.75 311.08,-48.25"/>
</g>
</g>
</svg>
