<?xml version="1.0" encoding="UTF-8" standalone="no"?>
<!DOCTYPE svg PUBLIC "-//W3C//DTD SVG 1.1//EN"
 "http://www.w3.org/Graphics/SVG/1.1/DTD/svg11.dtd">
<!-- Generated by graphviz version 2.43.0 (0)
 -->
<!-- Title: inheritanceb9bd81935c Pages: 1 -->
<svg width="576pt" height="146pt"
 viewBox="0.00 0.00 576.00 145.88" xmlns="http://www.w3.org/2000/svg" xmlns:xlink="http://www.w3.org/1999/xlink">
<g id="graph0" class="graph" transform="scale(1.2 1.2) rotate(0) translate(4 171)">
<title>inheritanceb9bd81935c</title>
<!-- BaseType -->
<g id="node1" class="node">
<title>BaseType</title>
<g id="a_node1"><a xlink:title="``BaseType`` is the base&#45;class of all type entities in this model.">
<polygon fill="white" stroke="#1e90ff" points="233,-56 170,-56 170,-37 233,-37 233,-56"/>
<text text-anchor="middle" x="201.5" y="-44" font-family="Vera Sans, DejaVu Sans, Liberation Sans, Arial, Helvetica, sans" font-size="10.00">BaseType</text>
</a>
</g>
</g>
<!-- FullType -->
<g id="node7" class="node">
<title>FullType</title>
<polygon fill="white" stroke="#1e90ff" points="325,-56 269,-56 269,-37 325,-37 325,-56"/>
<text text-anchor="middle" x="297" y="-44" font-family="Vera Sans, DejaVu Sans, Liberation Sans, Arial, Helvetica, sans" font-size="10.00">FullType</text>
</g>
<!-- BaseType&#45;&gt;FullType -->
<g id="edge4" class="edge">
<title>BaseType&#45;&gt;FullType</title>
<path fill="none" stroke="black" stroke-width="0.5" d="M233.12,-46.5C242.91,-46.5 253.79,-46.5 263.7,-46.5"/>
<polygon fill="black" stroke="black" stroke-width="0.5" points="263.78,-48.25 268.78,-46.5 263.78,-44.75 263.78,-48.25"/>
</g>
<!-- ModelEntity -->
<g id="node2" class="node">
<title>ModelEntity</title>
<g id="a_node2"><a xlink:title="``ModelEntity`` is the base&#45;class for all classes in the VHDL language model, except for mixin classes (see multiple">
<polygon fill="white" stroke="#1e90ff" points="104.5,-93 29.5,-93 29.5,-74 104.5,-74 104.5,-93"/>
<text text-anchor="middle" x="67" y="-81" font-family="Vera Sans, DejaVu Sans, Liberation Sans, Arial, Helvetica, sans" font-size="10.00">ModelEntity</text>
</a>
</g>
</g>
<!-- ModelEntity&#45;&gt;BaseType -->
<g id="edge1" class="edge">
<title>ModelEntity&#45;&gt;BaseType</title>
<path fill="none" stroke="black" stroke-width="0.5" d="M103.3,-73.96C113.24,-71.25 124.05,-68.28 134,-65.5 144.04,-62.7 154.91,-59.61 164.91,-56.76"/>
<polygon fill="black" stroke="black" stroke-width="0.5" points="165.41,-58.43 169.73,-55.37 164.44,-55.07 165.41,-58.43"/>
</g>
<!-- NamedEntityMixin -->
<g id="node3" class="node">
<title>NamedEntityMixin</title>
<g id="a_node3"><a xlink:title="A ``NamedEntityMixin`` is a mixin class for all VHDL entities that have identifiers.">
<polygon fill="white" stroke="#1e90ff" points="120.5,-56 13.5,-56 13.5,-37 120.5,-37 120.5,-56"/>
<text text-anchor="middle" x="67" y="-44" font-family="Vera Sans, DejaVu Sans, Liberation Sans, Arial, Helvetica, sans" font-size="10.00">NamedEntityMixin</text>
</a>
</g>
</g>
<!-- NamedEntityMixin&#45;&gt;BaseType -->
<g id="edge2" class="edge">
<title>NamedEntityMixin&#45;&gt;BaseType</title>
<path fill="none" stroke="black" stroke-width="0.5" d="M120.75,-46.5C135.4,-46.5 150.98,-46.5 164.44,-46.5"/>
<polygon fill="black" stroke="black" stroke-width="0.5" points="164.68,-48.25 169.68,-46.5 164.68,-44.75 164.68,-48.25"/>
</g>
<!-- DocumentedEntityMixin -->
<g id="node4" class="node">
<title>DocumentedEntityMixin</title>
<g id="a_node4"><a xlink:title="A ``DocumentedEntityMixin`` is a mixin class for all VHDL entities that can have an associated documentation.">
<polygon fill="white" stroke="#1e90ff" points="134,-19 0,-19 0,0 134,0 134,-19"/>
<text text-anchor="middle" x="67" y="-7" font-family="Vera Sans, DejaVu Sans, Liberation Sans, Arial, Helvetica, sans" font-size="10.00">DocumentedEntityMixin</text>
</a>
</g>
</g>
<!-- DocumentedEntityMixin&#45;&gt;BaseType -->
<g id="edge3" class="edge">
<title>DocumentedEntityMixin&#45;&gt;BaseType</title>
<path fill="none" stroke="black" stroke-width="0.5" d="M102.12,-19.03C121.35,-24.4 145.34,-31.1 164.82,-36.54"/>
<polygon fill="black" stroke="black" stroke-width="0.5" points="164.38,-38.23 169.66,-37.89 165.32,-34.86 164.38,-38.23"/>
</g>
<!-- DOMMixin -->
<g id="node5" class="node">
<title>DOMMixin</title>
<g id="a_node5"><a xlink:href="../pyGHDL.dom.html#pyGHDL.dom.DOMMixin" xlink:title="DOMMixin" target="_top">
<polygon fill="white" stroke="#1e90ff" points="553.5,-167 485.5,-167 485.5,-148 553.5,-148 553.5,-167"/>
<text text-anchor="middle" x="519.5" y="-155" font-family="Vera Sans, DejaVu Sans, Liberation Sans, Arial, Helvetica, sans" font-size="10.00">DOMMixin</text>
</a>
</g>
</g>
<!-- IntegerType -->
<g id="node8" class="node">
<title>IntegerType</title>
<g id="a_node8"><a xlink:href="../pyGHDL/pyGHDL.dom.Type.html#pyGHDL.dom.Type.IntegerType" xlink:title="IntegerType" target="_top">
<polygon fill="white" stroke="#1e90ff" points="683,-111 609,-111 609,-92 683,-92 683,-111"/>
<text text-anchor="middle" x="646" y="-99" font-family="Vera Sans, DejaVu Sans, Liberation Sans, Arial, Helvetica, sans" font-size="10.00">IntegerType</text>
</a>
</g>
</g>
<!-- DOMMixin&#45;&gt;IntegerType -->
<g id="edge6" class="edge">
<title>DOMMixin&#45;&gt;IntegerType</title>
<path fill="none" stroke="black" stroke-width="0.5" d="M551.07,-147.92C558.34,-145.39 566.01,-142.52 573,-139.5 590.6,-131.89 609.77,-121.68 623.9,-113.75"/>
<polygon fill="black" stroke="black" stroke-width="0.5" points="624.99,-115.14 628.49,-111.16 623.27,-112.1 624.99,-115.14"/>
</g>
<!-- DiscreteTypeMixin -->
<g id="node6" class="node">
<title>DiscreteTypeMixin</title>
<g id="a_node6"><a xlink:title="A ``DiscreteType`` is a mixin class for all discrete types.">
<polygon fill="white" stroke="#1e90ff" points="573,-130 466,-130 466,-111 573,-111 573,-130"/>
<text text-anchor="middle" x="519.5" y="-118" font-family="Vera Sans, DejaVu Sans, Liberation Sans, Arial, Helvetica, sans" font-size="10.00">DiscreteTypeMixin</text>
</a>
</g>
</g>
<!-- DiscreteTypeMixin&#45;&gt;IntegerType -->
<g id="edge9" class="edge">
<title>DiscreteTypeMixin&#45;&gt;IntegerType</title>
<path fill="none" stroke="black" stroke-width="0.5" d="M573.3,-112.44C583.46,-110.89 593.96,-109.29 603.69,-107.8"/>
<polygon fill="black" stroke="black" stroke-width="0.5" points="604.02,-109.52 608.7,-107.04 603.5,-106.06 604.02,-109.52"/>
</g>
<!-- ScalarType -->
<g id="node11" class="node">
<title>ScalarType</title>
<g id="a_node11"><a xlink:title="A ``ScalarType`` is a base&#45;class for all scalar types.">
<polygon fill="white" stroke="#1e90ff" points="430,-56 361,-56 361,-37 430,-37 430,-56"/>
<text text-anchor="middle" x="395.5" y="-44" font-family="Vera Sans, DejaVu Sans, Liberation Sans, Arial, Helvetica, sans" font-size="10.00">ScalarType</text>
</a>
</g>
</g>
<!-- FullType&#45;&gt;ScalarType -->
<g id="edge11" class="edge">
<title>FullType&#45;&gt;ScalarType</title>
<path fill="none" stroke="black" stroke-width="0.5" d="M325.14,-46.5C334.54,-46.5 345.27,-46.5 355.43,-46.5"/>
<polygon fill="black" stroke="black" stroke-width="0.5" points="355.69,-48.25 360.69,-46.5 355.69,-44.75 355.69,-48.25"/>
</g>
<!-- IntegerType&#45;&gt;IntegerType -->
<g id="edge5" class="edge">
<title>IntegerType&#45;&gt;IntegerType</title>
<path fill="none" stroke="black" stroke-width="0.5" d="M626.58,-111.08C617.13,-119.73 623.61,-129 646,-129 664.9,-129 672.46,-122.4 668.68,-115.15"/>
<polygon fill="black" stroke="black" stroke-width="0.5" points="669.92,-113.89 665.42,-111.08 667.19,-116.08 669.92,-113.89"/>
</g>
<!-- RangedScalarType -->
<g id="node9" class="node">
<title>RangedScalarType</title>
<g id="a_node9"><a xlink:title="A ``RangedScalarType`` is a base&#45;class for all scalar types with a range.">
<polygon fill="white" stroke="#1e90ff" points="572.5,-56 466.5,-56 466.5,-37 572.5,-37 572.5,-56"/>
<text text-anchor="middle" x="519.5" y="-44" font-family="Vera Sans, DejaVu Sans, Liberation Sans, Arial, Helvetica, sans" font-size="10.00">RangedScalarType</text>
</a>
</g>
</g>
<!-- RangedScalarType&#45;&gt;IntegerType -->
<g id="edge7" class="edge">
<title>RangedScalarType&#45;&gt;IntegerType</title>
<path fill="none" stroke="black" stroke-width="0.5" d="M548.8,-56.06C556.71,-58.91 565.25,-62.17 573,-65.5 589.96,-72.78 608.58,-82.13 622.64,-89.48"/>
<polygon fill="black" stroke="black" stroke-width="0.5" points="621.98,-91.11 627.22,-91.89 623.61,-88.01 621.98,-91.11"/>
</g>
<!-- NumericTypeMixin -->
<g id="node10" class="node">
<title>NumericTypeMixin</title>
<g id="a_node10"><a xlink:title="A ``NumericType`` is a mixin class for all numeric types.">
<polygon fill="white" stroke="#1e90ff" points="573,-93 466,-93 466,-74 573,-74 573,-93"/>
<text text-anchor="middle" x="519.5" y="-81" font-family="Vera Sans, DejaVu Sans, Liberation Sans, Arial, Helvetica, sans" font-size="10.00">NumericTypeMixin</text>
</a>
</g>
</g>
<!-- NumericTypeMixin&#45;&gt;IntegerType -->
<g id="edge8" class="edge">
<title>NumericTypeMixin&#45;&gt;IntegerType</title>
<path fill="none" stroke="black" stroke-width="0.5" d="M573.3,-91.13C583.46,-92.6 593.96,-94.12 603.69,-95.53"/>
<polygon fill="black" stroke="black" stroke-width="0.5" points="603.5,-97.27 608.7,-96.25 604,-93.8 603.5,-97.27"/>
</g>
<!-- ScalarType&#45;&gt;RangedScalarType -->
<g id="edge10" class="edge">
<title>ScalarType&#45;&gt;RangedScalarType</title>
<path fill="none" stroke="black" stroke-width="0.5" d="M430.16,-46.5C439.74,-46.5 450.45,-46.5 461.02,-46.5"/>
<polygon fill="black" stroke="black" stroke-width="0.5" points="461.19,-48.25 466.19,-46.5 461.19,-44.75 461.19,-48.25"/>
</g>
</g>
</svg>
