<?xml version="1.0" encoding="UTF-8" standalone="no"?>
<!DOCTYPE svg PUBLIC "-//W3C//DTD SVG 1.1//EN"
 "http://www.w3.org/Graphics/SVG/1.1/DTD/svg11.dtd">
<!-- Generated by graphviz version 2.43.0 (0)
 -->
<!-- Title: inheritance801b934d6d Pages: 1 -->
<svg width="576pt" height="71pt"
 viewBox="0.00 0.00 576.00 71.38" xmlns="http://www.w3.org/2000/svg" xmlns:xlink="http://www.w3.org/1999/xlink">
<g id="graph0" class="graph" transform="scale(1.4 1.4) rotate(0) translate(4 96)">
<title>inheritance801b934d6d</title>
<!-- CompoundStatement -->
<g id="node1" class="node">
<title>CompoundStatement</title>
<g id="a_node1"><a xlink:title="A ``CompoundStatement`` is a base&#45;class for all compound statements.">
<polygon fill="white" stroke="#1e90ff" points="527.5,-37 407.5,-37 407.5,-18 527.5,-18 527.5,-37"/>
<text text-anchor="middle" x="467.5" y="-25" font-family="Vera Sans, DejaVu Sans, Liberation Sans, Arial, Helvetica, sans" font-size="10.00">CompoundStatement</text>
</a>
</g>
</g>
<!-- LoopStatement -->
<g id="node5" class="node">
<title>LoopStatement</title>
<g id="a_node5"><a xlink:title="A ``LoopStatement`` is a base&#45;class for all loop statements.">
<polygon fill="white" stroke="#1e90ff" points="657,-55 566,-55 566,-36 657,-36 657,-55"/>
<text text-anchor="middle" x="611.5" y="-43" font-family="Vera Sans, DejaVu Sans, Liberation Sans, Arial, Helvetica, sans" font-size="10.00">LoopStatement</text>
</a>
</g>
</g>
<!-- CompoundStatement&#45;&gt;LoopStatement -->
<g id="edge5" class="edge">
<title>CompoundStatement&#45;&gt;LoopStatement</title>
<path fill="none" stroke="black" stroke-width="0.5" d="M527.9,-35.03C538.74,-36.4 549.95,-37.82 560.49,-39.16"/>
<polygon fill="black" stroke="black" stroke-width="0.5" points="560.42,-40.92 565.6,-39.81 560.86,-37.44 560.42,-40.92"/>
</g>
<!-- SequentialStatement -->
<g id="node2" class="node">
<title>SequentialStatement</title>
<g id="a_node2"><a xlink:title="A ``SequentialStatement`` is a base&#45;class for all sequential statements.">
<polygon fill="white" stroke="#1e90ff" points="369,-37 250,-37 250,-18 369,-18 369,-37"/>
<text text-anchor="middle" x="309.5" y="-25" font-family="Vera Sans, DejaVu Sans, Liberation Sans, Arial, Helvetica, sans" font-size="10.00">SequentialStatement</text>
</a>
</g>
</g>
<!-- SequentialStatement&#45;&gt;CompoundStatement -->
<g id="edge1" class="edge">
<title>SequentialStatement&#45;&gt;CompoundStatement</title>
<path fill="none" stroke="black" stroke-width="0.5" d="M369.03,-27.5C379.9,-27.5 391.31,-27.5 402.34,-27.5"/>
<polygon fill="black" stroke="black" stroke-width="0.5" points="402.38,-29.25 407.38,-27.5 402.38,-25.75 402.38,-29.25"/>
</g>
<!-- DOMMixin -->
<g id="node3" class="node">
<title>DOMMixin</title>
<g id="a_node3"><a xlink:href="../pyGHDL.dom.html#pyGHDL.dom.DOMMixin" xlink:title="DOMMixin" target="_top">
<polygon fill="white" stroke="#1e90ff" points="645.5,-92 577.5,-92 577.5,-73 645.5,-73 645.5,-92"/>
<text text-anchor="middle" x="611.5" y="-80" font-family="Vera Sans, DejaVu Sans, Liberation Sans, Arial, Helvetica, sans" font-size="10.00">DOMMixin</text>
</a>
</g>
</g>
<!-- ForLoopStatement -->
<g id="node4" class="node">
<title>ForLoopStatement</title>
<g id="a_node4"><a xlink:href="../pyGHDL/pyGHDL.dom.Sequential.html#pyGHDL.dom.Sequential.ForLoopStatement" xlink:title="ForLoopStatement" target="_top">
<polygon fill="white" stroke="#1e90ff" points="799,-73 693,-73 693,-54 799,-54 799,-73"/>
<text text-anchor="middle" x="746" y="-61" font-family="Vera Sans, DejaVu Sans, Liberation Sans, Arial, Helvetica, sans" font-size="10.00">ForLoopStatement</text>
</a>
</g>
</g>
<!-- DOMMixin&#45;&gt;ForLoopStatement -->
<g id="edge3" class="edge">
<title>DOMMixin&#45;&gt;ForLoopStatement</title>
<path fill="none" stroke="black" stroke-width="0.5" d="M645.59,-77.75C658.29,-75.93 673.18,-73.8 687.51,-71.74"/>
<polygon fill="black" stroke="black" stroke-width="0.5" points="688.06,-73.43 692.76,-70.99 687.56,-69.97 688.06,-73.43"/>
</g>
<!-- ForLoopStatement&#45;&gt;ForLoopStatement -->
<g id="edge2" class="edge">
<title>ForLoopStatement&#45;&gt;ForLoopStatement</title>
<path fill="none" stroke="black" stroke-width="0.5" d="M725.35,-73.08C715.3,-81.73 722.18,-91 746,-91 766.1,-91 774.14,-84.4 770.12,-77.15"/>
<polygon fill="black" stroke="black" stroke-width="0.5" points="771.23,-75.75 766.65,-73.08 768.57,-78.02 771.23,-75.75"/>
</g>
<!-- LoopStatement&#45;&gt;ForLoopStatement -->
<g id="edge4" class="edge">
<title>LoopStatement&#45;&gt;ForLoopStatement</title>
<path fill="none" stroke="black" stroke-width="0.5" d="M657.36,-51.59C667.17,-52.93 677.67,-54.35 687.89,-55.74"/>
<polygon fill="black" stroke="black" stroke-width="0.5" points="687.68,-57.48 692.87,-56.42 688.15,-54.01 687.68,-57.48"/>
</g>
<!-- LabeledEntityMixin -->
<g id="node6" class="node">
<title>LabeledEntityMixin</title>
<g id="a_node6"><a xlink:title="A ``LabeledEntityMixin`` is a mixin class for all VHDL entities that can have labels.">
<polygon fill="white" stroke="#1e90ff" points="110,-56 0,-56 0,-37 110,-37 110,-56"/>
<text text-anchor="middle" x="55" y="-44" font-family="Vera Sans, DejaVu Sans, Liberation Sans, Arial, Helvetica, sans" font-size="10.00">LabeledEntityMixin</text>
</a>
</g>
</g>
<!-- Statement -->
<g id="node9" class="node">
<title>Statement</title>
<g id="a_node9"><a xlink:title="A ``Statement`` is a base&#45;class for all statements.">
<polygon fill="white" stroke="#1e90ff" points="214,-37 146,-37 146,-18 214,-18 214,-37"/>
<text text-anchor="middle" x="180" y="-25" font-family="Vera Sans, DejaVu Sans, Liberation Sans, Arial, Helvetica, sans" font-size="10.00">Statement</text>
</a>
</g>
</g>
<!-- LabeledEntityMixin&#45;&gt;Statement -->
<g id="edge9" class="edge">
<title>LabeledEntityMixin&#45;&gt;Statement</title>
<path fill="none" stroke="black" stroke-width="0.5" d="M110.31,-38.11C120.61,-36.52 131.19,-34.89 140.86,-33.39"/>
<polygon fill="black" stroke="black" stroke-width="0.5" points="141.15,-35.12 145.83,-32.62 140.62,-31.66 141.15,-35.12"/>
</g>
<!-- SequentialStatements -->
<g id="node7" class="node">
<title>SequentialStatements</title>
<polygon fill="white" stroke="#1e90ff" points="530,-74 405,-74 405,-55 530,-55 530,-74"/>
<text text-anchor="middle" x="467.5" y="-62" font-family="Vera Sans, DejaVu Sans, Liberation Sans, Arial, Helvetica, sans" font-size="10.00">SequentialStatements</text>
</g>
<!-- SequentialStatements&#45;&gt;LoopStatement -->
<g id="edge6" class="edge">
<title>SequentialStatements&#45;&gt;LoopStatement</title>
<path fill="none" stroke="black" stroke-width="0.5" d="M530.37,-56.22C540.55,-54.86 550.99,-53.46 560.83,-52.15"/>
<polygon fill="black" stroke="black" stroke-width="0.5" points="561.19,-53.86 565.91,-51.47 560.72,-50.39 561.19,-53.86"/>
</g>
<!-- ModelEntity -->
<g id="node8" class="node">
<title>ModelEntity</title>
<g id="a_node8"><a xlink:title="``ModelEntity`` is the base&#45;class for all classes in the VHDL language model, except for mixin classes (see multiple">
<polygon fill="white" stroke="#1e90ff" points="92.5,-19 17.5,-19 17.5,0 92.5,0 92.5,-19"/>
<text text-anchor="middle" x="55" y="-7" font-family="Vera Sans, DejaVu Sans, Liberation Sans, Arial, Helvetica, sans" font-size="10.00">ModelEntity</text>
</a>
</g>
</g>
<!-- ModelEntity&#45;&gt;Statement -->
<g id="edge8" class="edge">
<title>ModelEntity&#45;&gt;Statement</title>
<path fill="none" stroke="black" stroke-width="0.5" d="M92.57,-14.85C107.71,-17.07 125.28,-19.64 140.61,-21.88"/>
<polygon fill="black" stroke="black" stroke-width="0.5" points="140.51,-23.64 145.72,-22.63 141.02,-20.17 140.51,-23.64"/>
</g>
<!-- Statement&#45;&gt;SequentialStatement -->
<g id="edge7" class="edge">
<title>Statement&#45;&gt;SequentialStatement</title>
<path fill="none" stroke="black" stroke-width="0.5" d="M214.17,-27.5C223.55,-27.5 234.09,-27.5 244.64,-27.5"/>
<polygon fill="black" stroke="black" stroke-width="0.5" points="244.81,-29.25 249.81,-27.5 244.81,-25.75 244.81,-29.25"/>
</g>
</g>
</svg>
