<?xml version="1.0" encoding="UTF-8" standalone="no"?>
<!DOCTYPE svg PUBLIC "-//W3C//DTD SVG 1.1//EN"
 "http://www.w3.org/Graphics/SVG/1.1/DTD/svg11.dtd">
<!-- Generated by graphviz version 2.43.0 (0)
 -->
<!-- Title: inheritance655ab2ff05 Pages: 1 -->
<svg width="406pt" height="64pt"
 viewBox="0.00 0.00 406.00 64.00" xmlns="http://www.w3.org/2000/svg" xmlns:xlink="http://www.w3.org/1999/xlink">
<g id="graph0" class="graph" transform="scale(1 1) rotate(0) translate(4 60)">
<title>inheritance655ab2ff05</title>
<!-- AggregateElement -->
<g id="node1" class="node">
<title>AggregateElement</title>
<g id="a_node1"><a xlink:title="A ``AggregateElement`` is a base&#45;class for all aggregate elements.">
<polygon fill="white" stroke="#1e90ff" points="218,-19 111,-19 111,0 218,0 218,-19"/>
<text text-anchor="middle" x="164.5" y="-7" font-family="Vera Sans, DejaVu Sans, Liberation Sans, Arial, Helvetica, sans" font-size="10.00">AggregateElement</text>
</a>
</g>
</g>
<!-- RangedAggregateElement -->
<g id="node4" class="node">
<title>RangedAggregateElement</title>
<g id="a_node4"><a xlink:href="../pyGHDL/pyGHDL.dom.Aggregates.html#pyGHDL.dom.Aggregates.RangedAggregateElement" xlink:title="RangedAggregateElement" target="_top">
<polygon fill="white" stroke="#1e90ff" points="398,-37 254,-37 254,-18 398,-18 398,-37"/>
<text text-anchor="middle" x="326" y="-25" font-family="Vera Sans, DejaVu Sans, Liberation Sans, Arial, Helvetica, sans" font-size="10.00">RangedAggregateElement</text>
</a>
</g>
</g>
<!-- AggregateElement&#45;&gt;RangedAggregateElement -->
<g id="edge4" class="edge">
<title>AggregateElement&#45;&gt;RangedAggregateElement</title>
<path fill="none" stroke="black" stroke-width="0.5" d="M218.17,-15.44C227.99,-16.55 238.44,-17.73 248.81,-18.9"/>
<polygon fill="black" stroke="black" stroke-width="0.5" points="248.72,-20.65 253.89,-19.47 249.12,-17.18 248.72,-20.65"/>
</g>
<!-- ModelEntity -->
<g id="node2" class="node">
<title>ModelEntity</title>
<g id="a_node2"><a xlink:title="``ModelEntity`` is the base&#45;class for all classes in the VHDL language model, except for mixin classes (see multiple">
<polygon fill="white" stroke="#1e90ff" points="75,-19 0,-19 0,0 75,0 75,-19"/>
<text text-anchor="middle" x="37.5" y="-7" font-family="Vera Sans, DejaVu Sans, Liberation Sans, Arial, Helvetica, sans" font-size="10.00">ModelEntity</text>
</a>
</g>
</g>
<!-- ModelEntity&#45;&gt;AggregateElement -->
<g id="edge1" class="edge">
<title>ModelEntity&#45;&gt;AggregateElement</title>
<path fill="none" stroke="black" stroke-width="0.5" d="M75.33,-9.5C84.86,-9.5 95.35,-9.5 105.68,-9.5"/>
<polygon fill="black" stroke="black" stroke-width="0.5" points="105.73,-11.25 110.73,-9.5 105.73,-7.75 105.73,-11.25"/>
</g>
<!-- DOMMixin -->
<g id="node3" class="node">
<title>DOMMixin</title>
<g id="a_node3"><a xlink:href="../pyGHDL.dom.html#pyGHDL.dom.DOMMixin" xlink:title="DOMMixin" target="_top">
<polygon fill="white" stroke="#1e90ff" points="198.5,-56 130.5,-56 130.5,-37 198.5,-37 198.5,-56"/>
<text text-anchor="middle" x="164.5" y="-44" font-family="Vera Sans, DejaVu Sans, Liberation Sans, Arial, Helvetica, sans" font-size="10.00">DOMMixin</text>
</a>
</g>
</g>
<!-- DOMMixin&#45;&gt;RangedAggregateElement -->
<g id="edge3" class="edge">
<title>DOMMixin&#45;&gt;RangedAggregateElement</title>
<path fill="none" stroke="black" stroke-width="0.5" d="M198.55,-42.56C213.23,-40.81 231.17,-38.68 248.87,-36.57"/>
<polygon fill="black" stroke="black" stroke-width="0.5" points="249.09,-38.3 253.85,-35.98 248.68,-34.83 249.09,-38.3"/>
</g>
<!-- RangedAggregateElement&#45;&gt;RangedAggregateElement -->
<g id="edge2" class="edge">
<title>RangedAggregateElement&#45;&gt;RangedAggregateElement</title>
<path fill="none" stroke="black" stroke-width="0.5" d="M301.34,-37.08C289.34,-45.73 297.56,-55 326,-55 350.44,-55 359.95,-48.16 354.52,-40.74"/>
<polygon fill="black" stroke="black" stroke-width="0.5" points="355.49,-39.25 350.66,-37.08 353.09,-41.79 355.49,-39.25"/>
</g>
</g>
</svg>
