<?xml version="1.0" encoding="UTF-8" standalone="no"?>
<!DOCTYPE svg PUBLIC "-//W3C//DTD SVG 1.1//EN"
 "http://www.w3.org/Graphics/SVG/1.1/DTD/svg11.dtd">
<!-- Generated by graphviz version 2.43.0 (0)
 -->
<!-- Title: inheritancece5df97909 Pages: 1 -->
<svg width="576pt" height="47pt"
 viewBox="0.00 0.00 576.00 47.26" xmlns="http://www.w3.org/2000/svg" xmlns:xlink="http://www.w3.org/1999/xlink">
<g id="graph0" class="graph" transform="scale(1.35 1.35) rotate(0) translate(4 60)">
<title>inheritancece5df97909</title>
<!-- BaseExpression -->
<g id="node1" class="node">
<title>BaseExpression</title>
<g id="a_node1"><a xlink:title="A ``BaseExpression`` is a base&#45;class for all expressions.">
<polygon fill="white" stroke="#1e90ff" points="205,-19 111,-19 111,0 205,0 205,-19"/>
<text text-anchor="middle" x="158" y="-7" font-family="Vera Sans, DejaVu Sans, Liberation Sans, Arial, Helvetica, sans" font-size="10.00">BaseExpression</text>
</a>
</g>
</g>
<!-- BinaryExpression -->
<g id="node3" class="node">
<title>BinaryExpression</title>
<g id="a_node3"><a xlink:title="A ``BinaryExpression`` is a base&#45;class for all binary expressions.">
<polygon fill="white" stroke="#1e90ff" points="342,-19 241,-19 241,0 342,0 342,-19"/>
<text text-anchor="middle" x="291.5" y="-7" font-family="Vera Sans, DejaVu Sans, Liberation Sans, Arial, Helvetica, sans" font-size="10.00">BinaryExpression</text>
</a>
</g>
</g>
<!-- BaseExpression&#45;&gt;BinaryExpression -->
<g id="edge2" class="edge">
<title>BaseExpression&#45;&gt;BinaryExpression</title>
<path fill="none" stroke="black" stroke-width="0.5" d="M205.36,-9.5C215.19,-9.5 225.64,-9.5 235.74,-9.5"/>
<polygon fill="black" stroke="black" stroke-width="0.5" points="235.99,-11.25 240.99,-9.5 235.99,-7.75 235.99,-11.25"/>
</g>
<!-- ModelEntity -->
<g id="node2" class="node">
<title>ModelEntity</title>
<g id="a_node2"><a xlink:title="``ModelEntity`` is the base&#45;class for all classes in the VHDL language model, except for mixin classes (see multiple">
<polygon fill="white" stroke="#1e90ff" points="75,-19 0,-19 0,0 75,0 75,-19"/>
<text text-anchor="middle" x="37.5" y="-7" font-family="Vera Sans, DejaVu Sans, Liberation Sans, Arial, Helvetica, sans" font-size="10.00">ModelEntity</text>
</a>
</g>
</g>
<!-- ModelEntity&#45;&gt;BaseExpression -->
<g id="edge1" class="edge">
<title>ModelEntity&#45;&gt;BaseExpression</title>
<path fill="none" stroke="black" stroke-width="0.5" d="M75.02,-9.5C84.72,-9.5 95.38,-9.5 105.71,-9.5"/>
<polygon fill="black" stroke="black" stroke-width="0.5" points="105.75,-11.25 110.75,-9.5 105.75,-7.75 105.75,-11.25"/>
</g>
<!-- ShiftExpression -->
<g id="node6" class="node">
<title>ShiftExpression</title>
<g id="a_node6"><a xlink:title="A ``ShiftExpression`` is a base&#45;class for all shifting expressions.">
<polygon fill="white" stroke="#1e90ff" points="470,-19 378,-19 378,0 470,0 470,-19"/>
<text text-anchor="middle" x="424" y="-7" font-family="Vera Sans, DejaVu Sans, Liberation Sans, Arial, Helvetica, sans" font-size="10.00">ShiftExpression</text>
</a>
</g>
</g>
<!-- BinaryExpression&#45;&gt;ShiftExpression -->
<g id="edge7" class="edge">
<title>BinaryExpression&#45;&gt;ShiftExpression</title>
<path fill="none" stroke="black" stroke-width="0.5" d="M342.21,-9.5C352.15,-9.5 362.59,-9.5 372.55,-9.5"/>
<polygon fill="black" stroke="black" stroke-width="0.5" points="372.71,-11.25 377.71,-9.5 372.71,-7.75 372.71,-11.25"/>
</g>
<!-- DOMMixin -->
<g id="node4" class="node">
<title>DOMMixin</title>
<g id="a_node4"><a xlink:href="../pyGHDL.dom.html#pyGHDL.dom.DOMMixin" xlink:title="DOMMixin" target="_top">
<polygon fill="white" stroke="#1e90ff" points="591,-56 523,-56 523,-37 591,-37 591,-56"/>
<text text-anchor="middle" x="557" y="-44" font-family="Vera Sans, DejaVu Sans, Liberation Sans, Arial, Helvetica, sans" font-size="10.00">DOMMixin</text>
</a>
</g>
</g>
<!-- RotateRightExpression -->
<g id="node7" class="node">
<title>RotateRightExpression</title>
<g id="a_node7"><a xlink:href="../pyGHDL/pyGHDL.dom.Expression.html#pyGHDL.dom.Expression.RotateRightExpression" xlink:title="RotateRightExpression" target="_top">
<polygon fill="white" stroke="#1e90ff" points="772,-37 644,-37 644,-18 772,-18 772,-37"/>
<text text-anchor="middle" x="708" y="-25" font-family="Vera Sans, DejaVu Sans, Liberation Sans, Arial, Helvetica, sans" font-size="10.00">RotateRightExpression</text>
</a>
</g>
</g>
<!-- DOMMixin&#45;&gt;RotateRightExpression -->
<g id="edge5" class="edge">
<title>DOMMixin&#45;&gt;RotateRightExpression</title>
<path fill="none" stroke="black" stroke-width="0.5" d="M591.07,-42.28C605.13,-40.49 622.08,-38.33 638.63,-36.22"/>
<polygon fill="black" stroke="black" stroke-width="0.5" points="639.01,-37.93 643.75,-35.57 638.57,-34.46 639.01,-37.93"/>
</g>
<!-- RotateExpression -->
<g id="node5" class="node">
<title>RotateExpression</title>
<polygon fill="white" stroke="#1e90ff" points="608,-19 506,-19 506,0 608,0 608,-19"/>
<text text-anchor="middle" x="557" y="-7" font-family="Vera Sans, DejaVu Sans, Liberation Sans, Arial, Helvetica, sans" font-size="10.00">RotateExpression</text>
</g>
<!-- RotateExpression&#45;&gt;RotateRightExpression -->
<g id="edge6" class="edge">
<title>RotateExpression&#45;&gt;RotateRightExpression</title>
<path fill="none" stroke="black" stroke-width="0.5" d="M608.03,-15.54C617.91,-16.74 628.44,-18.01 638.8,-19.26"/>
<polygon fill="black" stroke="black" stroke-width="0.5" points="638.7,-21.01 643.87,-19.87 639.12,-17.54 638.7,-21.01"/>
</g>
<!-- ShiftExpression&#45;&gt;RotateExpression -->
<g id="edge3" class="edge">
<title>ShiftExpression&#45;&gt;RotateExpression</title>
<path fill="none" stroke="black" stroke-width="0.5" d="M470.08,-9.5C480,-9.5 490.62,-9.5 500.89,-9.5"/>
<polygon fill="black" stroke="black" stroke-width="0.5" points="500.9,-11.25 505.9,-9.5 500.9,-7.75 500.9,-11.25"/>
</g>
<!-- RotateRightExpression&#45;&gt;RotateRightExpression -->
<g id="edge4" class="edge">
<title>RotateRightExpression&#45;&gt;RotateRightExpression</title>
<path fill="none" stroke="black" stroke-width="0.5" d="M684.88,-37.08C673.63,-45.73 681.34,-55 708,-55 730.91,-55 739.82,-48.16 734.74,-40.74"/>
<polygon fill="black" stroke="black" stroke-width="0.5" points="735.88,-39.41 731.12,-37.08 733.39,-41.87 735.88,-39.41"/>
</g>
</g>
</svg>
