<?xml version="1.0" encoding="UTF-8" standalone="no"?>
<!DOCTYPE svg PUBLIC "-//W3C//DTD SVG 1.1//EN"
 "http://www.w3.org/Graphics/SVG/1.1/DTD/svg11.dtd">
<!-- Generated by graphviz version 2.43.0 (0)
 -->
<!-- Title: inheritance9f4d5fbf4c Pages: 1 -->
<svg width="501pt" height="64pt"
 viewBox="0.00 0.00 501.00 64.00" xmlns="http://www.w3.org/2000/svg" xmlns:xlink="http://www.w3.org/1999/xlink">
<g id="graph0" class="graph" transform="scale(1 1) rotate(0) translate(4 60)">
<title>inheritance9f4d5fbf4c</title>
<!-- BaseChoice -->
<g id="node1" class="node">
<title>BaseChoice</title>
<g id="a_node1"><a xlink:title="A ``Choice`` is a base&#45;class for all choices.">
<polygon fill="white" stroke="#1e90ff" points="185,-19 111,-19 111,0 185,0 185,-19"/>
<text text-anchor="middle" x="148" y="-7" font-family="Vera Sans, DejaVu Sans, Liberation Sans, Arial, Helvetica, sans" font-size="10.00">BaseChoice</text>
</a>
</g>
</g>
<!-- ConcurrentChoice -->
<g id="node3" class="node">
<title>ConcurrentChoice</title>
<g id="a_node3"><a xlink:title="A ``ConcurrentChoice`` is a base&#45;class for all concurrent choices (in case...generate statements).">
<polygon fill="white" stroke="#1e90ff" points="324,-19 221,-19 221,0 324,0 324,-19"/>
<text text-anchor="middle" x="272.5" y="-7" font-family="Vera Sans, DejaVu Sans, Liberation Sans, Arial, Helvetica, sans" font-size="10.00">ConcurrentChoice</text>
</a>
</g>
</g>
<!-- BaseChoice&#45;&gt;ConcurrentChoice -->
<g id="edge2" class="edge">
<title>BaseChoice&#45;&gt;ConcurrentChoice</title>
<path fill="none" stroke="black" stroke-width="0.5" d="M185.09,-9.5C194.67,-9.5 205.25,-9.5 215.62,-9.5"/>
<polygon fill="black" stroke="black" stroke-width="0.5" points="215.69,-11.25 220.69,-9.5 215.69,-7.75 215.69,-11.25"/>
</g>
<!-- ModelEntity -->
<g id="node2" class="node">
<title>ModelEntity</title>
<g id="a_node2"><a xlink:title="``ModelEntity`` is the base&#45;class for all classes in the VHDL language model, except for mixin classes (see multiple">
<polygon fill="white" stroke="#1e90ff" points="75,-19 0,-19 0,0 75,0 75,-19"/>
<text text-anchor="middle" x="37.5" y="-7" font-family="Vera Sans, DejaVu Sans, Liberation Sans, Arial, Helvetica, sans" font-size="10.00">ModelEntity</text>
</a>
</g>
</g>
<!-- ModelEntity&#45;&gt;BaseChoice -->
<g id="edge1" class="edge">
<title>ModelEntity&#45;&gt;BaseChoice</title>
<path fill="none" stroke="black" stroke-width="0.5" d="M75.23,-9.5C84.97,-9.5 95.55,-9.5 105.52,-9.5"/>
<polygon fill="black" stroke="black" stroke-width="0.5" points="105.67,-11.25 110.67,-9.5 105.67,-7.75 105.67,-11.25"/>
</g>
<!-- IndexedGenerateChoice -->
<g id="node5" class="node">
<title>IndexedGenerateChoice</title>
<g id="a_node5"><a xlink:href="../pyGHDL/pyGHDL.dom.Concurrent.html#pyGHDL.dom.Concurrent.IndexedGenerateChoice" xlink:title="IndexedGenerateChoice" target="_top">
<polygon fill="white" stroke="#1e90ff" points="493,-37 360,-37 360,-18 493,-18 493,-37"/>
<text text-anchor="middle" x="426.5" y="-25" font-family="Vera Sans, DejaVu Sans, Liberation Sans, Arial, Helvetica, sans" font-size="10.00">IndexedGenerateChoice</text>
</a>
</g>
</g>
<!-- ConcurrentChoice&#45;&gt;IndexedGenerateChoice -->
<g id="edge5" class="edge">
<title>ConcurrentChoice&#45;&gt;IndexedGenerateChoice</title>
<path fill="none" stroke="black" stroke-width="0.5" d="M324.11,-15.49C333.98,-16.66 344.5,-17.91 354.88,-19.14"/>
<polygon fill="black" stroke="black" stroke-width="0.5" points="354.79,-20.89 359.96,-19.74 355.21,-17.41 354.79,-20.89"/>
</g>
<!-- DOMMixin -->
<g id="node4" class="node">
<title>DOMMixin</title>
<g id="a_node4"><a xlink:href="../pyGHDL.dom.html#pyGHDL.dom.DOMMixin" xlink:title="DOMMixin" target="_top">
<polygon fill="white" stroke="#1e90ff" points="306.5,-56 238.5,-56 238.5,-37 306.5,-37 306.5,-56"/>
<text text-anchor="middle" x="272.5" y="-44" font-family="Vera Sans, DejaVu Sans, Liberation Sans, Arial, Helvetica, sans" font-size="10.00">DOMMixin</text>
</a>
</g>
</g>
<!-- DOMMixin&#45;&gt;IndexedGenerateChoice -->
<g id="edge4" class="edge">
<title>DOMMixin&#45;&gt;IndexedGenerateChoice</title>
<path fill="none" stroke="black" stroke-width="0.5" d="M306.86,-42.33C320.95,-40.57 337.95,-38.44 354.61,-36.36"/>
<polygon fill="black" stroke="black" stroke-width="0.5" points="355.02,-38.07 359.76,-35.72 354.59,-34.6 355.02,-38.07"/>
</g>
<!-- IndexedGenerateChoice&#45;&gt;IndexedGenerateChoice -->
<g id="edge3" class="edge">
<title>IndexedGenerateChoice&#45;&gt;IndexedGenerateChoice</title>
<path fill="none" stroke="black" stroke-width="0.5" d="M402.76,-37.08C391.22,-45.73 399.13,-55 426.5,-55 450.02,-55 459.17,-48.16 453.95,-40.74"/>
<polygon fill="black" stroke="black" stroke-width="0.5" points="455.03,-39.34 450.24,-37.08 452.57,-41.84 455.03,-39.34"/>
</g>
</g>
</svg>
