<?xml version="1.0" encoding="UTF-8" standalone="no"?>
<!DOCTYPE svg PUBLIC "-//W3C//DTD SVG 1.1//EN"
 "http://www.w3.org/Graphics/SVG/1.1/DTD/svg11.dtd">
<!-- Generated by graphviz version 2.43.0 (0)
 -->
<!-- Title: inheritance88e9d1aaa6 Pages: 1 -->
<svg width="562pt" height="156pt"
 viewBox="0.00 0.00 562.00 156.00" xmlns="http://www.w3.org/2000/svg" xmlns:xlink="http://www.w3.org/1999/xlink">
<g id="graph0" class="graph" transform="scale(1 1) rotate(0) translate(4 152)">
<title>inheritance88e9d1aaa6</title>
<!-- BranchMixin -->
<g id="node1" class="node">
<title>BranchMixin</title>
<g id="a_node1"><a xlink:title="A ``BaseBranch`` is a mixin&#45;class for all statements with branches.">
<polygon fill="white" stroke="#1e90ff" points="88,-148 11,-148 11,-129 88,-129 88,-148"/>
<text text-anchor="middle" x="49.5" y="-136" font-family="Vera Sans, DejaVu Sans, Liberation Sans, Arial, Helvetica, sans" font-size="10.00">BranchMixin</text>
</a>
</g>
</g>
<!-- ConditionalBranchMixin -->
<g id="node4" class="node">
<title>ConditionalBranchMixin</title>
<g id="a_node4"><a xlink:title="A ``BaseBranch`` is a mixin&#45;class for all branch statements with a condition.">
<polygon fill="white" stroke="#1e90ff" points="268,-130 135,-130 135,-111 268,-111 268,-130"/>
<text text-anchor="middle" x="201.5" y="-118" font-family="Vera Sans, DejaVu Sans, Liberation Sans, Arial, Helvetica, sans" font-size="10.00">ConditionalBranchMixin</text>
</a>
</g>
</g>
<!-- BranchMixin&#45;&gt;ConditionalBranchMixin -->
<g id="edge1" class="edge">
<title>BranchMixin&#45;&gt;ConditionalBranchMixin</title>
<path fill="none" stroke="black" stroke-width="0.5" d="M88.35,-133.96C100.95,-132.45 115.42,-130.71 129.69,-129"/>
<polygon fill="black" stroke="black" stroke-width="0.5" points="130.18,-130.7 134.93,-128.37 129.76,-127.23 130.18,-130.7"/>
</g>
<!-- ConcurrentDeclarations -->
<g id="node2" class="node">
<title>ConcurrentDeclarations</title>
<polygon fill="white" stroke="#1e90ff" points="267,-93 136,-93 136,-74 267,-74 267,-93"/>
<text text-anchor="middle" x="201.5" y="-81" font-family="Vera Sans, DejaVu Sans, Liberation Sans, Arial, Helvetica, sans" font-size="10.00">ConcurrentDeclarations</text>
</g>
<!-- GenerateBranch -->
<g id="node8" class="node">
<title>GenerateBranch</title>
<g id="a_node8"><a xlink:title="A ``GenerateBranch`` is a base&#45;class for all branches in a generate statements.">
<polygon fill="white" stroke="#1e90ff" points="400.5,-74 305.5,-74 305.5,-55 400.5,-55 400.5,-74"/>
<text text-anchor="middle" x="353" y="-62" font-family="Vera Sans, DejaVu Sans, Liberation Sans, Arial, Helvetica, sans" font-size="10.00">GenerateBranch</text>
</a>
</g>
</g>
<!-- ConcurrentDeclarations&#45;&gt;GenerateBranch -->
<g id="edge8" class="edge">
<title>ConcurrentDeclarations&#45;&gt;GenerateBranch</title>
<path fill="none" stroke="black" stroke-width="0.5" d="M267.2,-75.28C278.19,-73.88 289.47,-72.45 300.07,-71.1"/>
<polygon fill="black" stroke="black" stroke-width="0.5" points="300.48,-72.81 305.22,-70.45 300.04,-69.34 300.48,-72.81"/>
</g>
<!-- ConcurrentStatements -->
<g id="node3" class="node">
<title>ConcurrentStatements</title>
<polygon fill="white" stroke="#1e90ff" points="264.5,-56 138.5,-56 138.5,-37 264.5,-37 264.5,-56"/>
<text text-anchor="middle" x="201.5" y="-44" font-family="Vera Sans, DejaVu Sans, Liberation Sans, Arial, Helvetica, sans" font-size="10.00">ConcurrentStatements</text>
</g>
<!-- ConcurrentStatements&#45;&gt;GenerateBranch -->
<g id="edge9" class="edge">
<title>ConcurrentStatements&#45;&gt;GenerateBranch</title>
<path fill="none" stroke="black" stroke-width="0.5" d="M264.6,-53.98C276.43,-55.4 288.69,-56.88 300.16,-58.26"/>
<polygon fill="black" stroke="black" stroke-width="0.5" points="300.19,-60.02 305.36,-58.89 300.61,-56.55 300.19,-60.02"/>
</g>
<!-- ElsifBranchMixin -->
<g id="node6" class="node">
<title>ElsifBranchMixin</title>
<g id="a_node6"><a xlink:title="A ``BaseElsifBranch`` is a mixin&#45;class for all elsif&#45;branches.">
<polygon fill="white" stroke="#1e90ff" points="402,-120 304,-120 304,-101 402,-101 402,-120"/>
<text text-anchor="middle" x="353" y="-108" font-family="Vera Sans, DejaVu Sans, Liberation Sans, Arial, Helvetica, sans" font-size="10.00">ElsifBranchMixin</text>
</a>
</g>
</g>
<!-- ConditionalBranchMixin&#45;&gt;ElsifBranchMixin -->
<g id="edge3" class="edge">
<title>ConditionalBranchMixin&#45;&gt;ElsifBranchMixin</title>
<path fill="none" stroke="black" stroke-width="0.5" d="M268.07,-116.11C278.23,-115.43 288.61,-114.74 298.46,-114.08"/>
<polygon fill="black" stroke="black" stroke-width="0.5" points="298.69,-115.82 303.56,-113.74 298.45,-112.33 298.69,-115.82"/>
</g>
<!-- ConditionalMixin -->
<g id="node5" class="node">
<title>ConditionalMixin</title>
<g id="a_node5"><a xlink:title="A ``BaseConditional`` is a mixin&#45;class for all statements with a condition.">
<polygon fill="white" stroke="#1e90ff" points="99,-111 0,-111 0,-92 99,-92 99,-111"/>
<text text-anchor="middle" x="49.5" y="-99" font-family="Vera Sans, DejaVu Sans, Liberation Sans, Arial, Helvetica, sans" font-size="10.00">ConditionalMixin</text>
</a>
</g>
</g>
<!-- ConditionalMixin&#45;&gt;ConditionalBranchMixin -->
<g id="edge2" class="edge">
<title>ConditionalMixin&#45;&gt;ConditionalBranchMixin</title>
<path fill="none" stroke="black" stroke-width="0.5" d="M99.2,-107.67C108.98,-108.91 119.44,-110.23 129.79,-111.54"/>
<polygon fill="black" stroke="black" stroke-width="0.5" points="129.68,-113.29 134.86,-112.19 130.12,-109.82 129.68,-113.29"/>
</g>
<!-- ElsifGenerateBranch -->
<g id="node7" class="node">
<title>ElsifGenerateBranch</title>
<g id="a_node7"><a xlink:href="../pyGHDL/pyGHDL.dom.Concurrent.html#pyGHDL.dom.Concurrent.ElsifGenerateBranch" xlink:title="ElsifGenerateBranch" target="_top">
<polygon fill="white" stroke="#1e90ff" points="554,-92 438,-92 438,-73 554,-73 554,-92"/>
<text text-anchor="middle" x="496" y="-80" font-family="Vera Sans, DejaVu Sans, Liberation Sans, Arial, Helvetica, sans" font-size="10.00">ElsifGenerateBranch</text>
</a>
</g>
</g>
<!-- ElsifBranchMixin&#45;&gt;ElsifGenerateBranch -->
<g id="edge6" class="edge">
<title>ElsifBranchMixin&#45;&gt;ElsifGenerateBranch</title>
<path fill="none" stroke="black" stroke-width="0.5" d="M402.13,-100.94C414.95,-98.4 428.87,-95.63 441.93,-93.04"/>
<polygon fill="black" stroke="black" stroke-width="0.5" points="442.52,-94.71 447.09,-92.01 441.84,-91.27 442.52,-94.71"/>
</g>
<!-- ElsifGenerateBranch&#45;&gt;ElsifGenerateBranch -->
<g id="edge4" class="edge">
<title>ElsifGenerateBranch&#45;&gt;ElsifGenerateBranch</title>
<path fill="none" stroke="black" stroke-width="0.5" d="M474.11,-92.08C463.47,-100.73 470.76,-110 496,-110 517.69,-110 526.13,-103.16 521.31,-95.74"/>
<polygon fill="black" stroke="black" stroke-width="0.5" points="522.58,-94.54 517.89,-92.08 520.03,-96.93 522.58,-94.54"/>
</g>
<!-- GenerateBranch&#45;&gt;ElsifGenerateBranch -->
<g id="edge5" class="edge">
<title>GenerateBranch&#45;&gt;ElsifGenerateBranch</title>
<path fill="none" stroke="black" stroke-width="0.5" d="M400.56,-70.44C410.92,-71.77 422.07,-73.19 432.95,-74.58"/>
<polygon fill="black" stroke="black" stroke-width="0.5" points="432.74,-76.32 437.92,-75.21 433.18,-72.84 432.74,-76.32"/>
</g>
<!-- ModelEntity -->
<g id="node9" class="node">
<title>ModelEntity</title>
<g id="a_node9"><a xlink:title="``ModelEntity`` is the base&#45;class for all classes in the VHDL language model, except for mixin classes (see multiple">
<polygon fill="white" stroke="#1e90ff" points="239,-19 164,-19 164,0 239,0 239,-19"/>
<text text-anchor="middle" x="201.5" y="-7" font-family="Vera Sans, DejaVu Sans, Liberation Sans, Arial, Helvetica, sans" font-size="10.00">ModelEntity</text>
</a>
</g>
</g>
<!-- ModelEntity&#45;&gt;GenerateBranch -->
<g id="edge7" class="edge">
<title>ModelEntity&#45;&gt;GenerateBranch</title>
<path fill="none" stroke="black" stroke-width="0.5" d="M238.45,-19.07C248.12,-21.88 258.52,-25.11 268,-28.5 288.04,-35.67 310.14,-45.21 326.64,-52.67"/>
<polygon fill="black" stroke="black" stroke-width="0.5" points="326.29,-54.43 331.57,-54.91 327.74,-51.25 326.29,-54.43"/>
</g>
</g>
</svg>
