<?xml version="1.0" encoding="UTF-8" standalone="no"?>
<!DOCTYPE svg PUBLIC "-//W3C//DTD SVG 1.1//EN"
 "http://www.w3.org/Graphics/SVG/1.1/DTD/svg11.dtd">
<!-- Generated by graphviz version 2.43.0 (0)
 -->
<!-- Title: inheritance877a8edba2 Pages: 1 -->
<svg width="576pt" height="92pt"
 viewBox="0.00 0.00 576.00 92.49" xmlns="http://www.w3.org/2000/svg" xmlns:xlink="http://www.w3.org/1999/xlink">
<g id="graph0" class="graph" transform="scale(1.09 1.09) rotate(0) translate(4 97)">
<title>inheritance877a8edba2</title>
<!-- DOMMixin -->
<g id="node1" class="node">
<title>DOMMixin</title>
<g id="a_node1"><a xlink:href="../pyGHDL.dom.html#pyGHDL.dom.DOMMixin" xlink:title="DOMMixin" target="_top">
<polygon fill="white" stroke="#1e90ff" points="402.5,-93 334.5,-93 334.5,-74 402.5,-74 402.5,-93"/>
<text text-anchor="middle" x="368.5" y="-81" font-family="Vera Sans, DejaVu Sans, Liberation Sans, Arial, Helvetica, sans" font-size="10.00">DOMMixin</text>
</a>
</g>
</g>
<!-- ParameterFileInterfaceItem -->
<g id="node8" class="node">
<title>ParameterFileInterfaceItem</title>
<g id="a_node8"><a xlink:href="../pyGHDL/pyGHDL.dom.InterfaceItem.html#pyGHDL.dom.InterfaceItem.ParameterFileInterfaceItem" xlink:title="ParameterFileInterfaceItem" target="_top">
<polygon fill="white" stroke="#1e90ff" points="621,-56 471,-56 471,-37 621,-37 621,-56"/>
<text text-anchor="middle" x="546" y="-44" font-family="Vera Sans, DejaVu Sans, Liberation Sans, Arial, Helvetica, sans" font-size="10.00">ParameterFileInterfaceItem</text>
</a>
</g>
</g>
<!-- DOMMixin&#45;&gt;ParameterFileInterfaceItem -->
<g id="edge7" class="edge">
<title>DOMMixin&#45;&gt;ParameterFileInterfaceItem</title>
<path fill="none" stroke="black" stroke-width="0.5" d="M402.51,-76.54C428.51,-71.06 465.19,-63.33 494.82,-57.08"/>
<polygon fill="black" stroke="black" stroke-width="0.5" points="495.35,-58.76 499.88,-56.01 494.63,-55.33 495.35,-58.76"/>
</g>
<!-- DocumentedEntityMixin -->
<g id="node2" class="node">
<title>DocumentedEntityMixin</title>
<g id="a_node2"><a xlink:title="A ``DocumentedEntityMixin`` is a mixin class for all VHDL entities that can have an associated documentation.">
<polygon fill="white" stroke="#1e90ff" points="140.5,-19 6.5,-19 6.5,0 140.5,0 140.5,-19"/>
<text text-anchor="middle" x="73.5" y="-7" font-family="Vera Sans, DejaVu Sans, Liberation Sans, Arial, Helvetica, sans" font-size="10.00">DocumentedEntityMixin</text>
</a>
</g>
</g>
<!-- Obj -->
<g id="node4" class="node">
<title>Obj</title>
<polygon fill="white" stroke="#1e90ff" points="251.5,-56 197.5,-56 197.5,-37 251.5,-37 251.5,-56"/>
<text text-anchor="middle" x="224.5" y="-44" font-family="Vera Sans, DejaVu Sans, Liberation Sans, Arial, Helvetica, sans" font-size="10.00">Obj</text>
</g>
<!-- DocumentedEntityMixin&#45;&gt;Obj -->
<g id="edge5" class="edge">
<title>DocumentedEntityMixin&#45;&gt;Obj</title>
<path fill="none" stroke="black" stroke-width="0.5" d="M112.87,-19.03C137.56,-25.16 169.24,-33.03 192.36,-38.77"/>
<polygon fill="black" stroke="black" stroke-width="0.5" points="192.18,-40.53 197.46,-40.03 193.02,-37.13 192.18,-40.53"/>
</g>
<!-- InterfaceItem -->
<g id="node5" class="node">
<title>InterfaceItem</title>
<g id="a_node5"><a xlink:title="An ``InterfaceItem`` is a base&#45;class for all mixin&#45;classes for all interface items.">
<polygon fill="white" stroke="#1e90ff" points="266,-19 183,-19 183,0 266,0 266,-19"/>
<text text-anchor="middle" x="224.5" y="-7" font-family="Vera Sans, DejaVu Sans, Liberation Sans, Arial, Helvetica, sans" font-size="10.00">InterfaceItem</text>
</a>
</g>
</g>
<!-- DocumentedEntityMixin&#45;&gt;InterfaceItem -->
<g id="edge2" class="edge">
<title>DocumentedEntityMixin&#45;&gt;InterfaceItem</title>
<path fill="none" stroke="black" stroke-width="0.5" d="M140.72,-9.5C153.12,-9.5 165.83,-9.5 177.46,-9.5"/>
<polygon fill="black" stroke="black" stroke-width="0.5" points="177.72,-11.25 182.72,-9.5 177.72,-7.75 177.72,-11.25"/>
</g>
<!-- File -->
<g id="node3" class="node">
<title>File</title>
<polygon fill="white" stroke="#1e90ff" points="395.5,-56 341.5,-56 341.5,-37 395.5,-37 395.5,-56"/>
<text text-anchor="middle" x="368.5" y="-44" font-family="Vera Sans, DejaVu Sans, Liberation Sans, Arial, Helvetica, sans" font-size="10.00">File</text>
</g>
<!-- File&#45;&gt;ParameterFileInterfaceItem -->
<g id="edge8" class="edge">
<title>File&#45;&gt;ParameterFileInterfaceItem</title>
<path fill="none" stroke="black" stroke-width="0.5" d="M395.77,-46.5C414.42,-46.5 440.51,-46.5 465.67,-46.5"/>
<polygon fill="black" stroke="black" stroke-width="0.5" points="465.68,-48.25 470.68,-46.5 465.68,-44.75 465.68,-48.25"/>
</g>
<!-- Obj&#45;&gt;File -->
<g id="edge1" class="edge">
<title>Obj&#45;&gt;File</title>
<path fill="none" stroke="black" stroke-width="0.5" d="M251.54,-46.5C275.32,-46.5 310.51,-46.5 335.88,-46.5"/>
<polygon fill="black" stroke="black" stroke-width="0.5" points="336.14,-48.25 341.14,-46.5 336.14,-44.75 336.14,-48.25"/>
</g>
<!-- ParameterInterfaceItem -->
<g id="node9" class="node">
<title>ParameterInterfaceItem</title>
<g id="a_node9"><a xlink:title="A ``ParameterInterfaceItem`` is a mixin class for all parameter interface items.">
<polygon fill="white" stroke="#1e90ff" points="435,-19 302,-19 302,0 435,0 435,-19"/>
<text text-anchor="middle" x="368.5" y="-7" font-family="Vera Sans, DejaVu Sans, Liberation Sans, Arial, Helvetica, sans" font-size="10.00">ParameterInterfaceItem</text>
</a>
</g>
</g>
<!-- InterfaceItem&#45;&gt;ParameterInterfaceItem -->
<g id="edge10" class="edge">
<title>InterfaceItem&#45;&gt;ParameterInterfaceItem</title>
<path fill="none" stroke="black" stroke-width="0.5" d="M266.19,-9.5C275.77,-9.5 286.25,-9.5 296.73,-9.5"/>
<polygon fill="black" stroke="black" stroke-width="0.5" points="296.87,-11.25 301.87,-9.5 296.87,-7.75 296.87,-11.25"/>
</g>
<!-- ModelEntity -->
<g id="node6" class="node">
<title>ModelEntity</title>
<g id="a_node6"><a xlink:title="``ModelEntity`` is the base&#45;class for all classes in the VHDL language model, except for mixin classes (see multiple">
<polygon fill="white" stroke="#1e90ff" points="111,-93 36,-93 36,-74 111,-74 111,-93"/>
<text text-anchor="middle" x="73.5" y="-81" font-family="Vera Sans, DejaVu Sans, Liberation Sans, Arial, Helvetica, sans" font-size="10.00">ModelEntity</text>
</a>
</g>
</g>
<!-- ModelEntity&#45;&gt;Obj -->
<g id="edge3" class="edge">
<title>ModelEntity&#45;&gt;Obj</title>
<path fill="none" stroke="black" stroke-width="0.5" d="M111.33,-74.35C136.27,-68.16 168.86,-60.07 192.48,-54.2"/>
<polygon fill="black" stroke="black" stroke-width="0.5" points="192.94,-55.89 197.37,-52.99 192.1,-52.49 192.94,-55.89"/>
</g>
<!-- MultipleNamedEntityMixin -->
<g id="node7" class="node">
<title>MultipleNamedEntityMixin</title>
<g id="a_node7"><a xlink:title="A ``MultipleNamedEntityMixin`` is a mixin class for all VHDL entities that declare multiple instances at once by">
<polygon fill="white" stroke="#1e90ff" points="147,-56 0,-56 0,-37 147,-37 147,-56"/>
<text text-anchor="middle" x="73.5" y="-44" font-family="Vera Sans, DejaVu Sans, Liberation Sans, Arial, Helvetica, sans" font-size="10.00">MultipleNamedEntityMixin</text>
</a>
</g>
</g>
<!-- MultipleNamedEntityMixin&#45;&gt;Obj -->
<g id="edge4" class="edge">
<title>MultipleNamedEntityMixin&#45;&gt;Obj</title>
<path fill="none" stroke="black" stroke-width="0.5" d="M147.25,-46.5C163.04,-46.5 178.92,-46.5 192.08,-46.5"/>
<polygon fill="black" stroke="black" stroke-width="0.5" points="192.17,-48.25 197.17,-46.5 192.17,-44.75 192.17,-48.25"/>
</g>
<!-- ParameterFileInterfaceItem&#45;&gt;ParameterFileInterfaceItem -->
<g id="edge6" class="edge">
<title>ParameterFileInterfaceItem&#45;&gt;ParameterFileInterfaceItem</title>
<path fill="none" stroke="black" stroke-width="0.5" d="M518.87,-56.08C505.68,-64.73 514.72,-74 546,-74 573.37,-74 583.72,-66.91 577.03,-59.34"/>
<polygon fill="black" stroke="black" stroke-width="0.5" points="578.09,-57.94 573.13,-56.08 575.85,-60.63 578.09,-57.94"/>
</g>
<!-- ParameterInterfaceItem&#45;&gt;ParameterFileInterfaceItem -->
<g id="edge9" class="edge">
<title>ParameterInterfaceItem&#45;&gt;ParameterFileInterfaceItem</title>
<path fill="none" stroke="black" stroke-width="0.5" d="M414.7,-19.03C439.17,-24.19 469.46,-30.57 494.68,-35.89"/>
<polygon fill="black" stroke="black" stroke-width="0.5" points="494.4,-37.62 499.65,-36.94 495.12,-34.2 494.4,-37.62"/>
</g>
</g>
</svg>
