<?xml version="1.0" encoding="UTF-8" standalone="no"?>
<!DOCTYPE svg PUBLIC "-//W3C//DTD SVG 1.1//EN"
 "http://www.w3.org/Graphics/SVG/1.1/DTD/svg11.dtd">
<!-- Generated by graphviz version 2.43.0 (0)
 -->
<!-- Title: inheritance1c02f2e68a Pages: 1 -->
<svg width="452pt" height="64pt"
 viewBox="0.00 0.00 452.00 64.00" xmlns="http://www.w3.org/2000/svg" xmlns:xlink="http://www.w3.org/1999/xlink">
<g id="graph0" class="graph" transform="scale(1 1) rotate(0) translate(4 60)">
<title>inheritance1c02f2e68a</title>
<!-- BaseChoice -->
<g id="node1" class="node">
<title>BaseChoice</title>
<g id="a_node1"><a xlink:title="A ``Choice`` is a base&#45;class for all choices.">
<polygon fill="white" stroke="#1e90ff" points="185,-19 111,-19 111,0 185,0 185,-19"/>
<text text-anchor="middle" x="148" y="-7" font-family="Vera Sans, DejaVu Sans, Liberation Sans, Arial, Helvetica, sans" font-size="10.00">BaseChoice</text>
</a>
</g>
</g>
<!-- SequentialChoice -->
<g id="node5" class="node">
<title>SequentialChoice</title>
<g id="a_node5"><a xlink:title="A ``SequentialChoice`` is a base&#45;class for all sequential choices (in case statements).">
<polygon fill="white" stroke="#1e90ff" points="322,-19 221,-19 221,0 322,0 322,-19"/>
<text text-anchor="middle" x="271.5" y="-7" font-family="Vera Sans, DejaVu Sans, Liberation Sans, Arial, Helvetica, sans" font-size="10.00">SequentialChoice</text>
</a>
</g>
</g>
<!-- BaseChoice&#45;&gt;SequentialChoice -->
<g id="edge5" class="edge">
<title>BaseChoice&#45;&gt;SequentialChoice</title>
<path fill="none" stroke="black" stroke-width="0.5" d="M185.13,-9.5C194.74,-9.5 205.35,-9.5 215.73,-9.5"/>
<polygon fill="black" stroke="black" stroke-width="0.5" points="215.8,-11.25 220.8,-9.5 215.8,-7.75 215.8,-11.25"/>
</g>
<!-- ModelEntity -->
<g id="node2" class="node">
<title>ModelEntity</title>
<g id="a_node2"><a xlink:title="``ModelEntity`` is the base&#45;class for all classes in the VHDL language model, except for mixin classes (see multiple">
<polygon fill="white" stroke="#1e90ff" points="75,-19 0,-19 0,0 75,0 75,-19"/>
<text text-anchor="middle" x="37.5" y="-7" font-family="Vera Sans, DejaVu Sans, Liberation Sans, Arial, Helvetica, sans" font-size="10.00">ModelEntity</text>
</a>
</g>
</g>
<!-- ModelEntity&#45;&gt;BaseChoice -->
<g id="edge1" class="edge">
<title>ModelEntity&#45;&gt;BaseChoice</title>
<path fill="none" stroke="black" stroke-width="0.5" d="M75.23,-9.5C84.97,-9.5 95.55,-9.5 105.52,-9.5"/>
<polygon fill="black" stroke="black" stroke-width="0.5" points="105.67,-11.25 110.67,-9.5 105.67,-7.75 105.67,-11.25"/>
</g>
<!-- DOMMixin -->
<g id="node3" class="node">
<title>DOMMixin</title>
<g id="a_node3"><a xlink:href="../pyGHDL.dom.html#pyGHDL.dom.DOMMixin" xlink:title="DOMMixin" target="_top">
<polygon fill="white" stroke="#1e90ff" points="305.5,-56 237.5,-56 237.5,-37 305.5,-37 305.5,-56"/>
<text text-anchor="middle" x="271.5" y="-44" font-family="Vera Sans, DejaVu Sans, Liberation Sans, Arial, Helvetica, sans" font-size="10.00">DOMMixin</text>
</a>
</g>
</g>
<!-- RangedChoice -->
<g id="node4" class="node">
<title>RangedChoice</title>
<g id="a_node4"><a xlink:href="../pyGHDL/pyGHDL.dom.Sequential.html#pyGHDL.dom.Sequential.RangedChoice" xlink:title="RangedChoice" target="_top">
<polygon fill="white" stroke="#1e90ff" points="444,-37 358,-37 358,-18 444,-18 444,-37"/>
<text text-anchor="middle" x="401" y="-25" font-family="Vera Sans, DejaVu Sans, Liberation Sans, Arial, Helvetica, sans" font-size="10.00">RangedChoice</text>
</a>
</g>
</g>
<!-- DOMMixin&#45;&gt;RangedChoice -->
<g id="edge3" class="edge">
<title>DOMMixin&#45;&gt;RangedChoice</title>
<path fill="none" stroke="black" stroke-width="0.5" d="M305.67,-41.56C319.99,-39.42 337,-36.89 352.61,-34.56"/>
<polygon fill="black" stroke="black" stroke-width="0.5" points="353.16,-36.25 357.85,-33.78 352.65,-32.79 353.16,-36.25"/>
</g>
<!-- RangedChoice&#45;&gt;RangedChoice -->
<g id="edge2" class="edge">
<title>RangedChoice&#45;&gt;RangedChoice</title>
<path fill="none" stroke="black" stroke-width="0.5" d="M381.27,-37.08C371.67,-45.73 378.25,-55 401,-55 420.2,-55 427.88,-48.4 424.04,-41.15"/>
<polygon fill="black" stroke="black" stroke-width="0.5" points="425.25,-39.85 420.73,-37.08 422.53,-42.06 425.25,-39.85"/>
</g>
<!-- SequentialChoice&#45;&gt;RangedChoice -->
<g id="edge4" class="edge">
<title>SequentialChoice&#45;&gt;RangedChoice</title>
<path fill="none" stroke="black" stroke-width="0.5" d="M322.16,-16.51C332.16,-17.92 342.65,-19.4 352.58,-20.81"/>
<polygon fill="black" stroke="black" stroke-width="0.5" points="352.51,-22.56 357.71,-21.53 353,-19.1 352.51,-22.56"/>
</g>
</g>
</svg>
