<?xml version="1.0" encoding="UTF-8" standalone="no"?>
<!DOCTYPE svg PUBLIC "-//W3C//DTD SVG 1.1//EN"
 "http://www.w3.org/Graphics/SVG/1.1/DTD/svg11.dtd">
<!-- Generated by graphviz version 2.43.0 (0)
 -->
<!-- Title: inheritancee30643d748 Pages: 1 -->
<svg width="576pt" height="60pt"
 viewBox="0.00 0.00 576.00 59.65" xmlns="http://www.w3.org/2000/svg" xmlns:xlink="http://www.w3.org/1999/xlink">
<g id="graph0" class="graph" transform="scale(1.07 1.07) rotate(0) translate(4 60)">
<title>inheritancee30643d748</title>
<!-- BaseExpression -->
<g id="node1" class="node">
<title>BaseExpression</title>
<g id="a_node1"><a xlink:title="A ``BaseExpression`` is a base&#45;class for all expressions.">
<polygon fill="white" stroke="#1e90ff" points="205,-19 111,-19 111,0 205,0 205,-19"/>
<text text-anchor="middle" x="158" y="-7" font-family="Vera Sans, DejaVu Sans, Liberation Sans, Arial, Helvetica, sans" font-size="10.00">BaseExpression</text>
</a>
</g>
</g>
<!-- BinaryExpression -->
<g id="node3" class="node">
<title>BinaryExpression</title>
<g id="a_node3"><a xlink:title="A ``BinaryExpression`` is a base&#45;class for all binary expressions.">
<polygon fill="white" stroke="#1e90ff" points="342,-19 241,-19 241,0 342,0 342,-19"/>
<text text-anchor="middle" x="291.5" y="-7" font-family="Vera Sans, DejaVu Sans, Liberation Sans, Arial, Helvetica, sans" font-size="10.00">BinaryExpression</text>
</a>
</g>
</g>
<!-- BaseExpression&#45;&gt;BinaryExpression -->
<g id="edge2" class="edge">
<title>BaseExpression&#45;&gt;BinaryExpression</title>
<path fill="none" stroke="black" stroke-width="0.5" d="M205.36,-9.5C215.19,-9.5 225.64,-9.5 235.74,-9.5"/>
<polygon fill="black" stroke="black" stroke-width="0.5" points="235.99,-11.25 240.99,-9.5 235.99,-7.75 235.99,-11.25"/>
</g>
<!-- ModelEntity -->
<g id="node2" class="node">
<title>ModelEntity</title>
<g id="a_node2"><a xlink:title="``ModelEntity`` is the base&#45;class for all classes in the VHDL language model, except for mixin classes (see multiple">
<polygon fill="white" stroke="#1e90ff" points="75,-19 0,-19 0,0 75,0 75,-19"/>
<text text-anchor="middle" x="37.5" y="-7" font-family="Vera Sans, DejaVu Sans, Liberation Sans, Arial, Helvetica, sans" font-size="10.00">ModelEntity</text>
</a>
</g>
</g>
<!-- ModelEntity&#45;&gt;BaseExpression -->
<g id="edge1" class="edge">
<title>ModelEntity&#45;&gt;BaseExpression</title>
<path fill="none" stroke="black" stroke-width="0.5" d="M75.02,-9.5C84.72,-9.5 95.38,-9.5 105.71,-9.5"/>
<polygon fill="black" stroke="black" stroke-width="0.5" points="105.75,-11.25 110.75,-9.5 105.75,-7.75 105.75,-11.25"/>
</g>
<!-- LogicalExpression -->
<g id="node5" class="node">
<title>LogicalExpression</title>
<g id="a_node5"><a xlink:title="A ``LogicalExpression`` is a base&#45;class for all logical expressions.">
<polygon fill="white" stroke="#1e90ff" points="482,-19 378,-19 378,0 482,0 482,-19"/>
<text text-anchor="middle" x="430" y="-7" font-family="Vera Sans, DejaVu Sans, Liberation Sans, Arial, Helvetica, sans" font-size="10.00">LogicalExpression</text>
</a>
</g>
</g>
<!-- BinaryExpression&#45;&gt;LogicalExpression -->
<g id="edge3" class="edge">
<title>BinaryExpression&#45;&gt;LogicalExpression</title>
<path fill="none" stroke="black" stroke-width="0.5" d="M342.17,-9.5C352.03,-9.5 362.46,-9.5 372.53,-9.5"/>
<polygon fill="black" stroke="black" stroke-width="0.5" points="372.77,-11.25 377.77,-9.5 372.77,-7.75 372.77,-11.25"/>
</g>
<!-- DOMMixin -->
<g id="node4" class="node">
<title>DOMMixin</title>
<g id="a_node4"><a xlink:href="../pyGHDL.dom.html#pyGHDL.dom.DOMMixin" xlink:title="DOMMixin" target="_top">
<polygon fill="white" stroke="#1e90ff" points="464,-56 396,-56 396,-37 464,-37 464,-56"/>
<text text-anchor="middle" x="430" y="-44" font-family="Vera Sans, DejaVu Sans, Liberation Sans, Arial, Helvetica, sans" font-size="10.00">DOMMixin</text>
</a>
</g>
</g>
<!-- XnorExpression -->
<g id="node6" class="node">
<title>XnorExpression</title>
<g id="a_node6"><a xlink:href="../pyGHDL/pyGHDL.dom.Expression.html#pyGHDL.dom.Expression.XnorExpression" xlink:title="XnorExpression" target="_top">
<polygon fill="white" stroke="#1e90ff" points="610,-37 518,-37 518,-18 610,-18 610,-37"/>
<text text-anchor="middle" x="564" y="-25" font-family="Vera Sans, DejaVu Sans, Liberation Sans, Arial, Helvetica, sans" font-size="10.00">XnorExpression</text>
</a>
</g>
</g>
<!-- DOMMixin&#45;&gt;XnorExpression -->
<g id="edge5" class="edge">
<title>DOMMixin&#45;&gt;XnorExpression</title>
<path fill="none" stroke="black" stroke-width="0.5" d="M464.31,-41.71C478.98,-39.59 496.54,-37.07 512.75,-34.73"/>
<polygon fill="black" stroke="black" stroke-width="0.5" points="513.04,-36.46 517.73,-34.02 512.54,-33 513.04,-36.46"/>
</g>
<!-- LogicalExpression&#45;&gt;XnorExpression -->
<g id="edge6" class="edge">
<title>LogicalExpression&#45;&gt;XnorExpression</title>
<path fill="none" stroke="black" stroke-width="0.5" d="M482.03,-16.46C492.04,-17.82 502.54,-19.25 512.53,-20.62"/>
<polygon fill="black" stroke="black" stroke-width="0.5" points="512.51,-22.38 517.7,-21.32 512.98,-18.91 512.51,-22.38"/>
</g>
<!-- XnorExpression&#45;&gt;XnorExpression -->
<g id="edge4" class="edge">
<title>XnorExpression&#45;&gt;XnorExpression</title>
<path fill="none" stroke="black" stroke-width="0.5" d="M543.35,-37.08C533.3,-45.73 540.18,-55 564,-55 584.1,-55 592.14,-48.4 588.12,-41.15"/>
<polygon fill="black" stroke="black" stroke-width="0.5" points="589.23,-39.75 584.65,-37.08 586.57,-42.02 589.23,-39.75"/>
</g>
</g>
</svg>
