<?xml version="1.0" encoding="UTF-8" standalone="no"?>
<!DOCTYPE svg PUBLIC "-//W3C//DTD SVG 1.1//EN"
 "http://www.w3.org/Graphics/SVG/1.1/DTD/svg11.dtd">
<!-- Generated by graphviz version 2.43.0 (0)
 -->
<!-- Title: inheritancec3d93ba094 Pages: 1 -->
<svg width="306pt" height="64pt"
 viewBox="0.00 0.00 306.00 64.00" xmlns="http://www.w3.org/2000/svg" xmlns:xlink="http://www.w3.org/1999/xlink">
<g id="graph0" class="graph" transform="scale(1 1) rotate(0) translate(4 60)">
<title>inheritancec3d93ba094</title>
<!-- DOMMixin -->
<g id="node1" class="node">
<title>DOMMixin</title>
<g id="a_node1"><a xlink:href="../pyGHDL.dom.html#pyGHDL.dom.DOMMixin" xlink:title="DOMMixin" target="_top">
<polygon fill="white" stroke="#1e90ff" points="179,-56 111,-56 111,-37 179,-37 179,-56"/>
<text text-anchor="middle" x="145" y="-44" font-family="Vera Sans, DejaVu Sans, Liberation Sans, Arial, Helvetica, sans" font-size="10.00">DOMMixin</text>
</a>
</g>
</g>
<!-- LibraryClause -->
<g id="node2" class="node">
<title>LibraryClause</title>
<g id="a_node2"><a xlink:href="../pyGHDL/pyGHDL.dom.DesignUnit.html#pyGHDL.dom.DesignUnit.LibraryClause" xlink:title="LibraryClause" target="_top">
<polygon fill="white" stroke="#1e90ff" points="298,-37 215,-37 215,-18 298,-18 298,-37"/>
<text text-anchor="middle" x="256.5" y="-25" font-family="Vera Sans, DejaVu Sans, Liberation Sans, Arial, Helvetica, sans" font-size="10.00">LibraryClause</text>
</a>
</g>
</g>
<!-- DOMMixin&#45;&gt;LibraryClause -->
<g id="edge2" class="edge">
<title>DOMMixin&#45;&gt;LibraryClause</title>
<path fill="none" stroke="black" stroke-width="0.5" d="M179.15,-40.75C188.78,-39.08 199.47,-37.22 209.73,-35.44"/>
<polygon fill="black" stroke="black" stroke-width="0.5" points="210.1,-37.15 214.72,-34.58 209.5,-33.71 210.1,-37.15"/>
</g>
<!-- LibraryClause&#45;&gt;LibraryClause -->
<g id="edge1" class="edge">
<title>LibraryClause&#45;&gt;LibraryClause</title>
<path fill="none" stroke="black" stroke-width="0.5" d="M239.55,-37.08C231.3,-45.73 236.95,-55 256.5,-55 272.69,-55 279.35,-48.65 276.48,-41.55"/>
<polygon fill="black" stroke="black" stroke-width="0.5" points="277.71,-40.24 273.45,-37.08 274.81,-42.2 277.71,-40.24"/>
</g>
<!-- Reference -->
<g id="node3" class="node">
<title>Reference</title>
<polygon fill="white" stroke="#1e90ff" points="178,-19 112,-19 112,0 178,0 178,-19"/>
<text text-anchor="middle" x="145" y="-7" font-family="Vera Sans, DejaVu Sans, Liberation Sans, Arial, Helvetica, sans" font-size="10.00">Reference</text>
</g>
<!-- Reference&#45;&gt;LibraryClause -->
<g id="edge3" class="edge">
<title>Reference&#45;&gt;LibraryClause</title>
<path fill="none" stroke="black" stroke-width="0.5" d="M178.26,-14.8C188.13,-16.43 199.17,-18.24 209.76,-19.98"/>
<polygon fill="black" stroke="black" stroke-width="0.5" points="209.69,-21.74 214.91,-20.83 210.26,-18.29 209.69,-21.74"/>
</g>
<!-- ModelEntity -->
<g id="node4" class="node">
<title>ModelEntity</title>
<g id="a_node4"><a xlink:title="``ModelEntity`` is the base&#45;class for all classes in the VHDL language model, except for mixin classes (see multiple">
<polygon fill="white" stroke="#1e90ff" points="75,-19 0,-19 0,0 75,0 75,-19"/>
<text text-anchor="middle" x="37.5" y="-7" font-family="Vera Sans, DejaVu Sans, Liberation Sans, Arial, Helvetica, sans" font-size="10.00">ModelEntity</text>
</a>
</g>
</g>
<!-- ModelEntity&#45;&gt;Reference -->
<g id="edge4" class="edge">
<title>ModelEntity&#45;&gt;Reference</title>
<path fill="none" stroke="black" stroke-width="0.5" d="M75.1,-9.5C85.24,-9.5 96.25,-9.5 106.44,-9.5"/>
<polygon fill="black" stroke="black" stroke-width="0.5" points="106.69,-11.25 111.69,-9.5 106.69,-7.75 106.69,-11.25"/>
</g>
</g>
</svg>
