<?xml version="1.0" encoding="UTF-8" standalone="no"?>
<!DOCTYPE svg PUBLIC "-//W3C//DTD SVG 1.1//EN"
 "http://www.w3.org/Graphics/SVG/1.1/DTD/svg11.dtd">
<!-- Generated by graphviz version 2.43.0 (0)
 -->
<!-- Title: inheritance35605eee8e Pages: 1 -->
<svg width="576pt" height="55pt"
 viewBox="0.00 0.00 576.00 55.02" xmlns="http://www.w3.org/2000/svg" xmlns:xlink="http://www.w3.org/1999/xlink">
<g id="graph0" class="graph" transform="scale(1.16 1.16) rotate(0) translate(4 60)">
<title>inheritance35605eee8e</title>
<!-- BaseExpression -->
<g id="node1" class="node">
<title>BaseExpression</title>
<g id="a_node1"><a xlink:title="A ``BaseExpression`` is a base&#45;class for all expressions.">
<polygon fill="white" stroke="#1e90ff" points="205,-19 111,-19 111,0 205,0 205,-19"/>
<text text-anchor="middle" x="158" y="-7" font-family="Vera Sans, DejaVu Sans, Liberation Sans, Arial, Helvetica, sans" font-size="10.00">BaseExpression</text>
</a>
</g>
</g>
<!-- BinaryExpression -->
<g id="node3" class="node">
<title>BinaryExpression</title>
<g id="a_node3"><a xlink:title="A ``BinaryExpression`` is a base&#45;class for all binary expressions.">
<polygon fill="white" stroke="#1e90ff" points="342,-19 241,-19 241,0 342,0 342,-19"/>
<text text-anchor="middle" x="291.5" y="-7" font-family="Vera Sans, DejaVu Sans, Liberation Sans, Arial, Helvetica, sans" font-size="10.00">BinaryExpression</text>
</a>
</g>
</g>
<!-- BaseExpression&#45;&gt;BinaryExpression -->
<g id="edge2" class="edge">
<title>BaseExpression&#45;&gt;BinaryExpression</title>
<path fill="none" stroke="black" stroke-width="0.5" d="M205.36,-9.5C215.19,-9.5 225.64,-9.5 235.74,-9.5"/>
<polygon fill="black" stroke="black" stroke-width="0.5" points="235.99,-11.25 240.99,-9.5 235.99,-7.75 235.99,-11.25"/>
</g>
<!-- ModelEntity -->
<g id="node2" class="node">
<title>ModelEntity</title>
<g id="a_node2"><a xlink:title="``ModelEntity`` is the base&#45;class for all classes in the VHDL language model, except for mixin classes (see multiple">
<polygon fill="white" stroke="#1e90ff" points="75,-19 0,-19 0,0 75,0 75,-19"/>
<text text-anchor="middle" x="37.5" y="-7" font-family="Vera Sans, DejaVu Sans, Liberation Sans, Arial, Helvetica, sans" font-size="10.00">ModelEntity</text>
</a>
</g>
</g>
<!-- ModelEntity&#45;&gt;BaseExpression -->
<g id="edge1" class="edge">
<title>ModelEntity&#45;&gt;BaseExpression</title>
<path fill="none" stroke="black" stroke-width="0.5" d="M75.02,-9.5C84.72,-9.5 95.38,-9.5 105.71,-9.5"/>
<polygon fill="black" stroke="black" stroke-width="0.5" points="105.75,-11.25 110.75,-9.5 105.75,-7.75 105.75,-11.25"/>
</g>
<!-- MultiplyingExpression -->
<g id="node5" class="node">
<title>MultiplyingExpression</title>
<g id="a_node5"><a xlink:title="A ``MultiplyingExpression`` is a base&#45;class for all multiplying expressions.">
<polygon fill="white" stroke="#1e90ff" points="503,-19 378,-19 378,0 503,0 503,-19"/>
<text text-anchor="middle" x="440.5" y="-7" font-family="Vera Sans, DejaVu Sans, Liberation Sans, Arial, Helvetica, sans" font-size="10.00">MultiplyingExpression</text>
</a>
</g>
</g>
<!-- BinaryExpression&#45;&gt;MultiplyingExpression -->
<g id="edge3" class="edge">
<title>BinaryExpression&#45;&gt;MultiplyingExpression</title>
<path fill="none" stroke="black" stroke-width="0.5" d="M342.27,-9.5C352.07,-9.5 362.51,-9.5 372.77,-9.5"/>
<polygon fill="black" stroke="black" stroke-width="0.5" points="372.79,-11.25 377.79,-9.5 372.79,-7.75 372.79,-11.25"/>
</g>
<!-- DOMMixin -->
<g id="node4" class="node">
<title>DOMMixin</title>
<g id="a_node4"><a xlink:href="../pyGHDL.dom.html#pyGHDL.dom.DOMMixin" xlink:title="DOMMixin" target="_top">
<polygon fill="white" stroke="#1e90ff" points="474.5,-56 406.5,-56 406.5,-37 474.5,-37 474.5,-56"/>
<text text-anchor="middle" x="440.5" y="-44" font-family="Vera Sans, DejaVu Sans, Liberation Sans, Arial, Helvetica, sans" font-size="10.00">DOMMixin</text>
</a>
</g>
</g>
<!-- RemainderExpression -->
<g id="node6" class="node">
<title>RemainderExpression</title>
<g id="a_node6"><a xlink:href="../pyGHDL/pyGHDL.dom.Expression.html#pyGHDL.dom.Expression.RemainderExpression" xlink:title="RemainderExpression" target="_top">
<polygon fill="white" stroke="#1e90ff" points="662,-37 539,-37 539,-18 662,-18 662,-37"/>
<text text-anchor="middle" x="600.5" y="-25" font-family="Vera Sans, DejaVu Sans, Liberation Sans, Arial, Helvetica, sans" font-size="10.00">RemainderExpression</text>
</a>
</g>
</g>
<!-- DOMMixin&#45;&gt;RemainderExpression -->
<g id="edge5" class="edge">
<title>DOMMixin&#45;&gt;RemainderExpression</title>
<path fill="none" stroke="black" stroke-width="0.5" d="M474.62,-42.52C491.81,-40.45 513.42,-37.85 533.82,-35.4"/>
<polygon fill="black" stroke="black" stroke-width="0.5" points="534.22,-37.11 538.98,-34.78 533.8,-33.64 534.22,-37.11"/>
</g>
<!-- MultiplyingExpression&#45;&gt;RemainderExpression -->
<g id="edge6" class="edge">
<title>MultiplyingExpression&#45;&gt;RemainderExpression</title>
<path fill="none" stroke="black" stroke-width="0.5" d="M503.04,-16.51C513.17,-17.66 523.7,-18.86 533.92,-20.03"/>
<polygon fill="black" stroke="black" stroke-width="0.5" points="533.74,-21.77 538.91,-20.6 534.14,-18.29 533.74,-21.77"/>
</g>
<!-- RemainderExpression&#45;&gt;RemainderExpression -->
<g id="edge4" class="edge">
<title>RemainderExpression&#45;&gt;RemainderExpression</title>
<path fill="none" stroke="black" stroke-width="0.5" d="M575.84,-37.08C563.84,-45.73 572.06,-55 600.5,-55 624.94,-55 634.45,-48.16 629.02,-40.74"/>
<polygon fill="black" stroke="black" stroke-width="0.5" points="629.99,-39.25 625.16,-37.08 627.59,-41.79 629.99,-39.25"/>
</g>
</g>
</svg>
