<?xml version="1.0" encoding="UTF-8" standalone="no"?>
<!DOCTYPE svg PUBLIC "-//W3C//DTD SVG 1.1//EN"
 "http://www.w3.org/Graphics/SVG/1.1/DTD/svg11.dtd">
<!-- Generated by graphviz version 2.43.0 (0)
 -->
<!-- Title: inheritancef6e94dce00 Pages: 1 -->
<svg width="232pt" height="138pt"
 viewBox="0.00 0.00 232.00 138.00" xmlns="http://www.w3.org/2000/svg" xmlns:xlink="http://www.w3.org/1999/xlink">
<g id="graph0" class="graph" transform="scale(1 1) rotate(0) translate(4 134)">
<title>inheritancef6e94dce00</title>
<!-- Alias -->
<g id="node1" class="node">
<title>Alias</title>
<g id="a_node1"><a xlink:href="../pyGHDL/pyGHDL.dom.Misc.html#pyGHDL.dom.Misc.Alias" xlink:title="Alias" target="_top">
<polygon fill="white" stroke="#1e90ff" points="224,-74 170,-74 170,-55 224,-55 224,-74"/>
<text text-anchor="middle" x="197" y="-62" font-family="Vera Sans, DejaVu Sans, Liberation Sans, Arial, Helvetica, sans" font-size="10.00">Alias</text>
</a>
</g>
</g>
<!-- Alias&#45;&gt;Alias -->
<g id="edge1" class="edge">
<title>Alias&#45;&gt;Alias</title>
<path fill="none" stroke="black" stroke-width="0.5" d="M176.96,-74.08C167.22,-82.73 173.89,-92 197,-92 216.5,-92 224.3,-85.4 220.4,-78.15"/>
<polygon fill="black" stroke="black" stroke-width="0.5" points="221.57,-76.82 217.04,-74.08 218.88,-79.05 221.57,-76.82"/>
</g>
<!-- DOMMixin -->
<g id="node2" class="node">
<title>DOMMixin</title>
<g id="a_node2"><a xlink:href="../pyGHDL.dom.html#pyGHDL.dom.DOMMixin" xlink:title="DOMMixin" target="_top">
<polygon fill="white" stroke="#1e90ff" points="101,-130 33,-130 33,-111 101,-111 101,-130"/>
<text text-anchor="middle" x="67" y="-118" font-family="Vera Sans, DejaVu Sans, Liberation Sans, Arial, Helvetica, sans" font-size="10.00">DOMMixin</text>
</a>
</g>
</g>
<!-- DOMMixin&#45;&gt;Alias -->
<g id="edge2" class="edge">
<title>DOMMixin&#45;&gt;Alias</title>
<path fill="none" stroke="black" stroke-width="0.5" d="M101.19,-113.41C111.88,-110.61 123.64,-106.98 134,-102.5 149.89,-95.63 166.55,-85.21 178.6,-77.02"/>
<polygon fill="black" stroke="black" stroke-width="0.5" points="179.69,-78.39 182.81,-74.12 177.7,-75.51 179.69,-78.39"/>
</g>
<!-- ModelEntity -->
<g id="node3" class="node">
<title>ModelEntity</title>
<g id="a_node3"><a xlink:title="``ModelEntity`` is the base&#45;class for all classes in the VHDL language model, except for mixin classes (see multiple">
<polygon fill="white" stroke="#1e90ff" points="104.5,-93 29.5,-93 29.5,-74 104.5,-74 104.5,-93"/>
<text text-anchor="middle" x="67" y="-81" font-family="Vera Sans, DejaVu Sans, Liberation Sans, Arial, Helvetica, sans" font-size="10.00">ModelEntity</text>
</a>
</g>
</g>
<!-- ModelEntity&#45;&gt;Alias -->
<g id="edge3" class="edge">
<title>ModelEntity&#45;&gt;Alias</title>
<path fill="none" stroke="black" stroke-width="0.5" d="M104.68,-78.06C123.72,-75.23 146.74,-71.81 164.9,-69.12"/>
<polygon fill="black" stroke="black" stroke-width="0.5" points="165.2,-70.84 169.88,-68.38 164.68,-67.38 165.2,-70.84"/>
</g>
<!-- NamedEntityMixin -->
<g id="node4" class="node">
<title>NamedEntityMixin</title>
<g id="a_node4"><a xlink:title="A ``NamedEntityMixin`` is a mixin class for all VHDL entities that have identifiers.">
<polygon fill="white" stroke="#1e90ff" points="120.5,-56 13.5,-56 13.5,-37 120.5,-37 120.5,-56"/>
<text text-anchor="middle" x="67" y="-44" font-family="Vera Sans, DejaVu Sans, Liberation Sans, Arial, Helvetica, sans" font-size="10.00">NamedEntityMixin</text>
</a>
</g>
</g>
<!-- NamedEntityMixin&#45;&gt;Alias -->
<g id="edge4" class="edge">
<title>NamedEntityMixin&#45;&gt;Alias</title>
<path fill="none" stroke="black" stroke-width="0.5" d="M120.8,-53.93C135.76,-56.03 151.55,-58.25 164.79,-60.11"/>
<polygon fill="black" stroke="black" stroke-width="0.5" points="164.72,-61.87 169.92,-60.83 165.21,-58.4 164.72,-61.87"/>
</g>
<!-- DocumentedEntityMixin -->
<g id="node5" class="node">
<title>DocumentedEntityMixin</title>
<g id="a_node5"><a xlink:title="A ``DocumentedEntityMixin`` is a mixin class for all VHDL entities that can have an associated documentation.">
<polygon fill="white" stroke="#1e90ff" points="134,-19 0,-19 0,0 134,0 134,-19"/>
<text text-anchor="middle" x="67" y="-7" font-family="Vera Sans, DejaVu Sans, Liberation Sans, Arial, Helvetica, sans" font-size="10.00">DocumentedEntityMixin</text>
</a>
</g>
</g>
<!-- DocumentedEntityMixin&#45;&gt;Alias -->
<g id="edge5" class="edge">
<title>DocumentedEntityMixin&#45;&gt;Alias</title>
<path fill="none" stroke="black" stroke-width="0.5" d="M107.29,-19.09C116.22,-21.74 125.55,-24.9 134,-28.5 149.29,-35.02 165.51,-44.54 177.52,-52.15"/>
<polygon fill="black" stroke="black" stroke-width="0.5" points="176.59,-53.64 181.75,-54.86 178.48,-50.69 176.59,-53.64"/>
</g>
</g>
</svg>
