<?xml version="1.0" encoding="UTF-8" standalone="no"?>
<!DOCTYPE svg PUBLIC "-//W3C//DTD SVG 1.1//EN"
 "http://www.w3.org/Graphics/SVG/1.1/DTD/svg11.dtd">
<!-- Generated by graphviz version 2.43.0 (0)
 -->
<!-- Title: inheritanced3f9e95351 Pages: 1 -->
<svg width="576pt" height="55pt"
 viewBox="0.00 0.00 576.00 55.35" xmlns="http://www.w3.org/2000/svg" xmlns:xlink="http://www.w3.org/1999/xlink">
<g id="graph0" class="graph" transform="scale(1.16 1.16) rotate(0) translate(4 60)">
<title>inheritanced3f9e95351</title>
<!-- AddingExpression -->
<g id="node1" class="node">
<title>AddingExpression</title>
<g id="a_node1"><a xlink:title="A ``AddingExpression`` is a base&#45;class for all adding expressions.">
<polygon fill="white" stroke="#1e90ff" points="482,-19 378,-19 378,0 482,0 482,-19"/>
<text text-anchor="middle" x="430" y="-7" font-family="Vera Sans, DejaVu Sans, Liberation Sans, Arial, Helvetica, sans" font-size="10.00">AddingExpression</text>
</a>
</g>
</g>
<!-- ConcatenationExpression -->
<g id="node5" class="node">
<title>ConcatenationExpression</title>
<g id="a_node5"><a xlink:href="../pyGHDL/pyGHDL.dom.Expression.html#pyGHDL.dom.Expression.ConcatenationExpression" xlink:title="ConcatenationExpression" target="_top">
<polygon fill="white" stroke="#1e90ff" points="658,-37 518,-37 518,-18 658,-18 658,-37"/>
<text text-anchor="middle" x="588" y="-25" font-family="Vera Sans, DejaVu Sans, Liberation Sans, Arial, Helvetica, sans" font-size="10.00">ConcatenationExpression</text>
</a>
</g>
</g>
<!-- AddingExpression&#45;&gt;ConcatenationExpression -->
<g id="edge6" class="edge">
<title>AddingExpression&#45;&gt;ConcatenationExpression</title>
<path fill="none" stroke="black" stroke-width="0.5" d="M482.08,-15.39C491.93,-16.53 502.44,-17.74 512.85,-18.94"/>
<polygon fill="black" stroke="black" stroke-width="0.5" points="512.78,-20.7 517.95,-19.53 513.18,-17.22 512.78,-20.7"/>
</g>
<!-- BinaryExpression -->
<g id="node2" class="node">
<title>BinaryExpression</title>
<g id="a_node2"><a xlink:title="A ``BinaryExpression`` is a base&#45;class for all binary expressions.">
<polygon fill="white" stroke="#1e90ff" points="342,-19 241,-19 241,0 342,0 342,-19"/>
<text text-anchor="middle" x="291.5" y="-7" font-family="Vera Sans, DejaVu Sans, Liberation Sans, Arial, Helvetica, sans" font-size="10.00">BinaryExpression</text>
</a>
</g>
</g>
<!-- BinaryExpression&#45;&gt;AddingExpression -->
<g id="edge1" class="edge">
<title>BinaryExpression&#45;&gt;AddingExpression</title>
<path fill="none" stroke="black" stroke-width="0.5" d="M342.17,-9.5C352.03,-9.5 362.46,-9.5 372.53,-9.5"/>
<polygon fill="black" stroke="black" stroke-width="0.5" points="372.77,-11.25 377.77,-9.5 372.77,-7.75 372.77,-11.25"/>
</g>
<!-- BaseExpression -->
<g id="node3" class="node">
<title>BaseExpression</title>
<g id="a_node3"><a xlink:title="A ``BaseExpression`` is a base&#45;class for all expressions.">
<polygon fill="white" stroke="#1e90ff" points="205,-19 111,-19 111,0 205,0 205,-19"/>
<text text-anchor="middle" x="158" y="-7" font-family="Vera Sans, DejaVu Sans, Liberation Sans, Arial, Helvetica, sans" font-size="10.00">BaseExpression</text>
</a>
</g>
</g>
<!-- BaseExpression&#45;&gt;BinaryExpression -->
<g id="edge3" class="edge">
<title>BaseExpression&#45;&gt;BinaryExpression</title>
<path fill="none" stroke="black" stroke-width="0.5" d="M205.36,-9.5C215.19,-9.5 225.64,-9.5 235.74,-9.5"/>
<polygon fill="black" stroke="black" stroke-width="0.5" points="235.99,-11.25 240.99,-9.5 235.99,-7.75 235.99,-11.25"/>
</g>
<!-- ModelEntity -->
<g id="node4" class="node">
<title>ModelEntity</title>
<g id="a_node4"><a xlink:title="``ModelEntity`` is the base&#45;class for all classes in the VHDL language model, except for mixin classes (see multiple">
<polygon fill="white" stroke="#1e90ff" points="75,-19 0,-19 0,0 75,0 75,-19"/>
<text text-anchor="middle" x="37.5" y="-7" font-family="Vera Sans, DejaVu Sans, Liberation Sans, Arial, Helvetica, sans" font-size="10.00">ModelEntity</text>
</a>
</g>
</g>
<!-- ModelEntity&#45;&gt;BaseExpression -->
<g id="edge2" class="edge">
<title>ModelEntity&#45;&gt;BaseExpression</title>
<path fill="none" stroke="black" stroke-width="0.5" d="M75.02,-9.5C84.72,-9.5 95.38,-9.5 105.71,-9.5"/>
<polygon fill="black" stroke="black" stroke-width="0.5" points="105.75,-11.25 110.75,-9.5 105.75,-7.75 105.75,-11.25"/>
</g>
<!-- ConcatenationExpression&#45;&gt;ConcatenationExpression -->
<g id="edge4" class="edge">
<title>ConcatenationExpression&#45;&gt;ConcatenationExpression</title>
<path fill="none" stroke="black" stroke-width="0.5" d="M563.65,-37.08C551.8,-45.73 559.92,-55 588,-55 612.13,-55 621.52,-48.16 616.17,-40.74"/>
<polygon fill="black" stroke="black" stroke-width="0.5" points="617.17,-39.28 612.35,-37.08 614.75,-41.81 617.17,-39.28"/>
</g>
<!-- DOMMixin -->
<g id="node6" class="node">
<title>DOMMixin</title>
<g id="a_node6"><a xlink:href="../pyGHDL.dom.html#pyGHDL.dom.DOMMixin" xlink:title="DOMMixin" target="_top">
<polygon fill="white" stroke="#1e90ff" points="464,-56 396,-56 396,-37 464,-37 464,-56"/>
<text text-anchor="middle" x="430" y="-44" font-family="Vera Sans, DejaVu Sans, Liberation Sans, Arial, Helvetica, sans" font-size="10.00">DOMMixin</text>
</a>
</g>
</g>
<!-- DOMMixin&#45;&gt;ConcatenationExpression -->
<g id="edge5" class="edge">
<title>DOMMixin&#45;&gt;ConcatenationExpression</title>
<path fill="none" stroke="black" stroke-width="0.5" d="M464.08,-42.47C478.27,-40.74 495.46,-38.65 512.43,-36.58"/>
<polygon fill="black" stroke="black" stroke-width="0.5" points="512.94,-38.28 517.69,-35.94 512.51,-34.81 512.94,-38.28"/>
</g>
</g>
</svg>
