<?xml version="1.0" encoding="UTF-8" standalone="no"?>
<!DOCTYPE svg PUBLIC "-//W3C//DTD SVG 1.1//EN"
 "http://www.w3.org/Graphics/SVG/1.1/DTD/svg11.dtd">
<!-- Generated by graphviz version 2.43.0 (0)
 -->
<!-- Title: inheritanceae7fc14d84 Pages: 1 -->
<svg width="304pt" height="101pt"
 viewBox="0.00 0.00 304.00 101.00" xmlns="http://www.w3.org/2000/svg" xmlns:xlink="http://www.w3.org/1999/xlink">
<g id="graph0" class="graph" transform="scale(1 1) rotate(0) translate(4 97)">
<title>inheritanceae7fc14d84</title>
<!-- DOMMixin -->
<g id="node1" class="node">
<title>DOMMixin</title>
<g id="a_node1"><a xlink:href="../pyGHDL.dom.html#pyGHDL.dom.DOMMixin" xlink:title="DOMMixin" target="_top">
<polygon fill="white" stroke="#1e90ff" points="107.5,-93 39.5,-93 39.5,-74 107.5,-74 107.5,-93"/>
<text text-anchor="middle" x="73.5" y="-81" font-family="Vera Sans, DejaVu Sans, Liberation Sans, Arial, Helvetica, sans" font-size="10.00">DOMMixin</text>
</a>
</g>
</g>
<!-- RecordTypeElement -->
<g id="node4" class="node">
<title>RecordTypeElement</title>
<g id="a_node4"><a xlink:href="../pyGHDL/pyGHDL.dom.Type.html#pyGHDL.dom.Type.RecordTypeElement" xlink:title="RecordTypeElement" target="_top">
<polygon fill="white" stroke="#1e90ff" points="296,-56 183,-56 183,-37 296,-37 296,-56"/>
<text text-anchor="middle" x="239.5" y="-44" font-family="Vera Sans, DejaVu Sans, Liberation Sans, Arial, Helvetica, sans" font-size="10.00">RecordTypeElement</text>
</a>
</g>
</g>
<!-- DOMMixin&#45;&gt;RecordTypeElement -->
<g id="edge2" class="edge">
<title>DOMMixin&#45;&gt;RecordTypeElement</title>
<path fill="none" stroke="black" stroke-width="0.5" d="M107.69,-76.01C131.74,-70.59 164.61,-63.17 191.38,-57.13"/>
<polygon fill="black" stroke="black" stroke-width="0.5" points="191.81,-58.83 196.3,-56.02 191.04,-55.41 191.81,-58.83"/>
</g>
<!-- ModelEntity -->
<g id="node2" class="node">
<title>ModelEntity</title>
<g id="a_node2"><a xlink:title="``ModelEntity`` is the base&#45;class for all classes in the VHDL language model, except for mixin classes (see multiple">
<polygon fill="white" stroke="#1e90ff" points="111,-56 36,-56 36,-37 111,-37 111,-56"/>
<text text-anchor="middle" x="73.5" y="-44" font-family="Vera Sans, DejaVu Sans, Liberation Sans, Arial, Helvetica, sans" font-size="10.00">ModelEntity</text>
</a>
</g>
</g>
<!-- ModelEntity&#45;&gt;RecordTypeElement -->
<g id="edge3" class="edge">
<title>ModelEntity&#45;&gt;RecordTypeElement</title>
<path fill="none" stroke="black" stroke-width="0.5" d="M111.3,-46.5C130.88,-46.5 155.46,-46.5 177.78,-46.5"/>
<polygon fill="black" stroke="black" stroke-width="0.5" points="177.8,-48.25 182.8,-46.5 177.8,-44.75 177.8,-48.25"/>
</g>
<!-- MultipleNamedEntityMixin -->
<g id="node3" class="node">
<title>MultipleNamedEntityMixin</title>
<g id="a_node3"><a xlink:title="A ``MultipleNamedEntityMixin`` is a mixin class for all VHDL entities that declare multiple instances at once by">
<polygon fill="white" stroke="#1e90ff" points="147,-19 0,-19 0,0 147,0 147,-19"/>
<text text-anchor="middle" x="73.5" y="-7" font-family="Vera Sans, DejaVu Sans, Liberation Sans, Arial, Helvetica, sans" font-size="10.00">MultipleNamedEntityMixin</text>
</a>
</g>
</g>
<!-- MultipleNamedEntityMixin&#45;&gt;RecordTypeElement -->
<g id="edge4" class="edge">
<title>MultipleNamedEntityMixin&#45;&gt;RecordTypeElement</title>
<path fill="none" stroke="black" stroke-width="0.5" d="M116.73,-19.03C139.51,-24.17 167.67,-30.52 191.18,-35.82"/>
<polygon fill="black" stroke="black" stroke-width="0.5" points="190.86,-37.55 196.12,-36.94 191.63,-34.13 190.86,-37.55"/>
</g>
<!-- RecordTypeElement&#45;&gt;RecordTypeElement -->
<g id="edge1" class="edge">
<title>RecordTypeElement&#45;&gt;RecordTypeElement</title>
<path fill="none" stroke="black" stroke-width="0.5" d="M213.91,-56.08C201.47,-64.73 210,-74 239.5,-74 264.85,-74 274.72,-67.16 269.09,-59.74"/>
<polygon fill="black" stroke="black" stroke-width="0.5" points="269.96,-58.16 265.09,-56.08 267.6,-60.75 269.96,-58.16"/>
</g>
</g>
</svg>
