<?xml version="1.0" encoding="UTF-8" standalone="no"?>
<!DOCTYPE svg PUBLIC "-//W3C//DTD SVG 1.1//EN"
 "http://www.w3.org/Graphics/SVG/1.1/DTD/svg11.dtd">
<!-- Generated by graphviz version 2.43.0 (0)
 -->
<!-- Title: inheritance200a74259a Pages: 1 -->
<svg width="291pt" height="64pt"
 viewBox="0.00 0.00 291.00 64.00" xmlns="http://www.w3.org/2000/svg" xmlns:xlink="http://www.w3.org/1999/xlink">
<g id="graph0" class="graph" transform="scale(1 1) rotate(0) translate(4 60)">
<title>inheritance200a74259a</title>
<!-- DOMMixin -->
<g id="node1" class="node">
<title>DOMMixin</title>
<g id="a_node1"><a xlink:href="../pyGHDL.dom.html#pyGHDL.dom.DOMMixin" xlink:title="DOMMixin" target="_top">
<polygon fill="white" stroke="#1e90ff" points="179,-56 111,-56 111,-37 179,-37 179,-56"/>
<text text-anchor="middle" x="145" y="-44" font-family="Vera Sans, DejaVu Sans, Liberation Sans, Arial, Helvetica, sans" font-size="10.00">DOMMixin</text>
</a>
</g>
</g>
<!-- UseClause -->
<g id="node4" class="node">
<title>UseClause</title>
<g id="a_node4"><a xlink:href="../pyGHDL/pyGHDL.dom.DesignUnit.html#pyGHDL.dom.DesignUnit.UseClause" xlink:title="UseClause" target="_top">
<polygon fill="white" stroke="#1e90ff" points="283,-37 215,-37 215,-18 283,-18 283,-37"/>
<text text-anchor="middle" x="249" y="-25" font-family="Vera Sans, DejaVu Sans, Liberation Sans, Arial, Helvetica, sans" font-size="10.00">UseClause</text>
</a>
</g>
</g>
<!-- DOMMixin&#45;&gt;UseClause -->
<g id="edge3" class="edge">
<title>DOMMixin&#45;&gt;UseClause</title>
<path fill="none" stroke="black" stroke-width="0.5" d="M179.12,-40.33C188.83,-38.52 199.52,-36.53 209.54,-34.66"/>
<polygon fill="black" stroke="black" stroke-width="0.5" points="210.11,-36.34 214.7,-33.7 209.46,-32.9 210.11,-36.34"/>
</g>
<!-- ModelEntity -->
<g id="node2" class="node">
<title>ModelEntity</title>
<g id="a_node2"><a xlink:title="``ModelEntity`` is the base&#45;class for all classes in the VHDL language model, except for mixin classes (see multiple">
<polygon fill="white" stroke="#1e90ff" points="75,-19 0,-19 0,0 75,0 75,-19"/>
<text text-anchor="middle" x="37.5" y="-7" font-family="Vera Sans, DejaVu Sans, Liberation Sans, Arial, Helvetica, sans" font-size="10.00">ModelEntity</text>
</a>
</g>
</g>
<!-- Reference -->
<g id="node3" class="node">
<title>Reference</title>
<polygon fill="white" stroke="#1e90ff" points="178,-19 112,-19 112,0 178,0 178,-19"/>
<text text-anchor="middle" x="145" y="-7" font-family="Vera Sans, DejaVu Sans, Liberation Sans, Arial, Helvetica, sans" font-size="10.00">Reference</text>
</g>
<!-- ModelEntity&#45;&gt;Reference -->
<g id="edge1" class="edge">
<title>ModelEntity&#45;&gt;Reference</title>
<path fill="none" stroke="black" stroke-width="0.5" d="M75.1,-9.5C85.24,-9.5 96.25,-9.5 106.44,-9.5"/>
<polygon fill="black" stroke="black" stroke-width="0.5" points="106.69,-11.25 111.69,-9.5 106.69,-7.75 106.69,-11.25"/>
</g>
<!-- Reference&#45;&gt;UseClause -->
<g id="edge4" class="edge">
<title>Reference&#45;&gt;UseClause</title>
<path fill="none" stroke="black" stroke-width="0.5" d="M178.27,-15.2C188.3,-16.97 199.46,-18.93 209.85,-20.77"/>
<polygon fill="black" stroke="black" stroke-width="0.5" points="209.66,-22.51 214.88,-21.66 210.26,-19.06 209.66,-22.51"/>
</g>
<!-- UseClause&#45;&gt;UseClause -->
<g id="edge2" class="edge">
<title>UseClause&#45;&gt;UseClause</title>
<path fill="none" stroke="black" stroke-width="0.5" d="M232.97,-37.08C225.17,-45.73 230.52,-55 249,-55 264.31,-55 270.6,-48.65 267.89,-41.55"/>
<polygon fill="black" stroke="black" stroke-width="0.5" points="269.2,-40.35 265.03,-37.08 266.25,-42.24 269.2,-40.35"/>
</g>
</g>
</svg>
