<?xml version="1.0" encoding="UTF-8" standalone="no"?>
<!DOCTYPE svg PUBLIC "-//W3C//DTD SVG 1.1//EN"
 "http://www.w3.org/Graphics/SVG/1.1/DTD/svg11.dtd">
<!-- Generated by graphviz version 2.43.0 (0)
 -->
<!-- Title: inheritance8fa8460949 Pages: 1 -->
<svg width="298pt" height="64pt"
 viewBox="0.00 0.00 298.00 64.00" xmlns="http://www.w3.org/2000/svg" xmlns:xlink="http://www.w3.org/1999/xlink">
<g id="graph0" class="graph" transform="scale(1 1) rotate(0) translate(4 60)">
<title>inheritance8fa8460949</title>
<!-- DOMMixin -->
<g id="node1" class="node">
<title>DOMMixin</title>
<g id="a_node1"><a xlink:href="../pyGHDL.dom.html#pyGHDL.dom.DOMMixin" xlink:title="DOMMixin" target="_top">
<polygon fill="white" stroke="#1e90ff" points="179,-56 111,-56 111,-37 179,-37 179,-56"/>
<text text-anchor="middle" x="145" y="-44" font-family="Vera Sans, DejaVu Sans, Liberation Sans, Arial, Helvetica, sans" font-size="10.00">DOMMixin</text>
</a>
</g>
</g>
<!-- SlicedName -->
<g id="node4" class="node">
<title>SlicedName</title>
<g id="a_node4"><a xlink:href="../pyGHDL/pyGHDL.dom.Names.html#pyGHDL.dom.Names.SlicedName" xlink:title="SlicedName" target="_top">
<polygon fill="white" stroke="#1e90ff" points="290,-37 215,-37 215,-18 290,-18 290,-37"/>
<text text-anchor="middle" x="252.5" y="-25" font-family="Vera Sans, DejaVu Sans, Liberation Sans, Arial, Helvetica, sans" font-size="10.00">SlicedName</text>
</a>
</g>
</g>
<!-- DOMMixin&#45;&gt;SlicedName -->
<g id="edge3" class="edge">
<title>DOMMixin&#45;&gt;SlicedName</title>
<path fill="none" stroke="black" stroke-width="0.5" d="M179.09,-40.54C188.85,-38.78 199.67,-36.84 209.89,-34.99"/>
<polygon fill="black" stroke="black" stroke-width="0.5" points="210.25,-36.71 214.86,-34.1 209.63,-33.26 210.25,-36.71"/>
</g>
<!-- ModelEntity -->
<g id="node2" class="node">
<title>ModelEntity</title>
<g id="a_node2"><a xlink:title="``ModelEntity`` is the base&#45;class for all classes in the VHDL language model, except for mixin classes (see multiple">
<polygon fill="white" stroke="#1e90ff" points="75,-19 0,-19 0,0 75,0 75,-19"/>
<text text-anchor="middle" x="37.5" y="-7" font-family="Vera Sans, DejaVu Sans, Liberation Sans, Arial, Helvetica, sans" font-size="10.00">ModelEntity</text>
</a>
</g>
</g>
<!-- Name -->
<g id="node3" class="node">
<title>Name</title>
<g id="a_node3"><a xlink:title="``Name`` is the base&#45;class for all *names* in the VHDL language model.">
<polygon fill="white" stroke="#1e90ff" points="172,-19 118,-19 118,0 172,0 172,-19"/>
<text text-anchor="middle" x="145" y="-7" font-family="Vera Sans, DejaVu Sans, Liberation Sans, Arial, Helvetica, sans" font-size="10.00">Name</text>
</a>
</g>
</g>
<!-- ModelEntity&#45;&gt;Name -->
<g id="edge1" class="edge">
<title>ModelEntity&#45;&gt;Name</title>
<path fill="none" stroke="black" stroke-width="0.5" d="M75.1,-9.5C87.28,-9.5 100.73,-9.5 112.49,-9.5"/>
<polygon fill="black" stroke="black" stroke-width="0.5" points="112.77,-11.25 117.77,-9.5 112.77,-7.75 112.77,-11.25"/>
</g>
<!-- Name&#45;&gt;SlicedName -->
<g id="edge4" class="edge">
<title>Name&#45;&gt;SlicedName</title>
<path fill="none" stroke="black" stroke-width="0.5" d="M172.08,-13.95C183.5,-15.9 197.18,-18.23 209.95,-20.41"/>
<polygon fill="black" stroke="black" stroke-width="0.5" points="209.75,-22.15 214.98,-21.27 210.34,-18.7 209.75,-22.15"/>
</g>
<!-- SlicedName&#45;&gt;SlicedName -->
<g id="edge2" class="edge">
<title>SlicedName&#45;&gt;SlicedName</title>
<path fill="none" stroke="black" stroke-width="0.5" d="M236.16,-37.08C228.21,-45.73 233.66,-55 252.5,-55 268.1,-55 274.52,-48.65 271.75,-41.55"/>
<polygon fill="black" stroke="black" stroke-width="0.5" points="273.03,-40.32 268.84,-37.08 270.1,-42.23 273.03,-40.32"/>
</g>
</g>
</svg>
