<?xml version="1.0" encoding="UTF-8" standalone="no"?>
<!DOCTYPE svg PUBLIC "-//W3C//DTD SVG 1.1//EN"
 "http://www.w3.org/Graphics/SVG/1.1/DTD/svg11.dtd">
<!-- Generated by graphviz version 2.43.0 (0)
 -->
<!-- Title: inheritanceae1df96650 Pages: 1 -->
<svg width="576pt" height="91pt"
 viewBox="0.00 0.00 576.00 91.33" xmlns="http://www.w3.org/2000/svg" xmlns:xlink="http://www.w3.org/1999/xlink">
<g id="graph0" class="graph" transform="scale(1.11 1.11) rotate(0) translate(4 97)">
<title>inheritanceae1df96650</title>
<!-- DOMMixin -->
<g id="node1" class="node">
<title>DOMMixin</title>
<g id="a_node1"><a xlink:href="../pyGHDL.dom.html#pyGHDL.dom.DOMMixin" xlink:title="DOMMixin" target="_top">
<polygon fill="white" stroke="#1e90ff" points="468,-93 400,-93 400,-74 468,-74 468,-93"/>
<text text-anchor="middle" x="434" y="-81" font-family="Vera Sans, DejaVu Sans, Liberation Sans, Arial, Helvetica, sans" font-size="10.00">DOMMixin</text>
</a>
</g>
</g>
<!-- VerificationProperty -->
<g id="node8" class="node">
<title>VerificationProperty</title>
<g id="a_node8"><a xlink:href="../pyGHDL/pyGHDL.dom.PSL.html#pyGHDL.dom.PSL.VerificationProperty" xlink:title="VerificationProperty" target="_top">
<polygon fill="white" stroke="#1e90ff" points="629,-74 516,-74 516,-55 629,-55 629,-74"/>
<text text-anchor="middle" x="572.5" y="-62" font-family="Vera Sans, DejaVu Sans, Liberation Sans, Arial, Helvetica, sans" font-size="10.00">VerificationProperty</text>
</a>
</g>
</g>
<!-- DOMMixin&#45;&gt;VerificationProperty -->
<g id="edge7" class="edge">
<title>DOMMixin&#45;&gt;VerificationProperty</title>
<path fill="none" stroke="black" stroke-width="0.5" d="M468.04,-78.9C480.94,-77.1 496.16,-74.99 510.89,-72.94"/>
<polygon fill="black" stroke="black" stroke-width="0.5" points="511.15,-74.67 515.86,-72.24 510.67,-71.2 511.15,-74.67"/>
</g>
<!-- DesignUnit -->
<g id="node2" class="node">
<title>DesignUnit</title>
<g id="a_node2"><a xlink:title="A ``DesignUnit`` is a base&#45;class for all design units.">
<polygon fill="white" stroke="#1e90ff" points="241,-56 170,-56 170,-37 241,-37 241,-56"/>
<text text-anchor="middle" x="205.5" y="-44" font-family="Vera Sans, DejaVu Sans, Liberation Sans, Arial, Helvetica, sans" font-size="10.00">DesignUnit</text>
</a>
</g>
</g>
<!-- PrimaryUnit -->
<g id="node7" class="node">
<title>PrimaryUnit</title>
<g id="a_node7"><a xlink:title="A ``PrimaryUnit`` is a base&#45;class for all primary units.">
<polygon fill="white" stroke="#1e90ff" points="352,-56 277,-56 277,-37 352,-37 352,-56"/>
<text text-anchor="middle" x="314.5" y="-44" font-family="Vera Sans, DejaVu Sans, Liberation Sans, Arial, Helvetica, sans" font-size="10.00">PrimaryUnit</text>
</a>
</g>
</g>
<!-- DesignUnit&#45;&gt;PrimaryUnit -->
<g id="edge5" class="edge">
<title>DesignUnit&#45;&gt;PrimaryUnit</title>
<path fill="none" stroke="black" stroke-width="0.5" d="M241.24,-46.5C250.91,-46.5 261.51,-46.5 271.54,-46.5"/>
<polygon fill="black" stroke="black" stroke-width="0.5" points="271.72,-48.25 276.72,-46.5 271.72,-44.75 271.72,-48.25"/>
</g>
<!-- ModelEntity -->
<g id="node3" class="node">
<title>ModelEntity</title>
<g id="a_node3"><a xlink:title="``ModelEntity`` is the base&#45;class for all classes in the VHDL language model, except for mixin classes (see multiple">
<polygon fill="white" stroke="#1e90ff" points="104.5,-93 29.5,-93 29.5,-74 104.5,-74 104.5,-93"/>
<text text-anchor="middle" x="67" y="-81" font-family="Vera Sans, DejaVu Sans, Liberation Sans, Arial, Helvetica, sans" font-size="10.00">ModelEntity</text>
</a>
</g>
</g>
<!-- ModelEntity&#45;&gt;DesignUnit -->
<g id="edge1" class="edge">
<title>ModelEntity&#45;&gt;DesignUnit</title>
<path fill="none" stroke="black" stroke-width="0.5" d="M103.15,-73.97C122.09,-68.84 145.5,-62.49 165.06,-57.19"/>
<polygon fill="black" stroke="black" stroke-width="0.5" points="165.57,-58.87 169.94,-55.87 164.66,-55.49 165.57,-58.87"/>
</g>
<!-- NamedEntityMixin -->
<g id="node4" class="node">
<title>NamedEntityMixin</title>
<g id="a_node4"><a xlink:title="A ``NamedEntityMixin`` is a mixin class for all VHDL entities that have identifiers.">
<polygon fill="white" stroke="#1e90ff" points="120.5,-56 13.5,-56 13.5,-37 120.5,-37 120.5,-56"/>
<text text-anchor="middle" x="67" y="-44" font-family="Vera Sans, DejaVu Sans, Liberation Sans, Arial, Helvetica, sans" font-size="10.00">NamedEntityMixin</text>
</a>
</g>
</g>
<!-- NamedEntityMixin&#45;&gt;DesignUnit -->
<g id="edge2" class="edge">
<title>NamedEntityMixin&#45;&gt;DesignUnit</title>
<path fill="none" stroke="black" stroke-width="0.5" d="M120.77,-46.5C135.35,-46.5 150.91,-46.5 164.62,-46.5"/>
<polygon fill="black" stroke="black" stroke-width="0.5" points="164.97,-48.25 169.97,-46.5 164.97,-44.75 164.97,-48.25"/>
</g>
<!-- DocumentedEntityMixin -->
<g id="node5" class="node">
<title>DocumentedEntityMixin</title>
<g id="a_node5"><a xlink:title="A ``DocumentedEntityMixin`` is a mixin class for all VHDL entities that can have an associated documentation.">
<polygon fill="white" stroke="#1e90ff" points="134,-19 0,-19 0,0 134,0 134,-19"/>
<text text-anchor="middle" x="67" y="-7" font-family="Vera Sans, DejaVu Sans, Liberation Sans, Arial, Helvetica, sans" font-size="10.00">DocumentedEntityMixin</text>
</a>
</g>
</g>
<!-- DocumentedEntityMixin&#45;&gt;DesignUnit -->
<g id="edge3" class="edge">
<title>DocumentedEntityMixin&#45;&gt;DesignUnit</title>
<path fill="none" stroke="black" stroke-width="0.5" d="M103.15,-19.03C122.09,-24.16 145.5,-30.51 165.06,-35.81"/>
<polygon fill="black" stroke="black" stroke-width="0.5" points="164.66,-37.51 169.94,-37.13 165.57,-34.13 164.66,-37.51"/>
</g>
<!-- PSLPrimaryUnit -->
<g id="node6" class="node">
<title>PSLPrimaryUnit</title>
<polygon fill="white" stroke="#1e90ff" points="480,-56 388,-56 388,-37 480,-37 480,-56"/>
<text text-anchor="middle" x="434" y="-44" font-family="Vera Sans, DejaVu Sans, Liberation Sans, Arial, Helvetica, sans" font-size="10.00">PSLPrimaryUnit</text>
</g>
<!-- PSLPrimaryUnit&#45;&gt;VerificationProperty -->
<g id="edge8" class="edge">
<title>PSLPrimaryUnit&#45;&gt;VerificationProperty</title>
<path fill="none" stroke="black" stroke-width="0.5" d="M480.07,-52.44C489.82,-53.73 500.28,-55.11 510.51,-56.46"/>
<polygon fill="black" stroke="black" stroke-width="0.5" points="510.33,-58.2 515.52,-57.12 510.79,-54.73 510.33,-58.2"/>
</g>
<!-- PrimaryUnit&#45;&gt;PSLPrimaryUnit -->
<g id="edge4" class="edge">
<title>PrimaryUnit&#45;&gt;PSLPrimaryUnit</title>
<path fill="none" stroke="black" stroke-width="0.5" d="M352.03,-46.5C361.76,-46.5 372.44,-46.5 382.76,-46.5"/>
<polygon fill="black" stroke="black" stroke-width="0.5" points="382.79,-48.25 387.79,-46.5 382.79,-44.75 382.79,-48.25"/>
</g>
<!-- VerificationProperty&#45;&gt;VerificationProperty -->
<g id="edge6" class="edge">
<title>VerificationProperty&#45;&gt;VerificationProperty</title>
<path fill="none" stroke="black" stroke-width="0.5" d="M551.23,-74.08C540.88,-82.73 547.97,-92 572.5,-92 593.19,-92 601.48,-85.4 597.34,-78.15"/>
<polygon fill="black" stroke="black" stroke-width="0.5" points="598.39,-76.68 593.77,-74.08 595.76,-78.99 598.39,-76.68"/>
</g>
</g>
</svg>
