<?xml version="1.0" encoding="UTF-8" standalone="no"?>
<!DOCTYPE svg PUBLIC "-//W3C//DTD SVG 1.1//EN"
 "http://www.w3.org/Graphics/SVG/1.1/DTD/svg11.dtd">
<!-- Generated by graphviz version 2.43.0 (0)
 -->
<!-- Title: inheritance98c00a7eba Pages: 1 -->
<svg width="576pt" height="109pt"
 viewBox="0.00 0.00 576.00 108.56" xmlns="http://www.w3.org/2000/svg" xmlns:xlink="http://www.w3.org/1999/xlink">
<g id="graph0" class="graph" transform="scale(1.45 1.45) rotate(0) translate(4 153)">
<title>inheritance98c00a7eba</title>
<!-- BaseConstant -->
<g id="node1" class="node">
<title>BaseConstant</title>
<polygon fill="white" stroke="#1e90ff" points="421.5,-131 337.5,-131 337.5,-112 421.5,-112 421.5,-131"/>
<text text-anchor="middle" x="379.5" y="-119" font-family="Vera Sans, DejaVu Sans, Liberation Sans, Arial, Helvetica, sans" font-size="10.00">BaseConstant</text>
</g>
<!-- Constant -->
<g id="node3" class="node">
<title>Constant</title>
<polygon fill="white" stroke="#1e90ff" points="589,-95 529,-95 529,-76 589,-76 589,-95"/>
<text text-anchor="middle" x="559" y="-83" font-family="Vera Sans, DejaVu Sans, Liberation Sans, Arial, Helvetica, sans" font-size="10.00">Constant</text>
</g>
<!-- BaseConstant&#45;&gt;Constant -->
<g id="edge2" class="edge">
<title>BaseConstant&#45;&gt;Constant</title>
<path fill="none" stroke="black" stroke-width="0.5" d="M421.67,-113.15C452.74,-106.85 494.87,-98.3 524.04,-92.39"/>
<polygon fill="black" stroke="black" stroke-width="0.5" points="524.41,-94.1 528.96,-91.39 523.71,-90.67 524.41,-94.1"/>
</g>
<!-- Obj -->
<g id="node2" class="node">
<title>Obj</title>
<polygon fill="white" stroke="#1e90ff" points="251.5,-121 197.5,-121 197.5,-102 251.5,-102 251.5,-121"/>
<text text-anchor="middle" x="224.5" y="-109" font-family="Vera Sans, DejaVu Sans, Liberation Sans, Arial, Helvetica, sans" font-size="10.00">Obj</text>
</g>
<!-- Obj&#45;&gt;BaseConstant -->
<g id="edge1" class="edge">
<title>Obj&#45;&gt;BaseConstant</title>
<path fill="none" stroke="black" stroke-width="0.5" d="M251.8,-113.22C273.83,-114.66 305.8,-116.75 332.11,-118.47"/>
<polygon fill="black" stroke="black" stroke-width="0.5" points="332.19,-120.23 337.29,-118.81 332.42,-116.73 332.19,-120.23"/>
</g>
<!-- GenericConstantInterfaceItem -->
<g id="node7" class="node">
<title>GenericConstantInterfaceItem</title>
<g id="a_node7"><a xlink:href="../pyGHDL/pyGHDL.dom.InterfaceItem.html#pyGHDL.dom.InterfaceItem.GenericConstantInterfaceItem" xlink:title="GenericConstantInterfaceItem" target="_top">
<polygon fill="white" stroke="#1e90ff" points="825,-76 661,-76 661,-57 825,-57 825,-76"/>
<text text-anchor="middle" x="743" y="-64" font-family="Vera Sans, DejaVu Sans, Liberation Sans, Arial, Helvetica, sans" font-size="10.00">GenericConstantInterfaceItem</text>
</a>
</g>
</g>
<!-- Constant&#45;&gt;GenericConstantInterfaceItem -->
<g id="edge6" class="edge">
<title>Constant&#45;&gt;GenericConstantInterfaceItem</title>
<path fill="none" stroke="black" stroke-width="0.5" d="M589.24,-82.45C607.44,-80.55 631.88,-78 655.87,-75.49"/>
<polygon fill="black" stroke="black" stroke-width="0.5" points="656.18,-77.22 660.98,-74.96 655.82,-73.74 656.18,-77.22"/>
</g>
<!-- WithDefaultExpressionMixin -->
<g id="node4" class="node">
<title>WithDefaultExpressionMixin</title>
<g id="a_node4"><a xlink:title="A ``WithDefaultExpression`` is a mixin class for all objects declarations accepting default expressions.">
<polygon fill="white" stroke="#1e90ff" points="457,-94 302,-94 302,-75 457,-75 457,-94"/>
<text text-anchor="middle" x="379.5" y="-82" font-family="Vera Sans, DejaVu Sans, Liberation Sans, Arial, Helvetica, sans" font-size="10.00">WithDefaultExpressionMixin</text>
</a>
</g>
</g>
<!-- WithDefaultExpressionMixin&#45;&gt;Constant -->
<g id="edge3" class="edge">
<title>WithDefaultExpressionMixin&#45;&gt;Constant</title>
<path fill="none" stroke="black" stroke-width="0.5" d="M457.06,-84.93C480.22,-85.06 504.51,-85.2 523.45,-85.31"/>
<polygon fill="black" stroke="black" stroke-width="0.5" points="523.64,-87.06 528.65,-85.33 523.66,-83.56 523.64,-87.06"/>
</g>
<!-- DOMMixin -->
<g id="node5" class="node">
<title>DOMMixin</title>
<g id="a_node5"><a xlink:href="../pyGHDL.dom.html#pyGHDL.dom.DOMMixin" xlink:title="DOMMixin" target="_top">
<polygon fill="white" stroke="#1e90ff" points="593,-132 525,-132 525,-113 593,-113 593,-132"/>
<text text-anchor="middle" x="559" y="-120" font-family="Vera Sans, DejaVu Sans, Liberation Sans, Arial, Helvetica, sans" font-size="10.00">DOMMixin</text>
</a>
</g>
</g>
<!-- DOMMixin&#45;&gt;GenericConstantInterfaceItem -->
<g id="edge5" class="edge">
<title>DOMMixin&#45;&gt;GenericConstantInterfaceItem</title>
<path fill="none" stroke="black" stroke-width="0.5" d="M593.15,-113.62C603.39,-110.8 614.68,-107.6 625,-104.5 653.45,-95.95 685.53,-85.47 708.89,-77.68"/>
<polygon fill="black" stroke="black" stroke-width="0.5" points="709.55,-79.31 713.74,-76.06 708.44,-75.99 709.55,-79.31"/>
</g>
<!-- DocumentedEntityMixin -->
<g id="node6" class="node">
<title>DocumentedEntityMixin</title>
<g id="a_node6"><a xlink:title="A ``DocumentedEntityMixin`` is a mixin class for all VHDL entities that can have an associated documentation.">
<polygon fill="white" stroke="#1e90ff" points="140.5,-75 6.5,-75 6.5,-56 140.5,-56 140.5,-75"/>
<text text-anchor="middle" x="73.5" y="-63" font-family="Vera Sans, DejaVu Sans, Liberation Sans, Arial, Helvetica, sans" font-size="10.00">DocumentedEntityMixin</text>
</a>
</g>
</g>
<!-- DocumentedEntityMixin&#45;&gt;Obj -->
<g id="edge13" class="edge">
<title>DocumentedEntityMixin&#45;&gt;Obj</title>
<path fill="none" stroke="black" stroke-width="0.5" d="M113.42,-75.07C124.34,-77.92 136.18,-81.18 147,-84.5 162.35,-89.21 179.2,-95.08 193.17,-100.14"/>
<polygon fill="black" stroke="black" stroke-width="0.5" points="192.88,-101.9 198.18,-101.97 194.08,-98.61 192.88,-101.9"/>
</g>
<!-- InterfaceItem -->
<g id="node10" class="node">
<title>InterfaceItem</title>
<g id="a_node10"><a xlink:title="An ``InterfaceItem`` is a base&#45;class for all mixin&#45;classes for all interface items.">
<polygon fill="white" stroke="#1e90ff" points="266,-75 183,-75 183,-56 266,-56 266,-75"/>
<text text-anchor="middle" x="224.5" y="-63" font-family="Vera Sans, DejaVu Sans, Liberation Sans, Arial, Helvetica, sans" font-size="10.00">InterfaceItem</text>
</a>
</g>
</g>
<!-- DocumentedEntityMixin&#45;&gt;InterfaceItem -->
<g id="edge10" class="edge">
<title>DocumentedEntityMixin&#45;&gt;InterfaceItem</title>
<path fill="none" stroke="black" stroke-width="0.5" d="M140.72,-65.5C153.12,-65.5 165.83,-65.5 177.46,-65.5"/>
<polygon fill="black" stroke="black" stroke-width="0.5" points="177.72,-67.25 182.72,-65.5 177.72,-63.75 177.72,-67.25"/>
</g>
<!-- GenericConstantInterfaceItem&#45;&gt;GenericConstantInterfaceItem -->
<g id="edge4" class="edge">
<title>GenericConstantInterfaceItem&#45;&gt;GenericConstantInterfaceItem</title>
<path fill="none" stroke="black" stroke-width="0.5" d="M714.64,-76.08C700.84,-84.73 710.3,-94 743,-94 771.62,-94 782.43,-86.91 775.44,-79.34"/>
<polygon fill="black" stroke="black" stroke-width="0.5" points="776.36,-77.83 771.36,-76.08 774.18,-80.57 776.36,-77.83"/>
</g>
<!-- GenericInterfaceItem -->
<g id="node8" class="node">
<title>GenericInterfaceItem</title>
<g id="a_node8"><a xlink:title="A ``GenericInterfaceItem`` is a mixin class for all generic interface items.">
<polygon fill="white" stroke="#1e90ff" points="439.5,-57 319.5,-57 319.5,-38 439.5,-38 439.5,-57"/>
<text text-anchor="middle" x="379.5" y="-45" font-family="Vera Sans, DejaVu Sans, Liberation Sans, Arial, Helvetica, sans" font-size="10.00">GenericInterfaceItem</text>
</a>
</g>
</g>
<!-- GenericInterfaceItem&#45;&gt;GenericConstantInterfaceItem -->
<g id="edge7" class="edge">
<title>GenericInterfaceItem&#45;&gt;GenericConstantInterfaceItem</title>
<path fill="none" stroke="black" stroke-width="0.5" d="M439.79,-50.62C498.45,-53.7 588.89,-58.45 655.55,-61.96"/>
<polygon fill="black" stroke="black" stroke-width="0.5" points="655.63,-63.71 660.71,-62.23 655.81,-60.22 655.63,-63.71"/>
</g>
<!-- InterfaceItemWithMode -->
<g id="node9" class="node">
<title>InterfaceItemWithMode</title>
<g id="a_node9"><a xlink:title="An ``InterfaceItemWithMode`` is a mixin&#45;class to provide a ``Mode`` to interface items.">
<polygon fill="white" stroke="#1e90ff" points="625,-19 493,-19 493,0 625,0 625,-19"/>
<text text-anchor="middle" x="559" y="-7" font-family="Vera Sans, DejaVu Sans, Liberation Sans, Arial, Helvetica, sans" font-size="10.00">InterfaceItemWithMode</text>
</a>
</g>
</g>
<!-- InterfaceItemWithMode&#45;&gt;GenericConstantInterfaceItem -->
<g id="edge8" class="edge">
<title>InterfaceItemWithMode&#45;&gt;GenericConstantInterfaceItem</title>
<path fill="none" stroke="black" stroke-width="0.5" d="M590.46,-19.04C622.48,-29.07 672.81,-44.83 706.58,-55.41"/>
<polygon fill="black" stroke="black" stroke-width="0.5" points="706.14,-57.1 711.44,-56.93 707.19,-53.76 706.14,-57.1"/>
</g>
<!-- InterfaceItem&#45;&gt;GenericInterfaceItem -->
<g id="edge9" class="edge">
<title>InterfaceItem&#45;&gt;GenericInterfaceItem</title>
<path fill="none" stroke="black" stroke-width="0.5" d="M266.1,-60.72C280.86,-58.99 297.93,-56.98 314.24,-55.06"/>
<polygon fill="black" stroke="black" stroke-width="0.5" points="314.51,-56.79 319.27,-54.47 314.1,-53.31 314.51,-56.79"/>
</g>
<!-- ModelEntity -->
<g id="node11" class="node">
<title>ModelEntity</title>
<g id="a_node11"><a xlink:title="``ModelEntity`` is the base&#45;class for all classes in the VHDL language model, except for mixin classes (see multiple">
<polygon fill="white" stroke="#1e90ff" points="111,-149 36,-149 36,-130 111,-130 111,-149"/>
<text text-anchor="middle" x="73.5" y="-137" font-family="Vera Sans, DejaVu Sans, Liberation Sans, Arial, Helvetica, sans" font-size="10.00">ModelEntity</text>
</a>
</g>
</g>
<!-- ModelEntity&#45;&gt;Obj -->
<g id="edge11" class="edge">
<title>ModelEntity&#45;&gt;Obj</title>
<path fill="none" stroke="black" stroke-width="0.5" d="M111.33,-132.58C136.17,-127.91 168.58,-121.82 192.18,-117.39"/>
<polygon fill="black" stroke="black" stroke-width="0.5" points="192.78,-119.05 197.37,-116.41 192.14,-115.61 192.78,-119.05"/>
</g>
<!-- MultipleNamedEntityMixin -->
<g id="node12" class="node">
<title>MultipleNamedEntityMixin</title>
<g id="a_node12"><a xlink:title="A ``MultipleNamedEntityMixin`` is a mixin class for all VHDL entities that declare multiple instances at once by">
<polygon fill="white" stroke="#1e90ff" points="147,-112 0,-112 0,-93 147,-93 147,-112"/>
<text text-anchor="middle" x="73.5" y="-100" font-family="Vera Sans, DejaVu Sans, Liberation Sans, Arial, Helvetica, sans" font-size="10.00">MultipleNamedEntityMixin</text>
</a>
</g>
</g>
<!-- MultipleNamedEntityMixin&#45;&gt;Obj -->
<g id="edge12" class="edge">
<title>MultipleNamedEntityMixin&#45;&gt;Obj</title>
<path fill="none" stroke="black" stroke-width="0.5" d="M147.25,-106.89C163.04,-107.85 178.92,-108.81 192.08,-109.6"/>
<polygon fill="black" stroke="black" stroke-width="0.5" points="192.07,-111.35 197.17,-109.91 192.28,-107.86 192.07,-111.35"/>
</g>
</g>
</svg>
