<?xml version="1.0" encoding="UTF-8" standalone="no"?>
<!DOCTYPE svg PUBLIC "-//W3C//DTD SVG 1.1//EN"
 "http://www.w3.org/Graphics/SVG/1.1/DTD/svg11.dtd">
<!-- Generated by graphviz version 2.43.0 (0)
 -->
<!-- Title: inheritancecce40f4126 Pages: 1 -->
<svg width="549pt" height="119pt"
 viewBox="0.00 0.00 549.00 119.00" xmlns="http://www.w3.org/2000/svg" xmlns:xlink="http://www.w3.org/1999/xlink">
<g id="graph0" class="graph" transform="scale(1 1) rotate(0) translate(4 115)">
<title>inheritancecce40f4126</title>
<!-- DOMMixin -->
<g id="node1" class="node">
<title>DOMMixin</title>
<g id="a_node1"><a xlink:href="../pyGHDL.dom.html#pyGHDL.dom.DOMMixin" xlink:title="DOMMixin" target="_top">
<polygon fill="white" stroke="#1e90ff" points="343.5,-111 275.5,-111 275.5,-92 343.5,-92 343.5,-111"/>
<text text-anchor="middle" x="309.5" y="-99" font-family="Vera Sans, DejaVu Sans, Liberation Sans, Arial, Helvetica, sans" font-size="10.00">DOMMixin</text>
</a>
</g>
</g>
<!-- SequentialProcedureCall -->
<g id="node5" class="node">
<title>SequentialProcedureCall</title>
<g id="a_node5"><a xlink:href="../pyGHDL/pyGHDL.dom.Sequential.html#pyGHDL.dom.Sequential.SequentialProcedureCall" xlink:title="SequentialProcedureCall" target="_top">
<polygon fill="white" stroke="#1e90ff" points="541,-74 405,-74 405,-55 541,-55 541,-74"/>
<text text-anchor="middle" x="473" y="-62" font-family="Vera Sans, DejaVu Sans, Liberation Sans, Arial, Helvetica, sans" font-size="10.00">SequentialProcedureCall</text>
</a>
</g>
</g>
<!-- DOMMixin&#45;&gt;SequentialProcedureCall -->
<g id="edge2" class="edge">
<title>DOMMixin&#45;&gt;SequentialProcedureCall</title>
<path fill="none" stroke="black" stroke-width="0.5" d="M343.57,-93.92C367.1,-88.53 399.05,-81.21 425.2,-75.22"/>
<polygon fill="black" stroke="black" stroke-width="0.5" points="425.86,-76.87 430.34,-74.04 425.08,-73.45 425.86,-76.87"/>
</g>
<!-- LabeledEntityMixin -->
<g id="node2" class="node">
<title>LabeledEntityMixin</title>
<g id="a_node2"><a xlink:title="A ``LabeledEntityMixin`` is a mixin class for all VHDL entities that can have labels.">
<polygon fill="white" stroke="#1e90ff" points="110,-56 0,-56 0,-37 110,-37 110,-56"/>
<text text-anchor="middle" x="55" y="-44" font-family="Vera Sans, DejaVu Sans, Liberation Sans, Arial, Helvetica, sans" font-size="10.00">LabeledEntityMixin</text>
</a>
</g>
</g>
<!-- Statement -->
<g id="node7" class="node">
<title>Statement</title>
<g id="a_node7"><a xlink:title="A ``Statement`` is a base&#45;class for all statements.">
<polygon fill="white" stroke="#1e90ff" points="214,-37 146,-37 146,-18 214,-18 214,-37"/>
<text text-anchor="middle" x="180" y="-25" font-family="Vera Sans, DejaVu Sans, Liberation Sans, Arial, Helvetica, sans" font-size="10.00">Statement</text>
</a>
</g>
</g>
<!-- LabeledEntityMixin&#45;&gt;Statement -->
<g id="edge7" class="edge">
<title>LabeledEntityMixin&#45;&gt;Statement</title>
<path fill="none" stroke="black" stroke-width="0.5" d="M110.31,-38.11C120.61,-36.52 131.19,-34.89 140.86,-33.39"/>
<polygon fill="black" stroke="black" stroke-width="0.5" points="141.15,-35.12 145.83,-32.62 140.62,-31.66 141.15,-35.12"/>
</g>
<!-- ModelEntity -->
<g id="node3" class="node">
<title>ModelEntity</title>
<g id="a_node3"><a xlink:title="``ModelEntity`` is the base&#45;class for all classes in the VHDL language model, except for mixin classes (see multiple">
<polygon fill="white" stroke="#1e90ff" points="92.5,-19 17.5,-19 17.5,0 92.5,0 92.5,-19"/>
<text text-anchor="middle" x="55" y="-7" font-family="Vera Sans, DejaVu Sans, Liberation Sans, Arial, Helvetica, sans" font-size="10.00">ModelEntity</text>
</a>
</g>
</g>
<!-- ModelEntity&#45;&gt;Statement -->
<g id="edge6" class="edge">
<title>ModelEntity&#45;&gt;Statement</title>
<path fill="none" stroke="black" stroke-width="0.5" d="M92.57,-14.85C107.71,-17.07 125.28,-19.64 140.61,-21.88"/>
<polygon fill="black" stroke="black" stroke-width="0.5" points="140.51,-23.64 145.72,-22.63 141.02,-20.17 140.51,-23.64"/>
</g>
<!-- ProcedureCall -->
<g id="node4" class="node">
<title>ProcedureCall</title>
<polygon fill="white" stroke="#1e90ff" points="351.5,-74 267.5,-74 267.5,-55 351.5,-55 351.5,-74"/>
<text text-anchor="middle" x="309.5" y="-62" font-family="Vera Sans, DejaVu Sans, Liberation Sans, Arial, Helvetica, sans" font-size="10.00">ProcedureCall</text>
</g>
<!-- ProcedureCall&#45;&gt;SequentialProcedureCall -->
<g id="edge4" class="edge">
<title>ProcedureCall&#45;&gt;SequentialProcedureCall</title>
<path fill="none" stroke="black" stroke-width="0.5" d="M351.67,-64.5C366.32,-64.5 383.28,-64.5 399.77,-64.5"/>
<polygon fill="black" stroke="black" stroke-width="0.5" points="399.86,-66.25 404.86,-64.5 399.86,-62.75 399.86,-66.25"/>
</g>
<!-- SequentialProcedureCall&#45;&gt;SequentialProcedureCall -->
<g id="edge1" class="edge">
<title>SequentialProcedureCall&#45;&gt;SequentialProcedureCall</title>
<path fill="none" stroke="black" stroke-width="0.5" d="M448.03,-74.08C435.88,-82.73 444.21,-92 473,-92 497.74,-92 507.37,-85.16 501.88,-77.74"/>
<polygon fill="black" stroke="black" stroke-width="0.5" points="502.82,-76.22 497.97,-74.08 500.42,-78.78 502.82,-76.22"/>
</g>
<!-- SequentialStatement -->
<g id="node6" class="node">
<title>SequentialStatement</title>
<g id="a_node6"><a xlink:title="A ``SequentialStatement`` is a base&#45;class for all sequential statements.">
<polygon fill="white" stroke="#1e90ff" points="369,-37 250,-37 250,-18 369,-18 369,-37"/>
<text text-anchor="middle" x="309.5" y="-25" font-family="Vera Sans, DejaVu Sans, Liberation Sans, Arial, Helvetica, sans" font-size="10.00">SequentialStatement</text>
</a>
</g>
</g>
<!-- SequentialStatement&#45;&gt;SequentialProcedureCall -->
<g id="edge3" class="edge">
<title>SequentialStatement&#45;&gt;SequentialProcedureCall</title>
<path fill="none" stroke="black" stroke-width="0.5" d="M352.09,-37.03C374.42,-42.14 402.02,-48.47 425.11,-53.76"/>
<polygon fill="black" stroke="black" stroke-width="0.5" points="425.01,-55.53 430.27,-54.94 425.79,-52.12 425.01,-55.53"/>
</g>
<!-- Statement&#45;&gt;SequentialStatement -->
<g id="edge5" class="edge">
<title>Statement&#45;&gt;SequentialStatement</title>
<path fill="none" stroke="black" stroke-width="0.5" d="M214.17,-27.5C223.55,-27.5 234.09,-27.5 244.64,-27.5"/>
<polygon fill="black" stroke="black" stroke-width="0.5" points="244.81,-29.25 249.81,-27.5 244.81,-25.75 244.81,-29.25"/>
</g>
</g>
</svg>
