<?xml version="1.0" encoding="UTF-8" standalone="no"?>
<!DOCTYPE svg PUBLIC "-//W3C//DTD SVG 1.1//EN"
 "http://www.w3.org/Graphics/SVG/1.1/DTD/svg11.dtd">
<!-- Generated by graphviz version 2.43.0 (0)
 -->
<!-- Title: inheritance9aa24fd915 Pages: 1 -->
<svg width="489pt" height="119pt"
 viewBox="0.00 0.00 489.00 119.00" xmlns="http://www.w3.org/2000/svg" xmlns:xlink="http://www.w3.org/1999/xlink">
<g id="graph0" class="graph" transform="scale(1 1) rotate(0) translate(4 115)">
<title>inheritance9aa24fd915</title>
<!-- Branch -->
<g id="node1" class="node">
<title>Branch</title>
<g id="a_node1"><a xlink:title="A ``Branch`` is a base&#45;class for all branches in a if statement.">
<polygon fill="white" stroke="#1e90ff" points="373,-56 319,-56 319,-37 373,-37 373,-56"/>
<text text-anchor="middle" x="346" y="-44" font-family="Vera Sans, DejaVu Sans, Liberation Sans, Arial, Helvetica, sans" font-size="10.00">Branch</text>
</a>
</g>
</g>
<!-- IfBranch -->
<g id="node7" class="node">
<title>IfBranch</title>
<g id="a_node7"><a xlink:href="../pyGHDL/pyGHDL.dom.Sequential.html#pyGHDL.dom.Sequential.IfBranch" xlink:title="IfBranch" target="_top">
<polygon fill="white" stroke="#1e90ff" points="481,-74 424,-74 424,-55 481,-55 481,-74"/>
<text text-anchor="middle" x="452.5" y="-62" font-family="Vera Sans, DejaVu Sans, Liberation Sans, Arial, Helvetica, sans" font-size="10.00">IfBranch</text>
</a>
</g>
</g>
<!-- Branch&#45;&gt;IfBranch -->
<g id="edge6" class="edge">
<title>Branch&#45;&gt;IfBranch</title>
<path fill="none" stroke="black" stroke-width="0.5" d="M373.1,-51C386.88,-53.37 403.94,-56.31 418.62,-58.84"/>
<polygon fill="black" stroke="black" stroke-width="0.5" points="418.68,-60.62 423.91,-59.75 419.28,-57.17 418.68,-60.62"/>
</g>
<!-- ModelEntity -->
<g id="node2" class="node">
<title>ModelEntity</title>
<g id="a_node2"><a xlink:title="``ModelEntity`` is the base&#45;class for all classes in the VHDL language model, except for mixin classes (see multiple">
<polygon fill="white" stroke="#1e90ff" points="239,-56 164,-56 164,-37 239,-37 239,-56"/>
<text text-anchor="middle" x="201.5" y="-44" font-family="Vera Sans, DejaVu Sans, Liberation Sans, Arial, Helvetica, sans" font-size="10.00">ModelEntity</text>
</a>
</g>
</g>
<!-- ModelEntity&#45;&gt;Branch -->
<g id="edge1" class="edge">
<title>ModelEntity&#45;&gt;Branch</title>
<path fill="none" stroke="black" stroke-width="0.5" d="M239.2,-46.5C262.25,-46.5 291.68,-46.5 313.64,-46.5"/>
<polygon fill="black" stroke="black" stroke-width="0.5" points="313.77,-48.25 318.77,-46.5 313.77,-44.75 313.77,-48.25"/>
</g>
<!-- SequentialStatements -->
<g id="node3" class="node">
<title>SequentialStatements</title>
<polygon fill="white" stroke="#1e90ff" points="264,-19 139,-19 139,0 264,0 264,-19"/>
<text text-anchor="middle" x="201.5" y="-7" font-family="Vera Sans, DejaVu Sans, Liberation Sans, Arial, Helvetica, sans" font-size="10.00">SequentialStatements</text>
</g>
<!-- SequentialStatements&#45;&gt;Branch -->
<g id="edge2" class="edge">
<title>SequentialStatements&#45;&gt;Branch</title>
<path fill="none" stroke="black" stroke-width="0.5" d="M239.2,-19.03C262.35,-25.04 291.93,-32.72 313.92,-38.43"/>
<polygon fill="black" stroke="black" stroke-width="0.5" points="313.49,-40.13 318.77,-39.69 314.37,-36.74 313.49,-40.13"/>
</g>
<!-- BranchMixin -->
<g id="node4" class="node">
<title>BranchMixin</title>
<g id="a_node4"><a xlink:title="A ``BaseBranch`` is a mixin&#45;class for all statements with branches.">
<polygon fill="white" stroke="#1e90ff" points="88,-111 11,-111 11,-92 88,-92 88,-111"/>
<text text-anchor="middle" x="49.5" y="-99" font-family="Vera Sans, DejaVu Sans, Liberation Sans, Arial, Helvetica, sans" font-size="10.00">BranchMixin</text>
</a>
</g>
</g>
<!-- ConditionalBranchMixin -->
<g id="node5" class="node">
<title>ConditionalBranchMixin</title>
<g id="a_node5"><a xlink:title="A ``BaseBranch`` is a mixin&#45;class for all branch statements with a condition.">
<polygon fill="white" stroke="#1e90ff" points="268,-93 135,-93 135,-74 268,-74 268,-93"/>
<text text-anchor="middle" x="201.5" y="-81" font-family="Vera Sans, DejaVu Sans, Liberation Sans, Arial, Helvetica, sans" font-size="10.00">ConditionalBranchMixin</text>
</a>
</g>
</g>
<!-- BranchMixin&#45;&gt;ConditionalBranchMixin -->
<g id="edge3" class="edge">
<title>BranchMixin&#45;&gt;ConditionalBranchMixin</title>
<path fill="none" stroke="black" stroke-width="0.5" d="M88.35,-96.96C100.95,-95.45 115.42,-93.71 129.69,-92"/>
<polygon fill="black" stroke="black" stroke-width="0.5" points="130.18,-93.7 134.93,-91.37 129.76,-90.23 130.18,-93.7"/>
</g>
<!-- IfBranchMixin -->
<g id="node8" class="node">
<title>IfBranchMixin</title>
<g id="a_node8"><a xlink:title="A ``BaseIfBranch`` is a mixin&#45;class for all if&#45;branches.">
<polygon fill="white" stroke="#1e90ff" points="388,-93 304,-93 304,-74 388,-74 388,-93"/>
<text text-anchor="middle" x="346" y="-81" font-family="Vera Sans, DejaVu Sans, Liberation Sans, Arial, Helvetica, sans" font-size="10.00">IfBranchMixin</text>
</a>
</g>
</g>
<!-- ConditionalBranchMixin&#45;&gt;IfBranchMixin -->
<g id="edge8" class="edge">
<title>ConditionalBranchMixin&#45;&gt;IfBranchMixin</title>
<path fill="none" stroke="black" stroke-width="0.5" d="M268.33,-83.5C278.64,-83.5 289.1,-83.5 298.84,-83.5"/>
<polygon fill="black" stroke="black" stroke-width="0.5" points="298.87,-85.25 303.87,-83.5 298.87,-81.75 298.87,-85.25"/>
</g>
<!-- ConditionalMixin -->
<g id="node6" class="node">
<title>ConditionalMixin</title>
<g id="a_node6"><a xlink:title="A ``BaseConditional`` is a mixin&#45;class for all statements with a condition.">
<polygon fill="white" stroke="#1e90ff" points="99,-74 0,-74 0,-55 99,-55 99,-74"/>
<text text-anchor="middle" x="49.5" y="-62" font-family="Vera Sans, DejaVu Sans, Liberation Sans, Arial, Helvetica, sans" font-size="10.00">ConditionalMixin</text>
</a>
</g>
</g>
<!-- ConditionalMixin&#45;&gt;ConditionalBranchMixin -->
<g id="edge4" class="edge">
<title>ConditionalMixin&#45;&gt;ConditionalBranchMixin</title>
<path fill="none" stroke="black" stroke-width="0.5" d="M99.2,-70.67C108.98,-71.91 119.44,-73.23 129.79,-74.54"/>
<polygon fill="black" stroke="black" stroke-width="0.5" points="129.68,-76.29 134.86,-75.19 130.12,-72.82 129.68,-76.29"/>
</g>
<!-- IfBranch&#45;&gt;IfBranch -->
<g id="edge5" class="edge">
<title>IfBranch&#45;&gt;IfBranch</title>
<path fill="none" stroke="black" stroke-width="0.5" d="M436.16,-74.08C428.21,-82.73 433.66,-92 452.5,-92 468.1,-92 474.52,-85.65 471.75,-78.55"/>
<polygon fill="black" stroke="black" stroke-width="0.5" points="473.03,-77.32 468.84,-74.08 470.1,-79.23 473.03,-77.32"/>
</g>
<!-- IfBranchMixin&#45;&gt;IfBranch -->
<g id="edge7" class="edge">
<title>IfBranchMixin&#45;&gt;IfBranch</title>
<path fill="none" stroke="black" stroke-width="0.5" d="M388,-76.05C398.23,-74.19 409.06,-72.22 418.82,-70.44"/>
<polygon fill="black" stroke="black" stroke-width="0.5" points="419.21,-72.15 423.82,-69.53 418.59,-68.71 419.21,-72.15"/>
</g>
</g>
</svg>
