<?xml version="1.0" encoding="UTF-8" standalone="no"?>
<!DOCTYPE svg PUBLIC "-//W3C//DTD SVG 1.1//EN"
 "http://www.w3.org/Graphics/SVG/1.1/DTD/svg11.dtd">
<!-- Generated by graphviz version 2.43.0 (0)
 -->
<!-- Title: inheritance5d99679732 Pages: 1 -->
<svg width="576pt" height="130pt"
 viewBox="0.00 0.00 576.00 130.31" xmlns="http://www.w3.org/2000/svg" xmlns:xlink="http://www.w3.org/1999/xlink">
<g id="graph0" class="graph" transform="scale(1.06 1.06) rotate(0) translate(4 134)">
<title>inheritance5d99679732</title>
<!-- BaseType -->
<g id="node1" class="node">
<title>BaseType</title>
<g id="a_node1"><a xlink:title="``BaseType`` is the base&#45;class of all type entities in this model.">
<polygon fill="white" stroke="#1e90ff" points="233,-56 170,-56 170,-37 233,-37 233,-56"/>
<text text-anchor="middle" x="201.5" y="-44" font-family="Vera Sans, DejaVu Sans, Liberation Sans, Arial, Helvetica, sans" font-size="10.00">BaseType</text>
</a>
</g>
</g>
<!-- FullType -->
<g id="node9" class="node">
<title>FullType</title>
<polygon fill="white" stroke="#1e90ff" points="325,-56 269,-56 269,-37 325,-37 325,-56"/>
<text text-anchor="middle" x="297" y="-44" font-family="Vera Sans, DejaVu Sans, Liberation Sans, Arial, Helvetica, sans" font-size="10.00">FullType</text>
</g>
<!-- BaseType&#45;&gt;FullType -->
<g id="edge8" class="edge">
<title>BaseType&#45;&gt;FullType</title>
<path fill="none" stroke="black" stroke-width="0.5" d="M233.12,-46.5C242.91,-46.5 253.79,-46.5 263.7,-46.5"/>
<polygon fill="black" stroke="black" stroke-width="0.5" points="263.78,-48.25 268.78,-46.5 263.78,-44.75 263.78,-48.25"/>
</g>
<!-- ModelEntity -->
<g id="node2" class="node">
<title>ModelEntity</title>
<g id="a_node2"><a xlink:title="``ModelEntity`` is the base&#45;class for all classes in the VHDL language model, except for mixin classes (see multiple">
<polygon fill="white" stroke="#1e90ff" points="104.5,-93 29.5,-93 29.5,-74 104.5,-74 104.5,-93"/>
<text text-anchor="middle" x="67" y="-81" font-family="Vera Sans, DejaVu Sans, Liberation Sans, Arial, Helvetica, sans" font-size="10.00">ModelEntity</text>
</a>
</g>
</g>
<!-- ModelEntity&#45;&gt;BaseType -->
<g id="edge1" class="edge">
<title>ModelEntity&#45;&gt;BaseType</title>
<path fill="none" stroke="black" stroke-width="0.5" d="M103.3,-73.96C113.24,-71.25 124.05,-68.28 134,-65.5 144.04,-62.7 154.91,-59.61 164.91,-56.76"/>
<polygon fill="black" stroke="black" stroke-width="0.5" points="165.41,-58.43 169.73,-55.37 164.44,-55.07 165.41,-58.43"/>
</g>
<!-- NamedEntityMixin -->
<g id="node3" class="node">
<title>NamedEntityMixin</title>
<g id="a_node3"><a xlink:title="A ``NamedEntityMixin`` is a mixin class for all VHDL entities that have identifiers.">
<polygon fill="white" stroke="#1e90ff" points="120.5,-56 13.5,-56 13.5,-37 120.5,-37 120.5,-56"/>
<text text-anchor="middle" x="67" y="-44" font-family="Vera Sans, DejaVu Sans, Liberation Sans, Arial, Helvetica, sans" font-size="10.00">NamedEntityMixin</text>
</a>
</g>
</g>
<!-- NamedEntityMixin&#45;&gt;BaseType -->
<g id="edge2" class="edge">
<title>NamedEntityMixin&#45;&gt;BaseType</title>
<path fill="none" stroke="black" stroke-width="0.5" d="M120.75,-46.5C135.4,-46.5 150.98,-46.5 164.44,-46.5"/>
<polygon fill="black" stroke="black" stroke-width="0.5" points="164.68,-48.25 169.68,-46.5 164.68,-44.75 164.68,-48.25"/>
</g>
<!-- DocumentedEntityMixin -->
<g id="node4" class="node">
<title>DocumentedEntityMixin</title>
<g id="a_node4"><a xlink:title="A ``DocumentedEntityMixin`` is a mixin class for all VHDL entities that can have an associated documentation.">
<polygon fill="white" stroke="#1e90ff" points="134,-19 0,-19 0,0 134,0 134,-19"/>
<text text-anchor="middle" x="67" y="-7" font-family="Vera Sans, DejaVu Sans, Liberation Sans, Arial, Helvetica, sans" font-size="10.00">DocumentedEntityMixin</text>
</a>
</g>
</g>
<!-- DocumentedEntityMixin&#45;&gt;BaseType -->
<g id="edge3" class="edge">
<title>DocumentedEntityMixin&#45;&gt;BaseType</title>
<path fill="none" stroke="black" stroke-width="0.5" d="M102.12,-19.03C121.35,-24.4 145.34,-31.1 164.82,-36.54"/>
<polygon fill="black" stroke="black" stroke-width="0.5" points="164.38,-38.23 169.66,-37.89 165.32,-34.86 164.38,-38.23"/>
</g>
<!-- DOMMixin -->
<g id="node5" class="node">
<title>DOMMixin</title>
<g id="a_node5"><a xlink:href="../pyGHDL.dom.html#pyGHDL.dom.DOMMixin" xlink:title="DOMMixin" target="_top">
<polygon fill="white" stroke="#1e90ff" points="448.5,-130 380.5,-130 380.5,-111 448.5,-111 448.5,-130"/>
<text text-anchor="middle" x="414.5" y="-118" font-family="Vera Sans, DejaVu Sans, Liberation Sans, Arial, Helvetica, sans" font-size="10.00">DOMMixin</text>
</a>
</g>
</g>
<!-- EnumeratedType -->
<g id="node7" class="node">
<title>EnumeratedType</title>
<g id="a_node7"><a xlink:href="../pyGHDL/pyGHDL.dom.Type.html#pyGHDL.dom.Type.EnumeratedType" xlink:title="EnumeratedType" target="_top">
<polygon fill="white" stroke="#1e90ff" points="602,-93 504,-93 504,-74 602,-74 602,-93"/>
<text text-anchor="middle" x="553" y="-81" font-family="Vera Sans, DejaVu Sans, Liberation Sans, Arial, Helvetica, sans" font-size="10.00">EnumeratedType</text>
</a>
</g>
</g>
<!-- DOMMixin&#45;&gt;EnumeratedType -->
<g id="edge5" class="edge">
<title>DOMMixin&#45;&gt;EnumeratedType</title>
<path fill="none" stroke="black" stroke-width="0.5" d="M448.54,-111.54C467.6,-106.38 491.7,-99.84 511.84,-94.38"/>
<polygon fill="black" stroke="black" stroke-width="0.5" points="512.51,-96.02 516.88,-93.02 511.59,-92.64 512.51,-96.02"/>
</g>
<!-- DiscreteTypeMixin -->
<g id="node6" class="node">
<title>DiscreteTypeMixin</title>
<g id="a_node6"><a xlink:title="A ``DiscreteType`` is a mixin class for all discrete types.">
<polygon fill="white" stroke="#1e90ff" points="468,-93 361,-93 361,-74 468,-74 468,-93"/>
<text text-anchor="middle" x="414.5" y="-81" font-family="Vera Sans, DejaVu Sans, Liberation Sans, Arial, Helvetica, sans" font-size="10.00">DiscreteTypeMixin</text>
</a>
</g>
</g>
<!-- DiscreteTypeMixin&#45;&gt;EnumeratedType -->
<g id="edge7" class="edge">
<title>DiscreteTypeMixin&#45;&gt;EnumeratedType</title>
<path fill="none" stroke="black" stroke-width="0.5" d="M468.27,-83.5C478.24,-83.5 488.67,-83.5 498.66,-83.5"/>
<polygon fill="black" stroke="black" stroke-width="0.5" points="498.83,-85.25 503.83,-83.5 498.83,-81.75 498.83,-85.25"/>
</g>
<!-- EnumeratedType&#45;&gt;EnumeratedType -->
<g id="edge4" class="edge">
<title>EnumeratedType&#45;&gt;EnumeratedType</title>
<path fill="none" stroke="black" stroke-width="0.5" d="M531.73,-93.08C521.38,-101.73 528.47,-111 553,-111 573.69,-111 581.98,-104.4 577.84,-97.15"/>
<polygon fill="black" stroke="black" stroke-width="0.5" points="578.89,-95.68 574.27,-93.08 576.26,-97.99 578.89,-95.68"/>
</g>
<!-- ScalarType -->
<g id="node8" class="node">
<title>ScalarType</title>
<g id="a_node8"><a xlink:title="A ``ScalarType`` is a base&#45;class for all scalar types.">
<polygon fill="white" stroke="#1e90ff" points="449,-56 380,-56 380,-37 449,-37 449,-56"/>
<text text-anchor="middle" x="414.5" y="-44" font-family="Vera Sans, DejaVu Sans, Liberation Sans, Arial, Helvetica, sans" font-size="10.00">ScalarType</text>
</a>
</g>
</g>
<!-- ScalarType&#45;&gt;EnumeratedType -->
<g id="edge6" class="edge">
<title>ScalarType&#45;&gt;EnumeratedType</title>
<path fill="none" stroke="black" stroke-width="0.5" d="M449.24,-55.65C468.16,-60.78 491.89,-67.21 511.78,-72.6"/>
<polygon fill="black" stroke="black" stroke-width="0.5" points="511.46,-74.32 516.74,-73.94 512.37,-70.95 511.46,-74.32"/>
</g>
<!-- FullType&#45;&gt;ScalarType -->
<g id="edge9" class="edge">
<title>FullType&#45;&gt;ScalarType</title>
<path fill="none" stroke="black" stroke-width="0.5" d="M325.08,-46.5C339.82,-46.5 358.31,-46.5 374.56,-46.5"/>
<polygon fill="black" stroke="black" stroke-width="0.5" points="374.98,-48.25 379.98,-46.5 374.98,-44.75 374.98,-48.25"/>
</g>
</g>
</svg>
