<?xml version="1.0" encoding="UTF-8" standalone="no"?>
<!DOCTYPE svg PUBLIC "-//W3C//DTD SVG 1.1//EN"
 "http://www.w3.org/Graphics/SVG/1.1/DTD/svg11.dtd">
<!-- Generated by graphviz version 2.43.0 (0)
 -->
<!-- Title: inheritance08a5c6a270 Pages: 1 -->
<svg width="365pt" height="64pt"
 viewBox="0.00 0.00 365.00 64.00" xmlns="http://www.w3.org/2000/svg" xmlns:xlink="http://www.w3.org/1999/xlink">
<g id="graph0" class="graph" transform="scale(1 1) rotate(0) translate(4 60)">
<title>inheritance08a5c6a270</title>
<!-- AssociationItem -->
<g id="node1" class="node">
<title>AssociationItem</title>
<polygon fill="white" stroke="#1e90ff" points="206,-19 111,-19 111,0 206,0 206,-19"/>
<text text-anchor="middle" x="158.5" y="-7" font-family="Vera Sans, DejaVu Sans, Liberation Sans, Arial, Helvetica, sans" font-size="10.00">AssociationItem</text>
</g>
<!-- PortAssociationItem -->
<g id="node4" class="node">
<title>PortAssociationItem</title>
<g id="a_node4"><a xlink:href="../pyGHDL/pyGHDL.dom.Concurrent.html#pyGHDL.dom.Concurrent.PortAssociationItem" xlink:title="PortAssociationItem" target="_top">
<polygon fill="white" stroke="#1e90ff" points="357,-37 242,-37 242,-18 357,-18 357,-37"/>
<text text-anchor="middle" x="299.5" y="-25" font-family="Vera Sans, DejaVu Sans, Liberation Sans, Arial, Helvetica, sans" font-size="10.00">PortAssociationItem</text>
</a>
</g>
</g>
<!-- AssociationItem&#45;&gt;PortAssociationItem -->
<g id="edge4" class="edge">
<title>AssociationItem&#45;&gt;PortAssociationItem</title>
<path fill="none" stroke="black" stroke-width="0.5" d="M206.17,-15.54C215.93,-16.81 226.37,-18.16 236.58,-19.48"/>
<polygon fill="black" stroke="black" stroke-width="0.5" points="236.39,-21.22 241.57,-20.13 236.84,-17.75 236.39,-21.22"/>
</g>
<!-- ModelEntity -->
<g id="node2" class="node">
<title>ModelEntity</title>
<g id="a_node2"><a xlink:title="``ModelEntity`` is the base&#45;class for all classes in the VHDL language model, except for mixin classes (see multiple">
<polygon fill="white" stroke="#1e90ff" points="75,-19 0,-19 0,0 75,0 75,-19"/>
<text text-anchor="middle" x="37.5" y="-7" font-family="Vera Sans, DejaVu Sans, Liberation Sans, Arial, Helvetica, sans" font-size="10.00">ModelEntity</text>
</a>
</g>
</g>
<!-- ModelEntity&#45;&gt;AssociationItem -->
<g id="edge1" class="edge">
<title>ModelEntity&#45;&gt;AssociationItem</title>
<path fill="none" stroke="black" stroke-width="0.5" d="M75.17,-9.5C84.8,-9.5 95.36,-9.5 105.62,-9.5"/>
<polygon fill="black" stroke="black" stroke-width="0.5" points="105.63,-11.25 110.63,-9.5 105.63,-7.75 105.63,-11.25"/>
</g>
<!-- DOMMixin -->
<g id="node3" class="node">
<title>DOMMixin</title>
<g id="a_node3"><a xlink:href="../pyGHDL.dom.html#pyGHDL.dom.DOMMixin" xlink:title="DOMMixin" target="_top">
<polygon fill="white" stroke="#1e90ff" points="192.5,-56 124.5,-56 124.5,-37 192.5,-37 192.5,-56"/>
<text text-anchor="middle" x="158.5" y="-44" font-family="Vera Sans, DejaVu Sans, Liberation Sans, Arial, Helvetica, sans" font-size="10.00">DOMMixin</text>
</a>
</g>
</g>
<!-- DOMMixin&#45;&gt;PortAssociationItem -->
<g id="edge3" class="edge">
<title>DOMMixin&#45;&gt;PortAssociationItem</title>
<path fill="none" stroke="black" stroke-width="0.5" d="M192.79,-41.95C206,-40.14 221.62,-38.01 236.75,-35.94"/>
<polygon fill="black" stroke="black" stroke-width="0.5" points="237.14,-37.65 241.86,-35.24 236.67,-34.19 237.14,-37.65"/>
</g>
<!-- PortAssociationItem&#45;&gt;PortAssociationItem -->
<g id="edge2" class="edge">
<title>PortAssociationItem&#45;&gt;PortAssociationItem</title>
<path fill="none" stroke="black" stroke-width="0.5" d="M277.92,-37.08C267.42,-45.73 274.62,-55 299.5,-55 320.49,-55 328.9,-48.4 324.7,-41.15"/>
<polygon fill="black" stroke="black" stroke-width="0.5" points="325.71,-39.65 321.08,-37.08 323.1,-41.98 325.71,-39.65"/>
</g>
</g>
</svg>
