<?xml version="1.0" encoding="UTF-8" standalone="no"?>
<!DOCTYPE svg PUBLIC "-//W3C//DTD SVG 1.1//EN"
 "http://www.w3.org/Graphics/SVG/1.1/DTD/svg11.dtd">
<!-- Generated by graphviz version 2.43.0 (0)
 -->
<!-- Title: inheritance4f7ab58da6 Pages: 1 -->
<svg width="576pt" height="95pt"
 viewBox="0.00 0.00 576.00 94.75" xmlns="http://www.w3.org/2000/svg" xmlns:xlink="http://www.w3.org/1999/xlink">
<g id="graph0" class="graph" transform="scale(1.47 1.47) rotate(0) translate(4 135)">
<title>inheritance4f7ab58da6</title>
<!-- BaseConstant -->
<g id="node1" class="node">
<title>BaseConstant</title>
<polygon fill="white" stroke="#1e90ff" points="421.5,-93 337.5,-93 337.5,-74 421.5,-74 421.5,-93"/>
<text text-anchor="middle" x="379.5" y="-81" font-family="Vera Sans, DejaVu Sans, Liberation Sans, Arial, Helvetica, sans" font-size="10.00">BaseConstant</text>
</g>
<!-- Constant -->
<g id="node3" class="node">
<title>Constant</title>
<polygon fill="white" stroke="#1e90ff" points="589,-57 529,-57 529,-38 589,-38 589,-57"/>
<text text-anchor="middle" x="559" y="-45" font-family="Vera Sans, DejaVu Sans, Liberation Sans, Arial, Helvetica, sans" font-size="10.00">Constant</text>
</g>
<!-- BaseConstant&#45;&gt;Constant -->
<g id="edge2" class="edge">
<title>BaseConstant&#45;&gt;Constant</title>
<path fill="none" stroke="black" stroke-width="0.5" d="M421.67,-75.15C452.74,-68.85 494.87,-60.3 524.04,-54.39"/>
<polygon fill="black" stroke="black" stroke-width="0.5" points="524.41,-56.1 528.96,-53.39 523.71,-52.67 524.41,-56.1"/>
</g>
<!-- Obj -->
<g id="node2" class="node">
<title>Obj</title>
<polygon fill="white" stroke="#1e90ff" points="251.5,-83 197.5,-83 197.5,-64 251.5,-64 251.5,-83"/>
<text text-anchor="middle" x="224.5" y="-71" font-family="Vera Sans, DejaVu Sans, Liberation Sans, Arial, Helvetica, sans" font-size="10.00">Obj</text>
</g>
<!-- Obj&#45;&gt;BaseConstant -->
<g id="edge1" class="edge">
<title>Obj&#45;&gt;BaseConstant</title>
<path fill="none" stroke="black" stroke-width="0.5" d="M251.8,-75.22C273.83,-76.66 305.8,-78.75 332.11,-80.47"/>
<polygon fill="black" stroke="black" stroke-width="0.5" points="332.19,-82.23 337.29,-80.81 332.42,-78.73 332.19,-82.23"/>
</g>
<!-- ParameterConstantInterfaceItem -->
<g id="node11" class="node">
<title>ParameterConstantInterfaceItem</title>
<g id="a_node11"><a xlink:href="../pyGHDL/pyGHDL.dom.InterfaceItem.html#pyGHDL.dom.InterfaceItem.ParameterConstantInterfaceItem" xlink:title="ParameterConstantInterfaceItem" target="_top">
<polygon fill="white" stroke="#1e90ff" points="837,-75 661,-75 661,-56 837,-56 837,-75"/>
<text text-anchor="middle" x="749" y="-63" font-family="Vera Sans, DejaVu Sans, Liberation Sans, Arial, Helvetica, sans" font-size="10.00">ParameterConstantInterfaceItem</text>
</a>
</g>
</g>
<!-- Constant&#45;&gt;ParameterConstantInterfaceItem -->
<g id="edge10" class="edge">
<title>Constant&#45;&gt;ParameterConstantInterfaceItem</title>
<path fill="none" stroke="black" stroke-width="0.5" d="M589.38,-50.31C607.4,-52.04 631.58,-54.35 655.62,-56.65"/>
<polygon fill="black" stroke="black" stroke-width="0.5" points="655.6,-58.41 660.74,-57.15 655.93,-54.93 655.6,-58.41"/>
</g>
<!-- WithDefaultExpressionMixin -->
<g id="node4" class="node">
<title>WithDefaultExpressionMixin</title>
<g id="a_node4"><a xlink:title="A ``WithDefaultExpression`` is a mixin class for all objects declarations accepting default expressions.">
<polygon fill="white" stroke="#1e90ff" points="457,-56 302,-56 302,-37 457,-37 457,-56"/>
<text text-anchor="middle" x="379.5" y="-44" font-family="Vera Sans, DejaVu Sans, Liberation Sans, Arial, Helvetica, sans" font-size="10.00">WithDefaultExpressionMixin</text>
</a>
</g>
</g>
<!-- WithDefaultExpressionMixin&#45;&gt;Constant -->
<g id="edge3" class="edge">
<title>WithDefaultExpressionMixin&#45;&gt;Constant</title>
<path fill="none" stroke="black" stroke-width="0.5" d="M457.06,-46.93C480.22,-47.06 504.51,-47.2 523.45,-47.31"/>
<polygon fill="black" stroke="black" stroke-width="0.5" points="523.64,-49.06 528.65,-47.33 523.66,-45.56 523.64,-49.06"/>
</g>
<!-- DOMMixin -->
<g id="node5" class="node">
<title>DOMMixin</title>
<g id="a_node5"><a xlink:href="../pyGHDL.dom.html#pyGHDL.dom.DOMMixin" xlink:title="DOMMixin" target="_top">
<polygon fill="white" stroke="#1e90ff" points="593,-131 525,-131 525,-112 593,-112 593,-131"/>
<text text-anchor="middle" x="559" y="-119" font-family="Vera Sans, DejaVu Sans, Liberation Sans, Arial, Helvetica, sans" font-size="10.00">DOMMixin</text>
</a>
</g>
</g>
<!-- DOMMixin&#45;&gt;ParameterConstantInterfaceItem -->
<g id="edge9" class="edge">
<title>DOMMixin&#45;&gt;ParameterConstantInterfaceItem</title>
<path fill="none" stroke="black" stroke-width="0.5" d="M593.12,-112.53C603.36,-109.7 614.66,-106.53 625,-103.5 654.76,-94.78 688.39,-84.35 712.96,-76.63"/>
<polygon fill="black" stroke="black" stroke-width="0.5" points="713.5,-78.29 717.75,-75.12 712.45,-74.95 713.5,-78.29"/>
</g>
<!-- DocumentedEntityMixin -->
<g id="node6" class="node">
<title>DocumentedEntityMixin</title>
<g id="a_node6"><a xlink:title="A ``DocumentedEntityMixin`` is a mixin class for all VHDL entities that can have an associated documentation.">
<polygon fill="white" stroke="#1e90ff" points="140.5,-37 6.5,-37 6.5,-18 140.5,-18 140.5,-37"/>
<text text-anchor="middle" x="73.5" y="-25" font-family="Vera Sans, DejaVu Sans, Liberation Sans, Arial, Helvetica, sans" font-size="10.00">DocumentedEntityMixin</text>
</a>
</g>
</g>
<!-- DocumentedEntityMixin&#45;&gt;Obj -->
<g id="edge7" class="edge">
<title>DocumentedEntityMixin&#45;&gt;Obj</title>
<path fill="none" stroke="black" stroke-width="0.5" d="M113.42,-37.07C124.34,-39.92 136.18,-43.18 147,-46.5 162.35,-51.21 179.2,-57.08 193.17,-62.14"/>
<polygon fill="black" stroke="black" stroke-width="0.5" points="192.88,-63.9 198.18,-63.97 194.08,-60.61 192.88,-63.9"/>
</g>
<!-- InterfaceItem -->
<g id="node7" class="node">
<title>InterfaceItem</title>
<g id="a_node7"><a xlink:title="An ``InterfaceItem`` is a base&#45;class for all mixin&#45;classes for all interface items.">
<polygon fill="white" stroke="#1e90ff" points="266,-37 183,-37 183,-18 266,-18 266,-37"/>
<text text-anchor="middle" x="224.5" y="-25" font-family="Vera Sans, DejaVu Sans, Liberation Sans, Arial, Helvetica, sans" font-size="10.00">InterfaceItem</text>
</a>
</g>
</g>
<!-- DocumentedEntityMixin&#45;&gt;InterfaceItem -->
<g id="edge4" class="edge">
<title>DocumentedEntityMixin&#45;&gt;InterfaceItem</title>
<path fill="none" stroke="black" stroke-width="0.5" d="M140.72,-27.5C153.12,-27.5 165.83,-27.5 177.46,-27.5"/>
<polygon fill="black" stroke="black" stroke-width="0.5" points="177.72,-29.25 182.72,-27.5 177.72,-25.75 177.72,-29.25"/>
</g>
<!-- ParameterInterfaceItem -->
<g id="node12" class="node">
<title>ParameterInterfaceItem</title>
<g id="a_node12"><a xlink:title="A ``ParameterInterfaceItem`` is a mixin class for all parameter interface items.">
<polygon fill="white" stroke="#1e90ff" points="446,-19 313,-19 313,0 446,0 446,-19"/>
<text text-anchor="middle" x="379.5" y="-7" font-family="Vera Sans, DejaVu Sans, Liberation Sans, Arial, Helvetica, sans" font-size="10.00">ParameterInterfaceItem</text>
</a>
</g>
</g>
<!-- InterfaceItem&#45;&gt;ParameterInterfaceItem -->
<g id="edge13" class="edge">
<title>InterfaceItem&#45;&gt;ParameterInterfaceItem</title>
<path fill="none" stroke="black" stroke-width="0.5" d="M266.1,-22.72C278.87,-21.22 293.37,-19.51 307.61,-17.84"/>
<polygon fill="black" stroke="black" stroke-width="0.5" points="308.08,-19.55 312.84,-17.22 307.67,-16.07 308.08,-19.55"/>
</g>
<!-- InterfaceItemWithMode -->
<g id="node8" class="node">
<title>InterfaceItemWithMode</title>
<g id="a_node8"><a xlink:title="An ``InterfaceItemWithMode`` is a mixin&#45;class to provide a ``Mode`` to interface items.">
<polygon fill="white" stroke="#1e90ff" points="625,-94 493,-94 493,-75 625,-75 625,-94"/>
<text text-anchor="middle" x="559" y="-82" font-family="Vera Sans, DejaVu Sans, Liberation Sans, Arial, Helvetica, sans" font-size="10.00">InterfaceItemWithMode</text>
</a>
</g>
</g>
<!-- InterfaceItemWithMode&#45;&gt;ParameterConstantInterfaceItem -->
<g id="edge12" class="edge">
<title>InterfaceItemWithMode&#45;&gt;ParameterConstantInterfaceItem</title>
<path fill="none" stroke="black" stroke-width="0.5" d="M625.23,-77.91C635.07,-76.91 645.38,-75.87 655.66,-74.83"/>
<polygon fill="black" stroke="black" stroke-width="0.5" points="655.9,-76.57 660.7,-74.32 655.55,-73.08 655.9,-76.57"/>
</g>
<!-- ModelEntity -->
<g id="node9" class="node">
<title>ModelEntity</title>
<g id="a_node9"><a xlink:title="``ModelEntity`` is the base&#45;class for all classes in the VHDL language model, except for mixin classes (see multiple">
<polygon fill="white" stroke="#1e90ff" points="111,-111 36,-111 36,-92 111,-92 111,-111"/>
<text text-anchor="middle" x="73.5" y="-99" font-family="Vera Sans, DejaVu Sans, Liberation Sans, Arial, Helvetica, sans" font-size="10.00">ModelEntity</text>
</a>
</g>
</g>
<!-- ModelEntity&#45;&gt;Obj -->
<g id="edge5" class="edge">
<title>ModelEntity&#45;&gt;Obj</title>
<path fill="none" stroke="black" stroke-width="0.5" d="M111.33,-94.58C136.17,-89.91 168.58,-83.82 192.18,-79.39"/>
<polygon fill="black" stroke="black" stroke-width="0.5" points="192.78,-81.05 197.37,-78.41 192.14,-77.61 192.78,-81.05"/>
</g>
<!-- MultipleNamedEntityMixin -->
<g id="node10" class="node">
<title>MultipleNamedEntityMixin</title>
<g id="a_node10"><a xlink:title="A ``MultipleNamedEntityMixin`` is a mixin class for all VHDL entities that declare multiple instances at once by">
<polygon fill="white" stroke="#1e90ff" points="147,-74 0,-74 0,-55 147,-55 147,-74"/>
<text text-anchor="middle" x="73.5" y="-62" font-family="Vera Sans, DejaVu Sans, Liberation Sans, Arial, Helvetica, sans" font-size="10.00">MultipleNamedEntityMixin</text>
</a>
</g>
</g>
<!-- MultipleNamedEntityMixin&#45;&gt;Obj -->
<g id="edge6" class="edge">
<title>MultipleNamedEntityMixin&#45;&gt;Obj</title>
<path fill="none" stroke="black" stroke-width="0.5" d="M147.25,-68.89C163.04,-69.85 178.92,-70.81 192.08,-71.6"/>
<polygon fill="black" stroke="black" stroke-width="0.5" points="192.07,-73.35 197.17,-71.91 192.28,-69.86 192.07,-73.35"/>
</g>
<!-- ParameterConstantInterfaceItem&#45;&gt;ParameterConstantInterfaceItem -->
<g id="edge8" class="edge">
<title>ParameterConstantInterfaceItem&#45;&gt;ParameterConstantInterfaceItem</title>
<path fill="none" stroke="black" stroke-width="0.5" d="M719.72,-75.08C705.47,-83.73 715.23,-93 749,-93 778.55,-93 789.72,-85.91 782.5,-78.34"/>
<polygon fill="black" stroke="black" stroke-width="0.5" points="783.31,-76.75 778.28,-75.08 781.17,-79.52 783.31,-76.75"/>
</g>
<!-- ParameterInterfaceItem&#45;&gt;ParameterConstantInterfaceItem -->
<g id="edge11" class="edge">
<title>ParameterInterfaceItem&#45;&gt;ParameterConstantInterfaceItem</title>
<path fill="none" stroke="black" stroke-width="0.5" d="M446.12,-10.79C495.63,-12.67 565.05,-17.29 625,-28.5 657.06,-34.5 692.63,-45.72 717.24,-54.24"/>
<polygon fill="black" stroke="black" stroke-width="0.5" points="716.71,-55.91 722.01,-55.9 717.87,-52.6 716.71,-55.91"/>
</g>
</g>
</svg>
