<?xml version="1.0" encoding="UTF-8" standalone="no"?>
<!DOCTYPE svg PUBLIC "-//W3C//DTD SVG 1.1//EN"
 "http://www.w3.org/Graphics/SVG/1.1/DTD/svg11.dtd">
<!-- Generated by graphviz version 2.43.0 (0)
 -->
<!-- Title: inheritance5e2f317a3b Pages: 1 -->
<svg width="504pt" height="101pt"
 viewBox="0.00 0.00 504.00 101.00" xmlns="http://www.w3.org/2000/svg" xmlns:xlink="http://www.w3.org/1999/xlink">
<g id="graph0" class="graph" transform="scale(1 1) rotate(0) translate(4 97)">
<title>inheritance5e2f317a3b</title>
<!-- BaseConstant -->
<g id="node1" class="node">
<title>BaseConstant</title>
<polygon fill="white" stroke="#1e90ff" points="357,-56 273,-56 273,-37 357,-37 357,-56"/>
<text text-anchor="middle" x="315" y="-44" font-family="Vera Sans, DejaVu Sans, Liberation Sans, Arial, Helvetica, sans" font-size="10.00">BaseConstant</text>
</g>
<!-- DeferredConstant -->
<g id="node4" class="node">
<title>DeferredConstant</title>
<g id="a_node4"><a xlink:href="../pyGHDL/pyGHDL.dom.Object.html#pyGHDL.dom.Object.DeferredConstant" xlink:title="DeferredConstant" target="_top">
<polygon fill="white" stroke="#1e90ff" points="496,-74 393,-74 393,-55 496,-55 496,-74"/>
<text text-anchor="middle" x="444.5" y="-62" font-family="Vera Sans, DejaVu Sans, Liberation Sans, Arial, Helvetica, sans" font-size="10.00">DeferredConstant</text>
</a>
</g>
</g>
<!-- BaseConstant&#45;&gt;DeferredConstant -->
<g id="edge4" class="edge">
<title>BaseConstant&#45;&gt;DeferredConstant</title>
<path fill="none" stroke="black" stroke-width="0.5" d="M357.04,-52.29C366.8,-53.67 377.38,-55.17 387.68,-56.62"/>
<polygon fill="black" stroke="black" stroke-width="0.5" points="387.51,-58.36 392.7,-57.33 388,-54.9 387.51,-58.36"/>
</g>
<!-- Obj -->
<g id="node2" class="node">
<title>Obj</title>
<polygon fill="white" stroke="#1e90ff" points="237,-56 183,-56 183,-37 237,-37 237,-56"/>
<text text-anchor="middle" x="210" y="-44" font-family="Vera Sans, DejaVu Sans, Liberation Sans, Arial, Helvetica, sans" font-size="10.00">Obj</text>
</g>
<!-- Obj&#45;&gt;BaseConstant -->
<g id="edge1" class="edge">
<title>Obj&#45;&gt;BaseConstant</title>
<path fill="none" stroke="black" stroke-width="0.5" d="M237.26,-46.5C246.58,-46.5 257.37,-46.5 267.86,-46.5"/>
<polygon fill="black" stroke="black" stroke-width="0.5" points="267.97,-48.25 272.97,-46.5 267.97,-44.75 267.97,-48.25"/>
</g>
<!-- DOMMixin -->
<g id="node3" class="node">
<title>DOMMixin</title>
<g id="a_node3"><a xlink:href="../pyGHDL.dom.html#pyGHDL.dom.DOMMixin" xlink:title="DOMMixin" target="_top">
<polygon fill="white" stroke="#1e90ff" points="349,-93 281,-93 281,-74 349,-74 349,-93"/>
<text text-anchor="middle" x="315" y="-81" font-family="Vera Sans, DejaVu Sans, Liberation Sans, Arial, Helvetica, sans" font-size="10.00">DOMMixin</text>
</a>
</g>
</g>
<!-- DOMMixin&#45;&gt;DeferredConstant -->
<g id="edge3" class="edge">
<title>DOMMixin&#45;&gt;DeferredConstant</title>
<path fill="none" stroke="black" stroke-width="0.5" d="M349.17,-78.56C360.89,-76.81 374.42,-74.79 387.52,-72.84"/>
<polygon fill="black" stroke="black" stroke-width="0.5" points="388.01,-74.54 392.7,-72.07 387.5,-71.08 388.01,-74.54"/>
</g>
<!-- DeferredConstant&#45;&gt;DeferredConstant -->
<g id="edge2" class="edge">
<title>DeferredConstant&#45;&gt;DeferredConstant</title>
<path fill="none" stroke="black" stroke-width="0.5" d="M424.77,-74.08C415.17,-82.73 421.75,-92 444.5,-92 463.7,-92 471.38,-85.4 467.54,-78.15"/>
<polygon fill="black" stroke="black" stroke-width="0.5" points="468.75,-76.85 464.23,-74.08 466.03,-79.06 468.75,-76.85"/>
</g>
<!-- DocumentedEntityMixin -->
<g id="node5" class="node">
<title>DocumentedEntityMixin</title>
<g id="a_node5"><a xlink:title="A ``DocumentedEntityMixin`` is a mixin class for all VHDL entities that can have an associated documentation.">
<polygon fill="white" stroke="#1e90ff" points="140.5,-93 6.5,-93 6.5,-74 140.5,-74 140.5,-93"/>
<text text-anchor="middle" x="73.5" y="-81" font-family="Vera Sans, DejaVu Sans, Liberation Sans, Arial, Helvetica, sans" font-size="10.00">DocumentedEntityMixin</text>
</a>
</g>
</g>
<!-- DocumentedEntityMixin&#45;&gt;Obj -->
<g id="edge7" class="edge">
<title>DocumentedEntityMixin&#45;&gt;Obj</title>
<path fill="none" stroke="black" stroke-width="0.5" d="M114.49,-73.98C125.09,-71.35 136.5,-68.41 147,-65.5 157.07,-62.71 167.99,-59.44 177.82,-56.42"/>
<polygon fill="black" stroke="black" stroke-width="0.5" points="178.59,-58.01 182.85,-54.86 177.55,-54.67 178.59,-58.01"/>
</g>
<!-- ModelEntity -->
<g id="node6" class="node">
<title>ModelEntity</title>
<g id="a_node6"><a xlink:title="``ModelEntity`` is the base&#45;class for all classes in the VHDL language model, except for mixin classes (see multiple">
<polygon fill="white" stroke="#1e90ff" points="111,-56 36,-56 36,-37 111,-37 111,-56"/>
<text text-anchor="middle" x="73.5" y="-44" font-family="Vera Sans, DejaVu Sans, Liberation Sans, Arial, Helvetica, sans" font-size="10.00">ModelEntity</text>
</a>
</g>
</g>
<!-- ModelEntity&#45;&gt;Obj -->
<g id="edge5" class="edge">
<title>ModelEntity&#45;&gt;Obj</title>
<path fill="none" stroke="black" stroke-width="0.5" d="M111.25,-46.5C132.1,-46.5 157.91,-46.5 177.77,-46.5"/>
<polygon fill="black" stroke="black" stroke-width="0.5" points="177.95,-48.25 182.95,-46.5 177.95,-44.75 177.95,-48.25"/>
</g>
<!-- MultipleNamedEntityMixin -->
<g id="node7" class="node">
<title>MultipleNamedEntityMixin</title>
<g id="a_node7"><a xlink:title="A ``MultipleNamedEntityMixin`` is a mixin class for all VHDL entities that declare multiple instances at once by">
<polygon fill="white" stroke="#1e90ff" points="147,-19 0,-19 0,0 147,0 147,-19"/>
<text text-anchor="middle" x="73.5" y="-7" font-family="Vera Sans, DejaVu Sans, Liberation Sans, Arial, Helvetica, sans" font-size="10.00">MultipleNamedEntityMixin</text>
</a>
</g>
</g>
<!-- MultipleNamedEntityMixin&#45;&gt;Obj -->
<g id="edge6" class="edge">
<title>MultipleNamedEntityMixin&#45;&gt;Obj</title>
<path fill="none" stroke="black" stroke-width="0.5" d="M111.81,-19.08C123.13,-22.04 135.59,-25.35 147,-28.5 157.03,-31.27 167.94,-34.4 177.77,-37.26"/>
<polygon fill="black" stroke="black" stroke-width="0.5" points="177.51,-39.01 182.8,-38.73 178.49,-35.65 177.51,-39.01"/>
</g>
</g>
</svg>
