<?xml version="1.0" encoding="UTF-8" standalone="no"?>
<!DOCTYPE svg PUBLIC "-//W3C//DTD SVG 1.1//EN"
 "http://www.w3.org/Graphics/SVG/1.1/DTD/svg11.dtd">
<!-- Generated by graphviz version 2.43.0 (0)
 -->
<!-- Title: inheritance9e237bd57d Pages: 1 -->
<svg width="303pt" height="64pt"
 viewBox="0.00 0.00 303.00 64.00" xmlns="http://www.w3.org/2000/svg" xmlns:xlink="http://www.w3.org/1999/xlink">
<g id="graph0" class="graph" transform="scale(1 1) rotate(0) translate(4 60)">
<title>inheritance9e237bd57d</title>
<!-- DOMMixin -->
<g id="node1" class="node">
<title>DOMMixin</title>
<g id="a_node1"><a xlink:href="../pyGHDL.dom.html#pyGHDL.dom.DOMMixin" xlink:title="DOMMixin" target="_top">
<polygon fill="white" stroke="#1e90ff" points="179,-56 111,-56 111,-37 179,-37 179,-56"/>
<text text-anchor="middle" x="145" y="-44" font-family="Vera Sans, DejaVu Sans, Liberation Sans, Arial, Helvetica, sans" font-size="10.00">DOMMixin</text>
</a>
</g>
</g>
<!-- SimpleName -->
<g id="node4" class="node">
<title>SimpleName</title>
<g id="a_node4"><a xlink:href="../pyGHDL/pyGHDL.dom.Names.html#pyGHDL.dom.Names.SimpleName" xlink:title="A *simple name* is a name made from a single word." target="_top">
<polygon fill="white" stroke="#1e90ff" points="295,-37 215,-37 215,-18 295,-18 295,-37"/>
<text text-anchor="middle" x="255" y="-25" font-family="Vera Sans, DejaVu Sans, Liberation Sans, Arial, Helvetica, sans" font-size="10.00">SimpleName</text>
</a>
</g>
</g>
<!-- DOMMixin&#45;&gt;SimpleName -->
<g id="edge3" class="edge">
<title>DOMMixin&#45;&gt;SimpleName</title>
<path fill="none" stroke="black" stroke-width="0.5" d="M179.28,-40.64C188.98,-38.94 199.72,-37.05 209.97,-35.25"/>
<polygon fill="black" stroke="black" stroke-width="0.5" points="210.33,-36.96 214.95,-34.37 209.73,-33.51 210.33,-36.96"/>
</g>
<!-- ModelEntity -->
<g id="node2" class="node">
<title>ModelEntity</title>
<g id="a_node2"><a xlink:title="``ModelEntity`` is the base&#45;class for all classes in the VHDL language model, except for mixin classes (see multiple">
<polygon fill="white" stroke="#1e90ff" points="75,-19 0,-19 0,0 75,0 75,-19"/>
<text text-anchor="middle" x="37.5" y="-7" font-family="Vera Sans, DejaVu Sans, Liberation Sans, Arial, Helvetica, sans" font-size="10.00">ModelEntity</text>
</a>
</g>
</g>
<!-- Name -->
<g id="node3" class="node">
<title>Name</title>
<g id="a_node3"><a xlink:title="``Name`` is the base&#45;class for all *names* in the VHDL language model.">
<polygon fill="white" stroke="#1e90ff" points="172,-19 118,-19 118,0 172,0 172,-19"/>
<text text-anchor="middle" x="145" y="-7" font-family="Vera Sans, DejaVu Sans, Liberation Sans, Arial, Helvetica, sans" font-size="10.00">Name</text>
</a>
</g>
</g>
<!-- ModelEntity&#45;&gt;Name -->
<g id="edge1" class="edge">
<title>ModelEntity&#45;&gt;Name</title>
<path fill="none" stroke="black" stroke-width="0.5" d="M75.1,-9.5C87.28,-9.5 100.73,-9.5 112.49,-9.5"/>
<polygon fill="black" stroke="black" stroke-width="0.5" points="112.77,-11.25 117.77,-9.5 112.77,-7.75 112.77,-11.25"/>
</g>
<!-- Name&#45;&gt;SimpleName -->
<g id="edge4" class="edge">
<title>Name&#45;&gt;SimpleName</title>
<path fill="none" stroke="black" stroke-width="0.5" d="M172.14,-13.86C183.39,-15.73 196.85,-17.97 209.58,-20.1"/>
<polygon fill="black" stroke="black" stroke-width="0.5" points="209.38,-21.84 214.6,-20.93 209.95,-18.38 209.38,-21.84"/>
</g>
<!-- SimpleName&#45;&gt;SimpleName -->
<g id="edge2" class="edge">
<title>SimpleName&#45;&gt;SimpleName</title>
<path fill="none" stroke="black" stroke-width="0.5" d="M238.05,-37.08C229.8,-45.73 235.45,-55 255,-55 271.19,-55 277.85,-48.65 274.98,-41.55"/>
<polygon fill="black" stroke="black" stroke-width="0.5" points="276.21,-40.24 271.95,-37.08 273.31,-42.2 276.21,-40.24"/>
</g>
</g>
</svg>
