<?xml version="1.0" encoding="UTF-8" standalone="no"?>
<!DOCTYPE svg PUBLIC "-//W3C//DTD SVG 1.1//EN"
 "http://www.w3.org/Graphics/SVG/1.1/DTD/svg11.dtd">
<!-- Generated by graphviz version 2.43.0 (0)
 -->
<!-- Title: inheritance953873d1d9 Pages: 1 -->
<svg width="451pt" height="101pt"
 viewBox="0.00 0.00 451.00 101.00" xmlns="http://www.w3.org/2000/svg" xmlns:xlink="http://www.w3.org/1999/xlink">
<g id="graph0" class="graph" transform="scale(1 1) rotate(0) translate(4 97)">
<title>inheritance953873d1d9</title>
<!-- Context -->
<g id="node1" class="node">
<title>Context</title>
<g id="a_node1"><a xlink:href="../pyGHDL/pyGHDL.dom.DesignUnit.html#pyGHDL.dom.DesignUnit.Context" xlink:title="Context" target="_top">
<polygon fill="white" stroke="#1e90ff" points="443,-74 388,-74 388,-55 443,-55 443,-74"/>
<text text-anchor="middle" x="415.5" y="-62" font-family="Vera Sans, DejaVu Sans, Liberation Sans, Arial, Helvetica, sans" font-size="10.00">Context</text>
</a>
</g>
</g>
<!-- Context&#45;&gt;Context -->
<g id="edge1" class="edge">
<title>Context&#45;&gt;Context</title>
<path fill="none" stroke="black" stroke-width="0.5" d="M400.09,-74.08C392.59,-82.73 397.73,-92 415.5,-92 430.22,-92 436.27,-85.65 433.66,-78.55"/>
<polygon fill="black" stroke="black" stroke-width="0.5" points="435.02,-77.42 430.91,-74.08 432.04,-79.26 435.02,-77.42"/>
</g>
<!-- DOMMixin -->
<g id="node2" class="node">
<title>DOMMixin</title>
<g id="a_node2"><a xlink:href="../pyGHDL.dom.html#pyGHDL.dom.DOMMixin" xlink:title="DOMMixin" target="_top">
<polygon fill="white" stroke="#1e90ff" points="348.5,-93 280.5,-93 280.5,-74 348.5,-74 348.5,-93"/>
<text text-anchor="middle" x="314.5" y="-81" font-family="Vera Sans, DejaVu Sans, Liberation Sans, Arial, Helvetica, sans" font-size="10.00">DOMMixin</text>
</a>
</g>
</g>
<!-- DOMMixin&#45;&gt;Context -->
<g id="edge2" class="edge">
<title>DOMMixin&#45;&gt;Context</title>
<path fill="none" stroke="black" stroke-width="0.5" d="M348.74,-77.12C359.65,-75.03 371.75,-72.71 382.56,-70.63"/>
<polygon fill="black" stroke="black" stroke-width="0.5" points="383.17,-72.29 387.75,-69.63 382.51,-68.86 383.17,-72.29"/>
</g>
<!-- PrimaryUnit -->
<g id="node3" class="node">
<title>PrimaryUnit</title>
<g id="a_node3"><a xlink:title="A ``PrimaryUnit`` is a base&#45;class for all primary units.">
<polygon fill="white" stroke="#1e90ff" points="352,-56 277,-56 277,-37 352,-37 352,-56"/>
<text text-anchor="middle" x="314.5" y="-44" font-family="Vera Sans, DejaVu Sans, Liberation Sans, Arial, Helvetica, sans" font-size="10.00">PrimaryUnit</text>
</a>
</g>
</g>
<!-- PrimaryUnit&#45;&gt;Context -->
<g id="edge3" class="edge">
<title>PrimaryUnit&#45;&gt;Context</title>
<path fill="none" stroke="black" stroke-width="0.5" d="M352.08,-53.15C362.21,-54.99 373.12,-56.98 382.94,-58.76"/>
<polygon fill="black" stroke="black" stroke-width="0.5" points="382.73,-60.5 387.97,-59.68 383.36,-57.06 382.73,-60.5"/>
</g>
<!-- DesignUnit -->
<g id="node4" class="node">
<title>DesignUnit</title>
<g id="a_node4"><a xlink:title="A ``DesignUnit`` is a base&#45;class for all design units.">
<polygon fill="white" stroke="#1e90ff" points="241,-56 170,-56 170,-37 241,-37 241,-56"/>
<text text-anchor="middle" x="205.5" y="-44" font-family="Vera Sans, DejaVu Sans, Liberation Sans, Arial, Helvetica, sans" font-size="10.00">DesignUnit</text>
</a>
</g>
</g>
<!-- DesignUnit&#45;&gt;PrimaryUnit -->
<g id="edge7" class="edge">
<title>DesignUnit&#45;&gt;PrimaryUnit</title>
<path fill="none" stroke="black" stroke-width="0.5" d="M241.24,-46.5C250.91,-46.5 261.51,-46.5 271.54,-46.5"/>
<polygon fill="black" stroke="black" stroke-width="0.5" points="271.72,-48.25 276.72,-46.5 271.72,-44.75 271.72,-48.25"/>
</g>
<!-- ModelEntity -->
<g id="node5" class="node">
<title>ModelEntity</title>
<g id="a_node5"><a xlink:title="``ModelEntity`` is the base&#45;class for all classes in the VHDL language model, except for mixin classes (see multiple">
<polygon fill="white" stroke="#1e90ff" points="104.5,-93 29.5,-93 29.5,-74 104.5,-74 104.5,-93"/>
<text text-anchor="middle" x="67" y="-81" font-family="Vera Sans, DejaVu Sans, Liberation Sans, Arial, Helvetica, sans" font-size="10.00">ModelEntity</text>
</a>
</g>
</g>
<!-- ModelEntity&#45;&gt;DesignUnit -->
<g id="edge4" class="edge">
<title>ModelEntity&#45;&gt;DesignUnit</title>
<path fill="none" stroke="black" stroke-width="0.5" d="M103.15,-73.97C122.09,-68.84 145.5,-62.49 165.06,-57.19"/>
<polygon fill="black" stroke="black" stroke-width="0.5" points="165.57,-58.87 169.94,-55.87 164.66,-55.49 165.57,-58.87"/>
</g>
<!-- NamedEntityMixin -->
<g id="node6" class="node">
<title>NamedEntityMixin</title>
<g id="a_node6"><a xlink:title="A ``NamedEntityMixin`` is a mixin class for all VHDL entities that have identifiers.">
<polygon fill="white" stroke="#1e90ff" points="120.5,-56 13.5,-56 13.5,-37 120.5,-37 120.5,-56"/>
<text text-anchor="middle" x="67" y="-44" font-family="Vera Sans, DejaVu Sans, Liberation Sans, Arial, Helvetica, sans" font-size="10.00">NamedEntityMixin</text>
</a>
</g>
</g>
<!-- NamedEntityMixin&#45;&gt;DesignUnit -->
<g id="edge5" class="edge">
<title>NamedEntityMixin&#45;&gt;DesignUnit</title>
<path fill="none" stroke="black" stroke-width="0.5" d="M120.77,-46.5C135.35,-46.5 150.91,-46.5 164.62,-46.5"/>
<polygon fill="black" stroke="black" stroke-width="0.5" points="164.97,-48.25 169.97,-46.5 164.97,-44.75 164.97,-48.25"/>
</g>
<!-- DocumentedEntityMixin -->
<g id="node7" class="node">
<title>DocumentedEntityMixin</title>
<g id="a_node7"><a xlink:title="A ``DocumentedEntityMixin`` is a mixin class for all VHDL entities that can have an associated documentation.">
<polygon fill="white" stroke="#1e90ff" points="134,-19 0,-19 0,0 134,0 134,-19"/>
<text text-anchor="middle" x="67" y="-7" font-family="Vera Sans, DejaVu Sans, Liberation Sans, Arial, Helvetica, sans" font-size="10.00">DocumentedEntityMixin</text>
</a>
</g>
</g>
<!-- DocumentedEntityMixin&#45;&gt;DesignUnit -->
<g id="edge6" class="edge">
<title>DocumentedEntityMixin&#45;&gt;DesignUnit</title>
<path fill="none" stroke="black" stroke-width="0.5" d="M103.15,-19.03C122.09,-24.16 145.5,-30.51 165.06,-35.81"/>
<polygon fill="black" stroke="black" stroke-width="0.5" points="164.66,-37.51 169.94,-37.13 165.57,-34.13 164.66,-37.51"/>
</g>
</g>
</svg>
